<?xml version="1.0" encoding="UTF-8"?>
<svg id="a" xmlns="http://www.w3.org/2000/svg" version="1.1" viewBox="0 0 94.56 78.39">
  <!-- Generator: Adobe Illustrator 30.2.1, SVG Export Plug-In . SVG Version: 2.1.1 Build 1)  -->
  <defs>
    <style>
      .st0 {
        fill: #2a2a2a;
      }

      .st1 {
        fill: #e5e1c3;
      }
    </style>
  </defs>
  <path class="st1" d="M32.94,29.69c.32-.11.65-.2.98-.27-.11-.34-.18-.69-.25-1.02-.12-.54-.19-1.09-.24-1.65-.19-2.01,0-4.04.54-5.98.27-.97.62-1.91,1.06-2.81.22-.46.47-.9.73-1.34.06-.1.12-.2.19-.29-.89.2-1.75.51-2.58.94-2.64,1.37-4.71,3.76-5.4,6.69-.35,1.5-.26,3-.05,4.5.1.68.27,1.33.49,1.98.13.4.25.81.39,1.21.42-.29.86-.55,1.31-.79.44-.23.88-.46,1.36-.67s.98-.34,1.48-.5h0Z"/>
  <path class="st1" d="M43.37,56.71c1.62.47,3.24.95,4.86,1.4.04-.76.08-1.51.11-2.27.04-.82.04-1.65.12-2.47-1.84-.55-3.59-1.36-5.17-2.44-.05,1.93-.09,3.86.07,5.78h0Z"/>
  <path class="st1" d="M38.11,18.6c.17.44.33.89.5,1.34.15.41.36.84.44,1.27.02.1-.1.19-.16.24-.98.75-1.93,1.53-2.88,2.3.58.29,1.17.54,1.77.79.34.14.69.28,1.02.46.24.13.56.27.68.52.04.04.06.08.05.14v.06c-.12.75-.34,1.49-.66,2.19-.17.36-.36.7-.57,1.04-.06.09-.11.17-.17.26,1.53.16,3.04.55,4.43,1.17.79.35,1.55.78,2.25,1.29.03-.04.06-.08.09-.12.79-1.08,1.3-2.34,1.62-3.63.37-1.51.52-3.08.27-4.61-.23-1.43-.8-2.85-1.69-4-.45-.59-.97-1.15-1.57-1.58-.64-.46-1.36-.83-2.08-1.09-.72-.26-1.46-.43-2.21-.52-.27-.03-.59-.05-.94-.05-.32,0-.75.02-.98.04-.03,0-.07,0-.1.01.3.83.6,1.66.91,2.48h-.02Z"/>
  <path class="st1" d="M57.21,55.08c.05.45.1.9.15,1.35.05.45.1.9.15,1.35,0,.11.02.22.04.34,0,.03.03.19.04.25.03,0,.06,0,.09-.02.09-.02.19-.05.28-.07,1.72-.44,3.42-.91,5.13-1.39.3-1.49.42-3.01.38-4.53-.53.24-1.08.46-1.64.66-1.53.54-3.12.9-4.72,1.09.05.32.07.64.11.97h-.01Z"/>
  <path class="st1" d="M32.23,71.86h0s-.04.05-.07.07c-.53.32-1.12.51-1.75.55-1.32.1-2.63-.41-3.78-.99-1.27-.64-2.48-1.43-3.67-2.2-2.38-1.54-4.52-3.45-6.24-5.71-.43-.56-.82-1.13-1.22-1.73-.39-.6-.76-1.23-1.21-1.79-.85-1.06-1.59-2.24-2.24-3.44-.64-1.19-1.12-2.44-1.42-3.78-.29-1.34-.41-2.68-.5-4.07-.09-1.4-.13-2.79-.26-4.18-.15-1.54-.37-3.07-.5-4.61-.23-2.91-.22-5.85.28-8.73.44-2.53,1.25-4.97,2.34-7.29.59-1.26,1.26-2.49,1.97-3.69.68-1.14,1.37-2.27,2.18-3.32.74-.96,1.56-1.91,2.37-2.77.81-.85,1.67-1.65,2.68-2.26,1.99-1.19,4.38-1.69,6.69-1.8h0c.31-.23.62-.46.93-.68,3.32-2.36,7.01-4.19,10.89-5.45,1.92-.63,3.89-1.12,5.88-1.48-.56-.02-1.12-.03-1.69-.03-6.5,0-13.05,1.28-18.93,4.1h0c-.41.3-.82.59-1.23.89-3.95,2.87-7.44,6.39-10.33,10.32-2.9,3.94-5.19,8.38-6.5,13.11-1.24,4.45-1.5,9.03-.95,13.66s1.88,9.17,3.91,13.37c1.01,2.1,2.21,4.12,3.59,6,.93,1.27,1.95,2.47,3.03,3.6h0c1.79,1.45,3.72,2.7,5.79,3.78,3.67,1.91,7.73,3.18,11.83,3.88,3.79.65,7.61.78,11.44.7-2.43-.35-4.84-.86-7.19-1.58-2.11-.64-4.17-1.45-6.15-2.44h.03ZM31.55,5.75s.02-.08.05-.11l.06-.04s.1-.05.16-.06h.09s.09,0,.14.01c.04,0,.08.02.12.04.03.01.06.04.07.07.02.02.03.05.03.08v.08s0,.06-.02.08c0,.03-.03.05-.06.07-.03.03-.06.04-.1.05l-.08.02h-.09s-.09,0-.13-.01c-.03,0-.05-.01-.08-.03-.03-.01-.06-.03-.09-.06l-.03-.05s-.01-.05-.02-.08v-.08h0l-.02.02ZM27.93,6.21s.06-.08.11-.1c.05-.03.11-.06.17-.07.06-.02.13-.03.2-.03.09,0,.18.01.27.04l.11.05c.06.03.11.08.14.14.03.05.06.09.09.14.01.02.03.05.04.07,0,.01.01.02.02.03,0,.01,0,.03.01.04.02.05.02.11,0,.16-.03.06-.07.1-.13.13-.03.02-.06.04-.1.05-.08.03-.16.04-.25.04-.04,0-.09,0-.14-.01-.08-.01-.15-.04-.22-.08-.04-.03-.08-.06-.11-.09-.03-.02-.04-.05-.06-.08-.04-.06-.08-.11-.12-.16h0s-.07-.1-.07-.16c0-.05.02-.09.05-.12h-.01ZM7.26,35.38h0s.02-.07.05-.1l.06-.04s.1-.05.16-.06h.09s.09,0,.14,0c.04,0,.08.02.12.04.03,0,.06.04.07.07.02.02.03.05.03.08v.08s0,.06-.02.08c-.01.03-.03.05-.06.07-.03.03-.06.04-.1.05l-.08.02h-.09s-.09,0-.13,0c-.03,0-.05,0-.08-.03-.03,0-.06-.03-.09-.06l-.03-.05s-.01-.05-.02-.08v-.08h-.02ZM8.05,45.48c0,.17-.18.24-.35.26-.2.02-.53-.02-.54-.26v-.06h0c0-.36.9-.36.89,0v.06ZM8.58,48.44c-.11,0-.34-.05-.34-.2s.22-.2.34-.2.34.05.34.2-.22.2-.34.2ZM33.19,73.53c-.03.06-.07.1-.13.13-.03.02-.06.04-.1.05-.08.03-.16.04-.25.04-.04,0-.09,0-.14-.01-.08-.01-.15-.04-.22-.08-.04-.03-.08-.06-.11-.09-.03-.02-.04-.05-.06-.08-.04-.06-.08-.11-.12-.16h0s-.07-.1-.07-.16c0-.05.02-.09.05-.12.03-.05.06-.08.11-.1.05-.03.11-.06.17-.07.06-.02.13-.03.2-.03.09,0,.18.01.27.04l.11.05c.06.03.11.08.14.14.03.05.06.09.09.14,0,.02.03.05.04.07,0,.01,0,.02.02.03,0,.01,0,.03,0,.04.02.05.02.11,0,.16h0Z"/>
  <path class="st1" d="M8.46,56.46c-1.87-4.3-3.04-8.93-3.4-13.6-.36-4.66.11-9.36,1.58-13.81,1.56-4.71,4.05-9.08,7.12-12.96,1.55-1.96,3.31-3.85,5.1-5.5.59-.55,1.2-1.09,1.82-1.61h-.02c-3.36,2.17-6.39,4.85-8.96,7.9-1.78,2.12-3.34,4.43-4.64,6.88-.64,1.22-1.23,2.48-1.74,3.77-.25.64-.5,1.3-.71,1.95-.21.65-.35,1.33-.53,2-.85,3.17-1.25,6.43-1.04,9.71.17,2.61.64,5.14,1.34,7.62.82,2.87,1.96,5.66,3.41,8.28,1.35,2.44,2.95,4.69,4.83,6.76h0c-1.66-2.29-3.06-4.79-4.18-7.39h.02Z"/>
  <path class="st1" d="M46.29,9.57h.03-.03Z"/>
  <polygon class="st1" points="82.31 45.98 82.22 45.98 82.22 45.98 82.31 45.98 82.31 45.98"/>
  <path class="st1" d="M24.19,16.24c1.42-1.95,3.02-3.78,4.74-5.44.34-.33.69-.65,1.04-.97,0,0-.02.01-.02.02-1.6,1.12-3.11,2.35-4.52,3.69-2.69,2.55-5.04,5.47-6.93,8.67s-3.33,6.67-4.18,10.28c-.84,3.5-1.09,7.11-.77,10.7s1.21,7.14,2.57,10.45c1.36,3.31,3.25,6.46,5.47,9.16,1.61,1.96,3.46,3.72,5.5,5.22h0c-3.29-3.26-5.79-7.28-7.56-11.55-1.79-4.31-2.87-8.96-3.18-13.6s.18-9.32,1.5-13.79c1.35-4.61,3.52-8.95,6.35-12.84h0Z"/>
  <path class="st1" d="M79.58,26.84c.6-1.49.99-3.03.98-4.67s-.39-3.25-1.15-4.71c-.3-.57-.63-1.12-1.06-1.59-.38-.42-.8-.79-1.22-1.1-1.14-.86-2.48-1.6-3.87-1.9-.94-.21-1.91-.24-2.84-.1.51.38.98.81,1.44,1.19.68.56,1.36,1.14,1.98,1.76.12.12.07.25-.03.34-.04.15-.16.28-.24.41-.13.2-.25.4-.36.61-.23.41-.45.84-.65,1.27-.19.43-.38.86-.55,1.3-.08.2-.16.39-.25.59-.03.08-.07.17-.1.25.18.02.36.05.54.07.32.04.63.1.96.16s.67.12.99.17c.32.06.72.07,1,.24.06.03.15.12.14.2h0s.03.06.03.09c.1,1.05.12,2.12.02,3.17-.05.51-.12,1.02-.21,1.52-.05.24-.09.49-.17.73.37,0,.75.03,1.12.06,1.09.11,2.16.37,3.18.75.11-.27.22-.54.33-.81h-.01Z"/>
  <path class="st1" d="M94.42,39.7c-.33-3.6-1.14-7.13-1.92-10.55-.19-.82-.38-1.64-.56-2.47l-.04-.16c-.86-3.91-1.76-7.95-4.01-11.53-1.23-1.96-2.79-3.51-4.16-4.78-1.71-1.58-3.49-2.97-5.28-4.15-2.08-1.36-4.17-2.41-6.22-3.13-1.9-.67-3.97-1.23-6.52-1.75C61.94.4,58.12,0,54.36,0,53.71,0,53.04.01,52.4.04c-1.15.04-2.3.12-3.42.24-1.7-.16-3.41-.23-5.09-.23-5.41,0-10.59.81-15.38,2.4-5.93,1.97-11.45,5.3-15.97,9.63-4.27,4.09-7.67,9.1-9.84,14.49-.28.69-.53,1.37-.75,2.04-.07.22-.15.44-.23.66-.17.47-.35.96-.49,1.48-.39,1.41-.69,2.85-.91,4.27-.22,1.59-.32,3.05-.32,4.46,0,2.48.34,5.13.97,7.87.68,3,1.7,5.91,3.02,8.66,1.5,3.14,3.39,6.04,5.6,8.62,2.46,2.87,5.35,5.35,8.59,7.36,3.56,2.21,7.6,3.87,12.01,4.95,3.93.96,8.11,1.45,12.43,1.45,1.04,0,2.1-.03,3.15-.09,1.26-.07,2.39-.16,3.46-.29.41.03.84.06,1.31.09,1.76.11,3.3.16,4.72.16,3.14,0,5.88-.26,8.36-.8,4.04-.87,8.01-2.45,11.78-4.69,3.63-2.15,6.95-4.83,9.88-7.96,3.37-3.59,5.85-7.46,7.37-11.48,1.59-4.2,2.2-8.92,1.77-13.64h0ZM91.05,52.74c-1.54,4.08-4.04,7.74-7.02,10.91-2.79,2.98-5.99,5.57-9.5,7.65-3.49,2.07-7.29,3.63-11.27,4.48-4.14.89-8.47.86-12.62.6-.48-.03-.97-.06-1.45-.1-1.17.15-2.34.24-3.52.3-5.04.27-10.16-.12-15.08-1.32-4.05-.99-7.97-2.54-11.52-4.74-3.07-1.9-5.84-4.27-8.19-7.01-2.14-2.49-3.93-5.28-5.35-8.24-1.27-2.65-2.24-5.44-2.89-8.3-.56-2.46-.91-4.98-.92-7.5,0-1.41.11-2.81.32-4.2.21-1.37.5-2.74.87-4.07.19-.7.48-1.4.69-2.05.22-.66.46-1.3.72-1.94,2.1-5.21,5.38-10,9.43-13.89,4.35-4.17,9.6-7.34,15.32-9.24,6.41-2.13,13.24-2.7,19.94-2.07,1.15-.13,2.31-.21,3.47-.25,4.32-.16,8.67.23,12.9,1.11,2.12.44,4.25.97,6.3,1.69,2.06.72,4.05,1.77,5.85,2.95,1.79,1.17,3.48,2.52,5.06,3.97,1.45,1.34,2.81,2.75,3.87,4.43,2.12,3.38,2.97,7.31,3.82,11.15.93,4.24,2.05,8.47,2.44,12.81.4,4.36-.13,8.8-1.67,12.88h0Z"/>
  <path class="st1" d="M70.83,26.87c-.12-.25-.23-.5-.33-.76-.22-.53-.41-1.08-.61-1.62-.69-1.87-1.21-3.81-1.41-5.8-.18-1.86-.05-3.72.38-5.54-1.04.38-2.01.96-2.83,1.74-2.07,1.96-3.32,4.84-3.47,7.67-.08,1.54.14,3.09.64,4.54.25.72.57,1.4.94,2.06.19.34.39.66.62.98.11.15.23.31.34.45,0,.01.01.03.02.04.11-.1.22-.21.34-.31,1.4-1.22,3.04-2.21,4.81-2.79.25-.08.5-.15.75-.22-.07-.14-.14-.29-.2-.43h.01Z"/>
  <path class="st1" d="M89.22,27.32c-.43-1.93-.88-3.85-1.52-5.72-.63-1.82-1.32-3.63-2.32-5.27-.99-1.64-2.32-3.01-3.71-4.31-3.05-2.85-6.58-5.35-10.54-6.76-1.98-.71-4.04-1.22-6.1-1.65-2.07-.43-4.16-.74-6.26-.93-4.15-.37-8.37-.22-12.47.49-4.07.71-8.06,1.98-11.75,3.87-.28.21-.57.41-.85.62-3.81,2.8-7.09,6.28-9.73,10.24-2.64,3.96-4.61,8.36-5.77,12.98-1.12,4.47-1.43,9.03-.95,13.64.49,4.62,1.72,9.16,3.68,13.37.98,2.1,2.16,4.15,3.49,6,1.25,1.74,2.67,3.34,4.2,4.83,1.51,1.04,3.09,1.97,4.74,2.77,3.51,1.7,7.29,2.81,11.14,3.47,4.12.7,8.31.91,12.48.83,3.94-.07,7.8-.92,11.48-2.4,3.69-1.48,7.13-3.56,10.21-6.05,3.18-2.58,6.07-5.6,8.31-9.04,2.39-3.66,4.07-7.95,4.57-12.2.51-4.25-.09-8.5-.97-12.66-.43-2.05-.91-4.09-1.36-6.13h0ZM59.13,40.3s.02-.06.04-.08l.06-.04.07-.03s.09-.03.14-.03h.1s.09,0,.14.03l.07.03s.05.02.07.03h.02s.05.04.08.06l.03.02s.06.07.06.12v.06s-.07.08-.12.11l-.08.04s-.1.03-.15.03h-.16s-.09-.02-.14-.04c-.04,0-.07-.04-.1-.07l-.03-.02s-.04-.05-.06-.08c0-.02-.02-.03-.02-.05h0s-.02-.06,0-.09h-.02ZM58.85,13.03v.06c0,.17-.18.24-.35.26-.2.02-.53-.02-.54-.26v-.06h0c0-.36.9-.36.89,0ZM49.05,14.46c.11,0,.34.05.34.2s-.22.2-.34.2-.34-.05-.34-.2.22-.2.34-.2ZM46.07,9.37l.03-.04s.06-.04.1-.05c.06-.05.15-.08.23-.09.06-.01.12-.01.18,0,.06,0,.11.01.16.03.12.04.21.1.3.18.02.02.04.04.06.07.03.04.06.09.09.13.02.05.02.09,0,.14l-.04.06s-.1.08-.16.09l-.1.03c-.06.01-.12.01-.18,0-.06,0-.11-.01-.16-.03-.08-.03-.16-.08-.2-.16,0,0,0-.01,0-.02,0-.02-.03-.03-.04-.05h0c-.07-.03-.15-.08-.19-.15-.02-.02-.04-.04-.05-.07v-.06h-.01ZM26.95,44.77s-.01.08-.04.11c-.01.03-.03.05-.06.06-.04.03-.08.06-.13.07h-.02s-.06.02-.1.03h-.17c-.06,0-.12,0-.17-.03l-.09-.04-.07-.06s-.01,0-.02-.02h0s-.03-.05-.05-.07h0s-.02-.07-.02-.1v-.04h0v-.06s0-.03.03-.07h0s0,0,.02-.02c.01-.02.01-.03.03-.03h0s.06-.05.1-.07c.03-.02.06-.03.09-.03.05-.02.1-.02.15-.02h.1s.07.03.1.03h0s.02,0,.03,0h.02s.06.03.09.05h0s.07.05.1.09c0,0,.02.02.03.03h0s.02.04.03.05v.02h.01l.02.08v.03h-.01ZM29.31,39l-.05.07s-.08.07-.13.09c-.04.02-.07.03-.11.04-.06.02-.13.03-.2.03h-.14c-.06-.02-.12-.04-.17-.07-.05-.02-.09-.05-.13-.09-.03-.03-.05-.07-.08-.11,0,0-.02-.03-.03-.04-.02-.03-.03-.05-.05-.08-.02-.03-.03-.05-.05-.08-.02-.03-.04-.07-.04-.11v-.04c0-.06.02-.11.06-.15.05-.05.11-.08.17-.1.08-.03.16-.04.24-.04s.16,0,.24.04c.03,0,.07.03.1.05h0s.03,0,.05.02c.07.04.1.08.14.15,0,0,0,0,.01.02.01.03.03.05.05.08.02.03.03.05.05.08,0,0,.02.03.02.04s.02.03.02.04c.02.06.02.11,0,.16h.03ZM26.15,35.4c-.51.73-.94,1.5-1.31,2.33-.37.82-.59,1.69-.91,2.53h0c-.09.24-.79.24-.78-.06.04-1.05.47-2.1.92-3.05s1.02-1.84,1.67-2.66c.68-.85,1.46-1.62,2.31-2.29-.15-.21-.3-.43-.44-.65-.78-1.24-1.2-2.78-1.33-4.23-.15-1.65.05-3.36.66-4.91,1.17-2.98,3.77-5.25,6.71-6.39,3.12-1.22,6.71-1.15,9.72.35,1.53.76,2.83,1.9,3.72,3.35.84,1.37,1.3,2.93,1.4,4.57.1,1.64-.21,3.36-.73,4.92-.42,1.25-1.07,2.4-1.92,3.4.15.16.29.33.42.52.16.23.31.46.44.71.07.12.13.26.14.41,0,.12-.05.27-.09.39-.06.25-.46.34-.67.37-.28.03-.6-.04-.81-.24-.13-.13-.27-.25-.35-.43-.05-.1-.08-.22-.12-.32-.1-.21-.21-.41-.35-.6-.28-.38-.61-.72-.97-1.02-.79-.65-1.76-1.12-2.72-1.48-1.77-.67-3.68-.9-5.55-.73-.9.08-1.89.22-2.78.51-.44.15-.9.28-1.32.48-.4.19-.79.41-1.17.65-1.5.93-2.8,2.18-3.81,3.62l.02-.05ZM31.98,65.24l-.05.08s-.08.07-.13.09c-.03.02-.07.03-.12.04-.06.02-.13.03-.2.03h-.14c-.06-.02-.12-.04-.18-.07-.05-.02-.09-.05-.13-.09-.01-.02-.03-.04-.04-.05-.04-.02-.08-.05-.11-.08l-.06-.09s-.04-.07-.06-.11c-.02-.05-.03-.09,0-.14,0-.03.02-.06.03-.08.02-.03.04-.06.06-.08.04-.04.08-.07.13-.09.03-.02.07-.03.11-.04.06-.02.13-.03.19-.03h.13s.09.03.14.04c.04.01.08.03.12.05.06.03.11.05.15.1,0,0,.02.02.03.03.02.02.03.04.05.07.04.04.06.08.07.13,0,.02.01.04,0,.07,0,.02.02.03.03.05h0c.03.06.03.11,0,.17h-.02ZM59.58,71.01v.03s0,.06-.02.08c0,.03-.03.05-.06.07-.03.03-.06.04-.1.05l-.08.02h-.09s-.09,0-.13-.01c-.03,0-.05-.01-.08-.03-.03-.01-.06-.03-.09-.06l-.03-.05s0-.05-.02-.08v-.08h0s.02-.08.05-.11l.06-.04s.1-.05.16-.06h.09s.09,0,.14.01c.04,0,.08.02.12.04.03.01.06.04.07.07.02.02.03.05.03.08v.05l-.02.02ZM71.53,63.17s-.02.09-.04.13c-.02.03-.04.06-.06.08,0,0-.02.02-.03.03-.04.04-.09.06-.14.08s-.09.03-.15.03h-.16c-.05,0-.09-.02-.13-.04-.04,0-.07-.03-.1-.06-.03-.03-.05-.07-.05-.12v-.06s.05-.05.07-.07h0s0-.02.01-.03v-.11s-.03-.04-.03-.07v-.05s.08-.08.12-.1c.06-.03.12-.04.19-.04.08,0,.16.02.22.06l.09.06h.01l.06.04.04.05s0,0,.01.02c.01.02.02.04.03.06,0,.04.01.07,0,.11h.04ZM79.04,40.21c-.25.52-1.19.43-1.47,0-.13-.2-.12-.5-.19-.72s-.17-.43-.3-.62c-.27-.41-.66-.73-1.08-.97-.44-.25-.91-.42-1.38-.52-.02.31-.05.61-.09.91-.28,1.77-.86,3.52-1.68,5.14.03.03.05.06.06.1.16.55.29,1.11.4,1.67.89,4.55-.02,9.51-2.35,13.5-2.19,3.75-5.64,6.69-9.64,8.36-4.23,1.76-9,1.95-13.38.67-2.24-.65-4.38-1.7-6.27-3.07-.99-.72-1.9-1.5-2.62-2.49-.71-.99-1.23-2.09-1.63-3.24-.74-2.16-1.19-4.49-1.11-6.77.04-1.11.11-2.27.43-3.37s.8-2.13,1.43-3.08c.04-.06.09-.1.16-.14-.08-.15-.16-.29-.24-.44-.67-1.3-.89-2.74-.9-4.19-.77.19-1.48.57-2.06,1.11-.7.65-1.22,1.46-1.54,2.36-.16.45-.27.93-.34,1.4-.03.24-.05.48-.04.72,0,.24-.03.48,0,.72h0c.02.3-.69.31-.78.06-.1-.31-.2-.58-.23-.9-.03-.31-.04-.62-.02-.92.04-.59.21-1.18.44-1.72.42-.99,1.1-1.85,1.95-2.5.9-.69,1.92-1.04,3.09-1.18,1.17-.14,2.37,0,3.47.45.53.22,1.03.5,1.48.85.23.18.46.37.67.59.23.23.47.45.32.8-.12.28-.57.35-.82.29-.24-.06-.47-.11-.65-.3-.09-.1-.17-.21-.26-.3-.16-.18-.34-.34-.53-.49-.41-.32-.85-.57-1.31-.74-.46-.17-.8-.28-1.25-.34-.1,0-.21-.02-.33-.03,0,.22,0,.44.02.67.04.75.13,1.5.35,2.22.23.78.64,1.51,1.07,2.21.86,1.39,1.98,2.62,3.23,3.66,2.71,2.25,6.15,3.48,9.64,3.81,3.33.32,6.74-.24,9.8-1.56,1.54-.66,3.06-1.54,4.31-2.55s2.35-2.18,3.32-3.45c1.92-2.52,3.05-5.46,3.59-8.57h-.17c-.81,0-1.65.25-2.36.63-.44.23-.86.49-1.23.82-.34.3-.66.68-1.09.86h0c-.15.06-.44.03-.48-.16-.08-.39.42-.86.67-1.09.32-.31.68-.59,1.06-.82,1.47-.87,3.29-1.2,4.97-.95,1.01.15,1.96.52,2.74,1.19.36.31.66.68.88,1.1.19.36.46.98.27,1.37v-.05ZM82.69,46.16s-.1.07-.16.09c-.08.04-.19.04-.27.05h-.16l-.11-.03s-.03,0-.05-.02c-.02,0-.03-.02-.05-.02h0s-.06-.05-.09-.07c0,0-.01,0-.02-.02-.02-.03-.04-.05-.05-.08h0s-.02-.08-.02-.11c0-.04.01-.08.04-.11h0v-.02s.04-.07.07-.1c0,0,.01,0,.02-.02l.09-.06s.01,0,.02,0c.07-.03.11-.05.19-.07.06,0,.13,0,.19,0,.1,0,.2.03.28.07h0s.06.04.08.07c.02.02.03.05.03.09v.06l-.02.02.03.03.03.05v.12s-.02.09-.06.12v-.03ZM84.31,36.66c-.03.06-.07.1-.13.13-.03.02-.06.04-.1.05-.08.03-.16.04-.25.04-.04,0-.09,0-.14,0-.08,0-.15-.04-.22-.08-.04-.03-.08-.06-.11-.09-.03-.02-.04-.05-.06-.08-.04-.06-.08-.11-.12-.16h0s-.07-.1-.07-.16c0-.05.02-.09.05-.12.03-.05.06-.08.11-.1.05-.03.11-.06.17-.07.06-.02.13-.03.2-.03.09,0,.18,0,.27.04l.11.05c.06.03.11.08.14.14.03.05.06.09.09.14.01.02.03.05.04.07,0,0,.01.02.02.03s0,.03.01.04c.02.05.02.11,0,.16h0ZM84.8,32.62c-.76-.69-1.42-1.46-2.24-2.08-.78-.59-1.59-1.09-2.47-1.5-.78-.37-1.63-.66-2.44-.86-.42-.1-.85-.19-1.29-.25-.46-.07-.76-.1-1.19-.12-1.7-.07-3.24.23-4.83.87-3.06,1.25-5.63,3.79-6.89,6.89-.25.61-1.85.43-1.56-.27.62-1.53,1.55-2.94,2.7-4.14-.16-.08-.32-.15-.43-.28-.14-.15-.26-.32-.38-.48-1.95-2.58-2.76-5.99-2.25-9.18.47-2.92,2.06-5.8,4.46-7.56,2.5-1.82,6.03-2.31,8.96-1.38,1.51.48,2.89,1.33,4.08,2.36,1.11.96,1.89,2.2,2.42,3.57.63,1.62.85,3.38.69,5.1-.16,1.66-.54,3.47-1.43,4.9-.01.02-.02.03-.04.05.28.14.57.29.84.44.8.46,1.56,1.03,2.24,1.65.64.59,1.35,1.28,1.72,2.09h0c.14.32-.53.29-.67.17h0ZM87.27,41.11s0,.06-.02.09c0,0,0,.02-.01.03,0,.02-.02.05-.03.07-.02.04-.05.07-.09.1l-.07.03c-.09.03-.19.04-.29.02-.05,0-.09-.02-.13-.04-.03,0-.07-.03-.09-.06-.03-.02-.04-.05-.04-.08-.01-.03,0-.06,0-.09s.02-.05.02-.08.02-.05.03-.07c.01-.03.02-.05.03-.07,0,0,.01-.03.02-.04.01-.02.03-.05.05-.06h0c.03-.07.09-.1.15-.13.06-.02.14-.03.21-.02.07,0,.13.02.19.05.03,0,.05.03.07.06.02.02.03.04.03.07v.08l-.03.14h0Z"/>
  <g id="b">
    <path class="st0" d="M23.93,40.25h0c-.09.24-.79.25-.78-.06.04-1.05.47-2.1.92-3.05s1.02-1.84,1.67-2.66c1.18-1.49,2.68-2.74,4.36-3.62.44-.23.88-.46,1.36-.67s.98-.34,1.48-.5c1.05-.35,2.17-.52,3.24-.56,2.17-.08,4.38.36,6.36,1.24.98.44,1.91.98,2.74,1.67.38.31.72.67,1.01,1.07.16.23.31.46.44.71.07.12.13.26.14.41,0,.12-.05.27-.09.39-.06.25-.46.34-.67.37-.28.03-.6-.04-.81-.24-.13-.13-.27-.25-.35-.43-.05-.1-.08-.22-.12-.32-.1-.21-.21-.41-.35-.6-.28-.38-.61-.72-.97-1.02-.79-.65-1.76-1.12-2.72-1.48-1.77-.67-3.68-.9-5.55-.73-.9.08-1.89.22-2.78.51-.44.15-.9.28-1.32.48-.4.19-.79.41-1.17.65-1.5.93-2.8,2.18-3.81,3.62-.51.73-.94,1.5-1.31,2.33s-.59,1.69-.91,2.53h0v-.04Z"/>
    <path class="st0" d="M85.47,32.45h0c.14.32-.53.29-.67.17-.76-.69-1.42-1.46-2.24-2.08-.78-.59-1.59-1.09-2.47-1.5-.78-.37-1.63-.66-2.44-.86-.42-.1-.85-.19-1.29-.25-.46-.07-.76-.1-1.19-.12-1.7-.07-3.24.23-4.83.87-3.06,1.25-5.63,3.79-6.89,6.89-.25.61-1.85.43-1.56-.27.78-1.91,2.03-3.64,3.58-4.99,1.4-1.22,3.04-2.21,4.81-2.79,1.87-.61,3.87-.81,5.79-.61,1.92.19,3.77.84,5.44,1.8.8.46,1.56,1.03,2.24,1.65.64.59,1.35,1.28,1.72,2.09h0Z"/>
    <path class="st0" d="M33.19,47.24h0c.02.3-.69.31-.78.06-.1-.31-.2-.58-.23-.9-.03-.31-.04-.62-.02-.92.04-.59.21-1.18.44-1.72.42-.99,1.1-1.85,1.95-2.5.9-.69,1.92-1.04,3.09-1.18s2.37,0,3.47.45c.53.22,1.03.5,1.48.85.23.18.46.37.67.59.23.23.47.45.32.8-.12.28-.57.35-.82.29-.24-.06-.47-.11-.65-.3-.09-.1-.17-.21-.26-.3-.16-.18-.34-.34-.53-.49-.41-.32-.85-.57-1.31-.74s-.8-.28-1.25-.34c-.38-.05-.84-.07-1.26,0-.89.15-1.72.56-2.38,1.18-.7.65-1.22,1.46-1.54,2.36-.16.45-.27.93-.34,1.4-.03.24-.05.48-.04.72s-.03.48,0,.72h0v-.03Z"/>
    <path class="st0" d="M68.92,39.57h0c-.15.06-.44.03-.48-.16-.08-.39.42-.86.67-1.09.32-.31.68-.59,1.06-.82,1.47-.87,3.29-1.2,4.97-.95,1.01.15,1.96.52,2.74,1.19.36.31.66.68.88,1.1.19.36.46.98.27,1.37-.25.52-1.19.43-1.47,0-.13-.2-.12-.5-.19-.72s-.17-.43-.3-.62c-.27-.41-.66-.73-1.08-.97-.76-.43-1.59-.64-2.4-.64s-1.65.25-2.36.63c-.44.23-.86.49-1.23.82-.34.3-.66.68-1.09.86h.01Z"/>
    <path class="st0" d="M28.99,32.15h0c.15.35-.64.42-.8.2-.2-.27-.38-.54-.56-.82-.78-1.24-1.2-2.78-1.33-4.23-.15-1.65.05-3.36.66-4.91,1.17-2.98,3.77-5.25,6.71-6.39,3.12-1.22,6.71-1.15,9.72.35,1.53.76,2.83,1.9,3.72,3.35.84,1.37,1.3,2.93,1.4,4.57.1,1.64-.21,3.36-.73,4.92-.45,1.34-1.16,2.56-2.09,3.61-.26.29-.78.31-1.12.19-.29-.11-.54-.42-.29-.7.21-.24.41-.49.6-.74.79-1.08,1.3-2.34,1.62-3.63.37-1.51.52-3.08.27-4.61-.23-1.43-.8-2.85-1.69-4-.45-.59-.97-1.15-1.57-1.58-.64-.46-1.36-.83-2.08-1.09s-1.46-.43-2.21-.52c-.27-.03-.59-.05-.94-.05-.32,0-.75.02-.98.04-1.38.14-2.68.52-3.93,1.16-2.64,1.37-4.71,3.76-5.4,6.69-.35,1.5-.26,3-.05,4.5.1.68.27,1.33.49,1.98.19.58.34,1.16.58,1.72h0Z"/>
    <path class="st0" d="M73.8,37.04h0c.06-.34.86-.34.84,0-.02.42-.05.84-.11,1.25-.52,3.25-2.05,6.42-4.18,8.92-2.25,2.64-5.07,4.6-8.52,5.8-3.45,1.21-7.13,1.55-10.79.94-3.67-.6-7.18-2.18-9.88-4.76-1.23-1.18-2.28-2.56-3.06-4.08-.69-1.35-.91-2.86-.91-4.36,0-.52,1.25-.52,1.25,0,0,.25,0,.5.02.75.04.75.13,1.5.35,2.22.23.78.64,1.51,1.07,2.21.86,1.39,1.98,2.62,3.23,3.66,2.71,2.25,6.15,3.48,9.64,3.81,3.33.32,6.74-.24,9.8-1.56,1.54-.66,3.06-1.54,4.31-2.55s2.35-2.18,3.32-3.45c1.97-2.58,3.11-5.61,3.63-8.79h0Z"/>
    <path class="st0" d="M72.07,43.67h0c-.1-.39.75-.45.84-.14.16.55.29,1.11.4,1.67.89,4.55-.02,9.51-2.35,13.5-2.19,3.75-5.64,6.69-9.64,8.36-4.23,1.76-9,1.95-13.38.67-2.24-.65-4.38-1.7-6.27-3.07-.99-.72-1.9-1.5-2.62-2.49s-1.23-2.09-1.63-3.24c-.74-2.16-1.19-4.49-1.11-6.77.04-1.11.11-2.27.43-3.37s.8-2.13,1.43-3.08c.35-.53,1.88-.2,1.4.52-.28.42-.53.87-.75,1.33-.47.98-.82,2.06-1.03,3.13s-.22,2.19-.15,3.27c.14,2.23.64,4.43,1.61,6.45,1.96,4.09,6.53,6.41,10.81,7.25,4.21.82,8.67.15,12.38-1.82s6.75-5.11,8.5-8.94c1.88-4.11,2.27-8.84,1.14-13.22h-.01Z"/>
    <path class="st0" d="M63.45,51.77h0c0-.26.62-.26.64,0,.18,1.77.05,3.53-.31,5.26-.02.09-.08.16-.18.18-1.01.28-2.03.56-3.04.85-.49.14-1.01.29-1.48.43s-.95.33-1.44.41c-.42.07-.83-.08-.93-.52-.11-.49-.14-1.02-.2-1.51s-.12-.95-.19-1.46-.19-1.06-.17-1.57c.02-.33.79-.37.87-.07.12.42.13.86.18,1.31s.1.9.15,1.35.1.9.15,1.35c0,.11.02.22.04.34,0,.04.05.28.05.28h-.13c.07,0,.14-.03.21-.05.09-.02.19-.05.28-.07,1.77-.45,3.52-.94,5.28-1.43l-.18.18c.36-1.73.47-3.5.39-5.26h0Z"/>
    <path class="st0" d="M48.49,53.15h0c.04-.32.79-.33.81,0,.04.89-.03,1.79-.06,2.68s-.07,1.79-.11,2.68c0,.3-.49.28-.68.23-1.93-.51-3.86-.97-5.8-1.47-.19-.05-.4-.12-.43-.35-.32-2.29-.31-4.57-.23-6.87.02-.57,1.37-.56,1.35,0-.06,2.29-.15,4.59.07,6.87l-.29-.31c1.93.55,3.86,1.13,5.8,1.66l-.68.23c.05-.9.09-1.79.13-2.68s.03-1.8.14-2.68h-.02Z"/>
    <path class="st0" d="M29.46,69.6h0c.16.09.15.25,0,.34-.17.11-.41.09-.58,0-1.56-.81-3.02-1.76-4.38-2.87-2.84-2.3-5.21-5.08-7.11-8.21s-3.31-6.57-4.2-10.13c-.88-3.54-1.26-7.09-1-10.84s1.17-7.46,2.59-10.94c1.44-3.51,3.41-6.79,5.79-9.75,2.38-2.96,5.17-5.58,8.27-7.78,3.33-2.36,7.01-4.19,10.89-5.46,4.12-1.34,8.43-2.06,12.75-2.22s8.67.23,12.9,1.11c2.12.44,4.25.97,6.3,1.69,2.06.72,4.05,1.77,5.85,2.95,1.8,1.18,3.48,2.52,5.06,3.97,1.45,1.34,2.81,2.75,3.87,4.43,2.12,3.38,2.97,7.31,3.82,11.15.94,4.24,2.05,8.47,2.44,12.8.4,4.36-.13,8.8-1.67,12.88s-4.04,7.74-7.02,10.92c-2.79,2.98-5.99,5.57-9.5,7.65-3.49,2.07-7.3,3.63-11.27,4.49-4.14.89-8.47.86-12.62.6-4.15-.26-8.28-.89-12.26-2.09-3.8-1.15-7.42-2.86-10.68-5.13-.21-.14-.22-.36,0-.5s.6-.16.83,0c1.54,1.07,3.16,2.02,4.84,2.84,3.51,1.71,7.3,2.81,11.14,3.47,4.12.71,8.31.91,12.48.83,3.94-.07,7.8-.92,11.48-2.4s7.13-3.56,10.21-6.05c3.18-2.58,6.07-5.61,8.31-9.04,2.39-3.66,4.07-7.95,4.58-12.2s-.09-8.5-.97-12.66c-.43-2.05-.91-4.09-1.36-6.13-.43-1.93-.88-3.85-1.53-5.72-.63-1.83-1.32-3.64-2.31-5.27-1-1.64-2.32-3.01-3.71-4.31-3.05-2.85-6.58-5.36-10.54-6.76-1.98-.71-4.04-1.22-6.09-1.65-2.07-.43-4.16-.74-6.27-.93-4.15-.37-8.37-.22-12.47.49s-8.12,2-11.82,3.91c-3.31,1.71-6.36,3.89-9.07,6.45-2.69,2.55-5.04,5.47-6.93,8.67s-3.33,6.67-4.19,10.28c-.84,3.5-1.09,7.11-.77,10.7s1.21,7.14,2.57,10.45c1.36,3.31,3.25,6.46,5.47,9.16s4.88,5.01,7.89,6.8h0Z"/>
    <path class="st0" d="M28.91,69.02h0c.11.1-.01.21-.11.25-.14.05-.31.03-.42-.06-.44-.37-.86-.76-1.27-1.16-3.3-3.26-5.81-7.3-7.59-11.57-1.79-4.31-2.87-8.96-3.18-13.6s.18-9.32,1.5-13.79c1.35-4.61,3.52-8.95,6.35-12.84,1.42-1.95,3.02-3.78,4.74-5.44,1.72-1.66,3.6-3.26,5.65-4.5.25-.15.95.05.56.34-.48.35-.96.69-1.43,1.04-3.81,2.8-7.09,6.28-9.73,10.24-2.64,3.96-4.61,8.36-5.77,12.98-1.12,4.47-1.43,9.03-.95,13.64.49,4.62,1.72,9.16,3.68,13.37.98,2.1,2.16,4.15,3.49,6,1.33,1.85,2.85,3.54,4.49,5.11h0Z"/>
    <path class="st0" d="M49.78,75.71h0c.13,0,.37.05.4.21s-.16.25-.29.27c-1.4.2-2.81.32-4.22.4-5.04.27-10.16-.12-15.07-1.32-4.05-.99-7.97-2.54-11.52-4.74-3.07-1.9-5.84-4.27-8.19-7.01-2.14-2.49-3.93-5.28-5.35-8.24-1.27-2.65-2.24-5.44-2.89-8.3-.56-2.46-.91-4.98-.92-7.5,0-1.41.11-2.81.32-4.2.21-1.37.5-2.74.87-4.07.19-.7.47-1.4.69-2.05s.46-1.3.72-1.94c2.1-5.21,5.38-10,9.43-13.89,4.35-4.17,9.6-7.34,15.32-9.24,6.42-2.13,13.26-2.71,19.97-2.07.2.02.51.19.41.44-.11.26-.49.27-.72.25-1.6-.15-3.2-.23-4.8-.23-6.53,0-13.1,1.29-19,4.13-5.06,2.44-9.61,6-13.22,10.3-1.78,2.12-3.34,4.43-4.64,6.88-.65,1.22-1.23,2.48-1.74,3.77-.25.64-.5,1.3-.71,1.95s-.35,1.33-.53,2c-.85,3.17-1.25,6.43-1.04,9.71.17,2.62.64,5.14,1.34,7.62.82,2.87,1.96,5.66,3.41,8.28,1.59,2.86,3.52,5.48,5.83,7.82,2.54,2.58,5.44,4.7,8.67,6.38,3.67,1.92,7.73,3.18,11.83,3.88,5.17.88,10.4.8,15.65.54h0v-.03Z"/>
    <path class="st0" d="M18.01,69.01h0c.11.1-.01.21-.11.25-.14.05-.31.03-.42-.06-.44-.37-.86-.76-1.27-1.16-3.33-3.27-5.9-7.3-7.76-11.57-1.87-4.3-3.04-8.93-3.4-13.6-.36-4.66.11-9.36,1.58-13.81,1.56-4.71,4.05-9.08,7.12-12.96,1.55-1.96,3.31-3.85,5.1-5.5s3.71-3.26,5.8-4.53c.25-.15.95.05.56.34-.48.35-.96.69-1.44,1.04-3.95,2.87-7.44,6.39-10.33,10.32-2.9,3.94-5.19,8.38-6.5,13.11-1.24,4.45-1.5,9.03-.95,13.66s1.88,9.17,3.91,13.37c1.01,2.1,2.21,4.12,3.59,6,1.35,1.84,2.88,3.53,4.53,5.11h0Z"/>
    <path class="st0" d="M31.64,71.61h0c.14-.08.38-.09.52,0,.13.09.14.22,0,.31-.53.32-1.12.51-1.75.55-1.32.1-2.63-.41-3.78-.99-1.27-.64-2.48-1.43-3.67-2.2-2.38-1.54-4.52-3.45-6.24-5.71-.43-.56-.82-1.13-1.22-1.73s-.76-1.23-1.21-1.79c-.85-1.06-1.59-2.24-2.24-3.44-.64-1.19-1.12-2.44-1.42-3.78-.29-1.34-.41-2.68-.5-4.07-.09-1.4-.13-2.79-.26-4.18-.15-1.54-.37-3.07-.5-4.61-.23-2.91-.22-5.85.28-8.73.44-2.53,1.25-4.97,2.34-7.29.59-1.26,1.26-2.49,1.97-3.69.68-1.14,1.37-2.27,2.18-3.32.74-.96,1.56-1.91,2.37-2.77s1.67-1.65,2.68-2.26c2.11-1.27,4.68-1.75,7.12-1.82.16,0,.43.06.46.25s-.19.29-.34.31c-.6.09-1.21.16-1.81.25-2.28.32-4.44,1.03-6.17,2.61-.83.76-1.58,1.6-2.31,2.46s-1.43,1.74-2.03,2.69c-1.46,2.29-2.81,4.67-3.82,7.19-.92,2.29-1.53,4.68-1.8,7.14-.33,2.97-.17,5.96.15,8.92.15,1.38.34,2.78.43,4.13s.13,2.7.25,4.04c.12,1.33.32,2.7.73,3.93s1,2.4,1.66,3.51c.33.56.68,1.1,1.03,1.65.18.28.31.59.48.88.16.27.34.53.5.8.72,1.18,1.44,2.35,2.31,3.43s1.82,2.05,2.92,2.93,2.31,1.62,3.51,2.36c1.14.7,2.28,1.45,3.52,1.96,1.16.47,2.48.75,3.63.09h.03Z"/>
    <path class="st0" d="M31.98,65.07h0c.03.06.03.11,0,.17l-.05.08s-.08.07-.13.09c-.03.02-.07.03-.12.04-.06.02-.13.03-.2.03h-.14c-.06-.02-.12-.04-.18-.07-.05-.02-.09-.05-.13-.09-.03-.04-.07-.08-.1-.12.16.06.31.11.47.16h-.02c-.08,0-.15,0-.23-.03-.05,0-.09-.02-.13-.05-.06-.02-.11-.06-.15-.1l-.06-.09s-.04-.07-.06-.11c-.02-.05-.03-.09,0-.14,0-.05.03-.09.07-.13h.02l-.07.15c-.01-.07.03-.13.08-.19.04-.04.08-.07.13-.09.03-.02.07-.03.11-.04.06-.02.13-.03.19-.03h.13c.09.03.19.05.27.11l-.38-.09c.06,0,.12,0,.17.01.07,0,.14.03.2.06.06.03.11.05.15.1,0,0,.02.02.03.03.02.02.03.04.05.07.04.04.06.08.07.13.01.03.01.06,0,.09,0,.05-.03.1-.07.13l-.09.07h-.01l.14-.31s.04.09.06.13h0l-.02.03Z"/>
    <path class="st0" d="M26.08,44.48h0s.06-.05.1-.06c.03-.02.06-.03.09-.03.05-.02.1-.02.15-.02h.1s.07.03.1.03h0s.03,0,.05.02c.05.02.04,0,.08.05.02,0,.03.03.05.04l-.37-.13h.07c.06,0,.12,0,.17.03.03,0,.06.03.09.05h0s.07.05.1.09c0,0,.02.02.03.03h0s.02.04.03.05v.02h.01l.02.08v.03s-.01.08-.04.11c-.01.03-.03.05-.06.06-.04.03-.08.06-.13.07h-.02l.15-.08s-.04.04-.07.05c-.06.03-.11.05-.17.06h-.1c-.08,0-.14,0-.22-.03l.21.03h-.07c-.06,0-.12,0-.17-.03l-.09-.04-.07-.06s-.01,0-.02-.02h0s-.03-.05-.05-.07h0s-.02-.07-.02-.1v-.04h0v-.06s0-.03.03-.07c.02-.04.05-.07.09-.09h.02l-.12.17h0c.01-.09,0-.07.04-.11.01-.02.01-.03.03-.03h-.02Z"/>
    <path class="st0" d="M28.96,38.99h0s-.1.04-.15.05h-.09s-.09,0-.13,0c-.03,0-.05,0-.08-.03-.03,0-.06-.03-.09-.06l-.03-.05s-.02-.05,0-.08c0-.03.02-.06.04-.08h0l-.03.05v-.03.06h0l.18.17h-.02c-.06-.02-.1-.05-.15-.09-.03-.03-.06-.07-.06-.12v-.02.06s0-.04-.01-.06l.04.06s-.02-.03-.04-.04l.07.05-.03-.02.19.07h.12-.02.12-.01l.11-.03h0l.09-.04h0s.05-.04.07-.06h0l-.08-.35s.03.02.05.03c.07.04.1.08.14.15,0,0,0,0,.01.02.01.03.03.05.05.08s.03.05.05.08c0,0,.02.03.02.04s.02.03.02.04c.02.06.02.11,0,.16l-.05.07s-.08.07-.13.09c-.04.02-.07.03-.11.04-.06.02-.13.03-.2.03h-.14c-.06-.02-.12-.04-.17-.07-.05-.02-.09-.05-.13-.09-.03-.03-.05-.07-.08-.11,0,0-.02-.03-.03-.04-.02-.03-.03-.05-.05-.08s-.03-.05-.05-.08c-.02-.03-.04-.07-.04-.11v-.04c0-.06.02-.11.06-.15.05-.05.11-.08.17-.1.08-.03.16-.04.24-.04s.16,0,.24.04c.06.03.14.06.19.11.02.02.05.05.06.08l-.04-.06s.05.06.06.09c.01.02.02.04.02.07s.01.05.01.07v.02s-.01.06-.02.08c-.03.05-.06.08-.1.11-.06.03-.12.05-.18.06h-.02l.25-.15c-.04.06-.07.1-.14.13h0l.03.03Z"/>
    <path class="st0" d="M59.14,40.38h0s-.02-.06,0-.09c0-.03.02-.06.04-.08l.06-.04.07-.03s.09-.03.14-.03h.1s.09,0,.14.03l.07.03s.05.02.07.03h.02s.05.04.08.06l.03.02s.06.07.06.12v.06s-.07.08-.12.11l-.08.04s-.1.03-.15.03h-.16s-.09-.02-.14-.04c-.04,0-.07-.04-.1-.07l-.03-.02s-.04-.05-.06-.08c0-.02-.02-.03-.02-.05h-.02Z"/>
    <path class="st0" d="M83.18,36.46h0s-.07-.1-.07-.16c0-.05.02-.09.05-.12.03-.05.06-.08.11-.1.05-.03.11-.06.17-.07.06-.02.13-.03.2-.03.09,0,.18,0,.27.04l.11.05c.06.03.11.08.14.14.03.05.06.09.09.14.01.02.03.05.04.07,0,0,.01.02.02.03s0,.03.01.04c.02.05.02.11,0,.16-.03.06-.07.1-.13.13-.03.02-.06.04-.1.05-.08.03-.16.04-.25.04-.04,0-.09,0-.14,0-.08,0-.15-.04-.22-.08-.04-.03-.08-.06-.11-.09-.03-.02-.04-.05-.06-.08-.04-.06-.08-.11-.12-.16h0Z"/>
    <path class="st0" d="M27.96,6.49h0s-.07-.1-.07-.16c0-.05.02-.09.05-.12.03-.05.06-.08.11-.1.05-.03.11-.06.17-.07.06-.02.13-.03.2-.03.09,0,.18.01.27.04l.11.05c.06.03.11.08.14.14.03.05.06.09.09.14.01.02.03.05.04.07,0,.01.01.02.02.03s0,.03.01.04c.02.05.02.11,0,.16-.03.06-.07.1-.13.13-.03.02-.06.04-.1.05-.08.03-.16.04-.25.04-.04,0-.09,0-.14-.01-.08-.01-.15-.04-.22-.08-.04-.03-.08-.06-.11-.09-.03-.02-.04-.05-.06-.08-.04-.06-.08-.11-.12-.16h-.01Z"/>
    <path class="st0" d="M32.05,73.33h0s-.07-.1-.07-.16c0-.05.02-.09.05-.12.03-.05.06-.08.11-.1.05-.03.11-.06.17-.07.06-.02.13-.03.2-.03.09,0,.18.01.27.04l.11.05c.06.03.11.08.14.14.03.05.06.09.09.14,0,.02.03.05.04.07,0,.01,0,.02.02.03s0,.03,0,.04c.02.05.02.11,0,.16-.03.06-.07.1-.13.13-.03.02-.06.04-.1.05-.08.03-.16.04-.25.04-.04,0-.09,0-.14-.01-.08-.01-.15-.04-.22-.08-.04-.03-.08-.06-.11-.09-.03-.02-.04-.05-.06-.08-.04-.06-.08-.11-.12-.16h0Z"/>
    <path class="st0" d="M86.65,40.84h0c.03-.06.09-.09.15-.12.06-.02.14-.03.21-.02s.13.02.19.05c.03,0,.05.03.07.06.02.02.03.04.03.07v.06l-.11-.14h0s.06.04.07.07c.02.02.03.05.03.08l-.03.14s0,.06-.02.09c0,0,0,.02-.01.03,0,.02-.02.05-.03.07-.02.04-.05.07-.09.1l-.07.03c-.09.03-.19.04-.29.02-.05,0-.09-.02-.13-.04-.03,0-.07-.03-.09-.06-.03-.02-.04-.05-.04-.08-.01-.03,0-.06,0-.09s.02-.05.02-.08.02-.05.03-.07.02-.05.03-.07c0,0,.01-.03.02-.04.02-.04.06-.08.09-.1.05-.03.11-.05.17-.06l-.23.14s.02-.04.03-.06h0v.02Z"/>
    <path class="st0" d="M82.59,45.61h0s.06.04.08.07c.02.02.03.05.03.09v.06l-.05.05s-.06.05-.1.06c-.03,0-.05.02-.08.03-.05,0-.1.02-.15.02h-.1.1-.02.1-.02l.09-.02h-.02l.08-.03h0c.03-.08.07-.16.1-.23h0s.02.09,0,.14c-.03.05-.06.09-.11.11h0l.07-.05s-.03.02-.03.04l.04-.06s-.02.03-.02.05l.02-.07v.04l-.44-.26h.06c.06,0,.12,0,.17.03.03,0,.06.03.09.04h0s.07.05.09.09c.02.02.03.04.03.07v.04l-.02-.07s0,.03.02.04l-.05-.07.03.03-.07-.06.03.02-.09-.04s.07.03.1.05.05.04.08.06l-.07-.06h.02l-.09-.03h.02l-.11-.02h.03-.12.06s.07,0,.11.02c.05,0,.1.03.15.06-.09-.02-.19-.05-.28-.07h-.1.03l-.09.02h.03l-.07.03s.01,0,.02,0c.03-.02.07-.04.11-.04.03,0,.06,0,.09,0h.09s.06,0,.09,0c.04,0,.08.02.11.04l.06.04.03.05v.16s0-.04.02-.06h0c0,.06-.02.11-.06.14-.04.04-.1.07-.16.09-.08.04-.19.04-.27.05h-.16l-.11-.03s-.03,0-.05-.02c-.02,0-.03-.02-.05-.02h0s-.06-.05-.09-.07c0,0-.01,0-.02-.02-.02-.03-.04-.05-.05-.08h0s-.02-.08-.02-.11c0-.04.01-.08.04-.11.02-.04.05-.07.09-.09.05-.03.15-.06.21-.07l-.32.25s0-.08.03-.11.04-.07.07-.1c0,0,.01,0,.02-.02l.09-.06s.01,0,.02,0c.07-.03.11-.05.19-.07.11-.02.23,0,.33.03l-.31-.02c.15-.02.32,0,.45.07h0l-.05-.02Z"/>
    <path class="st0" d="M70.79,63.04h0s-.04-.06-.04-.09v-.05s.08-.08.12-.1c.06-.03.12-.04.19-.04.08,0,.16.02.22.06l.09.06s.02.03.03.04l-.2-.09s.04,0,.06,0c.04,0,.08.02.12.04l.06.04.04.05s0,0,.01.02c.01.02.02.04.03.06,0,.04.01.07,0,.11,0,.04-.02.09-.04.13-.02.03-.04.06-.06.08,0,0-.02.02-.03.03-.04.04-.09.06-.14.08s-.09.03-.15.03h-.16c-.05,0-.09-.02-.13-.04-.04,0-.07-.03-.1-.06-.03-.03-.05-.07-.05-.12v-.06s.07-.08.12-.1h.01l-.06.05.04-.04-.04.06s.03-.05.03-.08v.06-.12s.01-.06.03-.08c.02-.03.04-.05.08-.07h.01l-.09.19s-.01-.04-.03-.06l.03.05v-.02h-.02l.02-.03Z"/>
    <path class="st0" d="M58.87,70.96h0s.02-.08.05-.11l.06-.04s.1-.05.16-.06h.09s.09,0,.14.01c.04,0,.08.02.12.04.03.01.06.04.07.07.02.02.03.05.03.08v.08s0,.06-.02.08c0,.03-.03.05-.06.07-.03.03-.06.04-.1.05l-.08.02h-.09s-.09,0-.13-.01c-.03,0-.05-.01-.08-.03-.03-.01-.06-.03-.09-.06l-.03-.05s0-.05-.02-.08v-.08h0l-.02.02Z"/>
    <path class="st0" d="M7.26,35.39h0s.02-.08.05-.11l.06-.04s.1-.05.16-.06h.09s.09,0,.14,0c.04,0,.08.02.12.04.03,0,.06.04.07.07.02.02.03.05.03.08v.08s0,.06-.02.08c-.01.03-.03.05-.06.07-.03.03-.06.04-.1.05l-.08.02h-.09s-.09,0-.13,0c-.03,0-.05,0-.08-.03-.03,0-.06-.03-.09-.06l-.03-.05s-.01-.05-.02-.08v-.08h0l-.02.02Z"/>
    <path class="st0" d="M31.55,5.75h0s.02-.08.05-.11l.06-.04s.1-.05.16-.06h.09s.09,0,.14.01c.04,0,.08.02.12.04.03.01.06.04.07.07.02.02.03.05.03.08v.08s0,.06-.02.08c0,.03-.03.05-.06.07-.03.03-.06.04-.1.05l-.08.02h-.09s-.09,0-.13-.01c-.03,0-.05-.01-.08-.03-.03-.01-.06-.03-.09-.06l-.03-.05s-.01-.05-.02-.08v-.08h0l-.02.02Z"/>
    <path class="st0" d="M46.34,9.57h0c-.07,0-.14-.02-.2-.05-.04-.02-.07-.05-.08-.09v-.06l.03-.04s.11-.06.17-.08h.05l-.17.08.02-.02c.07-.07.17-.1.26-.12.06-.01.12-.01.18,0,.06,0,.11.01.16.03.12.04.21.1.3.18.02.02.04.04.06.07.03.04.06.09.09.13.02.05.02.09,0,.14l-.04.06s-.1.08-.16.09l-.1.03c-.06.01-.12.01-.18,0-.06,0-.11-.01-.16-.03-.08-.03-.16-.08-.2-.16,0-.02-.02-.04-.04-.06l.04.06s-.06-.06-.09-.09l.07.05s-.06-.04-.09-.05l.09.04s-.03,0-.04-.01c-.09-.03-.22-.11-.22-.23v-.03l.21.16h-.02.08-.03.01Z"/>
    <path class="st0" d="M57.97,13.03h0c0-.36.9-.36.89,0v.06c0,.27-.43.29-.61.24-.22-.06-.39-.27-.14-.43l.05-.03c.14-.09.39-.09.53,0l.05.03c.25.16.08.37-.14.43-.18.05-.6.03-.61-.24v-.06h-.02Z"/>
    <path class="st0" d="M7.17,45.42h0c0-.36.9-.36.89,0v.06c0,.27-.43.29-.61.24-.22-.06-.39-.27-.14-.43l.05-.03c.14-.09.39-.09.53,0l.05.03c.25.16.08.37-.14.43-.18.05-.6.03-.61-.24v-.06h-.02Z"/>
    <path class="st0" d="M49.05,14.85c-.11,0-.34-.05-.34-.2s.22-.2.34-.2.34.05.34.2-.22.2-.34.2h0Z"/>
    <path class="st0" d="M8.58,48.44c-.11,0-.34-.05-.34-.2s.22-.2.34-.2.34.05.34.2-.22.2-.34.2h0Z"/>
    <path class="st0" d="M65.26,31.07h0c.06.26-.37.25-.52.18-.2-.11-.44-.19-.59-.36-.14-.15-.26-.32-.38-.48-1.95-2.58-2.76-5.99-2.25-9.18.47-2.92,2.06-5.8,4.46-7.56,2.5-1.82,6.03-2.31,8.96-1.38,1.51.48,2.89,1.33,4.08,2.36,1.11.96,1.89,2.2,2.42,3.57.63,1.62.85,3.38.69,5.1-.16,1.66-.54,3.47-1.43,4.9-.2.33-.63.42-1,.36-.29-.05-.7-.25-.56-.63s.29-.73.44-1.1c.6-1.49.99-3.03.98-4.67,0-1.64-.39-3.25-1.15-4.71-.3-.57-.63-1.12-1.06-1.59-.38-.42-.8-.79-1.22-1.1-1.14-.86-2.48-1.6-3.87-1.9-2.57-.57-5.3.21-7.23,2.04-2.07,1.96-3.32,4.84-3.47,7.67-.08,1.54.14,3.09.64,4.54.25.72.57,1.4.94,2.06.19.34.39.66.62.98.11.15.23.31.34.45s.11.31.15.48h0v-.03Z"/>
    <path class="st0" d="M39.51,25.68v-.03c0-.06,0-.1-.05-.14-.13-.25-.45-.39-.68-.52-.32-.18-.67-.32-1.02-.46-.6-.25-1.19-.5-1.77-.79.96-.77,1.91-1.55,2.88-2.3.06-.05.18-.14.16-.24-.08-.43-.28-.86-.44-1.27-.16-.45-.33-.89-.5-1.34-.33-.87-.65-1.75-.97-2.63,0-.01,0-.03-.02-.04.08-.11.15-.22.16-.36.03-.29-.51-.24-.65-.16-.15.09-.24.21-.32.33-.1.03-.19.08-.25.14-.08.09-.15.16-.12.28,0,.04.02.07.04.1-.08.11-.15.23-.22.35-.27.43-.51.88-.73,1.34-.44.9-.79,1.84-1.06,2.81-.53,1.94-.73,3.97-.54,5.98.05.55.13,1.1.24,1.65.12.54.23,1.16.53,1.66.09.14.57.19.56-.04h0c0-.1,0-.2-.03-.3.61-.1,1.73-.02,2.25.03-.04.1.1.17.18.19.12.03.27.01.37-.07.31-.26.53-.59.75-.93s.41-.68.57-1.04c.32-.69.53-1.44.66-2.19v-.03l.02.02Z"/>
    <path class="st0" d="M75.32,21.42s-.02-.06-.03-.09h0c.01-.08-.08-.16-.14-.2-.28-.18-.68-.19-1-.24-.32-.06-.66-.12-.99-.17-.33-.06-.63-.12-.96-.16-.18-.02-.36-.05-.54-.07.04-.08.07-.17.1-.25.09-.2.17-.39.25-.59.17-.44.35-.87.55-1.3.19-.43.41-.85.65-1.27.12-.21.24-.41.36-.61.08-.13.2-.27.24-.41.1-.09.15-.22.03-.34-.63-.63-1.3-1.2-1.98-1.76s-1.37-1.22-2.17-1.68c-.09-.05-.47-.06-.46.11-.11.03-.2.09-.23.18-.54,2-.72,4.07-.52,6.13.19,1.99.72,3.93,1.41,5.8.2.54.39,1.09.61,1.62.1.25.22.51.33.76.13.28.24.58.46.8.12.12.53.18.7.04h0l2.18-.45v.12c.02.22.44.19.53.04.24-.38.34-.87.42-1.31.09-.5.16-1.01.21-1.52.1-1.05.08-2.12-.02-3.17h0Z"/>
    <path class="st0" d="M39.12,46.04c.89,1.72,3.66,3.82,3.66,3.82l.02,7.09,5.87,1.58.23-5.37c2.41.96,7.72.69,7.72.69l.71,4.82,6.1-1.63c.42-.46.35-5.26.35-5.26,5.42-2.3,8.41-8.17,8.41-8.17,2.63,5.96-.1,11.61-.1,11.61-4.25,12.1-16.57,13.02-16.57,13.02-4.1.22-13.19-.48-17.01-8.14-4.11-8.24.62-14.07.62-14.07h0Z"/>
    <path class="st0" d="M27.44,10.47l-.23.81c-1.85,1.42-4.55,4.32-4.55,4.32-5.93,6.31-8.51,15.03-8.51,15.03-4.57,17.52,4.58,29.23,4.58,29.23,4.05,6.27,9.39,9.05,9.39,9.05l4.01,2.52c-2.69,2.79-9.63-2.81-12.52-5.07s-2.91-4.41-5.43-7.27c-2.52-2.85-3.51-6.11-3.38-9.36s-1.16-7.69-.98-11.66.25-8.62,2.59-13.67,3.42-6.11,6.56-9.99,8.48-3.95,8.48-3.95h0Z"/>
  </g>
</svg>