<?xml version="1.0" encoding="UTF-8"?>
<svg id="a" data-name="Camada 1" xmlns="http://www.w3.org/2000/svg" viewBox="0 0 620.5 128.64">
  <rect width="32.16" height="128.64" fill="#2a2a2a"/>
  <rect x="38.59" width="9.65" height="128.64" fill="#2a2a2a"/>
  <rect x="54.6" width="9.65" height="128.64" fill="#2a2a2a"/>
  <rect x="70.61" width="16.22" height="128.64" fill="#2a2a2a"/>
  <rect x="138.65" width="18.92" height="128.64" fill="#2a2a2a"/>
  <rect x="163.67" width="10.11" height="128.64" fill="#2a2a2a"/>
  <rect x="179.68" width="5.19" height="128.64" fill="#2a2a2a"/>
  <rect x="212.7" width="5.19" height="128.64" fill="#2a2a2a"/>
  <rect x="225.7" width="5.19" height="128.64" fill="#2a2a2a"/>
  <rect x="357.78" width="5.19" height="128.64" fill="#2a2a2a"/>
  <rect x="370.79" width="5.19" height="128.64" fill="#2a2a2a"/>
  <rect x="383.12" width="5.87" height="128.64" fill="#2a2a2a"/>
  <rect x="444.16" width="5.87" height="128.64" fill="#2a2a2a"/>
  <rect x="476.18" width="5.87" height="128.64" fill="#2a2a2a"/>
  <rect x="489.19" width="5.87" height="128.64" fill="#2a2a2a"/>
  <rect x="543.22" width="5.87" height="128.64" fill="#2a2a2a"/>
  <rect x="575.24" width="5.87" height="128.64" fill="#2a2a2a"/>
  <rect x="588.24" width="5.87" height="128.64" fill="#2a2a2a"/>
  <rect x="192.96" width="12.86" height="128.64" fill="#2a2a2a"/>
  <rect x="241.2" width="16.08" height="128.64" fill="#2a2a2a"/>
  <rect x="334.25" width="16.08" height="128.64" fill="#2a2a2a"/>
  <rect x="505.36" width="16.08" height="128.64" fill="#2a2a2a"/>
  <rect x="604.42" width="16.08" height="128.64" fill="#2a2a2a"/>
  <rect x="402.3" width="19.42" height="128.64" fill="#2a2a2a"/>
  <rect x="264.21" width="31.57" height="128.64" fill="#2a2a2a"/>
  <rect x="303.24" width="9.14" height="128.64" fill="#2a2a2a"/>
  <rect x="428.31" width="9.14" height="128.64" fill="#2a2a2a"/>
  <rect x="527.37" width="9.14" height="128.64" fill="#2a2a2a"/>
  <rect x="457.33" width="12.63" height="128.64" fill="#2a2a2a"/>
  <rect x="556.39" width="12.63" height="128.64" fill="#2a2a2a"/>
  <rect x="319.25" width="9.14" height="128.64" fill="#2a2a2a"/>
  <rect x="93.62" width="6.07" height="128.64" fill="#2a2a2a"/>
  <rect x="106.63" width="6.07" height="128.64" fill="#2a2a2a"/>
  <rect x="118.64" width="6.07" height="128.64" fill="#2a2a2a"/>
</svg>