<?xml version="1.0" encoding="UTF-8"?>
<svg id="a" data-name="Camada 1" xmlns="http://www.w3.org/2000/svg" viewBox="0 0 128.64 620.5">
  <rect width="128.64" height="32.16" fill="#2a2a2a"/>
  <rect y="38.59" width="128.64" height="9.65" fill="#2a2a2a"/>
  <rect y="54.6" width="128.64" height="9.65" fill="#2a2a2a"/>
  <rect y="70.61" width="128.64" height="16.22" fill="#2a2a2a"/>
  <rect y="138.65" width="128.64" height="18.92" fill="#2a2a2a"/>
  <rect y="163.67" width="128.64" height="10.11" fill="#2a2a2a"/>
  <rect y="179.68" width="128.64" height="5.19" fill="#2a2a2a"/>
  <rect y="212.7" width="128.64" height="5.19" fill="#2a2a2a"/>
  <rect y="225.7" width="128.64" height="5.19" fill="#2a2a2a"/>
  <rect y="357.78" width="128.64" height="5.19" fill="#2a2a2a"/>
  <rect y="370.79" width="128.64" height="5.19" fill="#2a2a2a"/>
  <rect y="383.12" width="128.64" height="5.87" fill="#2a2a2a"/>
  <rect y="444.16" width="128.64" height="5.87" fill="#2a2a2a"/>
  <rect y="476.18" width="128.64" height="5.87" fill="#2a2a2a"/>
  <rect y="489.19" width="128.64" height="5.87" fill="#2a2a2a"/>
  <rect y="543.22" width="128.64" height="5.87" fill="#2a2a2a"/>
  <rect y="575.24" width="128.64" height="5.87" fill="#2a2a2a"/>
  <rect y="588.24" width="128.64" height="5.87" fill="#2a2a2a"/>
  <rect y="192.96" width="128.64" height="12.86" fill="#2a2a2a"/>
  <rect y="241.2" width="128.64" height="16.08" fill="#2a2a2a"/>
  <rect y="334.25" width="128.64" height="16.08" fill="#2a2a2a"/>
  <rect y="505.36" width="128.64" height="16.08" fill="#2a2a2a"/>
  <rect y="604.42" width="128.64" height="16.08" fill="#2a2a2a"/>
  <rect y="402.3" width="128.64" height="19.42" fill="#2a2a2a"/>
  <rect y="264.21" width="128.64" height="31.57" fill="#2a2a2a"/>
  <rect y="303.24" width="128.64" height="9.14" fill="#2a2a2a"/>
  <rect y="428.31" width="128.64" height="9.14" fill="#2a2a2a"/>
  <rect y="527.37" width="128.64" height="9.14" fill="#2a2a2a"/>
  <rect y="457.33" width="128.64" height="12.63" fill="#2a2a2a"/>
  <rect y="556.39" width="128.64" height="12.63" fill="#2a2a2a"/>
  <rect y="319.25" width="128.64" height="9.14" fill="#2a2a2a"/>
  <rect y="93.62" width="128.64" height="6.07" fill="#2a2a2a"/>
  <rect y="106.63" width="128.64" height="6.07" fill="#2a2a2a"/>
  <rect y="118.64" width="128.64" height="6.07" fill="#2a2a2a"/>
</svg>