<?xml version="1.0" encoding="UTF-8"?>
<svg id="a" data-name="Camada 1" xmlns="http://www.w3.org/2000/svg" viewBox="0 0 133.08 949.51">
  <path d="M40.82,99.95c-4.94,0-9.32-.28-13.14-.85-3.83-.56-7.05-1.44-9.66-2.64-2.62-1.19-4.6-2.73-5.96-4.61-1.36-1.88-2.04-4.12-2.04-6.71,0-1,.25-1.73.75-2.17s1.12-.77,1.85-1c.73-.23,1.53-.45,2.38-.66.86-.21,1.65-.57,2.38-1.1.73-.52,1.35-1.29,1.85-2.29s.75-2.45.75-4.33V26.29c0-1.84-.25-3.27-.75-4.3-.5-1.02-1.12-1.8-1.85-2.32-.73-.52-1.53-.89-2.38-1.1-.86-.21-1.65-.43-2.38-.66-.73-.23-1.35-.56-1.85-1s-.75-1.16-.75-2.16c0-2.59.68-4.82,2.04-6.68,1.36-1.86,3.35-3.39,5.96-4.58,2.61-1.19,5.83-2.07,9.66-2.64,3.83-.56,8.21-.85,13.14-.85h33.44c6.98,0,12.98.37,17.98,1.1,5,.73,9.19,1.73,12.58,2.98s6.1,2.74,8.13,4.45c2.03,1.72,3.58,3.57,4.64,5.55,1.07,1.99,1.76,4.06,2.07,6.21.31,2.16.47,4.3.47,6.43,0,2.47-.31,4.64-.94,6.53-.63,1.88-1.49,3.53-2.57,4.96-1.09,1.42-2.35,2.63-3.8,3.61-1.44.98-2.97,1.8-4.58,2.45-1.61.65-3.27,1.14-4.99,1.47-1.72.33-3.37.54-4.96.63,2.97.21,5.93.75,8.88,1.63,2.95.88,5.61,2.27,7.97,4.17,2.36,1.9,4.28,4.41,5.74,7.53,1.46,3.12,2.2,7.02,2.2,11.7,0,2.59-.36,5.1-1.07,7.53-.71,2.43-1.89,4.7-3.55,6.81-1.65,2.11-3.83,4.04-6.53,5.77-2.7,1.74-6.03,3.23-10.01,4.49-3.97,1.25-8.65,2.23-14.02,2.92-5.38.69-11.56,1.04-18.54,1.04h-28.55ZM71.94,43.67c1.84,0,3.34-.35,4.49-1.04s2.04-1.68,2.67-2.98c.63-1.3,1.05-2.88,1.25-4.74.21-1.86.31-3.96.31-6.31,0-2.51-.16-4.78-.47-6.81-.31-2.03-.89-3.74-1.73-5.15-.84-1.4-1.97-2.48-3.39-3.23-1.42-.75-3.24-1.13-5.46-1.13-1.76,0-3.13.32-4.11.97-.98.65-1.7,1.51-2.16,2.57-.46,1.07-.73,2.31-.82,3.73-.08,1.42-.13,2.91-.13,4.45v19.01c.21.13.69.23,1.44.31.63.08,1.57.16,2.82.22s3.01.09,5.27.09ZM71.94,54.09c-2.26,0-4.02.03-5.27.09s-2.2.14-2.82.22c-.75.13-1.23.23-1.44.31v19.01c0,1.55.04,3.03.13,4.45.08,1.42.36,2.67.82,3.73.46,1.07,1.18,1.92,2.16,2.57.98.65,2.35.97,4.11.97,2.22,0,4.04-.38,5.46-1.13,1.42-.75,2.55-1.83,3.39-3.23.84-1.4,1.41-3.12,1.73-5.15.31-2.03.47-4.32.47-6.87,0-2.34-.11-4.44-.31-6.31-.21-1.86-.63-3.43-1.25-4.71-.63-1.28-1.52-2.26-2.67-2.95s-2.65-1.03-4.49-1.03Z" fill="#f59835"/>
  <path d="M72.31,319.63c0,1.92.24,3.47.72,4.64.48,1.17,1.09,2.08,1.82,2.73.73.65,1.54,1.09,2.42,1.32.88.23,1.69.35,2.45.35.08,0,.19,0,.31-.03.13-.02.39-.04.78-.06.4-.02.98-.07,1.76-.16.77-.08,1.85-.19,3.23-.31l2.57-10.92c.71-2.38,1.57-4.4,2.57-6.06,1-1.65,2.1-2.99,3.29-4.02,1.19-1.02,2.45-1.77,3.76-2.23,1.32-.46,2.64-.69,3.98-.69,1.59,0,3.05.26,4.39.78,1.34.52,2.49,1.28,3.45,2.26.96.98,1.71,2.19,2.26,3.61.54,1.42.82,3.01.82,4.77s-.17,3.58-.5,5.58c-.33,2.01-.86,3.99-1.57,5.96-.71,1.97-1.59,3.86-2.64,5.68-1.05,1.82-2.27,3.42-3.67,4.8-1.4,1.38-2.99,2.49-4.77,3.33-1.78.84-3.73,1.25-5.87,1.25h-42.92c-4.94,0-9.32-.28-13.15-.85-3.83-.56-7.05-1.44-9.66-2.64-2.61-1.19-4.6-2.73-5.96-4.61-1.36-1.88-2.04-4.12-2.04-6.71,0-1,.25-1.73.75-2.17s1.12-.77,1.85-1c.73-.23,1.53-.45,2.38-.66s1.65-.57,2.38-1.1c.73-.52,1.35-1.29,1.85-2.29s.75-2.45.75-4.33v-47.31c0-1.84-.25-3.27-.75-4.3-.5-1.02-1.12-1.8-1.85-2.32-.73-.52-1.53-.89-2.38-1.1s-1.65-.43-2.38-.66c-.73-.23-1.35-.56-1.85-1s-.75-1.16-.75-2.16c0-2.59.68-4.82,2.04-6.68,1.36-1.86,3.35-3.39,5.96-4.58,2.61-1.19,5.84-2.07,9.66-2.64,3.83-.56,8.21-.85,13.15-.85s9.62.28,13.55.85c3.93.56,7.23,1.44,9.88,2.64,2.66,1.19,4.66,2.72,6.02,4.58,1.36,1.86,2.04,4.09,2.04,6.68,0,1-.25,1.73-.75,2.16s-1.12.78-1.85,1c-.73.23-1.54.45-2.42.66s-1.68.58-2.42,1.1c-.73.52-1.35,1.3-1.85,2.32-.5,1.03-.75,2.46-.75,4.3l-.13,51.07Z" fill="#f59835"/>
  <path d="M28.83,463.35c-3.1,0-5.82-.4-8.16-1.19-2.34-.79-4.3-1.87-5.87-3.23-1.57-1.36-2.75-2.93-3.54-4.71-.79-1.78-1.19-3.67-1.19-5.68,0-1,.23-1.73.69-2.17s1.07-.78,1.82-1.03,1.6-.48,2.54-.69c.94-.21,1.89-.59,2.85-1.13.96-.54,1.88-1.33,2.76-2.35.88-1.02,1.63-2.5,2.26-4.42l15.44-47.06c.29-.88.51-1.65.66-2.32.15-.67.22-1.25.22-1.76,0-1.3-.36-2.17-1.07-2.64-.71-.46-1.5-.82-2.35-1.07s-1.64-.55-2.35-.91c-.71-.35-1.07-1.08-1.07-2.16,0-.29.02-.52.06-.69.42-2.89,1.57-5.28,3.45-7.18,1.88-1.9,4.38-3.41,7.5-4.52,3.12-1.11,6.79-1.89,11.01-2.35,4.22-.46,8.89-.69,13.99-.69,4.31,0,8.44.16,12.39.47,3.95.31,7.52.99,10.7,2.04,3.18,1.05,5.84,2.53,7.97,4.45,2.13,1.92,3.53,4.52,4.2,7.78.08.42.13.71.13.88,0,.71-.2,1.25-.6,1.6-.4.36-.89.64-1.47.85-.59.21-1.21.39-1.88.53-.67.15-1.3.37-1.88.66-.59.29-1.08.72-1.47,1.29-.4.56-.6,1.35-.6,2.35,0,.88.19,2.01.56,3.39l13.87,47.06c.54,1.88,1.23,3.35,2.07,4.39.84,1.05,1.73,1.84,2.67,2.38.94.54,1.88.92,2.82,1.13.94.21,1.79.44,2.54.69s1.36.6,1.82,1.03c.46.44.69,1.16.69,2.17,0,5.23-2.7,9-8.09,11.33s-13.2,3.48-23.4,3.48c-4.94,0-9.32-.28-13.14-.85-3.83-.56-7.06-1.44-9.69-2.64s-4.63-2.73-5.99-4.61c-1.36-1.88-2.04-4.12-2.04-6.71,0-.88.2-1.54.6-1.98s.89-.77,1.47-1c.58-.23,1.23-.43,1.95-.6.71-.17,1.36-.41,1.95-.72.58-.31,1.08-.77,1.47-1.38.4-.61.6-1.47.6-2.6,0-.96-.15-2.05-.44-3.26l-1-4.33h-25.47l-1.51,4.33c-.54,1.59-.82,2.89-.82,3.89s.2,1.7.6,2.23c.4.52.89.92,1.47,1.19.58.27,1.23.49,1.95.66.71.17,1.36.37,1.95.6.58.23,1.08.58,1.47,1.04.4.46.6,1.11.6,1.95,0,2.01-.4,3.9-1.19,5.68-.8,1.78-1.98,3.35-3.54,4.71-1.57,1.36-3.51,2.44-5.84,3.23-2.32.79-5.01,1.19-8.06,1.19ZM45.02,423.13h19.64l-9.66-36.52-9.98,36.52Z" fill="#f59835"/>
  <path d="M70.4,586.11c-5.48,0-10.52-.62-15.12-1.85-4.6-1.23-8.77-2.96-12.52-5.18-3.74-2.22-7.04-4.85-9.88-7.91-2.84-3.05-5.23-6.4-7.15-10.04-1.92-3.64-3.38-7.5-4.36-11.58-.98-4.08-1.47-8.27-1.47-12.58,0-4.94.42-9.69,1.25-14.28.84-4.58,2.17-8.88,4.02-12.89,1.84-4.02,4.22-7.68,7.15-10.98,2.93-3.3,6.48-6.14,10.67-8.5,4.18-2.36,9.02-4.19,14.53-5.49,5.5-1.3,11.76-1.95,18.79-1.95,4.64,0,9.06.63,13.24,1.88,4.18,1.25,7.85,3.04,11.01,5.36,3.16,2.32,5.67,5.15,7.53,8.47,1.86,3.33,2.79,7.04,2.79,11.14,0,1.67-.26,3.18-.78,4.52-.52,1.34-1.25,2.47-2.2,3.39-.94.92-2.05,1.63-3.32,2.13-1.28.5-2.65.75-4.11.75-1.3,0-2.59-.21-3.89-.63-1.3-.42-2.53-1.12-3.7-2.1-1.17-.98-2.23-2.26-3.17-3.83-.94-1.57-1.68-3.5-2.23-5.8-.75-3.26-2.03-5.74-3.83-7.44-1.8-1.69-3.72-2.54-5.77-2.54-1.55,0-3.09.48-4.61,1.44-1.53.96-2.89,2.44-4.08,4.42-1.19,1.99-2.17,4.51-2.92,7.56-.75,3.05-1.13,6.67-1.13,10.85,0,5.52.31,10.32.94,14.4s1.5,7.56,2.6,10.45c1.11,2.89,2.4,5.25,3.89,7.09,1.48,1.84,3.08,3.28,4.8,4.33,1.71,1.05,3.49,1.77,5.33,2.16,1.84.4,3.68.6,5.52.6s3.72-.22,5.52-.66c1.8-.44,3.44-.98,4.93-1.63,1.48-.65,2.76-1.34,3.83-2.07,1.07-.73,1.85-1.41,2.35-2.04.63-.84,1.31-1.45,2.04-1.85.73-.4,1.41-.6,2.04-.6,1.17,0,2.17.61,3.01,1.82.84,1.21,1.25,2.89,1.25,5.02,0,3.35-1.04,6.61-3.11,9.79-2.07,3.18-4.99,6.01-8.75,8.5-3.76,2.49-8.27,4.5-13.52,6.02-5.25,1.53-11.05,2.29-17.41,2.29Z" fill="#f59835"/>
  <path d="M80.44,659.87h-28.3v19.14c0,1.88.26,3.35.78,4.39s1.16,1.84,1.91,2.38,1.57.92,2.45,1.13,1.68.44,2.42.69,1.35.6,1.85,1.03.75,1.16.75,2.17c0,5.23-2.7,9-8.09,11.33-5.4,2.32-13.2,3.48-23.4,3.48-4.94,0-9.32-.28-13.15-.85-3.83-.56-7.05-1.44-9.66-2.64s-4.6-2.73-5.96-4.61c-1.36-1.88-2.04-4.12-2.04-6.71,0-1,.25-1.73.75-2.17s1.12-.77,1.85-1c.73-.23,1.53-.45,2.38-.66s1.65-.57,2.38-1.1c.73-.52,1.35-1.29,1.85-2.29s.75-2.45.75-4.33v-47.31c0-1.84-.25-3.27-.75-4.3-.5-1.02-1.12-1.8-1.85-2.32-.73-.52-1.53-.89-2.38-1.1s-1.65-.43-2.38-.66c-.73-.23-1.35-.56-1.85-1s-.75-1.16-.75-2.16c0-2.59.68-4.82,2.04-6.68,1.36-1.86,3.35-3.39,5.96-4.58,2.61-1.19,5.84-2.07,9.66-2.64,3.83-.56,8.21-.85,13.15-.85s9.62.28,13.55.85c3.93.56,7.23,1.44,9.88,2.64,2.66,1.19,4.66,2.72,6.02,4.58,1.36,1.86,2.04,4.09,2.04,6.68,0,1-.25,1.73-.75,2.16s-1.12.78-1.85,1c-.73.23-1.54.45-2.42.66s-1.68.58-2.42,1.1c-.73.52-1.35,1.3-1.85,2.32-.5,1.03-.75,2.46-.75,4.3v15.81h28.17v-15.81c0-1.84-.25-3.27-.75-4.3-.5-1.02-1.12-1.8-1.85-2.32-.73-.52-1.54-.89-2.42-1.1s-1.68-.43-2.42-.66c-.73-.23-1.35-.56-1.85-1s-.75-1.16-.75-2.16c0-5.19,2.69-8.94,8.06-11.26,5.37-2.32,13.19-3.48,23.43-3.48s17.8,1.16,23.15,3.48c5.35,2.32,8.03,6.08,8.03,11.26,0,1-.26,1.73-.78,2.16-.52.44-1.17.78-1.95,1-.77.23-1.62.45-2.54.66-.92.21-1.77.58-2.54,1.1-.78.52-1.42,1.3-1.95,2.32-.52,1.03-.78,2.46-.78,4.3v47.06c0,1.88.26,3.35.78,4.39s1.17,1.84,1.95,2.38c.77.54,1.62.92,2.54,1.13.92.21,1.77.44,2.54.69s1.42.6,1.95,1.03c.52.44.78,1.16.78,2.17,0,2.59-.68,4.83-2.04,6.71-1.36,1.88-3.36,3.42-5.99,4.61s-5.9,2.07-9.79,2.64-8.35.85-13.36.85-9.62-.28-13.55-.85c-3.93-.56-7.23-1.44-9.88-2.64-2.66-1.19-4.67-2.73-6.02-4.61-1.36-1.88-2.04-4.12-2.04-6.71,0-1,.25-1.73.75-2.17s1.12-.78,1.85-1.03,1.54-.48,2.42-.69,1.68-.59,2.42-1.13c.73-.54,1.35-1.33,1.85-2.35.5-1.02.75-2.5.75-4.42v-19.14Z" fill="#f59835"/>
  <path d="M28.83,826.75c-3.1,0-5.82-.4-8.16-1.19-2.34-.79-4.3-1.87-5.87-3.23-1.57-1.36-2.75-2.93-3.54-4.71-.79-1.78-1.19-3.67-1.19-5.68,0-1,.23-1.73.69-2.17s1.07-.78,1.82-1.03,1.6-.48,2.54-.69c.94-.21,1.89-.59,2.85-1.13.96-.54,1.88-1.33,2.76-2.35.88-1.02,1.63-2.5,2.26-4.42l15.44-47.06c.29-.88.51-1.65.66-2.32.15-.67.22-1.25.22-1.76,0-1.3-.36-2.17-1.07-2.64-.71-.46-1.5-.82-2.35-1.07s-1.64-.55-2.35-.91c-.71-.35-1.07-1.08-1.07-2.16,0-.29.02-.52.06-.69.42-2.89,1.57-5.28,3.45-7.18,1.88-1.9,4.38-3.41,7.5-4.52,3.12-1.11,6.79-1.89,11.01-2.35,4.22-.46,8.89-.69,13.99-.69,4.31,0,8.44.16,12.39.47,3.95.31,7.52.99,10.7,2.04,3.18,1.05,5.84,2.53,7.97,4.45,2.13,1.92,3.53,4.52,4.2,7.78.08.42.13.71.13.88,0,.71-.2,1.25-.6,1.6-.4.36-.89.64-1.47.85-.59.21-1.21.39-1.88.53-.67.15-1.3.37-1.88.66-.59.29-1.08.72-1.47,1.29-.4.56-.6,1.35-.6,2.35,0,.88.19,2.01.56,3.39l13.87,47.06c.54,1.88,1.23,3.35,2.07,4.39.84,1.05,1.73,1.84,2.67,2.38.94.54,1.88.92,2.82,1.13.94.21,1.79.44,2.54.69s1.36.6,1.82,1.03c.46.44.69,1.16.69,2.17,0,5.23-2.7,9-8.09,11.33s-13.2,3.48-23.4,3.48c-4.94,0-9.32-.28-13.14-.85-3.83-.56-7.06-1.44-9.69-2.64s-4.63-2.73-5.99-4.61c-1.36-1.88-2.04-4.12-2.04-6.71,0-.88.2-1.54.6-1.98s.89-.77,1.47-1c.58-.23,1.23-.43,1.95-.6.71-.17,1.36-.41,1.95-.72.58-.31,1.08-.77,1.47-1.38.4-.61.6-1.47.6-2.6,0-.96-.15-2.05-.44-3.26l-1-4.33h-25.47l-1.51,4.33c-.54,1.59-.82,2.89-.82,3.89s.2,1.7.6,2.23c.4.52.89.92,1.47,1.19.58.27,1.23.49,1.95.66.71.17,1.36.37,1.95.6.58.23,1.08.58,1.47,1.04.4.46.6,1.11.6,1.95,0,2.01-.4,3.9-1.19,5.68-.8,1.78-1.98,3.35-3.54,4.71-1.57,1.36-3.51,2.44-5.84,3.23-2.32.79-5.01,1.19-8.06,1.19ZM45.02,786.53h19.64l-9.66-36.52-9.98,36.52Z" fill="#f59835"/>
  <path d="M79.22,866.5c0-1.17-1.06-2.24-3.17-3.2s-5.34-1.44-9.69-1.44c-3.01,0-5.4.21-7.15.63s-3.09.97-3.98,1.66-1.47,1.47-1.73,2.32c-.25.86-.38,1.73-.38,2.6,0,1.8.85,3.38,2.54,4.74,1.69,1.36,3.93,2.65,6.71,3.86s5.95,2.43,9.51,3.64c3.56,1.21,7.19,2.56,10.92,4.05,3.72,1.49,7.36,3.19,10.92,5.11,3.56,1.92,6.72,4.18,9.51,6.78,2.78,2.59,5.02,5.63,6.71,9.1,1.7,3.47,2.54,7.49,2.54,12.05,0,5.86-1.13,10.77-3.39,14.75-2.26,3.97-5.41,7.17-9.44,9.6-4.04,2.43-8.83,4.16-14.37,5.21-5.54,1.04-11.6,1.57-18.17,1.57-3.85,0-7.68-.29-11.48-.88-3.81-.59-7.43-1.43-10.85-2.54-3.43-1.11-6.62-2.47-9.57-4.08-2.95-1.61-5.5-3.43-7.65-5.46-2.16-2.03-3.85-4.27-5.08-6.71s-1.85-5.07-1.85-7.87c0-2.13.33-3.99,1-5.58.67-1.59,1.56-2.9,2.67-3.92,1.11-1.02,2.37-1.79,3.8-2.29,1.42-.5,2.91-.75,4.45-.75,1.88,0,3.76.36,5.65,1.07,1.88.71,3.58,1.76,5.08,3.14s2.73,3.07,3.67,5.08c.94,2.01,1.41,4.31,1.41,6.9,0,.63.3,1.3.91,2.01.61.71,1.48,1.37,2.64,1.98,1.15.61,2.58,1.12,4.3,1.54,1.71.42,3.68.63,5.9.63,3.09,0,5.56-.2,7.4-.6,1.84-.4,3.25-.93,4.24-1.6.98-.67,1.62-1.42,1.91-2.26.29-.84.44-1.67.44-2.51,0-1.05-.77-1.97-2.32-2.76-1.55-.79-3.58-1.6-6.09-2.42-2.51-.82-5.39-1.68-8.63-2.6-3.24-.92-6.54-2.02-9.88-3.29-3.35-1.28-6.64-2.79-9.88-4.55-3.24-1.76-6.12-3.88-8.63-6.37-2.51-2.49-4.54-5.4-6.09-8.72-1.55-3.33-2.32-7.21-2.32-11.64s.53-8.32,1.6-11.8c1.07-3.47,2.57-6.55,4.52-9.22,1.95-2.68,4.28-4.97,7-6.87,2.72-1.9,5.74-3.47,9.07-4.71,3.33-1.23,6.9-2.13,10.73-2.7,3.83-.56,7.81-.85,11.95-.85,7.4,0,13.71.74,18.92,2.23,5.21,1.49,9.44,3.4,12.71,5.74,3.26,2.34,5.64,4.95,7.12,7.81,1.48,2.87,2.23,5.66,2.23,8.38,0,2.47-.52,4.6-1.57,6.4-1.05,1.8-2.41,3.28-4.08,4.45-1.67,1.17-3.58,2.03-5.71,2.57s-4.29.82-6.46.82-4.13-.23-6.12-.69c-1.99-.46-3.74-1.15-5.27-2.07-1.53-.92-2.76-2.04-3.7-3.36-.94-1.32-1.41-2.83-1.41-4.55,0-1.25.28-2.2.85-2.82.56-.63,1.19-1.15,1.88-1.57.69-.42,1.32-.84,1.88-1.25.56-.42.85-1.05.85-1.88Z" fill="#f59835"/>
  <g>
    <path d="M125.21,192.18c-2.24,5.28-5.74,10.29-10.4,14.87-4.01,3.96-8.51,7.28-13.39,9.91-5.1,2.75-10.42,4.62-15.81,5.56-2.59.45-5.32.67-8.34.67-2.62,0-5.43-.17-8.82-.52-.45-.04-.93-.1-1.41-.16-1.33.1-2.72.16-4.25.18-.33,0-.67,0-1,0-6.73,0-13.2-.88-19.22-2.62-5.75-1.66-10.99-4.07-15.56-7.17-4.18-2.83-7.88-6.26-10.99-10.21-2.78-3.51-5.11-7.45-6.93-11.68-1.59-3.71-2.78-7.61-3.51-11.58-.68-3.66-.96-7.19-.85-10.49.07-1.91.29-3.88.71-6,.36-1.86.84-3.75,1.43-5.6.24-.76.52-1.44.77-2.06.11-.27.22-.51.29-.74.33-.87.71-1.77,1.11-2.66,3.15-6.99,7.9-13.41,13.74-18.56,6.17-5.45,13.61-9.53,21.52-11.81,5.51-1.58,11.36-2.38,17.41-2.38,3.01,0,6.09.2,9.18.6,1.32-.08,2.64-.12,3.97-.12h.24c5.71.02,11.51.76,17.24,2.19,3.31.83,5.98,1.67,8.42,2.65,2.73,1.08,5.5,2.61,8.21,4.54,2.31,1.65,4.57,3.58,6.74,5.75,1.67,1.67,3.79,3.95,5.4,6.76,2.88,5.02,3.87,10.61,4.75,15.55l.03.18c.19,1.02.37,2.06.57,3.06.81,4.42,1.67,8.98,1.9,13.7.31,6.34-.77,12.63-3.13,18.19Z" fill="#e5e1c3"/>
    <g>
      <path d="M113.7,166.38h0c-.35-1.06-1.14-2.01-1.86-2.83-.76-.87-1.64-1.68-2.57-2.36-.32-.24-.67-.45-1.01-.66.02-.02.05-.04.07-.06,1.29-1.67,2-3.87,2.43-5.92.44-2.12.39-4.34-.17-6.44-.48-1.77-1.29-3.42-2.54-4.76-1.34-1.45-2.95-2.69-4.77-3.48-3.53-1.55-7.98-1.41-11.34.53-3.23,1.86-5.59,5.25-6.56,8.82-1.07,3.9-.52,8.26,1.57,11.73.13.22.26.44.41.65.13.18.32.3.51.41-1.59,1.34-2.94,2.96-3.92,4.79-.45.83,1.52,1.27,1.91.55,1.99-3.69,5.52-6.52,9.5-7.67,2.07-.6,4.02-.76,6.13-.45.53.08.9.15,1.46.3.53.14,1.05.3,1.57.49.99.35,2.01.83,2.93,1.39,1.04.63,1.99,1.37,2.88,2.2.94.88,1.66,1.94,2.52,2.89.16.18.99.3.86-.12h0ZM89.09,161.06c-.16.11-.31.25-.46.37-.01-.02,0-.05-.02-.07-.12-.19-.25-.4-.37-.6-.24-.42-.45-.86-.64-1.3-.38-.87-.68-1.76-.9-2.69-.43-1.88-.5-3.83-.19-5.74.56-3.5,2.51-6.92,5.34-9.09,1.13-.86,2.42-1.45,3.77-1.78-.77,2.2-1.2,4.5-1.22,6.83-.02,2.5.37,4.99.98,7.41.18.7.34,1.41.54,2.1.1.33.2.66.31.99.07.2.13.4.21.59-.33.05-.66.08-.98.15-2.28.48-4.45,1.49-6.36,2.83ZM102.74,158.23c-.46-.1-.92-.16-1.39-.22.13-.3.23-.61.31-.9.18-.61.34-1.24.47-1.87.27-1.3.38-2.63.4-3.95,0-.04-.01-.08-.03-.12,0,0,0,0,0,0,.03-.1-.08-.21-.14-.26-.32-.26-.82-.32-1.21-.44-.39-.11-.81-.23-1.21-.35-.4-.12-.77-.23-1.17-.33-.22-.05-.44-.11-.67-.16.06-.1.11-.2.16-.3.13-.24.26-.46.39-.7.27-.52.56-1.04.86-1.54.3-.5.63-1.01.97-1.49.17-.24.35-.48.53-.71.12-.15.28-.31.36-.48.14-.1.22-.25.09-.42-.7-.86-1.46-1.67-2.24-2.46-.53-.54-1.06-1.14-1.64-1.68,1.19-.05,2.39.11,3.53.5,1.68.57,3.26,1.67,4.56,2.89.48.45.96.96,1.38,1.54.48.65.82,1.38,1.11,2.13.75,1.92,1.02,3.97.8,6.02-.22,2.05-.9,3.91-1.85,5.69-.17.33-.35.65-.52.98-1.23-.6-2.52-1.08-3.86-1.36Z" fill="#f59835"/>
      <path d="M104.91,173.15c-.94-.87-2.11-1.38-3.37-1.62-2.09-.4-4.39-.08-6.27.93-.49.26-.95.6-1.37.97-.32.28-.97.85-.9,1.33.04.24.4.3.59.23h0s0,0,0,0c.54-.2.96-.67,1.4-1.02.48-.39,1.03-.69,1.58-.96.82-.39,1.76-.64,2.68-.66-.91,2.99-2.3,5.78-4.32,8.21-1.28,1.55-2.71,2.96-4.33,4.15-1.31.97-2.83,1.81-4.4,2.5-.12.01-.23.05-.28.12-.28.12-.55.24-.83.35-3.9,1.5-8.2,2.03-12.35,1.45-4.34-.6-8.58-2.31-11.86-5.26-1.52-1.37-2.85-2.96-3.86-4.75-.5-.89-.97-1.82-1.22-2.81-.79-3.54-.23-5.15-.22-5.46.56.1.98.25,1.55.49.56.24,1.1.57,1.6,1,.23.19.44.41.64.64.11.13.2.27.31.39.21.25.49.33.79.41.32.09.88.02,1.05-.32.21-.42-.08-.71-.36-1.01-.25-.28-.52-.53-.8-.77-.54-.46-1.16-.84-1.81-1.14-1.34-.64-2.84-.86-4.31-.74-1.48.11-2.76.5-3.93,1.32-1.1.77-1.99,1.82-2.57,3.03-.32.67-.56,1.4-.64,2.13-.04.38-.04.77-.02,1.16.02.41.13.75.24,1.14.09.32.98.34.97-.04,0-.3.04-.6.05-.9,0-.3.04-.61.09-.9.11-.59.27-1.18.49-1.73.44-1.1,1.14-2.1,2.05-2.87.86-.73,1.91-1.21,3.03-1.35-.06,1.53,0,4.23.46,6.11-1.26,1.33-3.01,3.97-3.43,5.25-.47,1.42-.63,2.92-.74,4.36-.23,2.97.25,6.01,1.1,8.86.46,1.52,1.08,2.97,1.96,4.3.88,1.33,2.03,2.39,3.3,3.38,2.41,1.88,5.15,3.36,8.05,4.32,5.68,1.89,11.94,1.91,17.58-.16,5.33-1.95,10.01-5.58,13.08-10.34,3.27-5.06,4.72-11.46,3.79-17.42-.12-.74-.26-1.47-.44-2.19,0-.03-.03-.05-.04-.07.79-1.51,1.4-3.09,1.82-4.72.7.14,1.4.4,2.04.8.51.32.99.74,1.3,1.27.15.25.26.52.34.79.08.28.05.65.2.9.33.56,1.49.71,1.84.07.26-.48-.05-1.27-.27-1.73-.26-.54-.61-1.02-1.05-1.42ZM85.86,188.53c-.06,1.87-.28,3.73-.73,5.55-2.26.52-4.52,1.05-6.79,1.53-.13.02-.25.05-.37.08-.04,0-.08.02-.11.02,0-.07-.04-.29-.04-.33-.01-.15-.02-.29-.03-.44-.04-.59-.08-1.17-.12-1.76-.04-.59-.08-1.17-.12-1.76-.03-.38-.05-.75-.08-1.12,2.26-.11,4.5-.5,6.68-1.17.59-.18,1.16-.38,1.73-.6ZM66.21,188.42s0,.01,0,.02h0c-.19,1.15-.23,2.32-.33,3.48-.09.98-.18,1.96-.27,2.94-2.1-.67-4.2-1.38-6.29-2.07-.13-2.81.07-5.63.27-8.43,1.95,1.74,4.21,3.09,6.63,4.06Z" fill="#f59835"/>
      <path d="M123.45,174.23c-.27-5.44-1.45-10.8-2.4-16.14-.87-4.86-1.73-9.81-4.21-14.15-1.23-2.15-2.87-3.99-4.61-5.74-1.89-1.9-3.94-3.67-6.13-5.23-2.19-1.56-4.62-2.97-7.17-3.98-2.53-1.01-5.17-1.78-7.8-2.44-5.25-1.32-10.67-2.03-16.08-2.05-1.45,0-2.9.04-4.35.14-8.35-1.14-16.93-.76-25.06,1.58-7.26,2.09-13.99,5.78-19.64,10.78-5.27,4.65-9.62,10.48-12.51,16.89-.35.79-.69,1.59-1,2.4-.31.81-.7,1.66-.97,2.53-.53,1.66-.96,3.34-1.29,5.05-.33,1.73-.56,3.47-.62,5.24-.11,3.16.2,6.33.77,9.43.67,3.61,1.75,7.16,3.2,10.54,1.62,3.78,3.73,7.36,6.28,10.58,2.8,3.55,6.15,6.66,9.89,9.19,4.33,2.93,9.15,5.07,14.17,6.52,6.09,1.76,12.47,2.5,18.79,2.42,1.48-.02,2.95-.08,4.42-.2.61.08,1.21.15,1.82.21,5.18.54,10.6.8,15.82-.11,5.02-.87,9.85-2.62,14.33-5.04,4.5-2.42,8.64-5.51,12.28-9.09,3.88-3.82,7.2-8.27,9.33-13.3,2.14-5.03,3.02-10.55,2.75-16.03ZM16.33,191.46c-1.68-3.35-2.97-6.89-3.85-10.53-.76-3.14-1.22-6.32-1.29-9.6-.1-4.12.57-8.17,1.8-12.1.26-.82.47-1.67.77-2.47.3-.8.64-1.61.99-2.4.7-1.58,1.5-3.13,2.37-4.62,1.75-3,3.82-5.81,6.15-8.37,3.37-3.69,7.31-6.89,11.62-9.43.02-.01.04-.02.05-.03-.82.63-1.62,1.28-2.41,1.95-2.33,1.97-4.62,4.24-6.66,6.62-4.04,4.7-7.39,10.04-9.57,15.85-2.07,5.49-2.9,11.35-2.68,17.2.22,5.87,1.45,11.72,3.57,17.19,1.28,3.31,2.91,6.53,4.88,9.5,0,0-.02-.02-.02-.03-2.24-2.68-4.14-5.59-5.7-8.71ZM48.34,215.43c-5.09-1.08-10.1-2.87-14.6-5.46-2.52-1.45-4.87-3.12-7.03-5.01-1.3-1.49-2.53-3.04-3.64-4.69-1.63-2.42-3.02-5.01-4.18-7.69-2.32-5.35-3.76-11.11-4.21-16.93-.45-5.82.11-11.53,1.89-17.04,1.89-5.84,4.98-11.28,8.81-16.07,3.81-4.78,8.36-9,13.45-12.39.53-.35,1.06-.7,1.58-1.05h0c7.5-3.23,15.76-4.5,23.89-4.16.7.03,1.4.07,2.1.12-2.51.35-4.99.86-7.42,1.55-4.91,1.38-9.62,3.49-13.9,6.27-.4.26-.81.53-1.2.81,0,0,0,0,0,0-2.89.02-5.9.52-8.45,1.91-1.3.71-2.41,1.66-3.47,2.69-1.05,1.03-2.13,2.18-3.11,3.34-1.07,1.27-1.99,2.66-2.89,4.05-.95,1.47-1.85,2.97-2.66,4.52-1.49,2.85-2.63,5.86-3.31,9.01-.78,3.58-.94,7.26-.8,10.91.07,1.93.28,3.85.38,5.79.1,1.74.08,3.49.12,5.24.04,1.75.11,3.43.41,5.12s.85,3.27,1.58,4.8c.74,1.54,1.61,3.05,2.62,4.42.53.72.96,1.53,1.42,2.3.46.77.93,1.5,1.43,2.23,2.02,2.92,4.61,5.42,7.51,7.47,1.45,1.02,2.92,2.07,4.47,2.94,1.42.79,3.03,1.49,4.68,1.44.78-.02,1.53-.22,2.21-.6.04-.02.07-.05.09-.08,0,0,0,0,0,0,2.42,1.33,4.96,2.46,7.57,3.37,2.91,1.01,5.89,1.77,8.91,2.34-4.8-.1-9.57-.46-14.27-1.45ZM27.74,174.09c.15,5.82,1.26,11.69,3.28,17.18,2,5.43,4.93,10.6,8.88,14.84,0,0,0,0,0,0-2.48-1.99-4.71-4.28-6.63-6.82-2.64-3.49-4.85-7.53-6.38-11.74-1.53-4.21-2.46-8.7-2.68-13.21s.28-9.01,1.5-13.35c1.26-4.48,3.23-8.75,5.76-12.65,2.53-3.91,5.62-7.43,9.11-10.49,1.85-1.61,3.81-3.09,5.87-4.41.01,0,.02-.01.04-.02-.47.39-.93.78-1.38,1.18-2.24,1.99-4.33,4.2-6.21,6.57-3.73,4.71-6.67,10.04-8.6,15.74-1.87,5.52-2.72,11.35-2.57,17.17ZM121.68,182c-.85,5.29-3.17,10.57-6.35,15.03-2.98,4.18-6.75,7.82-10.85,10.89-3.98,2.97-8.4,5.39-13.09,7.05-4.69,1.66-9.55,2.53-14.49,2.42-5.22-.12-10.46-.58-15.57-1.68-4.77-1.02-9.45-2.59-13.76-4.91-2.01-1.08-3.95-2.32-5.77-3.7-1.84-1.95-3.55-4.02-5.03-6.26-1.57-2.38-2.94-5.01-4.06-7.69-2.23-5.37-3.54-11.12-3.92-16.92s.26-11.49,1.88-17.02c1.68-5.72,4.37-11.13,7.88-15.95,3.5-4.82,7.78-9,12.69-12.32.36-.24.73-.49,1.09-.73,0,0,0,0,0,0,4.7-2.18,9.76-3.57,14.9-4.25,5.17-.68,10.45-.65,15.63.02,2.63.34,5.22.84,7.79,1.48,2.55.64,5.1,1.39,7.54,2.37,4.88,1.96,9.17,5.28,12.84,9,1.68,1.7,3.26,3.48,4.43,5.58,1.16,2.1,1.93,4.4,2.63,6.71.72,2.37,1.18,4.79,1.62,7.23.46,2.58.95,5.15,1.39,7.74.89,5.25,1.42,10.6.57,15.89Z" fill="#f59835"/>
      <path d="M46.15,202.53c0-.07-.03-.12-.08-.17-.02-.03-.04-.06-.06-.09-.01-.01-.02-.03-.03-.04-.05-.07-.11-.1-.19-.14-.03-.02-.06-.02-.09-.03-.07-.03-.15-.06-.23-.08l-.17-.02c-.08,0-.17,0-.24.02-.05,0-.1.02-.14.04-.06.02-.12.05-.17.1-.04.05-.07.1-.09.15,0,.02-.03.03-.03.05-.02.06-.02.12,0,.18.02.05.05.09.08.14l.07.11s.08.06.12.09c.02.03.04.06.07.09.05.05.1.09.16.12.07.04.14.07.22.08l.17.02c.09,0,.17,0,.25-.02.05,0,.1-.02.15-.05.06-.02.12-.06.17-.11l.07-.09c.03-.07.04-.14,0-.21h0s-.02-.06-.04-.08c0-.02.01-.05,0-.07Z" fill="#f59835"/>
      <path d="M40.9,176.88l-.02-.03s-.02-.03-.03-.05c0,0,0,0,0-.01,0-.01-.02-.03-.03-.04-.03-.05-.07-.09-.12-.12h0s-.08-.04-.12-.06c0,0-.01,0-.02,0-.01,0-.02-.01-.04-.02,0,0-.01,0-.01,0-.04-.01-.08-.03-.12-.04l-.13-.02c-.06,0-.12,0-.19.02-.04,0-.07.01-.11.03-.05.02-.09.04-.13.08h0s0,0,0,0c0,0-.01,0-.01,0-.02.01-.02.02-.04.04-.01.02-.02.02-.02.03,0,0,0,0,0,0-.04.05-.03.03-.05.09-.01.04-.01.03-.01.06h0s.01.05,0,.06c0,.04,0,.09.02.12h0s.04.07.06.1c0,0,.01,0,.01.01,0,0,.02.02.02.02l.09.07.12.06c.07.03.14.05.22.05.03,0,.05,0,.08,0,0,0,.01,0,.02,0h.13c.06-.01.11-.03.17-.06l-.04.02h.02s.03-.02.04-.03c.01,0,.02,0,.03,0,.01,0,.02-.01.03-.02.02-.01.04-.02.06-.03.03-.02.06-.04.08-.08.04-.04.05-.08.05-.13v-.04s-.01-.1-.01-.1h0Z" fill="#f59835"/>
      <path d="M44.11,169.62s-.04-.07-.06-.1-.04-.07-.05-.1c0,0,0-.01-.01-.02-.05-.08-.08-.14-.17-.19-.02-.01-.04-.02-.06-.03v.03s-.08-.07-.13-.09c-.1-.04-.2-.06-.3-.06-.1,0-.21,0-.31.04-.08.02-.16.06-.22.12-.05.05-.09.11-.09.18,0,.02-.01.03-.01.05,0,.06.01.1.04.14.02.04.04.07.06.1.02.04.04.07.06.1.01.02.02.03.03.05.03.05.05.1.09.14.04.05.1.09.16.11.07.04.14.07.21.08l.17.02c.08,0,.17,0,.25-.02.05,0,.1-.02.14-.04.06-.02.12-.05.17-.1l.07-.09c.03-.07.03-.13,0-.21,0-.02-.02-.04-.03-.05,0-.01-.02-.03-.03-.05ZM42.98,169.62h0s0-.01,0-.01c0,0,0,0,0,.01h0ZM43.03,169.6v-.02s.03-.03.03-.03c-.01.01-.02.03-.03.05Z" fill="#f59835"/>
      <path d="M82.39,173.07s-.06-.06-.09-.08c0,0-.01,0-.02,0-.03-.02-.06-.03-.09-.04l-.09-.05c-.05-.02-.11-.04-.17-.04-.04,0-.08,0-.12,0-.06,0-.12,0-.17.02l-.09.04-.07.05s-.05.06-.06.1c-.02.03-.01.07,0,.11h0s.02.04.03.06c.02.04.03.07.07.1l.03.03s.08.07.13.09c.05.03.11.05.17.06.07.01.13.02.2.01.06,0,.13,0,.19-.03l.1-.04c.06-.03.1-.07.14-.13l.02-.08c0-.06-.02-.11-.06-.15l-.03-.03Z" fill="#f59835"/>
      <path d="M113.07,169.51s-.04-.06-.05-.09c-.04-.06-.07-.12-.1-.18-.03-.08-.09-.14-.16-.18l-.13-.07c-.11-.04-.22-.06-.33-.07-.09,0-.17,0-.26.02-.08.01-.15.03-.22.08-.06.03-.11.07-.14.12-.04.04-.06.09-.06.15,0,.08.03.15.08.21h0s0,0,0,0c.05.07.09.14.14.21.02.03.04.07.07.1.04.04.09.08.14.12.08.05.18.09.27.11.06.01.12.02.17.02.11,0,.21,0,.31-.04.05-.01.09-.03.13-.06.07-.04.13-.09.17-.16.03-.07.03-.13,0-.2,0-.01,0-.03-.01-.05s-.01-.03-.02-.04Z" fill="#f59835"/>
      <path d="M44.13,129.18h0c.05.07.09.14.14.21.02.03.04.07.07.1.04.04.09.08.14.12.08.05.18.09.27.11.06.01.12.02.17.02.11,0,.21,0,.31-.04.05-.01.09-.03.13-.06.07-.04.13-.09.17-.16.03-.07.03-.13,0-.2,0-.01,0-.03-.01-.05s-.01-.03-.02-.04c-.02-.03-.04-.06-.05-.09-.04-.06-.07-.12-.1-.18-.03-.08-.09-.14-.16-.18l-.13-.07c-.11-.04-.22-.06-.33-.07-.09,0-.17,0-.26.02-.08.01-.15.03-.22.08-.06.03-.11.07-.14.12-.04.04-.06.09-.06.15,0,.08.03.15.08.21h0Z" fill="#f59835"/>
      <path d="M47.22,213.03s-.04-.06-.05-.09c-.04-.06-.07-.12-.1-.18-.03-.08-.09-.14-.16-.18l-.13-.07c-.11-.04-.22-.06-.33-.07-.09,0-.17,0-.26.02-.08.01-.15.03-.22.08-.06.03-.11.07-.14.12-.04.04-.06.09-.06.15,0,.08.03.15.08.21h0s0,0,0,0c.05.07.09.14.14.21.02.03.04.07.07.1.04.04.09.08.14.12.08.05.18.09.27.11.06.01.12.02.17.02.11,0,.21,0,.31-.04.05-.01.09-.03.13-.06.07-.04.13-.09.17-.16.03-.07.03-.13,0-.2,0-.01,0-.03-.01-.05s-.01-.03-.02-.04Z" fill="#f59835"/>
      <path d="M116.61,175.25s0-.07-.03-.09c-.02-.04-.05-.06-.08-.08-.07-.04-.15-.07-.23-.08s-.18,0-.26.02c-.07.03-.15.06-.19.14h0s-.02.03-.02.04c-.02.02-.04.03-.05.05,0,.02-.02.03-.03.05-.02.03-.03.06-.05.09-.02.03-.03.06-.04.09,0,.03-.02.07-.03.1-.02.04-.03.07-.01.11,0,.04.02.08.05.1.03.04.07.06.12.08.05.03.1.05.16.06.12.02.25.02.36-.01l.09-.04c.05-.03.1-.07.12-.12.01-.03.03-.06.04-.09,0-.01.02-.03.02-.04.02-.03.02-.07.03-.11l.04-.18s-.01-.03-.01-.04v-.05Z" fill="#f59835"/>
      <path d="M110.67,181.3l-.04-.07-.04-.03v-.02s.04-.07.04-.07c0-.04-.01-.08-.04-.11-.02-.04-.05-.07-.09-.09h0s0,0,0,0c0,0,0,0,0,0h0c-.1-.06-.21-.09-.32-.1-.09-.02-.18-.02-.27-.01-.1.01-.16.03-.24.07,0,0-.02,0-.03.01-.04.02-.07.05-.11.08,0,0-.02.01-.02.02-.03.04-.07.08-.09.12,0,0,0,.02,0,.02,0,0,0,0,0,0-.04.04-.05.08-.05.13,0,.04.01.09.02.13,0,0,0,.01,0,.02.02.03.04.07.06.1,0,0,.01.02.03.03.04.03.07.07.12.09,0,0,0,0,0,0,.02,0,.04.02.06.03.02.01.04.02.06.03l.14.04h.02c.05,0,.13.02.19.02.11,0,.24,0,.34-.05.07-.02.14-.06.2-.11.04-.04.06-.09.07-.14,0,.01,0,.03-.01.04,0,0,0-.02.01-.03,0,0,0-.02,0-.03,0,0,0,0,0,0h0s.01-.05.01-.07v-.07ZM109.98,181.14h0s0,0-.01,0h0ZM110,181.35h.01s.11.01.11.01h0s-.11-.01-.11-.01ZM110.22,181.36s0,0,.01,0h0s-.01,0-.01,0Z" fill="#f59835"/>
      <path d="M95.72,202.11s-.01-.02-.01-.02l-.04-.07-.07-.06s0,0-.01,0c0,0,0,0,0,0-.03-.03-.07-.06-.11-.09-.09-.05-.18-.08-.28-.08-.08,0-.17,0-.24.04-.05.02-.12.06-.15.12l-.02.06s.02.06.04.09c0,0,0,0,0,0h0s0,0,0,0c0,.01-.01.02-.01.03,0,.03,0,.05,0,.08,0,.01,0,.02,0,.03,0,.01-.01.02-.02.03,0,0-.01.01-.02.02h.01s0,0-.01.01c-.02.02-.05.03-.07.06l-.02.08c0,.06.02.11.06.15.04.04.08.07.12.09.05.03.11.05.17.06.07.01.13.02.2.01.06,0,.12,0,.18-.03.07-.02.13-.05.18-.1.01,0,.03-.02.04-.03.03-.03.05-.07.08-.1.03-.05.04-.11.06-.16.01-.05,0-.09,0-.13,0-.03-.01-.06-.03-.08ZM94.81,202.24s-.02.02-.03.03h0s.03-.03.03-.03ZM94.78,202.26h0s0,0,0,0c0,0-.02.02-.02.02l.02-.03Z" fill="#f59835"/>
      <path d="M80.29,211.26s-.09-.05-.14-.06c-.05-.02-.11-.03-.17-.03h-.12c-.07.01-.14.03-.2.07l-.07.05s-.06.08-.07.13h0s0,.06,0,.06v.03s0,.07.02.1l.04.06s.07.06.11.08c.03.02.06.03.09.04.05.02.11.03.17.03h.12s.11-.03.11-.03c.05-.01.09-.03.12-.06.04-.02.06-.05.08-.08.02-.03.02-.07.02-.1v-.03s0-.04.01-.07c0-.04,0-.08-.03-.1-.02-.04-.05-.07-.09-.09Z" fill="#f59835"/>
      <path d="M17.53,164.59s.06-.05.08-.08c.02-.03.02-.07.02-.1v-.03s.01-.04.01-.07c0-.04,0-.08-.03-.1-.02-.04-.05-.07-.09-.09-.05-.03-.09-.05-.14-.06-.05-.02-.11-.03-.17-.03h-.12c-.07.01-.14.03-.2.07l-.07.05s-.06.08-.07.13h0s0,0,0,0v.07s0,.03,0,.03c0,.03,0,.07.02.1l.04.06s.07.06.11.08c.03.02.06.03.09.04.05.02.11.03.17.03h.12s.11-.03.11-.03c.05-.01.09-.03.12-.06Z" fill="#f59835"/>
      <path d="M48.65,128.54s0,.07.02.1l.04.06s.07.06.11.08c.03.02.06.03.09.04.05.02.11.03.17.03h.12s.11-.03.11-.03c.05-.01.09-.03.12-.06.04-.02.06-.05.08-.08.02-.03.02-.07.02-.1v-.03s.01-.04.01-.07c0-.04,0-.08-.03-.1-.02-.04-.05-.07-.09-.09-.05-.03-.09-.05-.14-.06-.05-.02-.11-.03-.17-.03h-.12c-.07.01-.14.03-.2.07l-.07.05s-.06.08-.07.13h0s0,.06,0,.06v.03Z" fill="#f59835"/>
      <path d="M66.91,134.07s.01,0,.02.01c.02.02.04.04.05.06,0,0,0,.01.01.02.04.1.15.17.24.21.07.03.13.04.2.05.07.01.14.01.22,0l.13-.03c.08-.02.14-.06.2-.11l.06-.08c.03-.06.03-.11,0-.17-.03-.06-.06-.12-.1-.17-.02-.03-.05-.06-.07-.09-.11-.11-.23-.18-.37-.24-.07-.03-.13-.04-.2-.05-.07-.01-.14-.01-.22,0-.1.01-.19.05-.27.1-.05.01-.1.03-.14.07l-.04.05s-.02.05,0,.08c0,.03.03.05.06.08.03.1.13.17.22.21ZM66.97,133.98h0s0,0,0,0h0ZM66.91,133.97h.02s0,0,0,0c.01,0,.02,0,.04.01h-.05Z" fill="#f59835"/>
      <path d="M81.34,138.98s.02.04.03.06c0,.02.01.03.02.05.11.23.51.27.71.23,0,0,0,0,0,0,.13-.02.24-.09.29-.19,0-.01.02-.03.02-.04,0-.02.03-.03.03-.06v-.08c.04-.45-1.1-.5-1.11-.05h0s0,.08,0,.08Z" fill="#f59835"/>
      <path d="M16.13,176.83h0s0,.08,0,.08c0,.02.02.04.03.06,0,.02.01.03.02.05.11.23.51.27.71.23,0,0,0,0,0,0,.13-.02.24-.09.29-.19,0-.01.02-.03.02-.04,0-.02.03-.03.03-.06v-.08c.04-.45-1.1-.5-1.11-.05Z" fill="#f59835"/>
      <path d="M70.09,140.72c.14,0,.42-.04.43-.23s-.27-.26-.41-.26c-.14,0-.42.04-.43.23,0,.19.27.26.41.26Z" fill="#f59835"/>
      <path d="M17.76,180.19c-.14,0-.42.04-.43.23,0,.19.27.26.41.26.14,0,.42-.04.43-.23s-.27-.26-.41-.26Z" fill="#f59835"/>
      <path d="M61.51,157.33c1.99.28,3.96.78,5.86,1.46-1.08,1.84-2.76,3.28-4.78,4-.73.26-.47,1.46.28,1.19,2.4-.85,4.43-2.51,5.66-4.75.47.19.94.4,1.4.62.7.33,1.37-.69.66-1.03-.55-.26-1.11-.51-1.67-.73.63-3.21.06-6.64-1.74-9.4-1.71-2.62-4.35-4.54-7.36-5.36-.76-.21-1.13.96-.37,1.17,2.7.73,5.12,2.42,6.65,4.77,1.61,2.46,2.2,5.5,1.67,8.38-8.78-3.14-18.7-2.18-26.67,2.85-.12.07-.23.15-.35.23-.67-4.05.58-8.33,3.35-11.37.53-.58-.3-1.48-.83-.9-3.17,3.47-4.55,8.31-3.65,12.93,0,.03.01.06.02.09-.2.14-.39.28-.58.43,0,0,0,.02,0,.03-.03.08-.07.15-.12.21.05.38.09.76.11,1.13.05.02.1.05.16.08,6.26-4.9,14.34-7.16,22.32-6.03Z" fill="#f59835"/>
      <path d="M47.61,163.11c3.16-2.11,6.94-3.04,10.71-2.62.78.09.83-1.14.05-1.22-3.96-.44-8.02.54-11.33,2.76-.65.43-.08,1.52.57,1.08Z" fill="#f59835"/>
    </g>
  </g>
</svg>