<?xml version="1.0" encoding="UTF-8"?>
<svg id="a" data-name="Camada 1" xmlns="http://www.w3.org/2000/svg" viewBox="0 0 1000 1000">
  <path d="M921.8,632.92c-14.42,38.15-37.87,74.67-69.55,108.56-27.35,29.2-58.33,54.21-92.14,74.24-35.45,20.96-72.68,35.74-110.76,43.98-23.44,5.04-49.16,7.53-78.43,7.53-13.14,0-27.28-.5-43.27-1.56-3.41-.21-6.75-.43-10.02-.71-9.45,1.14-19.32,1.92-30.19,2.49-9.66.57-19.47.78-28.99.78-40,0-78.79-4.55-115.23-13.43-41.28-10.09-79.14-25.72-112.46-46.46-30.48-18.83-57.76-42.2-80.99-69.34-20.67-24.15-38.43-51.36-52.57-80.92-12.36-25.86-21.88-53.21-28.2-81.13-5.83-25.79-8.95-50.8-9.16-74.24,0-13.57,1.07-27.64,3.27-42.77,1.99-13.29,4.9-26.85,8.6-40.14,1.49-5.54,3.27-10.44,4.9-14.92.71-1.92,1.35-3.69,1.92-5.33,2.06-6.25,4.48-12.79,7.03-19.18,20.39-50.58,52.22-97.47,92.14-135.69,42.2-40.5,93.85-71.68,149.33-90.08,44.69-14.85,92.78-22.38,143.01-22.38,14.92,0,30.05.71,45.18,1.99,9.73-.99,19.82-1.71,29.77-2.06,6.04-.21,12.22-.36,18.26-.36,34.74,0,69.91,3.69,104.86,10.94,23.59,4.9,42.84,10.09,60.53,16.34,19.68,6.89,39.64,16.91,59.46,29.91,16.91,11.01,33.53,24.16,49.59,38.93,12.29,11.3,27.99,26.85,40.28,46.46,21.81,34.74,30.48,74.1,38.15,108.84l.36,1.35c1.56,7.18,3.2,14.49,4.9,21.6,7.1,31.12,14.42,63.23,17.48,96.62,4.05,44.97-1.85,89.94-16.91,130.01l-.14.14Z" fill="#e5e1c3"/>
  <g>
    <path d="M367.94,424.2c7.89-2.63,16.62-3.77,24.72-4.48,16.7-1.49,33.67.57,49.45,6.54,8.45,3.2,17.12,7.39,24.16,13.14,3.2,2.63,6.11,5.75,8.6,9.09,1.21,1.63,2.27,3.48,3.13,5.33.43.92.71,1.92,1.14,2.84.71,1.56,1.92,2.63,3.05,3.77,1.85,1.85,4.69,2.42,7.18,2.13,1.85-.21,5.4-.99,5.97-3.27.28-1.07.78-2.34.78-3.41,0-1.28-.64-2.49-1.21-3.62-1.14-2.2-2.42-4.26-3.84-6.32-1.14-1.63-2.49-3.13-3.84-4.62,7.53-8.95,13.36-19.11,17.12-30.19,4.62-13.85,7.39-29.13,6.47-43.76-.85-14.56-4.97-28.49-12.43-40.64-7.96-12.93-19.54-23.09-33.11-29.84-26.85-13.36-58.68-13.92-86.46-3.05-26.14,10.16-49.38,30.34-59.75,56.84-5.4,13.78-7.25,28.92-5.9,43.62,1.21,12.86,4.83,26.64,11.86,37.65,1.28,1.99,2.63,3.91,3.98,5.83-7.67,5.97-14.64,12.79-20.67,20.32-5.75,7.32-10.94,15.2-14.85,23.66-3.98,8.45-7.81,17.83-8.17,27.14-.07,2.77,6.04,2.7,6.89.57h0c2.91-7.39,4.83-15.13,8.1-22.45,3.27-7.32,7.1-14.21,11.65-20.67,9.02-12.86,20.6-23.87,33.89-32.18,3.34-2.13,6.82-4.05,10.37-5.75,3.77-1.85,7.81-2.98,11.79-4.26l-.07.07ZM419.8,294.4c3.05,0,5.9.21,8.38.43,6.68.78,13.29,2.27,19.68,4.62,6.39,2.27,12.79,5.61,18.47,9.66,5.4,3.84,9.95,8.88,14,14.07,7.89,10.23,13,22.88,15.06,35.59,2.2,13.64.85,27.64-2.42,40.99-2.84,11.51-7.32,22.73-14.42,32.33-.28.36-.57.71-.85,1.07-6.18-4.55-12.93-8.31-19.96-11.51-12.43-5.54-25.86-9.09-39.5-10.44.5-.78,1.07-1.56,1.56-2.34,1.92-2.98,3.62-6.04,5.12-9.24,2.84-6.18,4.76-12.79,5.83-19.47v-.57c.07-.5-.07-.92-.43-1.28-1.14-2.2-3.98-3.48-6.11-4.62-2.84-1.63-5.97-2.84-9.02-4.12-5.33-2.2-10.59-4.48-15.7-7.03,8.53-6.89,16.98-13.78,25.65-20.46.57-.43,1.56-1.21,1.42-2.13-.71-3.84-2.56-7.6-3.84-11.3-1.49-3.98-2.91-7.96-4.4-11.86-2.77-7.32-5.47-14.71-8.1-22.09.28,0,.57-.07.85-.14,1.99-.21,5.9-.36,8.74-.36v.21ZM335.47,433.01c-1.21-3.55-2.34-7.18-3.48-10.73-1.92-5.75-3.48-11.58-4.33-17.62-1.92-13.36-2.77-26.71.43-40.07,6.11-26.07,24.58-47.24,48.1-59.46,7.39-3.84,14.99-6.54,22.88-8.31-.57.85-1.14,1.71-1.63,2.56-2.34,3.84-4.55,7.81-6.54,11.94-3.91,8.03-7.03,16.41-9.38,25.01-4.76,17.26-6.47,35.31-4.83,53.21.43,4.9,1.14,9.8,2.13,14.64.64,2.91,1.28,6.11,2.27,9.09-2.98.64-5.9,1.42-8.74,2.42-4.4,1.49-8.88,2.63-13.14,4.48s-8.1,3.91-12.08,5.97-7.89,4.48-11.65,6.96v-.07Z" fill="#f59835"/>
    <path d="M839.6,440.18h0c-3.27-7.18-9.52-13.36-15.27-18.61-6.04-5.54-12.86-10.66-19.96-14.71-2.49-1.42-5.04-2.63-7.6-3.91.14-.14.36-.28.43-.5,7.81-12.79,11.22-28.84,12.72-43.62,1.49-15.27-.5-30.98-6.11-45.33-4.76-12.15-11.65-23.16-21.53-31.76-10.59-9.24-22.88-16.77-36.3-21.03-26.07-8.31-57.4-3.91-79.71,12.29-21.38,15.63-35.52,41.28-39.71,67.21-4.62,28.35,2.63,58.75,19.96,81.7,1.07,1.42,2.2,2.91,3.41,4.26,1.07,1.14,2.49,1.85,3.91,2.56-10.16,10.66-18.54,23.16-24.08,36.8-2.56,6.18,11.72,7.81,13.92,2.42,11.22-27.57,34.1-50.23,61.31-61.31,14.14-5.75,27.85-8.38,42.91-7.81,3.84.14,6.47.43,10.59.99,3.84.57,7.67,1.35,11.44,2.27,7.25,1.71,14.85,4.33,21.74,7.6,7.81,3.69,15.06,8.17,22.02,13.36,7.32,5.54,13.21,12.43,19.96,18.54,1.28,1.14,7.25,1.35,5.97-1.49h0v.07ZM704.48,396.35c-15.77,5.12-30.34,13.92-42.84,24.79-1.07.92-1.99,1.99-2.98,2.91-.07-.14-.07-.36-.21-.5-.99-1.28-2.06-2.63-3.05-3.98-1.99-2.77-3.84-5.68-5.54-8.67-3.34-5.83-6.18-11.94-8.38-18.33-4.48-12.93-6.39-26.71-5.68-40.42,1.35-25.15,12.5-50.8,30.83-68.2,7.32-6.96,15.98-12.08,25.29-15.42-3.77,16.13-5.04,32.68-3.48,49.16,1.71,17.69,6.39,34.95,12.5,51.58,1.78,4.83,3.48,9.66,5.4,14.42.92,2.27,1.92,4.48,2.98,6.75.64,1.35,1.21,2.7,1.92,3.98-2.27.57-4.55,1.07-6.82,1.85l.07.07ZM755.98,390.88c-3.27-.36-6.61-.43-9.95-.5.64-2.2,1.14-4.48,1.56-6.61.85-4.48,1.42-9.02,1.92-13.5.92-9.38.71-18.83-.21-28.2,0-.28-.14-.57-.28-.78h0c.07-.71-.71-1.42-1.21-1.78-2.49-1.56-6.04-1.63-8.88-2.13s-5.9-.99-8.81-1.56c-2.91-.5-5.61-1.07-8.53-1.42-1.56-.21-3.2-.5-4.83-.64.36-.78.64-1.49.92-2.27.78-1.85,1.49-3.48,2.2-5.26,1.49-3.91,3.13-7.74,4.9-11.51,1.71-3.77,3.69-7.6,5.75-11.3.99-1.85,2.13-3.62,3.27-5.4.78-1.21,1.78-2.34,2.13-3.69.92-.78,1.35-1.92.28-2.98-5.61-5.61-11.58-10.66-17.62-15.7-4.12-3.41-8.38-7.25-12.86-10.59,8.38-1.28,16.91-1.07,25.29.85,12.29,2.77,24.23,9.31,34.39,16.98,3.77,2.77,7.46,6.04,10.87,9.8,3.84,4.19,6.82,9.09,9.45,14.21,6.75,13,10.16,27.28,10.23,41.92,0,14.64-3.41,28.35-8.74,41.56-.99,2.49-1.99,4.9-2.91,7.32-9.09-3.34-18.61-5.75-28.28-6.75l-.07-.07Z" fill="#f59835"/>
    <path d="M772.11,487.21c-6.96-5.9-15.42-9.24-24.37-10.51-14.92-2.27-31.19.71-44.19,8.45-3.41,1.99-6.61,4.55-9.45,7.25-2.2,2.13-6.68,6.25-5.97,9.73.36,1.71,2.91,1.99,4.26,1.42h0c3.77-1.56,6.61-4.97,9.66-7.67,3.34-2.91,7.1-5.26,10.94-7.25,6.32-3.34,13.78-5.61,21.03-5.61.5,0,.99.07,1.42.07-4.76,27.64-14.78,53.78-31.9,76.16-8.67,11.37-18.4,21.74-29.55,30.69-11.15,8.95-24.58,16.77-38.29,22.66-27.28,11.72-57.62,16.77-87.24,13.92-30.98-2.98-61.6-13.92-85.75-33.96-11.15-9.24-21.1-20.25-28.77-32.61-3.84-6.18-7.39-12.65-9.52-19.61-1.92-6.39-2.77-13.07-3.13-19.75-.14-1.92-.14-3.91-.14-5.83.99.07,1.99.07,2.91.21,4.05.57,7.03,1.49,11.15,3.05,4.05,1.56,7.96,3.77,11.65,6.61,1.63,1.35,3.27,2.77,4.69,4.33.78.85,1.49,1.85,2.34,2.7,1.56,1.71,3.55,2.2,5.75,2.7,2.27.5,6.25-.14,7.32-2.56,1.35-3.05-.78-4.97-2.84-7.1-1.85-1.92-3.84-3.62-5.9-5.26-3.98-3.13-8.45-5.61-13.14-7.6-9.73-4.12-20.39-5.26-30.83-4.05-10.44,1.21-19.47,4.33-27.49,10.51-7.6,5.83-13.64,13.5-17.41,22.31-2.06,4.83-3.55,10.09-3.98,15.35-.21,2.7-.07,5.47.14,8.24.28,2.91,1.14,5.33,2.06,8.03.71,2.2,7.03,2.13,6.89-.57-.14-2.13.14-4.26.14-6.39s.07-4.33.43-6.47c.64-4.19,1.56-8.45,2.98-12.43,2.84-7.96,7.53-15.2,13.71-20.96,5.19-4.83,11.51-8.17,18.33-9.8.14,12.79,2.13,25.65,8.03,37.16.71,1.35,1.49,2.56,2.2,3.91-.57.36-1.14.78-1.49,1.35-5.68,8.45-9.95,17.62-12.79,27.42-2.84,9.8-3.48,20.11-3.84,30.05-.71,20.32,3.34,41.06,9.88,60.25,3.55,10.23,8.17,19.96,14.49,28.84,6.32,8.81,14.42,15.77,23.23,22.17,16.84,12.15,35.81,21.53,55.77,27.35,39,11.37,81.49,9.73,119.07-5.97,35.59-14.85,66.28-40.99,85.75-74.31,20.74-35.52,28.84-79.64,20.89-120.14-.99-4.97-2.2-9.95-3.55-14.85-.07-.36-.36-.64-.64-.92,7.25-14.49,12.5-29.98,14.99-45.75.43-2.7.64-5.4.78-8.1,4.19.92,8.38,2.34,12.29,4.62,3.77,2.13,7.18,4.97,9.59,8.6,1.14,1.71,1.99,3.62,2.63,5.54.64,1.92.57,4.62,1.71,6.39,2.49,3.84,10.8,4.62,13.07,0,1.71-3.48-.71-9.02-2.42-12.15-1.99-3.69-4.62-7.03-7.81-9.8l.21-.07ZM509.32,648.27c-.28,6.68-.64,13.43-.99,20.18-14.42-4.05-28.84-8.24-43.19-12.36-1.49-17.05-1.14-34.31-.71-51.44,14.07,9.59,29.7,16.77,46.04,21.67-.78,7.32-.78,14.71-1.14,22.02v-.07ZM643.8,617.29c.28,13.5-.71,27.07-3.34,40.35-15.2,4.19-30.34,8.45-45.61,12.36-.85.21-1.63.43-2.49.64-.28,0-.5.14-.78.21-.07-.5-.36-1.99-.36-2.27-.14-.99-.21-1.99-.36-2.98-.43-3.98-.85-8.03-1.35-12.01s-.85-8.03-1.35-12.01c-.36-2.98-.57-5.9-1.07-8.74,14.35-1.63,28.42-4.83,42.13-9.59,5.04-1.78,9.8-3.77,14.56-5.9v-.07Z" fill="#f59835"/>
    <path d="M904.11,506.04c-3.48-38.51-13.43-76.23-21.74-113.88-7.53-34.24-15.13-69.2-34.03-99.25-9.38-14.92-21.53-27.49-34.39-39.36-14-12.93-28.99-24.87-44.97-35.31-15.98-10.44-33.67-19.75-52-26.22-18.26-6.39-37.16-11.15-56.05-15.06-37.65-7.81-76.3-11.3-114.74-9.88-10.3.43-20.6,1.14-30.9,2.27-59.61-5.68-120.42-.5-177.4,18.4-50.94,16.91-97.61,45.11-136.33,82.2-36.09,34.53-65.29,77.22-83.9,123.55-2.27,5.68-4.4,11.44-6.39,17.26-1.99,5.83-4.48,12.01-6.18,18.26-3.27,11.86-5.83,24.01-7.67,36.23-1.85,12.36-2.98,24.79-2.91,37.37.14,22.45,3.27,44.83,8.24,66.71,5.83,25.43,14.42,50.3,25.72,73.89,12.65,26.36,28.56,51.15,47.6,73.32,20.89,24.37,45.61,45.47,72.89,62.38,31.61,19.61,66.43,33.39,102.45,42.2,43.69,10.73,89.23,14.14,134.13,11.72,10.51-.57,20.96-1.42,31.4-2.7,4.26.36,8.6.71,12.86.92,36.87,2.34,75.45,2.63,112.25-5.33,35.38-7.6,69.2-21.46,100.24-39.93,31.19-18.47,59.75-41.63,84.54-68.06,26.43-28.2,48.67-60.81,62.38-97.12,13.71-36.3,18.33-75.8,14.85-114.59h.07ZM148.63,659.35c-12.86-23.3-23.09-48.03-30.34-73.6-6.32-22.09-10.44-44.54-11.94-67.78-1.92-29.2,1.71-58.19,9.24-86.39,1.56-5.9,2.84-11.94,4.69-17.76,1.85-5.83,4.05-11.58,6.32-17.33,4.55-11.44,9.73-22.59,15.49-33.46,11.51-21.81,25.43-42.34,41.28-61.17,22.88-27.21,49.87-51.01,79.71-70.33.14-.07.28-.14.43-.21-5.61,4.76-11.15,9.59-16.55,14.56-15.91,14.71-31.61,31.47-45.4,48.95-27.28,34.53-49.52,73.39-63.37,115.23-13.07,39.57-17.26,81.35-14.07,122.84,3.27,41.56,13.64,82.77,30.26,120.99,10.02,23.16,22.52,45.4,37.37,65.93,0-.07-.14-.14-.21-.21-16.62-18.33-30.9-38.43-42.91-60.1v-.14ZM382.86,820.27c-36.45-6.18-72.54-17.48-105.22-34.53-18.33-9.59-35.45-20.74-51.29-33.53-9.66-10.16-18.83-20.82-27.21-32.25-12.29-16.77-22.88-34.74-31.9-53.43-18.05-37.3-29.91-77.79-34.74-118.93-4.9-41.21-2.56-81.84,8.45-121.49,11.72-42.06,32.11-81.49,57.83-116.58,25.72-35.02,56.76-66.28,91.93-91.86,3.62-2.63,7.32-5.26,10.94-7.89h0c52.29-25.08,110.54-36.45,168.3-36.45,4.97,0,10.02.07,14.99.28-17.69,3.2-35.17,7.53-52.29,13.14-34.46,11.22-67.28,27.57-96.83,48.52-2.77,1.99-5.54,3.98-8.31,6.11h0c-20.46.99-41.77,5.4-59.39,15.98-9.02,5.4-16.62,12.5-23.87,20.11-7.18,7.6-14.49,16.06-21.1,24.58-7.18,9.38-13.36,19.47-19.4,29.55-6.32,10.66-12.29,21.6-17.55,32.82-9.73,20.67-16.98,42.34-20.89,64.86-4.48,25.65-4.62,51.79-2.56,77.72,1.07,13.71,3.05,27.28,4.4,40.99,1.21,12.36,1.56,24.79,2.34,37.16.78,12.36,1.78,24.3,4.4,36.23,2.63,11.94,6.96,22.95,12.65,33.6,5.68,10.66,12.29,21.17,19.89,30.62,3.98,4.97,7.25,10.59,10.73,15.91s7.03,10.37,10.8,15.42c15.2,20.18,34.31,37.09,55.49,50.87,10.59,6.89,21.38,13.85,32.61,19.54,10.3,5.26,21.88,9.73,33.67,8.81,5.54-.43,10.8-2.06,15.56-4.9.28-.14.5-.36.64-.57h0c17.55,8.74,35.88,15.98,54.7,21.74,20.89,6.32,42.27,10.87,63.87,14-34.1.71-67.99-.43-101.66-6.18ZM224.64,532.75c2.77,41.28,12.29,82.62,28.28,120.99,15.77,37.94,38.08,73.81,67.35,102.8h0c-18.19-13.36-34.67-29.06-49.09-46.53-19.75-24.01-36.59-52.08-48.67-81.49-12.08-29.41-19.96-61.03-22.88-93-2.91-31.9-.64-64.08,6.82-95.2,7.67-32.18,20.39-63.02,37.23-91.5,16.84-28.49,37.72-54.35,61.67-77.08,12.65-12.01,26.14-23.02,40.35-32.96.07,0,.21-.14.28-.14-3.2,2.91-6.39,5.83-9.45,8.81-15.35,14.78-29.55,31.05-42.13,48.38-25.08,34.53-44.4,73.25-56.48,114.17-11.72,39.71-16.06,81.35-13.29,122.69v.07ZM893.74,561.67c-4.48,37.8-19.47,75.95-40.71,108.48-19.96,30.55-45.61,57.47-73.89,80.42-27.42,22.24-58.11,40.71-90.87,53.85s-67.07,20.74-102.16,21.38c-37.09.71-74.38-1.14-110.97-7.39-34.17-5.83-67.85-15.7-99.11-30.83-14.64-7.1-28.7-15.35-42.06-24.58-13.64-13.29-26.36-27.49-37.51-42.98-11.79-16.48-22.31-34.74-30.98-53.43-17.41-37.44-28.35-77.86-32.68-118.93-4.33-41.06-1.49-81.63,8.45-121.41,10.3-41.06,27.85-80.28,51.29-115.45,23.44-35.24,52.64-66.14,86.53-91.08,2.49-1.85,5.04-3.69,7.53-5.47h0c32.75-16.84,68.27-28.2,104.51-34.46,36.52-6.32,74.03-7.67,110.97-4.4,18.76,1.63,37.3,4.4,55.77,8.24,18.26,3.77,36.59,8.38,54.21,14.64,35.17,12.5,66.64,34.81,93.78,60.17,12.43,11.58,24.16,23.73,33.04,38.29,8.88,14.56,14.92,30.69,20.6,46.89,5.75,16.62,9.8,33.67,13.57,50.87,3.98,18.19,8.24,36.3,12.08,54.56,7.81,37.01,13.14,74.81,8.6,112.61Z" fill="#f59835"/>
    <path d="M363.46,729.33c0-.5-.21-.85-.64-1.21-.14-.21-.28-.43-.43-.57-.07-.07-.14-.21-.21-.28-.36-.5-.85-.71-1.35-.92-.21-.14-.43-.14-.64-.21-.5-.21-1.07-.36-1.63-.5h-1.21c-.57-.07-1.21,0-1.71.14-.36,0-.71.14-.99.36-.43.14-.85.43-1.14.78s-.5.71-.57,1.14c0,.14-.21.21-.21.36-.14.43-.14.85.07,1.28.21.36.36.64.57.99l.57.78s.57.43.92.57c.14.21.36.36.5.57.36.36.71.64,1.21.78.5.28.99.43,1.56.5h1.21c.64.07,1.21,0,1.78-.14.36,0,.71-.21.99-.36.43-.14.85-.43,1.21-.78l.5-.71c.21-.5.21-.99,0-1.49h0c-.07-.21-.21-.36-.28-.57v-.5h-.07Z" fill="#f59835"/>
    <path d="M318.85,548.81s-.07-.14-.14-.21c-.07-.14-.14-.21-.21-.36v-.07c0-.07-.14-.21-.21-.28-.21-.36-.5-.64-.85-.78h0s-.57-.28-.85-.43h-.14c-.07,0-.21-.07-.28-.14h-.07c-.28-.07-.57-.14-.85-.21h-.92c-.43-.07-.85,0-1.35.07-.28,0-.5.14-.78.28-.36.14-.64.28-.85.57h-.07c-.14.07-.14.14-.21.28-.07.14-.14.14-.14.21h0c-.28.36-.21.21-.28.64v.43h0s.07.36.07.43c0,.28.07.64.21.85h0l.43.64s.07,0,.07.07l.14.14.64.5.85.43c.5.21.99.28,1.56.28h1.63c.43-.14.78-.28,1.14-.5l-.28.21h.14s.21-.21.28-.21.14,0,.21-.07c.07,0,.14-.14.21-.14.14-.07.28-.14.43-.21.21-.14.43-.28.57-.57.21-.28.36-.57.36-.99v-.28l-.14-.71h0l-.28.14Z" fill="#f59835"/>
    <path d="M339.52,496.23s-.28-.5-.43-.71-.28-.43-.43-.71c0,0,0-.07-.07-.14-.36-.57-.64-.99-1.28-1.35-.14-.07-.28-.14-.43-.21v.21s-.57-.43-.92-.57c-.71-.21-1.42-.36-2.13-.36s-1.49.14-2.13.36c-.57.21-1.07.5-1.56.92-.36.36-.57.78-.57,1.28v.36c0,.43.14.71.36.99.14.21.28.5.43.71s.28.43.43.71c.07.14.14.21.21.36.21.36.43.71.71.99.36.36.71.57,1.21.78.5.28.99.43,1.56.5h1.21c.57.07,1.21,0,1.78-.14.36,0,.71-.14.99-.36.43-.14.85-.43,1.21-.78l.43-.64c.21-.5.21-.99,0-1.49,0-.14-.14-.21-.21-.36,0-.07-.14-.21-.21-.36h-.14ZM331.57,496.59h0v-.07.07h0ZM331.85,496.45v-.14l.21-.21c-.07.07-.14.21-.21.36Z" fill="#f59835"/>
    <path d="M605.37,510.73l.21.43c.14.28.28.5.5.71l.21.21s.57.5.92.57c.36.21.78.36,1.21.43.5.07.92.07,1.42,0,.43,0,.92-.07,1.35-.21l.71-.36c.43-.21.71-.57.92-.92l.14-.57c0-.43-.21-.78-.5-1.07l-.21-.21s-.43-.43-.71-.5h-.14c-.21-.07-.43-.21-.64-.28l-.64-.28c-.43-.14-.78-.21-1.21-.21h-.85c-.43,0-.85.07-1.21.21l-.64.28-.5.43s-.36.43-.43.71c-.07.21-.07.5,0,.78h0l.07-.14Z" fill="#f59835"/>
    <path d="M829.02,475.56s-.28-.43-.43-.64c-.28-.43-.5-.85-.78-1.28-.28-.57-.71-.99-1.21-1.28l-.92-.43c-.78-.28-1.56-.43-2.42-.43-.64,0-1.21,0-1.85.21-.57.07-1.07.28-1.49.57-.43.21-.71.5-.99.92-.28.28-.43.71-.43,1.07,0,.57.21,1.07.64,1.42h0c.36.5.71.99.99,1.49.14.21.28.5.57.71.36.28.64.57.99.85.64.36,1.28.57,1.99.71.43,0,.85.07,1.21.07.78,0,1.49-.14,2.2-.36.36-.07.64-.21.92-.43.5-.28.85-.71,1.14-1.21.21-.5.21-.99,0-1.42,0-.07,0-.21-.07-.36,0-.14-.07-.21-.14-.28l.07.07Z" fill="#f59835"/>
    <path d="M327.94,209.22h0c.36.5.71.99.99,1.49.14.21.28.5.57.71.36.28.64.57.99.85.64.36,1.28.57,1.99.71.43,0,.85.07,1.21.07.78,0,1.49-.14,2.2-.36.36-.07.64-.21.92-.43.5-.28.85-.71,1.14-1.21.21-.5.21-.99,0-1.42,0-.07,0-.21-.07-.36,0-.14-.07-.21-.14-.28l-.43-.64c-.28-.43-.5-.85-.78-1.28-.28-.57-.71-.99-1.21-1.28l-.92-.43c-.78-.28-1.56-.43-2.42-.43-.64,0-1.21,0-1.85.21-.57.07-1.07.28-1.49.57-.43.21-.71.5-.99.92-.28.28-.43.71-.43,1.07,0,.57.21,1.07.64,1.42h0l.07.07Z" fill="#f59835"/>
    <path d="M374.19,803.57l-.43-.64c-.28-.43-.5-.85-.78-1.28-.28-.57-.71-.99-1.21-1.28l-.92-.43c-.78-.28-1.56-.43-2.42-.43-.64,0-1.21,0-1.85.21-.57.07-1.07.28-1.49.57-.43.21-.71.5-.99.92-.28.28-.43.71-.43,1.07,0,.57.21,1.07.64,1.42h0c.36.5.71.99.99,1.49.14.21.28.5.57.71.36.28.64.57.99.85.64.36,1.28.57,1.99.71.43,0,.85.07,1.21.07.78,0,1.49-.14,2.2-.36.36-.07.64-.21.92-.43.5-.28.85-.71,1.14-1.21.21-.5.21-.99,0-1.42,0-.07,0-.21-.07-.36s-.07-.21-.14-.28l.07.07Z" fill="#f59835"/>
    <path d="M855.8,515.27s-.07-.5-.21-.64c-.14-.21-.36-.43-.57-.57-.5-.28-1.07-.43-1.63-.5-.57,0-1.28,0-1.85.21-.5.21-1.07.5-1.35.99h0s-.07.21-.14.36c-.14.14-.28.21-.36.36,0,.14-.07.21-.14.36-.07.21-.21.43-.28.64s-.21.43-.21.64-.14.5-.21.71c-.14.28-.14.5,0,.78,0,.28.14.57.43.71.21.21.57.43.85.57.36.21.71.28,1.14.36.85.14,1.78.07,2.56-.21l.64-.28c.36-.21.64-.5.85-.85.07-.21.14-.43.21-.64,0-.07.07-.21.07-.28.07-.21.14-.5.21-.78l.21-1.28s-.07-.21-.14-.28v-.36h-.07Z" fill="#f59835"/>
    <path d="M815.38,559.96l-.28-.43-.28-.21v-.14l.21-.57c0-.28-.07-.57-.28-.78-.14-.28-.36-.5-.71-.64h0c-.71-.43-1.49-.57-2.34-.64-.64-.07-1.28-.14-1.92,0-.71.14-1.07.28-1.71.57,0,0-.14,0-.21.07-.28.21-.5.36-.78.57,0,0-.07.07-.14.14-.21.28-.43.57-.64.85v.14h0c-.21.28-.36.57-.36.92,0,.28.07.64.21.92v.14c.14.21.28.43.5.71,0,0,.07.14.21.21.28.21.57.5.85.64h0c.14,0,.28.14.43.21s.28.14.43.21l.99.21h.14c.36,0,.92.14,1.35.07.78,0,1.71-.07,2.42-.43.5-.14.99-.43,1.35-.85.28-.28.43-.64.43-.99,0,.07,0,.21-.07.28,0,0,0-.14.07-.21v-.21h0s.07-.36.07-.5v-.5l.07.21ZM810.47,558.97h-.07.07ZM810.62,560.53h.85-.85ZM812.18,560.53h.07-.07Z" fill="#f59835"/>
    <path d="M715.27,712l-.07-.14-.36-.43-.5-.43h-.07c-.21-.21-.5-.43-.85-.57-.64-.28-1.28-.5-1.99-.5-.57,0-1.21.07-1.71.36-.36.14-.85.43-.99.85v.43s0,.43.14.57h0c0,.07-.07.14-.07.21v.78c0,.07-.07.14-.14.28,0,0,0,.07-.14.14h.07l-.07.07c-.14.14-.36.28-.43.5l-.14.57c0,.43.21.78.5,1.07s.57.43.92.57c.36.21.78.36,1.21.36.5.07.92.07,1.42,0,.43,0,.85-.07,1.28-.21.5-.14.92-.43,1.28-.71.07,0,.21-.14.21-.21.21-.21.36-.5.57-.71.21-.36.28-.78.36-1.21v-.92c0-.21-.07-.43-.21-.57l-.21-.14ZM708.88,713.2s-.14.14-.21.21h0l.21-.21ZM708.67,713.35h0l-.14.14.14-.21v.07Z" fill="#f59835"/>
    <path d="M608.42,781.41s-.64-.36-.99-.43c-.43-.14-.78-.21-1.21-.14h-.85c-.5.14-.99.28-1.42.57l-.5.43s-.43.57-.43.92h0v.64s0,.5.14.71l.28.43s.5.43.78.5c.21.14.43.21.71.21.43.14.78.14,1.21.14h.85l.71-.21c.36-.07.64-.21.85-.5.21-.14.43-.36.57-.64.07-.21.14-.5.14-.71v-.71c0-.28-.07-.57-.28-.71-.14-.28-.36-.5-.64-.57l.07.07Z" fill="#f59835"/>
    <path d="M143.8,466.96s0,.5.14.71l.28.43s.5.43.78.5c.21.14.43.21.71.21.43.14.78.14,1.21.14h.85l.71-.21c.36-.07.64-.21.85-.5.21-.14.43-.36.57-.64.07-.21.14-.5.14-.71v-.71c0-.28-.07-.57-.28-.71-.14-.28-.36-.5-.64-.57-.36-.21-.64-.36-.99-.43-.43-.14-.78-.21-1.21-.14h-.85c-.5.14-.99.28-1.42.57l-.5.43s-.43.57-.43.92h0v.71h.07Z" fill="#f59835"/>
    <path d="M359.91,203.32s0,.5.14.71l.28.43s.5.43.78.5c.21.14.43.21.71.21.43.14.78.14,1.21.14h.85l.71-.21c.36-.07.64-.21.85-.5.21-.14.43-.36.57-.64.07-.21.14-.5.14-.71v-.71c0-.28-.07-.57-.28-.71-.14-.28-.36-.5-.64-.57-.36-.21-.64-.36-.99-.43-.43-.14-.78-.14-1.21-.14h-.85c-.5.14-.99.28-1.42.57l-.5.43s-.43.57-.43.92h0v.64l.07.07Z" fill="#f59835"/>
    <path d="M491.13,237.35s.07,0,.14.07c.14.14.28.28.43.43,0,0,0,.07.07.14.36.71,1.14,1.14,1.78,1.42.5.14.92.28,1.49.28h1.56l.92-.21c.57-.14.99-.43,1.42-.85l.43-.57c.21-.43.21-.85,0-1.21-.21-.43-.5-.85-.78-1.21-.14-.21-.36-.43-.57-.57-.85-.71-1.63-1.21-2.7-1.63-.5-.14-.92-.28-1.49-.28h-1.56c-.71.14-1.35.36-1.92.78-.36.14-.71.28-.99.5l-.21.36s-.14.43,0,.57c0,.21.28.36.43.5.21.71.99,1.21,1.63,1.42l-.07.07ZM491.06,236.64h.43-.43Z" fill="#f59835"/>
    <path d="M594.93,268.04l.21.43c0,.14.07.21.14.28.85,1.56,3.77,1.78,5.12,1.42h0c.92-.21,1.63-.71,2.06-1.42,0-.07.14-.21.14-.28,0-.14.21-.21.21-.43v-.57c.07-3.2-7.96-3.27-7.89,0h0s0,.57,0,.57Z" fill="#f59835"/>
    <path d="M142.94,555.56h0v.57s.14.28.21.43c0,.14.07.21.14.28.85,1.56,3.69,1.78,5.12,1.42h0c.92-.21,1.63-.71,2.06-1.42,0-.07.14-.21.14-.28,0-.14.21-.21.21-.43v-.57c.07-3.2-7.96-3.27-7.89,0Z" fill="#f59835"/>
    <path d="M515.57,283.6c.99,0,2.98-.43,2.98-1.78s-1.99-1.78-2.98-1.78-2.98.43-2.98,1.78,1.99,1.78,2.98,1.78Z" fill="#f59835"/>
    <path d="M155.52,578.93c-.99,0-2.98.43-2.98,1.78s1.99,1.78,2.98,1.78,2.98-.43,2.98-1.78-1.99-1.78-2.98-1.78Z" fill="#f59835"/>
  </g>
</svg>