<?xml version="1.0" encoding="UTF-8"?>
<svg id="a" data-name="Camada 1" xmlns="http://www.w3.org/2000/svg" viewBox="0 0 133.08 949.51">
  <path d="M40.82,99.95c-4.94,0-9.32-.28-13.14-.85-3.83-.56-7.05-1.44-9.66-2.64-2.62-1.19-4.6-2.73-5.96-4.61-1.36-1.88-2.04-4.12-2.04-6.71,0-1,.25-1.73.75-2.17s1.12-.77,1.85-1c.73-.23,1.53-.45,2.38-.66.86-.21,1.65-.57,2.38-1.1.73-.52,1.35-1.29,1.85-2.29s.75-2.45.75-4.33V26.29c0-1.84-.25-3.27-.75-4.3-.5-1.02-1.12-1.8-1.85-2.32-.73-.52-1.53-.89-2.38-1.1-.86-.21-1.65-.43-2.38-.66-.73-.23-1.35-.56-1.85-1s-.75-1.16-.75-2.16c0-2.59.68-4.82,2.04-6.68,1.36-1.86,3.35-3.39,5.96-4.58,2.61-1.19,5.83-2.07,9.66-2.64,3.83-.56,8.21-.85,13.14-.85h33.44c6.98,0,12.98.37,17.98,1.1,5,.73,9.19,1.73,12.58,2.98s6.1,2.74,8.13,4.45c2.03,1.72,3.58,3.57,4.64,5.55,1.07,1.99,1.76,4.06,2.07,6.21.31,2.16.47,4.3.47,6.43,0,2.47-.31,4.64-.94,6.53-.63,1.88-1.49,3.53-2.57,4.96-1.09,1.42-2.35,2.63-3.8,3.61-1.44.98-2.97,1.8-4.58,2.45-1.61.65-3.27,1.14-4.99,1.47-1.72.33-3.37.54-4.96.63,2.97.21,5.93.75,8.88,1.63,2.95.88,5.61,2.27,7.97,4.17,2.36,1.9,4.28,4.41,5.74,7.53,1.46,3.12,2.2,7.02,2.2,11.7,0,2.59-.36,5.1-1.07,7.53-.71,2.43-1.89,4.7-3.55,6.81-1.65,2.11-3.83,4.04-6.53,5.77-2.7,1.74-6.03,3.23-10.01,4.49-3.97,1.25-8.65,2.23-14.02,2.92-5.38.69-11.56,1.04-18.54,1.04h-28.55ZM71.94,43.67c1.84,0,3.34-.35,4.49-1.04s2.04-1.68,2.67-2.98c.63-1.3,1.05-2.88,1.25-4.74.21-1.86.31-3.96.31-6.31,0-2.51-.16-4.78-.47-6.81-.31-2.03-.89-3.74-1.73-5.15-.84-1.4-1.97-2.48-3.39-3.23-1.42-.75-3.24-1.13-5.46-1.13-1.76,0-3.13.32-4.11.97-.98.65-1.7,1.51-2.16,2.57-.46,1.07-.73,2.31-.82,3.73-.08,1.42-.13,2.91-.13,4.45v19.01c.21.13.69.23,1.44.31.63.08,1.57.16,2.82.22s3.01.09,5.27.09ZM71.94,54.09c-2.26,0-4.02.03-5.27.09s-2.2.14-2.82.22c-.75.13-1.23.23-1.44.31v19.01c0,1.55.04,3.03.13,4.45.08,1.42.36,2.67.82,3.73.46,1.07,1.18,1.92,2.16,2.57.98.65,2.35.97,4.11.97,2.22,0,4.04-.38,5.46-1.13,1.42-.75,2.55-1.83,3.39-3.23.84-1.4,1.41-3.12,1.73-5.15.31-2.03.47-4.32.47-6.87,0-2.34-.11-4.44-.31-6.31-.21-1.86-.63-3.43-1.25-4.71-.63-1.28-1.52-2.26-2.67-2.95s-2.65-1.03-4.49-1.03Z" fill="#f59835"/>
  <path d="M72.31,319.63c0,1.92.24,3.47.72,4.64.48,1.17,1.09,2.08,1.82,2.73.73.65,1.54,1.09,2.42,1.32.88.23,1.69.35,2.45.35.08,0,.19,0,.31-.03.13-.02.39-.04.78-.06.4-.02.98-.07,1.76-.16.77-.08,1.85-.19,3.23-.31l2.57-10.92c.71-2.38,1.57-4.4,2.57-6.06,1-1.65,2.1-2.99,3.29-4.02,1.19-1.02,2.45-1.77,3.76-2.23,1.32-.46,2.64-.69,3.98-.69,1.59,0,3.05.26,4.39.78,1.34.52,2.49,1.28,3.45,2.26.96.98,1.71,2.19,2.26,3.61.54,1.42.82,3.01.82,4.77s-.17,3.58-.5,5.58c-.33,2.01-.86,3.99-1.57,5.96-.71,1.97-1.59,3.86-2.64,5.68-1.05,1.82-2.27,3.42-3.67,4.8-1.4,1.38-2.99,2.49-4.77,3.33-1.78.84-3.73,1.25-5.87,1.25h-42.92c-4.94,0-9.32-.28-13.15-.85-3.83-.56-7.05-1.44-9.66-2.64-2.61-1.19-4.6-2.73-5.96-4.61-1.36-1.88-2.04-4.12-2.04-6.71,0-1,.25-1.73.75-2.17s1.12-.77,1.85-1c.73-.23,1.53-.45,2.38-.66s1.65-.57,2.38-1.1c.73-.52,1.35-1.29,1.85-2.29s.75-2.45.75-4.33v-47.31c0-1.84-.25-3.27-.75-4.3-.5-1.02-1.12-1.8-1.85-2.32-.73-.52-1.53-.89-2.38-1.1s-1.65-.43-2.38-.66c-.73-.23-1.35-.56-1.85-1s-.75-1.16-.75-2.16c0-2.59.68-4.82,2.04-6.68,1.36-1.86,3.35-3.39,5.96-4.58,2.61-1.19,5.84-2.07,9.66-2.64,3.83-.56,8.21-.85,13.15-.85s9.62.28,13.55.85c3.93.56,7.23,1.44,9.88,2.64,2.66,1.19,4.66,2.72,6.02,4.58,1.36,1.86,2.04,4.09,2.04,6.68,0,1-.25,1.73-.75,2.16s-1.12.78-1.85,1c-.73.23-1.54.45-2.42.66s-1.68.58-2.42,1.1c-.73.52-1.35,1.3-1.85,2.32-.5,1.03-.75,2.46-.75,4.3l-.13,51.07Z" fill="#f59835"/>
  <path d="M28.83,463.35c-3.1,0-5.82-.4-8.16-1.19-2.34-.79-4.3-1.87-5.87-3.23-1.57-1.36-2.75-2.93-3.54-4.71-.79-1.78-1.19-3.67-1.19-5.68,0-1,.23-1.73.69-2.17s1.07-.78,1.82-1.03,1.6-.48,2.54-.69c.94-.21,1.89-.59,2.85-1.13.96-.54,1.88-1.33,2.76-2.35.88-1.02,1.63-2.5,2.26-4.42l15.44-47.06c.29-.88.51-1.65.66-2.32.15-.67.22-1.25.22-1.76,0-1.3-.36-2.17-1.07-2.64-.71-.46-1.5-.82-2.35-1.07s-1.64-.55-2.35-.91c-.71-.35-1.07-1.08-1.07-2.16,0-.29.02-.52.06-.69.42-2.89,1.57-5.28,3.45-7.18,1.88-1.9,4.38-3.41,7.5-4.52,3.12-1.11,6.79-1.89,11.01-2.35,4.22-.46,8.89-.69,13.99-.69,4.31,0,8.44.16,12.39.47,3.95.31,7.52.99,10.7,2.04,3.18,1.05,5.84,2.53,7.97,4.45,2.13,1.92,3.53,4.52,4.2,7.78.08.42.13.71.13.88,0,.71-.2,1.25-.6,1.6-.4.36-.89.64-1.47.85-.59.21-1.21.39-1.88.53-.67.15-1.3.37-1.88.66-.59.29-1.08.72-1.47,1.29-.4.56-.6,1.35-.6,2.35,0,.88.19,2.01.56,3.39l13.87,47.06c.54,1.88,1.23,3.35,2.07,4.39.84,1.05,1.73,1.84,2.67,2.38.94.54,1.88.92,2.82,1.13.94.21,1.79.44,2.54.69s1.36.6,1.82,1.03c.46.44.69,1.16.69,2.17,0,5.23-2.7,9-8.09,11.33s-13.2,3.48-23.4,3.48c-4.94,0-9.32-.28-13.14-.85-3.83-.56-7.06-1.44-9.69-2.64s-4.63-2.73-5.99-4.61c-1.36-1.88-2.04-4.12-2.04-6.71,0-.88.2-1.54.6-1.98s.89-.77,1.47-1c.58-.23,1.23-.43,1.95-.6.71-.17,1.36-.41,1.95-.72.58-.31,1.08-.77,1.47-1.38.4-.61.6-1.47.6-2.6,0-.96-.15-2.05-.44-3.26l-1-4.33h-25.47l-1.51,4.33c-.54,1.59-.82,2.89-.82,3.89s.2,1.7.6,2.23c.4.52.89.92,1.47,1.19.58.27,1.23.49,1.95.66.71.17,1.36.37,1.95.6.58.23,1.08.58,1.47,1.04.4.46.6,1.11.6,1.95,0,2.01-.4,3.9-1.19,5.68-.8,1.78-1.98,3.35-3.54,4.71-1.57,1.36-3.51,2.44-5.84,3.23-2.32.79-5.01,1.19-8.06,1.19ZM45.02,423.13h19.64l-9.66-36.52-9.98,36.52Z" fill="#f59835"/>
  <path d="M70.4,586.11c-5.48,0-10.52-.62-15.12-1.85-4.6-1.23-8.77-2.96-12.52-5.18-3.74-2.22-7.04-4.85-9.88-7.91-2.84-3.05-5.23-6.4-7.15-10.04-1.92-3.64-3.38-7.5-4.36-11.58-.98-4.08-1.47-8.27-1.47-12.58,0-4.94.42-9.69,1.25-14.28.84-4.58,2.17-8.88,4.02-12.89,1.84-4.02,4.22-7.68,7.15-10.98,2.93-3.3,6.48-6.14,10.67-8.5,4.18-2.36,9.02-4.19,14.53-5.49,5.5-1.3,11.76-1.95,18.79-1.95,4.64,0,9.06.63,13.24,1.88,4.18,1.25,7.85,3.04,11.01,5.36,3.16,2.32,5.67,5.15,7.53,8.47,1.86,3.33,2.79,7.04,2.79,11.14,0,1.67-.26,3.18-.78,4.52-.52,1.34-1.25,2.47-2.2,3.39-.94.92-2.05,1.63-3.32,2.13-1.28.5-2.65.75-4.11.75-1.3,0-2.59-.21-3.89-.63-1.3-.42-2.53-1.12-3.7-2.1-1.17-.98-2.23-2.26-3.17-3.83-.94-1.57-1.68-3.5-2.23-5.8-.75-3.26-2.03-5.74-3.83-7.44-1.8-1.69-3.72-2.54-5.77-2.54-1.55,0-3.09.48-4.61,1.44-1.53.96-2.89,2.44-4.08,4.42-1.19,1.99-2.17,4.51-2.92,7.56-.75,3.05-1.13,6.67-1.13,10.85,0,5.52.31,10.32.94,14.4s1.5,7.56,2.6,10.45c1.11,2.89,2.4,5.25,3.89,7.09,1.48,1.84,3.08,3.28,4.8,4.33,1.71,1.05,3.49,1.77,5.33,2.16,1.84.4,3.68.6,5.52.6s3.72-.22,5.52-.66c1.8-.44,3.44-.98,4.93-1.63,1.48-.65,2.76-1.34,3.83-2.07,1.07-.73,1.85-1.41,2.35-2.04.63-.84,1.31-1.45,2.04-1.85.73-.4,1.41-.6,2.04-.6,1.17,0,2.17.61,3.01,1.82.84,1.21,1.25,2.89,1.25,5.02,0,3.35-1.04,6.61-3.11,9.79-2.07,3.18-4.99,6.01-8.75,8.5-3.76,2.49-8.27,4.5-13.52,6.02-5.25,1.53-11.05,2.29-17.41,2.29Z" fill="#f59835"/>
  <path d="M80.44,659.87h-28.3v19.14c0,1.88.26,3.35.78,4.39s1.16,1.84,1.91,2.38,1.57.92,2.45,1.13,1.68.44,2.42.69,1.35.6,1.85,1.03.75,1.16.75,2.17c0,5.23-2.7,9-8.09,11.33-5.4,2.32-13.2,3.48-23.4,3.48-4.94,0-9.32-.28-13.15-.85-3.83-.56-7.05-1.44-9.66-2.64s-4.6-2.73-5.96-4.61c-1.36-1.88-2.04-4.12-2.04-6.71,0-1,.25-1.73.75-2.17s1.12-.77,1.85-1c.73-.23,1.53-.45,2.38-.66s1.65-.57,2.38-1.1c.73-.52,1.35-1.29,1.85-2.29s.75-2.45.75-4.33v-47.31c0-1.84-.25-3.27-.75-4.3-.5-1.02-1.12-1.8-1.85-2.32-.73-.52-1.53-.89-2.38-1.1s-1.65-.43-2.38-.66c-.73-.23-1.35-.56-1.85-1s-.75-1.16-.75-2.16c0-2.59.68-4.82,2.04-6.68,1.36-1.86,3.35-3.39,5.96-4.58,2.61-1.19,5.84-2.07,9.66-2.64,3.83-.56,8.21-.85,13.15-.85s9.62.28,13.55.85c3.93.56,7.23,1.44,9.88,2.64,2.66,1.19,4.66,2.72,6.02,4.58,1.36,1.86,2.04,4.09,2.04,6.68,0,1-.25,1.73-.75,2.16s-1.12.78-1.85,1c-.73.23-1.54.45-2.42.66s-1.68.58-2.42,1.1c-.73.52-1.35,1.3-1.85,2.32-.5,1.03-.75,2.46-.75,4.3v15.81h28.17v-15.81c0-1.84-.25-3.27-.75-4.3-.5-1.02-1.12-1.8-1.85-2.32-.73-.52-1.54-.89-2.42-1.1s-1.68-.43-2.42-.66c-.73-.23-1.35-.56-1.85-1s-.75-1.16-.75-2.16c0-5.19,2.69-8.94,8.06-11.26,5.37-2.32,13.19-3.48,23.43-3.48s17.8,1.16,23.15,3.48c5.35,2.32,8.03,6.08,8.03,11.26,0,1-.26,1.73-.78,2.16-.52.44-1.17.78-1.95,1-.77.23-1.62.45-2.54.66-.92.21-1.77.58-2.54,1.1-.78.52-1.42,1.3-1.95,2.32-.52,1.03-.78,2.46-.78,4.3v47.06c0,1.88.26,3.35.78,4.39s1.17,1.84,1.95,2.38c.77.54,1.62.92,2.54,1.13.92.21,1.77.44,2.54.69s1.42.6,1.95,1.03c.52.44.78,1.16.78,2.17,0,2.59-.68,4.83-2.04,6.71-1.36,1.88-3.36,3.42-5.99,4.61s-5.9,2.07-9.79,2.64-8.35.85-13.36.85-9.62-.28-13.55-.85c-3.93-.56-7.23-1.44-9.88-2.64-2.66-1.19-4.67-2.73-6.02-4.61-1.36-1.88-2.04-4.12-2.04-6.71,0-1,.25-1.73.75-2.17s1.12-.78,1.85-1.03,1.54-.48,2.42-.69,1.68-.59,2.42-1.13c.73-.54,1.35-1.33,1.85-2.35.5-1.02.75-2.5.75-4.42v-19.14Z" fill="#f59835"/>
  <path d="M28.83,826.75c-3.1,0-5.82-.4-8.16-1.19-2.34-.79-4.3-1.87-5.87-3.23-1.57-1.36-2.75-2.93-3.54-4.71-.79-1.78-1.19-3.67-1.19-5.68,0-1,.23-1.73.69-2.17s1.07-.78,1.82-1.03,1.6-.48,2.54-.69c.94-.21,1.89-.59,2.85-1.13.96-.54,1.88-1.33,2.76-2.35.88-1.02,1.63-2.5,2.26-4.42l15.44-47.06c.29-.88.51-1.65.66-2.32.15-.67.22-1.25.22-1.76,0-1.3-.36-2.17-1.07-2.64-.71-.46-1.5-.82-2.35-1.07s-1.64-.55-2.35-.91c-.71-.35-1.07-1.08-1.07-2.16,0-.29.02-.52.06-.69.42-2.89,1.57-5.28,3.45-7.18,1.88-1.9,4.38-3.41,7.5-4.52,3.12-1.11,6.79-1.89,11.01-2.35,4.22-.46,8.89-.69,13.99-.69,4.31,0,8.44.16,12.39.47,3.95.31,7.52.99,10.7,2.04,3.18,1.05,5.84,2.53,7.97,4.45,2.13,1.92,3.53,4.52,4.2,7.78.08.42.13.71.13.88,0,.71-.2,1.25-.6,1.6-.4.36-.89.64-1.47.85-.59.21-1.21.39-1.88.53-.67.15-1.3.37-1.88.66-.59.29-1.08.72-1.47,1.29-.4.56-.6,1.35-.6,2.35,0,.88.19,2.01.56,3.39l13.87,47.06c.54,1.88,1.23,3.35,2.07,4.39.84,1.05,1.73,1.84,2.67,2.38.94.54,1.88.92,2.82,1.13.94.21,1.79.44,2.54.69s1.36.6,1.82,1.03c.46.44.69,1.16.69,2.17,0,5.23-2.7,9-8.09,11.33s-13.2,3.48-23.4,3.48c-4.94,0-9.32-.28-13.14-.85-3.83-.56-7.06-1.44-9.69-2.64s-4.63-2.73-5.99-4.61c-1.36-1.88-2.04-4.12-2.04-6.71,0-.88.2-1.54.6-1.98s.89-.77,1.47-1c.58-.23,1.23-.43,1.95-.6.71-.17,1.36-.41,1.95-.72.58-.31,1.08-.77,1.47-1.38.4-.61.6-1.47.6-2.6,0-.96-.15-2.05-.44-3.26l-1-4.33h-25.47l-1.51,4.33c-.54,1.59-.82,2.89-.82,3.89s.2,1.7.6,2.23c.4.52.89.92,1.47,1.19.58.27,1.23.49,1.95.66.71.17,1.36.37,1.95.6.58.23,1.08.58,1.47,1.04.4.46.6,1.11.6,1.95,0,2.01-.4,3.9-1.19,5.68-.8,1.78-1.98,3.35-3.54,4.71-1.57,1.36-3.51,2.44-5.84,3.23-2.32.79-5.01,1.19-8.06,1.19ZM45.02,786.53h19.64l-9.66-36.52-9.98,36.52Z" fill="#f59835"/>
  <path d="M79.22,866.5c0-1.17-1.06-2.24-3.17-3.2s-5.34-1.44-9.69-1.44c-3.01,0-5.4.21-7.15.63s-3.09.97-3.98,1.66-1.47,1.47-1.73,2.32c-.25.86-.38,1.73-.38,2.6,0,1.8.85,3.38,2.54,4.74,1.69,1.36,3.93,2.65,6.71,3.86s5.95,2.43,9.51,3.64c3.56,1.21,7.19,2.56,10.92,4.05,3.72,1.49,7.36,3.19,10.92,5.11,3.56,1.92,6.72,4.18,9.51,6.78,2.78,2.59,5.02,5.63,6.71,9.1,1.7,3.47,2.54,7.49,2.54,12.05,0,5.86-1.13,10.77-3.39,14.75-2.26,3.97-5.41,7.17-9.44,9.6-4.04,2.43-8.83,4.16-14.37,5.21-5.54,1.04-11.6,1.57-18.17,1.57-3.85,0-7.68-.29-11.48-.88-3.81-.59-7.43-1.43-10.85-2.54-3.43-1.11-6.62-2.47-9.57-4.08-2.95-1.61-5.5-3.43-7.65-5.46-2.16-2.03-3.85-4.27-5.08-6.71s-1.85-5.07-1.85-7.87c0-2.13.33-3.99,1-5.58.67-1.59,1.56-2.9,2.67-3.92,1.11-1.02,2.37-1.79,3.8-2.29,1.42-.5,2.91-.75,4.45-.75,1.88,0,3.76.36,5.65,1.07,1.88.71,3.58,1.76,5.08,3.14s2.73,3.07,3.67,5.08c.94,2.01,1.41,4.31,1.41,6.9,0,.63.3,1.3.91,2.01.61.71,1.48,1.37,2.64,1.98,1.15.61,2.58,1.12,4.3,1.54,1.71.42,3.68.63,5.9.63,3.09,0,5.56-.2,7.4-.6,1.84-.4,3.25-.93,4.24-1.6.98-.67,1.62-1.42,1.91-2.26.29-.84.44-1.67.44-2.51,0-1.05-.77-1.97-2.32-2.76-1.55-.79-3.58-1.6-6.09-2.42-2.51-.82-5.39-1.68-8.63-2.6-3.24-.92-6.54-2.02-9.88-3.29-3.35-1.28-6.64-2.79-9.88-4.55-3.24-1.76-6.12-3.88-8.63-6.37-2.51-2.49-4.54-5.4-6.09-8.72-1.55-3.33-2.32-7.21-2.32-11.64s.53-8.32,1.6-11.8c1.07-3.47,2.57-6.55,4.52-9.22,1.95-2.68,4.28-4.97,7-6.87,2.72-1.9,5.74-3.47,9.07-4.71,3.33-1.23,6.9-2.13,10.73-2.7,3.83-.56,7.81-.85,11.95-.85,7.4,0,13.71.74,18.92,2.23,5.21,1.49,9.44,3.4,12.71,5.74,3.26,2.34,5.64,4.95,7.12,7.81,1.48,2.87,2.23,5.66,2.23,8.38,0,2.47-.52,4.6-1.57,6.4-1.05,1.8-2.41,3.28-4.08,4.45-1.67,1.17-3.58,2.03-5.71,2.57s-4.29.82-6.46.82-4.13-.23-6.12-.69c-1.99-.46-3.74-1.15-5.27-2.07-1.53-.92-2.76-2.04-3.7-3.36-.94-1.32-1.41-2.83-1.41-4.55,0-1.25.28-2.2.85-2.82.56-.63,1.19-1.15,1.88-1.57.69-.42,1.32-.84,1.88-1.25.56-.42.85-1.05.85-1.88Z" fill="#f59835"/>
  <g>
    <path d="M125.94,189.84c-2.03,5.37-5.33,10.51-9.79,15.28-3.85,4.11-8.21,7.63-12.97,10.45-4.99,2.95-10.23,5.03-15.59,6.19-3.3.71-6.92,1.06-11.04,1.06-1.85,0-3.84-.07-6.09-.22-.48-.03-.95-.06-1.41-.1-1.33.16-2.72.27-4.25.35-1.36.08-2.74.11-4.08.11-5.63,0-11.09-.64-16.22-1.89-5.81-1.42-11.14-3.62-15.83-6.54-4.29-2.65-8.13-5.94-11.4-9.76-2.91-3.4-5.41-7.23-7.4-11.39-1.74-3.64-3.08-7.49-3.97-11.42-.82-3.63-1.26-7.15-1.29-10.45,0-1.91.15-3.89.46-6.02.28-1.87.69-3.78,1.21-5.65.21-.78.46-1.47.69-2.1.1-.27.19-.52.27-.75.29-.88.63-1.8.99-2.7,2.87-7.12,7.35-13.72,12.97-19.1,5.94-5.7,13.21-10.09,21.02-12.68,6.29-2.09,13.06-3.15,20.13-3.15,2.1,0,4.23.1,6.36.28,1.37-.14,2.79-.24,4.19-.29.85-.03,1.72-.05,2.57-.05,4.89,0,9.84.52,14.76,1.54,3.32.69,6.03,1.42,8.52,2.3,2.77.97,5.58,2.38,8.37,4.21,2.38,1.55,4.72,3.4,6.98,5.48,1.73,1.59,3.94,3.78,5.67,6.54,3.07,4.89,4.29,10.43,5.37,15.32l.05.19c.22,1.01.45,2.04.69,3.04,1,4.38,2.03,8.9,2.46,13.6.57,6.33-.26,12.66-2.38,18.3Z" fill="#e5e1c3"/>
    <g>
      <path d="M47.98,160.46c1.11-.37,2.34-.53,3.48-.63,2.35-.21,4.74.08,6.96.92,1.19.45,2.41,1.04,3.4,1.85.45.37.86.81,1.21,1.28.17.23.32.49.44.75.06.13.1.27.16.4.1.22.27.37.43.53.26.26.66.34,1.01.3.26-.03.76-.14.84-.46.04-.15.11-.33.11-.48,0-.18-.09-.35-.17-.51-.16-.31-.34-.6-.54-.89-.16-.23-.35-.44-.54-.65,1.06-1.26,1.88-2.69,2.41-4.25.65-1.95,1.04-4.1.91-6.16-.12-2.05-.7-4.01-1.75-5.72-1.12-1.82-2.75-3.25-4.66-4.2-3.78-1.88-8.26-1.96-12.17-.43-3.68,1.43-6.95,4.27-8.41,8-.76,1.94-1.02,4.07-.83,6.14.17,1.81.68,3.75,1.67,5.3.18.28.37.55.56.82-1.08.84-2.06,1.8-2.91,2.86-.81,1.03-1.54,2.14-2.09,3.33-.56,1.19-1.1,2.51-1.15,3.82-.01.39.85.38.97.08h0c.41-1.04.68-2.13,1.14-3.16s1-2,1.64-2.91c1.27-1.81,2.9-3.36,4.77-4.53.47-.3.96-.57,1.46-.81.53-.26,1.1-.42,1.66-.6ZM55.28,142.19c.43,0,.83.03,1.18.06.94.11,1.87.32,2.77.65.9.32,1.8.79,2.6,1.36.76.54,1.4,1.25,1.97,1.98,1.11,1.44,1.83,3.22,2.12,5.01.31,1.92.12,3.89-.34,5.77-.4,1.62-1.03,3.2-2.03,4.55-.04.05-.08.1-.12.15-.87-.64-1.82-1.17-2.81-1.62-1.75-.78-3.64-1.28-5.56-1.47.07-.11.15-.22.22-.33.27-.42.51-.85.72-1.3.4-.87.67-1.8.82-2.74,0-.01,0-.02,0-.04,0-.01,0-.03,0-.04.01-.07-.01-.13-.06-.18-.16-.31-.56-.49-.86-.65-.4-.23-.84-.4-1.27-.58-.75-.31-1.49-.63-2.21-.99,1.2-.97,2.39-1.94,3.61-2.88.08-.06.22-.17.2-.3-.1-.54-.36-1.07-.54-1.59-.21-.56-.41-1.12-.62-1.67-.39-1.03-.77-2.07-1.14-3.11.04,0,.08-.01.12-.02.28-.03.83-.05,1.23-.05ZM43.41,161.7c-.17-.5-.33-1.01-.49-1.51-.27-.81-.49-1.63-.61-2.48-.27-1.88-.39-3.76.06-5.64.86-3.67,3.46-6.65,6.77-8.37,1.04-.54,2.11-.92,3.22-1.17-.08.12-.16.24-.23.36-.33.54-.64,1.1-.92,1.68-.55,1.13-.99,2.31-1.32,3.52-.67,2.43-.91,4.97-.68,7.49.06.69.16,1.38.3,2.06.09.41.18.86.32,1.28-.42.09-.83.2-1.23.34-.62.21-1.25.37-1.85.63s-1.14.55-1.7.84c-.56.29-1.11.63-1.64.98Z" fill="#f59835"/>
      <path d="M114.37,162.71h0c-.46-1.01-1.34-1.88-2.15-2.62-.85-.78-1.81-1.5-2.81-2.07-.35-.2-.71-.37-1.07-.55.02-.02.05-.04.06-.07,1.1-1.8,1.58-4.06,1.79-6.14.21-2.15-.07-4.36-.86-6.38-.67-1.71-1.64-3.26-3.03-4.47-1.49-1.3-3.22-2.36-5.11-2.96-3.67-1.17-8.08-.55-11.22,1.73-3.01,2.2-5,5.81-5.59,9.46-.65,3.99.37,8.27,2.81,11.5.15.2.31.41.48.6.15.16.35.26.55.36-1.43,1.5-2.61,3.26-3.39,5.18-.36.87,1.65,1.1,1.96.34,1.58-3.88,4.8-7.07,8.63-8.63,1.99-.81,3.92-1.18,6.04-1.1.54.02.91.06,1.49.14.54.08,1.08.19,1.61.32,1.02.24,2.09.61,3.06,1.07,1.1.52,2.12,1.15,3.1,1.88,1.03.78,1.86,1.75,2.81,2.61.18.16,1.02.19.84-.21h0ZM95.35,156.54c-2.22.72-4.27,1.96-6.03,3.49-.15.13-.28.28-.42.41-.01-.02-.01-.05-.03-.07-.14-.18-.29-.37-.43-.56-.28-.39-.54-.8-.78-1.22-.47-.82-.87-1.68-1.18-2.58-.63-1.82-.9-3.76-.8-5.69.19-3.54,1.76-7.15,4.34-9.6,1.03-.98,2.25-1.7,3.56-2.17-.53,2.27-.71,4.6-.49,6.92.24,2.49.9,4.92,1.76,7.26.25.68.49,1.36.76,2.03.13.32.27.63.42.95.09.19.17.38.27.56-.32.08-.64.15-.96.26ZM102.6,155.77c-.46-.05-.93-.06-1.4-.07.09-.31.16-.63.22-.93.12-.63.2-1.27.27-1.9.13-1.32.1-2.65-.03-3.97,0-.04-.02-.08-.04-.11,0,0,0,0,0,0,.01-.1-.1-.2-.17-.25-.35-.22-.85-.23-1.25-.3-.4-.07-.83-.14-1.24-.22-.41-.07-.79-.15-1.2-.2-.22-.03-.45-.07-.68-.09.05-.11.09-.21.13-.32.11-.26.21-.49.31-.74.21-.55.44-1.09.69-1.62.24-.53.52-1.07.81-1.59.14-.26.3-.51.46-.76.11-.17.25-.33.3-.52.13-.11.19-.27.04-.42-.79-.79-1.63-1.5-2.48-2.21-.58-.48-1.18-1.02-1.81-1.49,1.18-.18,2.38-.15,3.56.12,1.73.39,3.41,1.31,4.84,2.39.53.39,1.05.85,1.53,1.38.54.59.96,1.28,1.33,2,.95,1.83,1.43,3.84,1.44,5.9,0,2.06-.48,3.99-1.23,5.85-.14.35-.28.69-.41,1.03-1.28-.47-2.62-.81-3.98-.95Z" fill="#f59835"/>
      <path d="M104.87,169.33c-.98-.83-2.17-1.3-3.43-1.48-2.1-.32-4.39.1-6.22,1.19-.48.28-.93.64-1.33,1.02-.31.3-.94.88-.84,1.37.05.24.41.28.6.2h0s0,0,0,0c.53-.22.93-.7,1.36-1.08.47-.41,1-.74,1.54-1.02.89-.47,1.94-.79,2.96-.79.07,0,.14.01.2.01-.67,3.89-2.08,7.57-4.49,10.72-1.22,1.6-2.59,3.06-4.16,4.32-1.57,1.26-3.46,2.36-5.39,3.19-3.84,1.65-8.11,2.36-12.28,1.96-4.36-.42-8.67-1.96-12.07-4.78-1.57-1.3-2.97-2.85-4.05-4.59-.54-.87-1.04-1.78-1.34-2.76-.27-.9-.39-1.84-.44-2.78-.02-.27-.02-.55-.02-.82.14.01.28.01.41.03.57.08.99.21,1.57.43.57.22,1.12.53,1.64.93.23.19.46.39.66.61.11.12.21.26.33.38.22.24.5.31.81.38.32.07.88-.02,1.03-.36.19-.43-.11-.7-.4-1-.26-.27-.54-.51-.83-.74-.56-.44-1.19-.79-1.85-1.07-1.37-.58-2.87-.74-4.34-.57-1.47.17-2.74.61-3.87,1.48-1.07.82-1.92,1.9-2.45,3.14-.29.68-.5,1.42-.56,2.16-.03.38-.01.77.02,1.16.04.41.16.75.29,1.13.1.31.99.3.97-.08-.02-.3.02-.6.02-.9,0-.3.01-.61.06-.91.09-.59.22-1.19.42-1.75.4-1.12,1.06-2.14,1.93-2.95.73-.68,1.62-1.15,2.58-1.38.02,1.8.3,3.61,1.13,5.23.1.19.21.36.31.55-.08.05-.16.11-.21.19-.8,1.19-1.4,2.48-1.8,3.86s-.49,2.83-.54,4.23c-.1,2.86.47,5.78,1.39,8.48.5,1.44,1.15,2.81,2.04,4.06.89,1.24,2.03,2.22,3.27,3.12,2.37,1.71,5.04,3.03,7.85,3.85,5.49,1.6,11.47,1.37,16.76-.84,5.01-2.09,9.33-5.77,12.07-10.46,2.92-5,4.06-11.21,2.94-16.91-.14-.7-.31-1.4-.5-2.09-.01-.05-.05-.09-.09-.13,1.02-2.04,1.76-4.22,2.11-6.44.06-.38.09-.76.11-1.14.59.13,1.18.33,1.73.65.53.3,1.01.7,1.35,1.21.16.24.28.51.37.78.09.27.08.65.24.9.35.54,1.52.65,1.84,0,.24-.49-.1-1.27-.34-1.71-.28-.52-.65-.99-1.1-1.38ZM67.88,192c-.04.94-.09,1.89-.14,2.84-2.03-.57-4.06-1.16-6.08-1.74-.21-2.4-.16-4.83-.1-7.24,1.98,1.35,4.18,2.36,6.48,3.05-.11,1.03-.11,2.07-.16,3.1ZM86.81,187.64c.04,1.9-.1,3.81-.47,5.68-2.14.59-4.27,1.19-6.42,1.74-.12.03-.23.06-.35.09-.04,0-.07.02-.11.03-.01-.07-.05-.28-.05-.32-.02-.14-.03-.28-.05-.42-.06-.56-.12-1.13-.19-1.69s-.12-1.13-.19-1.69c-.05-.42-.08-.83-.15-1.23,2.02-.23,4-.68,5.93-1.35.71-.25,1.38-.53,2.05-.83Z" fill="#f59835"/>
      <path d="M123.45,171.98c-.49-5.42-1.89-10.73-3.06-16.03-1.06-4.82-2.13-9.74-4.79-13.97-1.32-2.1-3.03-3.87-4.84-5.54-1.97-1.82-4.08-3.5-6.33-4.97-2.25-1.47-4.74-2.78-7.32-3.69-2.57-.9-5.23-1.57-7.89-2.12-5.3-1.1-10.74-1.59-16.15-1.39-1.45.06-2.9.16-4.35.32-8.39-.8-16.95-.07-24.97,2.59-7.17,2.38-13.74,6.35-19.19,11.57-5.08,4.86-9.19,10.87-11.81,17.39-.32.8-.62,1.61-.9,2.43-.28.82-.63,1.69-.87,2.57-.46,1.67-.82,3.38-1.08,5.1-.26,1.74-.42,3.49-.41,5.26.02,3.16.46,6.31,1.16,9.39.82,3.58,2.03,7.08,3.62,10.4,1.78,3.71,4.02,7.2,6.7,10.32,2.94,3.43,6.42,6.4,10.26,8.78,4.45,2.76,9.35,4.7,14.42,5.94,6.15,1.51,12.56,1.99,18.88,1.65,1.48-.08,2.95-.2,4.42-.38.6.05,1.21.1,1.81.13,5.19.33,10.62.37,15.8-.75,4.98-1.07,9.74-3.02,14.11-5.62,4.39-2.6,8.41-5.86,11.9-9.58,3.72-3.97,6.85-8.56,8.78-13.67,1.93-5.11,2.58-10.67,2.09-16.13ZM17.11,193.56c-1.81-3.28-3.25-6.76-4.27-10.36-.89-3.11-1.47-6.27-1.68-9.54-.27-4.11.24-8.19,1.3-12.16.22-.83.4-1.68.66-2.5s.57-1.63.89-2.44c.64-1.61,1.37-3.18,2.18-4.71,1.62-3.07,3.58-5.96,5.81-8.61,3.22-3.83,7.02-7.18,11.22-9.9.02-.01.04-.02.06-.03-.79.67-1.57,1.35-2.33,2.05-2.24,2.07-4.45,4.43-6.39,6.89-3.84,4.86-6.97,10.33-8.92,16.22-1.84,5.57-2.43,11.45-1.98,17.29.46,5.85,1.92,11.65,4.26,17.03,1.41,3.26,3.17,6.39,5.26,9.28,0-.01-.02-.02-.03-.03-2.34-2.58-4.35-5.41-6.04-8.46ZM50.08,216.21c-5.13-.87-10.21-2.46-14.81-4.86-2.58-1.35-4.99-2.92-7.22-4.72-1.36-1.43-2.65-2.93-3.83-4.54-1.73-2.36-3.22-4.89-4.49-7.52-2.54-5.25-4.21-10.95-4.89-16.74-.69-5.8-.36-11.52,1.19-17.1,1.65-5.92,4.52-11.47,8.14-16.41,3.62-4.93,7.99-9.33,12.94-12.93.51-.37,1.03-.74,1.54-1.11,0,0,0,0,0,0,7.36-3.53,15.56-5.13,23.69-5.13.7,0,1.41.01,2.11.04-2.49.45-4.95,1.06-7.36,1.85-4.85,1.58-9.47,3.88-13.63,6.83-.39.28-.78.56-1.17.86,0,0,0,0,0,0-2.88.14-5.88.76-8.36,2.25-1.27.76-2.34,1.76-3.36,2.83-1.01,1.07-2.04,2.26-2.97,3.46-1.01,1.32-1.88,2.74-2.73,4.16-.89,1.5-1.73,3.04-2.47,4.62-1.37,2.91-2.39,5.96-2.94,9.13-.63,3.61-.65,7.29-.36,10.94.15,1.93.43,3.84.62,5.77.17,1.74.22,3.49.33,5.23.11,1.74.25,3.42.62,5.1.37,1.68.98,3.23,1.78,4.73.8,1.5,1.73,2.98,2.8,4.31.56.7,1.02,1.49,1.51,2.24s.99,1.46,1.52,2.17c2.14,2.84,4.83,5.22,7.81,7.16,1.49.97,3.01,1.95,4.59,2.75,1.45.74,3.08,1.37,4.74,1.24.78-.06,1.52-.29,2.19-.69.04-.02.07-.05.09-.08,0,0,0,0,0,0,2.47,1.23,5.05,2.25,7.7,3.06,2.94.89,5.95,1.53,8.99,1.97-4.8.1-9.57-.06-14.31-.87ZM27.81,175.74c.39,5.81,1.73,11.63,3.98,17.03,2.22,5.34,5.36,10.39,9.48,14.47,0,0,0,0,0,0-2.56-1.88-4.88-4.09-6.91-6.55-2.78-3.38-5.15-7.33-6.85-11.47-1.7-4.14-2.81-8.59-3.22-13.09-.41-4.49-.09-9.02.96-13.4,1.08-4.53,2.87-8.87,5.24-12.88,2.37-4.01,5.31-7.65,8.68-10.85,1.78-1.69,3.68-3.24,5.68-4.64.01,0,.03-.02.04-.02-.45.41-.9.82-1.33,1.24-2.16,2.08-4.16,4.37-5.93,6.81-3.53,4.86-6.25,10.31-7.95,16.07-1.65,5.59-2.26,11.45-1.87,17.27ZM121.99,179.81c-.63,5.32-2.74,10.69-5.73,15.27-2.81,4.3-6.42,8.09-10.4,11.32-3.86,3.13-8.18,5.73-12.79,7.58-4.61,1.85-9.44,2.92-14.38,3.01-5.22.1-10.47-.16-15.62-1.04-4.81-.82-9.55-2.21-13.95-4.34-2.06-1-4.04-2.16-5.92-3.46-1.92-1.87-3.71-3.87-5.28-6.05-1.66-2.32-3.14-4.89-4.36-7.52-2.45-5.27-3.99-10.96-4.6-16.74-.61-5.78-.21-11.49,1.19-17.09,1.45-5.78,3.92-11.3,7.22-16.25,3.3-4.96,7.41-9.31,12.18-12.82.35-.26.71-.52,1.06-.77,0,0,0,0,0,0,4.61-2.37,9.61-3.97,14.71-4.85,5.14-.89,10.42-1.08,15.62-.62,2.64.23,5.25.62,7.85,1.16,2.57.53,5.15,1.18,7.63,2.06,4.95,1.76,9.38,4.9,13.2,8.47,1.75,1.63,3.4,3.34,4.65,5.39,1.25,2.05,2.1,4.32,2.9,6.6.81,2.34,1.38,4.74,1.91,7.16.56,2.56,1.16,5.11,1.7,7.68,1.1,5.21,1.85,10.53,1.21,15.85Z" fill="#f59835"/>
      <path d="M47.35,203.41c0-.07-.03-.12-.09-.17-.02-.03-.04-.06-.06-.08-.01-.01-.02-.03-.03-.04-.05-.07-.12-.1-.19-.13-.03-.02-.06-.02-.09-.03-.07-.03-.15-.05-.23-.07h-.17c-.08-.01-.17,0-.24.02-.05,0-.1.02-.14.05-.06.02-.12.06-.16.11-.04.05-.07.1-.08.16,0,.02-.03.03-.03.05-.02.06-.02.12.01.18.03.05.05.09.08.14l.08.11s.08.06.13.08c.02.03.05.05.07.08.05.05.1.09.17.11.07.04.14.06.22.07h.17c.09.01.17,0,.25-.02.05,0,.1-.03.14-.05.06-.02.12-.06.17-.11l.07-.1c.03-.07.03-.14,0-.21h0s0,0,0,0c-.01-.03-.03-.05-.04-.08,0-.02,0-.05,0-.07Z" fill="#f59835"/>
      <path d="M41.07,178s-.01-.02-.02-.03c-.01-.02-.02-.03-.03-.05,0,0,0,0,0-.01,0-.01-.02-.03-.03-.04-.03-.05-.07-.09-.12-.11h0s-.08-.04-.12-.06c0,0-.01,0-.02,0-.01,0-.03-.01-.04-.02,0,0-.01,0-.01,0-.04-.01-.08-.02-.12-.03h-.13c-.06-.01-.12,0-.19.01-.04,0-.07.02-.11.04-.05.02-.09.04-.12.08h0s0,0,0,0c0,0-.01,0-.01,0-.02.01-.02.02-.03.04-.01.02-.02.02-.02.03,0,0,0,0,0,0-.04.05-.03.03-.04.09,0,.04,0,.03,0,.06h0s.01.05.01.06c0,.04.01.09.03.12h0s.04.06.06.09c0,0,.01,0,.01.01l.02.02.09.07.12.06c.07.03.14.04.22.04.03,0,.05,0,.08,0,0,0,.01,0,.02,0h.13c.06-.02.11-.04.16-.07l-.04.03h.02s.03-.03.04-.03c.01,0,.02,0,.03-.01.01,0,.02-.02.03-.02.02-.01.04-.02.06-.03.03-.02.06-.04.08-.08.03-.04.05-.08.05-.14v-.04l-.02-.1h0Z" fill="#f59835"/>
      <path d="M43.98,170.6s-.04-.07-.06-.1c-.02-.03-.04-.06-.06-.1,0,0,0-.01-.01-.02-.05-.08-.09-.14-.18-.19-.02-.01-.04-.02-.06-.03v.03s-.08-.06-.13-.08c-.1-.03-.2-.05-.3-.05s-.21.02-.3.05c-.08.03-.15.07-.22.13-.05.05-.08.11-.08.18,0,.02,0,.03,0,.05,0,.06.02.1.05.14.02.03.04.07.06.1.02.03.04.06.06.1.01.02.02.03.03.05.03.05.06.1.1.14.05.05.1.08.17.11.07.04.14.06.22.07h.17c.08.01.17,0,.25-.02.05,0,.1-.02.14-.05.06-.02.12-.06.17-.11l.06-.09c.03-.07.03-.14,0-.21,0-.02-.02-.03-.03-.05,0-.01-.02-.03-.03-.05ZM42.86,170.65h0s0-.01,0-.01c0,0,0,0,0,.01h0ZM42.9,170.63v-.02s.03-.03.03-.03c-.01.01-.02.03-.03.05Z" fill="#f59835"/>
      <path d="M81.4,172.64s.02.04.03.06c.02.04.04.07.07.1l.03.03s.08.07.13.08c.05.03.11.05.17.06.07.01.13.01.2,0,.06,0,.13-.01.19-.03l.1-.05c.06-.03.1-.08.13-.13l.02-.08c0-.06-.03-.11-.07-.15l-.03-.03s-.06-.06-.1-.07c0,0-.01,0-.02,0-.03-.01-.06-.03-.09-.04l-.09-.04c-.06-.02-.11-.03-.17-.03-.04,0-.08,0-.12,0-.06,0-.12.01-.17.03l-.09.04-.07.06s-.05.06-.06.1c-.01.03-.01.07,0,.11h0Z" fill="#f59835"/>
      <path d="M112.88,167.69s-.04-.06-.06-.09c-.04-.06-.07-.12-.11-.18-.04-.08-.1-.14-.17-.18l-.13-.06c-.11-.04-.22-.06-.34-.06-.09,0-.17,0-.26.03-.08.01-.15.04-.21.08-.06.03-.1.07-.14.13-.04.04-.06.1-.06.15,0,.08.03.15.09.2h0s0,0,0,0c.05.07.1.14.14.21.02.03.04.07.08.1.05.04.09.08.14.12.09.05.18.08.28.1.06,0,.12.01.17.01.11,0,.21-.02.31-.05.05-.01.09-.03.13-.06.07-.04.12-.1.16-.17.03-.07.03-.14,0-.2,0-.01,0-.03-.01-.05,0-.02-.01-.03-.02-.04Z" fill="#f59835"/>
      <path d="M42.35,130.2h0c.05.07.1.14.14.21.02.03.04.07.08.1.05.04.09.08.14.12.09.05.18.08.28.1.06,0,.12.01.17.01.11,0,.21-.02.31-.05.05-.01.09-.03.13-.06.07-.04.12-.1.16-.17.03-.07.03-.14,0-.2,0-.01,0-.03-.01-.05,0-.02-.01-.03-.02-.04-.02-.03-.04-.06-.06-.09-.04-.06-.07-.12-.11-.18-.04-.08-.1-.14-.17-.18l-.13-.06c-.11-.04-.22-.06-.34-.06-.09,0-.17,0-.26.03-.08.01-.15.04-.21.08-.06.03-.1.07-.14.13-.04.04-.06.1-.06.15,0,.08.03.15.09.2h0Z" fill="#f59835"/>
      <path d="M48.86,213.86s-.04-.06-.06-.09c-.04-.06-.07-.12-.11-.18-.04-.08-.1-.14-.17-.18l-.13-.06c-.11-.04-.22-.06-.34-.06-.09,0-.17,0-.26.03-.08.01-.15.04-.21.08-.06.03-.1.07-.14.13-.04.04-.06.1-.06.15,0,.08.03.15.09.2h0s0,0,0,0c.05.07.1.14.14.21.02.03.04.07.08.1.05.04.09.08.14.12.09.05.18.08.28.1.06,0,.12.01.17.01.11,0,.21-.02.31-.05.05-.01.09-.03.13-.06.07-.04.12-.1.16-.17.03-.07.03-.14,0-.2,0-.01,0-.03-.01-.05s-.01-.03-.02-.04Z" fill="#f59835"/>
      <path d="M116.65,173.28s-.01-.07-.03-.09c-.02-.03-.05-.06-.08-.08-.07-.04-.15-.06-.23-.07-.08,0-.18,0-.26.03-.07.03-.15.07-.19.14h0s-.01.03-.02.05c-.02.02-.04.03-.05.05,0,.02-.01.03-.02.05-.01.03-.03.06-.04.09-.01.03-.03.06-.03.09s-.02.07-.03.1c-.02.04-.02.07,0,.11,0,.04.02.08.06.1.03.03.08.06.12.08.05.03.1.04.16.05.12.02.25.01.36-.03l.09-.04c.05-.03.09-.07.12-.12.01-.03.02-.06.03-.09,0-.01.01-.03.01-.04.01-.03.02-.07.03-.11l.03-.18s-.01-.03-.02-.04v-.05Z" fill="#f59835"/>
      <path d="M110.96,179.57l-.04-.06-.04-.03v-.02s.03-.08.03-.08c0-.04-.01-.08-.04-.11-.02-.04-.05-.07-.1-.09h0s0,0,0,0c0,0,0,0,0,0h0c-.1-.06-.21-.08-.33-.09-.09-.01-.18-.02-.27,0-.1.02-.15.04-.24.08,0,0-.02,0-.03.01-.04.03-.07.05-.11.08,0,0-.01.01-.02.02-.03.04-.06.08-.09.12,0,0,0,.02,0,.02,0,0,0,0,0,0-.03.04-.05.08-.05.13,0,.04.01.09.03.13,0,0,0,.01,0,.02.02.03.04.06.07.1,0,0,.01.02.03.03.04.03.08.07.12.09,0,0,0,0,0,0,.02,0,.04.02.06.03.02.01.04.02.06.03l.14.03h.02c.05,0,.13.02.19.01.11,0,.24-.01.34-.06.07-.02.14-.06.19-.12.04-.04.06-.09.06-.14,0,.01,0,.03-.01.04,0,0,0-.02.01-.03,0,0,0-.02,0-.03,0,0,0,0,0,0h0s.01-.05.01-.07v-.07ZM110.27,179.43h0s0,0-.01,0h0ZM110.29,179.65h.12s0,0,0,0h-.11ZM110.51,179.65s0,0,.01,0h0-.01Z" fill="#f59835"/>
      <path d="M96.87,200.97s-.01-.02-.01-.02l-.05-.06-.07-.06s0,0-.01,0c0,0,0,0,0,0-.03-.03-.07-.06-.12-.08-.09-.04-.18-.07-.28-.07-.08,0-.17.01-.24.05-.05.02-.12.06-.14.12v.06s0,.06.02.08c0,0,0,0,0,0h0s0,0,0,0c0,.01-.01.02-.01.03,0,.03,0,.05,0,.08,0,.01,0,.02,0,.03,0,.01-.01.02-.02.04,0,0,0,.01-.02.02h.01s0,0-.01.01c-.02.02-.05.04-.06.07l-.02.08c0,.06.03.11.07.15.04.04.08.06.13.08.05.03.11.05.17.05.07.01.13.01.2,0,.06,0,.12-.01.18-.03.07-.02.13-.06.18-.1.01,0,.03-.02.03-.03.03-.03.05-.07.08-.1.03-.05.04-.11.05-.17,0-.05,0-.09,0-.13,0-.03-.01-.06-.03-.08ZM95.97,201.14s-.02.02-.03.03h0s.03-.03.03-.03ZM95.94,201.16h0s0,0,0,0c0,0-.02.02-.02.02l.02-.03Z" fill="#f59835"/>
      <path d="M81.83,210.74s-.09-.05-.14-.06c-.06-.02-.11-.03-.17-.02h-.12c-.07.02-.14.04-.2.08l-.07.06s-.06.08-.06.13h0s0,.06,0,.06v.03s0,.07.02.1l.04.06s.07.06.11.07c.03.02.06.03.1.03.06.02.11.02.17.02h.12s.1-.03.1-.03c.05-.01.09-.03.12-.07.03-.02.06-.05.08-.09.01-.03.02-.07.02-.1v-.03s0-.04,0-.07c0-.04-.01-.08-.04-.1-.02-.04-.05-.07-.09-.08Z" fill="#f59835"/>
      <path d="M16.43,166.48s0,.07.02.1l.04.06s.07.06.11.07c.03.02.06.03.1.03.06.02.11.02.17.02h.12s.1-.03.1-.03c.05-.01.09-.03.12-.07.03-.02.06-.05.08-.09.01-.03.02-.07.02-.1v-.03s0-.04,0-.07c0-.04-.01-.08-.04-.1-.02-.04-.05-.07-.09-.08-.05-.03-.09-.05-.14-.06-.06-.02-.11-.03-.17-.02h-.12c-.07.02-.14.04-.2.08l-.07.06s-.06.08-.06.13h0s0,0,0,0v.07s0,.03,0,.03Z" fill="#f59835"/>
      <path d="M46.85,129.37s0,.07.02.1l.04.06s.07.06.11.07c.03.02.06.03.1.03.06.02.11.02.17.02h.12s.1-.03.1-.03c.05-.01.09-.03.12-.07.03-.02.06-.05.08-.09.01-.03.02-.07.02-.1v-.03s0-.04,0-.07c0-.04-.01-.08-.04-.1-.02-.04-.05-.07-.09-.08-.05-.03-.09-.05-.14-.06-.06-.02-.11-.02-.17-.02h-.12c-.07.02-.14.04-.2.08l-.07.06s-.06.08-.06.13h0s0,.06,0,.06v.03Z" fill="#f59835"/>
      <path d="M65.32,134.16s.01,0,.02.01c.02.02.04.04.06.06,0,0,0,.01.01.02.05.1.16.16.25.2.07.02.13.04.21.04.07,0,.14,0,.22,0l.13-.03c.08-.02.14-.06.2-.12l.06-.08c.03-.06.03-.12,0-.17-.03-.06-.07-.12-.11-.17-.02-.03-.05-.06-.08-.08-.12-.1-.23-.17-.38-.23-.07-.02-.13-.04-.21-.04-.07,0-.14,0-.22,0-.1.02-.19.05-.27.11-.05.02-.1.04-.14.07l-.03.05s-.02.06,0,.08c0,.03.04.05.06.07.03.1.14.17.23.2ZM65.31,134.06h.02,0s.02,0,.04,0h-.05Z" fill="#f59835"/>
      <path d="M79.93,138.48s.02.04.03.06c0,.02.01.03.02.04.12.22.53.25.72.2,0,0,0,0,0,0,.13-.03.23-.1.29-.2,0-.01.02-.03.02-.04,0-.02.03-.03.03-.06v-.08c.01-.45-1.12-.46-1.11,0h0v.08Z" fill="#f59835"/>
      <path d="M16.31,178.95h0v.08s.02.04.03.06c0,.02.01.03.02.04.12.22.52.25.72.2,0,0,0,0,0,0,.13-.03.23-.1.29-.2,0-.01.02-.03.02-.04,0-.02.03-.03.03-.06v-.08c.01-.45-1.12-.46-1.11,0Z" fill="#f59835"/>
      <path d="M68.76,140.67c.14,0,.42-.06.42-.25s-.28-.25-.42-.25-.42.06-.42.25.28.25.42.25Z" fill="#f59835"/>
      <path d="M18.08,182.24c-.14,0-.42.06-.42.25s.28.25.42.25.42-.06.42-.25-.28-.25-.42-.25Z" fill="#f59835"/>
    </g>
  </g>
</svg>