<?xml version="1.0" encoding="UTF-8"?>
<svg id="a" data-name="Camada 1" xmlns="http://www.w3.org/2000/svg" viewBox="0 0 880.36 739.29">
  <path d="M857.61,518.98c-15.91,37.51-40.78,73.1-73.89,105.64-28.49,28.13-60.46,51.72-95.13,70.4-36.23,19.54-74.03,32.82-112.32,39.5-18.4,3.2-37.8,4.76-59.25,4.76-18.61,0-38.58-1.21-62.66-3.69-3.2-.28-6.61-.71-10.02-1.14-9.45.71-19.32,1.14-30.19,1.28h-7.1c-47.81,0-93.78-6.25-136.55-18.61-40.85-11.79-78.08-28.92-110.54-50.94-29.7-20.11-55.98-44.47-78.08-72.54-19.75-24.94-36.3-52.93-49.23-82.98-11.3-26.36-19.75-54.06-24.94-82.27-4.83-26-6.82-51.08-6.04-74.53.5-13.57,2.06-27.57,5.04-42.63,2.56-13.21,5.97-26.64,10.16-39.78,1.71-5.4,3.69-10.23,5.47-14.64.78-1.92,1.56-3.62,2.06-5.26,2.34-6.18,5.04-12.57,7.89-18.9,22.38-49.66,56.12-95.27,97.61-131.86,43.83-38.72,96.69-67.71,152.89-83.9C321.94,5.68,363.5,0,406.48,0c21.38,0,43.27,1.42,65.22,4.26,9.38-.57,18.76-.85,28.2-.85h1.71c40.57.14,81.77,5.4,122.48,15.56,23.52,5.9,42.48,11.86,59.82,18.83,19.4,7.67,39.07,18.54,58.33,32.25,16.41,11.72,32.47,25.43,47.88,40.85,11.86,11.86,26.93,28.06,38.36,48.03,20.46,35.66,27.49,75.38,33.75,110.47l.21,1.28c1.35,7.25,2.63,14.64,4.05,21.74,5.75,31.4,11.86,63.8,13.5,97.33,2.2,45.04-5.47,89.73-22.24,129.23h-.14Z" fill="#e5e1c3"/>
  <g>
    <path d="M775.84,335.68h0c-2.49-7.53-8.1-14.28-13.21-20.11-5.4-6.18-11.65-11.94-18.26-16.77-2.27-1.71-4.76-3.2-7.18-4.69.14-.14.36-.28.5-.43,9.16-11.86,14.21-27.49,17.26-42.06,3.13-15.06,2.77-30.83-1.21-45.75-3.41-12.57-9.16-24.3-18.05-33.82-9.52-10.3-20.96-19.11-33.89-24.72-25.08-11.01-56.69-10.02-80.56,3.77-22.95,13.21-39.71,37.3-46.6,62.66-7.6,27.71-3.69,58.68,11.15,83.33.92,1.56,1.85,3.13,2.91,4.62.92,1.28,2.27,2.13,3.62,2.91-11.3,9.52-20.89,21.03-27.85,34.03-3.2,5.9,10.8,9.02,13.57,3.91,14.14-26.22,39.22-46.32,67.49-54.49,14.71-4.26,28.56-5.4,43.55-3.2,3.77.57,6.39,1.07,10.37,2.13,3.77.99,7.46,2.13,11.15,3.48,7.03,2.49,14.28,5.9,20.82,9.88,7.39,4.48,14.14,9.73,20.46,15.63,6.68,6.25,11.79,13.78,17.9,20.53,1.14,1.28,7.03,2.13,6.11-.85h-.07ZM601,297.89c-1.14.78-2.2,1.78-3.27,2.63-.07-.14,0-.36-.14-.5-.85-1.35-1.78-2.84-2.63-4.26-1.71-2.98-3.2-6.11-4.55-9.24-2.7-6.18-4.83-12.5-6.39-19.11-3.05-13.36-3.55-27.21-1.35-40.78,3.98-24.87,17.83-49.16,37.94-64.58,8.03-6.11,17.19-10.3,26.78-12.65-5.47,15.63-8.53,31.97-8.67,48.52-.14,17.76,2.63,35.45,6.96,52.64,1.28,4.97,2.42,10.02,3.84,14.92.71,2.34,1.42,4.69,2.2,7.03.5,1.42.92,2.84,1.49,4.19-2.34.36-4.69.57-6.96,1.07-16.2,3.41-31.61,10.59-45.18,20.11h-.07ZM697.97,277.78c-3.27-.71-6.54-1.14-9.88-1.56.92-2.13,1.63-4.33,2.2-6.39,1.28-4.33,2.42-8.81,3.34-13.29,1.92-9.24,2.7-18.68,2.84-28.06,0-.28-.07-.57-.21-.85h0c.21-.71-.57-1.49-.99-1.85-2.27-1.85-5.83-2.27-8.6-3.13-2.77-.78-5.75-1.63-8.6-2.49-2.84-.85-5.47-1.63-8.31-2.34-1.56-.36-3.13-.78-4.76-1.14.43-.71.78-1.42,1.14-2.13.92-1.71,1.85-3.27,2.77-4.97,1.92-3.69,3.98-7.39,6.11-10.94,2.13-3.55,4.48-7.18,6.89-10.59,1.21-1.71,2.49-3.41,3.77-5.04.85-1.07,1.99-2.2,2.56-3.41.99-.71,1.56-1.78.64-2.98-4.97-6.11-10.37-11.86-15.91-17.48-3.77-3.84-7.53-8.1-11.65-11.94,8.45-.36,16.98.78,25.08,3.55,11.94,4.05,23.16,11.86,32.4,20.53,3.41,3.2,6.82,6.82,9.8,10.94,3.41,4.62,5.83,9.8,7.89,15.13,5.33,13.64,7.25,28.2,5.68,42.77-1.56,14.56-6.39,27.78-13.14,40.42-1.21,2.34-2.49,4.62-3.69,6.96-8.74-4.26-17.9-7.67-27.42-9.66l.07-.07Z" fill="#f59835"/>
    <path d="M713.39,383.78c-6.68-6.18-14.99-9.8-23.94-11.51-14.85-2.84-31.19-.57-44.54,6.61-3.48,1.85-6.75,4.26-9.73,6.89-2.27,1.99-6.89,6.04-6.39,9.45.28,1.71,2.84,2.13,4.19,1.63h0c3.84-1.42,6.82-4.76,9.95-7.25,3.41-2.77,7.32-4.9,11.22-6.82,5.83-2.77,12.5-4.55,19.04-4.69-6.47,21.24-16.34,41.06-30.69,58.33-9.09,11.01-19.25,21.03-30.76,29.48-9.31,6.89-20.11,12.86-31.26,17.76-.85.07-1.63.36-1.99.85-1.99.85-3.91,1.71-5.9,2.49-27.71,10.66-58.26,14.42-87.74,10.3-30.83-4.26-60.96-16.41-84.26-37.37-10.8-9.73-20.25-21.03-27.42-33.75-3.55-6.32-6.89-12.93-8.67-19.96-5.61-25.15-1.63-36.59-1.56-38.79,3.98.71,6.96,1.78,11.01,3.48,3.98,1.71,7.81,4.05,11.37,7.1,1.63,1.35,3.13,2.91,4.55,4.55.78.92,1.42,1.92,2.2,2.77,1.49,1.78,3.48,2.34,5.61,2.91,2.27.64,6.25.14,7.46-2.27,1.49-2.98-.57-5.04-2.56-7.18-1.78-1.99-3.69-3.77-5.68-5.47-3.84-3.27-8.24-5.97-12.86-8.1-9.52-4.55-20.18-6.11-30.62-5.26-10.51.78-19.61,3.55-27.92,9.38-7.81,5.47-14.14,12.93-18.26,21.53-2.27,4.76-3.98,9.95-4.55,15.13-.28,2.7-.28,5.47-.14,8.24.14,2.91.92,5.33,1.71,8.1.64,2.27,6.96,2.42,6.89-.28,0-2.13.28-4.26.36-6.39,0-2.13.28-4.33.64-6.39.78-4.19,1.92-8.38,3.48-12.29,3.13-7.81,8.1-14.92,14.56-20.39,6.11-5.19,13.57-8.6,21.53-9.59-.43,10.87,0,30.05,3.27,43.41-8.95,9.45-21.38,28.2-24.37,37.3-3.34,10.09-4.48,20.74-5.26,30.98-1.63,21.1,1.78,42.7,7.81,62.95,3.27,10.8,7.67,21.1,13.92,30.55,6.25,9.45,14.42,16.98,23.44,24.01,17.12,13.36,36.59,23.87,57.19,30.69,40.35,13.43,84.83,13.57,124.9-1.14,37.87-13.85,71.12-39.64,92.93-73.46,23.23-35.95,33.53-81.42,26.93-123.76-.85-5.26-1.85-10.44-3.13-15.56,0-.21-.21-.36-.28-.5,5.61-10.73,9.95-21.95,12.93-33.53,4.97.99,9.95,2.84,14.49,5.68,3.62,2.27,7.03,5.26,9.24,9.02,1.07,1.78,1.85,3.69,2.42,5.61.57,1.99.36,4.62,1.42,6.39,2.34,3.98,10.59,5.04,13.07.5,1.85-3.41-.36-9.02-1.92-12.29-1.85-3.84-4.33-7.25-7.46-10.09h.14ZM578.05,493.05c-.43,13.29-1.99,26.5-5.19,39.43-16.06,3.69-32.11,7.46-48.24,10.87-.92.14-1.78.36-2.63.57-.28,0-.57.14-.78.14,0-.5-.28-2.06-.28-2.34-.07-1.07-.14-2.06-.21-3.13-.28-4.19-.57-8.31-.85-12.5s-.57-8.31-.85-12.5c-.21-2.7-.36-5.33-.57-7.96,16.06-.78,31.97-3.55,47.46-8.31,4.19-1.28,8.24-2.7,12.29-4.26h-.14ZM438.45,492.27v.14h0c-1.35,8.17-1.63,16.48-2.34,24.72-.64,6.96-1.28,13.92-1.92,20.89-14.92-4.76-29.84-9.8-44.69-14.71-.92-19.96.5-40,1.92-59.89,13.85,12.36,29.91,21.95,47.1,28.84h-.07Z" fill="#f59835"/>
    <path d="M845.11,391.45c-1.92-38.65-10.3-76.73-17.05-114.67-6.18-34.53-12.29-69.69-29.91-100.53-8.74-15.27-20.39-28.35-32.75-40.78-13.43-13.5-27.99-26.07-43.55-37.16-15.56-11.08-32.82-21.1-50.94-28.28-17.97-7.18-36.73-12.65-55.41-17.33-37.3-9.38-75.8-14.42-114.24-14.56-10.3,0-20.6.28-30.9.99-59.32-8.1-120.28-5.4-178.04,11.22-51.58,14.85-99.39,41.06-139.53,76.59-37.44,33.04-68.34,74.45-88.88,119.99-2.49,5.61-4.9,11.3-7.1,17.05s-4.97,11.79-6.89,17.97c-3.77,11.79-6.82,23.73-9.16,35.88-2.34,12.29-3.98,24.65-4.4,37.23-.78,22.45,1.42,44.97,5.47,66.99,4.76,25.65,12.43,50.87,22.73,74.88,11.51,26.85,26.5,52.29,44.62,75.16,19.89,25.22,43.69,47.32,70.26,65.29,30.76,20.82,65.01,36.02,100.67,46.32,43.27,12.5,88.59,17.76,133.49,17.19,10.51-.14,20.96-.57,31.4-1.42,4.33.57,8.6,1.07,12.93,1.49,36.8,3.84,75.31,5.68,112.39-.78,35.66-6.18,69.98-18.61,101.81-35.81,31.97-17.19,61.38-39.15,87.24-64.58,27.57-27.14,51.15-58.75,66.28-94.49,15.2-35.74,21.46-74.95,19.54-113.88h-.07ZM84.08,513.86c-11.94-23.8-21.1-48.95-27.35-74.81-5.4-22.31-8.67-44.9-9.16-68.2-.71-29.27,4.05-58.04,12.79-85.96,1.85-5.83,3.34-11.86,5.47-17.55s4.55-11.44,7.03-17.05c4.97-11.22,10.66-22.24,16.84-32.82,12.43-21.31,27.14-41.28,43.69-59.46,23.94-26.22,51.93-48.95,82.55-66.99.14-.07.28-.14.36-.21-5.83,4.48-11.51,9.09-17.12,13.85-16.55,14-32.82,30.12-47.32,47.03-28.7,33.39-52.5,71.33-67.99,112.61-14.71,39-20.6,80.64-19.04,122.2,1.56,41.7,10.3,83.26,25.36,122.12,9.09,23.52,20.67,46.39,34.67,67.49,0,0-.14-.14-.14-.21-15.91-19.04-29.41-39.71-40.5-61.88l-.14-.14ZM311.49,684.16c-36.16-7.67-71.75-20.39-103.72-38.79-17.9-10.3-34.6-22.17-49.94-35.59-9.24-10.59-17.97-21.6-25.86-33.32-11.58-17.19-21.46-35.59-29.7-54.63-16.48-38.01-26.71-78.93-29.91-120.28-3.2-41.35.78-81.91,13.43-121.06,13.43-41.49,35.38-80.14,62.59-114.17,27.07-33.96,59.39-63.94,95.55-88.02,3.77-2.49,7.53-4.97,11.22-7.46h0c53.28-22.95,111.97-31.97,169.72-29.55,4.97.21,9.95.5,14.92.85-17.83,2.49-35.45,6.11-52.71,11.01-34.88,9.8-68.34,24.79-98.75,44.54-2.84,1.85-5.75,3.77-8.53,5.75h0c-20.53.14-41.92,3.69-60.03,13.57-9.24,5.04-17.12,11.79-24.65,19.11-7.46,7.32-15.13,15.49-22.09,23.73-7.6,9.02-14.14,18.9-20.53,28.77-6.75,10.44-13.14,21.1-18.9,32.11-10.59,20.25-18.68,41.63-23.52,64.01-5.54,25.43-6.68,51.58-5.68,77.51.5,13.71,1.99,27.35,2.7,41.13.71,12.36.57,24.79.85,37.23.28,12.43.78,24.37,2.91,36.37s6.04,23.23,11.22,34.1c5.26,10.94,11.44,21.67,18.61,31.4,3.77,5.12,6.82,10.87,10.09,16.34,3.27,5.47,6.61,10.66,10.16,15.84,14.35,20.74,32.75,38.51,53.35,53.07,10.3,7.25,20.74,14.71,31.76,20.89,10.09,5.61,21.53,10.59,33.25,10.23,5.54-.14,10.87-1.56,15.7-4.26.28-.14.5-.36.64-.57h0c17.19,9.45,35.24,17.48,53.78,23.94,20.67,7.18,41.85,12.57,63.3,16.62-34.1-.71-67.99-3.27-101.38-10.3l.14-.14ZM165.14,390.46c1.07,41.35,8.95,83.05,23.3,122.05,14.21,38.58,35.02,75.31,63.09,105.43h0c-17.62-14.14-33.46-30.41-47.1-48.45-18.76-24.79-34.46-53.5-45.33-83.41-10.87-29.91-17.48-61.81-19.04-93.85-1.56-32.04,1.99-64.01,10.66-94.84,8.95-31.83,22.95-62.16,40.92-89.87,17.97-27.78,39.93-52.79,64.72-74.53,13.14-11.44,27.07-21.95,41.7-31.33.07,0,.14-.07.28-.14-3.34,2.77-6.61,5.54-9.8,8.38-15.91,14.14-30.76,29.84-44.12,46.68-26.5,33.46-47.39,71.33-61.1,111.82-13.29,39.22-19.32,80.64-18.26,121.98l.07.07ZM832.53,446.65c-6.04,37.58-22.52,75.09-45.11,106.78-21.17,29.7-47.95,55.56-77.08,77.37-28.28,21.1-59.68,38.29-93,50.09-33.32,11.79-67.85,17.97-102.94,17.19-37.09-.85-74.31-4.12-110.62-11.94-33.89-7.25-67.14-18.4-97.76-34.88-14.28-7.67-28.06-16.48-40.99-26.29-13.07-13.85-25.22-28.56-35.74-44.47-11.15-16.91-20.89-35.59-28.84-54.63-15.84-38.15-25.15-79-27.85-120.21-2.7-41.21,1.85-81.63,13.36-120.92,11.94-40.64,31.05-79.07,55.98-113.32,24.87-34.24,55.27-63.94,90.16-87.53,2.56-1.71,5.19-3.48,7.74-5.19h0c33.39-15.49,69.34-25.36,105.86-30.19,36.73-4.83,74.24-4.62,111.04.14,18.68,2.42,37.09,5.97,55.34,10.51,18.12,4.55,36.23,9.88,53.57,16.84,34.67,13.92,65.15,37.51,91.22,63.94,11.94,12.08,23.16,24.72,31.47,39.64,8.24,14.92,13.71,31.26,18.68,47.67,5.12,16.84,8.38,34.03,11.51,51.36,3.27,18.33,6.75,36.59,9.88,54.99,6.32,37.3,10.09,75.31,4.05,112.89l.07.14Z" fill="#f59835"/>
    <path d="M295.93,592.51c0-.5-.21-.85-.57-1.21l-.43-.64c-.07-.07-.14-.21-.21-.28-.36-.5-.78-.71-1.35-.99-.21-.14-.43-.14-.64-.21-.5-.21-1.07-.43-1.63-.57l-1.21-.14c-.57,0-1.21,0-1.71.14-.36,0-.71.14-.99.28-.43.14-.85.36-1.21.71-.28.36-.5.71-.64,1.07,0,.14-.21.21-.21.36-.14.43-.14.85,0,1.28.14.36.36.64.57.99l.5.78s.57.43.85.64c.14.21.28.43.5.64.36.36.71.64,1.14.85.5.28.99.5,1.56.57l1.21.14c.64,0,1.21,0,1.78-.14.36,0,.71-.14,1.07-.36.43-.14.85-.43,1.21-.78l.5-.64c.21-.5.28-.99,0-1.49h0s-.14-.43-.28-.57c0-.14.07-.36,0-.5l.21.07Z" fill="#f59835"/>
    <path d="M258.64,410.28l-.14-.21s-.14-.21-.21-.36v-.07c0-.07-.14-.21-.21-.28-.21-.36-.5-.64-.85-.85h0s-.57-.28-.85-.43h-.14c-.07,0-.14-.07-.28-.14h-.07c-.28-.07-.57-.21-.85-.28l-.92-.14c-.43,0-.85,0-1.35.14-.28,0-.5.07-.78.21-.36.14-.64.28-.92.57h-.07c-.14.07-.14.14-.28.28-.07.14-.14.14-.14.21h0c-.28.36-.21.21-.36.64-.07.28-.07.21-.07.43h0s.07.36,0,.43c0,.28,0,.64.14.85h0s.28.5.43.71c0,0,.07,0,.07.07l.14.14.64.5.85.43c.5.21.99.36,1.56.36h1.63c.43-.07.78-.21,1.21-.43l-.28.14h.14s.21-.14.28-.21h.21c.07,0,.14-.07.21-.14.14-.07.28-.14.43-.21.21-.14.43-.28.57-.57.28-.28.36-.57.36-.92v-.28l-.07-.71h0v.14Z" fill="#f59835"/>
    <path d="M281.44,358.7s-.28-.5-.43-.71-.28-.5-.36-.71c0,0,0-.07-.07-.14-.36-.57-.57-.99-1.21-1.35-.14-.07-.28-.14-.43-.21v.21s-.57-.5-.92-.64c-.71-.28-1.42-.43-2.13-.43s-1.49,0-2.2.28c-.57.14-1.14.43-1.56.85-.36.36-.64.78-.64,1.28,0,.14-.07.21-.07.36,0,.43.07.71.28.99.14.28.28.5.43.71.14.28.28.5.43.71.07.14.14.21.21.36.21.36.36.71.64.99.28.36.71.64,1.14.78.5.28.99.5,1.49.57l1.21.14c.57,0,1.21,0,1.78-.14.36,0,.71-.14.99-.28.43-.14.85-.36,1.21-.71l.5-.64c.21-.5.21-.92,0-1.49,0-.14-.14-.28-.21-.36,0-.07-.14-.21-.21-.36l.14-.07ZM273.41,358.7h0v-.07.07h0ZM273.77,358.56v-.14l.21-.21c-.07.07-.14.21-.21.36Z" fill="#f59835"/>
    <path d="M553.4,383.21s-.43-.43-.64-.57h-.14c-.21-.14-.43-.21-.64-.28l-.64-.36c-.36-.14-.78-.28-1.21-.28h-.85c-.43,0-.85,0-1.21.14l-.64.28-.5.36s-.36.43-.43.71c-.14.21-.07.5,0,.78h0l.21.43c.14.28.21.5.5.71l.21.21s.57.5.92.64c.36.21.78.36,1.21.43.5.07.92.14,1.42.07.43,0,.92,0,1.35-.21l.71-.28c.43-.21.71-.5.99-.92l.14-.57c0-.43-.14-.78-.43-1.07l-.21-.21h-.14Z" fill="#f59835"/>
    <path d="M771.36,357.92s-.28-.43-.36-.64c-.28-.43-.5-.85-.71-1.28-.21-.57-.64-.99-1.14-1.28l-.92-.5c-.78-.28-1.56-.43-2.34-.5-.64,0-1.21,0-1.85.14-.57.07-1.07.21-1.56.57-.43.21-.78.5-.99.85-.28.28-.43.64-.43,1.07,0,.57.21,1.07.57,1.49h0c.36.5.64.99.99,1.49.14.21.28.5.5.71.28.28.64.57.99.85.57.36,1.28.64,1.92.78.43.07.85.14,1.21.14.78,0,1.49,0,2.2-.28.36-.07.64-.21.92-.43.5-.28.92-.64,1.21-1.14.21-.5.21-.92,0-1.42,0-.07,0-.21-.07-.36s-.07-.21-.14-.28h0Z" fill="#f59835"/>
    <path d="M281.58,71.4h0c.36.5.64.99.99,1.49.14.21.28.5.5.71.28.28.64.57.99.85.57.36,1.28.64,1.92.78.43.07.85.14,1.21.14.78,0,1.49,0,2.2-.28.36-.07.64-.21.92-.43.5-.28.92-.64,1.21-1.14.21-.5.21-.92,0-1.42,0-.07,0-.21-.07-.36s-.07-.21-.14-.28c-.14-.21-.28-.43-.36-.64-.28-.43-.5-.85-.71-1.28-.21-.57-.64-.99-1.14-1.28l-.92-.5c-.78-.28-1.56-.43-2.34-.5-.64,0-1.21,0-1.85.14-.57.07-1.07.21-1.56.57-.43.21-.78.5-.99.85-.28.28-.43.64-.43,1.07,0,.57.21,1.07.57,1.49h0Z" fill="#f59835"/>
    <path d="M303.54,667.1s-.28-.43-.36-.64c-.28-.43-.5-.85-.71-1.28-.21-.57-.64-.99-1.14-1.28l-.92-.5c-.78-.28-1.56-.43-2.34-.5-.64,0-1.21,0-1.85.14-.57.07-1.07.21-1.56.57-.43.21-.78.5-.99.85-.28.28-.43.64-.43,1.07,0,.57.21,1.07.57,1.49h0c.36.5.64.99.99,1.49.14.21.28.5.5.71.28.28.64.57.99.85.57.36,1.28.64,1.92.78.43.07.85.14,1.21.14.78,0,1.49,0,2.2-.28.36-.07.64-.21.92-.43.5-.28.92-.64,1.21-1.14.21-.5.21-.92,0-1.42,0-.07,0-.21-.07-.36s-.07-.21-.14-.28h0Z" fill="#f59835"/>
    <path d="M796.51,398.7s0-.5-.21-.64c-.14-.28-.36-.43-.57-.57-.5-.28-1.07-.5-1.63-.57s-1.28,0-1.85.14c-.5.21-1.07.43-1.35.99h0s-.14.21-.14.28c-.14.14-.28.21-.36.36,0,.14-.14.21-.21.36-.14.21-.21.43-.36.64-.14.21-.21.43-.28.64,0,.21-.14.5-.21.71-.14.28-.21.5-.07.78,0,.28.14.57.36.71.21.28.5.43.85.57.36.21.71.36,1.14.43.85.14,1.78.14,2.56-.07l.64-.28c.36-.21.71-.5.85-.85.07-.21.21-.43.28-.64,0-.07.14-.21.14-.28.14-.21.14-.5.21-.78l.28-1.28s-.07-.21-.07-.28v-.36h0Z" fill="#f59835"/>
    <path d="M754.31,441.68l-.28-.5-.28-.21v-.14l.28-.5c0-.28-.07-.57-.28-.78-.14-.28-.36-.5-.64-.64h0c-.71-.43-1.49-.64-2.27-.71-.64-.14-1.28-.14-1.92-.07-.71.07-1.14.21-1.71.5,0,0-.14,0-.21.07-.28.14-.5.36-.78.57,0,0-.14.07-.14.14-.21.28-.5.57-.64.85v.14h0c-.28.28-.36.57-.36.92,0,.28.07.64.14.92v.14c.14.21.28.5.43.71,0,0,.07.14.21.21.28.21.5.5.85.64h0c.14,0,.28.14.43.21s.28.14.43.21l.99.28h.14c.36,0,.92.14,1.35.14.78,0,1.71,0,2.42-.36.5-.14.99-.43,1.42-.78.28-.28.43-.64.5-.99,0,.07,0,.21-.07.28,0,0,0-.14.07-.21v-.21h0s.07-.36.07-.5v-.5l-.14.14ZM749.41,440.55h-.07.07ZM749.55,442.04h.07l.78.07h0l-.78-.07h-.07ZM751.11,442.11h.07-.07Z" fill="#f59835"/>
    <path d="M648.1,589.52l-.07-.14-.28-.5-.5-.43h-.07c-.21-.21-.5-.43-.78-.64-.64-.36-1.28-.57-1.99-.57-.57,0-1.21,0-1.71.28-.36.14-.85.43-1.07.85l-.14.43s.14.43.28.64h0c0,.07-.07.14-.07.21v.78c0,.07-.07.14-.14.21,0,0-.07.07-.14.14h.07l-.07.07c-.14.14-.36.21-.5.43l-.14.57c0,.43.14.78.43,1.07s.57.5.85.64c.36.21.78.36,1.21.43.5.07.92.14,1.42.07.43,0,.85,0,1.28-.21.5-.14.92-.36,1.28-.71.07,0,.21-.14.28-.21.21-.21.36-.5.57-.71.21-.36.28-.78.43-1.14.07-.36,0-.64,0-.92,0-.21-.07-.43-.21-.57l-.21-.07ZM641.64,590.45s-.14.14-.21.21h0l.21-.21ZM641.42,590.59h0l-.14.14.14-.21v.07Z" fill="#f59835"/>
    <path d="M538.48,654.53s-.64-.36-.99-.43c-.36-.14-.78-.21-1.21-.21h-.85c-.5.07-.99.21-1.42.5l-.5.36s-.43.57-.5.92h0v.64s0,.5.14.71l.28.43s.5.43.78.57c.21.14.43.21.64.28.36.14.78.21,1.21.21h.85l.78-.21c.36-.07.64-.21.85-.43.28-.14.43-.36.57-.57.14-.21.14-.5.14-.71v-.21s0-.28.07-.5c0-.28,0-.57-.21-.71-.14-.28-.36-.5-.64-.64Z" fill="#f59835"/>
    <path d="M92.61,322.97s.43-.36.57-.57.14-.5.14-.71v-.21s.07-.28.07-.5c0-.28,0-.57-.21-.71-.14-.28-.36-.5-.64-.64-.36-.21-.64-.36-.99-.43-.36-.14-.78-.21-1.21-.21h-.85c-.5.07-.99.21-1.42.5l-.5.36s-.43.57-.5.92h0v.71c0,.21,0,.5.14.71l.28.43s.5.43.78.57c.21.14.43.21.64.28.36.14.78.21,1.21.21h.85l.78-.21c.36-.07.64-.21.85-.43v-.07Z" fill="#f59835"/>
    <path d="M313.7,66.85s0,.5.14.71l.28.43s.5.43.78.57c.21.14.43.21.64.28.36.14.78.21,1.21.21h.85l.78-.21c.36-.07.64-.21.85-.43.28-.14.43-.36.57-.57s.14-.5.14-.71v-.21s.07-.28.07-.5c0-.28,0-.57-.21-.71-.14-.28-.36-.5-.64-.64-.36-.21-.64-.36-.99-.43-.36-.14-.78-.21-1.21-.21h-.85c-.5.07-.99.21-1.42.5l-.5.36s-.43.57-.5.92h0v.43s0,.21,0,.21Z" fill="#f59835"/>
    <path d="M443.42,106.14s.07,0,.14.07c.14.14.28.28.36.43,0,0,0,.07.07.14.28.71,1.07,1.21,1.71,1.49.5.21.92.28,1.42.36.5.07.99.07,1.56,0l.92-.21c.57-.14.99-.43,1.42-.78l.43-.57c.21-.43.21-.78,0-1.21s-.43-.85-.71-1.21c-.14-.21-.36-.43-.5-.64-.78-.78-1.63-1.28-2.63-1.71-.5-.21-.92-.28-1.42-.36-.5-.07-.99-.07-1.56,0-.71.07-1.35.36-1.92.71-.36.07-.71.21-.99.5l-.28.36s-.14.36,0,.57c0,.21.21.36.43.57.21.71.92,1.21,1.56,1.49h0ZM443.85,105.5h0ZM443.42,105.43h.14c.07,0,.14,0,.28.07h-.36l-.07-.07Z" fill="#f59835"/>
    <path d="M545.94,141.02l.21.43c0,.14.07.21.14.36.78,1.63,3.62,1.92,5.04,1.63h0c.92-.14,1.71-.64,2.06-1.35,0-.07.14-.21.14-.28,0-.14.21-.21.21-.43v-.57c.28-3.2-7.81-3.55-7.89-.36h0v.57h.07Z" fill="#f59835"/>
    <path d="M82.66,409.93h0v.57c0,.14.14.28.21.43,0,.14.07.21.14.36.78,1.63,3.62,1.92,5.04,1.63h0c.92-.14,1.71-.64,2.06-1.35,0-.07.14-.21.14-.28,0-.14.21-.21.21-.43v-.57c.28-3.2-7.81-3.55-7.89-.36h.07Z" fill="#f59835"/>
    <path d="M466.01,153.38c.99,0,2.98-.28,3.05-1.63s-1.92-1.85-2.91-1.85-2.98.28-3.05,1.63c0,1.35,1.92,1.85,2.91,1.85Z" fill="#f59835"/>
    <path d="M94.24,433.8c-.99,0-2.98.28-3.05,1.63,0,1.35,1.92,1.85,2.91,1.85s2.98-.28,3.05-1.63-1.92-1.85-2.91-1.85Z" fill="#f59835"/>
    <path d="M405.06,271.39c14.14,1.99,28.13,5.54,41.63,10.37-7.67,13.07-19.61,23.3-33.96,28.42-5.19,1.85-3.34,10.37,1.99,8.45,17.05-6.04,31.47-17.83,40.21-33.75,3.34,1.35,6.68,2.84,9.95,4.4,4.97,2.34,9.73-4.9,4.69-7.32-3.91-1.85-7.89-3.62-11.86-5.19,4.48-22.81.43-47.17-12.36-66.78-12.15-18.61-30.9-32.25-52.29-38.08-5.4-1.49-8.03,6.82-2.63,8.31,19.18,5.19,36.37,17.19,47.24,33.89,11.44,17.48,15.63,39.07,11.86,59.54-62.38-22.31-132.85-15.49-189.47,20.25-.85.5-1.63,1.07-2.49,1.63-4.76-28.77,4.12-59.18,23.8-80.78,3.77-4.12-2.13-10.51-5.9-6.39-22.52,24.65-32.33,59.04-25.93,91.86,0,.21.07.43.14.64-1.42.99-2.77,1.99-4.12,3.05v.21c-.21.57-.5,1.07-.85,1.49.36,2.7.64,5.4.78,8.03.36.14.71.36,1.14.57,44.47-34.81,101.88-50.87,158.57-42.84h-.14Z" fill="#f59835"/>
    <path d="M306.31,312.45c22.45-14.99,49.3-21.6,76.09-18.61,5.54.64,5.9-8.1.36-8.67-28.13-3.13-56.98,3.84-80.49,19.61-4.62,3.05-.57,10.8,4.05,7.67Z" fill="#f59835"/>
  </g>
</svg>