<?xml version="1.0" encoding="UTF-8"?>
<svg id="a" data-name="Camada 1" xmlns="http://www.w3.org/2000/svg" viewBox="0 0 961.19 106.02">
  <path d="M31.17,102.83c-4.99,0-9.43-.29-13.3-.86-3.87-.57-7.13-1.46-9.78-2.67-2.65-1.21-4.66-2.76-6.03-4.67s-2.06-4.17-2.06-6.79c0-1.02.25-1.75.76-2.19s1.13-.78,1.87-1.02c.74-.23,1.54-.45,2.41-.67.87-.21,1.67-.58,2.41-1.11.74-.53,1.36-1.3,1.87-2.32s.76-2.48.76-4.38V28.31c0-1.86-.25-3.31-.76-4.35-.51-1.04-1.13-1.82-1.87-2.35-.74-.53-1.55-.9-2.41-1.11-.87-.21-1.67-.43-2.41-.67-.74-.23-1.37-.57-1.87-1.02s-.76-1.17-.76-2.19c0-2.62.69-4.88,2.06-6.76,1.38-1.88,3.39-3.43,6.03-4.63,2.64-1.21,5.9-2.09,9.78-2.67,3.87-.57,8.3-.86,13.3-.86h33.83c7.07,0,13.13.37,18.19,1.11,5.06.74,9.3,1.75,12.73,3.02s6.17,2.77,8.22,4.51,3.62,3.61,4.7,5.62c1.08,2.01,1.78,4.11,2.1,6.28.32,2.18.48,4.35.48,6.51,0,2.5-.32,4.7-.95,6.6s-1.5,3.58-2.6,5.01c-1.1,1.44-2.38,2.66-3.84,3.65-1.46,1-3,1.82-4.63,2.48-1.63.66-3.31,1.15-5.05,1.49-1.74.34-3.41.55-5.01.63,3,.21,6,.76,8.98,1.65,2.98.89,5.67,2.3,8.06,4.22,2.39,1.93,4.33,4.47,5.81,7.62,1.48,3.15,2.22,7.1,2.22,11.84,0,2.62-.36,5.16-1.08,7.62-.72,2.45-1.92,4.75-3.59,6.89-1.67,2.14-3.87,4.08-6.6,5.84-2.73,1.76-6.1,3.27-10.12,4.54-4.02,1.27-8.75,2.25-14.19,2.95-5.44.7-11.69,1.05-18.76,1.05h-28.88ZM62.65,45.89c1.86,0,3.37-.35,4.54-1.05s2.06-1.7,2.7-3.01,1.06-2.91,1.27-4.79c.21-1.88.32-4.01.32-6.38,0-2.54-.16-4.83-.48-6.89-.32-2.05-.9-3.79-1.75-5.21-.85-1.42-1.99-2.51-3.43-3.27-1.44-.76-3.28-1.14-5.52-1.14-1.78,0-3.16.33-4.16.98-.99.66-1.72,1.52-2.19,2.6-.47,1.08-.74,2.34-.83,3.78-.08,1.44-.13,2.94-.13,4.51v19.23c.21.13.7.23,1.46.32.63.08,1.59.16,2.86.22s3.05.1,5.33.1ZM62.65,56.43c-2.29,0-4.06.03-5.33.09s-2.22.14-2.86.22c-.76.13-1.25.23-1.46.32v19.23c0,1.57.04,3.07.13,4.51.08,1.44.36,2.7.83,3.78.46,1.08,1.2,1.95,2.19,2.6.99.66,2.38.98,4.16.98,2.24,0,4.08-.38,5.52-1.14,1.44-.76,2.58-1.85,3.43-3.27.85-1.42,1.43-3.15,1.75-5.21.32-2.05.48-4.37.48-6.95,0-2.37-.11-4.5-.32-6.38-.21-1.88-.63-3.47-1.27-4.76-.63-1.29-1.53-2.29-2.7-2.98s-2.68-1.05-4.54-1.05Z" fill="#f59835"/>
  <path d="M307.95,79.98c0,1.95.24,3.51.73,4.7.49,1.18,1.1,2.11,1.84,2.76.74.66,1.56,1.1,2.44,1.33.89.23,1.71.35,2.48.35.08,0,.19,0,.32-.03.13-.02.39-.04.79-.06.4-.02.99-.07,1.78-.16.78-.08,1.87-.19,3.27-.32l2.6-11.04c.72-2.41,1.59-4.45,2.6-6.13,1.02-1.67,2.13-3.02,3.33-4.06,1.21-1.04,2.47-1.79,3.81-2.25,1.33-.47,2.68-.7,4.03-.7,1.61,0,3.09.26,4.44.79,1.35.53,2.52,1.29,3.49,2.29.97,1,1.73,2.21,2.29,3.65.55,1.44.83,3.05.83,4.82s-.17,3.62-.51,5.65c-.34,2.03-.87,4.04-1.59,6.03-.72,1.99-1.61,3.9-2.67,5.74-1.06,1.84-2.3,3.46-3.71,4.86-1.42,1.4-3.03,2.52-4.82,3.36-1.8.85-3.78,1.27-5.94,1.27h-43.42c-4.99,0-9.43-.29-13.3-.86-3.87-.57-7.13-1.46-9.78-2.67s-4.66-2.76-6.03-4.67c-1.38-1.9-2.06-4.17-2.06-6.79,0-1.02.25-1.75.76-2.19s1.13-.78,1.87-1.02c.74-.23,1.54-.45,2.41-.67s1.67-.58,2.41-1.11c.74-.53,1.37-1.3,1.87-2.32s.76-2.48.76-4.38V28.31c0-1.86-.25-3.31-.76-4.35-.51-1.04-1.13-1.82-1.87-2.35-.74-.53-1.54-.9-2.41-1.11s-1.67-.43-2.41-.67c-.74-.23-1.36-.57-1.87-1.02s-.76-1.17-.76-2.19c0-2.62.69-4.88,2.06-6.76,1.37-1.88,3.38-3.43,6.03-4.63s5.9-2.09,9.78-2.67c3.87-.57,8.3-.86,13.3-.86s9.73.29,13.71.86c3.98.57,7.31,1.46,10,2.67,2.69,1.21,4.72,2.75,6.09,4.63,1.37,1.88,2.06,4.14,2.06,6.76,0,1.02-.25,1.75-.76,2.19s-1.13.78-1.87,1.02c-.74.23-1.55.46-2.44.67s-1.7.58-2.44,1.11c-.74.53-1.37,1.31-1.87,2.35-.51,1.04-.76,2.49-.76,4.35l-.13,51.67Z" fill="#f59835"/>
  <path d="M379.89,102.83c-3.13,0-5.88-.4-8.25-1.21-2.37-.8-4.35-1.89-5.94-3.27-1.59-1.37-2.78-2.96-3.59-4.76-.8-1.8-1.21-3.71-1.21-5.74,0-1.02.23-1.75.7-2.19s1.08-.79,1.84-1.05,1.62-.49,2.57-.7c.95-.21,1.91-.59,2.89-1.14.97-.55,1.9-1.34,2.79-2.38.89-1.04,1.65-2.53,2.29-4.47l15.62-47.61c.3-.89.52-1.67.67-2.35.15-.68.22-1.27.22-1.78,0-1.31-.36-2.2-1.08-2.67-.72-.47-1.51-.83-2.38-1.08s-1.66-.56-2.38-.92c-.72-.36-1.08-1.09-1.08-2.19,0-.3.02-.53.06-.7.42-2.92,1.59-5.34,3.49-7.27,1.9-1.92,4.43-3.45,7.59-4.57,3.15-1.12,6.87-1.91,11.14-2.38,4.27-.47,8.99-.7,14.16-.7,4.36,0,8.54.16,12.54.48,4,.32,7.61,1.01,10.82,2.06,3.22,1.06,5.9,2.56,8.06,4.51s3.58,4.57,4.25,7.87c.08.42.13.72.13.89,0,.72-.2,1.26-.6,1.62-.4.36-.9.65-1.49.86-.59.21-1.23.39-1.9.54-.68.15-1.31.37-1.9.67-.59.3-1.09.73-1.49,1.3-.4.57-.6,1.37-.6,2.38,0,.89.19,2.03.57,3.43l14.03,47.61c.55,1.9,1.25,3.39,2.09,4.44.85,1.06,1.75,1.86,2.7,2.41.95.55,1.9.93,2.86,1.14.95.21,1.81.44,2.57.7s1.38.6,1.84,1.05c.46.44.7,1.17.7,2.19,0,5.29-2.73,9.11-8.19,11.46s-13.35,3.52-23.68,3.52c-4.99,0-9.43-.29-13.3-.86-3.87-.57-7.14-1.46-9.81-2.67s-4.69-2.76-6.06-4.67c-1.38-1.9-2.06-4.17-2.06-6.79,0-.89.2-1.56.6-2s.9-.78,1.49-1.02c.59-.23,1.25-.43,1.97-.6.72-.17,1.38-.41,1.97-.73.59-.32,1.09-.78,1.49-1.4.4-.61.6-1.49.6-2.63,0-.97-.15-2.07-.44-3.3l-1.02-4.38h-25.77l-1.52,4.38c-.55,1.61-.83,2.92-.83,3.94s.2,1.72.6,2.25c.4.53.9.93,1.49,1.21.59.28,1.25.5,1.97.67.72.17,1.38.37,1.97.6.59.23,1.09.58,1.49,1.05.4.47.6,1.12.6,1.97,0,2.03-.4,3.95-1.21,5.74-.8,1.8-2,3.39-3.59,4.76-1.59,1.38-3.55,2.47-5.9,3.27-2.35.8-5.07,1.21-8.16,1.21ZM396.27,62.14h19.87l-9.78-36.94-10.09,36.94Z" fill="#f59835"/>
  <path d="M535.45,104.42c-5.54,0-10.64-.62-15.3-1.87-4.66-1.25-8.88-2.99-12.66-5.24s-7.12-4.91-10-8c-2.88-3.09-5.29-6.47-7.24-10.16-1.95-3.68-3.42-7.59-4.41-11.71-1-4.13-1.49-8.37-1.49-12.73,0-4.99.42-9.81,1.27-14.44.85-4.63,2.2-8.98,4.06-13.04,1.86-4.06,4.27-7.77,7.24-11.11,2.96-3.34,6.56-6.21,10.79-8.6,4.23-2.39,9.13-4.24,14.7-5.55,5.56-1.31,11.9-1.97,19.01-1.97,4.7,0,9.16.63,13.39,1.9,4.23,1.27,7.94,3.08,11.14,5.43,3.19,2.35,5.73,5.21,7.62,8.57,1.88,3.36,2.82,7.12,2.82,11.27,0,1.69-.26,3.22-.79,4.57-.53,1.35-1.27,2.5-2.22,3.43-.95.93-2.07,1.65-3.36,2.16-1.29.51-2.68.76-4.16.76-1.31,0-2.62-.21-3.94-.63-1.31-.42-2.56-1.13-3.75-2.13-1.19-.99-2.25-2.29-3.21-3.87-.95-1.59-1.7-3.54-2.25-5.87-.76-3.3-2.05-5.81-3.87-7.52-1.82-1.71-3.77-2.57-5.84-2.57-1.57,0-3.12.49-4.67,1.46s-2.92,2.47-4.12,4.47c-1.21,2.01-2.19,4.56-2.95,7.65s-1.14,6.75-1.14,10.98c0,5.59.32,10.44.95,14.57s1.51,7.65,2.63,10.57c1.12,2.92,2.43,5.31,3.94,7.17,1.5,1.86,3.12,3.32,4.86,4.38,1.73,1.06,3.53,1.79,5.4,2.19,1.86.4,3.72.6,5.59.6s3.77-.22,5.59-.67c1.82-.44,3.48-.99,4.98-1.65,1.5-.66,2.79-1.35,3.87-2.09,1.08-.74,1.87-1.43,2.38-2.06.63-.85,1.32-1.47,2.06-1.87.74-.4,1.43-.6,2.06-.6,1.18,0,2.2.61,3.05,1.84.85,1.23,1.27,2.92,1.27,5.08,0,3.39-1.05,6.69-3.14,9.9-2.1,3.22-5.05,6.08-8.86,8.6-3.81,2.52-8.37,4.55-13.68,6.09-5.31,1.54-11.18,2.32-17.61,2.32Z" fill="#f59835"/>
  <path d="M674.04,56.56h-28.63v19.36c0,1.9.26,3.39.79,4.44s1.17,1.86,1.94,2.41,1.59.93,2.48,1.14,1.7.44,2.44.7,1.37.6,1.87,1.05.76,1.17.76,2.19c0,5.29-2.73,9.11-8.19,11.46s-13.35,3.52-23.68,3.52c-4.99,0-9.43-.29-13.3-.86-3.87-.57-7.13-1.46-9.78-2.67s-4.66-2.76-6.03-4.67c-1.38-1.9-2.06-4.17-2.06-6.79,0-1.02.25-1.75.76-2.19s1.13-.78,1.87-1.02c.74-.23,1.54-.45,2.41-.67s1.67-.58,2.41-1.11c.74-.53,1.37-1.3,1.87-2.32s.76-2.48.76-4.38V28.31c0-1.86-.25-3.31-.76-4.35-.51-1.04-1.13-1.82-1.87-2.35-.74-.53-1.54-.9-2.41-1.11s-1.67-.43-2.41-.67c-.74-.23-1.36-.57-1.87-1.02s-.76-1.17-.76-2.19c0-2.62.69-4.88,2.06-6.76,1.37-1.88,3.38-3.43,6.03-4.63s5.9-2.09,9.78-2.67c3.87-.57,8.3-.86,13.3-.86s9.73.29,13.71.86c3.98.57,7.31,1.46,10,2.67,2.69,1.21,4.72,2.75,6.09,4.63,1.37,1.88,2.06,4.14,2.06,6.76,0,1.02-.25,1.75-.76,2.19s-1.13.78-1.87,1.02c-.74.23-1.55.46-2.44.67s-1.7.58-2.44,1.11c-.74.53-1.37,1.31-1.87,2.35-.51,1.04-.76,2.49-.76,4.35v16h28.5v-16c0-1.86-.25-3.31-.76-4.35-.51-1.04-1.13-1.82-1.87-2.35-.74-.53-1.56-.9-2.44-1.11s-1.7-.43-2.44-.67c-.74-.23-1.36-.57-1.87-1.02s-.76-1.17-.76-2.19c0-5.25,2.72-9.05,8.16-11.39,5.44-2.35,13.34-3.52,23.71-3.52s18.01,1.17,23.42,3.52c5.42,2.35,8.12,6.15,8.12,11.39,0,1.02-.26,1.75-.79,2.19-.53.44-1.19.78-1.97,1.02-.78.23-1.64.46-2.57.67-.93.21-1.79.58-2.57,1.11-.78.53-1.44,1.31-1.97,2.35-.53,1.04-.79,2.49-.79,4.35v47.61c0,1.9.26,3.39.79,4.44s1.18,1.86,1.97,2.41c.78.55,1.64.93,2.57,1.14.93.21,1.79.44,2.57.7s1.44.6,1.97,1.05c.53.44.79,1.17.79,2.19,0,2.62-.69,4.89-2.06,6.79-1.38,1.9-3.4,3.46-6.06,4.67s-5.97,2.09-9.9,2.67-8.44.86-13.52.86-9.73-.29-13.71-.86c-3.98-.57-7.31-1.46-10-2.67-2.69-1.21-4.72-2.76-6.09-4.67-1.38-1.9-2.06-4.17-2.06-6.79,0-1.02.25-1.75.76-2.19s1.13-.79,1.87-1.05,1.56-.49,2.44-.7,1.7-.59,2.44-1.14c.74-.55,1.36-1.34,1.87-2.38.51-1.04.76-2.53.76-4.47v-19.36Z" fill="#f59835"/>
  <path d="M759.98,102.83c-3.13,0-5.88-.4-8.25-1.21-2.37-.8-4.35-1.89-5.94-3.27-1.59-1.37-2.78-2.96-3.59-4.76-.8-1.8-1.21-3.71-1.21-5.74,0-1.02.23-1.75.7-2.19s1.08-.79,1.84-1.05,1.62-.49,2.57-.7c.95-.21,1.91-.59,2.89-1.14.97-.55,1.9-1.34,2.79-2.38.89-1.04,1.65-2.53,2.29-4.47l15.62-47.61c.3-.89.52-1.67.67-2.35.15-.68.22-1.27.22-1.78,0-1.31-.36-2.2-1.08-2.67-.72-.47-1.51-.83-2.38-1.08s-1.66-.56-2.38-.92c-.72-.36-1.08-1.09-1.08-2.19,0-.3.02-.53.06-.7.42-2.92,1.59-5.34,3.49-7.27,1.9-1.92,4.43-3.45,7.59-4.57,3.15-1.12,6.87-1.91,11.14-2.38,4.27-.47,8.99-.7,14.16-.7,4.36,0,8.54.16,12.54.48,4,.32,7.61,1.01,10.82,2.06,3.22,1.06,5.9,2.56,8.06,4.51s3.58,4.57,4.25,7.87c.08.42.13.72.13.89,0,.72-.2,1.26-.6,1.62-.4.36-.9.65-1.49.86-.59.21-1.23.39-1.9.54-.68.15-1.31.37-1.9.67-.59.3-1.09.73-1.49,1.3-.4.57-.6,1.37-.6,2.38,0,.89.19,2.03.57,3.43l14.03,47.61c.55,1.9,1.25,3.39,2.09,4.44.85,1.06,1.75,1.86,2.7,2.41.95.55,1.9.93,2.86,1.14.95.21,1.81.44,2.57.7s1.38.6,1.84,1.05c.46.44.7,1.17.7,2.19,0,5.29-2.73,9.11-8.19,11.46s-13.35,3.52-23.68,3.52c-4.99,0-9.43-.29-13.3-.86-3.87-.57-7.14-1.46-9.81-2.67s-4.69-2.76-6.06-4.67c-1.38-1.9-2.06-4.17-2.06-6.79,0-.89.2-1.56.6-2s.9-.78,1.49-1.02c.59-.23,1.25-.43,1.97-.6.72-.17,1.38-.41,1.97-.73.59-.32,1.09-.78,1.49-1.4.4-.61.6-1.49.6-2.63,0-.97-.15-2.07-.44-3.3l-1.02-4.38h-25.77l-1.52,4.38c-.55,1.61-.83,2.92-.83,3.94s.2,1.72.6,2.25c.4.53.9.93,1.49,1.21.59.28,1.25.5,1.97.67.72.17,1.38.37,1.97.6.59.23,1.09.58,1.49,1.05.4.47.6,1.12.6,1.97,0,2.03-.4,3.95-1.21,5.74-.8,1.8-2,3.39-3.59,4.76-1.59,1.38-3.55,2.47-5.9,3.27-2.35.8-5.07,1.21-8.16,1.21ZM776.36,62.14h19.87l-9.78-36.94-10.09,36.94Z" fill="#f59835"/>
  <path d="M927.54,20.44c0-1.18-1.07-2.26-3.21-3.24s-5.41-1.46-9.81-1.46c-3.05,0-5.46.21-7.24.63s-3.12.98-4.03,1.68-1.49,1.48-1.75,2.35c-.25.87-.38,1.75-.38,2.63,0,1.82.86,3.42,2.57,4.79,1.71,1.38,3.98,2.68,6.79,3.9s6.02,2.45,9.62,3.68c3.6,1.23,7.28,2.59,11.04,4.09,3.77,1.5,7.45,3.23,11.04,5.17,3.6,1.95,6.8,4.23,9.62,6.86,2.81,2.62,5.08,5.69,6.79,9.2,1.71,3.51,2.57,7.58,2.57,12.19,0,5.92-1.14,10.9-3.43,14.92s-5.47,7.26-9.55,9.71-8.93,4.21-14.54,5.27c-5.61,1.06-11.73,1.59-18.38,1.59-3.89,0-7.77-.3-11.62-.89-3.85-.59-7.51-1.45-10.98-2.57-3.47-1.12-6.7-2.5-9.68-4.13-2.98-1.63-5.57-3.47-7.74-5.52-2.18-2.05-3.89-4.32-5.14-6.79s-1.87-5.13-1.87-7.97c0-2.16.34-4.04,1.02-5.65.68-1.61,1.58-2.93,2.7-3.97,1.12-1.04,2.4-1.81,3.84-2.32,1.44-.51,2.94-.76,4.51-.76,1.9,0,3.81.36,5.71,1.08s3.62,1.78,5.14,3.17,2.76,3.11,3.71,5.14c.95,2.03,1.43,4.36,1.43,6.98,0,.63.31,1.31.92,2.03.61.72,1.5,1.39,2.67,2,1.16.61,2.61,1.13,4.35,1.56,1.73.42,3.72.63,5.97.63,3.13,0,5.63-.2,7.49-.6,1.86-.4,3.29-.94,4.29-1.62.99-.68,1.64-1.44,1.94-2.29.3-.85.44-1.69.44-2.54,0-1.06-.78-1.99-2.35-2.79-1.57-.8-3.62-1.62-6.16-2.44s-5.45-1.7-8.73-2.63c-3.28-.93-6.61-2.04-10-3.33-3.39-1.29-6.72-2.82-10-4.6s-6.19-3.92-8.73-6.44c-2.54-2.52-4.59-5.46-6.16-8.82-1.57-3.36-2.35-7.29-2.35-11.77s.54-8.42,1.62-11.93c1.08-3.51,2.6-6.62,4.57-9.33,1.97-2.71,4.33-5.02,7.08-6.95,2.75-1.92,5.81-3.51,9.17-4.76,3.37-1.25,6.98-2.16,10.86-2.73,3.87-.57,7.9-.86,12.09-.86,7.49,0,13.87.75,19.14,2.25,5.27,1.5,9.55,3.44,12.85,5.81s5.7,5,7.21,7.9c1.5,2.9,2.25,5.72,2.25,8.47,0,2.5-.53,4.66-1.59,6.47-1.06,1.82-2.43,3.32-4.13,4.51-1.69,1.18-3.62,2.05-5.78,2.6s-4.34.83-6.54.83-4.18-.23-6.19-.7c-2.01-.47-3.79-1.16-5.33-2.09-1.55-.93-2.79-2.06-3.75-3.4-.95-1.33-1.43-2.87-1.43-4.6,0-1.27.29-2.22.86-2.86.57-.63,1.21-1.16,1.9-1.59.7-.42,1.33-.85,1.9-1.27.57-.42.86-1.06.86-1.9Z" fill="#f59835"/>
  <g>
    <path d="M247.02,74.43c-2.28,5.38-5.85,10.48-10.6,15.15-4.09,4.03-8.67,7.42-13.64,10.1-5.2,2.8-10.62,4.71-16.11,5.66-2.64.46-5.42.68-8.5.68-2.67,0-5.53-.17-8.99-.53-.46-.04-.95-.1-1.44-.16-1.35.1-2.77.16-4.33.18-.34.01-.68.01-1.02.01-6.86,0-13.45-.9-19.58-2.67-5.86-1.69-11.2-4.15-15.85-7.31-4.26-2.88-8.03-6.38-11.2-10.4-2.83-3.58-5.21-7.59-7.06-11.9-1.62-3.78-2.83-7.75-3.58-11.8-.69-3.73-.98-7.33-.87-10.69.07-1.95.3-3.95.72-6.11.37-1.9.86-3.82,1.46-5.71.24-.77.53-1.47.78-2.1.11-.27.22-.52.3-.75.34-.89.72-1.8,1.13-2.71,3.21-7.12,8.05-13.66,14-18.91,6.29-5.55,13.87-9.71,21.93-12.03C170.18.82,176.14,0,182.31,0c3.07,0,6.21.2,9.35.61,1.34-.08,2.69-.12,4.04-.12h.24c5.82.02,11.73.77,17.57,2.23,3.37.85,6.09,1.7,8.58,2.7,2.78,1.1,5.6,2.66,8.36,4.63,2.35,1.68,4.66,3.65,6.87,5.86,1.7,1.7,3.86,4.02,5.5,6.89,2.93,5.11,3.94,10.81,4.84,15.84l.03.18c.19,1.04.38,2.1.58,3.12.83,4.5,1.7,9.15,1.94,13.96.32,6.46-.78,12.87-3.19,18.53Z" fill="#e5e1c3"/>
    <g>
      <path d="M235.3,48.15h0c-.35-1.08-1.16-2.05-1.9-2.88-.78-.88-1.67-1.71-2.62-2.4-.33-.24-.68-.45-1.02-.67.02-.02.05-.04.07-.06,1.31-1.7,2.04-3.94,2.47-6.03.45-2.16.4-4.43-.18-6.56-.49-1.8-1.31-3.48-2.59-4.85-1.37-1.47-3.01-2.74-4.86-3.55-3.59-1.58-8.13-1.44-11.55.54-3.29,1.9-5.69,5.35-6.69,8.98-1.09,3.98-.52,8.42,1.6,11.96.13.22.27.45.42.66.13.18.33.3.52.42-1.62,1.37-2.99,3.02-3.99,4.88-.46.85,1.55,1.3,1.95.56,2.02-3.76,5.63-6.64,9.68-7.81,2.11-.61,4.09-.77,6.24-.46.54.08.92.16,1.49.31.54.14,1.07.31,1.6.49,1,.35,2.05.85,2.98,1.42,1.06.65,2.03,1.39,2.93,2.24.96.9,1.69,1.97,2.56,2.95.16.18,1.01.3.87-.12h0ZM210.22,42.72c-.16.11-.31.25-.47.37-.01-.02,0-.05-.02-.07-.12-.19-.25-.41-.37-.62-.25-.43-.46-.87-.65-1.32-.39-.88-.7-1.8-.92-2.74-.44-1.91-.51-3.91-.2-5.85.57-3.57,2.55-7.05,5.44-9.26,1.15-.88,2.47-1.48,3.84-1.81-.78,2.24-1.22,4.58-1.24,6.96-.02,2.55.38,5.08,1,7.55.18.71.35,1.43.55,2.14.1.34.2.67.32,1.01.07.2.13.4.21.6-.33.05-.67.09-1,.16-2.32.49-4.54,1.52-6.48,2.89ZM224.13,39.84c-.46-.1-.94-.16-1.41-.22.13-.3.23-.62.32-.92.19-.62.34-1.26.48-1.9.27-1.32.39-2.68.4-4.03,0-.04-.01-.08-.03-.12,0,0,0,0,0,0,.03-.1-.08-.22-.15-.27-.33-.26-.84-.33-1.23-.44-.39-.11-.82-.24-1.23-.35-.41-.12-.79-.24-1.19-.34-.22-.05-.45-.12-.68-.16.06-.1.11-.21.16-.31.14-.25.27-.47.39-.72.28-.53.57-1.06.87-1.57.3-.51.64-1.03.99-1.52.17-.25.35-.48.54-.72.12-.16.29-.31.36-.49.14-.1.22-.25.09-.42-.71-.88-1.49-1.7-2.28-2.51-.54-.55-1.08-1.16-1.67-1.71,1.21-.05,2.43.11,3.6.51,1.71.58,3.32,1.7,4.65,2.94.49.46.97.98,1.4,1.57.49.66.84,1.4,1.13,2.17.77,1.96,1.04,4.05.82,6.13-.22,2.09-.91,3.99-1.88,5.8-.18.33-.36.67-.53,1-1.25-.62-2.56-1.1-3.93-1.39Z" fill="#f59835"/>
      <path d="M226.34,55.05c-.96-.88-2.15-1.41-3.43-1.65-2.13-.41-4.47-.08-6.38.95-.5.27-.97.61-1.4.99-.33.29-.99.86-.92,1.36.04.24.4.3.6.23h0s0,0,0,0c.55-.2.98-.68,1.43-1.04.49-.39,1.05-.71,1.61-.98.84-.4,1.8-.65,2.73-.67-.92,3.04-2.34,5.89-4.4,8.37-1.31,1.58-2.76,3.01-4.41,4.23-1.33.99-2.88,1.85-4.49,2.55-.12.01-.23.05-.29.12-.28.12-.56.25-.85.36-3.98,1.53-8.35,2.07-12.58,1.48-4.42-.61-8.75-2.36-12.09-5.36-1.55-1.39-2.91-3.02-3.93-4.84-.51-.9-.99-1.86-1.25-2.87-.81-3.61-.23-5.25-.22-5.56.57.1,1,.26,1.58.5.57.24,1.12.58,1.63,1.02.23.2.45.42.65.65.11.13.21.27.32.4.21.25.5.33.81.42.32.09.9.02,1.07-.33.21-.43-.09-.72-.36-1.03-.25-.28-.53-.54-.82-.78-.55-.47-1.18-.85-1.84-1.17-1.37-.65-2.89-.87-4.4-.76-1.5.12-2.81.51-4,1.34-1.12.79-2.03,1.85-2.62,3.09-.32.68-.57,1.42-.66,2.18-.04.39-.04.79-.02,1.18.02.41.13.77.25,1.16.09.32,1,.35.99-.04,0-.31.05-.61.06-.92,0-.31.04-.62.09-.92.12-.6.28-1.2.5-1.76.45-1.13,1.17-2.14,2.09-2.92.88-.75,1.95-1.24,3.09-1.38-.06,1.56,0,4.31.47,6.22-1.29,1.35-3.07,4.05-3.5,5.35-.48,1.44-.64,2.97-.75,4.44-.23,3.02.25,6.13,1.12,9.03.47,1.55,1.1,3.02,2,4.38.9,1.35,2.07,2.44,3.36,3.44,2.45,1.91,5.25,3.42,8.21,4.41,5.79,1.93,12.17,1.94,17.91-.16,5.43-1.99,10.2-5.69,13.32-10.53,3.33-5.16,4.81-11.67,3.87-17.74-.12-.75-.27-1.5-.45-2.23,0-.03-.03-.05-.04-.07.8-1.53,1.43-3.15,1.86-4.81.72.14,1.42.4,2.08.81.52.33,1,.75,1.32,1.29.15.25.27.53.35.81.08.28.06.66.21.92.33.57,1.52.73,1.87.08.26-.49-.05-1.29-.27-1.76-.26-.55-.62-1.04-1.07-1.45ZM206.93,70.71c-.06,1.9-.28,3.8-.74,5.65-2.3.53-4.61,1.07-6.92,1.55-.13.03-.25.05-.38.08-.04,0-.08.02-.11.02,0-.07-.04-.3-.04-.34-.01-.15-.02-.3-.03-.45-.04-.6-.08-1.2-.12-1.79-.04-.6-.08-1.2-.12-1.79-.03-.39-.05-.77-.09-1.14,2.31-.11,4.59-.51,6.81-1.19.6-.18,1.19-.39,1.76-.61ZM186.91,70.61s0,.01,0,.02h0c-.19,1.17-.23,2.37-.34,3.55-.09,1-.18,1.99-.27,2.99-2.14-.69-4.28-1.4-6.41-2.11-.14-2.86.08-5.74.28-8.59,1.99,1.77,4.29,3.15,6.75,4.14Z" fill="#f59835"/>
      <path d="M245.23,56.15c-.28-5.54-1.48-11-2.45-16.45-.88-4.95-1.76-10-4.29-14.42-1.26-2.19-2.92-4.06-4.7-5.85-1.93-1.93-4.01-3.74-6.24-5.33-2.23-1.59-4.71-3.03-7.3-4.06-2.57-1.02-5.26-1.81-7.95-2.49-5.35-1.34-10.87-2.07-16.38-2.09-1.48,0-2.96.04-4.44.14-8.51-1.16-17.25-.78-25.53,1.61-7.39,2.13-14.25,5.89-20.01,10.98-5.37,4.74-9.8,10.68-12.75,17.21-.36.8-.7,1.62-1.02,2.44-.31.82-.71,1.7-.99,2.58-.54,1.69-.98,3.41-1.32,5.15-.34,1.76-.57,3.54-.63,5.33-.11,3.22.2,6.45.79,9.61.68,3.68,1.78,7.29,3.26,10.73,1.66,3.85,3.8,7.5,6.39,10.78,2.86,3.62,6.27,6.78,10.08,9.37,4.41,2.99,9.33,5.17,14.44,6.65,6.2,1.79,12.7,2.55,19.15,2.46,1.5-.02,3-.08,4.5-.21.62.08,1.23.15,1.85.21,5.27.55,10.8.82,16.12-.11,5.11-.88,10.04-2.67,14.6-5.13,4.58-2.47,8.8-5.61,12.51-9.26,3.95-3.89,7.33-8.43,9.51-13.55,2.18-5.12,3.08-10.75,2.8-16.33ZM136.09,73.7c-1.71-3.41-3.03-7.02-3.92-10.73-.77-3.2-1.24-6.44-1.32-9.79-.1-4.19.58-8.33,1.83-12.33.26-.83.47-1.7.78-2.52.31-.82.65-1.64,1.01-2.44.72-1.61,1.52-3.19,2.41-4.71,1.78-3.06,3.89-5.92,6.27-8.53,3.43-3.76,7.44-7.02,11.84-9.61.02-.01.04-.02.05-.03-.83.65-1.65,1.31-2.45,1.98-2.37,2.01-4.71,4.32-6.79,6.75-4.11,4.79-7.53,10.23-9.76,16.15-2.1,5.59-2.95,11.56-2.73,17.52.22,5.98,1.47,11.94,3.63,17.52,1.31,3.38,2.96,6.65,4.97,9.68,0,0-.02-.02-.03-.03-2.28-2.73-4.21-5.7-5.81-8.88ZM168.71,98.13c-5.19-1.1-10.29-2.93-14.88-5.56-2.57-1.48-4.96-3.17-7.16-5.1-1.33-1.51-2.58-3.1-3.71-4.78-1.66-2.47-3.08-5.11-4.26-7.84-2.36-5.45-3.83-11.32-4.29-17.25-.46-5.93.12-11.75,1.93-17.36,1.92-5.95,5.08-11.49,8.97-16.37,3.89-4.87,8.52-9.17,13.7-12.62.54-.36,1.07-.71,1.61-1.07h0c7.64-3.29,16.05-4.59,24.34-4.24.71.03,1.43.07,2.14.12-2.55.36-5.08.88-7.56,1.58-5,1.41-9.8,3.55-14.16,6.39-.41.27-.82.54-1.23.82,0,0,0,0-.01,0-2.94.02-6.01.53-8.61,1.94-1.32.72-2.46,1.69-3.53,2.74-1.07,1.05-2.17,2.22-3.17,3.4-1.09,1.3-2.03,2.71-2.95,4.12-.97,1.49-1.88,3.02-2.71,4.6-1.51,2.9-2.68,5.97-3.37,9.18-.79,3.65-.96,7.39-.82,11.12.08,1.97.28,3.93.39,5.9.1,1.78.08,3.56.12,5.34.04,1.78.11,3.5.42,5.22s.86,3.33,1.61,4.89c.75,1.56,1.64,3.11,2.67,4.5.54.74.98,1.56,1.45,2.35.47.78.95,1.53,1.46,2.27,2.06,2.98,4.7,5.52,7.65,7.61,1.48,1.04,2.98,2.11,4.56,2.99,1.44.81,3.08,1.52,4.77,1.46.79-.02,1.56-.23,2.25-.61.04-.02.07-.05.09-.08,0,0,0,0,0,0,2.47,1.36,5.05,2.5,7.71,3.43,2.96,1.03,6,1.81,9.07,2.38-4.89-.1-9.75-.46-14.54-1.48ZM147.72,56.01c.15,5.93,1.28,11.91,3.34,17.51,2.04,5.53,5.02,10.8,9.05,15.12,0,0,0,0,0,0-2.53-2.02-4.8-4.36-6.75-6.95-2.69-3.55-4.94-7.67-6.5-11.96-1.56-4.29-2.51-8.86-2.73-13.46s.29-9.18,1.53-13.6c1.28-4.56,3.3-8.91,5.87-12.89,2.58-3.98,5.72-7.57,9.28-10.69,1.88-1.64,3.88-3.15,5.98-4.49.01,0,.02-.01.04-.02-.48.4-.95.8-1.41,1.21-2.28,2.03-4.42,4.28-6.32,6.69-3.8,4.8-6.79,10.23-8.76,16.03-1.91,5.63-2.77,11.56-2.62,17.5ZM243.43,64.06c-.87,5.39-3.23,10.77-6.47,15.31-3.04,4.26-6.87,7.97-11.06,11.09-4.06,3.02-8.56,5.49-13.34,7.19-4.77,1.69-9.73,2.58-14.76,2.47-5.32-.12-10.65-.6-15.86-1.71-4.86-1.04-9.63-2.64-14.02-5-2.05-1.1-4.02-2.37-5.88-3.77-1.88-1.98-3.61-4.1-5.12-6.38-1.6-2.43-3-5.11-4.13-7.83-2.27-5.47-3.61-11.33-3.99-17.24s.26-11.7,1.92-17.34c1.71-5.82,4.46-11.34,8.02-16.25,3.57-4.91,7.93-9.17,12.93-12.55.37-.25.74-.5,1.11-.74,0,0,0,0,0,0,4.79-2.22,9.95-3.64,15.18-4.33,5.26-.69,10.65-.66,15.92.02,2.67.35,5.32.85,7.94,1.51,2.6.65,5.2,1.41,7.68,2.42,4.97,2,9.34,5.38,13.08,9.17,1.71,1.73,3.33,3.55,4.51,5.68,1.18,2.14,1.96,4.48,2.68,6.84.73,2.42,1.21,4.88,1.65,7.37.47,2.63.97,5.25,1.42,7.89.9,5.34,1.45,10.8.58,16.19Z" fill="#f59835"/>
      <path d="M166.47,84.99c0-.07-.03-.13-.08-.17-.02-.03-.04-.06-.06-.09-.01-.02-.02-.03-.03-.04-.05-.07-.12-.1-.19-.14-.03-.02-.06-.02-.1-.03-.07-.04-.15-.06-.23-.08l-.17-.02c-.09,0-.17,0-.25.02-.05,0-.1.02-.14.04-.06.02-.12.05-.17.1-.04.05-.07.1-.09.16,0,.02-.03.03-.03.05-.02.06-.02.12,0,.18.02.05.05.1.08.15l.07.11s.08.06.12.09c.02.03.04.06.07.09.05.05.1.09.17.12.07.04.14.07.22.08l.18.02c.09,0,.17,0,.26-.02.05,0,.1-.02.15-.05.07-.02.13-.06.18-.11l.07-.09c.04-.07.04-.14,0-.22h0s-.03-.06-.04-.08c0-.02.01-.05,0-.07Z" fill="#f59835"/>
      <path d="M161.13,58.85l-.02-.03s-.02-.03-.03-.05c0,0,0,0,0-.02,0-.02-.02-.03-.03-.05-.03-.05-.07-.09-.12-.12h0s-.08-.04-.12-.06c0,0-.01,0-.02,0-.01,0-.03-.01-.04-.02,0,0-.01,0-.01,0-.04-.01-.08-.03-.12-.04l-.13-.02c-.06,0-.13,0-.19.02-.04,0-.07.01-.11.03-.05.02-.09.04-.13.08h0s0,0,0,0c0,0-.01,0-.01,0-.02.01-.02.02-.04.04-.01.02-.02.02-.02.03,0,0,0,0,0,0-.04.05-.03.03-.05.09-.01.04-.01.04-.01.06h0s.01.05,0,.07c0,.04,0,.09.02.12h0s.04.07.06.1c0,0,.01,0,.01.01,0,0,.02.02.02.02l.09.07.12.06c.07.03.14.05.22.05.03,0,.05,0,.08,0,0,0,.01,0,.02,0h.13c.06-.01.11-.04.17-.06l-.04.02h.02s.03-.02.05-.03c.01,0,.02,0,.03,0,.01,0,.02-.02.03-.02.02-.01.04-.02.06-.03.03-.02.06-.04.08-.08.04-.04.05-.08.06-.14v-.04s-.02-.1-.02-.1h0Z" fill="#f59835"/>
      <path d="M164.39,51.45s-.04-.07-.06-.11-.04-.07-.05-.1c0,0,0-.02-.01-.02-.05-.08-.09-.14-.17-.2-.02-.01-.04-.03-.06-.03v.03s-.08-.07-.13-.09c-.1-.04-.2-.06-.31-.06-.11,0-.21,0-.31.04-.08.02-.16.06-.23.12-.06.05-.09.11-.09.18,0,.02-.01.04-.01.05,0,.06.01.1.04.15.02.04.04.07.06.11.02.04.04.07.06.1.01.02.02.03.03.05.03.05.05.11.09.14.05.05.1.09.16.12.07.04.14.07.22.08l.17.02c.09,0,.17,0,.25-.02.05,0,.1-.02.15-.04.07-.02.12-.05.17-.1l.07-.09c.03-.07.04-.14,0-.21,0-.02-.02-.04-.03-.05,0-.02-.02-.03-.03-.05ZM163.25,51.45h0s0-.01,0-.01c0,0,0,0,0,.01h0ZM163.29,51.43v-.02s.03-.03.03-.03c-.01.01-.02.03-.03.05Z" fill="#f59835"/>
      <path d="M203.39,54.97s-.06-.06-.09-.08c0,0-.01,0-.02,0-.03-.02-.06-.03-.09-.04l-.09-.05c-.06-.02-.11-.04-.17-.04-.04,0-.08,0-.12,0-.06,0-.12,0-.18.03l-.1.04-.08.05s-.05.06-.06.1c-.02.03-.01.07,0,.11h0s.02.04.03.06c.02.04.04.08.07.1l.03.03s.08.07.13.09c.05.03.11.05.17.06.07.01.14.02.2.01.06,0,.13,0,.19-.03l.11-.04c.06-.03.1-.07.14-.13l.02-.08c0-.06-.02-.11-.06-.16l-.03-.03Z" fill="#f59835"/>
      <path d="M234.65,51.34s-.04-.06-.05-.09c-.04-.06-.07-.12-.1-.18-.04-.08-.09-.14-.17-.19l-.13-.07c-.11-.04-.22-.07-.34-.07-.09,0-.18,0-.26.02-.08.01-.15.04-.22.08-.06.03-.11.07-.14.13-.04.04-.06.09-.07.15,0,.08.03.15.08.21h0s0,0,0,0c.05.07.09.14.14.22.02.03.04.07.07.1.05.04.09.09.14.12.09.05.18.09.28.11.06.01.12.02.17.02.11,0,.22,0,.32-.04.05-.01.09-.03.13-.06.07-.04.13-.09.17-.16.03-.07.04-.14,0-.21,0-.02,0-.03-.01-.05s-.01-.03-.02-.05Z" fill="#f59835"/>
      <path d="M164.41,10.25h0c.05.07.09.14.14.22.02.03.04.07.07.1.05.04.09.09.14.12.09.05.18.09.28.11.06.01.12.02.17.02.11,0,.22,0,.32-.04.05-.01.09-.03.13-.06.07-.04.13-.09.17-.16.03-.07.04-.14,0-.21,0-.02,0-.03-.01-.05s-.01-.03-.02-.05c-.02-.03-.04-.06-.05-.09-.04-.06-.07-.12-.1-.18-.04-.08-.09-.14-.17-.19l-.13-.07c-.11-.04-.22-.07-.34-.07-.09,0-.18,0-.26.02-.08.01-.15.04-.22.08-.06.03-.11.07-.14.13-.04.04-.06.09-.07.15,0,.08.03.15.08.21h0Z" fill="#f59835"/>
      <path d="M167.56,95.68s-.04-.06-.05-.09c-.04-.06-.07-.12-.1-.18-.04-.08-.09-.14-.17-.19l-.13-.07c-.11-.04-.22-.07-.34-.07-.09,0-.18,0-.26.02-.08.01-.15.04-.22.08-.06.03-.11.07-.14.13-.04.04-.06.09-.07.15,0,.08.03.15.08.21h0s0,0,0,0c.05.07.09.14.14.22.02.03.04.07.07.1.05.04.09.09.14.12.09.05.18.09.28.11.06.01.12.02.17.02.11,0,.22,0,.32-.04.05-.01.09-.03.13-.06.07-.04.13-.09.17-.16.03-.07.04-.14,0-.21,0-.02,0-.03-.01-.05s-.01-.03-.02-.05Z" fill="#f59835"/>
      <path d="M238.26,57.19s0-.07-.03-.1c-.02-.04-.05-.06-.08-.08-.07-.04-.15-.07-.24-.08s-.18,0-.27.02c-.07.03-.16.06-.2.14h0s-.02.03-.02.05c-.02.02-.04.03-.05.05,0,.02-.02.03-.03.05-.02.03-.03.06-.05.09-.02.03-.03.06-.04.09-.01.03-.02.07-.03.1-.02.04-.03.07-.01.11,0,.04.02.08.05.11.03.04.07.07.12.08.05.03.1.05.16.06.12.02.25.03.37-.01l.1-.04c.05-.03.1-.07.13-.12.01-.03.03-.06.04-.09,0-.01.02-.03.02-.04.02-.03.02-.07.03-.11l.04-.18s-.01-.03-.01-.04v-.05Z" fill="#f59835"/>
      <path d="M232.21,63.35l-.04-.07-.04-.03.02-.02.02-.08s-.01-.08-.04-.11c-.02-.04-.05-.07-.09-.09h0s0,0,0,0c0,0,0,0,0,0h0c-.1-.06-.21-.09-.33-.1-.09-.02-.18-.02-.27-.01-.1.01-.16.03-.25.08,0,0-.02,0-.03.01-.04.02-.08.05-.11.08,0,0-.02.01-.02.02-.03.04-.07.08-.09.12,0,0,0,.02,0,.02,0,0,0,0,0,0-.04.04-.05.08-.06.13,0,.04.01.09.02.13,0,0,0,.01,0,.02.02.03.04.07.06.1,0,0,.01.02.03.03.04.03.07.07.12.1,0,0,0,0,0,0,.02,0,.04.02.06.03.02.01.04.02.06.03l.14.04h.02c.05,0,.13.02.19.02.11,0,.25,0,.35-.05.07-.02.14-.06.2-.11.04-.04.06-.09.07-.14,0,.01,0,.03-.01.04,0,0,0-.02.01-.03,0,0,0-.02,0-.03,0,0,0,0,0,0h0s.01-.05.01-.07v-.07ZM231.51,63.18h0s0,0-.01,0h0ZM231.53,63.41h.01s.11.01.11.01h0s-.12-.01-.12-.01ZM231.75,63.41s0,0,.01,0h0s-.01,0-.01,0Z" fill="#f59835"/>
      <path d="M216.98,84.55s-.01-.02-.01-.02l-.04-.07-.07-.06s0,0-.01,0c0,0,0,0,0,0-.03-.03-.07-.06-.11-.09-.09-.05-.18-.08-.28-.08-.09,0-.17,0-.25.04-.05.02-.13.06-.15.12l-.02.06s.02.06.04.09c0,0,0,0,0,0h0s0,0,0,0c0,.01-.01.02-.01.03,0,.03,0,.05,0,.08,0,.01,0,.02,0,.03,0,.01-.01.02-.02.04,0,0-.01.01-.02.02h.01s0,0-.01.01c-.02.02-.05.04-.07.07l-.02.08c0,.06.02.11.06.15.04.04.08.07.13.09.05.03.11.05.17.06.07.01.13.02.2.01.06,0,.13,0,.19-.03.07-.02.13-.05.18-.1.01,0,.03-.02.04-.03.03-.03.06-.07.08-.1.03-.05.04-.11.06-.17.01-.05,0-.09,0-.14,0-.03-.01-.06-.03-.08ZM216.06,84.69s-.02.02-.03.03h0s.03-.03.03-.03ZM216.02,84.71h0s0,0,0,0c0,0-.02.02-.02.02l.02-.03Z" fill="#f59835"/>
      <path d="M201.26,93.88s-.09-.05-.15-.06c-.06-.02-.11-.03-.18-.03h-.12c-.07.01-.14.03-.2.07l-.07.05s-.07.08-.07.13h0s0,.07,0,.07v.03s0,.07.02.1l.04.06s.07.06.11.08c.03.02.06.04.1.04.06.02.11.03.17.03h.12s.11-.03.11-.03c.05-.01.09-.03.13-.06.04-.02.06-.05.08-.09.02-.03.02-.07.02-.1v-.03s0-.04.01-.07c0-.04,0-.08-.03-.1-.02-.04-.05-.07-.09-.09Z" fill="#f59835"/>
      <path d="M137.31,46.32s.06-.05.08-.09c.02-.03.02-.07.02-.1v-.03s.01-.04.01-.07c0-.04,0-.08-.03-.1-.02-.04-.05-.07-.09-.09-.05-.03-.09-.05-.15-.06-.06-.02-.11-.03-.18-.03h-.12c-.07.01-.14.03-.2.07l-.07.05s-.07.08-.07.13h0s0,0,0,0v.07s0,.03,0,.03c0,.03,0,.07.02.1l.04.06s.07.06.11.08c.03.02.06.03.1.04.06.02.11.03.17.03h.12s.11-.03.11-.03c.05-.01.09-.03.13-.06Z" fill="#f59835"/>
      <path d="M169.02,9.59s0,.07.02.1l.04.06s.07.06.11.08c.03.02.06.03.1.04.06.02.11.03.17.03h.12s.11-.03.11-.03c.05-.01.09-.03.13-.06.04-.02.06-.05.08-.09.02-.03.02-.07.02-.1v-.03s.01-.04.01-.07c0-.04,0-.08-.03-.1-.02-.04-.05-.07-.09-.09-.05-.03-.09-.05-.15-.06-.06-.02-.11-.03-.18-.03h-.12c-.07.01-.14.03-.2.07l-.07.05s-.07.08-.07.13h0s0,.07,0,.07v.03Z" fill="#f59835"/>
      <path d="M187.63,15.23s.01,0,.02.01c.02.02.04.04.05.06,0,0,0,.01.01.02.04.1.15.17.25.21.07.03.13.04.21.05.07.01.15.01.22,0l.13-.03c.08-.02.15-.06.21-.11l.06-.08c.03-.06.03-.12,0-.18-.03-.06-.07-.12-.11-.18-.02-.03-.05-.06-.08-.09-.11-.11-.23-.18-.38-.25-.07-.03-.13-.04-.21-.05-.07-.01-.15-.01-.22,0-.1.02-.2.05-.28.1-.05.01-.11.03-.14.07l-.04.05s-.02.06,0,.08c0,.03.03.05.06.08.03.1.14.17.23.22ZM187.68,15.13h0s0,0,0,0h0ZM187.63,15.12h.02s0,0,0,0c.01,0,.02.01.04.01h-.06Z" fill="#f59835"/>
      <path d="M202.33,20.23s.02.04.03.06c0,.02.01.03.02.05.11.23.52.28.72.23,0,0,0,0,0,0,.14-.02.24-.09.3-.19,0-.01.02-.03.02-.04,0-.02.03-.03.03-.06v-.08c.04-.46-1.12-.51-1.13-.05h0s0,.08,0,.08Z" fill="#f59835"/>
      <path d="M135.88,58.79h0s0,.08,0,.08c0,.03.02.04.03.06,0,.02.01.03.02.05.11.23.52.28.72.23,0,0,0,0,0,0,.14-.02.24-.09.3-.19,0-.01.02-.03.02-.04,0-.02.03-.03.03-.06v-.08c.04-.46-1.12-.51-1.13-.05Z" fill="#f59835"/>
      <path d="M190.87,22c.14,0,.43-.04.44-.23s-.28-.26-.42-.27c-.14,0-.43.04-.44.23,0,.19.28.26.42.27Z" fill="#f59835"/>
      <path d="M137.55,62.21c-.14,0-.43.04-.44.23,0,.19.28.26.42.27.14,0,.43-.04.44-.23s-.28-.26-.42-.27Z" fill="#f59835"/>
      <path d="M182.12,38.92c2.03.29,4.04.79,5.97,1.49-1.1,1.87-2.81,3.34-4.88,4.08-.75.26-.48,1.48.28,1.21,2.45-.87,4.51-2.56,5.77-4.84.48.2.96.41,1.43.63.72.34,1.4-.71.67-1.05-.56-.27-1.13-.52-1.7-.75.64-3.27.06-6.76-1.78-9.57-1.74-2.67-4.43-4.63-7.5-5.46-.77-.21-1.16.98-.38,1.19,2.75.75,5.21,2.46,6.78,4.86,1.64,2.5,2.24,5.61,1.7,8.54-8.95-3.2-19.06-2.22-27.18,2.9-.12.07-.23.15-.35.23-.68-4.13.59-8.49,3.42-11.58.54-.59-.3-1.51-.84-.92-3.23,3.53-4.64,8.47-3.72,13.17,0,.03.01.06.02.09-.2.14-.4.29-.59.44,0,0,0,.02,0,.03-.03.08-.07.15-.13.22.05.38.09.77.11,1.16.05.02.11.05.16.08,6.37-5,14.61-7.29,22.74-6.14Z" fill="#f59835"/>
      <path d="M167.96,44.81c3.22-2.15,7.07-3.1,10.91-2.67.8.09.84-1.16.05-1.25-4.04-.45-8.17.55-11.55,2.81-.66.44-.08,1.55.58,1.1Z" fill="#f59835"/>
    </g>
  </g>
</svg>