<?xml version="1.0" encoding="UTF-8"?>
<svg id="a" xmlns="http://www.w3.org/2000/svg" version="1.1" viewBox="0 0 1511.65 1555.82">
  <!-- Generator: Adobe Illustrator 30.2.1, SVG Export Plug-In . SVG Version: 2.1.1 Build 1)  -->
  <defs>
    <style>
      .st0 {
        fill: #2a2a2a;
      }

      .st1 {
        fill: #e5e1c3;
      }
    </style>
  </defs>
  <path class="st1" d="M712.36,1201.2c-42.09,0-82.93-4.77-121.39-14.19-43.52-10.66-83.43-27.14-118.65-48.97-32.18-19.94-60.92-44.54-85.42-73.12-21.84-25.43-40.5-54.16-55.45-85.37-13.05-27.27-23.08-56.05-29.82-85.54-6.2-27.24-9.42-53.6-9.58-78.36-.09-14.49,1.05-29.28,3.46-45.22,2.13-14.11,5.16-28.38,9.01-42.41,1.56-5.74,3.46-10.98,5.13-15.6.69-1.91,1.37-3.78,1.98-5.61,2.21-6.61,4.74-13.44,7.5-20.31,21.4-53.22,55-102.7,97.15-143.06,44.49-42.64,98.95-75.49,157.48-94.97,47.11-15.64,97.81-23.57,150.73-23.57,15.61,0,31.54.7,47.4,2.09,10.47-1.04,20.88-1.75,31.02-2.15,6.43-.24,12.95-.37,19.4-.37,36.47,0,73.58,3.88,110.28,11.52,24.8,5.15,45.05,10.61,63.73,17.17,20.77,7.29,41.93,17.92,62.89,31.59,17.9,11.71,35.48,25.51,52.28,41.04,13.83,12.78,29.72,28.62,42.62,49.18,23.08,36.72,32.23,78.15,40.32,114.7l.34,1.55c1.68,7.62,3.42,15.21,5.16,22.81,7.46,32.62,15.18,66.35,18.37,101.48,4.29,47.52-1.91,95.01-17.94,137.36-15.22,40.3-39.92,78.87-73.4,114.59-28.77,30.75-61.45,57.07-97.13,78.24-37.32,22.13-76.59,37.73-116.72,46.38-24.78,5.35-51.87,7.95-82.79,7.95-13.77,0-28.66-.51-45.51-1.57-3.48-.22-6.97-.46-10.47-.74-9.92,1.15-20.25,2.01-31.43,2.62-10.19.55-20.46.83-30.53.83Z"/>
  <g>
    <path class="st0" d="M767.29,673.72c-.93-15.3-5.25-29.83-13.05-42.63-8.32-13.55-20.47-24.2-34.69-31.28-28.13-14.01-61.53-14.55-90.68-3.23-27.43,10.68-51.73,31.82-62.61,59.61-5.69,14.45-7.57,30.32-6.15,45.76,1.24,13.52,5.09,27.94,12.41,39.47,1.32,2.04,2.71,4.03,4.14,6-8.01,6.28-15.33,13.47-21.64,21.4-6.05,7.65-11.43,15.98-15.56,24.84-4.16,8.84-8.22,18.72-8.58,28.46-.1,2.87,6.36,2.82,7.24.59h-.03c3.02-7.78,5.04-15.87,8.48-23.55,3.44-7.65,7.45-14.89,12.23-21.69,9.46-13.44,21.59-25.05,35.54-33.76,3.52-2.2,7.16-4.21,10.91-6.02,3.96-1.89,8.19-3.1,12.36-4.47,8.27-2.71,17.42-3.98,25.88-4.73,17.53-1.55,35.34.62,51.81,6.85,8.89,3.33,17.97,7.73,25.33,13.8,3.39,2.74,6.44,6,9.02,9.51,1.29,1.76,2.35,3.65,3.28,5.61.44.98.7,2.02,1.16,3,.72,1.65,1.96,2.71,3.23,3.98,1.91,1.91,4.89,2.51,7.52,2.25,1.96-.18,5.69-1.06,6.28-3.41.31-1.11.85-2.46.8-3.59-.03-1.37-.67-2.61-1.29-3.77-1.21-2.3-2.56-4.5-4.06-6.62-1.19-1.68-2.53-3.28-3.93-4.81,7.86-9.36,13.96-20.09,17.86-31.72,4.89-14.5,7.73-30.53,6.8-45.86ZM648.4,602.32c-2.48,4.03-4.76,8.22-6.82,12.49-4.11,8.43-7.37,17.19-9.85,26.21-4.99,18.12-6.82,37.04-5.09,55.79.49,5.14,1.19,10.29,2.27,15.36.65,3.05,1.29,6.36,2.3,9.51-3.08.7-6.13,1.53-9.13,2.53-4.6,1.53-9.31,2.74-13.78,4.65-4.47,1.94-8.53,4.08-12.64,6.26-4.24,2.2-8.32,4.65-12.25,7.34-1.32-3.72-2.38-7.52-3.62-11.3-1.99-6.08-3.62-12.12-4.52-18.43-2.04-14.01-2.87-28.05.41-41.98,6.44-27.32,25.8-49.56,50.41-62.38,7.76-4.03,15.77-6.9,24.07-8.79-.59.9-1.19,1.84-1.76,2.74ZM748.55,707.66c-2.95,12.05-7.7,23.81-15.1,33.86-.28.36-.57.72-.85,1.11-6.51-4.81-13.57-8.76-20.97-12.07-13-5.79-27.09-9.49-41.34-10.94.54-.8,1.06-1.63,1.6-2.43,1.99-3.13,3.77-6.33,5.33-9.67,3-6.49,4.96-13.42,6.13-20.42.03-.08.05-.18.05-.28.03-.08.05-.18.05-.28.1-.54-.1-.96-.47-1.32-1.21-2.33-4.19-3.62-6.39-4.86-3-1.71-6.28-2.95-9.49-4.29-5.56-2.35-11.09-4.65-16.47-7.37,8.92-7.19,17.79-14.45,26.88-21.43.59-.47,1.68-1.27,1.5-2.2-.72-4.06-2.66-7.99-4.06-11.84-1.53-4.16-3.08-8.3-4.65-12.46-2.9-7.68-5.71-15.41-8.5-23.16.31-.03.59-.08.93-.1,2.09-.21,6.15-.36,9.15-.36,3.21,0,6.2.18,8.76.47,7.03.8,13.93,2.4,20.6,4.81,6.67,2.43,13.42,5.89,19.39,10.16,5.64,4.01,10.42,9.28,14.66,14.74,8.3,10.7,13.68,23.96,15.79,37.33,2.27,14.32.9,28.95-2.56,43.02Z"/>
    <path class="st0" d="M1049.53,809.57c-2.07-3.9-4.86-7.39-8.22-10.29-7.29-6.15-16.16-9.64-25.54-11.04-15.69-2.35-32.7.7-46.35,8.84-3.57,2.12-6.93,4.78-9.93,7.63-2.33,2.2-6.98,6.59-6.28,10.19.36,1.78,3.05,2.09,4.45,1.53v-.03h-.05c3.96-1.65,6.95-5.25,10.13-8.01,3.49-3.02,7.45-5.48,11.5-7.63,6.64-3.49,14.48-5.87,22.03-5.87.52,0,1.03.03,1.55.05-5.01,28.95-15.48,56.41-33.45,79.91-9.1,11.89-19.31,22.83-30.97,32.21-11.68,9.38-25.8,17.6-40.17,23.78-28.62,12.33-60.41,17.58-91.46,14.58-32.49-3.13-64.58-14.61-89.88-35.57-11.74-9.72-22.13-21.2-30.17-34.17-3.98-6.46-7.76-13.29-9.95-20.58-1.99-6.72-2.9-13.73-3.26-20.73-.1-2.04-.13-4.11-.16-6.2,1.06.1,2.09.21,3.05.34,4.21.54,7.42,1.55,11.66,3.18,4.27,1.63,8.35,3.93,12.23,6.93,1.73,1.4,3.39,2.95,4.91,4.58.85.9,1.6,1.94,2.46,2.84,1.63,1.78,3.75,2.27,6.02,2.79,2.38.54,6.54-.13,7.68-2.69,1.4-3.23-.85-5.25-2.97-7.42-1.91-1.99-4.03-3.8-6.2-5.51-4.19-3.28-8.89-5.87-13.8-7.96-10.19-4.34-21.38-5.51-32.34-4.21-10.93,1.32-20.37,4.55-28.82,10.99-7.96,6.1-14.27,14.14-18.2,23.37-2.17,5.07-3.77,10.57-4.16,16.08-.18,2.84-.08,5.76.18,8.61.28,3.02,1.21,5.58,2.17,8.43.78,2.33,7.39,2.22,7.21-.57-.13-2.27.16-4.47.13-6.72-.03-2.27.1-4.55.41-6.77.67-4.39,1.65-8.81,3.15-13.03,2.95-8.35,7.88-15.95,14.37-21.97,5.45-5.04,12.05-8.66,19.23-10.39.16,13.49,2.22,26.99,8.43,39.09.72,1.37,1.47,2.74,2.22,4.11-.57.36-1.09.78-1.45,1.32-5.95,8.89-10.44,18.46-13.39,28.77-2.92,10.29-3.62,21.07-3.98,31.46-.75,21.33,3.49,43.04,10.37,63.18,3.7,10.75,8.56,20.97,15.2,30.22,6.62,9.28,15.12,16.57,24.38,23.27,17.66,12.74,37.56,22.54,58.47,28.64,40.92,11.89,85.44,10.16,124.86-6.26,37.3-15.54,69.49-42.96,89.91-77.94,21.74-37.23,30.25-83.52,21.9-125.97-1.03-5.22-2.27-10.44-3.75-15.56-.1-.36-.31-.67-.59-.93,7.6-15.17,13.05-31.46,15.67-47.98.44-2.82.67-5.66.85-8.53,4.42.96,8.76,2.56,12.9,4.91,3.93,2.25,7.55,5.2,10.06,9.02,1.16,1.78,2.09,3.77,2.79,5.79.7,2.04.59,4.86,1.78,6.7,2.61,4.03,11.32,4.83,13.7,0,1.76-3.65-.78-9.44-2.51-12.77ZM765.76,968.14c-.34,7.03-.7,14.09-1.06,21.15-15.12-4.21-30.22-8.69-45.34-13.03-1.58-17.89-1.19-35.93-.7-53.9,14.76,10.03,31.12,17.6,48.24,22.72-.78,7.63-.8,15.38-1.14,23.06ZM903.26,977.93c-15.92,4.42-31.85,8.84-47.85,12.93-.9.21-1.76.47-2.64.67-.26.08-.54.13-.8.21-.1-.57-.36-2.09-.39-2.38-.13-1.06-.23-2.09-.36-3.15-.44-4.19-.9-8.38-1.37-12.56-.44-4.19-.93-8.4-1.37-12.59-.34-3.1-.49-6.13-1.01-9.07,14.99-1.76,29.73-5.14,44.05-10.16,5.25-1.86,10.34-3.9,15.3-6.13.31,14.14-.78,28.36-3.57,42.24Z"/>
    <path class="st0" d="M1179.66,819.05c-3.67-40.41-14.06-79.93-22.77-119.43-7.94-35.88-15.85-72.51-35.65-104.02-9.82-15.67-22.54-28.8-36.09-41.31-14.66-13.55-30.4-26.08-47.15-37.04-16.75-10.93-35.31-20.73-54.55-27.48-19.13-6.72-39.01-11.68-58.78-15.79-39.47-8.22-80.01-11.89-120.28-10.37-10.78.41-21.56,1.21-32.29,2.35-62.53-5.92-126.31-.54-186.1,19.31-53.36,17.76-102.32,47.28-142.9,86.19-37.82,36.22-68.45,80.94-88,129.54-2.4,5.97-4.65,12.02-6.7,18.12s-4.7,12.62-6.49,19.16c-3.41,12.46-6.13,25.15-8.07,37.97-1.96,12.98-3.1,26.03-3.02,39.16.16,23.55,3.39,47.02,8.61,69.98,6.1,26.7,15.17,52.74,26.99,77.42,13.24,27.63,29.96,53.64,49.92,76.88,21.92,25.57,47.8,47.67,76.42,65.4,33.11,20.53,69.67,35,107.44,44.26,45.83,11.22,93.58,14.84,140.6,12.31,10.99-.59,21.9-1.5,32.78-2.87,4.55.39,9.1.72,13.65,1.01,38.67,2.43,79.13,2.74,117.7-5.58,37.07-7.99,72.54-22.52,105.11-41.83,32.73-19.41,62.64-43.64,88.62-71.4,27.74-29.6,51.06-63.75,65.43-101.8,14.4-38.05,19.26-79.47,15.59-120.13ZM387.64,979.79c-13.52-24.43-24.17-50.38-31.85-77.22-6.59-23.16-10.96-46.69-12.54-71.09-1.99-30.58,1.78-60.98,9.72-90.58,1.65-6.15,2.95-12.54,4.94-18.59,1.99-6.07,4.27-12.18,6.64-18.17,4.73-11.97,10.19-23.71,16.21-35.11,12.07-22.88,26.63-44.36,43.25-64.16,23.94-28.49,52.27-53.43,83.55-73.68-5.74,4.86-11.37,9.85-16.85,14.92-16.73,15.38-33.11,32.96-47.59,51.29-28.62,36.17-51.93,76.96-66.44,120.85-13.7,41.46-18.12,85.31-14.74,128.79,3.41,43.61,14.32,86.76,31.77,126.85,10.5,24.17,23.45,47.46,38.96,68.89-17.45-19.23-32.44-40.28-45.03-63ZM633.15,1148.47c-38.21-6.49-76.05-18.33-110.31-36.19-19.31-10.08-37.35-21.9-54.08-35.39-10.06-10.57-19.54-21.71-28.2-33.53-12.87-17.55-23.99-36.4-33.45-55.99-18.87-39.14-31.31-81.53-36.42-124.73-5.12-43.17-2.66-85.82,8.89-127.37,12.25-44.05,33.66-85.46,60.65-122.25,26.96-36.68,59.53-69.49,96.35-96.27,3.83-2.77,7.63-5.48,11.43-8.25,54.86-26.32,115.94-38.28,176.56-38.26,5.27,0,10.52.13,15.79.31-18.56,3.36-36.94,7.88-54.88,13.73-36.14,11.79-70.52,28.85-101.54,50.87-2.92,2.09-5.82,4.21-8.69,6.39-21.51,1.03-43.82,5.66-62.38,16.8-9.46,5.69-17.48,13.11-25,21.07-7.55,7.96-15.2,16.85-22.13,25.8-7.57,9.8-14.01,20.37-20.32,31-6.64,11.22-12.87,22.65-18.43,34.41-10.19,21.66-17.76,44.41-21.84,68.04-4.7,26.88-4.83,54.29-2.66,81.46,1.14,14.35,3.23,28.59,4.63,42.94,1.24,12.95,1.65,25.98,2.46,38.98.8,13,1.86,25.51,4.6,37.97,2.74,12.49,7.32,24.09,13.24,35.23,6,11.22,12.93,22.23,20.86,32.11,4.19,5.22,7.6,11.12,11.27,16.7,3.67,5.61,7.39,10.91,11.35,16.16,15.95,21.15,35.96,38.91,58.16,53.3,11.09,7.19,22.39,14.5,34.2,20.5,10.78,5.48,22.96,10.16,35.29,9.25,5.79-.39,11.32-2.12,16.29-5.14.31-.21.54-.44.7-.67,18.41,9.18,37.61,16.83,57.31,22.83,22,6.67,44.49,11.4,67.19,14.68-35.83.75-71.48-.47-106.87-6.49ZM467.32,847.08c2.87,43.3,12.9,86.63,29.63,126.85,16.52,39.73,39.81,77.22,70.42,107.59-19-13.99-36.22-30.35-51.24-48.57-20.71-25.15-38.39-54.6-51.03-85.44-12.67-30.84-20.94-63.98-23.96-97.46-3.02-33.48-.65-67.16,7.13-99.78,8.01-33.71,21.4-66.07,39.06-95.91,17.63-29.83,39.53-57.03,64.63-80.84,13.21-12.54,27.38-24.04,42.27-34.49-3.26,2.95-6.46,5.92-9.59,8.94-16.05,15.48-30.97,32.57-44.18,50.77-26.32,36.19-46.56,76.75-59.2,119.72-12.25,41.67-16.83,85.28-13.93,128.61ZM1168.81,877.37c-4.73,39.6-20.4,79.59-42.68,113.77-20.91,32.03-47.85,60.26-77.5,84.33-28.72,23.29-60.88,42.68-95.26,56.46-34.36,13.8-70.31,21.74-107.07,22.41-38.91.72-77.99-1.19-116.38-7.78-35.83-6.13-71.12-16.42-103.87-32.34-15.41-7.47-30.22-16.18-44.31-25.93-14.24-13.88-27.45-28.75-39.09-44.93-12.38-17.24-23.4-36.4-32.52-55.99-18.22-39.27-29.73-81.66-34.28-124.73-4.52-43.04-1.55-85.57,8.87-127.24,10.75-43.07,29.16-84.17,53.77-121.09,24.61-36.89,55.19-69.36,90.74-95.49,2.61-1.91,5.25-3.83,7.86-5.71,34.36-17.66,71.61-29.6,109.66-36.19,38.26-6.62,77.6-8.01,116.3-4.58,19.65,1.73,39.14,4.65,58.45,8.66,19.16,3.98,38.39,8.79,56.85,15.38,36.89,13.11,69.82,36.53,98.29,63.08,13,12.12,25.33,24.89,34.61,40.17,9.28,15.25,15.67,32.13,21.59,49.17,6.05,17.45,10.26,35.29,14.24,53.33,4.19,19.05,8.63,38.05,12.69,57.18,8.17,38.78,13.75,78.46,9.05,118.06Z"/>
    <path class="st0" d="M613.15,1054.24h.04c-.08-.17-.16-.33-.24-.49.04-.21.03-.42-.06-.61-.04-.5-.26-.91-.65-1.25-.15-.22-.3-.41-.47-.63-.09-.11-.15-.22-.24-.3-.39-.52-.89-.71-1.42-.97-.37-.2-.78-.34-1.19-.45-.4-.13-.82-.22-1.22-.29l-1.25-.11c-.63,0-1.23.06-1.81.24-.37.06-.71.17-1.04.37-.45.17-.86.43-1.21.8-.2.25-.4.51-.55.79-.16.24-.27.5-.3.79-.15.43-.13.88.09,1.32.19.35.39.69.6,1.04l.56.8c.31.33.66.56,1.04.76.14.16.28.32.41.49.37.37.78.65,1.25.84.52.28,1.08.45,1.66.54l1.3.11c.65,0,1.27-.06,1.88-.26.39-.06.76-.19,1.08-.39.47-.17.91-.45,1.25-.84l.5-.71c.24-.52.24-1.06,0-1.58h0Z"/>
    <path class="st0" d="M566.11,863.84s-.09-.13-.13-.19c-.09-.13-.15-.24-.24-.37,0-.04-.06-.06-.06-.11-.06-.11-.15-.22-.24-.32-.22-.37-.52-.65-.91-.84h-.04c-.3-.15-.58-.3-.89-.43-.06-.02-.12-.03-.18-.05-.09-.04-.16-.07-.27-.1-.02,0-.09,0-.09-.02-.28-.09-.6-.17-.91-.24l-.95-.09c-.47,0-.93.04-1.38.19-.28.04-.54.13-.8.28-.35.13-.67.32-.93.6v.02h-.02s-.09.04-.09.06c-.13.09-.13.13-.26.32-.08.11-.13.18-.16.23-.02.03-.04.04-.05.07-.28.39-.22.24-.32.69-.06.28-.06.26-.06.43v.09c.04.13.09.26.09.39.04.28.09.69.19.86v.04c.17.22.32.43.47.65.02.02.09.06.09.09l.15.15.69.52.89.41c.52.19,1.06.3,1.62.3.03,0,.06,0,.1,0,.22.03.42.07.66.06l.97-.09c.33-.05.63-.14.93-.25h-.02s.15-.05.15-.05c.45-.13.86-.37,1.23-.67.24-.13.43-.32.56-.58.26-.28.37-.6.37-1.01v-.3l-.15-.71v-.04Z"/>
    <path class="st0" d="M588.19,809.49c-.05-.13-.16-.26-.21-.39-.08-.1-.13-.21-.23-.34-.16-.26-.28-.49-.44-.75-.16-.26-.31-.49-.44-.75-.05-.05-.05-.1-.1-.16-.36-.62-.67-1.01-1.32-1.4-.16-.08-.31-.15-.47-.23l.03.05c-.31-.18-.65-.34-.96-.47-.75-.26-1.5-.36-2.27-.36s-1.53.13-2.27.36c-.59.21-1.14.52-1.6.98-.39.36-.62.83-.62,1.34,0,.13-.05.26-.05.39-.03.44.13.75.34,1.06.16.26.34.52.49.78.13.26.28.47.47.7.08.13.16.23.23.36.21.36.44.78.72,1.03.34.36.75.62,1.21.8.49.26,1.03.44,1.63.52l1.27.1c.62,0,1.24-.08,1.84-.23.36-.08.72-.18,1.06-.39.47-.16.88-.41,1.24-.8l.47-.67c.21-.52.21-1.01,0-1.55ZM579.72,808.97l.03-.13.16-.21c-.1.1-.13.23-.18.34Z"/>
    <path class="st0" d="M866.46,823.94c.06.15.15.3.22.45.13.28.28.54.52.73l.24.22c.28.28.6.5.97.63.39.22.82.35,1.27.41.5.09.99.11,1.49.04.47,0,.95-.11,1.4-.26l.76-.35c.43-.24.73-.56.97-.99l.13-.6c0-.45-.19-.82-.52-1.12l-.24-.22c-.22-.19-.43-.41-.71-.54-.04-.02-.11-.04-.15-.06-.22-.11-.43-.19-.65-.3l-.69-.32c-.41-.15-.84-.24-1.27-.24-.3-.04-.6-.04-.91,0-.43,0-.86.09-1.27.24l-.69.32-.54.41c-.24.19-.37.45-.41.76-.11.26-.09.54.06.8h.02Z"/>
    <path class="st0" d="M1101.09,787.37c-.04-.13-.09-.22-.17-.32-.13-.22-.28-.45-.41-.67-.28-.43-.54-.88-.82-1.32-.28-.56-.71-1.01-1.27-1.32l-.99-.47c-.8-.28-1.64-.41-2.5-.41-.65,0-1.3.06-1.9.26-.56.11-1.1.3-1.6.63-.43.22-.78.54-1.01.97-.28.32-.43.71-.43,1.14.02.58.26,1.1.67,1.51v-.02h.02c.37.52.71,1.01,1.08,1.53.17.24.32.52.56.73.35.3.67.6,1.06.86.65.37,1.34.6,2.07.73.43.06.86.11,1.27.11.8,0,1.58-.13,2.33-.39.35-.11.67-.26.95-.45.52-.3.93-.71,1.21-1.25.22-.5.22-1.01,0-1.51-.04-.11-.06-.22-.11-.35Z"/>
    <path class="st0" d="M575.61,507.84h.02c.37.52.71,1.01,1.08,1.53.17.24.32.52.56.73.35.3.67.6,1.06.86.65.37,1.34.6,2.07.73.43.06.86.11,1.27.11.8,0,1.58-.13,2.33-.39.35-.11.67-.26.95-.45.52-.3.93-.71,1.21-1.25.22-.5.22-1.01,0-1.51-.04-.11-.06-.22-.11-.35-.04-.13-.09-.22-.17-.32-.13-.22-.28-.45-.41-.67-.28-.43-.54-.89-.82-1.32-.28-.56-.71-1.01-1.27-1.32l-.99-.47c-.8-.28-1.64-.41-2.5-.41-.65,0-1.3.06-1.9.26-.56.11-1.1.3-1.6.63-.43.22-.78.54-1.01.97-.28.32-.43.71-.43,1.14.02.58.26,1.1.67,1.51v-.02Z"/>
    <path class="st0" d="M624.27,1131.26c-.04-.13-.09-.22-.17-.32-.13-.22-.28-.45-.41-.67-.28-.43-.54-.88-.82-1.32-.28-.56-.71-1.01-1.27-1.32l-.99-.47c-.8-.28-1.64-.41-2.5-.41-.65,0-1.3.06-1.9.26-.56.11-1.1.3-1.6.63-.43.22-.78.54-1.01.97-.28.32-.43.71-.43,1.14.02.58.26,1.1.67,1.51v-.02h.02c.37.52.71,1.01,1.08,1.53.17.24.32.52.56.73.35.3.67.6,1.06.86.65.37,1.34.6,2.07.73.43.06.86.11,1.27.11.8,0,1.58-.13,2.33-.39.35-.11.67-.26.95-.45.52-.3.93-.71,1.21-1.25.22-.5.22-1.01,0-1.51-.04-.11-.06-.22-.11-.35Z"/>
    <path class="st0" d="M1121.95,833.01c.26.26.56.45.89.58.37.19.76.32,1.19.37.89.13,1.83.11,2.68-.22l.69-.32c.39-.22.69-.52.89-.91.09-.22.17-.45.26-.67.04-.11.11-.19.11-.3.11-.26.15-.54.19-.82l.26-1.32c0-.17-.03-.31-.09-.45l.05-.24c0-.28-.09-.5-.26-.69-.15-.26-.37-.45-.63-.58-.54-.3-1.12-.45-1.75-.5-.63-.04-1.34,0-1.94.22-.54.22-1.12.52-1.4,1.08h.02s-.03.07-.05.11c-.19.18-.35.38-.47.61-.06.13-.11.24-.17.37-.11.24-.22.45-.32.69s-.19.45-.26.69c-.06.24-.15.5-.22.73-.15.28-.17.54-.06.82.02.3.17.56.41.76Z"/>
    <path class="st0" d="M1086.63,875.56l-.31-.49-.34-.23.1-.15.13-.54c0-.34-.1-.59-.28-.8-.18-.28-.41-.49-.72-.65l-.03-.03c-.8-.47-1.71-.65-2.61-.7-.62-.08-1.22-.08-1.81.03-.72.13-1.14.31-1.78.62-.08.03-.13.08-.21.1-.28.21-.54.39-.8.62-.05.03-.1.1-.16.15-.26.28-.49.59-.65.93-.05.08-.05.13-.08.21l-.03.03c-.26.28-.36.59-.36.98.05.34.1.67.21.98,0,.03.05.08.08.13.16.23.31.47.49.7.08.08.1.15.21.21.28.23.54.49.88.67,0,0,.05,0,.05.03.16.05.31.13.47.21.16.08.31.15.47.21l1.03.26h.13c.39.05.96.13,1.42.1.8-.05,1.78-.13,2.53-.47.54-.18,1.03-.47,1.45-.85.36-.34.52-.75.54-1.21v-.08c.03-.16.08-.28.08-.44l-.1-.52Z"/>
    <path class="st0" d="M981.72,1034.92c-.04-.06-.11-.17-.11-.17l-.35-.47-.54-.41s-.07-.02-.1-.04c0,0,0,0,0,0-.26-.22-.54-.45-.86-.6-.65-.32-1.36-.52-2.09-.52-.63,0-1.23.11-1.79.37-.39.17-.91.47-1.06.91l-.11.45c0,.24.1.46.23.65-.01.07-.04.14-.04.21,0,.19-.04.39-.04.58,0,.08-.02.16-.03.24-.03.09-.07.18-.12.26-.03.03-.05.06-.08.09-.2.18-.38.38-.5.64l-.13.58c0,.43.19.8.5,1.1.28.28.58.47.95.6.39.22.8.35,1.25.39.5.09.97.11,1.47.04.47,0,.93-.09,1.36-.26.5-.17.95-.43,1.32-.78.09-.06.19-.15.26-.26.19-.24.39-.52.56-.78.22-.37.28-.82.37-1.23.06-.35,0-.65-.06-.99-.04-.24-.11-.41-.24-.6Z"/>
    <path class="st0" d="M869.65,1107.76c-.35-.19-.69-.35-1.08-.41-.41-.13-.84-.19-1.3-.17l-.89.06c-.52.09-1.01.24-1.47.52l-.52.41c-.28.28-.45.6-.45.99l-.02-.02.04.5v.24c.04.24.04.52.17.73l.32.45c.24.24.52.43.84.54.22.13.45.24.71.24.41.13.82.17,1.25.17l.86-.06.78-.19c.35-.11.65-.26.91-.5.26-.15.45-.37.58-.65.11-.22.13-.5.15-.73v-.24c.04-.17.04-.32.06-.5,0-.3-.09-.56-.28-.76-.17-.28-.39-.5-.69-.63Z"/>
    <path class="st0" d="M382.57,778.05c.04.24.04.52.17.73l.32.45c.24.24.52.43.84.54.22.13.45.24.71.24.41.13.82.17,1.25.17l.86-.06.78-.19c.35-.11.65-.26.91-.5.26-.15.45-.37.58-.65.11-.22.15-.5.15-.73v-.24c.06-.17.06-.32.06-.5,0-.3-.09-.56-.28-.76-.17-.28-.39-.5-.69-.63-.35-.19-.69-.35-1.08-.41-.41-.13-.84-.19-1.3-.17l-.89.06c-.52.09-1.01.24-1.47.52l-.52.41c-.28.28-.45.6-.45.99v-.02h-.02l.04.5v.24Z"/>
    <path class="st0" d="M609.11,501.66c.04.24.04.52.17.73l.32.45c.24.24.52.43.84.54.22.13.45.24.71.24.41.13.82.17,1.25.17l.86-.06.78-.19c.35-.11.65-.26.91-.5.26-.15.45-.37.58-.65.11-.22.15-.5.15-.73v-.24c.06-.17.06-.32.06-.5,0-.3-.09-.56-.28-.76-.17-.28-.39-.5-.69-.63-.35-.19-.69-.35-1.08-.41-.41-.13-.84-.17-1.3-.17l-.89.06c-.52.09-1.01.24-1.47.52l-.52.41c-.28.28-.45.6-.45.99l-.02-.02.04.5v.24Z"/>
    <path class="st0" d="M755.24,536.71c-.21-.47-.52-.88-.83-1.27-.18-.21-.36-.44-.57-.62-.88-.75-1.76-1.27-2.84-1.68-.49-.18-.98-.28-1.53-.28-.54-.08-1.09-.08-1.65.05-.75.13-1.53.39-2.12.85-.34.13-.67.26-.88.52l-.26.36c-.13.21-.13.41-.05.62.05.28.26.49.47.67.31.67,1.06,1.11,1.71,1.37.05.03.08.08.13.1.16.13.31.26.41.41.05.05.08.1.1.18.36.72,1.16,1.19,1.89,1.45.49.18.98.28,1.53.28.54.08,1.09.08,1.65-.03l.96-.26c.57-.15,1.06-.47,1.47-.88l.41-.57c.18-.44.18-.88,0-1.29Z"/>
    <path class="st0" d="M855.56,569.47c.08,2.17,3.13,2.61,5,2.38,1.59-.16,3.17-.82,3.22-2.38v-.6c.11-3.37-8.35-3.39-8.27,0h.04v.6Z"/>
    <path class="st0" d="M381.69,870.92h.04v.6c.08,2.17,3.13,2.61,5,2.38,1.59-.16,3.17-.82,3.22-2.38v-.6c.11-3.37-8.35-3.39-8.27,0Z"/>
    <path class="st0" d="M772.36,585.81c1.06,0,3.13-.43,3.13-1.83s-2.09-1.83-3.13-1.83-3.13.43-3.13,1.83,2.09,1.83,3.13,1.83Z"/>
    <path class="st0" d="M394.88,895.42c-1.04,0-3.13.43-3.13,1.83s2.09,1.84,3.13,1.84,3.13-.43,3.13-1.84-2.09-1.83-3.13-1.83Z"/>
    <path class="st0" d="M1112.06,749.98h-.05v-.05c-3.41-7.5-10-13.93-16-19.44-6.33-5.82-13.47-11.14-20.94-15.43-2.56-1.47-5.17-2.84-7.83-4.14.13-.16.26-.31.36-.47,8.22-13.39,11.79-30.25,13.29-45.73,1.58-16.05-.52-32.49-6.39-47.57-4.96-12.72-12.25-24.3-22.57-33.27-11.06-9.64-23.99-17.55-38.05-22.03-27.35-8.69-60.21-4.11-83.58,12.9-22.44,16.36-37.2,43.27-41.62,70.47-4.83,29.75,2.71,61.6,20.94,85.67,1.14,1.5,2.3,3.08,3.57,4.47,1.09,1.19,2.59,1.91,4.06,2.64-10.68,11.17-19.36,24.27-25.18,38.6-2.64,6.49,12.28,8.22,14.58,2.53,11.79-28.93,35.75-52.66,64.32-64.29,14.84-6.05,29.16-8.79,45.01-8.17,3.98.15,6.8.44,11.06,1.09,4.06.59,8.07,1.4,12.02,2.35,7.57,1.78,15.54,4.58,22.77,7.99,8.22,3.85,15.79,8.53,23.06,14.01,7.68,5.79,13.83,13,20.91,19.41,1.32,1.19,7.6,1.42,6.26-1.55ZM970.37,704.02c-16.52,5.4-31.8,14.61-44.88,26.03-1.09.93-2.09,1.94-3.15,2.9-.08-.1-.13-.23-.21-.36-1.01-1.32-2.17-2.77-3.21-4.19-2.12-2.92-4.01-5.97-5.79-9.1-3.49-6.15-6.44-12.54-8.76-19.21-4.7-13.55-6.72-28-6-42.34,1.4-26.39,13.08-53.25,32.37-71.53,7.68-7.26,16.7-12.74,26.37-16.23-3.93,16.93-5.2,34.28-3.52,51.65,1.84,18.51,6.7,36.66,13.13,54.08,1.86,5.07,3.62,10.16,5.66,15.15.98,2.38,2.02,4.73,3.1,7.06.65,1.34,1.21,2.71,1.91,4.03-2.35.62-4.7,1.32-7.03,2.07ZM1057.13,697.66c-1.03,2.53-2.07,5.07-3.08,7.6-9.56-3.52-19.52-5.92-29.68-6.95-3.46-.36-6.93-.52-10.42-.59.67-2.27,1.16-4.6,1.58-6.82.9-4.7,1.53-9.44,1.99-14.19.96-9.82.75-19.75-.18-29.57-.05-.31-.16-.59-.34-.85,0,0,.03-.03.03-.05.1-.75-.75-1.53-1.27-1.84-2.61-1.65-6.36-1.76-9.31-2.27-2.97-.52-6.15-1.09-9.23-1.6-3.05-.54-5.92-1.14-8.92-1.53-1.68-.21-3.36-.49-5.04-.65.34-.8.62-1.6.96-2.38.78-1.89,1.58-3.64,2.3-5.51,1.6-4.08,3.31-8.12,5.12-12.07,1.81-3.98,3.85-7.96,6.02-11.84,1.09-1.91,2.2-3.8,3.39-5.66.78-1.22,1.86-2.48,2.25-3.85.96-.83,1.45-2.02.31-3.15-5.84-5.84-12.12-11.19-18.48-16.44-4.37-3.62-8.76-7.6-13.49-11.14,8.76-1.32,17.76-1.06,26.55.9,12.9,2.87,25.44,9.77,36.04,17.76,3.93,2.95,7.86,6.36,11.43,10.29,4.06,4.42,7.16,9.56,9.93,14.89,7.08,13.62,10.7,28.62,10.73,43.95,0,15.33-3.54,29.68-9.18,43.58Z"/>
  </g>
  <g>
    <path class="st1" d="M161.58,896.01c2.35,1.58,4.86,2.38,7.52,2.38,2.04,0,4.21-.41,6.46-1.19,2.27-.8,4.5-1.89,6.64-3.23,2.17-1.37,4.21-2.95,6.15-4.71,1.91-1.76,3.62-3.57,5.09-5.43,1.47-1.89,2.64-3.77,3.49-5.71.85-1.94,1.29-3.72,1.29-5.38,0-3.33-1.03-6.59-3.13-9.77-2.07-3.18-4.68-6.15-7.86-8.87-2.09-1.76-4.32-3.65-6.64-5.66-2.33-2.02-4.6-4.01-6.82-6-2.2-1.99-4.32-3.9-6.33-5.71-2.02-1.81-3.8-3.44-5.33-4.86-1.53-1.42-2.77-2.53-3.67-3.36-.9-.83-1.34-1.27-1.34-1.32,4.14-.34,8.4-.78,12.77-1.27,3.75-.41,7.86-.88,12.33-1.42,4.5-.54,8.84-1.11,13.03-1.73,3.13-.47,6.05-1.14,8.79-2.02,2.71-.88,5.09-2.07,7.13-3.57,2.04-1.5,3.67-3.36,4.86-5.58,1.19-2.2,1.78-4.86,1.78-7.91,0-1.81-.18-3.8-.59-5.92-.39-2.12-1.03-4.47-1.94-7.03-2.22-6.23-4.94-10.73-8.14-13.49-3.21-2.74-6.7-4.14-10.44-4.14-1.68,0-3.67.34-5.92.98-2.22.65-4.63,1.5-7.13,2.56-2.53,1.06-5.12,2.25-7.81,3.57-2.66,1.34-5.25,2.69-7.73,4.06-5.97,3.23-12.12,6.93-18.48,11.06.8-4.47,1.58-9.02,2.38-13.62.34-1.94.7-3.98,1.11-6.18.39-2.17.8-4.37,1.24-6.54.41-2.2.85-4.37,1.27-6.51.44-2.17.88-4.24,1.32-6.23.34-1.58.62-3.18.85-4.81s.34-3.15.34-4.65c0-2.71-.41-5.27-1.24-7.65-.8-2.38-2.17-4.45-4.03-6.2-1.86-1.78-4.34-3.15-7.42-4.14-3.05-1.01-6.85-1.5-11.4-1.5s-8.35.49-11.4,1.5c-3.08.98-5.56,2.35-7.42,4.14-1.86,1.76-3.21,3.83-4.01,6.2-.8,2.38-1.19,4.94-1.19,7.65,0,1.5.1,3.02.34,4.65.23,1.63.52,3.23.85,4.81.41,1.99.83,4.06,1.29,6.23.44,2.15.88,4.32,1.32,6.51.41,2.17.83,4.37,1.22,6.54.41,2.2.78,4.24,1.11,6.18.8,4.6,1.6,9.15,2.38,13.62-6.41-4.14-12.59-7.83-18.56-11.06-2.53-1.37-5.14-2.71-7.83-4.06-2.66-1.32-5.25-2.51-7.73-3.57-2.51-1.06-4.89-1.91-7.11-2.56-2.25-.65-4.19-.98-5.84-.98-3.75,0-7.26,1.4-10.52,4.14-3.26,2.77-5.97,7.26-8.14,13.49-.83,2.56-1.47,4.91-1.86,7.03-.39,2.12-.59,4.11-.59,5.92,0,3.05.57,5.71,1.73,7.91,1.16,2.22,2.79,4.08,4.83,5.58,2.04,1.5,4.42,2.69,7.13,3.57,2.74.88,5.69,1.55,8.87,2.02,4.19.62,8.53,1.19,12.98,1.73,4.47.54,8.56,1.01,12.31,1.42,4.37.49,8.66.93,12.87,1.27,0,.05-.47.49-1.37,1.32-.9.83-2.12,1.94-3.67,3.36-1.53,1.42-3.31,3.05-5.35,4.86-2.04,1.81-4.19,3.72-6.39,5.71-2.22,1.99-4.47,3.98-6.77,6-2.3,2.02-4.5,3.9-6.59,5.66-3.21,2.71-5.82,5.69-7.88,8.87-2.07,3.18-3.1,6.44-3.1,9.77,0,1.65.41,3.44,1.27,5.38s2.02,3.83,3.49,5.71c1.47,1.86,3.18,3.67,5.12,5.43,1.91,1.76,3.96,3.33,6.13,4.71,2.15,1.34,4.34,2.43,6.54,3.23,2.22.78,4.37,1.19,6.41,1.19,2.2,0,4.24-.44,6.07-1.29,1.84-.83,3.57-2.02,5.14-3.49,1.6-1.47,3.05-3.21,4.34-5.22,1.32-2.02,2.56-4.21,3.75-6.59,1.99-4.11,3.98-8.38,5.92-12.87,1.96-4.47,3.72-8.61,5.25-12.33,1.81-4.39,3.52-8.71,5.09-12.95.23-.05.65.7,1.22,2.25.57,1.55,1.24,3.62,2.07,6.18s1.81,5.48,2.95,8.76c1.14,3.31,2.43,6.64,3.88,10.06,1.45,3.41,3.02,6.77,4.76,10.08,1.73,3.33,3.62,6.26,5.66,8.81,2.04,2.56,4.24,4.63,6.62,6.23Z"/>
    <path class="st1" d="M286.54,1207.75c1.99,1.32,4.11,2.46,6.36,3.33,2.22.88,4.58,1.4,7.06,1.55,2.46.13,5.02-.16,7.65-.91,2.64-.72,5.35-2.07,8.17-3.96,2.43-1.65,4.76-3.49,6.98-5.53,2.22-2.02,4.06-4.39,5.51-7.16,1.45-2.77,2.35-5.95,2.74-9.59.39-3.65,0-7.88-1.19-12.74-1.19-4.83-3.28-10.39-6.31-16.67-3.05-6.28-7.26-13.42-12.67-21.38l-25.85-38.21c-3.83-5.64-7.52-10.42-11.14-14.37-3.59-3.93-7.11-6.93-10.5-9-3.36-2.07-6.64-3.15-9.82-3.26-3.18-.13-6.26.83-9.23,2.82-1.14.8-1.76,1.63-1.89,2.53-.1.93,0,1.89.28,2.9.31,1.03.67,2.09,1.09,3.23.44,1.16.62,2.35.59,3.59-.03,1.24-.44,2.53-1.22,3.9-.78,1.37-2.22,2.77-4.32,4.19l-54.05,36.58c-2.15,1.45-4.01,2.3-5.53,2.48-1.53.21-2.9.1-4.06-.34-1.16-.44-2.2-1.06-3.08-1.86-.9-.83-1.78-1.58-2.61-2.22-.83-.67-1.68-1.11-2.59-1.34-.88-.23-1.89.05-3.05.83-2.95,1.99-4.99,4.5-6.1,7.52-1.09,3-1.32,6.46-.65,10.37.65,3.9,2.15,8.27,4.47,13.08,2.3,4.81,5.38,10.03,9.18,15.67l22.1,32.62c5.38,7.99,10.57,14.76,15.51,20.37,4.94,5.61,9.67,10.21,14.17,13.78,4.52,3.57,8.82,6.23,12.87,7.96,4.08,1.73,7.96,2.74,11.63,2.97,3.7.26,7.21-.13,10.52-1.19,3.33-1.09,6.46-2.61,9.44-4.63,5.35-3.62,9.25-7.47,11.66-11.56,2.43-4.08,3.83-8.19,4.19-12.38.34-4.16-.13-8.27-1.4-12.33-1.29-4.03-2.95-7.83-5.02-11.4,1.32,1.76,2.84,3.49,4.55,5.17,1.71,1.71,3.57,3.23,5.53,4.58Z"/>
    <path class="st1" d="M198.18,452.46c1.09.88,2.07,1.24,2.97,1.09.9-.13,1.81-.52,2.69-1.09.88-.57,1.81-1.24,2.79-1.96.96-.72,2.04-1.27,3.26-1.6,1.19-.31,2.56-.28,4.08.08,1.55.34,3.28,1.32,5.25,2.95l50.51,41.34c2.02,1.65,3.33,3.18,3.96,4.58.65,1.42.9,2.74.83,3.98-.08,1.24-.39,2.4-.9,3.52-.52,1.09-.98,2.15-1.37,3.13-.41.98-.59,1.91-.57,2.84.05.9.59,1.81,1.65,2.69,2.79,2.27,5.76,3.49,8.97,3.7,3.18.18,6.57-.59,10.13-2.33,3.54-1.76,7.29-4.42,11.25-8.01,3.96-3.59,8.09-8.04,12.38-13.31l47.72-58.27c1.86-2.27,3.13-4.71,3.8-7.32.7-2.61.93-5.3.7-8.01-.23-2.71-.85-5.43-1.86-8.12-1.01-2.69-2.25-5.25-3.72-7.68-1.47-2.46-3.1-4.73-4.94-6.85-1.81-2.09-3.62-3.9-5.45-5.4-1.86-1.55-3.8-2.64-5.76-3.28-1.96-.65-3.93-.88-5.84-.7-1.94.16-3.77.75-5.51,1.71-1.73.98-3.26,2.3-4.63,3.93-1.16,1.45-2.07,3.08-2.77,4.91-.67,1.81-.98,3.83-.93,6,.05,2.17.52,4.5,1.4,7.01.9,2.53,2.3,5.2,4.21,8.04l9.41,12.31-17.68,23.78-37.3-30.56,5.07-4.81c2.56.62,4.89,1.19,6.98,1.71,2.12.54,4.03.85,5.74,1.01,1.71.13,3.28-.05,4.68-.54,1.42-.49,2.69-1.45,3.88-2.87,1.99-2.46,3.21-4.99,3.57-7.57.39-2.61.16-5.17-.65-7.7-.8-2.51-2.09-4.96-3.9-7.32-1.78-2.38-3.85-4.52-6.23-6.46-2.33-1.89-4.81-3.49-7.45-4.76-2.66-1.27-5.3-2.04-7.91-2.33-2.61-.26-5.14.03-7.63.91-2.46.9-4.7,2.56-6.72,5.01-1.16,1.45-1.86,2.9-2.07,4.37-.18,1.47-.05,3.02.41,4.68.47,1.68,1.19,3.46,2.12,5.43.93,1.96,1.91,4.11,2.97,6.46l-3.72,5.92-30.81-25.23,18.33-22.36,13.31,6.54c3,1.27,5.76,2.07,8.27,2.4,2.51.34,4.81.34,6.82,0,2.04-.36,3.85-1.01,5.4-1.96,1.58-.96,2.92-2.12,4.06-3.52,1.27-1.55,2.2-3.23,2.79-5.04.57-1.81.78-3.59.62-5.4s-.72-3.59-1.71-5.33c-.96-1.71-2.35-3.31-4.14-4.78-2.66-2.2-5.89-4.16-9.67-5.95-3.75-1.78-7.65-2.97-11.63-3.62-4.01-.62-7.88-.44-11.66.49-3.75.96-6.95,3.05-9.64,6.33l-47.02,57.47c-4.32,5.27-7.86,10.19-10.6,14.76s-4.6,8.79-5.64,12.62c-1.01,3.85-1.11,7.29-.31,10.37.8,3.08,2.59,5.76,5.35,8.01Z"/>
    <path class="st1" d="M442.68,1329.32c2.71-4.94,4.7-10.06,6-15.36,1.29-5.33,1.81-10.75,1.58-16.36-.26-5.58-1.55-11.3-3.85-17.11-2.33-5.79-5.76-11.66-10.34-17.55-4.58-5.89-10.5-11.81-17.76-17.68-9-7.32-17.37-12.95-25.08-16.91-7.73-3.96-14.92-6.54-21.61-7.78-6.7-1.21-12.93-1.24-18.72-.05-5.79,1.16-11.25,3.23-16.36,6.23-5.14,2.97-9.98,6.67-14.58,11.09-4.58,4.39-9.02,9.25-13.31,14.55-3.75,4.6-6.93,9.49-9.54,14.61-2.64,5.09-4.55,10.42-5.74,15.9-1.19,5.51-1.58,11.14-1.19,16.88.39,5.74,1.73,11.5,4.03,17.29,2.27,5.79,5.61,11.58,10.03,17.32,4.39,5.76,9.95,11.4,16.73,16.88,8.97,7.26,17.37,12.82,25.18,16.67,7.78,3.83,15.1,6.31,21.9,7.39,6.8,1.09,13.16,1.01,19.08-.31,5.92-1.29,11.45-3.44,16.62-6.46,5.17-3.02,10-6.72,14.55-11.09,4.55-4.37,8.87-9.07,12.95-14.09,3.59-4.45,6.75-9.13,9.44-14.06Z"/>
    <path class="st1" d="M352.33,322.3c3.41,5.07,7.29,8.92,11.61,11.53,4.34,2.61,8.89,4.37,13.7,5.3,4.78.9,9.72,1.14,14.76.65,5.07-.49,10-1.29,14.84-2.4,4.81-1.11,9.41-2.4,13.83-3.85,4.42-1.45,8.38-2.66,11.89-3.67,3.49-.98,6.44-1.63,8.82-1.91,2.38-.28,3.98.18,4.78,1.37.65.96,1.14,2.04,1.45,3.21.31,1.19.16,2.56-.47,4.06-.59,1.53-1.81,3.23-3.62,5.09-1.78,1.89-4.47,4.01-8.01,6.39-2.53,1.71-4.94,3-7.24,3.83-2.27.85-4.32,1.37-6.1,1.55-1.78.21-3.28.13-4.52-.23-1.24-.34-2.12-.88-2.59-1.58-2.02-2.97-4.32-5.25-6.93-6.82-2.64-1.58-5.35-2.56-8.12-3-2.79-.41-5.53-.31-8.25.34-2.69.62-5.12,1.68-7.29,3.13-1.76,1.19-3.28,2.61-4.52,4.29-1.24,1.65-2.09,3.52-2.56,5.53-.49,2.04-.49,4.21-.05,6.54.47,2.35,1.53,4.73,3.15,7.19,2.17,3.21,4.89,5.74,8.19,7.57,3.28,1.86,6.95,3.1,10.99,3.77,4.03.67,8.35.78,12.95.36,4.63-.44,9.33-1.34,14.11-2.71,4.78-1.37,9.56-3.18,14.37-5.45,4.81-2.25,9.41-4.86,13.83-7.83,7.5-5.07,14.04-10.31,19.57-15.79,5.53-5.45,9.69-11.12,12.43-17.01,2.77-5.89,3.9-11.97,3.41-18.28-.47-6.28-2.97-12.77-7.47-19.47-3.52-5.22-7.57-9.18-12.18-11.84-4.63-2.66-9.51-4.42-14.71-5.25-5.17-.83-10.55-.98-16.11-.44-5.53.54-11.01,1.4-16.42,2.56-5.4,1.16-10.62,2.43-15.61,3.77-5.02,1.34-9.56,2.4-13.7,3.15-4.11.75-7.65,1.01-10.65.75-2.97-.23-5.17-1.4-6.57-3.46-.67-1.01-1.19-2.09-1.55-3.26-.39-1.19-.31-2.51.18-3.98.49-1.5,1.58-3.15,3.28-4.99,1.68-1.84,4.24-3.9,7.7-6.23,4.96-3.33,9.05-5.27,12.2-5.82,3.15-.52,5.2-.1,6.1,1.24.65.96.8,1.89.47,2.79-.31.93-.72,1.89-1.19,2.9-.47,1.01-.78,2.09-.93,3.23-.18,1.16.23,2.46,1.19,3.9,1.32,1.96,3.02,3.33,5.12,4.11,2.09.78,4.37,1.11,6.82.98,2.46-.1,5.02-.67,7.63-1.68,2.64-1.01,5.14-2.3,7.55-3.93,2.48-1.65,4.73-3.65,6.77-5.89,2.02-2.27,3.52-4.73,4.55-7.34,1.01-2.64,1.42-5.38,1.24-8.25-.21-2.87-1.24-5.71-3.15-8.53-2.09-3.13-5.09-5.74-9-7.88-3.9-2.12-8.63-3.28-14.17-3.44-5.53-.18-11.87.9-18.97,3.21-7.08,2.3-14.89,6.31-23.37,12.02-4.73,3.18-9.07,6.57-13.03,10.19-3.93,3.59-7.34,7.37-10.19,11.35-2.87,3.96-5.12,8.09-6.75,12.36-1.65,4.27-2.56,8.69-2.74,13.26-.16,4.55.49,9.23,1.94,14.04,1.45,4.78,3.88,9.69,7.26,14.74Z"/>
    <path class="st1" d="M555,1422.7c-1.4-1.42-3.08-2.56-5.09-3.44-1.68-.75-3.49-1.21-5.4-1.37-1.94-.15-3.93.1-6,.72-2.09.62-4.21,1.71-6.41,3.23-2.17,1.53-4.39,3.59-6.62,6.2l-9.33,12.36c-1.81-.62-3.23-1.09-4.24-1.42-1.03-.31-1.81-.57-2.3-.78-.52-.18-.88-.31-1.03-.36-.18-.03-.31-.08-.41-.13-.96-.41-1.91-1.01-2.9-1.81-.98-.78-1.76-1.78-2.33-3-.54-1.21-.8-2.71-.78-4.47.05-1.73.62-3.83,1.68-6.26l28.64-64.37c1.01-2.33,2.12-4.01,3.33-5.01,1.21-1.01,2.4-1.65,3.64-1.89,1.22-.26,2.43-.28,3.65-.05,1.24.23,2.38.39,3.41.52,1.06.13,2.02.03,2.9-.23.88-.28,1.6-1.03,2.17-2.33,1.45-3.26,1.81-6.46,1.14-9.56-.67-3.1-2.35-6.15-5.04-9.13-2.69-3-6.36-5.95-11.01-8.84-4.63-2.9-10.19-5.79-16.62-8.63-6.23-2.74-11.92-4.83-17.06-6.26-5.14-1.42-9.69-2.09-13.68-2.04-3.96.03-7.32.85-10.06,2.46-2.77,1.58-4.86,4.01-6.31,7.29-.57,1.27-.65,2.33-.26,3.15.39.83.98,1.6,1.78,2.3.8.7,1.68,1.42,2.64,2.15.96.75,1.76,1.65,2.4,2.71.62,1.09.98,2.4,1.03,3.98.05,1.55-.41,3.52-1.45,5.84l-26.37,59.69c-1.06,2.38-2.17,4.06-3.36,5.04-1.19,1.01-2.4,1.63-3.62,1.86-1.21.26-2.43.28-3.62.05-1.19-.21-2.33-.36-3.36-.49-1.06-.1-2.04-.03-2.9.23-.88.28-1.6,1.06-2.17,2.33-1.45,3.26-1.84,6.46-1.16,9.59.67,3.15,2.3,6.2,4.94,9.15,2.64,2.97,6.23,5.87,10.73,8.71,4.52,2.84,9.9,5.64,16.13,8.4l54.16,23.91c2.69,1.19,5.38,1.76,8.09,1.71,2.71-.08,5.35-.59,7.88-1.55,2.53-.96,4.96-2.3,7.32-4.01,2.33-1.71,4.47-3.62,6.49-5.69,1.99-2.09,3.75-4.32,5.3-6.67,1.53-2.33,2.79-4.6,3.75-6.75.98-2.22,1.5-4.39,1.63-6.49.1-2.09-.18-4.03-.85-5.82-.67-1.76-1.71-3.36-3.1-4.76Z"/>
    <path class="st1" d="M625.24,280.68c6.15-5.27,8.14-11.35,6.02-18.25-.41-1.32-1.06-2.17-1.89-2.53-.85-.39-1.81-.57-2.9-.59-1.11-.03-2.27,0-3.52.08-1.24.1-2.48-.08-3.7-.47-1.21-.41-2.35-1.21-3.44-2.38-1.11-1.16-2.04-3-2.79-5.48l-24.58-79.03,9.46-2.56,7.29,12.12c1.65,2.82,3.44,5.07,5.33,6.75,1.89,1.68,3.8,2.92,5.74,3.75,1.94.8,3.85,1.21,5.74,1.24,1.89.03,3.67-.23,5.38-.78,1.94-.59,3.62-1.47,5.12-2.66,1.47-1.19,2.61-2.59,3.46-4.16.83-1.6,1.32-3.36,1.45-5.35.16-1.99-.13-4.06-.8-6.28-1.03-3.31-2.64-6.72-4.81-10.29-2.15-3.57-4.73-6.7-7.73-9.44-3-2.71-6.31-4.73-9.93-6-3.64-1.29-7.47-1.32-11.5-.08l-94.8,29.5c-4.03,1.24-7.19,3.44-9.46,6.62-2.27,3.15-3.88,6.7-4.81,10.62-.9,3.96-1.24,8.01-1.01,12.2.23,4.19.88,7.94,1.91,11.25.67,2.2,1.63,4.08,2.87,5.64,1.24,1.53,2.66,2.71,4.29,3.54,1.63.83,3.36,1.32,5.25,1.45,1.89.16,3.8-.08,5.74-.67,1.71-.54,3.28-1.34,4.76-2.46,1.47-1.09,2.77-2.51,3.85-4.27,1.09-1.76,1.94-3.85,2.56-6.28.65-2.43.93-5.27.9-8.53l-.9-14.22,9.15-3.21,24.64,79.18c.78,2.48,1.03,4.47.78,6-.26,1.55-.75,2.79-1.5,3.8-.75.98-1.65,1.78-2.69,2.4-1.03.65-1.99,1.24-2.87,1.86-.88.59-1.55,1.29-2.04,2.07-.47.78-.49,1.84-.1,3.15,1.06,3.44,2.9,6.1,5.45,8.01,2.56,1.94,5.79,3.13,9.72,3.65,3.96.49,8.56.34,13.83-.49,5.27-.83,11.14-2.25,17.66-4.27,13.44-4.19,23.24-8.92,29.42-14.17Z"/>
    <path class="st1" d="M737.61,1483.84c-.98-.49-2.09-.96-3.33-1.42-1.24-.49-2.46-1.19-3.62-2.12-1.19-.9-2.25-2.17-3.18-3.77-.93-1.58-1.6-3.72-1.96-6.41l-9.69-66.98c-.26-1.94-.28-3.52-.1-4.73.18-1.37.62-2.4,1.27-3.1s1.4-1.16,2.27-1.45c.85-.28,1.76-.47,2.69-.54.96-.08,1.84-.18,2.69-.36.83-.16,1.55-.47,2.17-.85.62-.41.98-1.11,1.14-2.07.03-.23.03-.65,0-1.24-.28-4.58-1.68-8.4-4.21-11.45-2.53-3.02-5.89-5.58-10-7.65-4.16-2.04-8.89-3.67-14.22-4.86-5.35-1.21-10.96-2.25-16.83-3.08-6.98-1.01-13.39-1.6-19.26-1.81-5.84-.21-11.01.15-15.48,1.03-4.47.91-8.19,2.48-11.12,4.71-2.95,2.22-4.99,5.27-6.13,9.13-.1.23-.18.54-.23.93-.21,1.5.13,2.56,1.03,3.18.9.62,1.91,1.19,3.02,1.71,1.14.52,2.12,1.14,3.02,1.91.88.78,1.19,2.04.93,3.8-.1.7-.31,1.47-.65,2.38-.34.88-.78,1.89-1.34,3.02l-30.32,61.24c-1.24,2.51-2.56,4.37-3.96,5.58-1.4,1.24-2.82,2.12-4.24,2.69-1.42.54-2.79.88-4.11.98-1.34.1-2.53.23-3.62.44-1.06.18-1.96.54-2.69,1.06-.7.49-1.16,1.45-1.37,2.82-.39,2.74-.21,5.4.52,7.99.75,2.59,2.04,4.96,3.93,7.11,1.86,2.17,4.32,4.03,7.37,5.58,3.05,1.53,6.67,2.61,10.91,3.21,4.16.62,7.91.59,11.25-.03,3.33-.65,6.2-1.73,8.61-3.28,2.4-1.55,4.32-3.44,5.76-5.71,1.42-2.27,2.35-4.78,2.74-7.52.16-1.14.03-2.07-.44-2.79-.44-.7-1.06-1.27-1.81-1.68-.75-.44-1.6-.83-2.53-1.22-.93-.36-1.78-.78-2.53-1.27-.75-.49-1.34-1.14-1.78-1.91-.44-.8-.57-1.86-.36-3.18.18-1.37.83-3.08,1.86-5.14l2.92-5.61,34.77,4.99.54,6.13c.16,1.71.13,3.21-.05,4.52-.21,1.55-.67,2.69-1.32,3.44-.67.75-1.42,1.29-2.3,1.6-.85.31-1.78.52-2.79.59-1.01.1-1.91.23-2.77.44-.85.21-1.58.57-2.22,1.09-.62.52-1.01,1.37-1.19,2.59-.52,3.54-.03,6.72,1.47,9.57,1.47,2.84,3.9,5.33,7.26,7.47,3.36,2.15,7.6,3.98,12.72,5.51,5.12,1.52,11.04,2.77,17.79,3.72,13.93,2.02,24.82,1.96,32.65-.16,7.83-2.09,12.25-6.72,13.29-13.88.18-1.37,0-2.4-.54-3.08-.52-.7-1.29-1.29-2.27-1.78Z"/>
    <path class="st1" d="M746.89,119.94c.78.83,1.65,1.53,2.64,2.07,1.01.54,2.04.8,3.08.83,2.02.03,4.89-.88,8.61-2.71,3.72-1.84,8.53-4.91,14.45-9.2,2.27-1.63,4.73-3.39,7.39-5.2,2.66-1.84,5.33-3.77,8.01-5.82,2.69-2.02,5.27-4.14,7.76-6.31,2.48-2.2,4.7-4.47,6.64-6.82,1.94-2.38,3.52-4.81,4.68-7.29s1.76-5.07,1.81-7.73c.03-2.35-.41-4.73-1.37-7.11-.93-2.38-2.3-4.52-4.08-6.44-1.78-1.89-3.93-3.46-6.41-4.68-2.51-1.24-5.3-1.86-8.43-1.91-3.9-.08-7.42,1.06-10.52,3.39-3.1,2.3-6.02,5.3-8.76,8.97-2.74,3.7-5.43,7.78-8.04,12.31-2.61,4.52-5.33,8.94-8.17,13.29-2.3,3.49-4.21,6.51-5.69,9.07-1.5,2.59-2.69,4.83-3.57,6.75-.9,1.91-1.55,3.59-1.91,4.99-.36,1.42-.57,2.71-.57,3.93-.03.93.18,1.89.65,2.87.44.98,1.03,1.91,1.81,2.77Z"/>
    <path class="st1" d="M787.32,271.53c5.09-.67,9.9-1.76,14.42-3.28,4.52-1.5,8.71-3.46,12.54-5.89,3.8-2.4,7.11-5.35,9.88-8.79,2.77-3.46,4.94-7.42,6.51-11.89,1.58-4.47,2.4-9.51,2.48-15.12l.75-56.51c.05-2.66.41-4.71,1.14-6.13.72-1.42,1.6-2.51,2.66-3.26,1.03-.72,2.17-1.21,3.39-1.5,1.22-.26,2.35-.57,3.39-.91,1.06-.31,1.94-.78,2.64-1.37.7-.59,1.06-1.58,1.09-2.97.05-3.57-.75-6.67-2.4-9.25-1.68-2.61-3.77-4.73-6.36-6.44-2.56-1.68-5.35-2.95-8.38-3.77-3.02-.83-5.82-1.24-8.43-1.29-2.92-.05-6,.28-9.18,1.01-3.18.75-6.13,1.91-8.82,3.52-2.66,1.58-4.89,3.67-6.67,6.2s-2.69,5.58-2.74,9.18c-.03,1.37.31,2.38.98,3,.67.62,1.53,1.09,2.53,1.42,1.01.34,2.12.65,3.31.96,1.22.31,2.33.85,3.31,1.58,1.01.75,1.84,1.81,2.51,3.23.67,1.45.98,3.41.93,5.97l-.9,56.59c-.08,3.98-.72,7.39-1.94,10.19-1.24,2.82-2.87,5.09-4.91,6.85-2.07,1.76-4.45,3.02-7.21,3.83-2.74.8-5.71,1.16-8.89,1.11-3.41-.05-6.54-.52-9.36-1.37-2.84-.85-5.3-2.2-7.34-4.01-2.07-1.84-3.64-4.16-4.73-7.01-1.11-2.84-1.63-6.28-1.58-10.34l.93-56.77c.03-2.53.41-4.5,1.14-5.92.7-1.4,1.58-2.43,2.59-3.1,1.03-.67,2.15-1.14,3.36-1.37,1.21-.26,2.33-.52,3.36-.83,1.01-.28,1.86-.75,2.56-1.34s1.06-1.58,1.09-2.97c.08-3.57-.83-6.64-2.66-9.25-1.84-2.61-4.55-4.76-8.19-6.46-3.65-1.71-8.17-2.97-13.57-3.85-5.43-.85-11.63-1.34-18.69-1.47-6.8-.1-12.85.18-18.15.88-5.3.7-9.75,1.84-13.39,3.41-3.62,1.6-6.41,3.64-8.32,6.2-1.91,2.53-2.9,5.58-2.95,9.15-.03,1.4.28,2.4.98,3.02.67.59,1.53,1.09,2.53,1.42,1.01.34,2.09.65,3.26.96,1.19.31,2.27.83,3.28,1.58.98.72,1.84,1.81,2.48,3.23.67,1.42,1.01,3.41.96,5.95l-.93,56.61c-.08,5.66.65,10.75,2.2,15.3,1.53,4.58,3.75,8.63,6.67,12.2,2.92,3.57,6.44,6.62,10.55,9.18,4.11,2.53,8.71,4.65,13.78,6.36,5.09,1.71,10.57,2.97,16.44,3.83,5.87.83,12.02,1.32,18.43,1.42,5.35.08,10.57-.21,15.67-.88Z"/>
    <path class="st1" d="M896.98,1451.94c-1.34-1.53-2.82-2.2-4.42-2.02-.85.1-1.76.47-2.69,1.14-.96.65-1.78,1.6-2.51,2.84-.59.96-1.58,1.99-2.92,3.18-1.34,1.16-2.97,2.3-4.91,3.44-1.94,1.11-4.11,2.12-6.49,3-2.4.88-4.89,1.47-7.47,1.78-2.53.28-5.07.31-7.65.05-2.59-.26-5.14-.98-7.65-2.15-2.53-1.16-4.94-2.87-7.26-5.17-2.33-2.3-4.47-5.33-6.44-9.1-1.99-3.8-3.72-8.43-5.22-13.91-1.5-5.51-2.69-12.02-3.54-19.6-.67-5.74-.72-10.75-.16-15.07.54-4.29,1.47-7.91,2.79-10.81,1.32-2.92,2.95-5.14,4.91-6.72,1.94-1.55,3.96-2.46,6.07-2.69,2.82-.34,5.58.54,8.32,2.59,2.71,2.02,4.86,5.22,6.41,9.57,1.11,3.08,2.43,5.61,3.96,7.63,1.55,1.99,3.21,3.57,4.96,4.73,1.76,1.16,3.54,1.94,5.4,2.3,1.84.39,3.64.47,5.43.26,1.99-.23,3.83-.8,5.51-1.68,1.68-.88,3.08-2.04,4.21-3.44,1.16-1.42,1.99-3.08,2.48-4.99.52-1.91.65-4.03.36-6.31-.65-5.64-2.48-10.57-5.56-14.84-3.08-4.27-6.95-7.76-11.66-10.42-4.7-2.69-10-4.58-15.92-5.64-5.95-1.06-12.1-1.24-18.46-.49-9.62,1.09-18.12,2.97-25.44,5.61-7.34,2.64-13.7,5.92-19.05,9.8-5.38,3.9-9.8,8.35-13.29,13.34-3.49,4.99-6.18,10.39-8.09,16.18-1.89,5.79-3.05,11.89-3.46,18.3-.44,6.41-.26,13,.52,19.75.67,5.92,2.02,11.58,4.01,17.01,1.99,5.43,4.58,10.5,7.78,15.2,3.21,4.68,7.01,8.89,11.4,12.62,4.37,3.75,9.31,6.85,14.79,9.31,5.45,2.43,11.45,4.14,17.97,5.12,6.49.96,13.49,1.01,21.02.15,8.71-1.01,16.54-2.95,23.5-5.87,6.95-2.92,12.82-6.39,17.58-10.39,4.78-4.01,8.32-8.35,10.68-13.03,2.33-4.68,3.23-9.31,2.71-13.91-.34-2.92-1.16-5.14-2.51-6.67Z"/>
    <path class="st1" d="M881.76,274.45c2.84,2.77,6.62,5.4,11.32,7.94,4.7,2.53,10.24,4.94,16.65,7.26l32.91,11.84c10.86,3.93,20.63,6.49,29.31,7.68,8.66,1.19,16.42,1.29,23.24.34,6.82-.98,12.85-2.95,18.07-5.87,5.22-2.92,9.82-6.57,13.78-10.86,3.93-4.32,7.37-9.23,10.26-14.71,2.9-5.48,5.43-11.27,7.63-17.35,1.94-5.38,3.31-10.81,4.14-16.29.8-5.48.85-10.88.18-16.26-.67-5.35-2.15-10.6-4.45-15.69-2.33-5.09-5.61-9.93-9.85-14.53-4.27-4.6-9.59-8.92-15.95-12.95-6.39-4.01-13.96-7.6-22.77-10.78l-39.73-14.32c-6.41-2.3-12.23-4.01-17.45-5.09-5.22-1.09-9.8-1.47-13.73-1.16-3.96.28-7.24,1.32-9.88,3.1-2.64,1.78-4.55,4.37-5.76,7.73-.47,1.29-.49,2.35-.05,3.15.47.8,1.11,1.53,1.94,2.17.85.65,1.78,1.29,2.79,1.96,1.01.67,1.89,1.53,2.59,2.56.7,1.01,1.14,2.3,1.32,3.88.16,1.55-.18,3.54-1.03,5.92l-22.21,61.58c-.88,2.43-1.86,4.19-3,5.25-1.11,1.09-2.27,1.78-3.46,2.12-1.22.34-2.4.44-3.62.31-1.21-.13-2.35-.23-3.39-.26-1.06-.05-2.02.1-2.87.44-.88.31-1.53,1.14-2.02,2.46-1.19,3.36-1.37,6.57-.49,9.67.9,3.08,2.74,6,5.58,8.76Z"/>
    <path class="st1" d="M1108.21,1389.61c-.9-.26-1.91-.34-3.02-.23-1.11.1-2.3.28-3.59.54-1.27.23-2.56.23-3.83-.03-1.29-.26-2.53-.9-3.77-1.94-1.24-1.03-2.38-2.74-3.44-5.12l-26.03-59.46c-1.03-2.33-1.47-4.29-1.4-5.87.1-1.6.49-2.92,1.19-4.01.67-1.09,1.55-2.04,2.59-2.79,1.06-.78,1.99-1.53,2.84-2.25.85-.72,1.5-1.5,1.91-2.35.41-.83.36-1.89-.21-3.15-2.87-6.57-8.32-9.82-16.39-9.8-8.04.03-18.43,2.84-31.18,8.4-12.95,5.69-22.18,11.48-27.69,17.37-5.51,5.92-6.82,12.15-3.96,18.72.54,1.27,1.27,2.04,2.15,2.3.88.28,1.84.36,2.9.26,1.06-.13,2.2-.28,3.41-.52,1.24-.21,2.46-.21,3.67.05,1.21.26,2.4.91,3.62,1.91,1.19,1.01,2.3,2.69,3.33,5.02l8.74,19.98-35.6,15.59-8.76-19.98c-1.01-2.33-1.47-4.27-1.42-5.84.08-1.58.41-2.89,1.06-3.95s1.45-1.99,2.46-2.74c.98-.75,1.89-1.47,2.69-2.17.78-.67,1.37-1.45,1.78-2.27.39-.83.31-1.89-.26-3.15-1.42-3.28-3.52-5.71-6.28-7.32-2.74-1.6-6.13-2.43-10.13-2.46-4.03-.05-8.66.67-13.96,2.15-5.27,1.45-11.14,3.59-17.58,6.41-6.26,2.74-11.63,5.53-16.16,8.35-4.52,2.84-8.12,5.74-10.75,8.69-2.64,2.95-4.32,5.97-4.99,9.07-.7,3.13-.31,6.31,1.11,9.59.57,1.27,1.27,2.04,2.15,2.3.88.28,1.86.36,2.9.26,1.06-.13,2.2-.28,3.39-.49,1.19-.21,2.4-.18,3.62.08,1.22.26,2.43.88,3.62,1.91,1.21,1.01,2.33,2.69,3.33,4.99l26.19,59.79c1.03,2.38,1.53,4.34,1.45,5.89-.08,1.55-.44,2.84-1.09,3.93-.62,1.06-1.42,1.96-2.4,2.69-.96.75-1.84,1.47-2.64,2.17s-1.4,1.45-1.78,2.27c-.39.85-.31,1.89.23,3.15,1.45,3.28,3.54,5.74,6.31,7.37,2.74,1.63,6.13,2.46,10.08,2.53,3.96.05,8.5-.62,13.68-2.02,5.14-1.42,10.83-3.49,17.06-6.2,12.9-5.66,22.13-11.45,27.66-17.37,5.53-5.92,6.85-12.18,3.96-18.79-.54-1.27-1.27-2.04-2.15-2.3-.88-.28-1.84-.39-2.92-.28-1.06.08-2.2.23-3.41.47-1.24.21-2.48.18-3.72-.08-1.27-.28-2.51-.93-3.75-1.96-1.24-1.03-2.38-2.74-3.41-5.12l-10.6-24.17,35.75-15.67,10.6,24.2c1.06,2.43,1.58,4.42,1.5,6-.08,1.58-.41,2.9-1.03,4.01-.62,1.09-1.42,1.99-2.43,2.74-.98.78-1.89,1.5-2.66,2.22-.8.72-1.4,1.5-1.78,2.33-.39.83-.31,1.89.26,3.15,1.42,3.28,3.54,5.74,6.28,7.37,2.77,1.63,6.15,2.46,10.16,2.48,4.03.05,8.69-.67,13.96-2.15,5.27-1.45,11.14-3.59,17.6-6.41,6.33-2.79,11.81-5.61,16.42-8.48,4.6-2.87,8.25-5.79,10.91-8.74,2.66-2.97,4.34-6.02,5.02-9.15.67-3.13.31-6.33-1.14-9.62-.54-1.27-1.29-2.04-2.2-2.3Z"/>
    <path class="st1" d="M1051.7,347.77c2.02,3.44,4.94,6.98,8.82,10.65,3.85,3.7,8.58,7.5,14.14,11.43,11.5,8.09,21.22,13,29.16,14.68,7.94,1.65,13.96-.44,18.12-6.33.8-1.14,1.09-2.15.88-3.05-.21-.91-.65-1.78-1.29-2.66-.65-.88-1.4-1.78-2.22-2.71-.83-.96-1.45-2.02-1.86-3.23-.41-1.21-.49-2.61-.23-4.19.28-1.58,1.16-3.41,2.66-5.56l37.54-52.94c1.47-2.07,2.9-3.49,4.29-4.24,1.37-.78,2.69-1.14,3.93-1.16,1.24,0,2.43.23,3.59.7,1.16.47,2.22.85,3.23,1.16,1.01.34,1.99.44,2.9.34.9-.08,1.78-.7,2.56-1.84,2.07-2.92,3.08-5.97,3.02-9.15-.05-3.18-1.11-6.49-3.15-9.95-2.04-3.46-5.07-7.06-9.05-10.83-3.98-3.75-8.84-7.68-14.61-11.74-5.56-3.93-10.73-7.08-15.48-9.49-4.76-2.4-9.1-3.98-13-4.71-3.88-.75-7.34-.59-10.34.41-3.02,1.01-5.56,3-7.63,5.92-.8,1.14-1.09,2.15-.88,3.02.23.9.65,1.78,1.29,2.61.65.85,1.37,1.73,2.17,2.64.8.93,1.4,1.96,1.81,3.13.41,1.19.49,2.53.23,4.11-.23,1.55-1.09,3.36-2.56,5.43l-37.61,53.36c-1.5,2.12-2.92,3.54-4.29,4.27-1.37.75-2.66,1.11-3.9,1.11s-2.43-.21-3.57-.65c-1.14-.47-2.2-.83-3.21-1.16-1.01-.31-1.96-.44-2.9-.34-.9.1-1.76.7-2.56,1.84-2.07,2.92-3.08,6-3.05,9.2.05,3.21,1.06,6.51,3.05,9.93Z"/>
    <path class="st1" d="M1258.27,1261.57c-.88-.03-1.81.18-2.82.62-1.01.41-2.09.96-3.26,1.63-1.14.65-2.46,1.11-3.93,1.42-1.47.31-3.1.31-4.94,0-1.81-.28-3.88-1.16-6.18-2.61l-57.54-35.6c-1.65-1.09-2.9-2.07-3.7-2.97-.93-1.03-1.45-2.02-1.55-2.97-.13-.93,0-1.84.34-2.66.34-.85.78-1.65,1.32-2.43.54-.75,1.03-1.5,1.45-2.27.41-.75.65-1.5.72-2.22.1-.72-.21-1.45-.85-2.2-.16-.16-.47-.41-.93-.78-3.7-2.74-7.52-4.11-11.48-4.14-3.98,0-8.07.9-12.31,2.77-4.21,1.84-8.5,4.42-12.87,7.73-4.34,3.33-8.74,6.95-13.16,10.94-5.25,4.68-9.82,9.23-13.75,13.57-3.93,4.37-6.98,8.56-9.15,12.56-2.17,4.01-3.36,7.86-3.54,11.53-.18,3.7.83,7.21,3.05,10.57.1.21.31.47.57.75,1.01,1.14,2.04,1.55,3.1,1.27,1.06-.31,2.15-.7,3.26-1.24,1.11-.54,2.25-.88,3.39-1.06,1.16-.18,2.33.39,3.52,1.71.47.52.93,1.19,1.4,2.02.47.83.96,1.84,1.47,3l27.43,62.58c1.14,2.53,1.71,4.76,1.76,6.62.03,1.86-.18,3.52-.67,4.96s-1.14,2.69-1.91,3.77c-.78,1.09-1.42,2.09-1.96,3.05-.54.96-.85,1.86-.93,2.74-.05.88.36,1.84,1.29,2.87,1.84,2.04,4.01,3.64,6.46,4.73,2.43,1.09,5.09,1.63,7.96,1.58,2.87-.05,5.87-.75,9-2.07,3.15-1.34,6.31-3.44,9.49-6.28,3.13-2.82,5.53-5.69,7.19-8.66,1.65-2.95,2.66-5.84,3.02-8.69.36-2.84.13-5.53-.67-8.09-.83-2.56-2.17-4.89-4.01-6.93-.78-.88-1.58-1.34-2.4-1.47-.83-.1-1.65,0-2.48.31-.8.28-1.65.7-2.53,1.16-.88.49-1.76.85-2.61,1.11-.85.26-1.71.31-2.61.13-.88-.16-1.78-.75-2.66-1.73-.93-1.03-1.84-2.61-2.74-4.76l-2.43-5.82,26.19-23.45,5.02,3.52c1.42.98,2.56,1.96,3.44,2.95,1.06,1.16,1.65,2.25,1.78,3.23.16.98.08,1.91-.23,2.77-.31.88-.75,1.71-1.34,2.53-.57.83-1.06,1.63-1.45,2.4-.39.78-.59,1.58-.59,2.4s.41,1.68,1.21,2.59c2.38,2.66,5.14,4.32,8.27,5.01,3.13.67,6.59.41,10.39-.78,3.83-1.19,7.94-3.28,12.41-6.2,4.45-2.95,9.2-6.7,14.27-11.25,10.5-9.38,17.45-17.76,20.86-25.1,3.41-7.34,2.71-13.73-2.09-19.1-.93-1.01-1.84-1.55-2.71-1.58Z"/>
    <path class="st1" d="M1169.74,379.02c-3.57,4.52-6.46,9.36-8.71,14.53-2.22,5.17-3.7,10.6-4.42,16.31-.72,5.71-.54,11.63.59,17.76,1.11,6.13,3.28,12.43,6.46,18.92,3.21,6.51,7.6,13.11,13.18,19.8,7.37,8.87,14.53,15.95,21.43,21.22,6.93,5.27,13.62,9.13,20.09,11.5,6.46,2.4,12.72,3.52,18.77,3.41,6.05-.13,11.89-1.19,17.55-3.15,5.64-1.94,11.12-4.63,16.44-8.04,5.3-3.41,10.44-7.19,15.41-11.32,4.39-3.67,8.4-7.65,11.99-11.97,3.62-4.32,6.57-8.97,8.87-13.91,2.3-4.96,3.85-10.21,4.68-15.74.85-5.53.7-11.37-.44-17.53-1.16-6.15-3.39-12.56-6.75-19.23-3.33-6.7-8.01-13.62-13.99-20.81-7.42-8.89-14.53-16.05-21.35-21.4-6.8-5.38-13.37-9.33-19.7-11.81-6.31-2.51-12.43-3.75-18.33-3.72-5.92.05-11.66,1.03-17.27,2.95-5.61,1.94-11.09,4.63-16.44,8.07-5.35,3.44-10.65,7.34-15.87,11.71-4.58,3.8-8.63,7.96-12.2,12.46Z"/>
    <path class="st1" d="M1336.27,1115.15c-5.27-3.41-10.57-5.43-15.87-6.07-5.27-.62-10.47-.31-15.56.98-5.09,1.27-10.08,3.26-14.97,5.95-4.89,2.66-9.59,5.61-14.09,8.82-4.52,3.21-8.79,6.41-12.87,9.62-4.06,3.23-7.83,6-11.32,8.3-3.49,2.33-6.67,3.96-9.51,4.89-2.84.96-5.3.75-7.39-.59-1.01-.65-1.91-1.45-2.71-2.38s-1.29-2.17-1.4-3.75c-.13-1.55.21-3.52,1.03-5.84.83-2.35,2.38-5.27,4.63-8.76,3.26-5.04,6.23-8.43,8.94-10.16,2.69-1.73,4.7-2.15,6.08-1.29.96.65,1.47,1.45,1.55,2.4.05.96.08,2.02.05,3.13-.05,1.11.1,2.22.39,3.33.31,1.14,1.19,2.17,2.64,3.1,1.99,1.29,4.11,1.89,6.33,1.78,2.25-.1,4.45-.7,6.67-1.78,2.2-1.09,4.32-2.61,6.33-4.55,2.02-1.96,3.83-4.16,5.38-6.59,1.63-2.51,2.95-5.22,3.9-8.09.96-2.87,1.4-5.74,1.29-8.56-.1-2.79-.8-5.48-2.12-8.04-1.29-2.56-3.39-4.78-6.23-6.62-3.15-2.04-6.95-3.26-11.37-3.7-4.45-.41-9.23.39-14.4,2.4-5.14,2.04-10.52,5.51-16.16,10.44-5.61,4.91-11.19,11.66-16.75,20.24-3.08,4.81-5.74,9.64-7.96,14.5-2.2,4.86-3.83,9.67-4.89,14.45-1.06,4.78-1.5,9.46-1.34,14.04.18,4.58,1.09,8.97,2.74,13.24,1.63,4.27,4.06,8.3,7.29,12.15,3.23,3.83,7.39,7.39,12.49,10.68,5.14,3.31,10.21,5.33,15.23,6.02,5.02.7,9.9.52,14.66-.52,4.76-1.06,9.38-2.79,13.83-5.25,4.47-2.43,8.69-5.12,12.67-8.04,3.98-2.92,7.73-5.92,11.22-9,3.49-3.05,6.64-5.74,9.49-8.04,2.82-2.3,5.27-4.03,7.34-5.25,2.09-1.19,3.72-1.4,4.94-.62.98.62,1.84,1.42,2.59,2.38.75.98,1.14,2.28,1.19,3.93.03,1.63-.41,3.67-1.32,6.1-.93,2.43-2.53,5.43-4.86,9.02-1.65,2.56-3.36,4.68-5.14,6.36-1.76,1.68-3.41,2.95-4.99,3.83-1.55.88-2.97,1.42-4.27,1.58-1.27.18-2.27.03-3-.44-3-1.94-6.02-3.13-9.05-3.54-3.05-.41-5.92-.26-8.66.47-2.71.7-5.2,1.89-7.42,3.54-2.25,1.63-4.06,3.57-5.48,5.74-1.16,1.78-1.96,3.7-2.46,5.71-.49,2.04-.54,4.08-.18,6.13.36,2.04,1.19,4.06,2.53,6.02,1.34,1.96,3.26,3.75,5.74,5.35,3.23,2.09,6.75,3.33,10.5,3.75,3.77.39,7.63.1,11.58-.88,3.98-.98,7.99-2.56,12.07-4.78,4.06-2.2,8.04-4.89,11.89-8.04,3.85-3.13,7.52-6.7,11.06-10.68,3.52-3.96,6.72-8.2,9.62-12.64,4.91-7.6,8.84-15.02,11.76-22.23,2.95-7.19,4.52-14.04,4.73-20.55.21-6.49-1.14-12.54-4.06-18.12-2.92-5.58-7.76-10.57-14.55-14.97Z"/>
    <g>
      <path class="st1" d="M134.28,936.84c10.43,6.98,22.47,10.66,34.82,10.66,7.48,0,15.05-1.31,22.51-3.89l.25-.09c5.68-2,11.21-4.67,16.53-8.01,4.5-2.84,8.85-6.15,12.95-9.86l.28-.25c3.84-3.53,7.33-7.27,10.36-11.11l.17-.21c3.99-5.11,7.27-10.55,9.75-16.18,3.62-8.22,5.45-16.69,5.45-25.16,0-6.54-1-13.04-2.93-19.3,6.08-5.25,11.06-11.48,14.79-18.45,5.11-9.44,7.71-19.97,7.71-31.29,0-4.97-.49-10.02-1.45-15.04-.86-4.59-2.17-9.4-3.94-14.41-5.11-14.31-12.62-25.81-22.49-34.33-10.32-8.82-22.42-14.12-35.31-15.54-.13-.39-.25-.77-.39-1.16-3.33-9.75-9.08-18.69-16.65-25.87-7.21-6.87-15.99-12-26.11-15.27-8.03-2.62-16.72-3.9-26.55-3.9s-18.52,1.27-26.56,3.9c-10.11,3.26-18.89,8.39-26.1,15.26-7.72,7.32-13.34,16.11-16.71,26.12-.1.31-.21.62-.31.93-12.75,1.41-24.77,6.64-35.22,15.42-10.01,8.49-17.66,20.2-22.74,34.78l-.36,1.07c-1.56,4.83-2.68,9.18-3.43,13.26-.93,5.07-1.4,10.04-1.4,14.78,0,11.18,2.51,21.58,7.33,30.69,3.84,7.34,8.93,13.75,15.17,19.13-1.92,6.25-2.91,12.72-2.91,19.23,0,8.51,1.83,16.97,5.43,25.16,2.48,5.63,5.76,11.07,9.75,16.18l.17.21c3.1,3.92,6.64,7.7,10.54,11.24,4.08,3.74,8.48,7.1,13.13,10.03,5.07,3.18,10.4,5.8,15.84,7.78l.59.21c7.49,2.62,15.1,3.95,22.63,3.95,9.3,0,18.22-1.94,26.53-5.75,3.07-1.4,6.04-3.04,8.89-4.91Z"/>
      <path class="st1" d="M167.28,490.64c9.75,7.89,21.32,12.06,33.46,12.06.96,0,1.92-.03,2.88-.08l19.46,15.92c1.84,12.89,8.43,24.56,18.86,33.22l.36.3c10.69,8.71,23.42,13.77,36.83,14.64l.36.02c1.23.07,2.47.11,3.71.11,10.4,0,20.72-2.45,30.67-7.28l.4-.2c7.71-3.83,15.04-8.95,22.42-15.65,5.75-5.22,11.62-11.5,17.36-18.55l47.73-58.28c6.36-7.77,10.83-16.5,13.3-25.96.99-3.77,1.65-7.6,2.02-11.45.19-.02.36-.02.55-.04,7.6-.72,15.34-2.2,22.99-4.39,7.34-2.1,14.7-4.88,21.67-8.18,7.05-3.3,13.93-7.19,20.52-11.63,10.1-6.82,19.06-14.09,26.54-21.51,9.74-9.6,17.31-20.13,22.42-31.11,1.65-3.52,3.05-7.1,4.2-10.72,6.7,3.24,14.04,5.4,21.94,6.44l.31.04c3.5.43,7.14.66,10.83.66h0c5.31,0,10.92-.46,16.69-1.36,7.65-1.2,15.69-3.12,24.65-5.9,19.97-6.22,35.22-13.95,46.77-23.77,10.22-8.76,17.29-19.43,21-31.02,5.51,5.92,11.82,11.18,19.02,15.66,7.25,4.47,15.28,8.2,23.96,11.13,7.8,2.61,16.2,4.58,25.2,5.89,7.98,1.12,16.22,1.76,24.56,1.9.81.01,1.63.02,2.44.02,6.91,0,13.76-.44,20.37-1.31,8.22-1.08,16.15-2.9,23.58-5.4,8.3-2.76,16.14-6.47,23.22-10.96.35-.22.67-.48,1.02-.71,1.83,2.25,3.81,4.43,5.96,6.52,6.16,5.99,13.45,11.21,22.26,15.95,6.8,3.67,14.39,7,23.32,10.24l32.83,11.81c14.26,5.16,27.13,8.48,39.34,10.15,6.95.95,13.73,1.44,20.17,1.44h0c5.69,0,11.26-.38,16.74-1.15.21-.03.41-.07.62-.1,1.6,4.96,3.75,9.83,6.53,14.6,4.4,7.49,10.05,14.47,17.29,21.34,5.57,5.33,12.01,10.56,19.77,16.05,17.18,12.09,32.64,19.47,47.4,22.6,4.94,1.03,9.88,1.55,14.71,1.57.12.74.23,1.47.37,2.21,1.9,10.5,5.5,21.19,10.72,31.83,4.9,9.96,11.47,19.91,19.47,29.5,9.67,11.64,19.55,21.35,29.47,28.93,10.83,8.24,21.89,14.47,32.71,18.45,11.6,4.31,23.41,6.5,35.11,6.5.54,0,1.08,0,1.82-.02,11.12-.24,22.09-2.21,32.49-5.81,9.28-3.19,18.35-7.61,27.06-13.19,6.99-4.5,13.81-9.51,20.3-14.92,6.69-5.59,12.83-11.73,18.15-18.11,6.32-7.53,11.61-15.85,15.79-24.81,4.25-9.17,7.17-18.97,8.66-28.91,1.69-10.94,1.46-22.36-.72-34.14-2.03-10.72-5.78-21.56-11.04-32-5.04-10.11-11.63-20.02-20.24-30.38-9.81-11.75-19.21-21.1-28.6-28.46-10.61-8.39-21.46-14.79-32.01-18.93-12.01-4.78-24.23-7.2-36.31-7.2h-.62c-.42,0-.83.03-1.25.04.15-1.96.24-3.93.21-5.91-.19-11.75-3.54-23.22-9.96-34.1-4.39-7.44-10.13-14.49-17.69-21.64-5.74-5.41-12.47-10.84-19.93-16.09-7.44-5.26-14.74-9.71-21.68-13.22-8.99-4.54-17.5-7.53-26.02-9.13-4.61-.88-9.25-1.33-13.78-1.33-7.36,0-14.53,1.16-21.24,3.41-2.47.82-4.84,1.84-7.17,2.95-.93-2.56-1.95-5.11-3.09-7.63-4.46-9.77-10.65-18.99-18.5-27.51-7.11-7.67-15.74-14.75-25.87-21.17-9.34-5.86-20.18-11.03-32.23-15.38l-39.78-14.34c-8.71-3.13-16.57-5.4-24.05-6.96-7.33-1.52-14.39-2.29-21.01-2.29-2.16,0-4.32.08-6.41.24-12.55.93-23.88,4.76-33.71,11.41-.5.34-.97.73-1.47,1.08-5.29-7.94-11.97-14.67-20.03-19.99-2.77-1.82-5.67-3.41-8.64-4.86,2.05-6.32,3.17-12.88,3.3-19.6v-.43c.1-8.81-1.52-17.47-4.83-25.76-3.18-8.05-7.82-15.38-13.79-21.79l-.27-.29c-5.85-6.19-12.75-11.24-20.28-14.92-9.05-4.49-18.96-6.84-29.25-7.01-.45-.01-.91-.01-1.36-.01-14.35,0-28,4.54-39.51,13.13-6.87,5.11-13.19,11.49-18.86,19.09-3.92,5.29-7.66,11.01-11.13,17.01-2.16,3.75-4.42,7.42-6.64,10.8-3.05,4.62-5.35,8.31-7.17,11.48-2.24,3.87-4.07,7.34-5.59,10.61-.06.14-.12.27-.18.4-7.04,1.36-13.45,3.3-19.44,5.89l-.36.16c-11.46,5.07-20.81,12.38-27.64,21.51-.54.71-1.01,1.46-1.52,2.19-6.94-5.57-14.59-9.85-22.71-12.69-7.14-2.53-14.58-3.81-22.14-3.81-6.77,0-13.58,1.04-20.38,3.13l-94.63,29.45c-14.34,4.41-26.43,13.04-34.87,24.83-6.06,8.4-10.35,17.83-12.77,28.05l-.08.35c-.2.88-.34,1.78-.51,2.66-7.95-2.84-16.48-4.43-25.4-4.68-.93-.03-1.87-.05-2.82-.05-10.48,0-21.24,1.84-32.94,5.63-11.6,3.77-23.26,9.65-35.6,17.97-6.77,4.56-13.1,9.51-18.76,14.7-6.47,5.91-12.16,12.28-16.91,18.91-5.3,7.33-9.58,15.21-12.72,23.41-3.57,9.25-5.58,18.99-5.97,28.95v.26c-.05,1.3-.07,2.6-.05,3.9-2.78-.72-5.58-1.36-8.43-1.82l-.35-.06c-4.04-.63-8.14-.94-12.18-.94-6.3,0-12.6.76-18.74,2.28l-.41.1c-13.91,3.55-26.18,11.43-35.51,22.82l-47.02,57.46c-5.95,7.27-10.77,14.02-14.73,20.63-5.01,8.37-8.69,16.79-10.92,25.04l-.11.4c-3.15,12.05-3.26,23.89-.32,35.17,3.45,13.23,11.02,24.89,21.98,33.82Z"/>
      <path class="st1" d="M1362.95,1073.92c-11.53-7.46-23.85-12.04-36.81-13.62-1.37-.16-2.75-.3-4.13-.4-4.79-6.53-10.86-12.23-17.89-16.77-9.74-6.3-20.91-10.12-33.21-11.34l-.3-.03c-2.26-.21-4.57-.32-6.86-.32-9.89,0-19.97,1.97-29.95,5.87l-.27.11c-10.36,4.11-20.59,10.56-30.39,19.15-9.13,8-17.51,17.97-25.62,30.49l-.15.23c-4.33,6.76-8.11,13.67-11.34,20.73-3.59,7.93-6.31,16.03-8.08,24.06-1.76,7.91-2.56,15.91-2.49,23.81-7.62.95-15.15,3.03-22.46,6.24-7.73,3.37-15.44,7.95-22.92,13.61l-.25.19c-5.59,4.29-11.01,8.8-15.94,13.23-6.37,5.68-12.25,11.49-17.58,17.38-6.58,7.32-11.76,14.52-15.81,22-2.76,5.09-4.91,10.28-6.48,15.53-14.69.2-30.98,4.27-49.9,12.52-17.99,7.9-31.67,16.63-41.77,26.69-7.55.25-15.39,1.53-23.75,3.85-7.6,2.09-15.54,4.96-24.27,8.78-8.31,3.64-15.85,7.56-22.61,11.76-4.18,2.63-7.98,5.35-11.44,8.2-5.24-1.86-10.69-3.31-16.34-4.32-6.36-1.13-12.89-1.71-19.4-1.71-4.44,0-8.95.27-13.19.77-13.35,1.51-25.66,4.27-36.52,8.19-11.63,4.18-22.15,9.64-31.31,16.28-2.42,1.75-4.74,3.59-6.98,5.5-5.92-5.85-12.87-10.81-20.76-14.78l-.43-.21c-7.66-3.76-16.12-6.68-24.97-8.66-6.73-1.53-13.75-2.81-20.7-3.79-8.62-1.25-16.88-2.01-24.54-2.28-1.66-.06-3.29-.09-4.88-.09-7.67,0-15.01.68-21.81,2.01l-.26.05c-11.79,2.38-22.27,7.02-30.95,13.62-2.14,1.61-4.13,3.37-6.03,5.21-.16-.94-.29-1.88-.49-2.81-2.51-11.61-8.11-22.27-16.47-31.51-5.87-6.55-12.95-12.36-21.53-17.69-6.64-4.16-14.33-8.17-22.89-11.95-8.53-3.75-16.3-6.58-23.75-8.64-9.31-2.57-17.93-3.83-26.36-3.83h-.76s-.05,0-.08,0c-3.71-7.65-8.4-15.17-14.03-22.42-6.93-8.93-15.58-17.6-25.57-25.67-11.57-9.41-22.88-16.97-33.69-22.52-11.91-6.1-23.71-10.25-35.21-12.38-.28-.05-.55-.08-.83-.13-.46-3.64-1.14-7.34-2.06-11.1-2.03-8.26-5.22-16.85-9.82-26.4-4.1-8.45-9.55-17.7-16.17-27.44l-25.89-38.26c-5.23-7.7-10.31-14.23-15.54-19.94-6.68-7.3-13.79-13.28-20.97-17.66-10.66-6.57-22.03-10.11-33.8-10.52-.79-.03-1.58-.05-2.36-.05-12.67,0-25.11,3.85-35.99,11.14l-.93.64c-10.94,7.7-18.41,18.62-21.36,31.1l-20.79,14.07c-2.5-.37-5.03-.56-7.56-.56-10.42,0-20.68,3.16-29.66,9.14l-.28.19c-11.5,7.77-20.04,18.59-24.78,31.5-4.01,11.09-4.99,22.95-2.89,35.26,1.44,8.58,4.28,17.18,8.6,26.11,3.33,6.95,7.5,14.13,12.82,22.01l22.02,32.5c6.4,9.51,12.92,18.05,19.38,25.39,6.95,7.89,13.66,14.37,20.63,19.9,8.04,6.34,15.9,11.11,24.11,14.61,8.94,3.79,17.96,6.03,26.82,6.7.04.89.03,1.77.09,2.66.73,10.8,3.22,21.61,7.32,31.93,3.98,10.13,9.64,20,16.69,29.14,6.79,8.91,15.17,17.42,24.88,25.27,11.9,9.64,23.14,17.02,34.43,22.59,12.19,5.99,24.24,9.97,35.82,11.82,5.68.91,11.34,1.37,16.84,1.37h0c1.99,0,3.97-.08,5.93-.19,2.68,10.76,7.97,20.65,15.66,29.25,5.72,6.46,12.67,12.23,21.35,17.72,6.53,4.1,13.83,7.93,22.42,11.74l54.13,23.9c8.86,3.92,18.15,5.9,27.61,5.9l1.72-.02c7.55-.21,14.96-1.62,22.06-4.1,1.12,1.51,2.28,3,3.53,4.43,6.03,6.97,13.5,12.74,22.2,17.16l.28.14c7.79,3.9,16.48,6.55,25.82,7.88,4.34.64,8.67.96,12.87.96,4.9,0,9.76-.44,14.42-1.31l.35-.07c3.41-.66,6.71-1.52,9.89-2.59,6.84,4.13,14.49,7.42,23.3,10.05,7.53,2.24,15.68,3.97,24.77,5.26,9.21,1.33,17.46,1.98,25.24,1.98h0c10.06,0,18.97-1.09,27.14-3.3,12.15-3.25,22.54-9.19,30.67-17.16,4.9,3.2,10.07,6.08,15.55,8.54,9.46,4.21,19.76,7.18,30.78,8.84,5.78.85,11.8,1.28,17.89,1.28,5.14,0,10.47-.31,15.94-.93,13.33-1.54,25.73-4.7,36.86-9.38,11.52-4.84,21.68-10.93,30.1-18.02,2.69-2.25,5.21-4.62,7.58-7.07,9.67,5.34,20.55,8.2,32.43,8.44h1.4c8.26.01,16.78-1.2,26.05-3.71l.28-.08c7.45-2.06,15.17-4.84,23.72-8.57,17.99-7.9,31.69-16.64,41.75-26.69,7.61-.25,15.47-1.53,23.75-3.85,7.55-2.07,15.48-4.94,24.43-8.84,8.61-3.79,16-7.63,22.6-11.75,8.57-5.35,15.56-11.07,21.5-17.64,5.78-6.45,10.16-13.49,13.17-20.99.89.03,1.77.07,2.66.07h1.27c9.11-.18,18.24-2.17,27.34-6,8.06-3.44,15.79-8.43,23.11-14.98,7.17-6.46,12.97-13.61,17.15-21.11,1.74-3.09,3.24-6.24,4.5-9.44,7.4-2.53,14.78-6.23,22.49-11.26l.29-.19c6.5-4.31,13.03-9.43,19.86-15.57,15.66-14,26.35-27.42,32.67-41.02,4.72-10.16,6.9-20.61,6.69-30.79,5.06-1.78,10.05-3.96,14.9-6.59,6.78-3.67,13.37-8.12,19.46-13.1,5.79-4.7,11.44-10.14,16.81-16.17,5.06-5.7,9.79-11.91,14.15-18.61,6.58-10.18,11.97-20.43,15.96-30.26,5.17-12.6,7.98-25.26,8.38-37.62.48-15.04-2.76-29.32-9.63-42.45-6.89-13.18-17.46-24.43-31.39-33.44Z"/>
      <path class="st1" d="M1509,788.65c-.86-4.59-2.17-9.4-3.94-14.41-5.11-14.31-12.62-25.81-22.5-34.33-10.33-8.82-22.42-14.12-35.31-15.53-.12-.39-.25-.77-.39-1.16-3.33-9.75-9.08-18.69-16.65-25.87-7.21-6.87-15.99-12-26.11-15.27-8.03-2.62-16.72-3.9-26.55-3.9s-18.52,1.27-26.56,3.9c-10.04,3.24-18.79,8.34-25.98,15.15-7.78,7.34-13.44,16.16-16.83,26.22,0,0-.25.76-.3.93-12.75,1.41-24.77,6.64-35.22,15.42-10.01,8.49-17.66,20.2-22.74,34.78l-.36,1.07c-1.56,4.83-2.68,9.18-3.43,13.26-.93,5.07-1.4,10.04-1.4,14.78,0,10.96,2.43,21.21,7.34,30.71,3.84,7.33,8.93,13.74,15.16,19.11-1.92,6.25-2.91,12.72-2.91,19.23,0,8.51,1.83,16.97,5.43,25.16,2.47,5.62,5.75,11.06,9.74,16.16l.19.24c3.1,3.92,6.64,7.69,10.52,11.23,4.08,3.73,8.47,7.09,13.14,10.04,5.13,3.22,10.52,5.85,16.02,7.83l.26.09c7.51,2.66,15.17,4,22.77,4,9.25,0,18.12-1.92,26.39-5.69,3.12-1.41,6.13-3.07,9.03-4.97,10.43,6.98,22.47,10.66,34.82,10.66,7.41,0,14.94-1.29,22.37-3.83l.58-.2c5.51-1.96,10.91-4.57,16.05-7.76l.53-.33c4.42-2.82,8.69-6.09,12.7-9.72l.28-.25c3.84-3.53,7.33-7.27,10.36-11.11l.17-.21c3.99-5.11,7.27-10.55,9.75-16.18,3.62-8.22,5.45-16.69,5.45-25.16,0-6.52-.99-13-2.94-19.29,6.08-5.27,11.07-11.5,14.8-18.47,5.11-9.44,7.71-19.97,7.71-31.29,0-4.97-.49-10.02-1.45-15.04Z"/>
    </g>
    <path class="st1" d="M1460.74,797.78c-.39-2.12-1.03-4.47-1.94-7.03-2.22-6.23-4.94-10.73-8.14-13.49-3.21-2.74-6.7-4.14-10.42-4.14-1.71,0-3.7.34-5.92.98-2.25.65-4.63,1.5-7.16,2.56-2.53,1.06-5.12,2.25-7.81,3.57-2.66,1.34-5.25,2.69-7.73,4.06-5.97,3.23-12.12,6.93-18.48,11.06.8-4.47,1.58-9.02,2.38-13.62.34-1.94.7-3.98,1.11-6.18.39-2.17.8-4.37,1.24-6.54.41-2.2.85-4.37,1.27-6.51.44-2.17.88-4.24,1.32-6.23.34-1.58.62-3.18.85-4.81.23-1.63.34-3.15.34-4.65,0-2.71-.41-5.27-1.24-7.65-.8-2.38-2.17-4.45-4.03-6.2-1.86-1.78-4.34-3.15-7.42-4.14-3.05-1.01-6.85-1.5-11.4-1.5s-8.35.49-11.4,1.5c-3.08.98-5.53,2.35-7.42,4.14-1.86,1.76-3.21,3.83-4.01,6.2-.78,2.38-1.19,4.94-1.19,7.65,0,1.5.1,3.02.34,4.65.23,1.63.52,3.23.85,4.81.41,1.99.83,4.06,1.29,6.23.44,2.15.88,4.32,1.32,6.51.41,2.17.83,4.37,1.22,6.54.41,2.2.78,4.24,1.11,6.18.8,4.6,1.6,9.15,2.4,13.62-6.44-4.14-12.62-7.83-18.59-11.06-2.53-1.37-5.14-2.71-7.83-4.06-2.66-1.32-5.25-2.51-7.73-3.57-2.51-1.06-4.89-1.91-7.11-2.56-2.25-.65-4.19-.98-5.84-.98-3.75,0-7.26,1.4-10.52,4.14-3.26,2.77-5.97,7.26-8.14,13.49-.83,2.56-1.47,4.91-1.86,7.03-.39,2.12-.59,4.11-.59,5.92,0,3.05.59,5.71,1.73,7.91,1.16,2.22,2.79,4.08,4.83,5.58,2.04,1.5,4.42,2.69,7.13,3.57,2.74.88,5.69,1.55,8.87,2.02,4.19.62,8.53,1.19,12.98,1.73,4.47.54,8.56,1.01,12.31,1.42,4.37.49,8.66.93,12.87,1.27,0,.05-.47.49-1.37,1.32-.9.83-2.12,1.94-3.67,3.36-1.53,1.42-3.31,3.05-5.35,4.86-2.04,1.81-4.19,3.72-6.39,5.71-2.22,1.99-4.47,3.98-6.77,6-2.3,2.02-4.5,3.9-6.59,5.66-3.18,2.71-5.82,5.69-7.88,8.87s-3.1,6.44-3.1,9.77c0,1.65.41,3.44,1.27,5.38s2.02,3.83,3.49,5.71c1.47,1.86,3.18,3.67,5.12,5.43,1.91,1.76,3.96,3.33,6.13,4.71,2.15,1.34,4.34,2.43,6.57,3.23,2.2.78,4.34,1.19,6.39,1.19,2.2,0,4.24-.44,6.07-1.29,1.86-.83,3.57-2.02,5.14-3.49,1.6-1.47,3.05-3.21,4.34-5.22,1.32-2.02,2.56-4.21,3.75-6.59,1.99-4.11,3.98-8.38,5.92-12.87,1.96-4.47,3.72-8.61,5.25-12.33,1.81-4.39,3.52-8.71,5.12-12.95.21-.05.62.7,1.19,2.25.57,1.55,1.27,3.62,2.07,6.18.83,2.56,1.81,5.48,2.95,8.76,1.14,3.31,2.43,6.64,3.88,10.06s3.02,6.77,4.76,10.08c1.73,3.33,3.62,6.26,5.66,8.81,2.04,2.56,4.27,4.63,6.62,6.23,2.35,1.58,4.86,2.38,7.52,2.38,2.04,0,4.21-.41,6.49-1.19,2.25-.8,4.47-1.89,6.64-3.23,2.15-1.37,4.19-2.95,6.13-4.71,1.91-1.76,3.62-3.57,5.09-5.43,1.47-1.89,2.64-3.77,3.49-5.71.85-1.94,1.29-3.72,1.29-5.38,0-3.33-1.03-6.59-3.1-9.77-2.09-3.18-4.7-6.15-7.88-8.87-2.09-1.76-4.32-3.65-6.64-5.66-2.33-2.02-4.6-4.01-6.82-6-2.2-1.99-4.32-3.9-6.33-5.71-2.02-1.81-3.8-3.44-5.33-4.86-1.53-1.42-2.74-2.53-3.67-3.36-.9-.83-1.34-1.27-1.34-1.32,4.14-.34,8.4-.78,12.77-1.27,3.75-.41,7.86-.88,12.36-1.42,4.47-.54,8.82-1.11,13.03-1.73,3.1-.47,6.02-1.14,8.76-2.02,2.71-.88,5.09-2.07,7.16-3.57,2.02-1.5,3.64-3.36,4.83-5.58,1.19-2.2,1.78-4.86,1.78-7.91,0-1.81-.18-3.8-.59-5.92Z"/>
  </g>
  <g>
    <g>
      <path class="st0" d="M367.58,428.45c-.67,2.61-1.94,5.04-3.8,7.32l-47.72,58.27c-4.29,5.27-8.43,9.72-12.38,13.31-3.96,3.59-7.7,6.26-11.25,8.01-3.57,1.73-6.95,2.51-10.13,2.33-3.21-.21-6.18-1.42-8.97-3.7-1.06-.88-1.6-1.78-1.65-2.69-.03-.93.16-1.86.57-2.84.39-.98.85-2.04,1.37-3.13.52-1.11.83-2.27.9-3.52.08-1.24-.18-2.56-.83-3.98-.62-1.4-1.94-2.92-3.96-4.58l-50.51-41.34c-1.96-1.63-3.7-2.61-5.25-2.95-1.53-.36-2.9-.39-4.08-.08-1.21.34-2.3.88-3.26,1.6-.98.72-1.91,1.4-2.79,1.96-.88.57-1.78.96-2.69,1.09-.9.16-1.89-.21-2.97-1.09-2.77-2.25-4.55-4.94-5.35-8.01-.8-3.08-.7-6.51.31-10.37,1.03-3.83,2.9-8.04,5.64-12.62s6.28-9.49,10.6-14.76l47.02-57.47c2.69-3.28,5.89-5.38,9.64-6.33,3.77-.93,7.65-1.11,11.66-.49,3.98.65,7.88,1.84,11.63,3.62,3.77,1.78,7.01,3.75,9.67,5.95,1.78,1.47,3.18,3.08,4.14,4.78.98,1.73,1.55,3.52,1.71,5.33s-.05,3.59-.62,5.4c-.59,1.81-1.53,3.49-2.79,5.04-1.14,1.4-2.48,2.56-4.06,3.52-1.55.96-3.36,1.6-5.4,1.96-2.02.34-4.32.34-6.82,0-2.51-.34-5.27-1.14-8.27-2.4l-13.31-6.54-18.33,22.36,30.81,25.23,3.72-5.92c-1.06-2.35-2.04-4.5-2.97-6.46-.93-1.96-1.65-3.75-2.12-5.43-.47-1.65-.59-3.21-.41-4.68.21-1.47.9-2.92,2.07-4.37,2.02-2.46,4.27-4.11,6.72-5.01,2.48-.88,5.02-1.16,7.63-.91,2.61.28,5.25,1.06,7.91,2.33,2.64,1.27,5.12,2.87,7.45,4.76,2.38,1.94,4.45,4.08,6.23,6.46,1.81,2.35,3.1,4.81,3.9,7.32.8,2.53,1.03,5.09.65,7.7-.36,2.59-1.58,5.12-3.57,7.57-1.19,1.42-2.46,2.38-3.88,2.87-1.4.49-2.97.67-4.68.54-1.71-.16-3.62-.47-5.74-1.01-2.09-.52-4.42-1.09-6.98-1.71l-5.07,4.81,37.3,30.56,17.68-23.78-9.41-12.31c-1.91-2.84-3.31-5.51-4.21-8.04-.88-2.51-1.34-4.83-1.4-7.01-.05-2.17.26-4.19.93-6,.7-1.84,1.6-3.46,2.77-4.91,1.37-1.63,2.9-2.95,4.63-3.93,1.73-.96,3.57-1.55,5.51-1.71,1.91-.18,3.88.05,5.84.7,1.96.65,3.9,1.73,5.76,3.28,1.84,1.5,3.64,3.31,5.45,5.4,1.84,2.12,3.46,4.39,4.94,6.85,1.47,2.43,2.71,4.99,3.72,7.68,1.01,2.69,1.63,5.4,1.86,8.12.23,2.71,0,5.4-.7,8.01Z"/>
      <path class="st0" d="M487.35,331.71c-2.74,5.89-6.9,11.56-12.43,17.01-5.53,5.48-12.07,10.73-19.57,15.79-4.42,2.97-9.02,5.58-13.83,7.83-4.81,2.27-9.59,4.08-14.37,5.45-4.78,1.37-9.49,2.27-14.11,2.71-4.6.41-8.92.31-12.95-.36-4.03-.67-7.7-1.91-10.99-3.77-3.31-1.84-6.02-4.37-8.19-7.57-1.63-2.46-2.69-4.83-3.15-7.19-.44-2.33-.44-4.5.05-6.54.47-2.02,1.32-3.88,2.56-5.53,1.24-1.68,2.77-3.1,4.52-4.29,2.17-1.45,4.6-2.51,7.29-3.13,2.71-.65,5.45-.75,8.25-.34,2.77.44,5.48,1.42,8.12,3,2.61,1.58,4.91,3.85,6.93,6.82.47.7,1.34,1.24,2.59,1.58,1.24.36,2.74.44,4.52.23,1.78-.18,3.83-.7,6.1-1.55,2.3-.83,4.7-2.12,7.24-3.83,3.54-2.38,6.23-4.5,8.01-6.39,1.81-1.86,3.02-3.57,3.62-5.09.62-1.5.78-2.87.47-4.06-.31-1.16-.8-2.25-1.45-3.21-.8-1.19-2.4-1.65-4.78-1.37-2.38.28-5.33.93-8.82,1.91-3.52,1.01-7.47,2.22-11.89,3.67-4.42,1.45-9.02,2.74-13.83,3.85-4.83,1.11-9.77,1.91-14.84,2.4-5.04.49-9.98.26-14.76-.65-4.81-.93-9.36-2.69-13.7-5.3-4.32-2.61-8.19-6.46-11.61-11.53-3.39-5.04-5.82-9.95-7.26-14.74-1.45-4.81-2.09-9.49-1.94-14.04.18-4.58,1.09-9,2.74-13.26,1.63-4.27,3.88-8.4,6.75-12.36,2.84-3.98,6.26-7.76,10.19-11.35,3.96-3.62,8.3-7.01,13.03-10.19,8.48-5.71,16.29-9.72,23.37-12.02,7.11-2.3,13.44-3.39,18.97-3.21,5.53.15,10.26,1.32,14.17,3.44,3.9,2.15,6.9,4.76,9,7.88,1.91,2.82,2.95,5.66,3.15,8.53.18,2.87-.23,5.61-1.24,8.25-1.03,2.61-2.53,5.07-4.55,7.34-2.04,2.25-4.29,4.24-6.77,5.89-2.4,1.63-4.91,2.92-7.55,3.93-2.61,1.01-5.17,1.58-7.63,1.68-2.46.13-4.73-.21-6.82-.98-2.09-.78-3.8-2.15-5.12-4.11-.96-1.45-1.37-2.74-1.19-3.9.16-1.14.47-2.22.93-3.23.47-1.01.88-1.96,1.19-2.9.34-.9.18-1.84-.47-2.79-.9-1.34-2.95-1.76-6.1-1.24-3.15.54-7.24,2.48-12.2,5.82-3.46,2.33-6.02,4.39-7.7,6.23-1.71,1.84-2.79,3.49-3.28,4.99-.49,1.47-.57,2.79-.18,3.98.36,1.16.88,2.25,1.55,3.26,1.4,2.07,3.59,3.23,6.57,3.46,3,.26,6.54,0,10.65-.75,4.14-.75,8.69-1.81,13.7-3.15,4.99-1.34,10.21-2.61,15.61-3.77,5.4-1.16,10.88-2.02,16.42-2.56,5.56-.54,10.93-.39,16.11.44,5.2.83,10.08,2.59,14.71,5.25,4.6,2.66,8.66,6.62,12.18,11.84,4.5,6.7,7.01,13.18,7.47,19.47.49,6.31-.65,12.38-3.41,18.28Z"/>
      <path class="st0" d="M637.41,180.38c-.13,1.99-.62,3.75-1.45,5.35-.85,1.58-1.99,2.97-3.46,4.16-1.5,1.19-3.18,2.07-5.12,2.66-1.71.54-3.49.8-5.38.78-1.89-.03-3.8-.44-5.74-1.24-1.94-.83-3.85-2.07-5.74-3.75-1.89-1.68-3.67-3.93-5.33-6.75l-7.29-12.12-9.46,2.56,24.58,79.03c.75,2.48,1.68,4.32,2.79,5.48,1.09,1.16,2.22,1.96,3.44,2.38,1.22.39,2.46.57,3.7.47,1.24-.08,2.4-.1,3.52-.08,1.09.03,2.04.21,2.9.59.83.36,1.47,1.21,1.89,2.53,2.12,6.9.13,12.98-6.02,18.25-6.18,5.25-15.98,9.98-29.42,14.17-6.51,2.02-12.38,3.44-17.66,4.27-5.27.83-9.88.98-13.83.49-3.93-.52-7.16-1.71-9.72-3.65-2.56-1.91-4.39-4.58-5.45-8.01-.39-1.32-.36-2.38.1-3.15.49-.78,1.16-1.47,2.04-2.07.88-.62,1.84-1.22,2.87-1.86,1.03-.62,1.94-1.42,2.69-2.4.75-1.01,1.24-2.25,1.5-3.8.26-1.53,0-3.52-.78-6l-24.64-79.18-9.15,3.21.9,14.22c.03,3.26-.26,6.1-.9,8.53-.62,2.43-1.47,4.52-2.56,6.28-1.09,1.76-2.38,3.18-3.85,4.27-1.47,1.11-3.05,1.91-4.76,2.46-1.94.59-3.85.83-5.74.67-1.89-.13-3.62-.62-5.25-1.45-1.63-.83-3.05-2.02-4.29-3.54-1.24-1.55-2.2-3.44-2.87-5.64-1.03-3.31-1.68-7.06-1.91-11.25-.23-4.19.1-8.25,1.01-12.2.93-3.93,2.53-7.47,4.81-10.62,2.27-3.18,5.43-5.38,9.46-6.62l94.8-29.5c4.03-1.24,7.86-1.22,11.5.08,3.62,1.27,6.93,3.28,9.93,6,3,2.74,5.58,5.87,7.73,9.44,2.17,3.57,3.77,6.98,4.81,10.29.67,2.22.96,4.29.8,6.28Z"/>
      <path class="st0" d="M811.96,71.76c-.05,2.66-.65,5.25-1.81,7.73s-2.74,4.91-4.68,7.29c-1.94,2.35-4.16,4.63-6.64,6.82-2.48,2.17-5.07,4.29-7.76,6.31-2.69,2.04-5.35,3.98-8.01,5.82-2.66,1.81-5.12,3.57-7.39,5.2-5.92,4.29-10.73,7.37-14.45,9.2-3.72,1.84-6.59,2.74-8.61,2.71-1.03-.03-2.07-.28-3.08-.83-.98-.54-1.86-1.24-2.64-2.07-.78-.85-1.37-1.78-1.81-2.77-.47-.98-.67-1.94-.65-2.87,0-1.21.21-2.51.57-3.93.36-1.4,1.01-3.08,1.91-4.99.88-1.91,2.07-4.16,3.57-6.75,1.47-2.56,3.39-5.58,5.69-9.07,2.84-4.34,5.56-8.76,8.17-13.29,2.61-4.52,5.3-8.61,8.04-12.31,2.74-3.67,5.66-6.67,8.76-8.97,3.1-2.33,6.62-3.46,10.52-3.39,3.13.05,5.92.67,8.43,1.91,2.48,1.22,4.63,2.79,6.41,4.68,1.78,1.91,3.15,4.06,4.08,6.44.96,2.38,1.4,4.76,1.37,7.11Z"/>
      <path class="st0" d="M848.2,153.91c-.03,1.4-.39,2.38-1.09,2.97-.7.59-1.58,1.06-2.64,1.37-1.03.34-2.17.65-3.39.91-1.21.28-2.35.78-3.39,1.5-1.06.75-1.94,1.84-2.66,3.26-.72,1.42-1.09,3.46-1.14,6.13l-.75,56.51c-.08,5.61-.9,10.65-2.48,15.12-1.58,4.47-3.75,8.43-6.51,11.89-2.77,3.44-6.07,6.39-9.88,8.79-3.83,2.43-8.01,4.39-12.54,5.89-4.52,1.53-9.33,2.61-14.42,3.28-5.09.67-10.31.96-15.67.88-6.41-.1-12.56-.59-18.43-1.42-5.87-.85-11.35-2.12-16.44-3.83-5.07-1.71-9.67-3.83-13.78-6.36-4.11-2.56-7.63-5.61-10.55-9.18-2.92-3.57-5.14-7.63-6.67-12.2-1.55-4.55-2.27-9.64-2.2-15.3l.93-56.61c.05-2.53-.28-4.52-.96-5.95-.65-1.42-1.5-2.51-2.48-3.23-1.01-.75-2.09-1.27-3.28-1.58-1.16-.31-2.25-.62-3.26-.96-1.01-.34-1.86-.83-2.53-1.42-.7-.62-1.01-1.63-.98-3.02.05-3.57,1.03-6.62,2.95-9.15,1.91-2.56,4.7-4.6,8.32-6.2,3.65-1.58,8.09-2.71,13.39-3.41,5.3-.7,11.35-.98,18.15-.88,7.06.13,13.26.62,18.69,1.47,5.4.88,9.93,2.15,13.57,3.85,3.64,1.71,6.36,3.85,8.19,6.46,1.84,2.61,2.74,5.69,2.66,9.25-.03,1.4-.39,2.38-1.09,2.97s-1.55,1.06-2.56,1.34c-1.03.31-2.15.57-3.36.83-1.22.23-2.33.7-3.36,1.37-1.01.67-1.89,1.71-2.59,3.1-.72,1.42-1.11,3.39-1.14,5.92l-.93,56.77c-.05,4.06.47,7.5,1.58,10.34,1.09,2.84,2.66,5.17,4.73,7.01,2.04,1.81,4.5,3.15,7.34,4.01,2.82.85,5.95,1.32,9.36,1.37,3.18.05,6.15-.31,8.89-1.11,2.77-.8,5.14-2.07,7.21-3.83,2.04-1.76,3.67-4.03,4.91-6.85,1.21-2.79,1.86-6.2,1.94-10.19l.9-56.59c.05-2.56-.26-4.52-.93-5.97-.67-1.42-1.5-2.48-2.51-3.23-.98-.72-2.09-1.27-3.31-1.58-1.19-.31-2.3-.62-3.31-.96-1.01-.34-1.86-.8-2.53-1.42-.67-.62-1.01-1.63-.98-3,.05-3.59.96-6.64,2.74-9.18s4.01-4.63,6.67-6.2c2.69-1.6,5.64-2.77,8.82-3.52,3.18-.72,6.26-1.06,9.18-1.01,2.61.05,5.4.47,8.43,1.29,3.02.83,5.82,2.09,8.38,3.77,2.59,1.71,4.68,3.83,6.36,6.44,1.65,2.59,2.46,5.69,2.4,9.25Z"/>
      <path class="st0" d="M1049.24,228.18c-.67-5.35-2.15-10.6-4.45-15.69-2.33-5.09-5.61-9.93-9.85-14.53-4.27-4.6-9.59-8.92-15.95-12.95-6.39-4.01-13.96-7.6-22.77-10.78l-39.73-14.32c-6.41-2.3-12.23-4.01-17.45-5.09-5.22-1.09-9.8-1.47-13.73-1.16-3.96.28-7.24,1.32-9.88,3.1-2.64,1.78-4.55,4.37-5.76,7.73-.47,1.29-.49,2.35-.05,3.15.47.8,1.11,1.53,1.94,2.17.85.65,1.78,1.29,2.79,1.96,1.01.67,1.89,1.53,2.59,2.56.7,1.01,1.14,2.3,1.32,3.88.16,1.55-.18,3.54-1.03,5.92l-22.21,61.58c-.88,2.43-1.86,4.19-3,5.25-1.11,1.09-2.27,1.78-3.46,2.12-1.22.34-2.4.44-3.62.31-1.21-.13-2.35-.23-3.39-.26-1.06-.05-2.02.1-2.87.44-.88.31-1.53,1.14-2.02,2.46-1.19,3.36-1.37,6.57-.49,9.67.9,3.08,2.74,6,5.58,8.76,2.84,2.77,6.62,5.4,11.32,7.94,4.7,2.53,10.24,4.94,16.65,7.26l32.91,11.84c10.86,3.93,20.63,6.49,29.31,7.68,8.66,1.19,16.42,1.29,23.24.34,6.82-.98,12.85-2.95,18.07-5.87,5.22-2.92,9.82-6.57,13.78-10.86,3.93-4.32,7.37-9.23,10.26-14.71,2.9-5.48,5.43-11.27,7.63-17.35,1.94-5.38,3.31-10.81,4.14-16.29.8-5.48.85-10.88.18-16.26ZM998.53,208.2c-.16,4.55-.9,9.59-2.22,15.12s-3.02,11.22-5.14,17.09c-2.74,7.6-5.53,14.42-8.38,20.45-2.84,6.02-5.74,11.01-8.63,14.97-2.9,3.96-5.84,6.77-8.84,8.45-3,1.68-6.02,1.96-9.05.88-2.27-.83-3.96-1.91-5.04-3.23-1.09-1.34-1.73-2.84-1.94-4.47-.21-1.65-.08-3.44.36-5.35.44-1.94,1.03-3.9,1.76-5.89l23.24-64.5c.72-2.02,1.53-3.9,2.43-5.66.88-1.78,1.91-3.23,3.13-4.34,1.19-1.14,2.64-1.89,4.34-2.22,1.68-.34,3.67-.1,5.95.72,3.02,1.09,5.17,3.23,6.44,6.41,1.24,3.18,1.78,7.03,1.6,11.58Z"/>
      <path class="st0" d="M1180.93,289.65c.05,3.18-.96,6.23-3.02,9.15-.78,1.14-1.65,1.76-2.56,1.84-.9.1-1.89,0-2.9-.34-1.01-.31-2.07-.7-3.23-1.16-1.16-.47-2.35-.7-3.59-.7-1.24.03-2.56.39-3.93,1.16-1.4.75-2.82,2.17-4.29,4.24l-37.54,52.94c-1.5,2.15-2.38,3.98-2.66,5.56-.26,1.58-.18,2.97.23,4.19.41,1.21,1.03,2.27,1.86,3.23.83.93,1.58,1.84,2.22,2.71.65.88,1.09,1.76,1.29,2.66.21.9-.08,1.91-.88,3.05-4.16,5.89-10.19,7.99-18.12,6.33-7.94-1.68-17.66-6.59-29.16-14.68-5.56-3.93-10.29-7.73-14.14-11.43-3.88-3.67-6.8-7.21-8.82-10.65-1.99-3.41-3-6.72-3.05-9.93-.03-3.21.98-6.28,3.05-9.2.8-1.14,1.65-1.73,2.56-1.84.93-.1,1.89.03,2.9.34,1.01.34,2.07.7,3.21,1.16,1.14.44,2.33.65,3.57.65s2.53-.36,3.9-1.11c1.37-.72,2.79-2.15,4.29-4.27l37.61-53.36c1.47-2.07,2.33-3.88,2.56-5.43.26-1.58.18-2.92-.23-4.11-.41-1.16-1.01-2.2-1.81-3.13-.8-.9-1.53-1.78-2.17-2.64-.65-.83-1.06-1.71-1.29-2.61-.21-.88.08-1.89.88-3.02,2.07-2.92,4.6-4.91,7.63-5.92,3-1.01,6.46-1.16,10.34-.41,3.9.72,8.25,2.3,13,4.71,4.76,2.4,9.93,5.56,15.48,9.49,5.76,4.06,10.62,7.99,14.61,11.74,3.98,3.77,7.01,7.37,9.05,10.83,2.04,3.46,3.1,6.77,3.15,9.95Z"/>
      <path class="st0" d="M1311.63,420.82c-1.16-6.15-3.39-12.56-6.75-19.23-3.33-6.7-8.01-13.62-13.99-20.81-7.42-8.89-14.53-16.05-21.35-21.4-6.8-5.38-13.37-9.33-19.7-11.81-6.31-2.51-12.43-3.75-18.33-3.72-5.92.05-11.66,1.03-17.27,2.95-5.61,1.94-11.09,4.63-16.44,8.07-5.35,3.44-10.65,7.34-15.87,11.71-4.58,3.8-8.63,7.96-12.2,12.46-3.57,4.52-6.46,9.36-8.71,14.53-2.22,5.17-3.7,10.6-4.42,16.31-.72,5.71-.54,11.63.59,17.76,1.11,6.13,3.28,12.43,6.46,18.92,3.21,6.51,7.6,13.11,13.18,19.8,7.37,8.87,14.53,15.95,21.43,21.22,6.93,5.27,13.62,9.13,20.09,11.5,6.46,2.4,12.72,3.52,18.77,3.41,6.05-.13,11.89-1.19,17.55-3.15,5.64-1.94,11.12-4.63,16.44-8.04,5.3-3.41,10.44-7.19,15.41-11.32,4.39-3.67,8.4-7.65,11.99-11.97,3.62-4.32,6.57-8.97,8.87-13.91,2.3-4.96,3.85-10.21,4.68-15.74.85-5.53.7-11.37-.44-17.53ZM1269.16,406.29c-1.63,2.87-3.77,5.87-6.44,8.97-2.69,3.08-5.69,6.2-8.97,9.31-3.31,3.13-6.75,6.23-10.31,9.28-3.57,3.05-7.06,5.97-10.42,8.79l-3,2.48c-3.8,3.18-7.34,5.89-10.6,8.12-3.26,2.22-6.23,3.83-8.92,4.83-2.69,1.01-5.12,1.34-7.29.98-2.15-.34-4.06-1.5-5.74-3.49-1.68-2.04-2.27-4.47-1.76-7.26.52-2.79,1.81-5.82,3.83-9.05,2.04-3.23,4.68-6.62,7.91-10.13,3.23-3.52,6.7-7.01,10.39-10.44,3.7-3.46,7.45-6.82,11.27-10.08,3.83-3.26,7.34-6.23,10.57-8.92,3.57-2.97,6.77-5.45,9.69-7.45,2.9-2.02,5.56-3.44,7.99-4.29,2.4-.85,4.63-1.03,6.64-.54,2.02.49,3.9,1.78,5.64,3.88,1.71,2.04,2.46,4.32,2.25,6.88-.21,2.53-1.14,5.25-2.74,8.14Z"/>
      <path class="st0" d="M329.81,1172.75c-1.19-4.83-3.28-10.39-6.31-16.67-3.05-6.28-7.26-13.42-12.67-21.38l-25.85-38.21c-3.83-5.64-7.52-10.42-11.14-14.37-3.59-3.93-7.11-6.93-10.5-9-3.36-2.07-6.64-3.15-9.82-3.26-3.18-.13-6.26.83-9.23,2.82-1.14.8-1.76,1.63-1.89,2.53-.1.93,0,1.89.28,2.9.31,1.03.67,2.09,1.09,3.23.44,1.16.62,2.35.59,3.59-.03,1.24-.44,2.53-1.22,3.9-.78,1.37-2.22,2.77-4.32,4.19l-54.05,36.58c-2.15,1.45-4.01,2.3-5.53,2.48-1.53.21-2.9.1-4.06-.34-1.16-.44-2.2-1.06-3.08-1.86-.9-.83-1.78-1.58-2.61-2.22-.83-.67-1.68-1.11-2.59-1.34-.88-.23-1.89.05-3.05.83-2.95,1.99-4.99,4.5-6.1,7.52-1.09,3-1.32,6.46-.65,10.37.65,3.9,2.15,8.27,4.47,13.08,2.3,4.81,5.38,10.03,9.18,15.67l22.1,32.62c5.38,7.99,10.57,14.76,15.51,20.37,4.94,5.61,9.67,10.21,14.17,13.78,4.52,3.57,8.82,6.23,12.87,7.96,4.08,1.73,7.96,2.74,11.63,2.97,3.7.26,7.21-.13,10.52-1.19,3.33-1.09,6.46-2.61,9.44-4.63,5.35-3.62,9.25-7.47,11.66-11.56,2.43-4.08,3.83-8.19,4.19-12.38.34-4.16-.13-8.27-1.4-12.33-1.29-4.03-2.95-7.83-5.02-11.4,1.32,1.76,2.84,3.49,4.55,5.17,1.71,1.71,3.57,3.23,5.53,4.58,1.99,1.32,4.11,2.46,6.36,3.33,2.22.88,4.58,1.4,7.06,1.55,2.46.13,5.02-.16,7.65-.91,2.64-.72,5.35-2.07,8.17-3.96,2.43-1.65,4.76-3.49,6.98-5.53,2.22-2.02,4.06-4.39,5.51-7.16,1.45-2.77,2.35-5.95,2.74-9.59.39-3.65,0-7.88-1.19-12.74ZM248.23,1185.13c-.96,1.71-2.43,3.39-4.39,5.07-1.96,1.68-4.29,3.41-6.95,5.22-2.92,1.99-5.66,3.57-8.22,4.78-2.56,1.21-4.96,1.89-7.21,2.02-2.25.13-4.34-.34-6.31-1.37-1.96-1.06-3.8-2.84-5.51-5.38-1.37-1.99-2.07-3.83-2.07-5.43-.03-1.63.39-3.13,1.27-4.47.85-1.34,2.07-2.64,3.62-3.83,1.55-1.19,3.23-2.38,4.99-3.59l21.71-14.68c.26.15.75.62,1.47,1.4.59.65,1.4,1.68,2.46,3.05,1.03,1.4,2.43,3.36,4.19,5.95,1.42,2.12,2.17,4.08,2.27,5.95.1,1.84-.34,3.62-1.32,5.33ZM295.07,1152.38c-.96,2.04-2.48,4.03-4.55,5.95-2.07,1.94-4.55,3.88-7.42,5.82-2.66,1.81-5.14,3.31-7.45,4.5-2.27,1.21-4.42,1.96-6.39,2.25s-3.77.03-5.45-.75c-1.68-.78-3.23-2.22-4.65-4.32-1.76-2.59-3.08-4.63-3.98-6.1-.88-1.47-1.53-2.61-1.91-3.39-.49-.93-.75-1.58-.78-1.91l21.71-14.68c1.78-1.21,3.52-2.3,5.2-3.31,1.68-1.01,3.33-1.65,4.89-1.96,1.58-.28,3.13-.13,4.63.49,1.5.62,2.92,1.94,4.29,3.96,1.71,2.53,2.69,4.89,2.92,7.11.23,2.2-.1,4.32-1.06,6.36Z"/>
      <path class="st0" d="M450.25,1297.61c-.26-5.58-1.55-11.3-3.85-17.11-2.33-5.79-5.76-11.66-10.34-17.55-4.58-5.89-10.5-11.81-17.76-17.68-9-7.32-17.37-12.95-25.08-16.91-7.73-3.96-14.92-6.54-21.61-7.78-6.7-1.21-12.93-1.24-18.72-.05-5.79,1.16-11.25,3.23-16.36,6.23-5.14,2.97-9.98,6.67-14.58,11.09-4.58,4.39-9.02,9.25-13.31,14.55-3.75,4.6-6.93,9.49-9.54,14.61-2.64,5.09-4.55,10.42-5.74,15.9-1.19,5.51-1.58,11.14-1.19,16.88.39,5.74,1.73,11.5,4.03,17.29,2.27,5.79,5.61,11.58,10.03,17.32,4.39,5.76,9.95,11.4,16.73,16.88,8.97,7.26,17.37,12.82,25.18,16.67,7.78,3.83,15.1,6.31,21.9,7.39,6.8,1.09,13.16,1.01,19.08-.31,5.92-1.29,11.45-3.44,16.62-6.46,5.17-3.02,10-6.72,14.55-11.09,4.55-4.37,8.87-9.07,12.95-14.09,3.59-4.45,6.75-9.13,9.44-14.06,2.71-4.94,4.7-10.06,6-15.36,1.29-5.33,1.81-10.75,1.58-16.36ZM401.91,1274.47c-1.03,3.15-2.56,6.49-4.58,10.06-2.04,3.54-4.37,7.19-6.98,10.88-2.64,3.7-5.43,7.39-8.32,11.06-2.92,3.7-5.76,7.24-8.53,10.65l-2.46,3.02c-3.13,3.85-6.08,7.19-8.84,10-2.74,2.82-5.35,4.96-7.81,6.49-2.46,1.5-4.76,2.3-6.95,2.38-2.17.08-4.29-.7-6.31-2.33-2.04-1.68-3.1-3.93-3.13-6.77-.03-2.84.65-6.07,2.02-9.64,1.37-3.57,3.28-7.39,5.79-11.45,2.48-4.08,5.2-8.17,8.14-12.28,2.97-4.11,6-8.12,9.13-12.05,3.1-3.95,6-7.55,8.66-10.83,2.9-3.57,5.58-6.64,8.04-9.18,2.48-2.53,4.81-4.45,7.01-5.74,2.2-1.29,4.34-1.89,6.44-1.81,2.07.1,4.16.98,6.28,2.69,2.07,1.68,3.23,3.77,3.52,6.33.28,2.53-.08,5.35-1.11,8.51Z"/>
      <path class="st0" d="M558.96,1433.27c-.13,2.09-.65,4.27-1.63,6.49-.96,2.15-2.22,4.42-3.75,6.75-1.55,2.35-3.31,4.58-5.3,6.67-2.02,2.07-4.16,3.98-6.49,5.69-2.35,1.71-4.78,3.05-7.32,4.01-2.53.96-5.17,1.47-7.88,1.55-2.71.05-5.4-.52-8.09-1.71l-54.16-23.91c-6.23-2.77-11.61-5.56-16.13-8.4-4.5-2.84-8.09-5.74-10.73-8.71-2.64-2.95-4.27-6-4.94-9.15-.67-3.13-.28-6.33,1.16-9.59.57-1.27,1.29-2.04,2.17-2.33.85-.26,1.84-.34,2.9-.23,1.03.13,2.17.28,3.36.49,1.19.23,2.4.21,3.62-.05,1.22-.23,2.43-.85,3.62-1.86,1.19-.98,2.3-2.66,3.36-5.04l26.37-59.69c1.03-2.33,1.5-4.29,1.45-5.84-.05-1.58-.41-2.9-1.03-3.98-.65-1.06-1.45-1.96-2.4-2.71-.96-.72-1.84-1.45-2.64-2.15-.8-.7-1.4-1.47-1.78-2.3-.39-.83-.31-1.89.26-3.15,1.45-3.28,3.54-5.71,6.31-7.29,2.74-1.6,6.1-2.43,10.06-2.46,3.98-.05,8.53.62,13.68,2.04,5.14,1.42,10.83,3.52,17.06,6.26,6.44,2.84,11.99,5.74,16.62,8.63,4.65,2.89,8.32,5.84,11.01,8.84,2.69,2.97,4.37,6.02,5.04,9.13.67,3.1.31,6.31-1.14,9.56-.57,1.29-1.29,2.04-2.17,2.33-.88.26-1.84.36-2.9.23-1.03-.13-2.17-.28-3.41-.52-1.22-.23-2.43-.21-3.65.05-1.24.23-2.43.88-3.64,1.89-1.22,1.01-2.33,2.69-3.33,5.01l-28.64,64.37c-1.06,2.43-1.63,4.52-1.68,6.26-.03,1.76.23,3.26.78,4.47.57,1.21,1.34,2.22,2.33,3,.98.8,1.94,1.4,2.9,1.81.1.05.23.1.41.13.16.05.52.18,1.03.36.49.21,1.27.47,2.3.78,1.01.34,2.43.8,4.24,1.42l9.33-12.36c2.22-2.61,4.45-4.68,6.62-6.2,2.2-1.53,4.32-2.61,6.41-3.23,2.07-.62,4.06-.88,6-.72,1.91.16,3.72.62,5.4,1.37,2.02.88,3.7,2.02,5.09,3.44,1.4,1.4,2.43,3,3.1,4.76.67,1.78.96,3.72.85,5.82Z"/>
      <path class="st0" d="M739.89,1485.62c-.52-.7-1.29-1.29-2.27-1.78-.98-.49-2.09-.96-3.33-1.42-1.24-.49-2.46-1.19-3.62-2.12-1.19-.9-2.25-2.17-3.18-3.77-.93-1.58-1.6-3.72-1.96-6.41l-9.69-66.98c-.26-1.94-.28-3.52-.1-4.73.18-1.37.62-2.4,1.27-3.1s1.4-1.16,2.27-1.45c.85-.28,1.76-.47,2.69-.54.96-.08,1.84-.18,2.69-.36.83-.16,1.55-.47,2.17-.85.62-.41.98-1.11,1.14-2.07.03-.23.03-.65,0-1.24-.28-4.58-1.68-8.4-4.21-11.45-2.53-3.02-5.89-5.58-10-7.65-4.16-2.04-8.89-3.67-14.22-4.86-5.35-1.21-10.96-2.25-16.83-3.08-6.98-1.01-13.39-1.6-19.26-1.81-5.84-.21-11.01.15-15.48,1.03-4.47.91-8.19,2.48-11.12,4.71-2.95,2.22-4.99,5.27-6.13,9.13-.1.23-.18.54-.23.93-.21,1.5.13,2.56,1.03,3.18.9.62,1.91,1.19,3.02,1.71,1.14.52,2.12,1.14,3.02,1.91.88.78,1.19,2.04.93,3.8-.1.7-.31,1.47-.65,2.38-.34.88-.78,1.89-1.34,3.02l-30.32,61.24c-1.24,2.51-2.56,4.37-3.96,5.58-1.4,1.24-2.82,2.12-4.24,2.69-1.42.54-2.79.88-4.11.98-1.34.1-2.53.23-3.62.44-1.06.18-1.96.54-2.69,1.06-.7.49-1.16,1.45-1.37,2.82-.39,2.74-.21,5.4.52,7.99.75,2.59,2.04,4.96,3.93,7.11,1.86,2.17,4.32,4.03,7.37,5.58,3.05,1.53,6.67,2.61,10.91,3.21,4.16.62,7.91.59,11.25-.03,3.33-.65,6.2-1.73,8.61-3.28,2.4-1.55,4.32-3.44,5.76-5.71,1.42-2.27,2.35-4.78,2.74-7.52.16-1.14.03-2.07-.44-2.79-.44-.7-1.06-1.27-1.81-1.68-.75-.44-1.6-.83-2.53-1.22-.93-.36-1.78-.78-2.53-1.27-.75-.49-1.34-1.14-1.78-1.91-.44-.8-.57-1.86-.36-3.18.18-1.37.83-3.08,1.86-5.14l2.92-5.61,34.77,4.99.54,6.13c.16,1.71.13,3.21-.05,4.52-.21,1.55-.67,2.69-1.32,3.44-.67.75-1.42,1.29-2.3,1.6-.85.31-1.78.52-2.79.59-1.01.1-1.91.23-2.77.44-.85.21-1.58.57-2.22,1.09-.62.52-1.01,1.37-1.19,2.59-.52,3.54-.03,6.72,1.47,9.57,1.47,2.84,3.9,5.33,7.26,7.47,3.36,2.15,7.6,3.98,12.72,5.51,5.12,1.52,11.04,2.77,17.79,3.72,13.93,2.02,24.82,1.96,32.65-.16,7.83-2.09,12.25-6.72,13.29-13.88.18-1.37,0-2.4-.54-3.08ZM638.91,1438.7l20.78-47.9,6.02,51.75-26.81-3.85Z"/>
      <path class="st0" d="M896.78,1472.51c-2.35,4.68-5.89,9.02-10.68,13.03-4.76,4.01-10.62,7.47-17.58,10.39-6.95,2.92-14.79,4.86-23.5,5.87-7.52.85-14.53.8-21.02-.15-6.51-.98-12.51-2.69-17.97-5.12-5.48-2.46-10.42-5.56-14.79-9.31-4.39-3.72-8.19-7.94-11.4-12.62-3.21-4.7-5.79-9.77-7.78-15.2-1.99-5.43-3.33-11.09-4.01-17.01-.78-6.75-.96-13.34-.52-19.75.41-6.41,1.58-12.51,3.46-18.3,1.91-5.79,4.6-11.19,8.09-16.18,3.49-4.99,7.91-9.44,13.29-13.34,5.35-3.88,11.71-7.16,19.05-9.8,7.32-2.64,15.82-4.52,25.44-5.61,6.36-.75,12.51-.57,18.46.49,5.92,1.06,11.22,2.95,15.92,5.64,4.7,2.66,8.58,6.15,11.66,10.42,3.08,4.27,4.91,9.2,5.56,14.84.28,2.27.16,4.39-.36,6.31-.49,1.91-1.32,3.57-2.48,4.99-1.14,1.4-2.53,2.56-4.21,3.44-1.68.88-3.52,1.45-5.51,1.68-1.78.21-3.59.13-5.43-.26-1.86-.36-3.65-1.14-5.4-2.3-1.76-1.16-3.41-2.74-4.96-4.73-1.53-2.02-2.84-4.55-3.96-7.63-1.55-4.34-3.7-7.55-6.41-9.57-2.74-2.04-5.51-2.92-8.32-2.59-2.12.23-4.14,1.14-6.07,2.69-1.96,1.58-3.59,3.8-4.91,6.72-1.32,2.9-2.25,6.51-2.79,10.81-.57,4.32-.52,9.33.16,15.07.85,7.57,2.04,14.09,3.54,19.6,1.5,5.48,3.23,10.11,5.22,13.91,1.96,3.77,4.11,6.8,6.44,9.1,2.33,2.3,4.73,4.01,7.26,5.17,2.51,1.16,5.07,1.89,7.65,2.15,2.59.26,5.12.23,7.65-.05,2.59-.31,5.07-.91,7.47-1.78,2.38-.88,4.55-1.89,6.49-3,1.94-1.14,3.57-2.27,4.91-3.44,1.34-1.19,2.33-2.22,2.92-3.18.72-1.24,1.55-2.2,2.51-2.84.93-.67,1.84-1.03,2.69-1.14,1.6-.18,3.08.49,4.42,2.02,1.34,1.53,2.17,3.75,2.51,6.67.52,4.6-.39,9.23-2.71,13.91Z"/>
      <path class="st0" d="M1111.55,1401.53c-.67,3.13-2.35,6.18-5.02,9.15-2.66,2.95-6.31,5.87-10.91,8.74-4.6,2.87-10.08,5.69-16.42,8.48-6.46,2.82-12.33,4.96-17.6,6.41-5.27,1.47-9.93,2.2-13.96,2.15-4.01-.03-7.39-.85-10.16-2.48-2.74-1.63-4.86-4.08-6.28-7.37-.57-1.27-.65-2.33-.26-3.15.39-.83.98-1.6,1.78-2.33.78-.72,1.68-1.45,2.66-2.22,1.01-.75,1.81-1.65,2.43-2.74.62-1.11.96-2.43,1.03-4.01.08-1.58-.44-3.57-1.5-6l-10.6-24.2-35.75,15.67,10.6,24.17c1.03,2.38,2.17,4.08,3.41,5.12,1.24,1.03,2.48,1.68,3.75,1.96,1.24.26,2.48.28,3.72.08,1.21-.23,2.35-.39,3.41-.47,1.09-.1,2.04,0,2.92.28.88.26,1.6,1.03,2.15,2.3,2.9,6.62,1.58,12.87-3.96,18.79-5.53,5.92-14.76,11.71-27.66,17.37-6.23,2.71-11.92,4.78-17.06,6.2-5.17,1.4-9.72,2.07-13.68,2.02-3.96-.08-7.34-.9-10.08-2.53-2.77-1.63-4.86-4.08-6.31-7.37-.54-1.27-.62-2.3-.23-3.15.39-.83.98-1.58,1.78-2.27s1.68-1.42,2.64-2.17c.98-.72,1.78-1.63,2.4-2.69.65-1.09,1.01-2.38,1.09-3.93.08-1.55-.41-3.52-1.45-5.89l-26.19-59.79c-1.01-2.3-2.12-3.98-3.33-4.99-1.19-1.03-2.4-1.65-3.62-1.91-1.21-.26-2.43-.28-3.62-.08-1.19.21-2.33.36-3.39.49-1.03.1-2.02.03-2.9-.26-.88-.26-1.58-1.03-2.15-2.3-1.42-3.28-1.81-6.46-1.11-9.59.67-3.1,2.35-6.13,4.99-9.07,2.64-2.95,6.23-5.84,10.75-8.69,4.52-2.82,9.9-5.61,16.16-8.35,6.44-2.82,12.31-4.96,17.58-6.41,5.3-1.47,9.93-2.2,13.96-2.15,4.01.03,7.39.85,10.13,2.46,2.77,1.6,4.86,4.03,6.28,7.32.57,1.27.65,2.33.26,3.15-.41.83-1.01,1.6-1.78,2.27-.8.7-1.71,1.42-2.69,2.17-1.01.75-1.81,1.68-2.46,2.74s-.98,2.38-1.06,3.95c-.05,1.58.41,3.52,1.42,5.84l8.76,19.98,35.6-15.59-8.74-19.98c-1.03-2.33-2.15-4.01-3.33-5.02-1.21-1.01-2.4-1.65-3.62-1.91-1.22-.26-2.43-.26-3.67-.05-1.22.23-2.35.39-3.41.52-1.06.1-2.02.03-2.9-.26-.88-.26-1.6-1.03-2.15-2.3-2.87-6.57-1.55-12.8,3.96-18.72,5.51-5.89,14.74-11.68,27.69-17.37,12.74-5.56,23.14-8.38,31.18-8.4,8.07-.03,13.52,3.23,16.39,9.8.57,1.27.62,2.33.21,3.15-.41.85-1.06,1.63-1.91,2.35-.85.72-1.78,1.47-2.84,2.25-1.03.75-1.91,1.71-2.59,2.79-.7,1.09-1.09,2.4-1.19,4.01-.08,1.58.36,3.54,1.4,5.87l26.03,59.46c1.06,2.38,2.2,4.08,3.44,5.12,1.24,1.03,2.48,1.68,3.77,1.94,1.27.26,2.56.26,3.83.03,1.29-.26,2.48-.44,3.59-.54,1.11-.1,2.12-.03,3.02.23.9.26,1.65,1.03,2.2,2.3,1.45,3.28,1.81,6.49,1.14,9.62Z"/>
      <path class="st0" d="M1260.99,1263.15c-.93-1.01-1.84-1.55-2.71-1.58-.88-.03-1.81.18-2.82.62-1.01.41-2.09.96-3.26,1.63-1.14.65-2.46,1.11-3.93,1.42-1.47.31-3.1.31-4.94,0-1.81-.28-3.88-1.16-6.18-2.61l-57.54-35.6c-1.65-1.09-2.9-2.07-3.7-2.97-.93-1.03-1.45-2.02-1.55-2.97-.13-.93,0-1.84.34-2.66.34-.85.78-1.65,1.32-2.43.54-.75,1.03-1.5,1.45-2.27.41-.75.65-1.5.72-2.22.1-.72-.21-1.45-.85-2.2-.16-.16-.47-.41-.93-.78-3.7-2.74-7.52-4.11-11.48-4.14-3.98,0-8.07.9-12.31,2.77-4.21,1.84-8.5,4.42-12.87,7.73-4.34,3.33-8.74,6.95-13.16,10.94-5.25,4.68-9.82,9.23-13.75,13.57-3.93,4.37-6.98,8.56-9.15,12.56-2.17,4.01-3.36,7.86-3.54,11.53-.18,3.7.83,7.21,3.05,10.57.1.21.31.47.57.75,1.01,1.14,2.04,1.55,3.1,1.27,1.06-.31,2.15-.7,3.26-1.24,1.11-.54,2.25-.88,3.39-1.06,1.16-.18,2.33.39,3.52,1.71.47.52.93,1.19,1.4,2.02.47.83.96,1.84,1.47,3l27.43,62.58c1.14,2.53,1.71,4.76,1.76,6.62.03,1.86-.18,3.52-.67,4.96s-1.14,2.69-1.91,3.77c-.78,1.09-1.42,2.09-1.96,3.05-.54.96-.85,1.86-.93,2.74-.05.88.36,1.84,1.29,2.87,1.84,2.04,4.01,3.64,6.46,4.73,2.43,1.09,5.09,1.63,7.96,1.58,2.87-.05,5.87-.75,9-2.07,3.15-1.34,6.31-3.44,9.49-6.28,3.13-2.82,5.53-5.69,7.19-8.66,1.65-2.95,2.66-5.84,3.02-8.69.36-2.84.13-5.53-.67-8.09-.83-2.56-2.17-4.89-4.01-6.93-.78-.88-1.58-1.34-2.4-1.47-.83-.1-1.65,0-2.48.31-.8.28-1.65.7-2.53,1.16-.88.49-1.76.85-2.61,1.11-.85.26-1.71.31-2.61.13-.88-.16-1.78-.75-2.66-1.73-.93-1.03-1.84-2.61-2.74-4.76l-2.43-5.82,26.19-23.45,5.02,3.52c1.42.98,2.56,1.96,3.44,2.95,1.06,1.16,1.65,2.25,1.78,3.23.16.98.08,1.91-.23,2.77-.31.88-.75,1.71-1.34,2.53-.57.83-1.06,1.63-1.45,2.4-.39.78-.59,1.58-.59,2.4s.41,1.68,1.21,2.59c2.38,2.66,5.14,4.32,8.27,5.01,3.13.67,6.59.41,10.39-.78,3.83-1.19,7.94-3.28,12.41-6.2,4.45-2.95,9.2-6.7,14.27-11.25,10.5-9.38,17.45-17.76,20.86-25.1,3.41-7.34,2.71-13.73-2.09-19.1ZM1157.43,1308.8l-23.34-46.71,43.53,28.64-20.19,18.07Z"/>
      <path class="st0" d="M1354.88,1148.24c-.21,6.51-1.78,13.37-4.73,20.55-2.92,7.21-6.85,14.63-11.76,22.23-2.9,4.45-6.1,8.69-9.62,12.64-3.54,3.98-7.21,7.55-11.06,10.68-3.85,3.15-7.83,5.84-11.89,8.04-4.08,2.22-8.09,3.8-12.07,4.78-3.96.98-7.81,1.27-11.58.88-3.75-.41-7.26-1.65-10.5-3.75-2.48-1.6-4.39-3.39-5.74-5.35-1.34-1.96-2.17-3.98-2.53-6.02-.36-2.04-.31-4.08.18-6.13.49-2.02,1.29-3.93,2.46-5.71,1.42-2.17,3.23-4.11,5.48-5.74,2.22-1.65,4.7-2.84,7.42-3.54,2.74-.72,5.61-.88,8.66-.47,3.02.41,6.05,1.6,9.05,3.54.72.47,1.73.62,3,.44,1.29-.15,2.71-.7,4.27-1.58,1.58-.88,3.23-2.15,4.99-3.83,1.78-1.68,3.49-3.8,5.14-6.36,2.33-3.59,3.93-6.59,4.86-9.02.9-2.43,1.34-4.47,1.32-6.1-.05-1.65-.44-2.95-1.19-3.93-.75-.96-1.6-1.76-2.59-2.38-1.21-.78-2.84-.57-4.94.62-2.07,1.21-4.52,2.95-7.34,5.25-2.84,2.3-6,4.99-9.49,8.04-3.49,3.08-7.24,6.07-11.22,9-3.98,2.92-8.19,5.61-12.67,8.04-4.45,2.46-9.07,4.19-13.83,5.25-4.76,1.03-9.64,1.21-14.66.52-5.02-.7-10.08-2.71-15.23-6.02-5.09-3.28-9.25-6.85-12.49-10.68-3.23-3.85-5.66-7.88-7.29-12.15-1.65-4.27-2.56-8.66-2.74-13.24-.16-4.58.28-9.25,1.34-14.04,1.06-4.78,2.69-9.59,4.89-14.45,2.22-4.86,4.89-9.69,7.96-14.5,5.56-8.58,11.14-15.33,16.75-20.24,5.64-4.94,11.01-8.4,16.16-10.44,5.17-2.02,9.95-2.82,14.4-2.4,4.42.44,8.22,1.65,11.37,3.7,2.84,1.84,4.94,4.06,6.23,6.62,1.32,2.56,2.02,5.25,2.12,8.04.1,2.82-.34,5.69-1.29,8.56-.96,2.87-2.27,5.58-3.9,8.09-1.55,2.43-3.36,4.63-5.38,6.59-2.02,1.94-4.14,3.46-6.33,4.55-2.22,1.09-4.42,1.68-6.67,1.78-2.22.1-4.34-.49-6.33-1.78-1.45-.93-2.33-1.96-2.64-3.1-.28-1.11-.44-2.22-.39-3.33.03-1.11,0-2.17-.05-3.13-.08-.96-.59-1.76-1.55-2.4-1.37-.85-3.39-.44-6.08,1.29-2.71,1.73-5.69,5.12-8.94,10.16-2.25,3.49-3.8,6.41-4.63,8.76-.83,2.33-1.16,4.29-1.03,5.84.1,1.58.59,2.82,1.4,3.75s1.71,1.73,2.71,2.38c2.09,1.34,4.55,1.55,7.39.59,2.84-.93,6.02-2.56,9.51-4.89,3.49-2.3,7.26-5.07,11.32-8.3,4.08-3.21,8.35-6.41,12.87-9.62,4.5-3.21,9.2-6.15,14.09-8.82,4.89-2.69,9.88-4.68,14.97-5.95,5.09-1.29,10.29-1.6,15.56-.98,5.3.65,10.6,2.66,15.87,6.07,6.8,4.39,11.63,9.38,14.55,14.97,2.92,5.58,4.27,11.63,4.06,18.12Z"/>
    </g>
    <g>
      <path class="st0" d="M217.8,803.7c0,3.05-.59,5.71-1.78,7.91-1.19,2.22-2.82,4.08-4.86,5.58-2.04,1.5-4.42,2.69-7.13,3.57-2.74.88-5.66,1.55-8.79,2.02-4.19.62-8.53,1.19-13.03,1.73-4.47.54-8.58,1.01-12.33,1.42-4.37.49-8.63.93-12.77,1.27,0,.05.44.49,1.34,1.32.9.83,2.15,1.94,3.67,3.36,1.53,1.42,3.31,3.05,5.33,4.86,2.02,1.81,4.14,3.72,6.33,5.71,2.22,1.99,4.5,3.98,6.82,6,2.33,2.02,4.55,3.9,6.64,5.66,3.18,2.71,5.79,5.69,7.86,8.87,2.09,3.18,3.13,6.44,3.13,9.77,0,1.65-.44,3.44-1.29,5.38-.85,1.94-2.02,3.83-3.49,5.71-1.47,1.86-3.18,3.67-5.09,5.43-1.94,1.76-3.98,3.33-6.15,4.71-2.15,1.34-4.37,2.43-6.64,3.23-2.25.78-4.42,1.19-6.46,1.19-2.66,0-5.17-.8-7.52-2.38-2.38-1.6-4.58-3.67-6.62-6.23-2.04-2.56-3.93-5.48-5.66-8.81-1.73-3.31-3.31-6.67-4.76-10.08-1.45-3.41-2.74-6.75-3.88-10.06-1.14-3.28-2.12-6.2-2.95-8.76s-1.5-4.63-2.07-6.18c-.57-1.55-.98-2.3-1.22-2.25-1.58,4.24-3.28,8.56-5.09,12.95-1.53,3.72-3.28,7.86-5.25,12.33-1.94,4.5-3.93,8.76-5.92,12.87-1.19,2.38-2.43,4.58-3.75,6.59-1.29,2.02-2.74,3.75-4.34,5.22-1.58,1.47-3.31,2.66-5.14,3.49-1.84.85-3.88,1.29-6.07,1.29-2.04,0-4.19-.41-6.41-1.19-2.2-.8-4.39-1.89-6.54-3.23-2.17-1.37-4.21-2.95-6.13-4.71-1.94-1.76-3.65-3.57-5.12-5.43-1.47-1.89-2.64-3.77-3.49-5.71s-1.27-3.72-1.27-5.38c0-3.33,1.03-6.59,3.1-9.77,2.07-3.18,4.68-6.15,7.88-8.87,2.09-1.76,4.29-3.65,6.59-5.66,2.3-2.02,4.55-4.01,6.77-6,2.2-1.99,4.34-3.9,6.39-5.71,2.04-1.81,3.83-3.44,5.35-4.86,1.55-1.42,2.77-2.53,3.67-3.36.9-.83,1.37-1.27,1.37-1.32-4.21-.34-8.5-.78-12.87-1.27-3.75-.41-7.83-.88-12.31-1.42-4.45-.54-8.79-1.11-12.98-1.73-3.18-.47-6.13-1.14-8.87-2.02-2.71-.88-5.09-2.07-7.13-3.57-2.04-1.5-3.67-3.36-4.83-5.58-1.16-2.2-1.73-4.86-1.73-7.91,0-1.81.21-3.8.59-5.92.39-2.12,1.03-4.47,1.86-7.03,2.17-6.23,4.89-10.73,8.14-13.49,3.26-2.74,6.77-4.14,10.52-4.14,1.65,0,3.59.34,5.84.98,2.22.65,4.6,1.5,7.11,2.56,2.48,1.06,5.07,2.25,7.73,3.57,2.69,1.34,5.3,2.69,7.83,4.06,5.97,3.23,12.15,6.93,18.56,11.06-.78-4.47-1.58-9.02-2.38-13.62-.34-1.94-.7-3.98-1.11-6.18-.39-2.17-.8-4.37-1.22-6.54-.44-2.2-.88-4.37-1.32-6.51-.47-2.17-.88-4.24-1.29-6.23-.34-1.58-.62-3.18-.85-4.81-.23-1.63-.34-3.15-.34-4.65,0-2.71.39-5.27,1.19-7.65.8-2.38,2.15-4.45,4.01-6.2,1.86-1.78,4.34-3.15,7.42-4.14,3.05-1.01,6.85-1.5,11.4-1.5s8.35.49,11.4,1.5c3.08.98,5.56,2.35,7.42,4.14,1.86,1.76,3.23,3.83,4.03,6.2.83,2.38,1.24,4.94,1.24,7.65,0,1.5-.1,3.02-.34,4.65s-.52,3.23-.85,4.81c-.44,1.99-.88,4.06-1.32,6.23-.41,2.15-.85,4.32-1.27,6.51-.44,2.17-.85,4.37-1.24,6.54-.41,2.2-.78,4.24-1.11,6.18-.8,4.6-1.58,9.15-2.38,13.62,6.36-4.14,12.51-7.83,18.48-11.06,2.48-1.37,5.07-2.71,7.73-4.06,2.69-1.32,5.27-2.51,7.81-3.57,2.51-1.06,4.91-1.91,7.13-2.56,2.25-.65,4.24-.98,5.92-.98,3.75,0,7.24,1.4,10.44,4.14,3.21,2.77,5.92,7.26,8.14,13.49.9,2.56,1.55,4.91,1.94,7.03.41,2.12.59,4.11.59,5.92Z"/>
      <path class="st0" d="M1461.33,803.7c0,3.05-.59,5.71-1.78,7.91-1.19,2.22-2.82,4.08-4.83,5.58-2.07,1.5-4.45,2.69-7.16,3.57-2.74.88-5.66,1.55-8.76,2.02-4.21.62-8.56,1.19-13.03,1.73-4.5.54-8.61,1.01-12.36,1.42-4.37.49-8.63.93-12.77,1.27,0,.05.44.49,1.34,1.32.93.83,2.15,1.94,3.67,3.36,1.53,1.42,3.31,3.05,5.33,4.86,2.02,1.81,4.14,3.72,6.33,5.71,2.22,1.99,4.5,3.98,6.82,6,2.33,2.02,4.55,3.9,6.64,5.66,3.18,2.71,5.79,5.69,7.88,8.87,2.07,3.18,3.1,6.44,3.1,9.77,0,1.65-.44,3.44-1.29,5.38-.85,1.94-2.02,3.83-3.49,5.71-1.47,1.86-3.18,3.67-5.09,5.43-1.94,1.76-3.98,3.33-6.13,4.71-2.17,1.34-4.39,2.43-6.64,3.23-2.27.78-4.45,1.19-6.49,1.19-2.66,0-5.17-.8-7.52-2.38-2.35-1.6-4.58-3.67-6.62-6.23-2.04-2.56-3.93-5.48-5.66-8.81-1.73-3.31-3.31-6.67-4.76-10.08s-2.74-6.75-3.88-10.06c-1.14-3.28-2.12-6.2-2.95-8.76-.8-2.56-1.5-4.63-2.07-6.18-.57-1.55-.98-2.3-1.19-2.25-1.6,4.24-3.31,8.56-5.12,12.95-1.53,3.72-3.28,7.86-5.25,12.33-1.94,4.5-3.93,8.76-5.92,12.87-1.19,2.38-2.43,4.58-3.75,6.59-1.29,2.02-2.74,3.75-4.34,5.22-1.58,1.47-3.28,2.66-5.14,3.49-1.84.85-3.88,1.29-6.07,1.29-2.04,0-4.19-.41-6.39-1.19-2.22-.8-4.42-1.89-6.57-3.23-2.17-1.37-4.21-2.95-6.13-4.71-1.94-1.76-3.65-3.57-5.12-5.43-1.47-1.89-2.64-3.77-3.49-5.71s-1.27-3.72-1.27-5.38c0-3.33,1.03-6.59,3.1-9.77s4.7-6.15,7.88-8.87c2.09-1.76,4.29-3.65,6.59-5.66,2.3-2.02,4.55-4.01,6.77-6,2.2-1.99,4.34-3.9,6.39-5.71,2.04-1.81,3.83-3.44,5.35-4.86,1.55-1.42,2.77-2.53,3.67-3.36.9-.83,1.37-1.27,1.37-1.32-4.21-.34-8.5-.78-12.87-1.27-3.75-.41-7.83-.88-12.31-1.42-4.45-.54-8.79-1.11-12.98-1.73-3.18-.47-6.13-1.14-8.87-2.02-2.71-.88-5.09-2.07-7.13-3.57-2.04-1.5-3.67-3.36-4.83-5.58-1.14-2.2-1.73-4.86-1.73-7.91,0-1.81.21-3.8.59-5.92.39-2.12,1.03-4.47,1.86-7.03,2.17-6.23,4.89-10.73,8.14-13.49,3.26-2.74,6.77-4.14,10.52-4.14,1.65,0,3.59.34,5.84.98,2.22.65,4.6,1.5,7.11,2.56,2.48,1.06,5.07,2.25,7.73,3.57,2.69,1.34,5.3,2.69,7.83,4.06,5.97,3.23,12.15,6.93,18.59,11.06-.8-4.47-1.6-9.02-2.4-13.62-.34-1.94-.7-3.98-1.11-6.18-.39-2.17-.8-4.37-1.22-6.54-.44-2.2-.88-4.37-1.32-6.51-.47-2.17-.88-4.24-1.29-6.23-.34-1.58-.62-3.18-.85-4.81-.23-1.63-.34-3.15-.34-4.65,0-2.71.41-5.27,1.19-7.65.8-2.38,2.15-4.45,4.01-6.2,1.89-1.78,4.34-3.15,7.42-4.14,3.05-1.01,6.85-1.5,11.4-1.5s8.35.49,11.4,1.5c3.08.98,5.56,2.35,7.42,4.14,1.86,1.76,3.23,3.83,4.03,6.2.83,2.38,1.24,4.94,1.24,7.65,0,1.5-.1,3.02-.34,4.65-.23,1.63-.52,3.23-.85,4.81-.44,1.99-.88,4.06-1.32,6.23-.41,2.15-.85,4.32-1.27,6.51-.44,2.17-.85,4.37-1.24,6.54-.41,2.2-.78,4.24-1.11,6.18-.8,4.6-1.58,9.15-2.38,13.62,6.36-4.14,12.51-7.83,18.48-11.06,2.48-1.37,5.07-2.71,7.73-4.06,2.69-1.32,5.27-2.51,7.81-3.57,2.53-1.06,4.91-1.91,7.16-2.56,2.22-.65,4.21-.98,5.92-.98,3.72,0,7.21,1.4,10.42,4.14,3.21,2.77,5.92,7.26,8.14,13.49.9,2.56,1.55,4.91,1.94,7.03.41,2.12.59,4.11.59,5.92Z"/>
    </g>
  </g>
</svg>