<?xml version="1.0" encoding="UTF-8"?>
<svg id="a" data-name="Camada 1" xmlns="http://www.w3.org/2000/svg" viewBox="0 0 961.19 105.81">
  <path d="M31.17,102.83c-4.99,0-9.43-.29-13.3-.86-3.87-.57-7.13-1.46-9.78-2.67-2.65-1.21-4.66-2.76-6.03-4.67s-2.06-4.17-2.06-6.79c0-1.02.25-1.75.76-2.19s1.13-.78,1.87-1.02c.74-.23,1.54-.45,2.41-.67.87-.21,1.67-.58,2.41-1.11.74-.53,1.36-1.3,1.87-2.32s.76-2.48.76-4.38V28.31c0-1.86-.25-3.31-.76-4.35-.51-1.04-1.13-1.82-1.87-2.35-.74-.53-1.55-.9-2.41-1.11-.87-.21-1.67-.43-2.41-.67-.74-.23-1.37-.57-1.87-1.02s-.76-1.17-.76-2.19c0-2.62.69-4.88,2.06-6.76,1.38-1.88,3.39-3.43,6.03-4.63,2.64-1.21,5.9-2.09,9.78-2.67,3.87-.57,8.3-.86,13.3-.86h33.83c7.07,0,13.13.37,18.19,1.11,5.06.74,9.3,1.75,12.73,3.02s6.17,2.77,8.22,4.51,3.62,3.61,4.7,5.62c1.08,2.01,1.78,4.11,2.1,6.28.32,2.18.48,4.35.48,6.51,0,2.5-.32,4.7-.95,6.6s-1.5,3.58-2.6,5.01c-1.1,1.44-2.38,2.66-3.84,3.65-1.46,1-3,1.82-4.63,2.48-1.63.66-3.31,1.15-5.05,1.49-1.74.34-3.41.55-5.01.63,3,.21,6,.76,8.98,1.65,2.98.89,5.67,2.3,8.06,4.22,2.39,1.93,4.33,4.47,5.81,7.62,1.48,3.15,2.22,7.1,2.22,11.84,0,2.62-.36,5.16-1.08,7.62-.72,2.45-1.92,4.75-3.59,6.89-1.67,2.14-3.87,4.08-6.6,5.84-2.73,1.76-6.1,3.27-10.12,4.54-4.02,1.27-8.75,2.25-14.19,2.95-5.44.7-11.69,1.05-18.76,1.05h-28.88ZM62.65,45.89c1.86,0,3.37-.35,4.54-1.05s2.06-1.7,2.7-3.01,1.06-2.91,1.27-4.79c.21-1.88.32-4.01.32-6.38,0-2.54-.16-4.83-.48-6.89-.32-2.05-.9-3.79-1.75-5.21-.85-1.42-1.99-2.51-3.43-3.27-1.44-.76-3.28-1.14-5.52-1.14-1.78,0-3.16.33-4.16.98-.99.66-1.72,1.52-2.19,2.6-.47,1.08-.74,2.34-.83,3.78-.08,1.44-.13,2.94-.13,4.51v19.23c.21.13.7.23,1.46.32.63.08,1.59.16,2.86.22s3.05.1,5.33.1ZM62.65,56.43c-2.29,0-4.06.03-5.33.09s-2.22.14-2.86.22c-.76.13-1.25.23-1.46.32v19.23c0,1.57.04,3.07.13,4.51.08,1.44.36,2.7.83,3.78.46,1.08,1.2,1.95,2.19,2.6.99.66,2.38.98,4.16.98,2.24,0,4.08-.38,5.52-1.14,1.44-.76,2.58-1.85,3.43-3.27.85-1.42,1.43-3.15,1.75-5.21.32-2.05.48-4.37.48-6.95,0-2.37-.11-4.5-.32-6.38-.21-1.88-.63-3.47-1.27-4.76-.63-1.29-1.53-2.29-2.7-2.98s-2.68-1.05-4.54-1.05Z" fill="#f59835"/>
  <path d="M307.95,79.98c0,1.95.24,3.51.73,4.7.49,1.18,1.1,2.11,1.84,2.76.74.66,1.56,1.1,2.44,1.33.89.23,1.71.35,2.48.35.08,0,.19,0,.32-.03.13-.02.39-.04.79-.06.4-.02.99-.07,1.78-.16.78-.08,1.87-.19,3.27-.32l2.6-11.04c.72-2.41,1.59-4.45,2.6-6.13,1.02-1.67,2.13-3.02,3.33-4.06,1.21-1.04,2.47-1.79,3.81-2.25,1.33-.47,2.68-.7,4.03-.7,1.61,0,3.09.26,4.44.79,1.35.53,2.52,1.29,3.49,2.29.97,1,1.73,2.21,2.29,3.65.55,1.44.83,3.05.83,4.82s-.17,3.62-.51,5.65c-.34,2.03-.87,4.04-1.59,6.03-.72,1.99-1.61,3.9-2.67,5.74-1.06,1.84-2.3,3.46-3.71,4.86-1.42,1.4-3.03,2.52-4.82,3.36-1.8.85-3.78,1.27-5.94,1.27h-43.42c-4.99,0-9.43-.29-13.3-.86-3.87-.57-7.13-1.46-9.78-2.67s-4.66-2.76-6.03-4.67c-1.38-1.9-2.06-4.17-2.06-6.79,0-1.02.25-1.75.76-2.19s1.13-.78,1.87-1.02c.74-.23,1.54-.45,2.41-.67s1.67-.58,2.41-1.11c.74-.53,1.37-1.3,1.87-2.32s.76-2.48.76-4.38V28.31c0-1.86-.25-3.31-.76-4.35-.51-1.04-1.13-1.82-1.87-2.35-.74-.53-1.54-.9-2.41-1.11s-1.67-.43-2.41-.67c-.74-.23-1.36-.57-1.87-1.02s-.76-1.17-.76-2.19c0-2.62.69-4.88,2.06-6.76,1.37-1.88,3.38-3.43,6.03-4.63s5.9-2.09,9.78-2.67c3.87-.57,8.3-.86,13.3-.86s9.73.29,13.71.86c3.98.57,7.31,1.46,10,2.67,2.69,1.21,4.72,2.75,6.09,4.63,1.37,1.88,2.06,4.14,2.06,6.76,0,1.02-.25,1.75-.76,2.19s-1.13.78-1.87,1.02c-.74.23-1.55.46-2.44.67s-1.7.58-2.44,1.11c-.74.53-1.37,1.31-1.87,2.35-.51,1.04-.76,2.49-.76,4.35l-.13,51.67Z" fill="#f59835"/>
  <path d="M379.89,102.83c-3.13,0-5.88-.4-8.25-1.21-2.37-.8-4.35-1.89-5.94-3.27-1.59-1.37-2.78-2.96-3.59-4.76-.8-1.8-1.21-3.71-1.21-5.74,0-1.02.23-1.75.7-2.19s1.08-.79,1.84-1.05,1.62-.49,2.57-.7c.95-.21,1.91-.59,2.89-1.14.97-.55,1.9-1.34,2.79-2.38.89-1.04,1.65-2.53,2.29-4.47l15.62-47.61c.3-.89.52-1.67.67-2.35.15-.68.22-1.27.22-1.78,0-1.31-.36-2.2-1.08-2.67-.72-.47-1.51-.83-2.38-1.08s-1.66-.56-2.38-.92c-.72-.36-1.08-1.09-1.08-2.19,0-.3.02-.53.06-.7.42-2.92,1.59-5.34,3.49-7.27,1.9-1.92,4.43-3.45,7.59-4.57,3.15-1.12,6.87-1.91,11.14-2.38,4.27-.47,8.99-.7,14.16-.7,4.36,0,8.54.16,12.54.48,4,.32,7.61,1.01,10.82,2.06,3.22,1.06,5.9,2.56,8.06,4.51s3.58,4.57,4.25,7.87c.08.42.13.72.13.89,0,.72-.2,1.26-.6,1.62-.4.36-.9.65-1.49.86-.59.21-1.23.39-1.9.54-.68.15-1.31.37-1.9.67-.59.3-1.09.73-1.49,1.3-.4.57-.6,1.37-.6,2.38,0,.89.19,2.03.57,3.43l14.03,47.61c.55,1.9,1.25,3.39,2.09,4.44.85,1.06,1.75,1.86,2.7,2.41.95.55,1.9.93,2.86,1.14.95.21,1.81.44,2.57.7s1.38.6,1.84,1.05c.46.44.7,1.17.7,2.19,0,5.29-2.73,9.11-8.19,11.46s-13.35,3.52-23.68,3.52c-4.99,0-9.43-.29-13.3-.86-3.87-.57-7.14-1.46-9.81-2.67s-4.69-2.76-6.06-4.67c-1.38-1.9-2.06-4.17-2.06-6.79,0-.89.2-1.56.6-2s.9-.78,1.49-1.02c.59-.23,1.25-.43,1.97-.6.72-.17,1.38-.41,1.97-.73.59-.32,1.09-.78,1.49-1.4.4-.61.6-1.49.6-2.63,0-.97-.15-2.07-.44-3.3l-1.02-4.38h-25.77l-1.52,4.38c-.55,1.61-.83,2.92-.83,3.94s.2,1.72.6,2.25c.4.53.9.93,1.49,1.21.59.28,1.25.5,1.97.67.72.17,1.38.37,1.97.6.59.23,1.09.58,1.49,1.05.4.47.6,1.12.6,1.97,0,2.03-.4,3.95-1.21,5.74-.8,1.8-2,3.39-3.59,4.76-1.59,1.38-3.55,2.47-5.9,3.27-2.35.8-5.07,1.21-8.16,1.21ZM396.27,62.14h19.87l-9.78-36.94-10.09,36.94Z" fill="#f59835"/>
  <path d="M535.45,104.42c-5.54,0-10.64-.62-15.3-1.87-4.66-1.25-8.88-2.99-12.66-5.24s-7.12-4.91-10-8c-2.88-3.09-5.29-6.47-7.24-10.16-1.95-3.68-3.42-7.59-4.41-11.71-1-4.13-1.49-8.37-1.49-12.73,0-4.99.42-9.81,1.27-14.44.85-4.63,2.2-8.98,4.06-13.04,1.86-4.06,4.27-7.77,7.24-11.11,2.96-3.34,6.56-6.21,10.79-8.6,4.23-2.39,9.13-4.24,14.7-5.55,5.56-1.31,11.9-1.97,19.01-1.97,4.7,0,9.16.63,13.39,1.9,4.23,1.27,7.94,3.08,11.14,5.43,3.19,2.35,5.73,5.21,7.62,8.57,1.88,3.36,2.82,7.12,2.82,11.27,0,1.69-.26,3.22-.79,4.57-.53,1.35-1.27,2.5-2.22,3.43-.95.93-2.07,1.65-3.36,2.16-1.29.51-2.68.76-4.16.76-1.31,0-2.62-.21-3.94-.63-1.31-.42-2.56-1.13-3.75-2.13-1.19-.99-2.25-2.29-3.21-3.87-.95-1.59-1.7-3.54-2.25-5.87-.76-3.3-2.05-5.81-3.87-7.52-1.82-1.71-3.77-2.57-5.84-2.57-1.57,0-3.12.49-4.67,1.46s-2.92,2.47-4.12,4.47c-1.21,2.01-2.19,4.56-2.95,7.65s-1.14,6.75-1.14,10.98c0,5.59.32,10.44.95,14.57s1.51,7.65,2.63,10.57c1.12,2.92,2.43,5.31,3.94,7.17,1.5,1.86,3.12,3.32,4.86,4.38,1.73,1.06,3.53,1.79,5.4,2.19,1.86.4,3.72.6,5.59.6s3.77-.22,5.59-.67c1.82-.44,3.48-.99,4.98-1.65,1.5-.66,2.79-1.35,3.87-2.09,1.08-.74,1.87-1.43,2.38-2.06.63-.85,1.32-1.47,2.06-1.87.74-.4,1.43-.6,2.06-.6,1.18,0,2.2.61,3.05,1.84.85,1.23,1.27,2.92,1.27,5.08,0,3.39-1.05,6.69-3.14,9.9-2.1,3.22-5.05,6.08-8.86,8.6-3.81,2.52-8.37,4.55-13.68,6.09-5.31,1.54-11.18,2.32-17.61,2.32Z" fill="#f59835"/>
  <path d="M674.04,56.56h-28.63v19.36c0,1.9.26,3.39.79,4.44s1.17,1.86,1.94,2.41,1.59.93,2.48,1.14,1.7.44,2.44.7,1.37.6,1.87,1.05.76,1.17.76,2.19c0,5.29-2.73,9.11-8.19,11.46s-13.35,3.52-23.68,3.52c-4.99,0-9.43-.29-13.3-.86-3.87-.57-7.13-1.46-9.78-2.67s-4.66-2.76-6.03-4.67c-1.38-1.9-2.06-4.17-2.06-6.79,0-1.02.25-1.75.76-2.19s1.13-.78,1.87-1.02c.74-.23,1.54-.45,2.41-.67s1.67-.58,2.41-1.11c.74-.53,1.37-1.3,1.87-2.32s.76-2.48.76-4.38V28.31c0-1.86-.25-3.31-.76-4.35-.51-1.04-1.13-1.82-1.87-2.35-.74-.53-1.54-.9-2.41-1.11s-1.67-.43-2.41-.67c-.74-.23-1.36-.57-1.87-1.02s-.76-1.17-.76-2.19c0-2.62.69-4.88,2.06-6.76,1.37-1.88,3.38-3.43,6.03-4.63s5.9-2.09,9.78-2.67c3.87-.57,8.3-.86,13.3-.86s9.73.29,13.71.86c3.98.57,7.31,1.46,10,2.67,2.69,1.21,4.72,2.75,6.09,4.63,1.37,1.88,2.06,4.14,2.06,6.76,0,1.02-.25,1.75-.76,2.19s-1.13.78-1.87,1.02c-.74.23-1.55.46-2.44.67s-1.7.58-2.44,1.11c-.74.53-1.37,1.31-1.87,2.35-.51,1.04-.76,2.49-.76,4.35v16h28.5v-16c0-1.86-.25-3.31-.76-4.35-.51-1.04-1.13-1.82-1.87-2.35-.74-.53-1.56-.9-2.44-1.11s-1.7-.43-2.44-.67c-.74-.23-1.36-.57-1.87-1.02s-.76-1.17-.76-2.19c0-5.25,2.72-9.05,8.16-11.39,5.44-2.35,13.34-3.52,23.71-3.52s18.01,1.17,23.42,3.52c5.42,2.35,8.12,6.15,8.12,11.39,0,1.02-.26,1.75-.79,2.19-.53.44-1.19.78-1.97,1.02-.78.23-1.64.46-2.57.67-.93.21-1.79.58-2.57,1.11-.78.53-1.44,1.31-1.97,2.35-.53,1.04-.79,2.49-.79,4.35v47.61c0,1.9.26,3.39.79,4.44s1.18,1.86,1.97,2.41c.78.55,1.64.93,2.57,1.14.93.21,1.79.44,2.57.7s1.44.6,1.97,1.05c.53.44.79,1.17.79,2.19,0,2.62-.69,4.89-2.06,6.79-1.38,1.9-3.4,3.46-6.06,4.67s-5.97,2.09-9.9,2.67-8.44.86-13.52.86-9.73-.29-13.71-.86c-3.98-.57-7.31-1.46-10-2.67-2.69-1.21-4.72-2.76-6.09-4.67-1.38-1.9-2.06-4.17-2.06-6.79,0-1.02.25-1.75.76-2.19s1.13-.79,1.87-1.05,1.56-.49,2.44-.7,1.7-.59,2.44-1.14c.74-.55,1.36-1.34,1.87-2.38.51-1.04.76-2.53.76-4.47v-19.36Z" fill="#f59835"/>
  <path d="M759.98,102.83c-3.13,0-5.88-.4-8.25-1.21-2.37-.8-4.35-1.89-5.94-3.27-1.59-1.37-2.78-2.96-3.59-4.76-.8-1.8-1.21-3.71-1.21-5.74,0-1.02.23-1.75.7-2.19s1.08-.79,1.84-1.05,1.62-.49,2.57-.7c.95-.21,1.91-.59,2.89-1.14.97-.55,1.9-1.34,2.79-2.38.89-1.04,1.65-2.53,2.29-4.47l15.62-47.61c.3-.89.52-1.67.67-2.35.15-.68.22-1.27.22-1.78,0-1.31-.36-2.2-1.08-2.67-.72-.47-1.51-.83-2.38-1.08s-1.66-.56-2.38-.92c-.72-.36-1.08-1.09-1.08-2.19,0-.3.02-.53.06-.7.42-2.92,1.59-5.34,3.49-7.27,1.9-1.92,4.43-3.45,7.59-4.57,3.15-1.12,6.87-1.91,11.14-2.38,4.27-.47,8.99-.7,14.16-.7,4.36,0,8.54.16,12.54.48,4,.32,7.61,1.01,10.82,2.06,3.22,1.06,5.9,2.56,8.06,4.51s3.58,4.57,4.25,7.87c.08.42.13.72.13.89,0,.72-.2,1.26-.6,1.62-.4.36-.9.65-1.49.86-.59.21-1.23.39-1.9.54-.68.15-1.31.37-1.9.67-.59.3-1.09.73-1.49,1.3-.4.57-.6,1.37-.6,2.38,0,.89.19,2.03.57,3.43l14.03,47.61c.55,1.9,1.25,3.39,2.09,4.44.85,1.06,1.75,1.86,2.7,2.41.95.55,1.9.93,2.86,1.14.95.21,1.81.44,2.57.7s1.38.6,1.84,1.05c.46.44.7,1.17.7,2.19,0,5.29-2.73,9.11-8.19,11.46s-13.35,3.52-23.68,3.52c-4.99,0-9.43-.29-13.3-.86-3.87-.57-7.14-1.46-9.81-2.67s-4.69-2.76-6.06-4.67c-1.38-1.9-2.06-4.17-2.06-6.79,0-.89.2-1.56.6-2s.9-.78,1.49-1.02c.59-.23,1.25-.43,1.97-.6.72-.17,1.38-.41,1.97-.73.59-.32,1.09-.78,1.49-1.4.4-.61.6-1.49.6-2.63,0-.97-.15-2.07-.44-3.3l-1.02-4.38h-25.77l-1.52,4.38c-.55,1.61-.83,2.92-.83,3.94s.2,1.72.6,2.25c.4.53.9.93,1.49,1.21.59.28,1.25.5,1.97.67.72.17,1.38.37,1.97.6.59.23,1.09.58,1.49,1.05.4.47.6,1.12.6,1.97,0,2.03-.4,3.95-1.21,5.74-.8,1.8-2,3.39-3.59,4.76-1.59,1.38-3.55,2.47-5.9,3.27-2.35.8-5.07,1.21-8.16,1.21ZM776.36,62.14h19.87l-9.78-36.94-10.09,36.94Z" fill="#f59835"/>
  <path d="M927.54,20.44c0-1.18-1.07-2.26-3.21-3.24s-5.41-1.46-9.81-1.46c-3.05,0-5.46.21-7.24.63s-3.12.98-4.03,1.68-1.49,1.48-1.75,2.35c-.25.87-.38,1.75-.38,2.63,0,1.82.86,3.42,2.57,4.79,1.71,1.38,3.98,2.68,6.79,3.9s6.02,2.45,9.62,3.68c3.6,1.23,7.28,2.59,11.04,4.09,3.77,1.5,7.45,3.23,11.04,5.17,3.6,1.95,6.8,4.23,9.62,6.86,2.81,2.62,5.08,5.69,6.79,9.2,1.71,3.51,2.57,7.58,2.57,12.19,0,5.92-1.14,10.9-3.43,14.92s-5.47,7.26-9.55,9.71-8.93,4.21-14.54,5.27c-5.61,1.06-11.73,1.59-18.38,1.59-3.89,0-7.77-.3-11.62-.89-3.85-.59-7.51-1.45-10.98-2.57-3.47-1.12-6.7-2.5-9.68-4.13-2.98-1.63-5.57-3.47-7.74-5.52-2.18-2.05-3.89-4.32-5.14-6.79s-1.87-5.13-1.87-7.97c0-2.16.34-4.04,1.02-5.65.68-1.61,1.58-2.93,2.7-3.97,1.12-1.04,2.4-1.81,3.84-2.32,1.44-.51,2.94-.76,4.51-.76,1.9,0,3.81.36,5.71,1.08s3.62,1.78,5.14,3.17,2.76,3.11,3.71,5.14c.95,2.03,1.43,4.36,1.43,6.98,0,.63.31,1.31.92,2.03.61.72,1.5,1.39,2.67,2,1.16.61,2.61,1.13,4.35,1.56,1.73.42,3.72.63,5.97.63,3.13,0,5.63-.2,7.49-.6,1.86-.4,3.29-.94,4.29-1.62.99-.68,1.64-1.44,1.94-2.29.3-.85.44-1.69.44-2.54,0-1.06-.78-1.99-2.35-2.79-1.57-.8-3.62-1.62-6.16-2.44s-5.45-1.7-8.73-2.63c-3.28-.93-6.61-2.04-10-3.33-3.39-1.29-6.72-2.82-10-4.6s-6.19-3.92-8.73-6.44c-2.54-2.52-4.59-5.46-6.16-8.82-1.57-3.36-2.35-7.29-2.35-11.77s.54-8.42,1.62-11.93c1.08-3.51,2.6-6.62,4.57-9.33,1.97-2.71,4.33-5.02,7.08-6.95,2.75-1.92,5.81-3.51,9.17-4.76,3.37-1.25,6.98-2.16,10.86-2.73,3.87-.57,7.9-.86,12.09-.86,7.49,0,13.87.75,19.14,2.25,5.27,1.5,9.55,3.44,12.85,5.81s5.7,5,7.21,7.9c1.5,2.9,2.25,5.72,2.25,8.47,0,2.5-.53,4.66-1.59,6.47-1.06,1.82-2.43,3.32-4.13,4.51-1.69,1.18-3.62,2.05-5.78,2.6s-4.34.83-6.54.83-4.18-.23-6.19-.7c-2.01-.47-3.79-1.16-5.33-2.09-1.55-.93-2.79-2.06-3.75-3.4-.95-1.33-1.43-2.87-1.43-4.6,0-1.27.29-2.22.86-2.86.57-.63,1.21-1.16,1.9-1.59.7-.42,1.33-.85,1.9-1.27.57-.42.86-1.06.86-1.9Z" fill="#f59835"/>
  <g>
    <path d="M247.76,72.05c-2.07,5.47-5.43,10.71-9.98,15.57-3.92,4.19-8.37,7.77-13.21,10.65-5.08,3.01-10.42,5.13-15.88,6.31-3.36.72-7.05,1.08-11.25,1.08-1.88,0-3.91-.07-6.21-.22-.49-.03-.97-.06-1.44-.1-1.35.16-2.77.28-4.33.36-1.39.08-2.79.11-4.16.11-5.74,0-11.3-.65-16.53-1.93-5.92-1.45-11.35-3.69-16.13-6.66-4.37-2.7-8.28-6.05-11.62-9.94-2.97-3.46-5.51-7.37-7.54-11.6-1.77-3.71-3.14-7.63-4.05-11.64-.84-3.7-1.28-7.28-1.31-10.65-.01-1.95.15-3.96.47-6.13.29-1.91.7-3.85,1.23-5.76.21-.79.47-1.5.7-2.14.1-.27.19-.53.27-.76.3-.9.64-1.83,1.01-2.75,2.92-7.25,7.49-13.98,13.22-19.46,6.05-5.81,13.46-10.28,21.42-12.92,6.41-2.13,13.31-3.21,20.51-3.21,2.14,0,4.31.1,6.48.29,1.4-.14,2.84-.24,4.27-.3.87-.03,1.75-.05,2.62-.05,4.98,0,10.03.53,15.04,1.57,3.38.7,6.14,1.45,8.68,2.34,2.82.99,5.69,2.43,8.53,4.29,2.42,1.58,4.81,3.46,7.11,5.58,1.76,1.62,4.01,3.85,5.78,6.66,3.13,4.98,4.37,10.63,5.47,15.61l.05.19c.22,1.03.46,2.08.7,3.1,1.02,4.46,2.07,9.07,2.51,13.86.58,6.45-.26,12.9-2.43,18.65Z" fill="#e5e1c3"/>
    <g>
      <path d="M168.34,42.12c1.13-.37,2.39-.54,3.54-.65,2.4-.21,4.83.09,7.09.94,1.22.46,2.46,1.06,3.47,1.89.46.38.88.82,1.23,1.3.17.24.32.5.45.77.06.13.1.28.16.41.1.23.27.37.44.54.26.26.67.35,1.03.31.27-.03.78-.14.86-.47.04-.15.12-.34.11-.49,0-.19-.09-.36-.18-.52-.17-.31-.35-.61-.56-.9-.17-.23-.35-.45-.55-.66,1.08-1.28,1.92-2.74,2.45-4.33.67-1.98,1.06-4.18.93-6.28-.13-2.09-.72-4.08-1.79-5.83-1.14-1.85-2.8-3.31-4.75-4.28-3.85-1.92-8.42-1.99-12.4-.44-3.75,1.46-7.08,4.35-8.57,8.15-.78,1.98-1.04,4.15-.84,6.26.17,1.85.7,3.82,1.7,5.4.18.29.38.56.57.83-1.1.86-2.1,1.83-2.96,2.92-.83,1.05-1.57,2.19-2.13,3.4-.57,1.21-1.12,2.56-1.17,3.9-.01.39.87.39.99.08h0c.41-1.06.69-2.17,1.16-3.22s1.02-2.04,1.67-2.97c1.29-1.84,2.95-3.43,4.86-4.62.48-.3.98-.58,1.49-.82.54-.26,1.12-.43,1.69-.61ZM175.77,23.5c.44,0,.85.03,1.2.06.96.11,1.91.33,2.82.66.91.33,1.83.81,2.65,1.39.77.55,1.43,1.27,2.01,2.02,1.13,1.46,1.87,3.28,2.16,5.11.31,1.96.12,3.96-.35,5.88-.4,1.65-1.05,3.26-2.06,4.63-.04.05-.08.1-.12.15-.89-.65-1.85-1.2-2.86-1.65-1.78-.8-3.71-1.3-5.66-1.5.08-.11.16-.22.23-.33.27-.43.52-.87.73-1.32.41-.89.68-1.83.84-2.79,0-.01,0-.02,0-.04,0-.01,0-.03,0-.04.01-.07-.01-.13-.07-.18-.16-.32-.57-.49-.87-.67-.41-.23-.86-.4-1.3-.59-.76-.32-1.52-.64-2.25-1.01,1.22-.98,2.43-1.98,3.68-2.93.08-.06.23-.17.2-.3-.1-.55-.36-1.09-.56-1.62-.21-.57-.42-1.14-.63-1.7-.4-1.05-.78-2.11-1.17-3.16.04,0,.08-.01.13-.02.29-.03.84-.05,1.25-.05ZM163.67,43.38c-.18-.51-.34-1.03-.5-1.54-.27-.83-.5-1.66-.62-2.52-.28-1.92-.39-3.84.06-5.74.88-3.74,3.53-6.78,6.9-8.53,1.06-.55,2.15-.93,3.28-1.19-.08.12-.16.24-.23.36-.34.55-.65,1.13-.93,1.71-.56,1.15-1.01,2.35-1.35,3.59-.68,2.48-.93,5.07-.69,7.63.06.71.16,1.41.31,2.1.09.42.18.87.32,1.31-.42.1-.85.2-1.26.34-.63.21-1.27.38-1.88.64s-1.17.56-1.73.85c-.58.3-1.13.64-1.67,1Z" fill="#f59835"/>
      <path d="M235.97,44.41h0c-.47-1.03-1.37-1.91-2.19-2.67-.87-.79-1.84-1.52-2.86-2.11-.35-.2-.72-.38-1.09-.56.02-.03.05-.04.06-.07,1.13-1.83,1.61-4.14,1.82-6.26.22-2.19-.07-4.44-.87-6.51-.68-1.74-1.67-3.32-3.09-4.55-1.51-1.32-3.28-2.4-5.21-3.01-3.74-1.19-8.24-.56-11.43,1.76-3.07,2.24-5.09,5.92-5.7,9.64-.66,4.07.37,8.42,2.86,11.72.16.21.32.42.49.61.15.17.36.27.57.36-1.46,1.53-2.66,3.32-3.45,5.28-.36.89,1.68,1.13,1.99.35,1.61-3.95,4.89-7.2,8.8-8.79,2.03-.83,3.99-1.2,6.16-1.12.55.02.93.06,1.51.15.55.08,1.1.19,1.64.32,1.04.25,2.13.63,3.12,1.09,1.13.53,2.16,1.17,3.15,1.92,1.05.79,1.89,1.78,2.86,2.66.18.16,1.04.19.86-.21h0ZM216.6,38.12c-2.26.74-4.35,2-6.14,3.56-.15.13-.28.28-.43.42-.01-.02-.01-.05-.03-.07-.14-.18-.3-.38-.44-.57-.29-.4-.55-.82-.79-1.25-.48-.84-.88-1.71-1.2-2.63-.64-1.85-.92-3.83-.82-5.79.19-3.61,1.79-7.29,4.43-9.78,1.05-1,2.29-1.73,3.62-2.21-.54,2.31-.73,4.68-.5,7.05.25,2.53.92,5.01,1.8,7.4.25.69.5,1.39.77,2.07.13.32.27.65.43.97.09.19.18.39.28.57-.33.09-.66.16-.98.26ZM223.99,37.34c-.47-.05-.95-.06-1.43-.07.1-.31.16-.64.22-.94.12-.64.21-1.29.27-1.94.13-1.34.1-2.7-.03-4.05,0-.04-.02-.08-.04-.11,0,0,0,0,0,0,.01-.1-.1-.21-.17-.25-.35-.22-.87-.24-1.27-.31-.4-.07-.84-.15-1.26-.22-.42-.07-.81-.15-1.22-.21-.23-.03-.46-.07-.69-.09.05-.11.09-.22.13-.32.11-.26.22-.5.32-.75.22-.56.45-1.11.7-1.65.25-.54.53-1.09.82-1.62.15-.26.3-.52.46-.77.11-.17.25-.34.31-.53.13-.11.2-.28.04-.43-.8-.8-1.66-1.53-2.53-2.25-.6-.49-1.2-1.04-1.85-1.52,1.2-.18,2.43-.15,3.63.12,1.77.39,3.48,1.34,4.93,2.43.54.4,1.07.87,1.56,1.41.56.61.98,1.31,1.36,2.03.97,1.86,1.46,3.92,1.46,6.01,0,2.1-.48,4.06-1.26,5.96-.14.35-.28.7-.42,1.05-1.31-.48-2.67-.82-4.06-.96Z" fill="#f59835"/>
      <path d="M226.3,51.15c-1-.84-2.21-1.32-3.49-1.51-2.14-.32-4.47.1-6.34,1.21-.49.29-.95.65-1.36,1.04-.32.3-.96.9-.86,1.39.05.24.42.29.61.21h0s0,0,0,0c.54-.22.95-.72,1.39-1.1.48-.41,1.02-.75,1.57-1.04.91-.48,1.98-.8,3.02-.8.07,0,.14.01.21.01-.69,3.96-2.12,7.71-4.57,10.92-1.24,1.63-2.64,3.12-4.24,4.41-1.6,1.28-3.53,2.41-5.5,3.25-3.91,1.69-8.26,2.4-12.51,1.99-4.44-.43-8.84-2-12.3-4.87-1.6-1.33-3.03-2.9-4.13-4.67-.55-.88-1.06-1.82-1.36-2.81-.27-.92-.4-1.88-.45-2.83-.02-.28-.02-.56-.02-.84.14.01.29.01.42.03.58.08,1.01.22,1.59.44.58.22,1.14.54,1.67.95.24.19.46.4.67.63.12.12.22.26.33.39.22.25.51.31.82.38.33.07.9-.02,1.05-.37.19-.44-.12-.72-.4-1.02-.26-.27-.55-.52-.85-.75-.57-.45-1.22-.8-1.89-1.09-1.39-.59-2.93-.75-4.42-.58-1.5.18-2.79.62-3.94,1.5-1.09.83-1.95,1.93-2.49,3.2-.3.69-.51,1.45-.57,2.2-.03.39-.01.79.02,1.18.04.41.17.76.3,1.15.11.32,1.01.3.99-.08-.02-.31.02-.61.02-.92,0-.31.01-.62.06-.92.09-.6.23-1.21.43-1.78.4-1.14,1.08-2.18,1.97-3.01.74-.69,1.65-1.17,2.63-1.4.02,1.84.31,3.68,1.15,5.33.1.19.21.37.32.56-.08.05-.16.11-.21.19-.82,1.22-1.43,2.52-1.83,3.93s-.5,2.89-.55,4.31c-.1,2.92.48,5.89,1.42,8.64.5,1.47,1.17,2.87,2.08,4.13.91,1.27,2.07,2.26,3.34,3.18,2.42,1.75,5.14,3.09,8,3.92,5.6,1.63,11.69,1.39,17.08-.86,5.1-2.13,9.51-5.88,12.3-10.66,2.97-5.09,4.14-11.43,3-17.23-.14-.72-.31-1.43-.51-2.13-.02-.05-.05-.1-.09-.13,1.04-2.08,1.79-4.3,2.15-6.56.06-.38.09-.77.12-1.16.6.13,1.2.34,1.76.66.54.31,1.03.71,1.38,1.23.16.25.29.52.38.79.09.28.08.66.25.91.36.55,1.55.66,1.87,0,.24-.5-.1-1.29-.34-1.75-.28-.53-.66-1.01-1.13-1.41ZM188.61,74.25c-.04.96-.09,1.93-.14,2.89-2.07-.58-4.13-1.18-6.2-1.78-.21-2.45-.17-4.92-.1-7.37,2.02,1.37,4.26,2.41,6.6,3.11-.11,1.04-.11,2.11-.16,3.15ZM207.9,69.81c.04,1.94-.1,3.88-.48,5.78-2.18.6-4.35,1.21-6.54,1.77-.12.03-.24.06-.36.09-.04,0-.07.02-.11.03-.01-.07-.05-.28-.05-.32-.02-.14-.03-.29-.05-.43-.06-.57-.13-1.15-.19-1.72s-.13-1.15-.19-1.72c-.05-.43-.08-.84-.15-1.25,2.05-.24,4.08-.69,6.04-1.38.72-.25,1.41-.54,2.08-.84Z" fill="#f59835"/>
      <path d="M245.23,53.86c-.5-5.53-1.92-10.93-3.11-16.34-1.08-4.91-2.17-9.92-4.88-14.23-1.34-2.14-3.08-3.94-4.93-5.65-2.01-1.85-4.16-3.57-6.45-5.07-2.29-1.5-4.83-2.83-7.46-3.76-2.61-.92-5.33-1.6-8.04-2.16-5.4-1.12-10.94-1.62-16.45-1.42-1.48.06-2.96.16-4.43.32-8.55-.81-17.27-.07-25.45,2.64-7.3,2.43-14,6.47-19.55,11.79-5.17,4.96-9.36,11.07-12.04,17.72-.33.82-.63,1.65-.91,2.48-.28.84-.64,1.73-.89,2.62-.47,1.71-.84,3.44-1.1,5.2-.27,1.77-.43,3.56-.41,5.36.02,3.22.46,6.43,1.18,9.57.83,3.65,2.07,7.21,3.69,10.59,1.81,3.78,4.1,7.34,6.83,10.51,3,3.5,6.54,6.52,10.45,8.95,4.53,2.81,9.53,4.79,14.7,6.05,6.27,1.54,12.8,2.03,19.23,1.68,1.51-.08,3-.2,4.5-.39.62.05,1.23.1,1.85.14,5.29.33,10.83.38,16.1-.76,5.07-1.09,9.92-3.08,14.38-5.72,4.48-2.65,8.57-5.97,12.12-9.76,3.79-4.05,6.98-8.72,8.95-13.93,1.97-5.21,2.63-10.87,2.13-16.43ZM136.89,75.85c-1.85-3.34-3.31-6.89-4.36-10.56-.9-3.17-1.5-6.39-1.72-9.72-.27-4.18.24-8.34,1.33-12.39.23-.84.41-1.72.68-2.55s.58-1.67.91-2.48c.65-1.64,1.39-3.24,2.22-4.8,1.65-3.13,3.64-6.07,5.92-8.78,3.28-3.9,7.15-7.32,11.44-10.09.02-.01.04-.02.06-.04-.81.68-1.6,1.38-2.37,2.08-2.29,2.11-4.53,4.51-6.51,7.02-3.92,4.95-7.1,10.53-9.09,16.53-1.88,5.67-2.48,11.67-2.01,17.62.47,5.97,1.96,11.87,4.34,17.35,1.44,3.32,3.23,6.51,5.36,9.45,0-.01-.02-.02-.03-.03-2.39-2.63-4.43-5.51-6.15-8.62ZM170.47,98.92c-5.23-.89-10.4-2.51-15.09-4.95-2.63-1.37-5.08-2.97-7.36-4.81-1.39-1.46-2.7-2.99-3.9-4.62-1.76-2.4-3.28-4.98-4.57-7.66-2.58-5.35-4.28-11.15-4.98-17.06-.7-5.91-.36-11.74,1.22-17.42,1.68-6.03,4.6-11.69,8.3-16.72,3.69-5.02,8.14-9.51,13.18-13.17.52-.38,1.05-.75,1.57-1.13,0,0,0,0,0,0,7.5-3.6,15.85-5.23,24.14-5.23.72,0,1.43.01,2.15.04-2.54.46-5.04,1.08-7.5,1.88-4.94,1.61-9.65,3.95-13.89,6.96-.4.28-.8.57-1.19.87,0,0,0,0,0,0-2.94.14-5.99.77-8.52,2.29-1.29.78-2.39,1.79-3.42,2.88-1.03,1.09-2.08,2.3-3.03,3.53-1.03,1.34-1.92,2.79-2.78,4.24-.91,1.53-1.76,3.1-2.52,4.71-1.39,2.96-2.43,6.07-2.99,9.3-.64,3.68-.66,7.43-.36,11.14.16,1.96.44,3.91.63,5.88.17,1.77.23,3.55.34,5.33.11,1.78.26,3.49.63,5.19.38,1.71,1,3.3,1.81,4.82.82,1.53,1.77,3.04,2.85,4.39.57.71,1.04,1.52,1.54,2.29s1.01,1.49,1.55,2.21c2.18,2.89,4.92,5.32,7.96,7.29,1.52.98,3.06,1.98,4.68,2.81,1.48.75,3.14,1.39,4.83,1.27.79-.06,1.55-.29,2.23-.71.04-.02.07-.05.09-.08,0,0,0,0,0,0,2.52,1.26,5.15,2.3,7.85,3.11,3,.91,6.06,1.56,9.16,2.01-4.89.1-9.75-.06-14.58-.89ZM147.78,57.69c.39,5.92,1.77,11.85,4.05,17.35,2.26,5.44,5.46,10.59,9.66,14.75,0,0,0,0,0,0-2.61-1.92-4.97-4.17-7.04-6.67-2.83-3.44-5.25-7.46-6.98-11.69-1.73-4.22-2.86-8.75-3.28-13.33-.41-4.58-.09-9.19.98-13.65,1.1-4.61,2.93-9.04,5.34-13.12,2.41-4.08,5.41-7.8,8.84-11.06,1.81-1.72,3.75-3.3,5.79-4.73.01,0,.03-.02.04-.02-.46.42-.91.84-1.36,1.26-2.2,2.12-4.24,4.46-6.04,6.94-3.6,4.95-6.37,10.5-8.1,16.38-1.68,5.7-2.3,11.67-1.91,17.59ZM243.74,61.84c-.65,5.42-2.79,10.89-5.84,15.56-2.86,4.38-6.54,8.25-10.6,11.53-3.93,3.19-8.33,5.84-13.03,7.73-4.7,1.89-9.62,2.97-14.65,3.07-5.32.1-10.67-.16-15.92-1.06-4.9-.84-9.73-2.25-14.21-4.42-2.1-1.02-4.11-2.2-6.03-3.53-1.96-1.91-3.78-3.94-5.38-6.17-1.7-2.36-3.2-4.98-4.45-7.66-2.5-5.37-4.07-11.17-4.69-17.06-.62-5.89-.21-11.71,1.21-17.41,1.47-5.89,3.99-11.51,7.36-16.56,3.37-5.05,7.55-9.49,12.41-13.06.36-.26.72-.53,1.08-.79,0,0,0,0,0,0,4.7-2.41,9.79-4.04,14.99-4.94,5.23-.91,10.62-1.1,15.91-.63,2.69.24,5.35.64,7.99,1.18,2.62.54,5.25,1.2,7.78,2.1,5.05,1.8,9.55,5,13.45,8.63,1.78,1.66,3.47,3.41,4.74,5.5,1.27,2.09,2.14,4.4,2.95,6.73.83,2.39,1.4,4.83,1.95,7.29.57,2.61,1.18,5.21,1.74,7.82,1.12,5.3,1.88,10.73,1.24,16.15Z" fill="#f59835"/>
      <path d="M167.7,85.88c0-.07-.04-.12-.09-.17-.02-.03-.04-.06-.06-.09-.01-.01-.02-.03-.03-.04-.05-.07-.12-.1-.19-.13-.03-.02-.06-.02-.1-.03-.08-.03-.16-.06-.23-.07h-.17c-.09-.01-.17,0-.25.02-.05,0-.1.02-.14.05-.06.02-.12.06-.17.11-.04.05-.07.1-.09.16,0,.02-.03.03-.03.06-.02.06-.02.12.01.18.03.05.05.09.08.14l.08.11s.08.06.13.09c.02.03.05.06.07.08.05.05.11.09.17.12.07.04.15.06.23.07h.18c.09.01.17,0,.26-.02.05,0,.1-.03.15-.05.06-.02.12-.06.17-.12l.07-.1c.03-.07.03-.14,0-.22h0s0,0,0,0c-.01-.03-.03-.06-.04-.08,0-.02,0-.05,0-.07Z" fill="#f59835"/>
      <path d="M161.3,59.98s-.01-.02-.02-.03c-.01-.02-.02-.03-.03-.05,0,0,0,0,0-.01,0-.01-.02-.03-.03-.04-.03-.05-.07-.09-.12-.12h0s-.08-.04-.12-.06c0,0-.01,0-.02,0-.01,0-.03-.01-.04-.02,0,0-.01,0-.01,0-.04-.01-.08-.02-.12-.03h-.13c-.06-.01-.13,0-.19.01-.04,0-.07.02-.11.04-.05.02-.09.04-.13.08h0s0,0,0,0c0,0-.01,0-.01,0-.02.01-.02.02-.04.04-.01.02-.02.02-.02.03,0,0,0,0,0,0-.04.05-.03.03-.04.09,0,.04,0,.04,0,.06h0s.01.05.01.07c0,.04.01.09.03.12h0s.04.06.06.09c0,0,.01,0,.01.01l.02.02.09.07.12.06c.07.03.14.04.22.04.03,0,.05,0,.08,0,0,0,.01,0,.02,0h.13c.06-.02.11-.05.17-.07l-.04.03h.02s.03-.03.04-.03c.01,0,.02,0,.03-.01.01,0,.02-.02.03-.02.02-.01.04-.02.06-.03.03-.02.06-.04.08-.08.04-.04.05-.08.05-.14v-.04l-.02-.1h0Z" fill="#f59835"/>
      <path d="M164.26,52.45s-.04-.07-.06-.1c-.02-.04-.04-.06-.06-.1,0,0,0-.01-.01-.02-.05-.08-.09-.14-.18-.19-.02-.01-.04-.02-.06-.03v.03s-.08-.06-.13-.08c-.1-.04-.2-.05-.31-.05s-.21.02-.31.05c-.08.03-.16.07-.22.13-.05.05-.08.11-.08.19,0,.02,0,.04,0,.05,0,.06.02.1.05.14.02.04.04.07.06.1.02.04.04.06.07.1.01.02.02.03.03.05.03.05.06.1.1.14.05.05.1.09.17.11.07.04.14.06.22.07h.17c.09.01.17,0,.25-.02.05,0,.1-.02.14-.05.06-.02.12-.06.17-.11l.06-.09c.03-.07.03-.14,0-.21,0-.02-.02-.04-.03-.05,0-.01-.02-.03-.03-.05ZM163.11,52.5h0s0-.01,0-.01c0,0,0,0,0,.01h0ZM163.16,52.48v-.02s.03-.03.03-.03c-.01.01-.02.03-.03.05Z" fill="#f59835"/>
      <path d="M202.38,54.53s.02.04.03.06c.02.04.04.07.07.1l.03.03s.08.07.13.09c.05.03.11.05.17.06.07.01.14.01.2,0,.06,0,.13-.01.19-.04l.1-.05c.06-.03.1-.08.13-.14l.02-.08c0-.06-.03-.11-.07-.15l-.03-.03s-.06-.06-.1-.07c0,0-.01,0-.02,0-.03-.01-.06-.03-.09-.04l-.09-.04c-.06-.02-.12-.03-.17-.03-.04,0-.08,0-.12,0-.06,0-.12.01-.17.03l-.09.04-.07.06s-.05.06-.06.1c-.01.04-.01.07,0,.11h0Z" fill="#f59835"/>
      <path d="M234.46,49.48s-.04-.06-.06-.09c-.04-.06-.07-.12-.11-.18-.04-.08-.1-.14-.17-.18l-.14-.06c-.11-.04-.22-.06-.34-.06-.09,0-.18,0-.26.04-.08.01-.15.04-.22.09-.06.03-.11.07-.14.13-.04.04-.06.1-.06.16,0,.08.04.15.09.21h0s0,0,0,0c.05.07.1.14.15.21.02.03.04.07.08.1.05.04.09.08.14.12.09.05.18.08.28.1.06,0,.12.01.17.01.11,0,.22-.02.32-.05.05-.01.09-.04.13-.06.07-.04.13-.1.17-.17.03-.07.03-.14,0-.21,0-.01,0-.03-.01-.05,0-.02-.01-.03-.02-.04Z" fill="#f59835"/>
      <path d="M162.6,11.29h0c.05.07.1.14.15.21.02.03.04.07.08.1.05.04.09.08.14.12.09.05.18.08.28.1.06,0,.12.01.17.01.11,0,.22-.02.32-.05.05-.01.09-.04.13-.06.07-.04.13-.1.17-.17.03-.07.03-.14,0-.21,0-.01,0-.03-.01-.05,0-.02-.01-.03-.02-.04-.02-.03-.04-.06-.06-.09-.04-.06-.07-.12-.11-.18-.04-.08-.1-.14-.17-.18l-.14-.07c-.11-.04-.22-.06-.34-.06-.09,0-.18,0-.26.04-.08.01-.15.04-.22.09-.06.03-.11.07-.14.13-.04.04-.06.1-.06.16,0,.08.04.15.09.21h0Z" fill="#f59835"/>
      <path d="M169.23,96.52s-.04-.06-.06-.09c-.04-.06-.07-.12-.11-.18-.04-.08-.1-.14-.17-.18l-.14-.06c-.11-.04-.22-.06-.34-.06-.09,0-.18,0-.26.04-.08.01-.15.04-.22.09-.06.03-.11.07-.14.13-.04.04-.06.1-.06.16,0,.08.04.15.09.21h0s0,0,0,0c.05.07.1.14.15.21.02.03.04.07.08.1.05.04.09.08.14.12.09.05.18.08.28.1.06,0,.12.01.17.01.11,0,.22-.02.32-.05.05-.01.09-.04.13-.06.07-.04.13-.1.17-.17.03-.07.03-.14,0-.21,0-.01,0-.03-.01-.05s-.01-.03-.02-.04Z" fill="#f59835"/>
      <path d="M238.3,55.18s-.01-.07-.04-.09c-.02-.04-.05-.06-.09-.08-.07-.04-.15-.06-.24-.07-.09,0-.18,0-.27.03-.07.03-.15.07-.19.15h0s-.01.03-.02.05c-.02.02-.04.03-.05.05,0,.02-.01.03-.02.05-.01.03-.03.06-.04.09-.01.03-.03.06-.04.09s-.02.07-.03.1c-.02.04-.02.07,0,.11,0,.04.02.08.06.1.04.04.08.06.12.08.05.03.1.04.16.05.12.02.25.01.37-.03l.09-.04c.05-.03.09-.07.12-.12.01-.03.02-.06.04-.09,0-.01.01-.03.01-.04.01-.04.02-.07.03-.11l.04-.18s-.01-.03-.02-.04v-.05Z" fill="#f59835"/>
      <path d="M232.5,61.59l-.04-.06-.04-.03v-.02s.03-.08.03-.08c0-.04-.01-.08-.04-.11-.02-.04-.06-.07-.1-.09h0s0,0,0,0c0,0,0,0,0,0h0c-.1-.06-.22-.08-.33-.09-.09-.01-.18-.02-.27,0-.1.02-.16.04-.25.09,0,0-.02,0-.03.01-.04.03-.07.05-.11.08,0,0-.01.01-.02.02-.03.04-.06.08-.09.13,0,0,0,.02,0,.02,0,0,0,0,0,0-.04.04-.05.08-.05.14,0,.04.01.09.03.13,0,0,0,.01,0,.02.02.03.04.06.07.1,0,0,.01.02.03.03.04.03.08.07.12.09,0,0,0,0,0,0,.02,0,.04.02.06.03.02.01.04.02.06.03l.14.04h.02c.05,0,.13.02.19.01.11,0,.25-.01.35-.06.07-.02.14-.06.2-.12.04-.04.06-.09.06-.14,0,.01,0,.03-.01.04,0,0,0-.02.01-.03,0,0,0-.02,0-.03,0,0,0,0,0,0h0s.01-.05.01-.07v-.07ZM231.8,61.45h0s0,0-.01,0h0ZM231.83,61.67h.12s0,0,0,0h-.12ZM232.05,61.67s0,0,.01,0h0-.01Z" fill="#f59835"/>
      <path d="M218.15,83.39s-.01-.02-.01-.02l-.05-.06-.07-.06s0,0-.01,0c0,0,0,0,0,0-.04-.03-.07-.06-.12-.08-.09-.04-.19-.07-.29-.07-.09,0-.17.01-.25.05-.05.02-.12.06-.14.12v.06s0,.06.02.09c0,0,0,0,0,0h0s0,0,0,0c0,.01-.01.02-.01.03,0,.03,0,.05,0,.08,0,.01,0,.02,0,.03,0,.01-.01.02-.02.04,0,0-.01.01-.02.02h.01s0,0-.01.02c-.02.02-.05.04-.07.07l-.02.08c0,.06.03.11.07.15.04.04.08.06.13.08.05.03.11.05.17.05.07.01.13.01.2,0,.07,0,.13-.01.19-.04.07-.02.13-.06.18-.11.01,0,.03-.02.04-.04.03-.03.05-.07.08-.11.03-.05.04-.11.05-.17,0-.05,0-.09,0-.14,0-.03-.01-.06-.03-.08ZM217.23,83.56s-.02.02-.03.03h0s.03-.03.03-.03ZM217.2,83.58h0s0,0,0,0c0,0-.02.02-.02.02l.02-.03Z" fill="#f59835"/>
      <path d="M202.82,93.35s-.09-.05-.15-.06c-.06-.02-.12-.03-.18-.02h-.12c-.07.02-.14.04-.2.08l-.07.06s-.06.08-.06.14h0s0,.07,0,.07v.03s0,.07.02.1l.04.06s.07.06.12.07c.03.02.06.03.1.03.06.02.11.02.17.02h.12s.11-.04.11-.04c.05-.01.09-.04.12-.07.04-.02.06-.05.08-.09.01-.03.02-.07.02-.1v-.03s0-.04,0-.07c0-.04-.01-.08-.04-.1-.02-.04-.05-.07-.09-.09Z" fill="#f59835"/>
      <path d="M136.19,48.25s0,.07.02.1l.04.06s.07.06.12.07c.03.02.06.03.1.03.06.02.11.02.17.02h.12s.11-.04.11-.04c.05-.01.09-.04.12-.07.04-.02.06-.05.08-.09.01-.03.02-.07.02-.1v-.03s0-.04,0-.07c0-.04-.01-.08-.04-.1-.02-.04-.05-.07-.09-.09-.05-.03-.09-.05-.15-.06-.06-.02-.12-.03-.18-.02h-.12c-.07.02-.14.04-.2.08l-.07.06s-.06.08-.06.14h0s0,0,0,0v.07s0,.03,0,.03Z" fill="#f59835"/>
      <path d="M167.18,10.44s0,.07.02.1l.04.06s.07.06.12.07c.03.02.06.03.1.03.06.02.11.02.17.02h.12s.11-.04.11-.04c.05-.01.09-.04.12-.07.04-.02.06-.05.08-.09.01-.03.02-.07.02-.1v-.03s0-.04,0-.07c0-.04-.01-.08-.04-.1-.02-.04-.05-.07-.09-.09-.05-.03-.09-.05-.15-.06-.06-.02-.12-.02-.18-.02h-.12c-.07.02-.14.04-.2.08l-.07.06s-.06.08-.06.14h0s0,.07,0,.07v.03Z" fill="#f59835"/>
      <path d="M186,15.32s.01,0,.02.01c.02.02.04.04.06.06,0,0,0,.01.01.02.05.1.16.17.26.2.07.02.14.04.21.04.07,0,.15,0,.22,0l.13-.03c.08-.02.14-.06.2-.12l.06-.08c.03-.06.03-.12,0-.18-.03-.06-.07-.12-.11-.17-.02-.03-.05-.06-.08-.09-.12-.1-.24-.17-.39-.23-.07-.02-.14-.04-.21-.04-.07,0-.15,0-.22,0-.1.02-.19.06-.27.11-.05.02-.1.04-.14.08l-.04.05s-.02.06,0,.08c0,.03.04.05.06.08.04.1.14.17.24.21ZM186,15.21h.02,0s.02,0,.04,0h-.06Z" fill="#f59835"/>
      <path d="M200.89,19.72s.02.04.03.06c0,.02.01.03.02.05.12.23.53.26.73.2,0,0,0,0,0,0,.13-.03.24-.1.29-.2,0-.02.02-.03.02-.05,0-.02.03-.03.03-.06v-.08c.01-.46-1.14-.46-1.13,0h0v.08Z" fill="#f59835"/>
      <path d="M136.07,60.95h0v.08s.02.04.03.06c0,.02.01.03.02.05.12.23.53.26.73.2,0,0,0,0,0,0,.13-.03.24-.1.29-.2,0-.02.02-.03.02-.05,0-.02.03-.03.03-.06v-.08c.01-.46-1.14-.46-1.13,0Z" fill="#f59835"/>
      <path d="M189.51,21.95c.14,0,.43-.06.43-.25s-.29-.25-.43-.25-.43.06-.43.25.29.25.43.25Z" fill="#f59835"/>
      <path d="M137.88,64.3c-.14,0-.43.06-.43.25s.29.25.43.25.43-.06.43-.25-.29-.25-.43-.25Z" fill="#f59835"/>
    </g>
  </g>
</svg>