<?xml version="1.0" encoding="UTF-8"?>
<svg id="a" data-name="Camada 1" xmlns="http://www.w3.org/2000/svg" viewBox="0 0 51.18 31.98">
  <path d="M25.77,23.74c0,1.35-.27,2.54-.81,3.56-.54,1.02-1.28,1.88-2.23,2.57-.95.69-2.04,1.22-3.29,1.58-1.25.36-2.58.54-3.99.54H0V0h17.12c1.11,0,2.12.24,3.02.72.9.48,1.67,1.1,2.3,1.87.63.77,1.12,1.64,1.46,2.61.35.98.52,1.96.52,2.95,0,1.56-.39,3.03-1.17,4.39-.78,1.37-1.92,2.38-3.42,3.04,1.83.54,3.28,1.51,4.35,2.91,1.07,1.4,1.6,3.15,1.6,5.25ZM6.22,5.32v8.06h8.29c1.05,0,1.94-.36,2.68-1.08.73-.72,1.1-1.71,1.1-2.97s-.34-2.21-1.01-2.93c-.68-.72-1.51-1.08-2.5-1.08H6.22ZM19.51,22.57c0-.57-.1-1.12-.29-1.64-.2-.52-.46-.98-.79-1.37-.33-.39-.72-.7-1.17-.92-.45-.23-.95-.34-1.49-.34H6.22v8.42h9.23c.57,0,1.1-.11,1.6-.32.5-.21.92-.5,1.28-.88.36-.38.65-.82.86-1.33.21-.51.32-1.05.32-1.62Z" fill="#2a2a2a"/>
  <path d="M39.23,31.98c-1.83,0-3.49-.31-4.98-.94-2.94-1.25-5.01-3.35-6.22-6.31-.57-1.43-.85-2.92-.85-4.5s.28-3.16.83-4.6c1.18-2.99,3.26-5.12,6.22-6.39,1.5-.64,3.18-.96,5.04-.96s3.53.32,5,.96c4.83,2.11,7.11,6.79,6.9,11.87-.01.35-.05.64-.11.87h-17.68c.09.9.31,1.7.65,2.4.35.7.8,1.3,1.35,1.79.55.49,1.18.87,1.88,1.13.7.26,1.42.39,2.18.39,1.16,0,2.26-.28,3.29-.85,1.03-.57,1.74-1.32,2.12-2.25l5.02,1.4c-.84,1.75-2.19,3.18-4.04,4.3-1.85,1.12-4.05,1.68-6.61,1.68ZM45.17,18.19c-.15-1.72-.78-3.09-1.9-4.12-1.12-1.03-2.48-1.55-4.08-1.55-.79,0-1.52.14-2.2.41-.68.28-1.29.66-1.81,1.16-.52.5-.95,1.09-1.29,1.79-.33.7-.53,1.47-.59,2.31h11.87Z" fill="#2a2a2a"/>
  <path d="M31.54,1.52h15.3v3.8h-15.3V1.52Z" fill="#2a2a2a"/>
</svg>