<?xml version="1.0" encoding="UTF-8"?>
<svg id="a" data-name="Camada 1" xmlns="http://www.w3.org/2000/svg" viewBox="0 0 40 31.76">
  <path d="M33.59,0H6.41C2.87,0,0,2.87,0,6.41v15.88c0,5.22,4.25,9.47,9.47,9.47h21.06c5.22,0,9.47-4.25,9.47-9.47V6.41c0-3.53-2.87-6.41-6.41-6.41ZM32.53,4.24l-10.44,11.97c-.53.61-1.27.95-2.08.95s-1.55-.34-2.08-.95L7.47,4.24h25.05ZM30.53,27.52H9.47c-2.88,0-5.23-2.35-5.23-5.23V6.99l10.48,12.01c1.33,1.53,3.26,2.4,5.28,2.4s3.95-.87,5.28-2.4l10.48-12.01v15.31c0,2.88-2.35,5.23-5.23,5.23Z" fill="#2a2a2a"/>
</svg>