<?xml version="1.0" encoding="UTF-8"?>
<svg id="a" data-name="Camada 1" xmlns="http://www.w3.org/2000/svg" viewBox="0 0 52.04 52.04">
  <path d="M39.8,9.29c-1.68,0-3.05,1.37-3.05,3.05s1.37,3.05,3.05,3.05,3.05-1.37,3.05-3.05-1.37-3.05-3.05-3.05Z" fill="#2a2a2a"/>
  <path d="M26.23,13.2c-7.07,0-12.82,5.75-12.82,12.82s5.75,12.82,12.82,12.82,12.82-5.75,12.82-12.82-5.75-12.82-12.82-12.82ZM26.23,34.23c-4.53,0-8.21-3.68-8.21-8.21s3.68-8.21,8.21-8.21,8.21,3.68,8.21,8.21-3.68,8.21-8.21,8.21Z" fill="#2a2a2a"/>
  <path d="M36.41,52.04H15.63c-8.62,0-15.63-7.01-15.63-15.63V15.63C0,7.01,7.01,0,15.63,0h20.78c8.62,0,15.63,7.01,15.63,15.63v20.78c0,8.62-7.01,15.63-15.63,15.63ZM15.63,4.9c-5.92,0-10.74,4.82-10.74,10.74v20.78c0,5.92,4.82,10.74,10.74,10.74h20.78c5.92,0,10.74-4.82,10.74-10.74V15.63c0-5.92-4.82-10.74-10.74-10.74H15.63Z" fill="#2a2a2a"/>
</svg>