<?xml version="1.0" encoding="UTF-8"?>
<svg id="a" data-name="Camada 1" xmlns="http://www.w3.org/2000/svg" viewBox="0 0 32.57 40.57">
  <path d="M19.8,18.84c3.64-1.42,6.24-4.95,6.24-9.09,0-5.38-4.38-9.75-9.75-9.75S6.53,4.38,6.53,9.75c0,4.14,2.59,7.67,6.24,9.09C5.47,20.46,0,26.96,0,34.73c0,3.22,2.62,5.84,5.84,5.84h20.89c3.22,0,5.84-2.62,5.84-5.84,0-7.77-5.47-14.28-12.77-15.89ZM10.77,9.75c0-3.04,2.47-5.51,5.51-5.51s5.51,2.47,5.51,5.51-2.47,5.51-5.51,5.51-5.51-2.47-5.51-5.51ZM26.73,36.33H5.84c-.88,0-1.6-.72-1.6-1.6,0-6.64,5.4-12.04,12.04-12.04s12.04,5.4,12.04,12.04c0,.88-.72,1.6-1.6,1.6Z" fill="#2a2a2a"/>
</svg>