<?xml version="1.0" encoding="UTF-8"?>
<svg id="a" data-name="Camada 1" xmlns="http://www.w3.org/2000/svg" viewBox="0 0 51.49 51.62">
  <path d="M0,51.62l3.7-13.81c-2.1-3.78-3.2-8.02-3.2-12.32C.5,11.44,11.94,0,26,0s25.49,11.44,25.49,25.49-11.44,25.49-25.49,25.49c-4.22,0-8.39-1.07-12.12-3.09l-13.88,3.72ZM14.57,42.72l.87.52c3.21,1.91,6.86,2.92,10.55,2.92,11.4,0,20.67-9.27,20.67-20.67S37.4,4.82,26,4.82,5.32,14.09,5.32,25.49c0,3.76,1.05,7.47,3.02,10.72l.54.88-2.07,7.71,7.75-2.08Z" fill="#e5e1c3"/>
  <path d="M35.48,29.04c-1.05-.63-2.41-1.33-3.65-.82-.95.39-1.55,1.87-2.17,2.63-.32.39-.69.45-1.18.25-3.56-1.42-6.29-3.79-8.25-7.07-.33-.51-.27-.91.13-1.38.59-.7,1.34-1.49,1.5-2.43.16-.94-.28-2.04-.67-2.88-.5-1.07-1.05-2.6-2.13-3.21-.99-.56-2.29-.25-3.17.47-1.52,1.24-2.25,3.17-2.23,5.09,0,.55.07,1.09.2,1.62.31,1.27.89,2.45,1.55,3.57.5.85,1.04,1.67,1.62,2.46,1.9,2.59,4.27,4.83,7.02,6.51,1.37.84,2.85,1.58,4.38,2.08,1.71.57,3.24,1.16,5.09.8,1.94-.37,3.85-1.57,4.62-3.44.23-.55.34-1.17.21-1.75-.26-1.21-1.9-1.93-2.87-2.51Z" fill="#e5e1c3" fill-rule="evenodd"/>
</svg>