<?xml version="1.0" encoding="UTF-8"?>
<svg id="a" data-name="Camada 1" xmlns="http://www.w3.org/2000/svg" viewBox="0 0 28.75 40.4">
  <path d="M22.21,0H6.54C2.93,0,0,2.93,0,6.54v27.32c0,3.61,2.93,6.54,6.54,6.54h15.67c3.61,0,6.54-2.93,6.54-6.54V6.54c0-3.61-2.93-6.54-6.54-6.54ZM4.24,6.54c0-1.27,1.03-2.3,2.3-2.3h15.67c1.27,0,2.3,1.03,2.3,2.3v27.32c0,1.27-1.03,2.3-2.3,2.3H6.54c-1.27,0-2.3-1.03-2.3-2.3V6.54Z" fill="#2a2a2a"/>
  <path d="M16.3,33.89h-3.85c-1.17,0-2.12-.95-2.12-2.12h0c0-1.17.95-2.12,2.12-2.12h3.85c1.17,0,2.12.95,2.12,2.12h0c0,1.17-.95,2.12-2.12,2.12Z" fill="#2a2a2a"/>
</svg>