<?xml version="1.0" encoding="UTF-8"?>
<svg id="b" xmlns="http://www.w3.org/2000/svg" version="1.1" xmlns:xlink="http://www.w3.org/1999/xlink" viewBox="0 0 740 353.13">
  <!-- Generator: Adobe Illustrator 29.6.1, SVG Export Plug-In . SVG Version: 2.1.1 Build 9)  -->
  <defs>
    <style>
      .st0 {
        fill: #f33;
      }
    </style>
    <symbol id="BOLACHINHA" viewBox="0 0 393.86 323.97">
      <g>
        <g>
          <path class="st0" d="M96.02,166.58c1.4-3.61,2.34-7.36,3.93-10.91s3.45-6.9,5.66-10.05c4.38-6.23,10-11.61,16.47-15.64,1.63-1.02,3.32-1.95,5.05-2.79,1.83-.88,3.8-1.44,5.72-2.07,3.84-1.26,8.08-1.84,11.99-2.19,8.13-.72,16.39.28,24.01,3.17,4.12,1.56,8.3,3.6,11.72,6.41,1.56,1.28,2.98,2.78,4.17,4.41.59.81,1.09,1.68,1.51,2.59.21.45.33.94.54,1.39.34.77.92,1.26,1.5,1.85.9.9,2.3,1.18,3.53,1.07.92-.09,2.66-.5,2.94-1.6.14-.53.39-1.14.38-1.68-.02-.63-.31-1.22-.6-1.76-.59-1.12-1.26-2.19-2-3.22-1.36-1.89-3.04-3.49-4.84-4.96-3.51-2.87-7.49-5.08-11.63-6.88-8.51-3.71-18.02-5.59-27.31-5.19-4.65.2-9.44.97-14,2.47-2.14.71-4.32,1.26-6.38,2.18-1.91.85-3.82,1.84-5.68,2.81-7.28,3.79-13.74,9.2-18.84,15.62-2.85,3.59-5.37,7.51-7.3,11.67s-3.72,8.55-3.89,13.02c-.05,1.33,2.94,1.31,3.35.27h0Z"/>
          <path class="st0" d="M361.97,132.84c-1.58-3.48-4.64-6.46-7.42-9.01-2.93-2.69-6.24-5.16-9.69-7.15-7.21-4.15-15.21-6.92-23.5-7.76s-16.94,0-25.02,2.65c-7.66,2.5-14.74,6.76-20.8,12.05-6.72,5.87-12.12,13.31-15.48,21.58-1.23,3.01,5.68,3.81,6.75,1.17,5.46-13.4,16.57-24.4,29.8-29.79,6.88-2.8,13.52-4.07,20.86-3.78,1.85.07,3.15.2,5.13.5,1.87.28,3.73.65,5.56,1.09,3.51.83,7.2,2.12,10.55,3.7,3.81,1.79,7.32,3.96,10.68,6.49,3.56,2.68,6.41,6.03,9.69,9,.61.55,3.52.65,2.9-.72h0Z"/>
          <path class="st0" d="M136.01,196.78c-.06-1.05.07-2.06.06-3.11s.04-2.1.19-3.13c.31-2.04.77-4.09,1.46-6.04,1.37-3.87,3.65-7.39,6.66-10.18,2.86-2.65,6.42-4.45,10.27-5.09,1.83-.3,3.79-.2,5.44.02,1.95.26,3.43.73,5.4,1.48s3.87,1.82,5.66,3.21c.81.64,1.57,1.36,2.28,2.12.39.42.74.89,1.13,1.31.76.83,1.74,1.06,2.79,1.3,1.11.25,3.04-.06,3.56-1.25.65-1.49-.39-2.43-1.37-3.44-.89-.92-1.87-1.75-2.88-2.54-1.94-1.52-4.12-2.72-6.39-3.69-4.72-2.01-9.91-2.55-14.98-1.95-4.84.57-9.44,2.1-13.35,5.09-3.69,2.82-6.61,6.54-8.44,10.82-1,2.35-1.74,4.9-1.92,7.45-.09,1.32-.04,2.67.08,3.99.13,1.4.56,2.58,1,3.9.36,1.08,3.43,1.03,3.35-.27h0Z"/>
          <path class="st0" d="M290.42,163.64c1.83-.76,3.22-2.43,4.7-3.71,1.61-1.4,3.44-2.54,5.32-3.53,3.08-1.62,6.71-2.72,10.21-2.72s7.1.88,10.39,2.75c1.82,1.04,3.5,2.41,4.66,4.18.54.83.97,1.75,1.29,2.69s.28,2.24.83,3.09c1.21,1.87,5.24,2.25,6.34,0,.82-1.68-.35-4.37-1.16-5.91-.96-1.81-2.25-3.43-3.81-4.76-3.37-2.86-7.48-4.47-11.83-5.12-7.27-1.09-15.15.33-21.48,4.1-1.65.98-3.2,2.21-4.59,3.53-1.08,1.02-3.24,3.05-2.91,4.72.16.82,1.41.97,2.06.7h0Z"/>
          <path class="st0" d="M117.84,131.55c-1.03-2.41-1.69-4.93-2.5-7.42-.92-2.81-1.68-5.62-2.1-8.54-.94-6.5-1.33-13,.2-19.46,2.98-12.66,11.95-22.96,23.36-28.9,5.38-2.8,11.02-4.41,16.98-5.03.98-.1,2.85-.18,4.24-.17,1.49,0,2.88.09,4.06.22,3.26.37,6.46,1.11,9.55,2.23s6.21,2.73,8.98,4.7c2.61,1.86,4.83,4.3,6.79,6.83,3.84,4.97,6.29,11.12,7.28,17.3,1.06,6.64.42,13.41-1.18,19.92-1.37,5.57-3.58,11.05-6.98,15.68-.82,1.11-1.69,2.18-2.61,3.21-1.1,1.25,0,2.59,1.28,3.07,1.46.55,3.75.45,4.87-.81,4.04-4.55,7.12-9.84,9.05-15.61,2.26-6.73,3.59-14.16,3.15-21.27s-2.44-13.83-6.09-19.75c-3.87-6.28-9.48-11.2-16.08-14.49-13.03-6.49-28.51-6.75-42.01-1.5-12.72,4.94-23.98,14.75-29.02,27.62-2.63,6.71-3.51,14.06-2.85,21.21.58,6.27,2.36,12.95,5.75,18.29.77,1.21,1.58,2.39,2.43,3.54.69.94,4.12.66,3.47-.87h0Z"/>
          <path class="st0" d="M311.51,152.69c-2.25,13.78-7.15,26.86-15.67,38.01-4.21,5.51-8.93,10.57-14.35,14.92s-11.96,8.15-18.62,11.02c-13.25,5.71-27.99,8.14-42.37,6.75s-29.93-6.77-41.65-16.48c-5.43-4.5-10.25-9.82-13.97-15.83-1.85-2.99-3.6-6.15-4.61-9.53-.93-3.11-1.34-6.36-1.51-9.6-.06-1.07-.08-2.14-.08-3.22,0-2.25-5.4-2.26-5.4,0,0,6.5.93,13.03,3.92,18.86,3.36,6.57,7.89,12.55,13.22,17.65,11.65,11.16,26.86,17.98,42.7,20.59s31.76,1.14,46.65-4.08c14.14-4.96,27.08-13.67,36.82-25.09,9.22-10.82,15.83-24.5,18.06-38.56.28-1.79.4-3.61.49-5.42.07-1.49-3.4-1.45-3.64,0h0Z"/>
          <path class="st0" d="M304.06,181.36c4.88,18.91,3.23,39.35-4.91,57.12-7.56,16.52-20.7,30.11-36.72,38.63-16.37,8.71-35.31,11.41-53.49,7.86s-38.25-13.65-46.71-31.32c-4.19-8.76-6.32-18.24-6.94-27.89-.3-4.68-.28-9.52.63-14.14s2.45-9.29,4.46-13.53c.94-1.97,2.01-3.92,3.22-5.73,2.08-3.11-4.51-4.52-6.04-2.23-2.76,4.12-4.84,8.55-6.2,13.32s-1.68,9.77-1.85,14.58c-.35,9.88,1.62,19.95,4.81,29.28,1.71,4.98,3.96,9.71,7.03,14s7.01,7.67,11.3,10.77c8.18,5.91,17.41,10.45,27.1,13.27,18.96,5.51,39.58,4.71,57.85-2.9,17.28-7.2,32.2-19.91,41.66-36.11,10.07-17.26,14.01-38.7,10.15-58.37-.48-2.43-1.06-4.84-1.74-7.22-.39-1.36-4.05-1.07-3.62.6h0Z"/>
          <path class="st0" d="M266.81,216.36c.35,7.61-.12,15.28-1.69,22.74l.77-.79c-7.6,2.11-15.19,4.22-22.83,6.17-.41.1-.81.21-1.22.31-.3.08-.61.15-.91.23l.56-.03s-.18-1.04-.2-1.2c-.06-.49-.11-.97-.16-1.46-.21-1.94-.43-3.89-.64-5.83s-.43-3.89-.64-5.83-.26-3.83-.78-5.65c-.37-1.29-3.7-1.13-3.77.31-.11,2.23.46,4.59.73,6.8s.53,4.21.8,6.31.38,4.4.86,6.52c.43,1.89,2.22,2.54,4.03,2.24,2.09-.35,4.17-1.2,6.21-1.78s4.27-1.23,6.4-1.85c4.36-1.27,8.75-2.46,13.13-3.67.41-.11.68-.39.77-.79,1.58-7.5,2.13-15.11,1.36-22.74-.11-1.12-2.83-1.11-2.78,0h0Z"/>
          <path class="st0" d="M202.13,222.34c-.47,3.83-.44,7.74-.62,11.6s-.37,7.73-.57,11.6l2.94-1.01c-8.38-2.28-16.7-4.78-25.05-7.17l1.26,1.35c-.95-9.85-.57-19.82-.29-29.7.07-2.43-5.75-2.47-5.83,0-.31,9.94-.37,19.82,1.01,29.7.14.97,1.04,1.29,1.87,1.5,8.35,2.12,16.73,4.11,25.05,6.33.84.22,2.88.3,2.94-1.01.18-3.86.35-7.73.49-11.6s.47-7.75.28-11.6c-.07-1.44-3.31-1.4-3.48,0h0Z"/>
          <path class="st0" d="M119.92,293.37c-12.98-7.74-24.49-17.76-34.09-29.41s-17.79-25.29-23.65-39.58-9.7-29.65-11.1-45.16c-1.39-15.47-.3-31.12,3.31-46.23s9.93-30.62,18.1-44.44c8.16-13.81,18.32-26.42,29.95-37.45,11.68-11.07,24.89-20.49,39.18-27.87,16-8.26,33.35-13.83,51.08-16.9s35.96-3.71,53.9-2.12c9.1.8,18.14,2.15,27.08,4.01s17.79,4.07,26.34,7.12c17.09,6.08,32.36,16.93,45.54,29.23,6.03,5.63,11.74,11.54,16.04,18.62s7.26,14.9,10,22.79,4.75,16.36,6.59,24.71c1.94,8.83,4.01,17.64,5.88,26.5,3.79,17.97,6.38,36.35,4.19,54.71-2.25,18.82-9.45,36.89-19.78,52.72-9.68,14.84-22.17,27.93-35.9,39.07-13.31,10.8-28.22,19.78-44.14,26.17-15.79,6.33-32.57,10.07-49.61,10.38-18.03.33-36.14-.55-53.93-3.6-16.6-2.84-32.96-7.61-48.13-14.98-7.28-3.54-14.28-7.65-20.92-12.27-.96-.67-2.6-.61-3.57,0s-.89,1.56,0,2.18c14.08,9.81,29.76,17.18,46.17,22.16,17.22,5.22,35.07,7.93,53,9.05,18.17,1.14,36.67,1.27,54.55-2.59,17.17-3.71,33.61-10.44,48.7-19.39s29.02-20.22,41.06-33.08c12.84-13.71,23.66-29.53,30.32-47.17,6.71-17.75,8.92-36.82,7.21-55.67-1.7-18.72-6.51-37.03-10.55-55.34-3.67-16.62-7.34-33.6-16.51-48.2-4.55-7.26-10.44-13.35-16.71-19.14-6.81-6.29-14.1-12.1-21.86-17.17s-16.36-9.6-25.28-12.73-18.07-5.41-27.24-7.32C256.87,1.16,238.08-.55,219.41.15s-37.3,3.78-55.1,9.58c-16.74,5.46-32.68,13.38-47.05,23.58-13.38,9.49-25.45,20.83-35.73,33.61-10.26,12.76-18.79,26.96-25.01,42.12-6.16,15.03-10.09,31.07-11.21,47.29s.53,31.57,4.32,46.86,9.93,30.22,18.14,43.77c8.17,13.49,18.47,25.54,30.72,35.49,5.89,4.78,12.2,8.91,18.93,12.4.73.38,1.77.46,2.49,0,.63-.4.67-1.08,0-1.48h0Z"/>
          <path class="st0" d="M117.54,290.89c-7.1-6.8-13.67-14.1-19.41-22.09-5.84-8.13-10.84-16.87-15.06-25.95-8.45-18.2-13.78-37.84-15.88-57.79s-.72-39.65,4.1-58.97c4.99-19.95,13.52-39,24.92-56.1,11.33-16.99,25.58-32.14,42.04-44.25,2.06-1.51,4.13-2.99,6.19-4.5,1.68-1.23-1.36-2.1-2.44-1.45-8.85,5.39-16.96,12.29-24.41,19.47s-14.36,15.1-20.48,23.52c-12.2,16.78-21.58,35.57-27.43,55.48-5.68,19.31-7.79,39.52-6.46,59.59,1.34,20.15,5.98,40.14,13.73,58.79,7.68,18.47,18.54,35.92,32.8,50.02,1.76,1.74,3.58,3.42,5.47,5.02.48.41,1.23.5,1.82.28.43-.16.94-.63.48-1.07h0Z"/>
          <g>
            <path class="st0" d="M207.72,319.83c-22.71,1.14-45.29,1.48-67.65-2.33-17.72-3.02-35.25-8.5-51.12-16.78-13.94-7.27-26.46-16.45-37.45-27.59-9.98-10.11-18.35-21.43-25.2-33.8-6.26-11.31-11.2-23.35-14.75-35.77-3.06-10.73-5.08-21.64-5.81-32.94-.92-14.17.82-28.26,4.5-41.97.77-2.86,1.37-5.81,2.29-8.62s1.97-5.64,3.07-8.41c2.2-5.55,4.72-10.99,7.51-16.27,5.61-10.59,12.35-20.56,20.05-29.73,15.63-18.59,35.27-33.96,57.14-44.51C125.8,8.8,154.23,3.22,182.44,3.23c6.93,0,13.86.33,20.76.99.99.09,2.64.04,3.1-1.08.43-1.05-.9-1.81-1.76-1.89-29-2.76-58.58-.27-86.31,8.94-24.73,8.22-47.41,21.9-66.22,39.93-17.52,16.79-31.71,37.5-40.77,60.02-1.11,2.77-2.15,5.57-3.1,8.4s-2.18,5.84-3,8.87c-1.58,5.79-2.84,11.67-3.74,17.61S-.04,157.07,0,163.16c.07,10.91,1.57,21.79,3.99,32.42,2.82,12.37,7.02,24.44,12.5,35.88,6.13,12.8,13.89,24.85,23.13,35.62,10.16,11.84,22.15,22.09,35.41,30.31,15.34,9.52,32.27,16.22,49.78,20.51,21.24,5.2,43.35,6.87,65.15,5.7,6.11-.33,12.17-.85,18.23-1.72.58-.08,1.37-.46,1.26-1.15s-1.18-.94-1.73-.91h0Z"/>
            <path class="st0" d="M70.42,290.89c-7.13-6.83-13.75-14.12-19.59-22.09s-11.11-16.87-15.49-25.95c-8.76-18.14-14.52-37.78-16.89-57.79s-1.23-39.77,4.12-59.02c5.68-20.42,15.6-39.6,28.11-56.65,12.48-17,27.57-32.2,44.64-44.61,2.08-1.51,4.17-2.99,6.24-4.51,1.68-1.23-1.36-2.1-2.44-1.45-9.01,5.49-17.31,12.43-25.06,19.57-7.95,7.33-15.35,15.28-22.05,23.77-13.26,16.77-24.07,35.66-30.79,56-6.35,19.22-8.39,39.53-6.82,59.68s6.63,40.2,14.71,58.79c8.02,18.46,19.15,35.87,33.53,50.02,1.77,1.74,3.59,3.41,5.48,5.02.48.41,1.23.5,1.82.28.43-.16.94-.63.48-1.07h0Z"/>
          </g>
          <path class="st0" d="M129.33,302.15c-4.97,2.83-10.67,1.66-15.7-.39-5.37-2.18-10.3-5.42-15.21-8.46-5.16-3.19-10.42-6.38-15.15-10.19s-8.86-7.99-12.6-12.67-6.83-9.74-9.96-14.84c-.71-1.16-1.47-2.3-2.16-3.47-.74-1.25-1.27-2.6-2.06-3.82-1.52-2.35-3.02-4.7-4.45-7.11-2.86-4.82-5.43-9.84-7.19-15.17s-2.63-11.25-3.15-17.01-.72-11.64-1.08-17.46-1.19-11.89-1.84-17.84c-1.4-12.79-2.06-25.71-.65-38.53,1.16-10.6,3.79-20.94,7.76-30.84,4.38-10.91,10.2-21.18,16.5-31.08,2.62-4.11,5.63-7.93,8.79-11.64s6.4-7.37,9.98-10.64c7.46-6.81,16.8-9.9,26.65-11.28,2.61-.37,5.21-.69,7.82-1.08.65-.1,1.61-.54,1.46-1.34s-1.33-1.08-2-1.06c-10.52.3-21.63,2.38-30.76,7.86-4.38,2.63-8.09,6.07-11.58,9.76s-7.04,7.8-10.25,11.95c-3.5,4.54-6.49,9.44-9.41,14.36-3.08,5.19-5.96,10.49-8.53,15.94-4.72,10.03-8.23,20.58-10.13,31.52-2.17,12.46-2.23,25.16-1.23,37.74.53,6.66,1.5,13.26,2.14,19.91.58,6.01.77,12.04,1.14,18.07s.87,11.82,2.14,17.6,3.38,11.16,6.13,16.32,5.98,10.29,9.66,14.87c1.94,2.42,3.52,5.15,5.22,7.74s3.42,5.05,5.26,7.48c7.39,9.8,16.67,18.03,26.95,24.7,5.14,3.33,10.37,6.72,15.84,9.5,5,2.54,10.64,4.71,16.35,4.29,2.68-.19,5.25-.99,7.54-2.39.59-.36.55-.96,0-1.33-.61-.41-1.62-.35-2.24,0h0Z"/>
          <g>
            <path class="st0" d="M142.8,122.3c-.06-2.11-.76-4.12-1.16-6.19s-.74-4.2-.98-6.31c-.48-4.24-.57-8.52-.28-12.78.58-8.56,2.71-17,6.29-24.8.97-2.12,2.06-4.19,3.24-6.2.61-1.03,1.25-2.05,1.91-3.05s1.77-1.81,1.9-3.06-2.21-1.05-2.81-.69c-1.01.62-1.32,1.41-1.93,2.37s-1.26,1.89-1.85,2.85c-1.15,1.87-2.2,3.81-3.16,5.78-1.9,3.9-3.42,7.97-4.57,12.15-2.31,8.39-3.15,17.17-2.35,25.84.22,2.39.55,4.77,1.05,7.12s.98,5.02,2.29,7.17c.38.62,2.46.84,2.42-.19h0Z"/>
            <path class="st0" d="M154.79,121.67c1.33-1.11,2.3-2.56,3.23-4.01s1.75-2.93,2.47-4.48c1.43-3.08,2.36-6.38,2.89-9.72.21-1.3-3.24-1.44-3.45,0-.47,3.23-1.39,6.35-2.69,9.34-.64,1.46-1.37,2.88-2.19,4.24s-1.86,2.63-2.59,4.06c-.24.47.39.79.74.88.54.14,1.16.06,1.59-.31h0Z"/>
            <path class="st0" d="M163.35,103.41c-.3-1.45-1.98-2.14-3.16-2.81-1.39-.79-2.91-1.37-4.39-1.99-2.7-1.14-5.4-2.26-8.01-3.59-1.16-.59-2.7-.72-3.84,0-.94.59-1.08,1.79,0,2.36,2.76,1.46,5.62,2.72,8.48,3.97,1.37.6,2.73,1.27,4.12,1.81,1.58.61,3.26,1.42,4.98,1.34.48-.02,1.99-.27,1.82-1.09h0Z"/>
            <path class="st0" d="M146.67,96.42c4.65-3.72,9.23-7.52,13.96-11.14.27-.21.77-.59.69-1.02-.33-1.87-1.23-3.7-1.88-5.48-.71-1.93-1.43-3.85-2.15-5.77-1.42-3.77-2.81-7.56-4.18-11.35-.57-1.59-3.68-1.4-4.65-.37-.35.38-.63.69-.54,1.23.16.96,1.26,1.28,2.12,1.27-1.23-.23-1.42-.25-.56-.05.29.04.58.05.87.05.8-.02,1.41-.27,2.11-.63l-4.25-.69c1.33,3.72,2.69,7.42,4.07,11.12.69,1.85,1.39,3.7,2.12,5.54s1.28,3.86,2.29,5.5l.24-1.11c-4.26,4.06-8.69,7.94-13.05,11.91-.57.52.08,1.12.58,1.32.73.28,1.62.14,2.22-.35h0Z"/>
          </g>
          <g>
            <path class="st0" d="M304.02,111.64c-.04-1.01-.51-1.87-.9-2.78-.44-1.02-.86-2.06-1.31-3.07-.88-1.96-1.79-3.92-2.62-5.91-1.64-3.96-2.97-8.08-4.1-12.21-2.25-8.18-3.43-16.68-3.03-25.17.24-5.08,1.03-10.12,2.34-15.03.44-1.64-3.22-1.95-3.59-.59-2.33,8.65-3.13,17.59-2.26,26.51.84,8.59,3.1,16.99,6.08,25.07.86,2.34,1.68,4.7,2.62,7.01.45,1.1.93,2.19,1.44,3.27.57,1.2,1.04,2.49,1.97,3.47.65.68,3.42.87,3.36-.54h0Z"/>
            <path class="st0" d="M315.42,111.15c1.04-1.65,1.46-3.77,1.82-5.67.41-2.17.7-4.37.92-6.57.44-4.55.34-9.15-.09-13.7-.13-1.39-3.49-1.33-3.37,0,.42,4.49.31,8.98-.07,13.47-.18,2.13-.45,4.25-.8,6.36-.32,1.9-.86,4-.68,5.93.09.95,1.88.8,2.27.18h0Z"/>
            <path class="st0" d="M299.44,82.57c1.29.83,3.09,1.04,4.57,1.36,1.56.34,3.15.6,4.72.89s3.15.59,4.72.89c1.23.23,4.21.9,4.49-.94.05-.35-.35-.7-.59-.85-1.2-.76-2.94-.81-4.31-1.05s-2.85-.5-4.27-.75-2.74-.52-4.13-.7c-1.51-.19-3.05-.52-4.57-.29-.77.11-1.53.86-.64,1.43h0Z"/>
            <path class="st0" d="M301.33,82.51c.77-.61,1.03-1.61,1.4-2.49s.73-1.69,1.07-2.55c.74-1.89,1.53-3.76,2.37-5.6s1.78-3.69,2.79-5.48c.5-.89,1.02-1.76,1.57-2.62s1.41-1.74,1.03-2.82c-.27-.76-1.68-.75-2.24-.54-1.99.73-3.05,3.26-4.04,5.01-1.07,1.89-2.05,3.84-2.95,5.81-.84,1.84-1.61,3.72-2.35,5.6-.35.9-.64,1.82-.94,2.74s-.77,1.79-.43,2.72c.36.98,2.11.69,2.72.21h0Z"/>
            <path class="st0" d="M291.84,46.31c1.51,3.32,4.81,5.62,7.5,7.94,2.89,2.49,5.82,4.95,8.54,7.64.75.75,2.1.83,3.05.48.75-.27,1.55-1.09.8-1.85-2.71-2.71-5.62-5.18-8.57-7.62-3.04-2.52-5.94-5.29-9.39-7.25-.43-.24-2.36-.28-1.93.66h0Z"/>
          </g>
          <g>
            <path class="st0" d="M130.82,273.84c-.09-.19-.19-.37-.28-.56l-.61,1.39.05-.04.4-.31c.18-.16.28-.35.3-.58.06-.14.06-.28,0-.41-.02-.23-.12-.42-.3-.58-.07-.1-.14-.19-.22-.29-.04-.05-.07-.1-.11-.14-.18-.24-.41-.33-.66-.45-.26-.14-.55-.24-.85-.27-.25-.03-.5-.05-.75-.06l1.64.41c-.33-.25-.76-.35-1.16-.42l-.58-.05c-.29,0-.57.03-.84.11-.17.03-.33.08-.48.17-.21.08-.4.2-.56.37-.19.24-.39.49-.34.81l.32-.71-.07.06c-.18.16-.28.35-.3.57-.07.2-.06.41.04.61.09.16.18.32.28.48l.26.37c.19.2.4.34.65.44.17.1.36.17.56.2.32.1.64.14.98.13h.08c-.68-.24-1.35-.47-2.03-.71.14.17.29.34.43.52.17.17.36.3.58.39.24.13.5.21.77.25l.6.05c.3,0,.59-.03.87-.12.18-.03.35-.09.5-.18.22-.08.42-.21.58-.39l.23-.33c.11-.24.11-.49,0-.73h0Z"/>
            <path class="st0" d="M105.28,184.84s-.03.02-.04.03c-.06.04-.06.06-.12.15-.14.2-.1.12-.16.43,0,.02,0,.04-.01.06l.54-.78-.07.04c-.18.09-.32.22-.41.39-.13.18-.1.11-.15.32-.03.13-.04.12-.03.2v.04c.02.06.03.12.04.18.02.13.04.32.09.4v.02c.08.1.15.2.22.3.01.01.03.03.04.04.02.02.05.05.07.07l.32.24.41.19c.24.09.49.14.75.14.11.02.21.03.32.02l-.91-.15c.32.09.6.17.94.16l.45-.04c.27-.04.51-.13.75-.26.11-.06.2-.15.3-.22l-.63.37.07-.03c.21-.06.4-.17.57-.31.11-.06.2-.15.26-.27.12-.13.18-.28.17-.47,0-.03,0-.06.01-.09,0-.02,0-.03,0-.05l-.07-.33v-.02s-.04-.06-.06-.09c-.04-.06-.07-.11-.11-.17,0-.02-.02-.03-.03-.05-.03-.05-.07-.1-.11-.15-.1-.17-.24-.3-.42-.39h-.02c-.14-.07-.27-.14-.41-.2-.24-.09-.49-.14-.74-.14-.1-.01-.2-.02-.3-.02l1.6.55c-.07-.06-.14-.11-.21-.17-.18-.14-.12-.1-.34-.2-.11-.05-.14-.07-.22-.09-.01,0-.03,0-.04-.01-.13-.04-.28-.08-.42-.11l-.44-.04c-.22,0-.43.02-.64.09-.13.02-.25.06-.37.13-.16.06-.31.15-.43.28h0Z"/>
            <path class="st0" d="M117.69,161.08c.27-.13.43-.33.59-.57l-1.08.64h.08c.27-.05.53-.14.77-.28.2-.11.34-.26.45-.46.03-.12.06-.24.08-.36,0-.03,0-.05,0-.08,0-.11-.03-.21-.05-.31s-.04-.2-.09-.29c-.08-.14-.17-.27-.28-.39l.19.27c-.04-.14-.15-.27-.24-.36-.21-.23-.53-.38-.81-.49-.34-.12-.69-.17-1.05-.17-.36,0-.71.06-1.05.17-.28.09-.53.24-.75.45-.18.17-.27.38-.28.63,0,.06-.02.12-.03.18-.01.2.06.34.16.49.07.12.15.23.22.35s.14.22.22.33c.04.06.07.11.11.17.1.16.2.35.33.47.16.17.35.29.57.37.23.13.48.21.75.24l.59.05c.29,0,.57-.03.85-.11.17-.03.33-.08.49-.17.22-.08.41-.2.57-.37l.22-.32c.1-.24.1-.47,0-.71-.02-.06-.07-.12-.1-.18-.03-.05-.06-.1-.1-.16-.07-.12-.14-.23-.21-.35s-.14-.22-.2-.34c-.02-.03-.03-.05-.05-.08-.17-.28-.31-.47-.61-.64-.07-.04-.14-.08-.21-.11l.33,1.52h0c-.11.08-.22.16-.32.25.01,0,.02-.02.04-.02l-.41.19s.02,0,.03-.01l-.48.12s.03,0,.05,0l-.52.04s.05,0,.07,0l-.5-.04s.02,0,.03,0l-.83-.29s.07.04.11.07l-.29-.22c.06.05.11.1.16.17l-.18-.26c.05.08.09.16.12.26l-.06-.28s0,.04.01.07c0,.21.09.38.24.52.18.17.39.29.63.37l.07.02-.77-.79s0,.02,0,.04l.06-.24s-.03.09-.06.13l.15-.21s-.02.03-.03.04c-.1.09-.16.2-.18.33-.04.12-.04.23.03.35l.15.21c.11.11.24.19.38.25.1.06.21.1.33.11.19.06.38.08.57.08l.4-.03c.23-.04.45-.11.66-.23h0Z"/>
            <path class="st0" d="M248.17,167.14c.03.07.07.14.1.21.06.13.13.25.24.34l.11.1c.13.13.28.23.45.29.18.1.38.16.59.19.23.04.46.05.69.02.22,0,.44-.05.65-.12l.35-.16c.2-.11.34-.26.45-.46l.06-.28c0-.21-.09-.38-.24-.52l-.11-.1c-.1-.09-.2-.19-.33-.25-.02-.01-.05-.02-.07-.03-.1-.05-.2-.09-.3-.14l-.32-.15c-.19-.07-.39-.11-.59-.11-.14-.02-.28-.02-.42,0-.2,0-.4.04-.59.11l-.32.15-.25.19c-.11.09-.17.21-.19.35-.05.12-.04.25.03.37h0Z"/>
            <path class="st0" d="M352.06,150.17c.17.24.33.47.5.71.08.11.15.24.26.34.16.14.31.28.49.4.3.17.62.28.96.34.2.03.4.05.59.05.37,0,.73-.06,1.08-.18.16-.05.31-.12.44-.21.24-.14.43-.33.56-.58.1-.23.1-.47,0-.7-.02-.05-.03-.1-.05-.16-.02-.06-.04-.1-.08-.15-.06-.1-.13-.21-.19-.31-.13-.2-.25-.41-.38-.61-.13-.26-.33-.47-.59-.61l-.46-.22c-.37-.13-.76-.19-1.16-.19-.3,0-.6.03-.88.12-.26.05-.51.14-.74.29-.2.1-.36.25-.47.45-.13.15-.2.33-.2.53.01.27.12.51.31.7h0Z"/>
            <path class="st0" d="M113.41,20.66c.17.24.33.47.5.71.08.11.15.24.26.34.16.14.31.28.49.4.3.17.62.28.96.34.2.03.4.05.59.05.37,0,.73-.06,1.08-.18.16-.05.31-.12.44-.21.24-.14.43-.33.56-.58.1-.23.1-.47,0-.7-.02-.05-.03-.1-.05-.16-.02-.06-.04-.1-.08-.15-.06-.1-.13-.21-.19-.31-.13-.2-.25-.41-.38-.61-.13-.26-.33-.47-.59-.61l-.46-.22c-.37-.13-.76-.19-1.16-.19-.3,0-.6.03-.88.12-.26.05-.51.14-.74.29-.2.1-.36.25-.47.45-.13.15-.2.33-.2.53.01.27.12.51.31.7h0Z"/>
            <path class="st0" d="M131.12,309.53c.17.24.33.47.5.71.08.11.15.24.26.34.16.14.31.28.49.4.3.17.62.28.96.34.2.03.4.05.59.05.37,0,.73-.06,1.08-.18.16-.05.31-.12.44-.21.24-.14.43-.33.56-.58.1-.23.1-.47,0-.7-.02-.05-.03-.1-.05-.16-.02-.06-.04-.1-.08-.15-.06-.1-.13-.21-.19-.31-.13-.2-.25-.41-.38-.61-.13-.26-.33-.47-.59-.61l-.46-.22c-.37-.13-.76-.19-1.16-.19-.3,0-.6.03-.88.12-.26.05-.51.14-.74.29-.2.1-.36.25-.47.45-.13.15-.2.33-.2.53.01.27.12.51.31.7h0Z"/>
            <path class="st0" d="M367.09,169.13c-.04.08-.08.17-.12.25l1.01-.59c-.25.04-.49.12-.72.24-.17.09-.32.25-.41.43-.03.06-.05.11-.08.17-.05.11-.1.21-.15.32s-.09.21-.12.32-.07.23-.1.34c-.07.13-.08.25-.03.38.01.14.08.26.19.35.12.12.26.21.41.27.17.09.35.15.55.17.41.06.85.05,1.24-.1l.32-.15c.18-.1.32-.24.41-.42.04-.1.08-.21.12-.31.02-.05.04-.09.05-.14.05-.12.07-.25.09-.38l.12-.61c0-.14-.04-.25-.13-.35-.07-.13-.18-.22-.32-.29l-.04-.02.42.6.05-.26c0-.13-.04-.23-.12-.32-.07-.12-.17-.21-.29-.27-.25-.14-.52-.21-.81-.23s-.62,0-.9.1c-.25.1-.52.24-.65.5h0Z"/>
            <path class="st0" d="M349.54,189.72c-.59-.34-1.3-.4-1.96-.3l1.33.1c-.45-.17-.97-.2-1.44-.12-.34.06-.53.14-.83.29-.03.01-.06.03-.09.05-.13.09-.25.18-.37.28-.03.02-.05.05-.08.08-.11.13-.22.27-.3.43s-.1.33-.12.49l1.39-1.09c-.25.03-.69.16-.9.31-.18.09-.32.22-.41.39-.12.13-.17.28-.17.46.02.15.05.31.1.45,0,.02.02.04.03.06.07.11.15.22.23.33.03.03.05.07.09.09.13.11.26.23.41.31,0,0,.02,0,.03.01.07.03.14.07.21.1.07.04.14.07.22.1l.48.12s.01,0,.02,0c.01,0,.02,0,.04,0,.18.02.44.06.65.04.38-.02.83-.05,1.18-.21.25-.08.48-.22.67-.4.16-.15.24-.34.25-.56v-.05c-.03.09-.05.18-.07.27.02-.03.03-.06.04-.1.03-.11.07-.24.07-.36l-.05-.24-.15-.22-.24-.18c-.15-.09-.32-.15-.49-.19-.13-.04-.25-.06-.39-.06-.14-.02-.27-.02-.41,0-.13,0-.26.02-.39.06-.17.03-.34.09-.49.19-.03.02-.06.03-.08.05l.32-.15s-.07.03-.11.04l.39-.1s-.07.01-.11.02l.45-.04h-.01c.4.1.8.2,1.2.3-.19-.14-.41-.2-.63-.26-.15-.05-.31-.08-.47-.08-.09,0-.17-.02-.26-.02l.5.04s-.07,0-.11-.02l.46.12s-.07-.02-.1-.03l.4.18s-.07-.04-.1-.06l.31.24c-.11-.09-.21-.19-.33-.26-.14-.08-.29-.14-.43-.2l.41.19s-.08-.04-.12-.07l.31.24s-.08-.07-.11-.12l.2.29c-.04-.05-.06-.11-.08-.17l.07.32c-.01-.06-.03-.12-.04-.19,0-.12-.05-.22-.14-.3-.1-.17-.23-.3-.41-.39h-.01c-.13-.07-.27-.13-.4-.19-.24-.09-.48-.14-.74-.14-.09-.01-.18-.02-.27-.02l1.9,1.13c0-.06,0-.12,0-.17l-.07.3c.02-.08.05-.16.1-.23l-.19.26c.04-.06.09-.11.15-.16l-.29.22s.03-.02.04-.03c.2-.11.36-.27.47-.48.09-.19.09-.38,0-.58v-.02c-.15.33-.3.66-.45,1,.01,0,.03-.02.04-.02l-.35.16s.05-.02.08-.03l-.4.1s.05-.01.08-.01l-.44.04s.05,0,.08,0l-.44-.03s.03,0,.04,0l.43.03c.21,0,.42-.02.63-.08.13-.02.25-.06.36-.12.16-.06.3-.15.42-.27l.16-.23.06-.26c0-.15-.05-.27-.14-.37-.08-.13-.19-.24-.34-.31h0Z"/>
            <path class="st0" d="M298.53,265.07s.04.05.06.08l-.14-.2c.06.08.09.16.12.26l.37-.84-.06.03c-.14.07-.25.17-.33.3-.09.1-.14.22-.14.36,0,.09-.02.18-.02.27s0,.19-.03.28l.06-.26c-.03.12-.08.23-.15.33l.17-.24c-.05.07-.11.13-.17.18l.27-.2s-.03.02-.05.03c-.19.11-.34.25-.44.45l-.06.27c0,.2.09.37.23.51.13.13.27.22.44.28.18.1.37.16.58.18.23.04.45.05.68.02.22,0,.43-.04.63-.12.23-.08.44-.2.61-.36.04-.03.09-.07.12-.12.09-.11.18-.24.26-.36.1-.17.13-.38.17-.57.03-.16,0-.3-.03-.46-.02-.11-.05-.19-.11-.28-.02-.03-.03-.05-.05-.08l-.16-.22-.25-.19c-.16-.1-.33-.16-.51-.19-.08-.03-.17-.05-.26-.05l.87.39c-.05-.06-.1-.12-.15-.17-.12-.1-.25-.21-.4-.28-.3-.15-.63-.24-.97-.24-.29,0-.57.05-.83.17-.18.08-.42.22-.49.42l-.05.21c0,.16.07.3.19.41h0Z"/>
            <path class="st0" d="M247,299.29c.01.15.03.3.04.45,0,.13.04.25.13.34.07.12.18.22.31.29.15.09.31.15.49.18.19.06.38.08.58.08l.4-.03c.24-.04.46-.11.67-.23l.24-.18c.13-.12.2-.27.21-.45.01-.15.03-.3.04-.45,0-.14-.04-.26-.13-.35-.08-.13-.18-.23-.32-.29-.16-.09-.32-.16-.5-.19-.19-.06-.39-.09-.6-.08l-.41.03c-.24.04-.47.11-.68.24l-.24.19c-.13.13-.2.28-.21.46h0Z"/>
            <path class="st0" d="M23.94,145.52c.01.15.03.3.04.45,0,.13.04.25.13.34.07.12.18.22.31.29.15.09.31.15.49.18.19.06.38.08.58.08l.4-.03c.24-.04.46-.11.67-.23l.24-.18c.13-.12.2-.27.21-.45.01-.15.03-.3.04-.45,0-.14-.04-.26-.13-.35-.08-.13-.18-.23-.32-.29-.16-.09-.32-.16-.5-.19-.19-.06-.39-.09-.6-.08l-.41.03c-.24.04-.47.11-.68.24l-.24.19c-.13.13-.2.28-.21.46h0Z"/>
            <path class="st0" d="M128.91,17.45l.02.23v.11c.02.11.02.24.08.34l.15.21c.11.11.24.2.39.25.1.06.21.1.33.11.19.06.38.08.58.08l.4-.03.36-.09c.16-.05.3-.12.42-.23.12-.07.21-.17.27-.3.05-.1.06-.23.07-.34v-.11c.02-.08.02-.15.03-.23,0-.14-.04-.26-.13-.35-.08-.13-.18-.23-.32-.29-.16-.09-.32-.16-.5-.19-.19-.06-.39-.09-.6-.08l-.41.03c-.24.04-.47.11-.68.24l-.24.19c-.13.13-.2.28-.21.46h0Z"/>
            <path class="st0" d="M192.84,33.99s.09,0,.14,0l-.33-.03s.05,0,.08,0l-.92-.71v.12c-.03.51.54.83.93.98.05.02.11.04.16.06l-.38-.18c.14.06.27.14.39.23l-.3-.23c.15.12.28.25.39.4l-.19-.27c.06.09.11.17.16.27.16.34.54.56.87.68.23.08.46.13.71.13.25.03.5.03.76-.02l.45-.11c.26-.08.49-.22.68-.41l.19-.27c.09-.2.09-.4,0-.6-.1-.21-.24-.4-.38-.58-.08-.1-.17-.2-.27-.29-.4-.35-.81-.59-1.31-.78-.23-.08-.46-.13-.71-.13-.25-.03-.5-.03-.76.02-.41.08-.84.21-1.13.52l-.08.09.75-.34c-.07,0-.14.02-.21.04-.24.06-.55.13-.73.33l-.12.17c-.05.09-.06.19-.02.28.04.18.17.32.33.41.26.14.56.21.86.21h0Z"/>
            <path class="st0" d="M243.12,48.94v.28c.04,1.15,1.88,1.25,2.65,1.04.95-.25,1.67-1.16.61-1.85l-.22-.14c-.6-.39-1.67-.39-2.27,0l-.22.14c-1.06.69-.34,1.6.61,1.85.78.2,2.61.11,2.65-1.04v-.28c.05-1.56-3.87-1.57-3.83,0h0Z"/>
            <path class="st0" d="M23.56,188.9v.28c.04,1.15,1.88,1.25,2.65,1.04.95-.25,1.67-1.16.61-1.85l-.22-.14c-.6-.39-1.67-.39-2.27,0l-.22.14c-1.06.69-.34,1.6.61,1.85.78.2,2.61.11,2.65-1.04v-.28c.05-1.56-3.87-1.57-3.83,0h0Z"/>
            <path class="st0" d="M204.57,56.79c.49,0,1.45-.2,1.45-.85s-.97-.85-1.45-.85-1.45.2-1.45.85.97.85,1.45.85h0Z"/>
            <path class="st0" d="M29.66,201.96c.49,0,1.45-.2,1.45-.85s-.97-.85-1.45-.85-1.45.2-1.45.85.97.85,1.45.85h0Z"/>
          </g>
          <path class="st0" d="M274.62,126.87c-.17-.74-.16-1.46-.63-2.07s-1-1.28-1.48-1.94c-.98-1.35-1.86-2.77-2.68-4.22-1.62-2.84-2.99-5.8-4.07-8.89-2.18-6.29-3.11-12.98-2.77-19.63.64-12.22,6.06-24.68,14.99-33.14,8.34-7.9,20.16-11.3,31.25-8.82,5.98,1.33,11.78,4.53,16.7,8.23,1.82,1.36,3.63,2.95,5.29,4.77,1.88,2.05,3.32,4.43,4.6,6.89,3.28,6.32,4.95,13.26,4.95,20.37s-1.68,13.75-4.28,20.19c-.64,1.59-1.31,3.14-1.87,4.77s1.15,2.48,2.44,2.71c1.6.28,3.4-.12,4.31-1.54,1.99-3.13,3.2-6.76,4.22-10.32s1.61-7.22,1.96-10.89c.72-7.44-.26-15.07-2.98-22.04-2.3-5.89-5.67-11.25-10.45-15.41-5.14-4.47-11.13-8.13-17.64-10.2-12.67-4.03-27.9-1.91-38.72,5.97-10.41,7.58-17.25,20.06-19.3,32.66-2.23,13.78,1.26,28.54,9.7,39.69.53.7,1.07,1.42,1.66,2.07.67.74,1.67,1.09,2.55,1.55.63.32,2.49.37,2.23-.76h0Z"/>
        </g>
        <g>
          <path class="st0" d="M141.56,121.34s-11.17-30.59,9.65-60.15l7.74,23.07-13.69,11.67,16.39,7.54s-3.74,15.18-7.97,17.83c0,0-9.49-1.09-12.12.04Z"/>
          <path class="st0" d="M292.95,46.13s-11.29,30.11,10.78,66.25l10.82-2.24s4.22-19.5,1.84-24.93l-16.34-3.14s7.47-18.69,9.97-20.64l-17.06-15.3Z"/>
          <path class="st0" d="M161.65,191.56s-20.45,25.19-2.7,60.79c16.5,33.08,55.81,36.13,73.53,35.17,0,0,53.23-3.98,71.62-56.26,0,0,11.8-24.43.45-50.19,0,0-12.93,25.36-36.35,35.29,0,0,.31,20.75-1.52,22.74l-26.37,7.06-3.07-20.82s-22.96,1.16-33.36-2.99l-.98,23.2-25.36-6.83-.07-30.66s-11.98-9.07-15.82-16.49Z"/>
          <path class="st0" d="M111.16,37.87s-23.05.31-36.66,17.06-18.28,21.31-28.37,43.16c-10.1,21.85-10.4,41.96-11.18,59.09-.78,17.13,4.78,36.33,4.23,50.38-.54,14.05,3.72,28.11,14.62,40.44,10.9,12.34,11.01,21.64,23.49,31.42,12.47,9.78,42.47,33.97,54.11,21.92l-17.33-10.88s-23.07-11.98-40.57-39.1c0,0-39.53-50.63-19.78-126.34,0,0,11.14-37.69,36.77-64.98,0,0,11.69-12.56,19.68-18.68l.98-3.5Z"/>
        </g>
      </g>
    </symbol>
  </defs>
  <path class="st0" d="M46.84,155.39c-7.5,0-14.17-.43-19.98-1.29s-10.72-2.19-14.69-4.01c-3.98-1.81-7-4.15-9.06-7.01-2.07-2.86-3.1-6.26-3.1-10.21,0-1.53.38-2.62,1.14-3.29s1.7-1.18,2.81-1.53c1.11-.35,2.32-.68,3.62-1,1.3-.32,2.51-.87,3.62-1.67,1.11-.79,2.05-1.96,2.81-3.48s1.14-3.72,1.14-6.58V43.4c0-2.8-.38-4.97-1.14-6.53-.76-1.56-1.7-2.73-2.81-3.53-1.11-.79-2.32-1.35-3.62-1.67-1.3-.32-2.51-.65-3.62-1-1.11-.35-2.05-.86-2.81-1.53s-1.14-1.76-1.14-3.29c0-3.94,1.03-7.33,3.1-10.16,2.07-2.83,5.09-5.15,9.06-6.96,3.97-1.81,8.87-3.15,14.69-4.01,5.82-.86,12.48-1.29,19.98-1.29h50.84c10.62,0,19.73.56,27.33,1.67,7.6,1.11,13.97,2.62,19.13,4.53s9.27,4.17,12.35,6.77c3.08,2.61,5.44,5.42,7.06,8.44,1.62,3.02,2.67,6.17,3.15,9.44.48,3.28.72,6.53.72,9.78,0,3.75-.48,7.06-1.43,9.92s-2.26,5.38-3.91,7.54c-1.65,2.16-3.58,3.99-5.77,5.48-2.19,1.5-4.52,2.74-6.96,3.72-2.45.99-4.98,1.73-7.58,2.24-2.61.51-5.12.83-7.54.95,4.51.32,9.01,1.14,13.5,2.48s8.52,3.45,12.11,6.34c3.59,2.9,6.5,6.71,8.73,11.45,2.22,4.74,3.34,10.67,3.34,17.79,0,3.94-.54,7.76-1.62,11.45-1.08,3.69-2.88,7.14-5.39,10.35-2.51,3.21-5.82,6.14-9.92,8.78-4.1,2.64-9.17,4.91-15.21,6.82-6.04,1.91-13.15,3.39-21.32,4.44-8.17,1.05-17.57,1.57-28.19,1.57h-43.4ZM94.15,69.83c2.8,0,5.07-.52,6.82-1.57,1.75-1.05,3.1-2.56,4.05-4.53.95-1.97,1.59-4.37,1.91-7.2.32-2.83.48-6.02.48-9.59,0-3.82-.24-7.26-.72-10.35-.48-3.08-1.35-5.69-2.62-7.82-1.27-2.13-2.99-3.77-5.15-4.91-2.16-1.14-4.93-1.72-8.3-1.72-2.67,0-4.75.49-6.25,1.48-1.5.99-2.59,2.29-3.29,3.91-.7,1.62-1.11,3.52-1.24,5.68-.13,2.16-.19,4.42-.19,6.77v28.9c.32.19,1.05.35,2.19.48.95.13,2.38.24,4.29.33s4.58.14,8.01.14ZM94.15,85.66c-3.43,0-6.1.05-8.01.14s-3.34.21-4.29.33c-1.14.19-1.88.35-2.19.48v28.9c0,2.35.06,4.61.19,6.77.13,2.16.54,4.05,1.24,5.68.7,1.62,1.8,2.93,3.29,3.91,1.49.99,3.58,1.48,6.25,1.48,3.37,0,6.14-.57,8.3-1.72,2.16-1.14,3.88-2.78,5.15-4.91,1.27-2.13,2.15-4.74,2.62-7.82.48-3.08.72-6.57.72-10.45,0-3.56-.16-6.76-.48-9.59-.32-2.83-.95-5.21-1.91-7.15-.95-1.94-2.31-3.43-4.05-4.48-1.75-1.05-4.02-1.57-6.82-1.57Z"/>
  <path class="st0" d="M478.39,121.05c0,2.93.36,5.28,1.1,7.06.73,1.78,1.65,3.16,2.77,4.15,1.11.99,2.34,1.65,3.67,2,1.34.35,2.58.52,3.72.52.13,0,.29-.01.48-.05.19-.03.59-.06,1.19-.1.6-.03,1.49-.11,2.67-.24,1.18-.13,2.81-.29,4.91-.48l3.91-16.6c1.08-3.62,2.38-6.69,3.91-9.21,1.53-2.51,3.2-4.55,5.01-6.1,1.81-1.56,3.72-2.69,5.72-3.39,2-.7,4.02-1.05,6.06-1.05,2.42,0,4.64.4,6.68,1.19,2.03.8,3.78,1.94,5.25,3.43,1.46,1.5,2.61,3.32,3.43,5.48.83,2.16,1.24,4.58,1.24,7.25s-.26,5.44-.76,8.49c-.51,3.05-1.3,6.07-2.38,9.06-1.08,2.99-2.42,5.87-4.01,8.63-1.59,2.77-3.45,5.2-5.58,7.3-2.13,2.1-4.55,3.78-7.25,5.06-2.7,1.27-5.68,1.91-8.92,1.91h-65.25c-7.5,0-14.17-.43-19.98-1.29-5.82-.86-10.72-2.19-14.69-4.01-3.98-1.81-7-4.15-9.06-7.01-2.07-2.86-3.1-6.26-3.1-10.21,0-1.53.38-2.62,1.14-3.29s1.7-1.18,2.81-1.53c1.11-.35,2.32-.68,3.62-1,1.3-.32,2.51-.87,3.62-1.67,1.11-.79,2.05-1.96,2.81-3.48s1.14-3.72,1.14-6.58V43.4c0-2.8-.38-4.97-1.14-6.53-.76-1.56-1.7-2.73-2.81-3.53-1.11-.79-2.32-1.35-3.62-1.67-1.3-.32-2.51-.65-3.62-1-1.11-.35-2.05-.86-2.81-1.53s-1.14-1.76-1.14-3.29c0-3.94,1.03-7.33,3.1-10.16,2.07-2.83,5.09-5.15,9.06-6.96,3.97-1.81,8.87-3.15,14.69-4.01,5.82-.86,12.48-1.29,19.98-1.29s14.63.43,20.6,1.29c5.98.86,10.98,2.19,15.02,4.01,4.04,1.81,7.09,4.14,9.16,6.96,2.07,2.83,3.1,6.22,3.1,10.16,0,1.53-.38,2.62-1.14,3.29s-1.7,1.18-2.81,1.53c-1.11.35-2.34.68-3.67,1-1.34.32-2.56.88-3.67,1.67-1.11.8-2.05,1.97-2.81,3.53-.76,1.56-1.14,3.74-1.14,6.53l-.19,77.65Z"/>
  <path class="st0" d="M594.32,155.39c-4.71,0-8.84-.6-12.4-1.81-3.56-1.21-6.53-2.84-8.92-4.91-2.38-2.07-4.18-4.45-5.39-7.15-1.21-2.7-1.81-5.58-1.81-8.63,0-1.53.35-2.62,1.05-3.29s1.62-1.19,2.77-1.57,2.43-.73,3.86-1.05c1.43-.32,2.88-.89,4.34-1.72,1.46-.83,2.86-2.02,4.2-3.58,1.34-1.56,2.48-3.8,3.43-6.72l23.47-71.54c.44-1.34.78-2.51,1-3.53.22-1.02.33-1.91.33-2.67,0-1.97-.54-3.31-1.62-4.01-1.08-.7-2.27-1.24-3.58-1.62-1.3-.38-2.5-.84-3.58-1.38-1.08-.54-1.62-1.64-1.62-3.29,0-.44.03-.79.1-1.05.63-4.39,2.38-8.03,5.25-10.92,2.86-2.89,6.66-5.18,11.4-6.87,4.74-1.68,10.32-2.88,16.74-3.58,6.42-.7,13.51-1.05,21.27-1.05,6.55,0,12.83.24,18.84.72s11.43,1.51,16.26,3.1c4.83,1.59,8.87,3.85,12.11,6.77,3.24,2.93,5.37,6.87,6.39,11.83.13.64.19,1.08.19,1.34,0,1.08-.3,1.89-.91,2.43-.61.54-1.35.97-2.24,1.29-.89.32-1.85.59-2.86.81-1.02.22-1.97.56-2.86,1-.89.45-1.64,1.1-2.24,1.96-.61.86-.91,2.05-.91,3.58,0,1.34.29,3.05.86,5.15l21.08,71.54c.83,2.86,1.87,5.09,3.15,6.68,1.27,1.59,2.62,2.8,4.05,3.62,1.43.83,2.86,1.4,4.29,1.72,1.43.32,2.72.67,3.86,1.05s2.07.91,2.77,1.57c.7.67,1.05,1.76,1.05,3.29,0,7.95-4.1,13.69-12.31,17.22s-20.06,5.29-35.58,5.29c-7.5,0-14.17-.43-19.98-1.29-5.82-.86-10.73-2.19-14.74-4.01s-7.04-4.15-9.11-7.01c-2.07-2.86-3.1-6.26-3.1-10.21,0-1.34.3-2.34.91-3,.6-.67,1.35-1.18,2.24-1.53.89-.35,1.87-.65,2.96-.91,1.08-.25,2.07-.62,2.96-1.1.89-.48,1.64-1.18,2.24-2.1.6-.92.91-2.24.91-3.96,0-1.46-.22-3.11-.67-4.96l-1.53-6.58h-38.73l-2.29,6.58c-.83,2.42-1.24,4.39-1.24,5.91s.3,2.59.91,3.39c.6.8,1.35,1.4,2.24,1.81.89.41,1.87.75,2.96,1,1.08.26,2.07.56,2.96.91.89.35,1.64.88,2.24,1.57.6.7.91,1.69.91,2.96,0,3.05-.61,5.93-1.81,8.63-1.21,2.7-3,5.09-5.39,7.15-2.38,2.07-5.34,3.71-8.87,4.91-3.53,1.21-7.62,1.81-12.26,1.81ZM618.93,94.25h29.86l-14.69-55.52-15.17,55.52Z"/>
  <path class="st0" d="M76.79,353.13c-8.33,0-15.99-.94-22.99-2.81-7-1.87-13.34-4.5-19.03-7.87-5.69-3.37-10.7-7.38-15.02-12.02-4.33-4.64-7.95-9.73-10.87-15.26-2.93-5.53-5.14-11.4-6.63-17.6-1.5-6.2-2.24-12.57-2.24-19.13,0-7.5.63-14.74,1.91-21.7,1.27-6.96,3.31-13.5,6.1-19.6,2.8-6.1,6.42-11.67,10.87-16.69,4.45-5.02,9.86-9.33,16.22-12.93,6.36-3.59,13.72-6.37,22.08-8.35,8.36-1.97,17.89-2.96,28.57-2.96,7.06,0,13.77.95,20.13,2.86,6.36,1.91,11.94,4.63,16.74,8.16,4.8,3.53,8.62,7.82,11.45,12.88,2.83,5.06,4.24,10.7,4.24,16.93,0,2.54-.4,4.83-1.19,6.87-.8,2.04-1.91,3.75-3.34,5.15-1.43,1.4-3.12,2.48-5.06,3.24-1.94.76-4.02,1.14-6.25,1.14-1.97,0-3.94-.32-5.91-.95-1.97-.63-3.85-1.7-5.63-3.2-1.78-1.49-3.39-3.43-4.82-5.82s-2.56-5.33-3.39-8.82c-1.14-4.96-3.09-8.73-5.82-11.3-2.74-2.58-5.66-3.86-8.78-3.86-2.35,0-4.69.73-7.01,2.19-2.32,1.46-4.39,3.71-6.2,6.72-1.81,3.02-3.29,6.85-4.44,11.49-1.14,4.64-1.72,10.14-1.72,16.5,0,8.39.48,15.69,1.43,21.89s2.27,11.49,3.96,15.88c1.68,4.39,3.66,7.98,5.91,10.78,2.26,2.8,4.69,4.99,7.3,6.58,2.61,1.59,5.31,2.69,8.11,3.29,2.8.61,5.6.91,8.39.91s5.66-.33,8.39-1c2.73-.67,5.23-1.49,7.49-2.48,2.26-.98,4.2-2.03,5.82-3.15,1.62-1.11,2.81-2.15,3.58-3.1.95-1.27,1.99-2.21,3.1-2.81,1.11-.6,2.15-.91,3.1-.91,1.78,0,3.31.92,4.58,2.77,1.27,1.85,1.91,4.39,1.91,7.63,0,5.09-1.57,10.05-4.72,14.88-3.15,4.83-7.58,9.14-13.31,12.93-5.72,3.78-12.58,6.84-20.56,9.16-7.98,2.32-16.81,3.48-26.47,3.48Z"/>
  <path class="st0" d="M292.87,281.21h-43.02v29.09c0,2.86.4,5.09,1.19,6.68.79,1.59,1.76,2.8,2.91,3.62,1.14.83,2.38,1.4,3.72,1.72,1.34.32,2.56.67,3.67,1.05,1.11.38,2.05.91,2.81,1.57s1.14,1.76,1.14,3.29c0,7.95-4.1,13.69-12.31,17.22-8.2,3.53-20.06,5.29-35.58,5.29-7.5,0-14.17-.43-19.98-1.29-5.82-.86-10.72-2.19-14.69-4.01-3.98-1.81-7-4.15-9.06-7.01-2.07-2.86-3.1-6.26-3.1-10.21,0-1.53.38-2.62,1.14-3.29s1.7-1.18,2.81-1.53c1.11-.35,2.32-.68,3.62-1,1.3-.32,2.51-.87,3.62-1.67,1.11-.79,2.05-1.96,2.81-3.48s1.14-3.72,1.14-6.58v-71.92c0-2.8-.38-4.97-1.14-6.53-.76-1.56-1.7-2.73-2.81-3.53-1.11-.79-2.32-1.35-3.62-1.67-1.3-.32-2.51-.65-3.62-1-1.11-.35-2.05-.86-2.81-1.53s-1.14-1.76-1.14-3.29c0-3.94,1.03-7.33,3.1-10.16,2.07-2.83,5.09-5.15,9.06-6.96,3.97-1.81,8.87-3.15,14.69-4.01s12.48-1.29,19.98-1.29,14.63.43,20.6,1.29c5.98.86,10.98,2.19,15.02,4.01,4.04,1.81,7.09,4.14,9.16,6.96,2.07,2.83,3.1,6.22,3.1,10.16,0,1.53-.38,2.62-1.14,3.29s-1.7,1.18-2.81,1.53c-1.11.35-2.34.68-3.67,1-1.34.32-2.56.88-3.67,1.67-1.11.8-2.05,1.97-2.81,3.53-.76,1.56-1.14,3.74-1.14,6.53v24.04h42.83v-24.04c0-2.8-.38-4.97-1.14-6.53-.76-1.56-1.7-2.73-2.81-3.53-1.11-.79-2.34-1.35-3.67-1.67-1.34-.32-2.56-.65-3.67-1-1.11-.35-2.05-.86-2.81-1.53s-1.14-1.76-1.14-3.29c0-7.88,4.09-13.59,12.26-17.12,8.17-3.53,20.05-5.29,35.63-5.29s27.06,1.76,35.2,5.29c8.14,3.53,12.21,9.24,12.21,17.12,0,1.53-.4,2.62-1.19,3.29-.8.67-1.78,1.18-2.96,1.53-1.18.35-2.47.68-3.86,1-1.4.32-2.69.88-3.86,1.67-1.18.8-2.16,1.97-2.96,3.53-.8,1.56-1.19,3.74-1.19,6.53v71.54c0,2.86.4,5.09,1.19,6.68.79,1.59,1.78,2.8,2.96,3.62,1.18.83,2.46,1.4,3.86,1.72,1.4.32,2.69.67,3.86,1.05,1.18.38,2.16.91,2.96,1.57.79.67,1.19,1.76,1.19,3.29,0,3.94-1.03,7.34-3.1,10.21-2.07,2.86-5.1,5.2-9.11,7.01s-8.97,3.15-14.88,4.01c-5.91.86-12.69,1.29-20.32,1.29s-14.63-.43-20.6-1.29c-5.98-.86-10.99-2.19-15.02-4.01-4.04-1.81-7.09-4.15-9.16-7.01-2.07-2.86-3.1-6.26-3.1-10.21,0-1.53.38-2.62,1.14-3.29s1.7-1.19,2.81-1.57c1.11-.38,2.34-.73,3.67-1.05,1.34-.32,2.56-.89,3.67-1.72,1.11-.83,2.05-2.02,2.81-3.58.76-1.56,1.14-3.8,1.14-6.72v-29.09Z"/>
  <path class="st0" d="M429.83,350.75c-4.71,0-8.84-.6-12.4-1.81-3.56-1.21-6.53-2.84-8.92-4.91-2.38-2.07-4.18-4.45-5.39-7.15-1.21-2.7-1.81-5.58-1.81-8.63,0-1.53.35-2.62,1.05-3.29s1.62-1.19,2.77-1.57,2.43-.73,3.86-1.05c1.43-.32,2.88-.89,4.34-1.72,1.46-.83,2.86-2.02,4.2-3.58,1.34-1.56,2.48-3.8,3.43-6.72l23.47-71.54c.44-1.34.78-2.51,1-3.53.22-1.02.33-1.91.33-2.67,0-1.97-.54-3.31-1.62-4.01-1.08-.7-2.27-1.24-3.58-1.62-1.3-.38-2.5-.84-3.58-1.38-1.08-.54-1.62-1.64-1.62-3.29,0-.44.03-.79.1-1.05.63-4.39,2.38-8.03,5.25-10.92,2.86-2.89,6.66-5.18,11.4-6.87,4.74-1.68,10.32-2.88,16.74-3.58,6.42-.7,13.51-1.05,21.27-1.05,6.55,0,12.83.24,18.84.72s11.43,1.51,16.26,3.1c4.83,1.59,8.87,3.85,12.11,6.77,3.24,2.93,5.37,6.87,6.39,11.83.13.64.19,1.08.19,1.34,0,1.08-.3,1.89-.91,2.43-.61.54-1.35.97-2.24,1.29-.89.32-1.85.59-2.86.81-1.02.22-1.97.56-2.86,1-.89.45-1.64,1.1-2.24,1.96-.61.86-.91,2.05-.91,3.58,0,1.34.29,3.05.86,5.15l21.08,71.54c.83,2.86,1.87,5.09,3.15,6.68,1.27,1.59,2.62,2.8,4.05,3.62,1.43.83,2.86,1.4,4.29,1.72,1.43.32,2.72.67,3.86,1.05s2.07.91,2.77,1.57c.7.67,1.05,1.76,1.05,3.29,0,7.95-4.1,13.69-12.31,17.22-8.2,3.53-20.06,5.29-35.58,5.29-7.5,0-14.17-.43-19.98-1.29-5.82-.86-10.73-2.19-14.74-4.01s-7.04-4.15-9.11-7.01c-2.07-2.86-3.1-6.26-3.1-10.21,0-1.34.3-2.34.91-3,.6-.67,1.35-1.18,2.24-1.53.89-.35,1.87-.65,2.96-.91,1.08-.25,2.07-.62,2.96-1.1.89-.48,1.64-1.18,2.24-2.1.6-.92.91-2.24.91-3.96,0-1.46-.22-3.11-.67-4.96l-1.53-6.58h-38.73l-2.29,6.58c-.83,2.42-1.24,4.39-1.24,5.91s.3,2.59.91,3.39c.6.8,1.35,1.4,2.24,1.81.89.41,1.87.75,2.96,1,1.08.26,2.07.56,2.96.91.89.35,1.64.88,2.24,1.57.6.7.91,1.69.91,2.96,0,3.05-.61,5.93-1.81,8.63-1.21,2.7-3,5.09-5.39,7.15-2.38,2.07-5.34,3.71-8.87,4.91-3.53,1.21-7.62,1.81-12.26,1.81ZM454.44,289.6h29.86l-14.69-55.52-15.17,55.52Z"/>
  <path class="st0" d="M689.44,226.93c0-1.78-1.61-3.4-4.82-4.86-3.21-1.46-8.12-2.19-14.74-2.19-4.58,0-8.2.32-10.87.95-2.67.64-4.69,1.48-6.06,2.53-1.37,1.05-2.24,2.23-2.62,3.53-.38,1.3-.57,2.62-.57,3.96,0,2.74,1.29,5.14,3.86,7.2,2.58,2.07,5.98,4.02,10.21,5.87,4.23,1.85,9.05,3.69,14.45,5.53,5.4,1.85,10.94,3.9,16.6,6.15,5.66,2.26,11.19,4.85,16.6,7.77,5.4,2.93,10.22,6.36,14.45,10.3,4.23,3.94,7.63,8.55,10.21,13.83,2.58,5.28,3.86,11.38,3.86,18.31,0,8.9-1.72,16.38-5.15,22.42-3.43,6.04-8.22,10.91-14.36,14.59-6.14,3.69-13.42,6.33-21.84,7.92-8.43,1.59-17.63,2.38-27.62,2.38-5.85,0-11.67-.45-17.46-1.34-5.79-.89-11.29-2.18-16.5-3.86-5.22-1.68-10.06-3.75-14.55-6.2-4.48-2.45-8.36-5.21-11.64-8.3-3.28-3.08-5.85-6.49-7.73-10.21-1.88-3.72-2.81-7.71-2.81-11.97,0-3.24.51-6.07,1.53-8.49,1.02-2.42,2.37-4.4,4.05-5.96,1.68-1.56,3.61-2.72,5.77-3.48,2.16-.76,4.42-1.14,6.77-1.14,2.86,0,5.72.54,8.58,1.62,2.86,1.08,5.44,2.67,7.73,4.77s4.15,4.67,5.58,7.73,2.15,6.55,2.15,10.49c0,.95.46,1.97,1.38,3.05.92,1.08,2.26,2.08,4.01,3,1.75.92,3.93,1.7,6.53,2.34,2.61.64,5.6.95,8.97.95,4.71,0,8.46-.3,11.26-.91,2.8-.6,4.94-1.41,6.44-2.43,1.49-1.02,2.46-2.16,2.91-3.43.44-1.27.67-2.54.67-3.82,0-1.59-1.18-2.99-3.53-4.2-2.35-1.21-5.44-2.43-9.25-3.67s-8.19-2.56-13.12-3.96c-4.93-1.4-9.94-3.07-15.02-5.01-5.09-1.94-10.1-4.24-15.02-6.92-4.93-2.67-9.3-5.9-13.12-9.68-3.82-3.78-6.9-8.2-9.25-13.26-2.35-5.06-3.53-10.95-3.53-17.69s.81-12.65,2.43-17.93c1.62-5.28,3.91-9.95,6.87-14.02,2.96-4.07,6.5-7.55,10.64-10.45,4.13-2.89,8.73-5.28,13.78-7.15,5.06-1.87,10.49-3.24,16.31-4.1,5.82-.86,11.88-1.29,18.17-1.29,11.26,0,20.84,1.13,28.76,3.39,7.92,2.26,14.36,5.17,19.32,8.73,4.96,3.56,8.57,7.52,10.83,11.88,2.26,4.36,3.39,8.6,3.39,12.73,0,3.75-.8,7-2.38,9.73-1.59,2.74-3.66,4.99-6.2,6.77-2.54,1.78-5.44,3.09-8.68,3.91-3.24.83-6.52,1.24-9.83,1.24s-6.28-.35-9.3-1.05c-3.02-.7-5.69-1.75-8.01-3.15-2.32-1.4-4.2-3.1-5.63-5.1s-2.15-4.31-2.15-6.92c0-1.91.43-3.34,1.29-4.29s1.81-1.75,2.86-2.38c1.05-.63,2-1.27,2.86-1.91.86-.63,1.29-1.59,1.29-2.86Z"/>
  <use width="393.86" height="323.97" transform="translate(191.55 0) scale(.48)" xlink:href="#BOLACHINHA"/>
</svg>