<?xml version="1.0" encoding="UTF-8"?>
<svg id="a" data-name="Camada 1" xmlns="http://www.w3.org/2000/svg" viewBox="0 0 703.46 507.14">
  <path d="M533.41,264.71c-11.99-9.66-25.47-16.71-40.43-21.17-14.96-4.46-29.98-7.21-45.05-8.28,8.06-.42,16.44-1.48,25.15-3.18,8.7-1.7,17.14-4.19,25.31-7.48,8.17-3.29,15.92-7.43,23.24-12.42,7.32-4.99,13.74-11.09,19.26-18.31,5.52-7.21,9.87-15.6,13.05-25.15.64-1.93,1.21-3.92,1.72-5.97.37-1.48-.39-3.04-1.78-3.67-18.01-8.18-30.53-26.31-30.53-47.38,0-.03,0-.07,0-.1-1.03.06-2.07.1-3.11.1-28.74,0-52.03-23.3-52.03-52.03,0-1.38.07-2.74.18-4.1-.06,0-.12,0-.18,0-27.25,0-49.6-20.95-51.84-47.63-.13-1.49-1.28-2.69-2.76-2.89-24.63-3.37-53.82-5.07-87.6-5.07h-169.68c-25.05,0-47.28,1.43-66.7,4.3-19.42,2.87-35.77,7.32-49.03,13.37-13.27,6.05-23.35,13.8-30.24,23.24C3.45,50.35,0,61.66,0,74.81c0,5.09,1.27,8.75,3.82,10.98,2.55,2.23,5.68,3.93,9.39,5.09,3.71,1.17,7.75,2.28,12.1,3.34,4.35,1.06,8.38,2.92,12.1,5.57,3.71,2.65,6.84,6.58,9.39,11.78,2.55,5.2,3.82,12.47,3.82,21.81v240.04c0,9.55-1.27,16.87-3.82,21.97-2.55,5.09-5.68,8.97-9.39,11.62-3.72,2.66-7.75,4.51-12.1,5.57-4.35,1.06-8.39,2.18-12.1,3.34-3.72,1.17-6.84,2.87-9.39,5.09-2.55,2.23-3.82,5.89-3.82,10.98,0,13.16,3.45,24.51,10.35,34.06,6.89,9.55,16.98,17.35,30.24,23.4,13.26,6.05,29.61,10.51,49.03,13.37,19.42,2.87,41.65,4.3,66.7,4.3h144.85c35.44,0,66.8-1.75,94.07-5.25,27.27-3.5,50.99-8.44,71.15-14.8,20.16-6.37,37.09-13.95,50.78-22.76,13.69-8.81,24.72-18.57,33.11-29.29,8.38-10.72,14.38-22.23,17.99-34.54,3.61-12.31,5.41-25.04,5.41-38.2,0-23.77-3.72-43.56-11.14-59.37-7.43-15.81-17.14-28.54-29.13-38.2ZM356.08,385.37c-1.59,10.3-4.51,19-8.75,26.11-4.25,7.11-9.98,12.57-17.19,16.4-7.22,3.82-16.45,5.73-27.7,5.73-8.91,0-15.87-1.64-20.85-4.93-4.99-3.29-8.65-7.64-10.98-13.05-2.34-5.41-3.72-11.73-4.14-18.94-.43-7.21-.64-14.75-.64-22.6v-96.46c1.06-.42,3.5-.96,7.32-1.59,3.18-.42,7.96-.8,14.33-1.11,6.37-.32,15.28-.48,26.74-.48,9.34,0,16.92,1.75,22.76,5.25,5.84,3.5,10.35,8.49,13.53,14.96,3.18,6.48,5.3,14.43,6.37,23.88,1.06,9.45,1.59,20.11,1.59,31.99,0,12.95-.8,24.57-2.39,34.86ZM356.88,177.17c-1.06,9.45-3.18,17.46-6.37,24.04-3.18,6.58-7.69,11.62-13.53,15.12-5.84,3.5-13.43,5.25-22.76,5.25-11.46,0-20.37-.16-26.74-.48-6.37-.32-11.14-.69-14.33-1.11-3.82-.42-6.26-.96-7.32-1.59v-96.46c0-7.85.21-15.39.64-22.6.42-7.21,1.8-13.53,4.14-18.94,2.33-5.41,5.99-9.76,10.98-13.05,4.98-3.29,11.94-4.93,20.85-4.93,11.25,0,20.48,1.91,27.7,5.73,7.21,3.82,12.94,9.29,17.19,16.4,4.24,7.11,7.16,15.81,8.75,26.11,1.59,10.3,2.39,21.81,2.39,34.54,0,11.89-.53,22.55-1.59,31.99Z" fill="#f59835"/>
  <path d="M648.77,471.22c-1.04,2.79-2.16,5.62-3.35,8.49-1.01,2.46-2.15,5.16-3.44,8.1-1.28,2.94-2.58,5.75-3.88,8.43-.78,1.56-1.6,3.01-2.46,4.33-.86,1.32-1.81,2.47-2.85,3.44-1.04.97-2.17,1.73-3.38,2.29-1.21.56-2.54.84-3.99.84-1.34,0-2.74-.26-4.19-.78-1.45-.52-2.89-1.23-4.3-2.12-1.42-.89-2.76-1.92-4.02-3.07s-2.38-2.35-3.35-3.58c-.97-1.23-1.73-2.48-2.29-3.74-.56-1.27-.84-2.44-.84-3.52,0-2.2.68-4.34,2.04-6.42,1.36-2.09,3.08-4.02,5.17-5.81,1.38-1.15,2.82-2.39,4.33-3.71,1.51-1.32,2.99-2.63,4.44-3.94,1.45-1.3,2.85-2.55,4.19-3.74,1.34-1.19,2.51-2.25,3.52-3.18,1.01-.93,1.81-1.67,2.4-2.21.59-.54.89-.83.89-.87-2.76-.22-5.57-.5-8.43-.84-2.46-.26-5.15-.57-8.07-.92-2.92-.35-5.76-.73-8.52-1.15-2.09-.3-4.02-.73-5.81-1.31-1.79-.58-3.35-1.36-4.69-2.35-1.34-.99-2.39-2.21-3.16-3.66-.76-1.45-1.15-3.18-1.15-5.2,0-1.19.13-2.49.39-3.88.26-1.4.67-2.93,1.23-4.61,1.42-4.1,3.19-7.05,5.34-8.85,2.14-1.81,4.44-2.71,6.9-2.71,1.08,0,2.35.21,3.83.64,1.47.43,3.02.99,4.66,1.68,1.64.69,3.33,1.47,5.08,2.35,1.75.88,3.46,1.76,5.14,2.65,3.91,2.12,7.97,4.54,12.18,7.26-.52-2.94-1.04-5.92-1.56-8.94-.22-1.27-.47-2.62-.73-4.05-.26-1.43-.53-2.87-.81-4.3-.28-1.43-.57-2.86-.87-4.27-.3-1.42-.58-2.77-.84-4.08-.22-1.04-.41-2.09-.56-3.16-.15-1.06-.22-2.07-.22-3.04,0-1.79.26-3.46.78-5.03.52-1.56,1.4-2.92,2.63-4.08,1.23-1.15,2.85-2.06,4.86-2.71,2.01-.65,4.5-.98,7.49-.98s5.47.33,7.49.98c2.01.65,3.63,1.55,4.86,2.71,1.23,1.16,2.11,2.51,2.65,4.08.54,1.56.81,3.24.81,5.03,0,.97-.07,1.98-.22,3.04-.15,1.06-.34,2.11-.56,3.16-.3,1.3-.59,2.66-.87,4.08-.28,1.42-.56,2.84-.84,4.27-.28,1.43-.55,2.87-.81,4.3-.26,1.43-.5,2.78-.73,4.05-.52,3.02-1.04,6-1.56,8.94,4.17-2.72,8.21-5.14,12.12-7.26,1.64-.89,3.33-1.78,5.08-2.65,1.75-.87,3.45-1.66,5.11-2.35,1.66-.69,3.22-1.25,4.69-1.68,1.47-.43,2.77-.64,3.88-.64,2.46,0,4.74.9,6.84,2.71,2.1,1.81,3.88,4.76,5.33,8.85.6,1.68,1.02,3.21,1.28,4.61.26,1.4.39,2.69.39,3.88,0,2.01-.39,3.74-1.17,5.2-.78,1.45-1.84,2.67-3.18,3.66-1.34.99-2.91,1.77-4.69,2.35-1.79.58-3.71,1.02-5.75,1.31-2.76.41-5.61.79-8.55,1.15-2.94.35-5.64.66-8.1.92-2.87.34-5.66.62-8.38.84,0,.04.3.33.89.87.59.54,1.4,1.28,2.4,2.21,1.01.93,2.17,1.99,3.49,3.18,1.32,1.19,2.71,2.44,4.16,3.74,1.45,1.3,2.94,2.62,4.47,3.94,1.53,1.32,2.98,2.56,4.36,3.71,2.08,1.79,3.81,3.73,5.17,5.81,1.36,2.09,2.04,4.23,2.04,6.42,0,1.08-.28,2.25-.84,3.52-.56,1.27-1.32,2.51-2.29,3.74-.97,1.23-2.09,2.42-3.35,3.58-1.27,1.15-2.61,2.18-4.02,3.07-1.42.89-2.87,1.6-4.36,2.12-1.49.52-2.9.78-4.25.78-1.75,0-3.4-.52-4.94-1.56-1.55-1.04-2.99-2.4-4.33-4.08-1.34-1.68-2.58-3.6-3.71-5.78-1.14-2.18-2.18-4.39-3.13-6.62-.95-2.23-1.8-4.43-2.54-6.59-.75-2.16-1.39-4.08-1.93-5.75-.54-1.68-1-3.03-1.37-4.05-.37-1.03-.63-1.52-.78-1.48Z" fill="#e5e1c3"/>
</svg>