<?xml version="1.0" encoding="UTF-8"?>
<svg id="a" data-name="Camada 1" xmlns="http://www.w3.org/2000/svg" viewBox="0 0 341.26 343.1">
  <path d="M173.81,1.79l12.5,20.58,16.5-17.53c1.91-2.03,5.3-1.31,6.23,1.32l7.95,22.73,19.79-13.72c2.3-1.59,5.46-.18,5.81,2.59l3.05,23.89,22.21-9.3c2.58-1.08,5.38.96,5.15,3.74l-1.99,24,23.66-4.48c2.74-.52,5.06,2.05,4.26,4.73l-6.93,23.06,24.07.53c2.79.06,4.52,3.06,3.18,5.51l-11.58,21.11,23.44,5.53c2.72.64,3.79,3.94,1.97,6.05l-15.71,18.25,21.77,10.28c2.53,1.19,2.89,4.64.67,6.33l-19.16,14.58,19.16,14.58c2.22,1.69,1.86,5.14-.67,6.33l-21.77,10.28,15.71,18.25c1.82,2.12.75,5.41-1.97,6.05l-23.44,5.53,11.58,21.11c1.34,2.45-.39,5.45-3.18,5.51l-24.07.53,6.93,23.06c.8,2.67-1.51,5.25-4.26,4.73l-23.66-4.48,1.99,24c.23,2.78-2.57,4.82-5.15,3.74l-22.21-9.3-3.05,23.89c-.35,2.77-3.52,4.18-5.81,2.59l-19.79-13.72-7.95,22.73c-.92,2.64-4.31,3.36-6.23,1.32l-16.5-17.53-12.5,20.58c-1.45,2.39-4.91,2.39-6.36,0l-12.5-20.58-16.5,17.53c-1.91,2.03-5.3,1.31-6.23-1.32l-7.95-22.73-19.79,13.72c-2.3,1.59-5.46.18-5.81-2.59l-3.05-23.89-22.21,9.3c-2.58,1.08-5.38-.96-5.15-3.74l1.99-24-23.66,4.48c-2.74.52-5.06-2.05-4.26-4.73l6.93-23.06-24.07-.53c-2.79-.06-4.52-3.06-3.18-5.51l11.58-21.11-23.44-5.53c-2.72-.64-3.79-3.94-1.97-6.05l15.71-18.25-21.77-10.28c-2.53-1.19-2.89-4.64-.67-6.33l19.16-14.58-19.16-14.58c-2.22-1.69-1.86-5.14.67-6.33l21.77-10.28-15.71-18.25c-1.82-2.12-.75-5.41,1.97-6.05l23.44-5.53-11.58-21.11c-1.34-2.45.39-5.45,3.18-5.51l24.07-.53-6.93-23.06c-.8-2.67,1.51-5.25,4.26-4.73l23.66,4.48-1.99-24c-.23-2.78,2.57-4.82,5.15-3.74l22.21,9.3,3.05-23.89c.35-2.77,3.52-4.18,5.81-2.59l19.79,13.72,7.95-22.73c.92-2.64,4.31-3.36,6.23-1.32l16.5,17.53,12.5-20.58c1.45-2.39,4.91-2.39,6.36,0Z" fill="#f33"/>
  <g>
    <path d="M60.51,193.21c1.85,1.24,3.98,1.89,6.17,1.89,1.32,0,2.67-.23,3.99-.69l.05-.02c1.01-.35,1.99-.83,2.93-1.42.8-.5,1.57-1.09,2.29-1.75l.05-.04c.68-.63,1.3-1.29,1.84-1.97l.03-.04c.71-.9,1.29-1.87,1.73-2.87.64-1.46.97-2.96.97-4.46,0-1.16-.18-2.31-.52-3.42,1.08-.93,1.96-2.03,2.62-3.27.91-1.67,1.37-3.54,1.37-5.54,0-.88-.09-1.78-.26-2.67-.15-.81-.38-1.67-.7-2.55-.9-2.54-2.24-4.57-3.99-6.08-1.83-1.56-3.97-2.5-6.26-2.75-.02-.07-.05-.14-.07-.2-.59-1.73-1.61-3.31-2.95-4.58-1.28-1.22-2.83-2.13-4.63-2.7-1.42-.46-2.96-.69-4.7-.69s-3.28.23-4.71.69c-1.79.58-3.35,1.49-4.62,2.7-1.37,1.3-2.36,2.85-2.96,4.63-.02.05-.04.11-.05.16-2.26.25-4.39,1.18-6.24,2.73-1.77,1.51-3.13,3.58-4.03,6.16l-.06.19c-.28.86-.48,1.63-.61,2.35-.16.9-.25,1.78-.25,2.62,0,1.98.44,3.82,1.3,5.44.68,1.3,1.58,2.44,2.69,3.39-.34,1.11-.52,2.25-.52,3.41,0,1.51.32,3.01.96,4.46.44,1,1.02,1.96,1.73,2.87l.03.04c.55.69,1.18,1.37,1.87,1.99.72.66,1.5,1.26,2.33,1.78.9.56,1.84,1.03,2.81,1.38l.1.04c1.33.46,2.68.7,4.01.7,1.65,0,3.23-.34,4.7-1.02.54-.25,1.07-.54,1.57-.87Z" fill="#e5e1c3"/>
    <path d="M66.35,114.15c1.73,1.4,3.78,2.14,5.93,2.14.17,0,.34,0,.51-.01l3.45,2.82c.33,2.28,1.49,4.35,3.34,5.89l.06.05c1.89,1.54,4.15,2.44,6.53,2.59h.06c.22.02.44.02.66.02,1.84,0,3.67-.43,5.43-1.29l.07-.03c1.37-.68,2.67-1.59,3.97-2.77,1.02-.92,2.06-2.04,3.08-3.29l8.46-10.33c1.13-1.38,1.92-2.92,2.36-4.6.18-.67.29-1.35.36-2.03.03,0,.06,0,.1,0,1.35-.13,2.72-.39,4.07-.78,1.3-.37,2.6-.87,3.84-1.45,1.25-.58,2.47-1.27,3.64-2.06,1.79-1.21,3.38-2.5,4.7-3.81,1.73-1.7,3.07-3.57,3.97-5.51.29-.62.54-1.26.74-1.9,1.19.57,2.49.96,3.89,1.14h.06c.62.08,1.26.12,1.92.12h0c.94,0,1.94-.08,2.96-.24,1.36-.21,2.78-.55,4.37-1.04,3.54-1.1,6.24-2.47,8.29-4.21,1.81-1.55,3.06-3.44,3.72-5.5.98,1.05,2.1,1.98,3.37,2.77,1.28.79,2.71,1.45,4.24,1.97,1.38.46,2.87.81,4.47,1.04,1.41.2,2.87.31,4.35.34.14,0,.29,0,.43,0,1.22,0,2.44-.08,3.61-.23,1.46-.19,2.86-.51,4.18-.96,1.47-.49,2.86-1.15,4.11-1.94.06-.04.12-.09.18-.13.32.4.67.78,1.06,1.15,1.09,1.06,2.38,1.99,3.94,2.83,1.21.65,2.55,1.24,4.13,1.81l5.82,2.09c2.53.91,4.81,1.5,6.97,1.8,1.23.17,2.43.25,3.57.25h0c1.01,0,2-.07,2.97-.2.04,0,.07-.01.11-.02.28.88.67,1.74,1.16,2.59.78,1.33,1.78,2.56,3.06,3.78.99.94,2.13,1.87,3.5,2.84,3.04,2.14,5.78,3.45,8.4,4,.87.18,1.75.28,2.61.28.02.13.04.26.07.39.34,1.86.97,3.75,1.9,5.64.87,1.76,2.03,3.53,3.45,5.23,1.71,2.06,3.46,3.78,5.22,5.12,1.92,1.46,3.88,2.56,5.8,3.27,2.05.76,4.15,1.15,6.22,1.15.1,0,.19,0,.32,0,1.97-.04,3.91-.39,5.76-1.03,1.64-.57,3.25-1.35,4.79-2.34,1.24-.8,2.45-1.68,3.6-2.64,1.19-.99,2.27-2.08,3.22-3.21,1.12-1.33,2.06-2.81,2.8-4.4.75-1.62,1.27-3.36,1.53-5.12.3-1.94.26-3.96-.13-6.05-.36-1.9-1.02-3.82-1.96-5.67-.89-1.79-2.06-3.55-3.59-5.38-1.74-2.08-3.4-3.74-5.07-5.04-1.88-1.49-3.8-2.62-5.67-3.35-2.13-.85-4.29-1.28-6.43-1.28h-.11c-.07,0-.15,0-.22,0,.03-.35.04-.7.04-1.05-.03-2.08-.63-4.11-1.76-6.04-.78-1.32-1.8-2.57-3.13-3.83-1.02-.96-2.21-1.92-3.53-2.85-1.32-.93-2.61-1.72-3.84-2.34-1.59-.8-3.1-1.33-4.61-1.62-.82-.16-1.64-.23-2.44-.23-1.3,0-2.57.2-3.76.6-.44.15-.86.33-1.27.52-.16-.45-.35-.91-.55-1.35-.79-1.73-1.89-3.37-3.28-4.87-1.26-1.36-2.79-2.61-4.58-3.75-1.66-1.04-3.58-1.96-5.71-2.73l-7.05-2.54c-1.54-.55-2.94-.96-4.26-1.23-1.3-.27-2.55-.41-3.72-.41-.38,0-.76.01-1.14.04-2.22.17-4.23.84-5.97,2.02-.09.06-.17.13-.26.19-.94-1.41-2.12-2.6-3.55-3.54-.49-.32-1.01-.6-1.53-.86.36-1.12.56-2.28.58-3.47v-.08c.02-1.56-.27-3.1-.86-4.56-.56-1.43-1.39-2.73-2.44-3.86l-.05-.05c-1.04-1.1-2.26-1.99-3.59-2.64-1.6-.79-3.36-1.21-5.18-1.24-.08,0-.16,0-.24,0-2.54,0-4.96.8-7,2.33-1.22.91-2.34,2.04-3.34,3.38-.69.94-1.36,1.95-1.97,3.01-.38.66-.78,1.32-1.18,1.91-.54.82-.95,1.47-1.27,2.03-.4.69-.72,1.3-.99,1.88-.01.02-.02.05-.03.07-1.25.24-2.38.58-3.44,1.04l-.06.03c-2.03.9-3.69,2.19-4.9,3.81-.1.13-.18.26-.27.39-1.23-.99-2.59-1.75-4.02-2.25-1.26-.45-2.58-.68-3.92-.68-1.2,0-2.41.18-3.61.56l-16.77,5.22c-2.54.78-4.68,2.31-6.18,4.4-1.07,1.49-1.83,3.16-2.26,4.97v.06c-.05.16-.07.31-.1.47-1.41-.5-2.92-.78-4.5-.83-.16,0-.33,0-.5,0-1.86,0-3.76.33-5.84,1-2.05.67-4.12,1.71-6.31,3.18-1.2.81-2.32,1.68-3.32,2.6-1.15,1.05-2.15,2.18-3,3.35-.94,1.3-1.7,2.69-2.25,4.15-.63,1.64-.99,3.36-1.06,5.13v.05c0,.23-.01.46,0,.69-.49-.13-.99-.24-1.49-.32h-.06c-.72-.12-1.44-.18-2.16-.18-1.12,0-2.23.14-3.32.4l-.07.02c-2.46.63-4.64,2.03-6.29,4.04l-8.33,10.18c-1.05,1.29-1.91,2.48-2.61,3.66-.89,1.48-1.54,2.98-1.93,4.44l-.02.07c-.56,2.14-.58,4.23-.06,6.23.61,2.34,1.95,4.41,3.9,5.99Z" fill="#e5e1c3"/>
    <path d="M278.2,217.49c-2.04-1.32-4.23-2.13-6.52-2.41-.24-.03-.49-.05-.73-.07-.85-1.16-1.92-2.17-3.17-2.97-1.72-1.12-3.7-1.79-5.88-2.01h-.05c-.4-.04-.81-.06-1.21-.06-1.75,0-3.54.35-5.31,1.04l-.05.02c-1.84.73-3.65,1.87-5.38,3.39-1.62,1.42-3.1,3.18-4.54,5.4l-.03.04c-.77,1.2-1.44,2.42-2.01,3.67-.64,1.4-1.12,2.84-1.43,4.26-.31,1.4-.45,2.82-.44,4.22-1.35.17-2.68.54-3.98,1.11-1.37.6-2.74,1.41-4.06,2.41l-.04.03c-.99.76-1.95,1.56-2.82,2.34-1.13,1.01-2.17,2.04-3.11,3.08-1.17,1.3-2.08,2.57-2.8,3.9-.49.9-.87,1.82-1.15,2.75-2.6.04-5.49.76-8.84,2.22-3.19,1.4-5.61,2.95-7.4,4.73-1.34.05-2.73.27-4.21.68-1.35.37-2.75.88-4.3,1.56-1.47.64-2.81,1.34-4.01,2.08-.74.47-1.41.95-2.03,1.45-.93-.33-1.89-.59-2.9-.77-1.13-.2-2.28-.3-3.44-.3-.79,0-1.59.05-2.34.14-2.36.27-4.55.76-6.47,1.45-2.06.74-3.93,1.71-5.55,2.88-.43.31-.84.64-1.24.97-1.05-1.04-2.28-1.92-3.68-2.62l-.08-.04c-1.36-.67-2.86-1.18-4.42-1.53-1.19-.27-2.44-.5-3.67-.67-1.53-.22-2.99-.36-4.35-.4-.29-.01-.58-.02-.86-.02-1.36,0-2.66.12-3.86.36h-.05c-2.09.43-3.95,1.25-5.48,2.42-.38.29-.73.6-1.07.92-.03-.17-.05-.33-.09-.5-.45-2.06-1.44-3.95-2.92-5.58-1.04-1.16-2.29-2.19-3.81-3.13-1.18-.74-2.54-1.45-4.06-2.12-1.51-.67-2.89-1.17-4.21-1.53-1.65-.46-3.18-.68-4.67-.68h-.14s0,0-.01,0c-.66-1.36-1.49-2.69-2.49-3.97-1.23-1.58-2.76-3.12-4.53-4.55-2.05-1.67-4.05-3.01-5.97-3.99-2.11-1.08-4.2-1.82-6.24-2.19-.05,0-.1-.01-.15-.02-.08-.64-.2-1.3-.37-1.97-.36-1.46-.92-2.98-1.74-4.68-.73-1.5-1.69-3.14-2.86-4.86l-4.59-6.78c-.93-1.37-1.83-2.52-2.75-3.53-1.18-1.29-2.44-2.35-3.72-3.13-1.89-1.16-3.9-1.79-5.99-1.86-.14,0-.28,0-.42,0-2.24,0-4.45.68-6.38,1.97l-.16.11c-1.94,1.36-3.26,3.3-3.79,5.51l-3.68,2.49c-.44-.07-.89-.1-1.34-.1-1.85,0-3.66.56-5.25,1.62l-.05.03c-2.04,1.38-3.55,3.29-4.39,5.58-.71,1.96-.88,4.07-.51,6.25.25,1.52.76,3.04,1.52,4.63.59,1.23,1.33,2.5,2.27,3.9l3.9,5.76c1.13,1.68,2.29,3.2,3.43,4.5,1.23,1.4,2.42,2.55,3.65,3.53,1.43,1.12,2.82,1.97,4.27,2.59,1.58.67,3.18,1.07,4.75,1.19,0,.16,0,.31.02.47.13,1.91.57,3.83,1.3,5.66.7,1.79,1.71,3.54,2.96,5.16,1.2,1.58,2.69,3.09,4.41,4.48,2.11,1.71,4.1,3.01,6.1,4,2.16,1.06,4.3,1.77,6.35,2.09,1.01.16,2.01.24,2.98.24h0c.35,0,.7-.01,1.05-.03.48,1.91,1.41,3.66,2.77,5.18,1.01,1.14,2.24,2.17,3.78,3.14,1.16.73,2.45,1.4,3.97,2.08l9.59,4.23c1.57.69,3.22,1.05,4.89,1.05h.3c1.34-.04,2.65-.29,3.91-.73.2.27.4.53.63.79,1.07,1.23,2.39,2.26,3.93,3.04l.05.03c1.38.69,2.92,1.16,4.58,1.4.77.11,1.54.17,2.28.17.87,0,1.73-.08,2.55-.23h.06c.6-.13,1.19-.28,1.75-.47,1.21.73,2.57,1.32,4.13,1.78,1.33.4,2.78.7,4.39.93,1.63.24,3.09.35,4.47.35h0c1.78,0,3.36-.19,4.81-.58,2.15-.58,3.99-1.63,5.43-3.04.87.57,1.78,1.08,2.76,1.51,1.68.75,3.5,1.27,5.45,1.57,1.02.15,2.09.23,3.17.23.91,0,1.85-.05,2.82-.16,2.36-.27,4.56-.83,6.53-1.66,2.04-.86,3.84-1.94,5.33-3.19.48-.4.92-.82,1.34-1.25,1.71.95,3.64,1.45,5.75,1.49h.25c1.46,0,2.97-.21,4.61-.66h.05c1.32-.38,2.69-.87,4.2-1.53,3.19-1.4,5.61-2.95,7.4-4.73,1.35-.04,2.74-.27,4.21-.68,1.34-.37,2.74-.87,4.33-1.57,1.53-.67,2.83-1.35,4-2.08,1.52-.95,2.76-1.96,3.81-3.13,1.02-1.14,1.8-2.39,2.33-3.72.16,0,.31.01.47.01h.23c1.61-.03,3.23-.38,4.84-1.06,1.43-.61,2.8-1.49,4.09-2.65,1.27-1.14,2.3-2.41,3.04-3.74.31-.55.57-1.11.8-1.67,1.31-.45,2.62-1.1,3.98-2l.05-.03c1.15-.76,2.31-1.67,3.52-2.76,2.78-2.48,4.67-4.86,5.79-7.27.84-1.8,1.22-3.65,1.19-5.46.9-.32,1.78-.7,2.64-1.17,1.2-.65,2.37-1.44,3.45-2.32,1.03-.83,2.03-1.8,2.98-2.87.9-1.01,1.74-2.11,2.51-3.3,1.17-1.8,2.12-3.62,2.83-5.36.92-2.23,1.41-4.48,1.48-6.66.09-2.66-.49-5.19-1.71-7.52-1.22-2.33-3.09-4.33-5.56-5.92Z" fill="#e5e1c3"/>
    <path d="M304.08,166.95c-.15-.81-.38-1.67-.7-2.55-.9-2.54-2.24-4.57-3.99-6.08-1.83-1.56-3.97-2.5-6.26-2.75-.02-.07-.04-.14-.07-.2-.59-1.73-1.61-3.31-2.95-4.58-1.28-1.22-2.83-2.13-4.63-2.7-1.42-.46-2.96-.69-4.7-.69s-3.28.23-4.71.69c-1.78.57-3.33,1.48-4.6,2.68-1.38,1.3-2.38,2.86-2.98,4.65,0,0-.04.14-.05.16-2.26.25-4.39,1.18-6.24,2.73-1.77,1.51-3.13,3.58-4.03,6.16l-.06.19c-.28.86-.48,1.63-.61,2.35-.16.9-.25,1.78-.25,2.62,0,1.94.43,3.76,1.3,5.44.68,1.3,1.58,2.43,2.69,3.39-.34,1.11-.52,2.25-.52,3.41,0,1.51.32,3.01.96,4.46.44,1,1.02,1.96,1.73,2.86l.03.04c.55.69,1.18,1.36,1.86,1.99.72.66,1.5,1.26,2.33,1.78.91.57,1.86,1.04,2.84,1.39l.05.02c1.33.47,2.69.71,4.03.71,1.64,0,3.21-.34,4.68-1.01.55-.25,1.09-.54,1.6-.88,1.85,1.24,3.98,1.89,6.17,1.89,1.31,0,2.65-.23,3.96-.68l.1-.04c.98-.35,1.93-.81,2.84-1.37l.09-.06c.78-.5,1.54-1.08,2.25-1.72l.05-.04c.68-.63,1.3-1.29,1.84-1.97l.03-.04c.71-.9,1.29-1.87,1.73-2.87.64-1.46.97-2.96.97-4.46,0-1.16-.18-2.3-.52-3.42,1.08-.93,1.96-2.04,2.62-3.27.91-1.67,1.37-3.54,1.37-5.54,0-.88-.09-1.78-.26-2.67Z" fill="#e5e1c3"/>
  </g>
  <g>
    <path d="M101.84,103.13c-.12.46-.34.89-.67,1.3l-8.46,10.32c-.76.93-1.49,1.72-2.19,2.36-.7.64-1.36,1.11-1.99,1.42-.63.31-1.23.44-1.8.41-.57-.04-1.09-.25-1.59-.65-.19-.16-.28-.32-.29-.48,0-.16.03-.33.1-.5.07-.17.15-.36.24-.55.09-.2.15-.4.16-.62.01-.22-.03-.45-.15-.71-.11-.25-.34-.52-.7-.81l-8.95-7.32c-.35-.29-.65-.46-.93-.52-.27-.06-.51-.07-.72-.01-.22.06-.41.16-.58.28-.17.13-.34.25-.49.35-.16.1-.32.17-.48.19-.16.03-.33-.04-.53-.19-.49-.4-.81-.87-.95-1.42s-.12-1.15.05-1.84c.18-.68.51-1.42,1-2.24.49-.81,1.11-1.68,1.88-2.62l8.33-10.18c.48-.58,1.04-.95,1.71-1.12.67-.16,1.36-.2,2.07-.09.71.11,1.4.33,2.06.64.67.32,1.24.66,1.71,1.05.32.26.56.55.73.85.17.31.27.62.3.94s0,.64-.11.96c-.11.32-.27.62-.49.89-.2.25-.44.45-.72.62-.27.17-.6.28-.96.35-.36.06-.76.06-1.21,0-.44-.06-.93-.2-1.47-.43l-2.36-1.16-3.25,3.96,5.46,4.47.66-1.05c-.19-.42-.36-.8-.53-1.15-.16-.35-.29-.66-.38-.96-.08-.29-.11-.57-.07-.83.04-.26.16-.52.37-.77.36-.44.76-.73,1.19-.89.44-.16.89-.21,1.35-.16.46.05.93.19,1.4.41.47.22.91.51,1.32.84.42.34.79.72,1.1,1.15.32.42.55.85.69,1.3.14.45.18.9.11,1.36-.06.46-.28.91-.63,1.34-.21.25-.44.42-.69.51-.25.09-.53.12-.83.1-.3-.03-.64-.08-1.02-.18-.37-.09-.78-.19-1.24-.3l-.9.85,6.61,5.41,3.13-4.21-1.67-2.18c-.34-.5-.59-.98-.75-1.42-.16-.44-.24-.86-.25-1.24,0-.38.05-.74.16-1.06.12-.33.28-.61.49-.87.24-.29.51-.52.82-.7.31-.17.63-.27.98-.3.34-.03.69,0,1.04.12.35.11.69.31,1.02.58.33.27.65.59.97.96.33.38.61.78.87,1.21.26.43.48.88.66,1.36.18.48.29.96.33,1.44.04.48,0,.96-.12,1.42Z" fill="#f33"/>
    <path d="M123.06,85.99c-.49,1.04-1.22,2.05-2.2,3.01-.98.97-2.14,1.9-3.47,2.8-.78.53-1.6.99-2.45,1.39-.85.4-1.7.72-2.55.97-.85.24-1.68.4-2.5.48-.82.07-1.58.06-2.29-.06s-1.36-.34-1.95-.67c-.59-.33-1.07-.77-1.45-1.34-.29-.44-.48-.86-.56-1.27-.08-.41-.08-.8,0-1.16.08-.36.23-.69.45-.98.22-.3.49-.55.8-.76.38-.26.82-.44,1.29-.55.48-.11.97-.13,1.46-.06.49.08.97.25,1.44.53.46.28.87.68,1.23,1.21.08.12.24.22.46.28.22.06.49.08.8.04.32-.03.68-.12,1.08-.27.41-.15.83-.38,1.28-.68.63-.42,1.1-.8,1.42-1.13.32-.33.54-.63.64-.9.11-.27.14-.51.08-.72-.05-.21-.14-.4-.26-.57-.14-.21-.43-.29-.85-.24-.42.05-.94.16-1.56.34-.62.18-1.32.39-2.11.65s-1.6.49-2.45.68c-.86.2-1.73.34-2.63.43-.89.09-1.77.05-2.62-.11-.85-.16-1.66-.48-2.43-.94-.76-.46-1.45-1.15-2.06-2.04-.6-.89-1.03-1.76-1.29-2.61-.26-.85-.37-1.68-.34-2.49.03-.81.19-1.59.49-2.35.29-.76.69-1.49,1.2-2.19.5-.71,1.11-1.37,1.8-2.01.7-.64,1.47-1.24,2.31-1.8,1.5-1.01,2.89-1.72,4.14-2.13,1.26-.41,2.38-.6,3.36-.57.98.03,1.82.23,2.51.61.69.38,1.22.84,1.59,1.4.34.5.52,1,.56,1.51.03.51-.04.99-.22,1.46-.18.46-.45.9-.81,1.3-.36.4-.76.75-1.2,1.04-.43.29-.87.52-1.34.7-.46.18-.92.28-1.35.3-.44.02-.84-.04-1.21-.17-.37-.14-.67-.38-.91-.73-.17-.26-.24-.49-.21-.69.03-.2.08-.39.16-.57.08-.18.16-.35.21-.51.06-.16.03-.33-.08-.49-.16-.24-.52-.31-1.08-.22-.56.1-1.28.44-2.16,1.03-.61.41-1.07.78-1.36,1.1-.3.33-.49.62-.58.88-.09.26-.1.49-.03.71.06.21.16.4.27.58.25.37.64.57,1.16.61.53.05,1.16,0,1.89-.13.73-.13,1.54-.32,2.43-.56.88-.24,1.81-.46,2.77-.67.96-.21,1.93-.36,2.91-.45.98-.1,1.94-.07,2.85.08.92.15,1.79.46,2.61.93.82.47,1.53,1.17,2.16,2.1.8,1.19,1.24,2.34,1.32,3.45.09,1.12-.11,2.19-.6,3.24Z" fill="#f33"/>
    <path d="M149.65,59.18c-.02.35-.11.66-.26.95-.15.28-.35.53-.61.74-.27.21-.56.37-.91.47-.3.1-.62.14-.95.14-.33,0-.67-.08-1.02-.22-.34-.15-.68-.37-1.02-.66-.33-.3-.65-.7-.94-1.2l-1.29-2.15-1.68.45,4.36,14c.13.44.3.76.49.97.19.21.39.35.61.42.22.07.44.1.65.08.22-.01.43-.02.62-.01.19,0,.36.04.51.11.15.06.26.22.33.45.38,1.22.02,2.3-1.07,3.23-1.09.93-2.83,1.77-5.21,2.51-1.15.36-2.19.61-3.13.76-.93.15-1.75.17-2.45.09-.7-.09-1.27-.3-1.72-.65-.45-.34-.78-.81-.97-1.42-.07-.23-.06-.42.02-.56.09-.14.21-.26.36-.37.16-.11.33-.22.51-.33.18-.11.34-.25.48-.43.13-.18.22-.4.27-.67.05-.27,0-.62-.14-1.06l-4.36-14.03-1.62.57.16,2.52c0,.58-.05,1.08-.16,1.51-.11.43-.26.8-.45,1.11s-.42.56-.68.76c-.26.2-.54.34-.84.44-.34.11-.68.15-1.02.12-.33-.02-.64-.11-.93-.26-.29-.15-.54-.36-.76-.63-.22-.27-.39-.61-.51-1-.18-.59-.3-1.25-.34-1.99-.04-.74.02-1.46.18-2.16.16-.7.45-1.32.85-1.88.4-.56.96-.95,1.68-1.17l16.8-5.23c.71-.22,1.39-.22,2.04.01.64.22,1.23.58,1.76,1.06.53.49.99,1.04,1.37,1.67.38.63.67,1.24.85,1.82.12.39.17.76.14,1.11Z" fill="#f33"/>
    <path d="M180.58,39.93c0,.47-.11.93-.32,1.37s-.49.87-.83,1.29c-.34.42-.74.82-1.18,1.21-.44.38-.9.76-1.37,1.12-.48.36-.95.71-1.42,1.03-.47.32-.91.63-1.31.92-1.05.76-1.9,1.31-2.56,1.63-.66.33-1.17.49-1.53.48-.18,0-.37-.05-.55-.15-.17-.1-.33-.22-.47-.37-.14-.15-.24-.32-.32-.49-.08-.17-.12-.34-.11-.51,0-.22.04-.44.1-.7.06-.25.18-.55.34-.88.16-.34.37-.74.63-1.2.26-.45.6-.99,1.01-1.61.5-.77.98-1.55,1.45-2.35.46-.8.94-1.53,1.42-2.18.49-.65,1-1.18,1.55-1.59.55-.41,1.17-.61,1.86-.6.55,0,1.05.12,1.49.34.44.22.82.49,1.14.83.32.34.56.72.72,1.14.17.42.25.84.24,1.26Z" fill="#f33"/>
    <path d="M187,54.49c0,.25-.07.42-.19.53-.12.11-.28.19-.47.24-.18.06-.38.11-.6.16-.22.05-.42.14-.6.27-.19.13-.34.33-.47.58-.13.25-.19.61-.2,1.09l-.13,10.01c-.01.99-.16,1.89-.44,2.68-.28.79-.66,1.49-1.15,2.11-.49.61-1.08,1.13-1.75,1.56-.68.43-1.42.78-2.22,1.04-.8.27-1.65.46-2.56.58-.9.12-1.83.17-2.78.16-1.14-.02-2.23-.11-3.27-.25-1.04-.15-2.01-.38-2.91-.68-.9-.3-1.71-.68-2.44-1.13-.73-.45-1.35-.99-1.87-1.63-.52-.63-.91-1.35-1.18-2.16-.27-.81-.4-1.71-.39-2.71l.16-10.03c0-.45-.05-.8-.17-1.05-.11-.25-.27-.44-.44-.57-.18-.13-.37-.22-.58-.28-.21-.05-.4-.11-.58-.17-.18-.06-.33-.15-.45-.25-.12-.11-.18-.29-.17-.54,0-.63.18-1.17.52-1.62.34-.45.83-.82,1.47-1.1.65-.28,1.43-.48,2.37-.6.94-.12,2.01-.17,3.22-.16,1.25.02,2.35.11,3.31.26.96.16,1.76.38,2.4.68.65.3,1.13.68,1.45,1.15s.49,1.01.47,1.64c0,.25-.07.42-.19.53s-.27.19-.45.24c-.18.05-.38.1-.6.15-.22.04-.41.12-.6.24-.18.12-.33.3-.46.55-.13.25-.2.6-.2,1.05l-.16,10.06c0,.72.08,1.33.28,1.83.19.5.47.92.84,1.24.36.32.8.56,1.3.71.5.15,1.05.23,1.66.24.56,0,1.09-.06,1.58-.2.49-.14.91-.37,1.28-.68.36-.31.65-.71.87-1.21.22-.49.33-1.1.34-1.8l.16-10.03c0-.45-.05-.8-.16-1.06-.12-.25-.27-.44-.44-.57-.17-.13-.37-.22-.59-.28-.21-.05-.41-.11-.59-.17-.18-.06-.33-.14-.45-.25-.12-.11-.18-.29-.17-.53,0-.64.17-1.18.49-1.63s.71-.82,1.18-1.1c.48-.28,1-.49,1.56-.62.56-.13,1.11-.19,1.63-.18.46,0,.96.08,1.49.23.54.15,1.03.37,1.48.67.46.3.83.68,1.13,1.14.29.46.44,1.01.43,1.64Z" fill="#f33"/>
    <path d="M222.62,67.65c-.12-.95-.38-1.88-.79-2.78-.41-.9-.99-1.76-1.75-2.57-.76-.82-1.7-1.58-2.83-2.29-1.13-.71-2.47-1.35-4.04-1.91l-7.04-2.54c-1.14-.41-2.17-.71-3.09-.9-.93-.19-1.74-.26-2.43-.21-.7.05-1.28.23-1.75.55-.47.32-.81.77-1.02,1.37-.08.23-.09.42,0,.56.08.14.2.27.34.38.15.11.32.23.49.35.18.12.33.27.46.45.12.18.2.41.23.69.03.27-.03.63-.18,1.05l-3.93,10.91c-.16.43-.33.74-.53.93-.2.19-.4.32-.61.38-.22.06-.43.08-.64.05-.22-.02-.42-.04-.6-.05-.19,0-.36.02-.51.08-.16.05-.27.2-.36.44-.21.6-.24,1.16-.09,1.71.16.55.49,1.06.99,1.55.5.49,1.17.96,2.01,1.41s1.81.87,2.95,1.29l5.83,2.1c1.92.7,3.65,1.15,5.19,1.36,1.53.21,2.91.23,4.12.06,1.21-.17,2.28-.52,3.2-1.04.93-.52,1.74-1.16,2.44-1.92.7-.76,1.31-1.64,1.82-2.61.51-.97.96-2,1.35-3.07.34-.95.59-1.91.73-2.89.14-.97.15-1.93.03-2.88ZM213.63,64.11c-.03.81-.16,1.7-.39,2.68s-.54,1.99-.91,3.03c-.49,1.35-.98,2.56-1.48,3.62-.5,1.07-1.02,1.95-1.53,2.65-.51.7-1.04,1.2-1.57,1.5-.53.3-1.07.35-1.6.16-.4-.15-.7-.34-.89-.57-.19-.24-.31-.5-.34-.79-.04-.29-.01-.61.06-.95.08-.34.18-.69.31-1.04l4.12-11.43c.13-.36.27-.69.43-1,.16-.32.34-.57.55-.77.21-.2.47-.33.77-.39.3-.06.65-.02,1.05.13.54.19.92.57,1.14,1.14.22.56.32,1.25.28,2.05Z" fill="#f33"/>
    <path d="M245.95,78.54c0,.56-.17,1.1-.54,1.62-.14.2-.29.31-.45.33-.16.02-.33,0-.51-.06-.18-.05-.37-.12-.57-.21-.21-.08-.42-.12-.64-.12-.22,0-.45.07-.7.21-.25.13-.5.38-.76.75l-6.65,9.38c-.27.38-.42.71-.47.98-.05.28-.03.53.04.74s.18.4.33.57c.15.16.28.33.39.48.11.16.19.31.23.47.04.16-.01.34-.16.54-.74,1.04-1.8,1.42-3.21,1.12-1.41-.3-3.13-1.17-5.17-2.6-.98-.7-1.82-1.37-2.51-2.02-.69-.65-1.2-1.28-1.56-1.89-.35-.6-.53-1.19-.54-1.76,0-.57.17-1.11.54-1.63.14-.2.29-.31.45-.33.16-.02.33,0,.51.06.18.06.37.12.57.21.2.08.41.11.63.11s.45-.06.69-.2c.24-.13.49-.38.76-.76l6.66-9.45c.26-.37.41-.69.45-.96.05-.28.03-.52-.04-.73-.07-.21-.18-.39-.32-.55-.14-.16-.27-.32-.38-.47-.11-.15-.19-.3-.23-.46-.04-.16.01-.33.16-.54.37-.52.82-.87,1.35-1.05.53-.18,1.15-.21,1.83-.07.69.13,1.46.41,2.3.83.84.43,1.76.98,2.74,1.68,1.02.72,1.88,1.42,2.59,2.08.71.67,1.24,1.31,1.6,1.92.36.61.55,1.2.56,1.76Z" fill="#f33"/>
    <path d="M269.11,101.78c-.21-1.09-.6-2.23-1.2-3.41-.59-1.19-1.42-2.41-2.48-3.69-1.31-1.58-2.57-2.84-3.78-3.79-1.2-.95-2.37-1.65-3.49-2.09-1.12-.44-2.2-.66-3.25-.66-1.05,0-2.07.18-3.06.52-.99.34-1.96.82-2.91,1.43-.95.61-1.89,1.3-2.81,2.07-.81.67-1.53,1.41-2.16,2.21-.63.8-1.15,1.66-1.54,2.57-.39.92-.65,1.88-.78,2.89-.13,1.01-.1,2.06.11,3.15.2,1.09.58,2.2,1.15,3.35.57,1.15,1.35,2.32,2.34,3.51,1.31,1.57,2.57,2.83,3.8,3.76,1.23.93,2.41,1.62,3.56,2.04,1.15.43,2.25.62,3.33.6,1.07-.02,2.11-.21,3.11-.56,1-.34,1.97-.82,2.91-1.42.94-.6,1.85-1.27,2.73-2.01.78-.65,1.49-1.36,2.13-2.12.64-.76,1.16-1.59,1.57-2.46.41-.88.68-1.81.83-2.79.15-.98.12-2.02-.08-3.11ZM261.58,99.21c-.29.51-.67,1.04-1.14,1.59-.48.55-1.01,1.1-1.59,1.65-.59.55-1.2,1.1-1.83,1.64-.63.54-1.25,1.06-1.85,1.56l-.53.44c-.67.56-1.3,1.04-1.88,1.44-.58.39-1.1.68-1.58.86-.48.18-.91.24-1.29.17-.38-.06-.72-.27-1.02-.62-.3-.36-.4-.79-.31-1.29.09-.49.32-1.03.68-1.6.36-.57.83-1.17,1.4-1.8.57-.62,1.19-1.24,1.84-1.85.65-.61,1.32-1.21,2-1.79s1.3-1.1,1.87-1.58c.63-.53,1.2-.97,1.72-1.32.51-.36.98-.61,1.42-.76.43-.15.82-.18,1.18-.1.36.09.69.32,1,.69.3.36.44.76.4,1.22-.04.45-.2.93-.49,1.44Z" fill="#f33"/>
    <path d="M95.15,235c-.21-.86-.58-1.84-1.12-2.95-.54-1.11-1.29-2.38-2.24-3.79l-4.58-6.77c-.68-1-1.33-1.85-1.97-2.55-.64-.7-1.26-1.23-1.86-1.59-.6-.37-1.18-.56-1.74-.58-.56-.02-1.11.15-1.64.5-.2.14-.31.29-.33.45-.02.16,0,.33.05.51.05.18.12.37.19.57.08.21.11.42.11.64,0,.22-.08.45-.22.69-.14.24-.39.49-.76.74l-9.58,6.48c-.38.26-.71.41-.98.44-.27.04-.51.02-.72-.06-.21-.08-.39-.19-.55-.33-.16-.15-.32-.28-.46-.39-.15-.12-.3-.2-.46-.24-.16-.04-.33,0-.54.15-.52.35-.88.8-1.08,1.33-.19.53-.23,1.15-.11,1.84.11.69.38,1.47.79,2.32.41.85.95,1.78,1.63,2.78l3.92,5.78c.95,1.42,1.87,2.62,2.75,3.61.87.99,1.71,1.81,2.51,2.44.8.63,1.56,1.1,2.28,1.41.72.31,1.41.49,2.06.53.65.05,1.28-.02,1.86-.21.59-.19,1.15-.46,1.67-.82.95-.64,1.64-1.32,2.07-2.05.43-.72.68-1.45.74-2.19.06-.74-.02-1.47-.25-2.18-.23-.71-.52-1.39-.89-2.02.23.31.5.62.81.92.3.3.63.57.98.81.35.23.73.44,1.13.59.39.16.81.25,1.25.27.44.02.89-.03,1.36-.16.47-.13.95-.37,1.45-.7.43-.29.84-.62,1.24-.98.39-.36.72-.78.98-1.27s.42-1.05.49-1.7c.07-.65,0-1.4-.21-2.26ZM80.7,237.2c-.17.3-.43.6-.78.9s-.76.6-1.23.93c-.52.35-1,.63-1.46.85s-.88.33-1.28.36-.77-.06-1.12-.24c-.35-.19-.67-.5-.98-.95-.24-.35-.37-.68-.37-.96,0-.29.07-.55.22-.79.15-.24.37-.47.64-.68.27-.21.57-.42.88-.64l3.85-2.6s.13.11.26.25c.11.11.25.3.44.54.18.25.43.6.74,1.05.25.38.38.72.4,1.05.02.33-.06.64-.23.94ZM89,231.39c-.17.36-.44.71-.81,1.05-.37.34-.81.69-1.31,1.03-.47.32-.91.59-1.32.8-.4.22-.78.35-1.13.4s-.67,0-.97-.13c-.3-.14-.57-.39-.82-.76-.31-.46-.55-.82-.71-1.08-.16-.26-.27-.46-.34-.6-.09-.16-.13-.28-.14-.34l3.85-2.6c.32-.22.62-.41.92-.59.3-.18.59-.29.87-.35.28-.05.55-.02.82.09.27.11.52.34.76.7.3.45.48.87.52,1.26.04.39-.02.76-.19,1.13Z" fill="#f33"/>
    <path d="M116.49,257.13c-.05-.99-.27-2-.68-3.03-.41-1.03-1.02-2.07-1.83-3.11-.81-1.04-1.86-2.09-3.15-3.13-1.59-1.3-3.08-2.29-4.44-3-1.37-.7-2.64-1.16-3.83-1.38-1.19-.22-2.29-.22-3.32,0-1.03.21-1.99.57-2.9,1.1-.91.53-1.77,1.18-2.58,1.96-.81.78-1.6,1.64-2.36,2.58-.66.82-1.23,1.68-1.69,2.59-.47.9-.81,1.85-1.02,2.82-.21.98-.28,1.97-.21,2.99.07,1.02.31,2.04.71,3.06.4,1.03.99,2.05,1.78,3.07.78,1.02,1.76,2.02,2.96,2.99,1.59,1.29,3.08,2.27,4.46,2.95,1.38.68,2.67,1.12,3.88,1.31s2.33.18,3.38-.05c1.05-.23,2.03-.61,2.95-1.15s1.77-1.19,2.58-1.96c.81-.77,1.57-1.61,2.29-2.5.64-.79,1.2-1.62,1.67-2.49.48-.87.83-1.78,1.06-2.72.23-.94.32-1.91.28-2.9ZM107.93,253.03c-.18.56-.45,1.15-.81,1.78-.36.63-.77,1.27-1.24,1.93-.47.65-.96,1.31-1.47,1.96-.52.65-1.02,1.28-1.51,1.89l-.44.54c-.55.68-1.08,1.27-1.57,1.77-.49.5-.95.88-1.38,1.15-.44.27-.84.41-1.23.42-.38.01-.76-.12-1.12-.41-.36-.3-.55-.7-.55-1.2,0-.5.11-1.08.36-1.71.24-.63.58-1.31,1.03-2.03.44-.72.92-1.45,1.44-2.18.53-.73,1.06-1.44,1.62-2.13.55-.7,1.06-1.34,1.53-1.92.51-.63.99-1.18,1.42-1.63.44-.45.85-.79,1.24-1.02.39-.23.77-.33,1.14-.32.37.02.74.17,1.11.48.37.3.57.67.62,1.12.05.45-.01.95-.2,1.51Z" fill="#f33"/>
    <path d="M135.75,281.16c-.02.37-.11.76-.29,1.15-.17.38-.39.78-.66,1.2-.27.42-.59.81-.94,1.18-.36.37-.74.71-1.15,1.01-.42.3-.85.54-1.3.71-.45.17-.92.26-1.4.27-.48,0-.96-.09-1.43-.3l-9.6-4.24c-1.1-.49-2.06-.98-2.86-1.49-.8-.5-1.43-1.02-1.9-1.54-.47-.52-.76-1.06-.87-1.62-.12-.55-.05-1.12.21-1.7.1-.22.23-.36.38-.41.15-.05.33-.06.51-.04.18.02.38.05.6.09.21.04.43.04.64,0,.22-.04.43-.15.64-.33.21-.17.41-.47.6-.89l4.67-10.58c.18-.41.27-.76.26-1.04,0-.28-.07-.51-.18-.71-.11-.19-.26-.35-.43-.48-.17-.13-.33-.26-.47-.38-.14-.12-.25-.26-.32-.41-.07-.15-.05-.33.05-.56.26-.58.63-1.01,1.12-1.29.49-.28,1.08-.43,1.78-.44.71,0,1.51.11,2.42.36.91.25,1.92.62,3.02,1.11,1.14.5,2.13,1.02,2.95,1.53.82.51,1.47,1.04,1.95,1.57.48.53.77,1.07.89,1.62s.05,1.12-.2,1.69c-.1.23-.23.36-.38.41-.16.05-.33.06-.51.04-.18-.02-.38-.05-.6-.09-.22-.04-.43-.04-.65,0-.22.04-.43.16-.65.33-.22.18-.41.48-.59.89l-5.07,11.4c-.19.43-.29.8-.3,1.11,0,.31.04.58.14.79.1.22.24.39.41.53.17.14.34.25.51.32.02,0,.04.02.07.02.03,0,.09.03.18.06.09.04.22.08.41.14.18.06.43.14.75.25l1.65-2.19c.39-.46.79-.83,1.17-1.1.39-.27.76-.46,1.14-.57.37-.11.72-.16,1.06-.13.34.03.66.11.96.24.36.16.65.36.9.61.25.25.43.53.55.84.12.32.17.66.15,1.03Z" fill="#f33"/>
    <path d="M167.81,290.44c-.09-.12-.23-.23-.4-.32-.17-.09-.37-.17-.59-.25-.22-.09-.44-.21-.64-.38-.21-.16-.4-.38-.56-.67-.16-.28-.28-.66-.35-1.14l-1.72-11.87c-.05-.34-.05-.62-.02-.84.03-.24.11-.43.22-.55s.25-.21.4-.26c.15-.05.31-.08.48-.1.17-.01.33-.03.48-.06.15-.03.27-.08.38-.15.11-.07.17-.2.2-.37,0-.04,0-.11,0-.22-.05-.81-.3-1.49-.75-2.03-.45-.54-1.04-.99-1.77-1.36-.74-.36-1.58-.65-2.52-.86-.95-.22-1.94-.4-2.98-.55-1.24-.18-2.37-.28-3.41-.32-1.04-.04-1.95.03-2.74.18-.79.16-1.45.44-1.97.83-.52.39-.88.93-1.09,1.62-.02.04-.03.1-.04.16-.04.27.02.45.18.56.16.11.34.21.54.3.2.09.38.2.54.34.16.14.21.36.16.67-.02.12-.05.26-.11.42-.06.16-.14.33-.24.54l-5.37,10.85c-.22.44-.45.77-.7.99-.25.22-.5.38-.75.48-.25.1-.49.16-.73.17-.24.02-.45.04-.64.08-.19.03-.35.1-.48.19-.12.09-.21.26-.24.5-.07.49-.04.96.09,1.42.13.46.36.88.7,1.26.33.38.76.71,1.31.99.54.27,1.18.46,1.93.57.74.11,1.4.11,1.99,0,.59-.11,1.1-.31,1.53-.58.43-.27.76-.61,1.02-1.01.25-.4.42-.85.49-1.33.03-.2,0-.37-.08-.49-.08-.12-.19-.22-.32-.3-.13-.08-.28-.15-.45-.22-.16-.06-.32-.14-.45-.22-.13-.09-.24-.2-.32-.34-.08-.14-.1-.33-.06-.56.03-.24.15-.55.33-.91l.52-.99,6.16.88.1,1.09c.03.3.02.57,0,.8-.04.27-.12.48-.23.61-.12.13-.25.23-.41.28-.15.05-.32.09-.49.11-.18.02-.34.04-.49.08-.15.04-.28.1-.39.19-.11.09-.18.24-.21.46-.09.63,0,1.19.26,1.69.26.5.69.94,1.29,1.32.6.38,1.35.71,2.25.98.91.27,1.96.49,3.15.66,2.47.36,4.4.35,5.78-.03,1.39-.37,2.17-1.19,2.35-2.46.03-.24,0-.43-.1-.55ZM149.92,282.13l3.68-8.49,1.07,9.17-4.75-.68Z" fill="#f33"/>
    <path d="M195.6,288.12c-.42.83-1.04,1.6-1.89,2.31-.84.71-1.88,1.32-3.11,1.84-1.23.52-2.62.86-4.16,1.04-1.33.15-2.57.14-3.72-.03-1.15-.17-2.22-.48-3.18-.91-.97-.44-1.85-.98-2.62-1.65-.78-.66-1.45-1.41-2.02-2.24-.57-.83-1.03-1.73-1.38-2.69-.35-.96-.59-1.96-.71-3.01-.14-1.2-.17-2.36-.09-3.5.07-1.14.28-2.22.61-3.24.34-1.03.82-1.98,1.43-2.87.62-.88,1.4-1.67,2.35-2.36.95-.69,2.07-1.27,3.38-1.74,1.3-.47,2.8-.8,4.51-.99,1.13-.13,2.22-.1,3.27.09,1.05.19,1.99.52,2.82,1,.83.47,1.52,1.09,2.07,1.85.55.76.87,1.63.98,2.63.05.4.03.78-.06,1.12-.09.34-.23.63-.44.88-.2.25-.45.45-.75.61-.3.16-.62.26-.98.3-.32.04-.64.02-.96-.05-.33-.06-.65-.2-.96-.41-.31-.21-.6-.49-.88-.84-.27-.36-.5-.81-.7-1.35-.27-.77-.65-1.34-1.14-1.69-.49-.36-.98-.52-1.47-.46-.38.04-.73.2-1.08.48-.35.28-.64.67-.87,1.19-.23.51-.4,1.15-.49,1.91-.1.76-.09,1.65.03,2.67.15,1.34.36,2.5.63,3.47.27.97.57,1.79.93,2.46.35.67.73,1.2,1.14,1.61.41.41.84.71,1.29.92.44.21.9.33,1.36.38.46.05.91.04,1.36,0,.46-.06.9-.16,1.32-.32.42-.16.81-.33,1.15-.53.34-.2.63-.4.87-.61.24-.21.41-.39.52-.56.13-.22.27-.39.44-.5.16-.12.33-.18.48-.2.28-.03.55.09.78.36.24.27.38.66.44,1.18.09.82-.07,1.64-.48,2.46Z" fill="#f33"/>
    <path d="M233.66,275.54c-.12.55-.42,1.09-.89,1.62-.47.52-1.12,1.04-1.93,1.55-.82.51-1.79,1.01-2.91,1.5-1.15.5-2.18.88-3.12,1.14-.93.26-1.76.39-2.47.38-.71,0-1.31-.15-1.8-.44-.49-.29-.86-.72-1.11-1.31-.1-.22-.11-.41-.05-.56.07-.15.17-.28.32-.41.14-.13.3-.26.47-.39.18-.13.32-.29.43-.49.11-.2.17-.43.18-.71.01-.28-.08-.63-.27-1.06l-1.88-4.29-6.33,2.78,1.88,4.28c.18.42.38.72.6.91.22.18.44.3.66.35.22.05.44.05.66.01.22-.04.42-.07.6-.08.19-.02.36,0,.52.05.16.05.28.18.38.41.51,1.17.28,2.28-.7,3.33-.98,1.05-2.62,2.07-4.9,3.08-1.1.48-2.11.85-3.02,1.1-.92.25-1.72.37-2.42.36-.7-.01-1.3-.16-1.79-.45-.49-.29-.86-.72-1.12-1.31-.1-.22-.11-.41-.04-.56.07-.15.17-.28.32-.4s.3-.25.47-.38c.17-.13.32-.29.43-.48.11-.19.18-.42.19-.7s-.07-.62-.26-1.04l-4.64-10.59c-.18-.41-.38-.71-.59-.88-.21-.18-.43-.29-.64-.34-.22-.05-.43-.05-.64-.01-.21.04-.41.06-.6.09-.18.02-.36,0-.51-.05-.16-.05-.28-.18-.38-.41-.25-.58-.32-1.15-.2-1.7.12-.55.42-1.09.88-1.61.47-.52,1.1-1.04,1.91-1.54.8-.5,1.75-.99,2.86-1.48,1.14-.5,2.18-.88,3.11-1.14.94-.26,1.76-.39,2.47-.38.71,0,1.31.15,1.8.44.49.28.86.71,1.11,1.3.1.22.11.41.05.56-.07.15-.18.28-.32.4-.14.12-.3.25-.48.38-.18.13-.32.3-.44.49s-.17.42-.19.7c0,.28.07.62.25,1.04l1.55,3.54,6.31-2.76-1.55-3.54c-.18-.41-.38-.71-.59-.89-.22-.18-.43-.29-.64-.34-.22-.05-.43-.05-.65,0-.22.04-.42.07-.6.09-.19.02-.36,0-.51-.05-.16-.05-.28-.18-.38-.41-.51-1.16-.27-2.27.7-3.32.98-1.04,2.61-2.07,4.91-3.08,2.26-.98,4.1-1.48,5.52-1.49,1.43,0,2.4.57,2.9,1.74.1.22.11.41.04.56-.07.15-.19.29-.34.42-.15.13-.32.26-.5.4-.18.13-.34.3-.46.49-.12.19-.19.43-.21.71-.01.28.06.63.25,1.04l4.61,10.53c.19.42.39.72.61.91s.44.3.67.34c.22.05.45.05.68,0,.23-.05.44-.08.64-.1.2-.02.38,0,.54.04.16.05.29.18.39.41.26.58.32,1.15.2,1.7Z" fill="#f33"/>
    <path d="M260.14,251.02c-.16-.18-.33-.27-.48-.28-.16,0-.32.03-.5.11-.18.07-.37.17-.58.29-.2.11-.44.2-.7.25s-.55.05-.87,0c-.32-.05-.69-.21-1.09-.46l-10.2-6.31c-.29-.19-.51-.37-.65-.53-.16-.18-.26-.36-.27-.53-.02-.16,0-.33.06-.47.06-.15.14-.29.23-.43.1-.13.18-.27.26-.4.07-.13.11-.27.13-.39.02-.13-.04-.26-.15-.39-.03-.03-.08-.07-.16-.14-.65-.49-1.33-.73-2.03-.73-.71,0-1.43.16-2.18.49-.75.33-1.51.78-2.28,1.37-.77.59-1.55,1.23-2.33,1.94-.93.83-1.74,1.64-2.44,2.4-.7.77-1.24,1.52-1.62,2.23-.38.71-.6,1.39-.63,2.04-.03.65.15,1.28.54,1.87.02.04.05.08.1.13.18.2.36.27.55.22.19-.05.38-.12.58-.22.2-.1.4-.16.6-.19.21-.03.41.07.62.3.08.09.16.21.25.36s.17.33.26.53l4.86,11.09c.2.45.3.84.31,1.17,0,.33-.03.62-.12.88s-.2.48-.34.67c-.14.19-.25.37-.35.54-.1.17-.15.33-.16.49,0,.16.06.33.23.51.33.36.71.65,1.15.84.43.19.9.29,1.41.28s1.04-.13,1.59-.37c.56-.24,1.12-.61,1.68-1.11.55-.5.98-1.01,1.27-1.53.29-.52.47-1.04.54-1.54.06-.5.02-.98-.12-1.43-.15-.45-.38-.87-.71-1.23-.14-.16-.28-.24-.43-.26-.15-.02-.29,0-.44.06-.14.05-.29.12-.45.21-.16.09-.31.15-.46.2-.15.05-.3.06-.46.02-.16-.03-.32-.13-.47-.31-.16-.18-.33-.46-.49-.84l-.43-1.03,4.64-4.15.89.62c.25.17.45.35.61.52.19.21.29.4.32.57.03.17.01.34-.04.49-.05.16-.13.3-.24.45-.1.15-.19.29-.26.43-.07.14-.11.28-.11.43s.07.3.22.46c.42.47.91.76,1.47.89.55.12,1.17.07,1.84-.14.68-.21,1.41-.58,2.2-1.1.79-.52,1.63-1.19,2.53-1.99,1.86-1.66,3.09-3.15,3.7-4.45.6-1.3.48-2.43-.37-3.38ZM241.79,259.11l-4.14-8.28,7.71,5.07-3.58,3.2Z" fill="#f33"/>
    <path d="M276.77,230.66c-.04,1.15-.32,2.37-.84,3.64-.52,1.28-1.21,2.59-2.08,3.94-.51.79-1.08,1.54-1.7,2.24-.63.71-1.28,1.34-1.96,1.89-.68.56-1.39,1.04-2.11,1.42-.72.39-1.43.67-2.14.85-.7.17-1.38.22-2.05.16-.66-.07-1.29-.29-1.86-.66-.44-.28-.78-.6-1.02-.95s-.38-.71-.45-1.07c-.06-.36-.05-.72.03-1.09.09-.36.23-.7.44-1.01.25-.38.57-.73.97-1.02.39-.29.83-.5,1.31-.63.49-.13.99-.16,1.53-.08.54.07,1.07.28,1.6.63.13.08.31.11.53.08.23-.03.48-.12.76-.28.28-.16.57-.38.88-.68.32-.3.62-.67.91-1.13.41-.64.7-1.17.86-1.6.16-.43.24-.79.23-1.08,0-.29-.08-.52-.21-.7-.13-.17-.28-.31-.46-.42-.22-.14-.5-.1-.87.11-.37.22-.8.52-1.3.93-.5.41-1.06.88-1.68,1.42-.62.55-1.28,1.08-1.99,1.59-.71.52-1.45.99-2.24,1.42-.79.44-1.61.74-2.45.93-.84.18-1.71.22-2.6.09s-1.79-.48-2.7-1.07c-.9-.58-1.64-1.21-2.21-1.89-.57-.68-1-1.4-1.29-2.15-.29-.76-.45-1.53-.49-2.35-.03-.81.05-1.64.24-2.49.19-.85.48-1.7.87-2.56.39-.86.87-1.72,1.41-2.57.98-1.52,1.97-2.72,2.97-3.59,1-.87,1.95-1.49,2.86-1.85.92-.36,1.76-.5,2.55-.43.78.08,1.46.29,2.02.65.5.33.87.72,1.1,1.17.23.45.36.93.38,1.42.02.5-.06,1.01-.23,1.52-.17.51-.4.99-.69,1.43-.27.43-.6.82-.95,1.17-.36.34-.73.61-1.12.81-.39.19-.78.3-1.18.32-.39.02-.77-.09-1.12-.32-.26-.16-.41-.35-.47-.55-.05-.2-.08-.39-.07-.59,0-.2,0-.38,0-.55-.01-.17-.11-.31-.27-.43-.24-.15-.6-.08-1.08.23-.48.31-1.01.91-1.58,1.8-.4.62-.67,1.14-.82,1.55-.15.41-.21.76-.18,1.04.02.28.11.5.25.66s.3.31.48.42c.37.24.81.27,1.31.11.5-.16,1.07-.45,1.69-.87.62-.41,1.29-.9,2.01-1.47.72-.57,1.48-1.14,2.28-1.7.8-.57,1.63-1.09,2.5-1.56.87-.48,1.75-.83,2.65-1.05.9-.23,1.82-.28,2.76-.17.94.11,1.88.47,2.81,1.08,1.2.78,2.06,1.66,2.58,2.65.52.99.76,2.06.72,3.21Z" fill="#f33"/>
    <path d="M75.31,169.62c0,.54-.11,1.01-.32,1.4-.21.39-.5.72-.86.99-.36.27-.78.48-1.26.63-.49.16-1,.27-1.56.36-.74.11-1.51.21-2.31.31-.79.1-1.52.18-2.18.25-.77.09-1.53.16-2.26.22,0,0,.08.09.24.23.16.15.38.34.65.6.27.25.59.54.94.86.36.32.73.66,1.12,1.01.39.35.8.71,1.21,1.06.41.36.81.69,1.18,1,.56.48,1.03,1.01,1.39,1.57.37.56.55,1.14.55,1.73,0,.29-.08.61-.23.95-.15.34-.36.68-.62,1.01-.26.33-.56.65-.9.96-.34.31-.71.59-1.09.83-.38.24-.77.43-1.18.57-.4.14-.78.21-1.15.21-.47,0-.92-.14-1.33-.42-.42-.28-.81-.65-1.17-1.1-.36-.45-.7-.97-1-1.56-.31-.59-.59-1.18-.84-1.79s-.49-1.2-.69-1.78c-.2-.58-.38-1.1-.52-1.55s-.27-.82-.37-1.09c-.1-.27-.17-.41-.22-.4-.28.75-.58,1.52-.9,2.29-.27.66-.58,1.39-.93,2.18-.34.8-.7,1.55-1.05,2.28-.21.42-.43.81-.66,1.17-.23.36-.49.66-.77.93-.28.26-.59.47-.91.62-.33.15-.69.23-1.08.23-.36,0-.74-.07-1.14-.21-.39-.14-.78-.33-1.16-.57-.38-.24-.75-.52-1.09-.83-.34-.31-.65-.63-.91-.96-.26-.33-.47-.67-.62-1.01s-.22-.66-.22-.95c0-.59.18-1.17.55-1.73.37-.56.83-1.09,1.4-1.57.37-.31.76-.65,1.17-1,.41-.36.81-.71,1.2-1.06.39-.35.77-.69,1.13-1.01.36-.32.68-.61.95-.86.27-.25.49-.45.65-.6.16-.15.24-.22.24-.23-.75-.06-1.51-.14-2.28-.22-.66-.07-1.39-.16-2.18-.25-.79-.1-1.56-.2-2.3-.31-.56-.08-1.09-.2-1.57-.36-.48-.16-.9-.37-1.26-.63-.36-.27-.65-.6-.86-.99-.21-.39-.31-.86-.31-1.4,0-.32.04-.67.11-1.05.07-.38.18-.79.33-1.25.38-1.1.87-1.9,1.44-2.39.58-.49,1.2-.73,1.86-.73.29,0,.64.06,1.04.17.39.11.82.27,1.26.45.44.19.9.4,1.37.63.48.24.94.48,1.39.72,1.06.57,2.15,1.23,3.29,1.96-.14-.79-.28-1.6-.42-2.41-.06-.34-.12-.71-.2-1.09-.07-.38-.14-.77-.22-1.16-.08-.39-.16-.77-.23-1.15-.08-.38-.16-.75-.23-1.1-.06-.28-.11-.56-.15-.85-.04-.29-.06-.56-.06-.82,0-.48.07-.93.21-1.36s.38-.79.71-1.1c.33-.32.77-.56,1.31-.73.54-.18,1.21-.27,2.02-.27s1.48.09,2.02.27c.55.17.98.42,1.31.73.33.31.57.68.71,1.1.15.42.22.87.22,1.36,0,.27-.02.54-.06.82s-.09.57-.15.85c-.08.35-.16.72-.23,1.1-.07.38-.15.76-.22,1.15-.08.38-.15.77-.22,1.16-.07.39-.14.75-.2,1.09-.14.82-.28,1.62-.42,2.41,1.13-.73,2.22-1.39,3.27-1.96.44-.24.9-.48,1.37-.72.48-.23.93-.44,1.38-.63.44-.19.87-.34,1.26-.45.4-.11.75-.17,1.05-.17.66,0,1.28.25,1.85.73.57.49,1.05,1.29,1.44,2.39.16.45.27.87.34,1.25.07.38.11.73.11,1.05Z" fill="#f33"/>
    <path d="M295.63,169.62c0,.54-.11,1.01-.32,1.4-.21.39-.5.72-.86.99-.37.27-.79.48-1.27.63-.49.16-1,.27-1.55.36-.75.11-1.52.21-2.31.31-.8.1-1.53.18-2.19.25-.77.09-1.53.16-2.26.22,0,0,.08.09.24.23.16.15.38.34.65.6.27.25.59.54.94.86.36.32.73.66,1.12,1.01.39.35.8.71,1.21,1.06.41.36.81.69,1.18,1,.56.48,1.03,1.01,1.4,1.57.37.56.55,1.14.55,1.73,0,.29-.08.61-.23.95-.15.34-.36.68-.62,1.01-.26.33-.56.65-.9.96-.34.31-.71.59-1.09.83-.38.24-.78.43-1.18.57-.4.14-.79.21-1.15.21-.47,0-.92-.14-1.33-.42-.42-.28-.81-.65-1.17-1.1-.36-.45-.7-.97-1-1.56-.31-.59-.59-1.18-.84-1.79s-.49-1.2-.69-1.78c-.2-.58-.38-1.1-.52-1.55-.14-.45-.27-.82-.37-1.09-.1-.27-.17-.41-.21-.4-.28.75-.59,1.52-.91,2.29-.27.66-.58,1.39-.93,2.18-.34.8-.7,1.55-1.05,2.28-.21.42-.43.81-.66,1.17-.23.36-.49.66-.77.93-.28.26-.58.47-.91.62-.33.15-.69.23-1.08.23-.36,0-.74-.07-1.13-.21-.39-.14-.78-.33-1.16-.57-.38-.24-.75-.52-1.09-.83-.34-.31-.65-.63-.91-.96-.26-.33-.47-.67-.62-1.01s-.22-.66-.22-.95c0-.59.18-1.17.55-1.73.37-.56.83-1.09,1.4-1.57.37-.31.76-.65,1.17-1,.41-.36.81-.71,1.2-1.06.39-.35.77-.69,1.13-1.01.36-.32.68-.61.95-.86.27-.25.49-.45.65-.6.16-.15.24-.22.24-.23-.75-.06-1.51-.14-2.28-.22-.66-.07-1.39-.16-2.18-.25-.79-.1-1.56-.2-2.3-.31-.56-.08-1.09-.2-1.57-.36-.48-.16-.9-.37-1.26-.63-.36-.27-.65-.6-.86-.99-.2-.39-.31-.86-.31-1.4,0-.32.04-.67.11-1.05.07-.38.18-.79.33-1.25.38-1.1.87-1.9,1.44-2.39.58-.49,1.2-.73,1.86-.73.29,0,.64.06,1.04.17.39.11.82.27,1.26.45.44.19.9.4,1.37.63.48.24.94.48,1.39.72,1.06.57,2.15,1.23,3.29,1.96-.14-.79-.28-1.6-.43-2.41-.06-.34-.12-.71-.2-1.09-.07-.38-.14-.77-.22-1.16-.08-.39-.16-.77-.23-1.15-.08-.38-.16-.75-.23-1.1-.06-.28-.11-.56-.15-.85-.04-.29-.06-.56-.06-.82,0-.48.07-.93.21-1.36.14-.42.38-.79.71-1.1.33-.32.77-.56,1.31-.73.54-.18,1.21-.27,2.02-.27s1.48.09,2.02.27c.55.17.98.42,1.31.73.33.31.57.68.71,1.1.15.42.22.87.22,1.36,0,.27-.02.54-.06.82-.04.29-.09.57-.15.85-.08.35-.16.72-.23,1.1-.07.38-.15.76-.22,1.15-.08.38-.15.77-.22,1.16-.07.39-.14.75-.2,1.09-.14.82-.28,1.62-.42,2.41,1.13-.73,2.22-1.39,3.27-1.96.44-.24.9-.48,1.37-.72.48-.23.93-.44,1.38-.63s.87-.34,1.27-.45c.39-.11.75-.17,1.05-.17.66,0,1.28.25,1.85.73.57.49,1.05,1.29,1.44,2.39.16.45.27.87.34,1.25.07.38.11.73.11,1.05Z" fill="#f33"/>
  </g>
  <path d="M216,167.1c-2.21-1.78-4.69-3.08-7.44-3.9-2.75-.82-5.52-1.33-8.29-1.52,1.48-.08,3.03-.27,4.63-.59,1.6-.31,3.15-.77,4.66-1.38,1.5-.61,2.93-1.37,4.28-2.28,1.35-.92,2.53-2.04,3.54-3.37,1.02-1.33,1.82-2.87,2.4-4.63.12-.35.22-.72.32-1.1.07-.27-.07-.56-.33-.68-3.31-1.51-5.62-4.84-5.62-8.72,0,0,0-.01,0-.02-.19.01-.38.02-.57.02-5.29,0-9.57-4.29-9.57-9.57,0-.25.01-.5.03-.75-.01,0-.02,0-.03,0-5.01,0-9.13-3.86-9.54-8.76-.02-.27-.24-.49-.51-.53-4.53-.62-9.9-.93-16.12-.93h-31.22c-4.61,0-8.7.26-12.27.79-3.57.53-6.58,1.35-9.02,2.46-2.44,1.11-4.3,2.54-5.56,4.28-1.27,1.74-1.9,3.82-1.9,6.24,0,.94.23,1.61.7,2.02s1.04.72,1.73.94c.68.21,1.43.42,2.23.62.8.2,1.54.54,2.23,1.03.68.49,1.26,1.21,1.73,2.17.47.96.7,2.29.7,4.01v44.17c0,1.76-.23,3.1-.7,4.04-.47.94-1.05,1.65-1.73,2.14-.68.49-1.43.83-2.23,1.03-.8.2-1.54.4-2.23.61-.68.21-1.26.53-1.73.94-.47.41-.7,1.08-.7,2.02,0,2.42.63,4.51,1.9,6.27,1.27,1.76,3.12,3.19,5.56,4.31,2.44,1.11,5.45,1.93,9.02,2.46,3.57.53,7.66.79,12.27.79h26.65c6.52,0,12.29-.32,17.31-.97,5.02-.64,9.38-1.55,13.09-2.72,3.71-1.17,6.82-2.57,9.34-4.19,2.52-1.62,4.55-3.42,6.09-5.39,1.54-1.97,2.65-4.09,3.31-6.36.66-2.26,1-4.61,1-7.03,0-4.37-.68-8.01-2.05-10.92-1.37-2.91-3.15-5.25-5.36-7.03ZM183.37,189.3c-.29,1.89-.83,3.5-1.61,4.8-.78,1.31-1.84,2.31-3.16,3.02-1.33.7-3.03,1.05-5.1,1.05-1.64,0-2.92-.3-3.84-.91-.92-.61-1.59-1.41-2.02-2.4-.43-1-.68-2.16-.76-3.49-.08-1.33-.12-2.71-.12-4.16v-17.75c.2-.08.64-.18,1.35-.29.59-.08,1.46-.15,2.64-.21,1.17-.06,2.81-.09,4.92-.09,1.72,0,3.11.32,4.19.97,1.07.64,1.9,1.56,2.49,2.75.59,1.19.98,2.66,1.17,4.39.2,1.74.29,3.7.29,5.89,0,2.38-.15,4.52-.44,6.41ZM183.52,150.99c-.2,1.74-.59,3.21-1.17,4.42-.59,1.21-1.42,2.14-2.49,2.78-1.07.64-2.47.97-4.19.97-2.11,0-3.75-.03-4.92-.09-1.17-.06-2.05-.13-2.64-.21-.7-.08-1.15-.18-1.35-.29v-17.75c0-1.44.04-2.83.12-4.16.08-1.33.33-2.49.76-3.49.43-1,1.1-1.8,2.02-2.4.92-.61,2.2-.91,3.84-.91,2.07,0,3.77.35,5.1,1.05,1.33.7,2.38,1.71,3.16,3.02.78,1.31,1.32,2.91,1.61,4.8.29,1.89.44,4.01.44,6.36,0,2.19-.1,4.15-.29,5.89Z" fill="#e5e1c3"/>
</svg>