<?xml version="1.0" encoding="UTF-8"?>
<svg id="a" data-name="Camada 1" xmlns="http://www.w3.org/2000/svg" viewBox="0 0 573 555">
  <path d="M185.64,282.06h0c-.41,1.04-3.4,1.06-3.35-.27.17-4.52,2.05-9.09,3.97-13.19s4.41-7.96,7.22-11.5c5.1-6.42,11.56-11.84,18.83-15.62,1.91-1,3.79-2,5.86-2.89s4.25-1.45,6.38-2.16c4.54-1.52,9.39-2.25,14.02-2.42,9.36-.34,18.91,1.55,27.46,5.37,4.24,1.89,8.25,4.22,11.82,7.21,1.63,1.36,3.13,2.88,4.36,4.62.69.98,1.32,2,1.88,3.06.29.54.58,1.12.6,1.75.02.53-.23,1.15-.37,1.67-.28,1.09-2,1.49-2.91,1.58-1.22.12-2.6-.16-3.49-1.05-.58-.58-1.16-1.07-1.5-1.84-.21-.45-.33-.94-.54-1.39-.42-.91-.92-1.79-1.51-2.6-1.2-1.63-2.62-3.13-4.18-4.41-3.42-2.81-7.62-4.84-11.74-6.39-7.63-2.88-15.88-3.89-24-3.17-3.91.35-8.15.93-11.99,2.19-1.92.63-3.89,1.19-5.72,2.07-1.73.84-3.42,1.77-5.05,2.79-6.47,4.03-12.09,9.41-16.47,15.64-2.21,3.15-4.07,6.5-5.66,10.05s-2.53,7.3-3.93,10.91h0Z" fill="#fff"/>
  <path d="M451.52,248.37h0c.62,1.37-2.29,1.27-2.9.72-3.28-2.97-6.13-6.32-9.69-9-3.36-2.53-6.87-4.7-10.68-6.49-3.35-1.58-7.04-2.87-10.55-3.7-1.83-.44-3.69-.81-5.56-1.09-1.98-.3-3.28-.43-5.13-.5-7.34-.29-13.98.98-20.85,3.78-13.23,5.39-24.33,16.39-29.79,29.78-1.07,2.64-7.98,1.84-6.75-1.17,3.36-8.27,8.76-15.71,15.48-21.57,6.06-5.29,13.14-9.55,20.79-12.05,8.08-2.65,16.72-3.49,25.01-2.65,8.29.84,16.29,3.61,23.49,7.76,3.45,1.99,6.76,4.46,9.69,7.15,2.78,2.55,5.84,5.53,7.42,9.01v.02Z" fill="#fff"/>
  <path d="M225.63,312.26h0c.08,1.3-2.99,1.35-3.35.27-.44-1.32-.87-2.5-1-3.9-.12-1.32-.17-2.67-.08-3.99.18-2.55.92-5.1,1.92-7.45,1.83-4.28,4.75-8,8.44-10.82,3.91-2.99,8.28-4.49,13.35-5.09,5.07-.6,10.26-.06,14.98,1.95,2.27.97,4.45,2.17,6.39,3.69,1.01.79,1.99,1.62,2.88,2.54.98,1.01,2.02,1.95,1.37,3.44-.52,1.19-2.45,1.5-3.56,1.25-1.05-.24-2.03-.47-2.79-1.3-.39-.42-.74-.89-1.13-1.31-.71-.76-1.47-1.48-2.28-2.12-1.79-1.39-3.69-2.46-5.66-3.21s-3.45-1.22-5.4-1.48c-1.65-.22-3.61-.32-5.44-.02-3.85.64-7.41,2.44-10.27,5.09-3.01,2.79-5.29,6.31-6.66,10.18-.69,1.95-1.15,4-1.46,6.04-.15,1.03-.2,2.08-.19,3.13s-.12,2.06-.06,3.11h0Z" fill="#fff"/>
  <path d="M380,279.14h0c-.65.27-1.9.12-2.06-.7-.33-1.67,1.83-3.7,2.91-4.72,1.39-1.32,2.94-2.55,4.59-3.53,6.33-3.77,14.21-5.19,21.47-4.1,4.35.65,8.46,2.26,11.83,5.12,1.56,1.33,2.85,2.95,3.81,4.76.81,1.54,1.98,4.23,1.16,5.91-1.1,2.25-5.13,1.87-6.34,0-.55-.85-.51-2.15-.83-3.09s-.75-1.86-1.29-2.69c-1.16-1.77-2.84-3.14-4.66-4.18-3.29-1.87-6.89-2.75-10.39-2.75s-7.13,1.1-10.21,2.72c-1.88.99-3.71,2.13-5.32,3.53-1.48,1.28-2.87,2.95-4.7,3.71h.02Z" fill="#fff"/>
  <path d="M207.48,247.07h0c.65,1.53-2.78,1.81-3.47.87-.85-1.15-1.66-2.33-2.43-3.54-3.39-5.34-5.17-12.02-5.75-18.28-.66-7.15.22-14.5,2.85-21.2,5.04-12.87,16.3-22.67,29.01-27.61,13.5-5.25,28.97-4.99,42,1.5,6.59,3.28,12.22,8.21,16.07,14.49,3.62,5.92,5.62,12.65,6.05,19.74.43,7.1-.89,14.53-3.15,21.25-1.93,5.77-5.02,11.06-9.05,15.61-1.11,1.25-3.38,1.34-4.82.8-1.26-.48-2.35-1.81-1.26-3.04.92-1.03,1.79-2.1,2.61-3.21,3.42-4.65,5.62-10.11,6.99-15.69,1.6-6.51,2.24-13.29,1.18-19.92-.98-6.19-3.47-12.33-7.31-17.29-1.96-2.53-4.18-4.97-6.79-6.83-2.77-1.97-5.89-3.58-8.98-4.7s-6.29-1.86-9.55-2.23c-1.18-.13-2.57-.22-4.06-.22-1.39,0-3.26.07-4.24.17-5.96.62-11.6,2.23-16.97,5.03-11.41,5.94-20.37,16.24-23.35,28.89-1.53,6.46-1.14,12.96-.2,19.45.42,2.92,1.18,5.73,2.1,8.54.81,2.49,1.47,5.01,2.5,7.42h.02Z" fill="#fff"/>
  <path d="M401.07,268.18h0c.24-1.45,3.71-1.49,3.64,0-.09,1.81-.21,3.63-.49,5.42-2.23,14.06-8.84,27.73-18.05,38.55-9.74,11.42-21.92,19.86-36.81,25.08-14.89,5.22-30.8,6.69-46.64,4.08-15.84-2.61-31.04-9.43-42.69-20.58-5.33-5.1-9.86-11.08-13.22-17.64-2.99-5.83-3.92-12.36-3.92-18.85,0-2.26,5.4-2.25,5.4,0,0,1.08.02,2.15.08,3.22.17,3.24.58,6.49,1.51,9.6,1.01,3.38,2.76,6.54,4.61,9.53,3.72,6.01,8.54,11.33,13.97,15.83,11.72,9.71,26.59,15.03,41.64,16.48,14.38,1.39,29.11-1.04,42.36-6.75,6.66-2.87,13.2-6.67,18.61-11.02s10.14-9.41,14.35-14.92c8.52-11.15,13.42-24.22,15.67-38h-.01Z" fill="#fff"/>
  <path d="M393.62,296.85h0c-.43-1.67,3.23-1.96,3.62-.6.68,2.38,1.26,4.79,1.74,7.22,3.86,19.66-.08,41.1-10.15,58.35-9.46,16.2-24.37,28.9-41.65,36.1-18.26,7.61-38.88,8.41-57.83,2.9-9.69-2.82-18.91-7.36-27.09-13.27-4.29-3.1-8.23-6.48-11.3-10.77s-5.32-9.02-7.03-14c-3.19-9.33-5.16-19.39-4.81-29.27.17-4.81.49-9.81,1.85-14.58s3.44-9.2,6.2-13.32c1.53-2.29,8.12-.88,6.04,2.23-1.21,1.81-2.28,3.76-3.22,5.73-2.01,4.24-3.55,8.91-4.46,13.53-.91,4.62-.93,9.46-.63,14.14.62,9.65,2.75,19.12,6.94,27.88,8.46,17.66,28.2,27.7,46.7,31.31,18.17,3.55,37.46.66,53.47-7.86,16.02-8.52,29.15-22.1,36.71-38.62,8.14-17.76,9.79-38.2,4.91-57.1h0Z" fill="#fff"/>
  <path d="M356.38,331.85h0c-.05-1.11,2.67-1.12,2.78,0,.77,7.63.22,15.24-1.36,22.73-.09.4-.36.68-.77.79-4.38,1.21-8.77,2.4-13.13,3.67-2.13.62-4.36,1.27-6.4,1.85s-4.12,1.43-6.21,1.78c-1.81.3-3.6-.35-4.03-2.24-.48-2.12-.59-4.42-.86-6.52s-.53-4.1-.8-6.31-.84-4.57-.73-6.8c.07-1.44,3.4-1.6,3.77-.31.52,1.82.57,3.71.78,5.65s.43,3.89.64,5.83.43,3.89.64,5.83c.05.49.1.97.16,1.46.02.16.2,1.2.2,1.2l-.56.03c.3-.08.61-.15.91-.23.41-.1.81-.21,1.22-.31,7.64-1.95,15.23-4.06,22.82-6.17l-.77.79c1.57-7.46,2.04-15.13,1.69-22.73h0Z" fill="#fff"/>
  <path d="M291.72,337.81h0c.17-1.4,3.41-1.44,3.48,0,.19,3.85-.14,7.73-.28,11.6s-.31,7.74-.49,11.6c-.06,1.31-2.1,1.23-2.94,1.01-8.32-2.22-16.69-4.21-25.04-6.33-.83-.21-1.73-.53-1.87-1.5-1.38-9.88-1.32-19.75-1.01-29.69.08-2.47,5.9-2.43,5.83,0-.28,9.88-.66,19.84.29,29.69l-1.26-1.35c8.35,2.39,16.67,4.89,25.04,7.17l-2.94,1.01c.2-3.87.39-7.74.57-11.6s.15-7.77.62-11.6h0Z" fill="#fff"/>
  <path d="M209.51,408.86h0c.67.4.63,1.08,0,1.48-.72.46-1.76.38-2.49,0-6.73-3.49-13.04-7.62-18.92-12.4-12.25-9.95-22.5-21.93-30.71-35.48s-14.32-28.38-18.13-43.76c-3.79-15.29-5.44-30.63-4.32-46.85s5.05-32.25,11.21-47.28c6.22-15.16,14.73-29.33,25-42.11,10.28-12.78,22.34-24.11,35.72-33.6,14.37-10.2,30.3-18.11,47.04-23.57,17.79-5.8,36.42-8.88,55.08-9.58s37.44,1,55.72,4.8c9.17,1.91,18.38,4.21,27.23,7.32,8.92,3.13,17.51,7.66,25.27,12.73s15.05,10.88,21.85,17.16c6.27,5.79,12.16,11.88,16.71,19.13,9.17,14.6,12.84,31.57,16.51,48.19,4.04,18.3,8.85,36.61,10.55,55.32,1.71,18.84-.55,38.02-7.21,55.65-6.66,17.63-17.47,33.45-30.31,47.16-12.04,12.86-25.89,24.08-41.05,33.07-15.09,8.95-31.52,15.68-48.69,19.38-17.87,3.86-36.61,3.71-54.53,2.59s-35.77-3.83-52.98-9.05c-16.41-4.98-32.08-12.35-46.16-22.15-.89-.62-.97-1.57,0-2.18s2.61-.67,3.57,0c6.64,4.62,13.64,8.73,20.91,12.27,15.17,7.37,31.52,12.14,48.12,14.98,17.78,3.05,35.89,3.93,53.91,3.6,17.03-.31,33.68-3.99,49.6-10.38,15.92-6.39,30.82-15.37,44.13-26.16,13.73-11.14,26.21-24.22,35.89-39.06,10.33-15.83,17.58-34.35,19.77-52.7,2.19-18.35-.4-36.73-4.19-54.69-1.87-8.86-3.94-17.66-5.88-26.49-1.84-8.35-3.79-16.62-6.59-24.7-2.74-7.89-5.7-15.71-10-22.78s-10.01-12.99-16.04-18.61c-13.18-12.3-28.44-23.14-45.53-29.22-8.55-3.05-17.45-5.28-26.33-7.12-8.94-1.86-17.97-3.21-27.07-4.01-17.93-1.59-36.16-.95-53.88,2.12-17.72,3.07-35.07,8.64-51.06,16.89-14.29,7.38-27.49,16.79-39.17,27.86-11.63,11.03-21.77,23.62-29.94,37.44-8.17,13.82-14.38,28.81-18.09,44.43-3.61,15.11-4.71,30.71-3.31,46.22,1.4,15.51,5.24,30.86,11.1,45.15,5.86,14.29,14.05,27.92,23.64,39.57s21.1,21.66,34.08,29.4l-.02.03Z" fill="#fff"/>
  <path d="M207.14,406.35h0c.46.44-.05.91-.48,1.07-.59.22-1.34.13-1.82-.28-1.89-1.6-3.71-3.28-5.47-5.02-14.26-14.1-25.11-31.54-32.79-50.01-7.75-18.64-12.4-38.71-13.73-58.77-1.33-20.06.78-40.27,6.46-59.57,5.85-19.9,15.23-38.69,27.42-55.46,6.12-8.42,13.03-16.34,20.47-23.51,7.45-7.18,15.56-14.08,24.4-19.46,1.08-.65,4.12.22,2.44,1.45-2.06,1.51-4.13,2.99-6.19,4.5-16.46,12.11-30.63,27.14-42.03,44.24-11.4,17.09-19.92,36.14-24.91,56.08-4.82,19.31-6.2,39.01-4.1,58.95s7.43,39.58,15.88,57.77c4.22,9.08,9.32,17.95,15.06,25.94,5.74,7.99,12.31,15.29,19.4,22.08h-.02Z" fill="#fff"/>
  <path d="M297.29,435.29h0c.55-.03,1.62.22,1.73.91s-.68,1.07-1.26,1.15c-6.06.87-12.12,1.39-18.22,1.72-21.79,1.17-43.9-.5-65.13-5.7-17.5-4.29-34.43-10.99-49.77-20.5-13.26-8.22-25.24-18.46-35.4-30.3-9.24-10.77-16.99-22.81-23.12-35.61-5.48-11.44-9.68-23.5-12.5-35.87-2.42-10.63-3.92-21.5-3.99-32.41-.04-6.09.49-12.13,1.4-18.14.9-5.94,2.16-11.82,3.74-17.6.82-3.03,2.05-6.04,3-8.87s1.99-5.63,3.1-8.4c9.06-22.51,23.24-43.22,40.76-60,18.8-18.02,41.48-31.7,66.2-39.92,27.72-9.21,57.29-11.7,86.28-8.94.86.08,2.19.84,1.76,1.89-.46,1.12-2.11,1.17-3.1,1.08-6.9-.66-13.83-.99-20.75-.99-28.2-.02-56.61,5.57-82.1,17.86-21.86,10.55-41.5,25.91-57.12,44.5-7.7,9.17-14.44,19.13-20.04,29.72-2.79,5.28-5.31,10.72-7.51,16.27-1.1,2.77-2.15,5.6-3.07,8.41s-1.52,5.76-2.29,8.62c-3.68,13.71-5.42,27.79-4.5,41.96.73,11.3,2.75,22.2,5.81,32.93,3.55,12.42,8.49,24.45,14.75,35.76,6.85,12.37,15.22,23.68,25.19,33.79,10.99,11.14,23.5,20.31,37.44,27.58,15.87,8.28,33.39,13.76,51.1,16.77,22.35,3.81,44.93,3.47,67.63,2.33h-.02Z" fill="#fff"/>
  <path d="M160.06,406.34h0c.46.44-.05.91-.48,1.07-.59.22-1.34.13-1.82-.28-1.89-1.61-3.71-3.28-5.48-5.02-14.38-14.15-25.5-31.55-33.52-50.01-8.08-18.58-13.13-38.57-14.71-58.77-1.57-20.14.47-40.45,6.82-59.66,6.72-20.33,17.52-39.22,30.78-55.98,6.7-8.49,14.3-16.63,22.04-23.76,7.75-7.14,16.05-14.08,25.05-19.56,1.08-.65,4.12.22,2.44,1.45-2.07,1.52-4.16,3-6.24,4.51-17.06,12.41-32.15,27.6-44.63,44.6-12.51,17.04-22.42,36.22-28.1,56.63-5.35,19.24-6.49,39-4.12,59s8.13,39.64,16.88,57.77c4.38,9.08,9.53,17.81,15.49,25.94,5.84,7.97,12.46,15.26,19.58,22.08h0Z" fill="#fff"/>
  <path d="M218.94,417.57h0c.62-.35,1.63-.41,2.24,0,.55.37.59.97,0,1.33-2.29,1.4-4.86,2.2-7.54,2.39-5.71.42-11.35-1.75-16.35-4.29-5.47-2.78-10.7-6.17-15.84-9.5-10.28-6.67-19.55-14.9-26.94-24.69-1.84-2.43-3.56-4.89-5.26-7.48s-3.28-5.32-5.22-7.74c-3.68-4.58-6.89-9.68-9.66-14.87-2.75-5.16-4.86-10.54-6.13-16.32-1.27-5.78-1.77-11.57-2.14-17.59-.37-6.03-.56-12.06-1.14-18.06-.64-6.65-1.61-13.25-2.14-19.9-1-12.58-.94-25.27,1.23-37.73,1.9-10.94,5.41-21.48,10.13-31.51,2.57-5.45,5.45-10.75,8.53-15.94,2.92-4.92,5.91-9.82,9.41-14.36,3.21-4.15,6.76-8.26,10.25-11.95s7.2-7.13,11.58-9.76c9.13-5.48,20.23-7.56,30.75-7.86.67-.02,1.85.26,2,1.06s-.81,1.24-1.46,1.34c-2.61.39-5.21.71-7.82,1.08-9.85,1.38-19.18,4.47-26.64,11.28-3.58,3.27-6.82,6.93-9.98,10.64-3.16,3.71-6.17,7.53-8.79,11.64-6.3,9.9-12.12,20.16-16.5,31.07-3.97,9.9-6.6,20.23-7.76,30.83-1.41,12.82-.75,25.73.65,38.52.65,5.95,1.48,12.02,1.84,17.83s.56,11.65,1.08,17.45c.52,5.76,1.39,11.68,3.15,17s4.33,10.35,7.19,15.17c1.43,2.41,2.93,4.76,4.45,7.11.79,1.22,1.32,2.57,2.06,3.82.69,1.17,1.45,2.31,2.16,3.47,3.13,5.1,6.22,10.16,9.96,14.84s7.87,8.86,12.6,12.67,9.99,7,15.15,10.19c4.91,3.04,9.84,6.28,15.21,8.46,5.03,2.05,10.73,3.22,15.7.39v-.03Z" fill="#fff"/>
  <path d="M232.42,237.83h0c.04,1.03-2.04.81-2.42.19-1.31-2.15-1.79-4.82-2.29-7.17s-.83-4.73-1.05-7.12c-.8-8.67.04-17.44,2.35-25.83,1.15-4.18,2.67-8.25,4.57-12.15.96-1.97,2.01-3.91,3.16-5.78.59-.96,1.24-1.89,1.85-2.85s.92-1.75,1.93-2.37c.6-.36,2.94-.56,2.81.69s-1.24,2.06-1.9,3.06-1.3,2.02-1.91,3.05c-1.18,2.01-2.27,4.08-3.24,6.2-3.58,7.8-5.71,16.24-6.29,24.79-.29,4.26-.2,8.54.28,12.78.24,2.11.58,4.24.98,6.31s1.1,4.08,1.16,6.19h0Z" fill="#fff"/>
  <path d="M244.39,237.19h0c-.43.37-1.05.45-1.59.31-.35-.09-.98-.41-.74-.88.73-1.43,1.77-2.7,2.59-4.06s1.55-2.78,2.19-4.24c1.3-2.99,2.22-6.11,2.69-9.34.21-1.44,3.66-1.3,3.45,0-.53,3.34-1.46,6.64-2.89,9.72-.72,1.55-1.54,3.03-2.47,4.48s-1.9,2.9-3.23,4.01h0Z" fill="#fff"/>
  <path d="M252.96,218.93c.17.82-1.34,1.07-1.82,1.09-1.72.08-3.4-.73-4.98-1.34-1.39-.54-2.75-1.21-4.12-1.81-2.86-1.25-5.72-2.51-8.48-3.97-1.08-.57-.94-1.77,0-2.36,1.14-.72,2.68-.59,3.84,0,2.61,1.33,5.31,2.45,8.01,3.59,1.48.62,3,1.2,4.39,1.99,1.18.67,2.86,1.36,3.16,2.81h0Z" fill="#fff"/>
  <path d="M236.29,211.91h0c-.6.49-1.49.63-2.22.35-.5-.2-1.15-.8-.58-1.32,4.36-3.97,8.79-7.85,13.05-11.91l-.24,1.11c-1.01-1.64-1.56-3.66-2.29-5.5s-1.43-3.69-2.12-5.54c-1.38-3.7-2.74-7.4-4.07-11.12l4.25.69c-.7.36-1.31.61-2.11.63-.29,0-.58-.01-.87-.05-.86-.2-.67-.18.56.05-.86,0-1.96-.31-2.12-1.27-.09-.54.19-.85.54-1.23.97-1.03,4.08-1.22,4.65.37,1.37,3.79,2.76,7.58,4.18,11.35.72,1.92,1.44,3.84,2.15,5.77.65,1.78,1.55,3.61,1.88,5.48.08.43-.42.81-.69,1.02-4.73,3.62-9.31,7.42-13.96,11.14v-.02Z" fill="#fff"/>
  <path d="M393.59,227.18h0c.06,1.41-2.71,1.22-3.36.54-.93-.98-1.4-2.27-1.97-3.47-.51-1.08-.99-2.17-1.44-3.27-.94-2.31-1.76-4.67-2.62-7.01-2.98-8.08-5.24-16.48-6.08-25.06-.87-8.92-.07-17.85,2.26-26.5.37-1.36,4.03-1.05,3.59.59-1.31,4.91-2.1,9.95-2.34,15.03-.4,8.49.78,16.98,3.03,25.16,1.13,4.13,2.46,8.25,4.1,12.21.83,1.99,1.74,3.95,2.62,5.91.45,1.01.87,2.05,1.31,3.07.39.91.86,1.77.9,2.78v.03Z" fill="#fff"/>
  <path d="M404.99,226.66h0c-.39.62-2.18.77-2.27-.18-.18-1.93.36-4.03.68-5.93.35-2.11.62-4.23.8-6.36.38-4.49.49-8.98.07-13.47-.12-1.33,3.24-1.39,3.37,0,.43,4.55.53,9.15.09,13.7-.22,2.2-.51,4.4-.92,6.57-.36,1.9-.78,4.02-1.82,5.67h0Z" fill="#fff"/>
  <path d="M388.99,198.09h0c-.89-.57-.13-1.32.64-1.43,1.52-.23,3.06.1,4.57.29,1.39.18,2.71.45,4.13.7s2.9.51,4.27.75,3.11.29,4.31,1.05c.24.15.64.5.59.85-.28,1.84-3.26,1.17-4.49.94-1.57-.3-3.15-.6-4.72-.89s-3.16-.55-4.72-.89c-1.48-.32-3.28-.53-4.57-1.36h-.01Z" fill="#fff"/>
  <path d="M390.9,198.03h0c-.61.48-2.36.77-2.72-.21-.34-.93.13-1.8.43-2.72s.59-1.84.94-2.74c.74-1.88,1.51-3.76,2.35-5.6.9-1.97,1.88-3.92,2.95-5.81.99-1.75,2.05-4.28,4.04-5.01.56-.21,1.97-.22,2.24.54.38,1.08-.48,1.96-1.03,2.82s-1.07,1.73-1.57,2.62c-1.01,1.79-1.95,3.64-2.79,5.48s-1.63,3.71-2.37,5.6c-.34.86-.7,1.67-1.07,2.55s-.63,1.88-1.4,2.49h0Z" fill="#fff"/>
  <path d="M381.4,161.84h0c-.43-.94,1.5-.9,1.93-.66,3.45,1.96,6.44,4.81,9.39,7.25s5.86,4.91,8.57,7.62c.75.76-.05,1.58-.8,1.85-.95.35-2.3.27-3.05-.48-2.72-2.69-5.65-5.15-8.54-7.64-2.69-2.32-5.99-4.62-7.5-7.94h0Z" fill="#fff"/>
  <path d="M220.41,389.31h0c.11.24.11.49,0,.73l-.23.33c-.16.18-.36.31-.58.39-.15.09-.32.15-.5.18-.28.09-.57.12-.87.12l-.6-.05c-.27-.04-.53-.12-.77-.25-.22-.09-.41-.22-.58-.39-.14-.18-.29-.35-.43-.52.68.24,1.35.47,2.03.71h-.08c-.34.01-.66-.03-.98-.13-.2-.03-.39-.1-.56-.2-.25-.1-.46-.24-.65-.44l-.26-.37c-.1-.16-.19-.32-.28-.48-.1-.2-.11-.41-.04-.61.02-.22.12-.41.3-.57l.07-.06-.32.71c-.05-.32.15-.57.34-.81.16-.17.35-.29.56-.37.15-.09.31-.14.48-.17.27-.08.55-.11.84-.11l.58.05c.4.07.83.17,1.16.42l-1.64-.41c.25.01.5.03.75.06.3.03.59.13.85.27.25.12.48.21.66.45.04.04.07.09.11.14.08.1.15.19.22.29.18.16.28.35.3.58.06.13.06.27,0,.41-.02.23-.12.42-.3.58l-.4.31-.05.04.61-1.39c.09.19.19.37.28.56h-.02Z" fill="#fff"/>
  <path d="M194.91,300.33h0c.12-.13.27-.22.43-.28.12-.07.24-.11.37-.13.21-.07.42-.09.64-.09l.44.04c.14.03.29.07.42.11,0,.01.03.01.04.01.08.02.11.04.22.09.22.1.16.06.34.2.07.06.14.11.21.17l-1.6-.55c.1,0,.2,0,.3.02.25,0,.5.05.74.14.14.06.27.13.41.2h.02c.18.09.32.22.42.39.04.05.08.1.11.15,0,.02.03.03.03.05.04.06.07.11.11.17.02.03.06.09.06.09v.02l.07.33v.05s0,.06,0,.09c0,.19-.05.34-.17.47-.06.12-.15.21-.26.27-.17.14-.36.25-.57.31l-.07.03.63-.37c-.1.07-.19.16-.3.22-.24.13-.48.22-.75.26l-.45.04c-.34.01-.62-.07-.94-.16l.91.15c-.11.01-.21,0-.32-.02-.26,0-.51-.05-.75-.14l-.41-.19-.32-.24s-.05-.05-.07-.07c0-.01-.03-.03-.04-.04-.07-.1-.14-.2-.22-.3v-.02c-.05-.08-.07-.27-.09-.4,0-.06-.02-.12-.04-.18v-.04c0-.08,0-.07.03-.2.05-.21.02-.14.15-.32.09-.17.23-.3.41-.39l.07-.04-.54.78s0-.04,0-.06c.06-.31.02-.23.16-.43.06-.09.06-.11.12-.15,0-.01.04-.03.04-.03h.01Z" fill="#fff"/>
  <path d="M207.35,276.6h0c-.21.12-.43.19-.66.23l-.4.03c-.19,0-.38-.02-.57-.08-.12,0-.23-.05-.33-.11-.14-.06-.27-.14-.38-.25l-.15-.21c-.07-.12-.07-.23-.03-.35.02-.13.08-.24.18-.33,0-.01.03-.04.03-.04l-.15.21s.06-.13.06-.13l-.06.24v-.04l.77.79-.07-.02c-.24-.08-.45-.2-.63-.37-.15-.14-.24-.31-.24-.52,0-.03,0-.07,0-.07l.06.28c-.03-.1-.07-.18-.12-.26l.18.26c-.05-.07-.1-.12-.16-.17l.29.22s-.11-.07-.11-.07l.83.29h-.03l.5.04h-.07l.52-.04h-.05l.48-.12s-.03.01-.03.01l.41-.19s-.03.02-.04.02c.1-.09.21-.17.32-.25h0l-.33-1.52c.07.03.14.07.21.11.3.17.44.36.61.64.02.03.03.05.05.08.06.12.13.22.2.34s.14.23.21.35c.04.06.07.11.1.16.03.06.08.12.1.18.1.24.1.47,0,.71l-.22.32c-.16.17-.35.29-.57.37-.16.09-.32.14-.49.17-.28.08-.56.11-.85.11l-.59-.05c-.27-.03-.52-.11-.75-.24-.22-.08-.41-.2-.57-.37-.13-.12-.23-.31-.33-.47-.04-.06-.07-.11-.11-.17-.08-.11-.15-.21-.22-.33s-.15-.23-.22-.35c-.1-.15-.17-.29-.16-.49,0-.06.03-.12.03-.18,0-.25.1-.46.28-.63.22-.21.47-.36.75-.45.34-.11.69-.17,1.05-.17s.71.05,1.05.17c.28.11.6.26.81.49.09.09.2.22.24.36l-.19-.27c.11.12.2.25.28.39.05.09.07.19.09.29s.05.2.05.31v.08c-.02.12-.05.24-.08.36-.11.2-.25.35-.45.46-.24.14-.5.23-.77.28h-.08l1.08-.64c-.16.24-.32.44-.59.57l.04.03Z" fill="#fff"/>
  <path d="M337.74,282.63h0c-.07-.12-.08-.25-.03-.37.02-.14.08-.26.19-.35l.25-.19.32-.15c.19-.07.39-.11.59-.11.14-.02.28-.02.42,0,.2,0,.4.04.59.11l.32.15c.1.05.2.09.3.14.02.01.05.02.07.03.13.06.23.16.33.25l.11.1c.15.14.24.31.24.52l-.06.28c-.11.2-.25.35-.45.46l-.35.16c-.21.07-.43.12-.65.12-.23.03-.46.02-.69-.02-.21-.03-.41-.09-.59-.19-.17-.06-.32-.16-.45-.29l-.11-.1c-.11-.09-.18-.21-.24-.34-.03-.07-.07-.14-.1-.21h0Z" fill="#fff"/>
  <path d="M441.6,265.69h0c-.19-.19-.3-.43-.31-.7,0-.2.07-.38.2-.53.11-.2.27-.35.47-.45.23-.15.48-.24.74-.29.28-.09.58-.12.88-.12.4,0,.79.06,1.16.19l.46.22c.26.14.46.35.59.61.13.2.25.41.38.61.06.1.13.21.19.31.04.05.06.09.08.15s.03.11.05.16c.1.23.1.47,0,.7-.13.25-.32.44-.56.58-.13.09-.28.16-.44.21-.35.12-.71.18-1.08.18-.19,0-.39-.02-.59-.05-.34-.06-.66-.17-.96-.34-.18-.12-.33-.26-.49-.4-.11-.1-.18-.23-.26-.34-.17-.24-.33-.47-.5-.71h-.01Z" fill="#fff"/>
  <path d="M203.02,136.21h0c-.19-.19-.3-.43-.31-.7,0-.2.07-.38.2-.53.11-.2.27-.35.47-.45.23-.15.48-.24.74-.29.28-.09.58-.12.88-.12.4,0,.79.06,1.16.19l.46.22c.26.14.46.35.59.61.13.2.25.41.38.61.06.1.13.21.19.31.04.05.06.09.08.15s.03.11.05.16c.1.23.1.47,0,.7-.13.25-.32.44-.56.58-.13.09-.28.16-.44.21-.35.12-.71.18-1.08.18-.19,0-.39-.02-.59-.05-.34-.06-.66-.17-.96-.34-.18-.12-.33-.26-.49-.4-.11-.1-.18-.23-.26-.34-.17-.24-.33-.47-.5-.71h-.01Z" fill="#fff"/>
  <path d="M220.72,424.99h0c-.19-.19-.3-.43-.31-.7,0-.2.07-.38.2-.53.11-.2.27-.35.47-.45.23-.15.48-.24.74-.29.28-.09.58-.12.88-.12.4,0,.79.06,1.16.19l.46.22c.26.14.46.35.59.61.13.2.25.41.38.61.06.1.13.21.19.31.04.05.06.09.08.15s.03.11.05.16c.1.23.1.47,0,.7-.13.25-.32.44-.56.58-.13.09-.28.16-.44.21-.35.12-.71.18-1.08.18-.19,0-.39-.02-.59-.05-.34-.06-.66-.17-.96-.34-.18-.12-.33-.26-.49-.4-.11-.1-.18-.23-.26-.34-.17-.24-.33-.47-.5-.71h-.01Z" fill="#fff"/>
  <path d="M456.62,284.62h0c.13-.26.4-.4.65-.5.28-.1.61-.12.9-.1s.56.09.81.23c.12.06.22.15.29.27.08.09.12.19.12.32l-.05.26-.42-.6.04.02c.14.07.25.16.32.29.09.1.13.21.13.35l-.12.61c-.02.13-.04.26-.09.38,0,.05-.03.09-.05.14-.04.1-.08.21-.12.31-.09.18-.23.32-.41.42l-.32.15c-.39.15-.83.16-1.24.1-.2-.02-.38-.08-.55-.17-.15-.06-.29-.15-.41-.27-.11-.09-.18-.21-.19-.35-.05-.13-.04-.25.03-.38.03-.11.07-.23.1-.34s.07-.21.12-.32.1-.21.15-.32c.03-.06.05-.11.08-.17.09-.18.24-.34.41-.43.23-.12.47-.2.72-.24l-1.01.59c.04-.08.08-.17.12-.25h-.01Z" fill="#fff"/>
  <path d="M439.07,305.2h0c.15.07.26.18.34.31.09.1.14.22.14.37l-.06.26-.16.23c-.12.12-.26.21-.42.27-.11.06-.23.1-.36.12-.21.06-.42.08-.63.08l-.43-.03h-.04l.44.03h-.08l.44-.04s-.08.01-.08.01l.4-.1s-.08.03-.08.03l.35-.16s-.03.02-.04.02c.15-.34.3-.67.45-1v.02c.09.2.09.39,0,.58-.11.21-.27.37-.47.48-.01.01-.04.03-.04.03l.29-.22c-.06.05-.11.1-.15.16l.19-.26c-.05.07-.08.15-.1.23l.07-.3v.17l-1.9-1.13c.09,0,.18,0,.27.02.26,0,.5.05.74.14.13.06.27.12.4.19h.01c.18.09.31.22.41.39.09.08.14.18.14.3.01.07.03.13.04.19l-.07-.32c.02.06.04.12.08.17l-.2-.29s.11.12.11.12l-.31-.24s.12.07.12.07l-.41-.19c.14.06.29.12.43.2.12.07.22.17.33.26l-.31-.24s.1.06.1.06l-.4-.18s.1.03.1.03l-.46-.12s.11.02.11.02l-.5-.04c.09,0,.17.02.26.02.16,0,.32.03.47.08.22.06.44.12.63.26-.4-.1-.8-.2-1.2-.3h.01l-.45.04s.11-.02.11-.02l-.39.1s.11-.04.11-.04l-.32.15s.05-.03.08-.05c.15-.1.32-.16.49-.19.13-.04.26-.06.39-.06.14-.02.27-.02.41,0,.14,0,.26.02.39.06.17.04.34.1.49.19l.24.18.15.22.05.24c0,.12-.04.25-.07.36-.01.04-.02.07-.04.1.02-.09.04-.18.07-.27v.05c-.01.22-.09.41-.25.56-.19.18-.42.32-.67.4-.35.16-.8.19-1.18.21-.21.02-.47-.02-.65-.04h-.06l-.48-.12c-.08-.03-.15-.06-.22-.1-.07-.03-.14-.07-.21-.1-.01-.01-.03-.01-.03-.01-.15-.08-.28-.2-.41-.31-.04-.02-.06-.06-.09-.09-.08-.11-.16-.22-.23-.33-.01-.02-.03-.04-.03-.06-.05-.14-.08-.3-.1-.45,0-.18.05-.33.17-.46.09-.17.23-.3.41-.39.21-.15.65-.28.9-.31l-1.39,1.09c.02-.16.04-.33.12-.49s.19-.3.3-.43c.03-.03.05-.06.08-.08.12-.1.24-.19.37-.28.03-.02.06-.04.09-.05.3-.15.49-.23.83-.29.47-.08.99-.05,1.44.12l-1.33-.1c.66-.1,1.37-.04,1.96.3h-.02Z" fill="#fff"/>
  <path d="M388.08,380.54h0c-.12-.11-.19-.25-.19-.41l.05-.21c.07-.2.31-.34.49-.42.26-.12.54-.17.83-.17.34,0,.67.09.97.24.15.07.28.18.4.28.05.05.1.11.15.17l-.87-.39c.09,0,.18.02.26.05.18.03.35.09.51.19l.25.19.16.22s.03.05.05.08c.06.09.09.17.11.28.03.16.06.3.03.46-.04.19-.07.4-.17.57-.08.12-.17.25-.26.36-.03.05-.08.09-.12.12-.17.16-.38.28-.61.36-.2.08-.41.12-.63.12-.23.03-.45.02-.68-.02-.21-.02-.4-.08-.58-.18-.17-.06-.31-.15-.44-.28-.14-.14-.23-.31-.23-.51l.06-.27c.1-.2.25-.34.44-.45.02-.01.05-.03.05-.03l-.27.2c.06-.05.12-.11.17-.18l-.17.24c.07-.1.12-.21.15-.33l-.06.26c.03-.09.03-.19.03-.28s.02-.18.02-.27c0-.14.05-.26.14-.36.08-.13.19-.23.33-.3l.06-.03-.37.84c-.03-.1-.06-.18-.12-.26l.14.2s-.06-.08-.06-.08h-.02Z" fill="#fff"/>
  <path d="M336.59,414.75h0c0-.18.08-.33.21-.46l.24-.19c.21-.13.44-.2.68-.24l.41-.03c.21-.01.41.02.6.08.18.03.34.1.5.19.14.06.24.16.32.29.09.09.13.21.13.35-.01.08-.01.15-.03.23v.11c-.01.11-.02.24-.07.34-.06.13-.15.23-.27.3-.12.11-.26.18-.42.23l-.36.09-.4.03c-.2,0-.39-.02-.58-.08-.12,0-.23-.05-.33-.11-.15-.05-.28-.14-.39-.25l-.15-.21c-.06-.1-.06-.23-.08-.34v-.11l-.02-.23h0Z" fill="#fff"/>
  <path d="M113.59,261.04h0c0-.18.08-.33.21-.46l.24-.19c.21-.13.44-.2.68-.24l.41-.03c.21-.01.41.02.6.08.18.03.34.1.5.19.14.06.24.16.32.29.09.09.13.21.13.35,0,.08,0,.15-.03.23v.11c0,.11-.02.24-.07.34-.06.13-.15.23-.27.3-.12.11-.26.18-.42.23l-.36.09-.4.03c-.2,0-.39-.02-.58-.08-.12,0-.23-.05-.33-.11-.15-.05-.28-.14-.39-.25l-.15-.21c-.06-.1-.06-.23-.08-.34v-.11l-.02-.23h0Z" fill="#fff"/>
  <path d="M218.53,133.01h0c.01-.18.08-.33.21-.46l.24-.19c.21-.13.44-.2.68-.24l.41-.03c.21,0,.41.02.6.08.18.03.34.1.5.19.14.06.24.16.32.29.09.09.13.21.13.35,0,.08,0,.15-.03.23v.11c-.01.11-.02.24-.07.34-.06.13-.15.23-.27.3-.12.11-.26.18-.42.23l-.36.09-.4.03c-.2,0-.39-.02-.58-.08-.12,0-.23-.05-.33-.11-.15-.05-.28-.14-.39-.25l-.15-.21c-.06-.1-.06-.23-.08-.34v-.11l-.02-.23h0Z" fill="#fff"/>
  <path d="M282.45,149.52h0c-.3,0-.6-.07-.86-.21-.16-.09-.29-.23-.33-.41-.04-.09-.03-.19.02-.28l.12-.17c.18-.2.49-.27.73-.33.07-.02.14-.04.21-.04l-.75.34.08-.09c.29-.31.72-.44,1.13-.52.26-.05.51-.05.76-.02.25,0,.48.05.71.13.5.19.91.43,1.31.78.1.09.19.19.27.29.14.18.28.37.38.58.09.2.09.4,0,.6l-.19.27c-.19.19-.42.33-.68.41l-.45.11c-.26.05-.51.05-.76.02-.25,0-.48-.05-.71-.13-.33-.12-.71-.34-.87-.68-.05-.1-.1-.18-.16-.27l.19.27c-.11-.15-.24-.28-.39-.4l.3.23c-.12-.09-.25-.17-.39-.23l.38.18c-.05-.02-.11-.04-.16-.06-.39-.15-.96-.47-.93-.98v-.12l.92.71h-.08l.33.03h-.14.01Z" fill="#fff"/>
  <path d="M332.68,164.47h0c-.04-1.57,3.88-1.56,3.83,0v.28c-.04,1.15-1.87,1.24-2.65,1.04-.95-.25-1.67-1.16-.61-1.85l.22-.14c.6-.39,1.67-.39,2.27,0l.22.14c1.06.69.34,1.6-.61,1.85-.77.21-2.61.11-2.65-1.04v-.28h-.02Z" fill="#fff"/>
  <path d="M113.19,304.39h0c-.04-1.57,3.88-1.56,3.83,0v.28c-.04,1.15-1.87,1.24-2.65,1.04-.95-.25-1.67-1.16-.61-1.85l.22-.14c.6-.39,1.67-.39,2.27,0l.22.14c1.06.69.34,1.6-.61,1.85-.77.21-2.61.11-2.65-1.04v-.28h-.02Z" fill="#fff"/>
  <path d="M294.16,172.32c-.48,0-1.45-.2-1.45-.85s.97-.85,1.45-.85,1.45.2,1.45.85-.96.85-1.45.85h0Z" fill="#fff"/>
  <path d="M119.3,317.44c-.48,0-1.45-.2-1.45-.85s.97-.85,1.45-.85,1.45.2,1.45.85-.96.85-1.45.85h0Z" fill="#fff"/>
  <path d="M364.18,242.39h0c.26,1.13-1.6,1.08-2.23.76-.88-.46-1.88-.81-2.55-1.55-.59-.65-1.13-1.37-1.66-2.07-8.44-11.15-11.93-25.9-9.7-39.68,2.05-12.6,8.89-25.07,19.29-32.65,10.82-7.88,26.04-10,38.71-5.97,6.51,2.07,12.5,5.73,17.63,10.2,4.78,4.16,8.15,9.52,10.45,15.41,2.72,6.98,3.69,14.6,2.96,22.03-.7,7.18-2.35,14.98-6.16,21.19-.88,1.43-2.73,1.82-4.31,1.54-1.27-.22-3.02-1.1-2.44-2.71s1.26-3.17,1.9-4.76c2.61-6.44,4.26-13.09,4.25-20.19s-1.68-14.05-4.96-20.36c-1.28-2.46-2.72-4.84-4.6-6.89-1.66-1.82-3.47-3.41-5.29-4.77-4.92-3.7-10.72-6.9-16.7-8.23-11.09-2.48-22.9.92-31.24,8.82-8.93,8.46-14.35,20.91-14.99,33.13-.34,6.65.59,13.34,2.77,19.62,1.08,3.09,2.45,6.05,4.07,8.89.82,1.45,1.7,2.87,2.68,4.22.48.66,1.01,1.33,1.48,1.94s.46,1.33.63,2.07h0Z" fill="#fff"/>
  <path d="M243.28,236.81c4.23-2.65,7.97-17.82,7.97-17.82l-16.39-7.54,13.69-11.67-7.74-23.06c-20.81,29.55-9.65,60.13-9.65,60.13,2.63-1.13,12.12-.04,12.12-.04Z" fill="#fff"/>
  <path d="M382.52,161.66l17.05,15.3c-2.5,1.95-9.97,20.63-9.97,20.63l16.34,3.14c2.38,5.43-1.84,24.92-1.84,24.92l-10.82,2.24c-22.06-36.13-10.78-66.23-10.78-66.23h.01Z" fill="#fff"/>
  <path d="M251.26,307.06c3.84,7.42,15.82,16.49,15.82,16.49l.07,30.65,25.35,6.83.98-23.19c10.4,4.15,33.35,2.99,33.35,2.99l3.07,20.81,26.36-7.06c1.83-1.99,1.52-22.73,1.52-22.73,23.41-9.93,36.34-35.28,36.34-35.28,11.35,25.75-.45,50.18-.45,50.18-18.38,52.26-71.6,56.24-71.6,56.24-17.71.96-57.01-2.09-73.51-35.16-17.74-35.59,2.7-60.77,2.7-60.77h0Z" fill="#fff"/>
  <path d="M200.77,153.39l-.98,3.5c-7.99,6.12-19.67,18.67-19.67,18.67-25.62,27.28-36.76,64.96-36.76,64.96-19.74,75.69,19.77,126.3,19.77,126.3,17.49,27.11,40.56,39.09,40.56,39.09l17.32,10.88c-11.64,12.05-41.62-12.14-54.09-21.91-12.48-9.78-12.59-19.07-23.48-31.41-10.9-12.33-15.16-26.38-14.62-40.43.55-14.05-5.01-33.24-4.23-50.36s1.09-37.23,11.18-59.07c10.09-21.84,14.76-26.4,28.36-43.15s36.65-17.05,36.65-17.05h0Z" fill="#fff"/>
</svg>