<?xml version="1.0" encoding="UTF-8"?>
<svg id="a" xmlns="http://www.w3.org/2000/svg" viewBox="0 0 573 555">
  <path d="M84.46,183.71l7.61-14.07c1.86-3.44,3.34-6.58,4.43-9.41,1.09-2.83,1.86-5.4,2.3-7.69.44-2.29.6-4.34.46-6.13s-.51-3.37-1.11-4.75-1.4-2.56-2.41-3.56c-1.01-.99-2.15-1.84-3.43-2.53-2.31-1.25-4.42-1.93-6.35-2.04-1.92-.11-3.67.16-5.24.82s-2.96,1.6-4.18,2.82-2.27,2.53-3.17,3.94c.38-.81.72-1.67,1.01-2.61.29-.93.49-1.88.6-2.85s.11-1.94,0-2.91-.36-1.91-.77-2.83-1-1.78-1.76-2.59c-.77-.81-1.75-1.54-2.97-2.2-1.05-.57-2.14-1.06-3.29-1.48-1.14-.41-2.35-.63-3.61-.63s-2.58.27-3.97.81c-1.38.55-2.84,1.48-4.36,2.82s-3.13,3.14-4.82,5.41c-1.69,2.27-3.47,5.13-5.33,8.57l-8.91,16.48c-1.32,2.43-2.35,4.66-3.09,6.7-.75,2.03-1.17,3.85-1.28,5.46s.12,2.99.67,4.16c.56,1.17,1.47,2.1,2.75,2.79.5.27.92.34,1.27.21s.68-.34.99-.64.63-.63.96-1c.34-.36.73-.66,1.18-.88.46-.22,1-.32,1.64-.29.64.02,1.41.28,2.32.77l23.31,12.61c.92.5,1.57,1,1.93,1.52.37.51.58,1.02.64,1.52.07.5.04.99-.09,1.47-.12.48-.23.93-.31,1.35s-.08.82,0,1.18c.09.37.38.68.87.95,1.28.69,2.56.95,3.85.78s2.58-.74,3.86-1.71,2.57-2.32,3.87-4.06c1.3-1.73,2.6-3.82,3.92-6.25v-.03h0ZM65.01,153.41c-.6,1.11-1.08,1.97-1.45,2.57-.36.6-.65,1.04-.86,1.33-.24.35-.42.56-.54.63l-9.37-5.07c-.76-.41-1.48-.83-2.16-1.25s-1.22-.89-1.62-1.4c-.4-.51-.63-1.09-.69-1.75-.05-.65.15-1.41.62-2.28.59-1.09,1.26-1.89,2.01-2.39s1.59-.77,2.5-.81c.92-.04,1.92.13,3,.52,1.08.38,2.24.91,3.48,1.58,1.15.63,2.16,1.24,3.02,1.84s1.53,1.23,2,1.88c.47.66.73,1.36.76,2.11s-.2,1.58-.69,2.49h0ZM70.16,156.19c.49-.91,1.06-1.56,1.71-1.94.64-.38,1.37-.57,2.16-.53s1.68.25,2.65.64c.97.4,2.04.91,3.19,1.53,1.26.68,2.34,1.37,3.26,2.06s1.61,1.43,2.08,2.22.69,1.63.69,2.53-.31,1.9-.9,2.99c-.46.87-.99,1.46-1.57,1.77s-1.19.44-1.84.38c-.65-.05-1.34-.25-2.06-.59s-1.47-.72-2.23-1.13l-9.37-5.07c0-.12.09-.39.23-.79.12-.33.34-.81.64-1.45.3-.63.76-1.51,1.36-2.62h0Z" fill="#f33"/>
  <path d="M134.82,115.88c3.43-3.2,6.13-6.27,8.11-9.19s3.38-5.72,4.2-8.4c.82-2.67,1.13-5.24.94-7.69-.19-2.46-.75-4.8-1.68-7.05s-2.14-4.4-3.65-6.48-3.16-4.07-4.95-5.99c-1.58-1.7-3.29-3.23-5.13-4.59s-3.79-2.45-5.85-3.27c-2.06-.82-4.22-1.33-6.49-1.54s-4.63,0-7.1.59c-2.46.6-5.01,1.66-7.64,3.17-2.63,1.51-5.34,3.56-8.11,6.15-3.45,3.22-6.18,6.27-8.2,9.15-2.02,2.88-3.46,5.64-4.33,8.26s-1.23,5.13-1.08,7.52.68,4.7,1.59,6.93,2.13,4.39,3.65,6.48,3.22,4.15,5.11,6.17c1.65,1.77,3.43,3.32,5.34,4.66,1.91,1.34,3.93,2.4,6.08,3.19,2.15.78,4.39,1.26,6.72,1.42,2.34.16,4.73-.05,7.19-.65s4.97-1.63,7.53-3.07,5.13-3.37,7.72-5.79l.03.02h0ZM129.94,107.75c-.79.73-1.75,1.03-2.9.88s-2.4-.6-3.76-1.35-2.79-1.74-4.29-2.97-2.99-2.55-4.48-3.97c-1.48-1.42-2.93-2.87-4.34-4.34-1.41-1.48-2.7-2.84-3.87-4.09-1.28-1.37-2.36-2.62-3.24-3.75-.88-1.14-1.52-2.18-1.92-3.14s-.52-1.86-.37-2.69c.16-.84.63-1.63,1.44-2.38.78-.73,1.69-1.09,2.73-1.06,1.03.02,2.15.33,3.36.92,1.21.58,2.47,1.39,3.79,2.4,1.32,1.02,2.65,2.16,3.99,3.42,1.34,1.27,2.67,2.59,3.99,3.97,1.33,1.38,2.59,2.72,3.81,4.02l1.08,1.16c1.38,1.47,2.55,2.84,3.53,4.11.98,1.27,1.7,2.44,2.17,3.51s.66,2.05.57,2.93c-.09.89-.52,1.69-1.29,2.41h0Z" fill="#f33"/>
  <path d="M186.98,63.96l-12.59-25.69c-.46-.93-.69-1.71-.69-2.35s.12-1.19.36-1.63c.24-.44.55-.83.94-1.15s.74-.63,1.05-.93c.31-.29.54-.62.68-.96s.09-.77-.16-1.27c-.64-1.3-1.54-2.25-2.68-2.85s-2.53-.87-4.16-.81c-1.63.06-3.5.43-5.62,1.12-2.11.69-4.46,1.67-7.02,2.93-2.48,1.22-4.62,2.45-6.4,3.68s-3.18,2.47-4.2,3.72-1.64,2.51-1.86,3.78,0,2.56.63,3.86c.24.5.55.8.91.9.36.1.75.12,1.18.05.42-.07.88-.15,1.36-.26s.97-.12,1.47-.04c.5.08,1,.32,1.51.71.5.39.98,1.05,1.44,1.97l11.72,23.77c.46.94.69,1.73.69,2.36s-.12,1.17-.36,1.61-.55.82-.93,1.14c-.38.32-.73.62-1.04.92-.31.29-.54.62-.68.96s-.09.77.16,1.27c.64,1.3,1.54,2.26,2.69,2.87s2.53.89,4.14.84,3.45-.41,5.51-1.07c2.07-.66,4.34-1.61,6.82-2.83l21.56-10.63c1.07-.52,1.95-1.22,2.64-2.08.68-.86,1.21-1.81,1.57-2.85.37-1.04.58-2.15.66-3.32.08-1.18.05-2.34-.08-3.51-.13-1.16-.36-2.29-.69-3.38s-.7-2.07-1.13-2.93c-.43-.88-.96-1.61-1.59-2.19s-1.3-.99-2.03-1.25c-.72-.25-1.49-.35-2.29-.28-.8.07-1.6.3-2.4.69-.67.33-1.28.77-1.83,1.33s-1,1.24-1.34,2.05-.56,1.75-.66,2.83c-.09,1.08-.02,2.31.21,3.68l1.41,6.12c-.67.41-1.19.73-1.55.96s-.65.4-.84.51c-.2.11-.32.19-.38.23s-.11.07-.15.09c-.38.18-.82.33-1.32.43-.5.11-1.01.09-1.54-.06-.53-.14-1.06-.45-1.59-.92-.53-.46-1.03-1.18-1.51-2.15h0,0Z" fill="#f33"/>
  <path d="M231.34,60.27c1.69-.26,3.14-.72,4.36-1.36,1.22-.65,2.2-1.41,2.95-2.3s1.26-1.86,1.55-2.91c.29-1.06.34-2.14.17-3.25-.07-.46-.24-.8-.5-1.02-.26-.21-.57-.36-.91-.44-.35-.08-.72-.13-1.13-.16-.4-.03-.78-.1-1.13-.2-.35-.1-.66-.28-.92-.53s-.44-.65-.52-1.18c-.09-.55-.05-1.29.11-2.22l.46-2.53,14.1-2.22.93,2.31c.27.65.45,1.24.53,1.77.1.62.07,1.12-.1,1.49s-.41.66-.7.89-.63.42-1.01.57c-.37.16-.72.32-1.02.5-.31.17-.55.4-.73.68s-.24.66-.16,1.15c.22,1.44.79,2.62,1.71,3.54s2.16,1.6,3.72,2.03c1.57.44,3.43.64,5.6.62,2.17-.03,4.62-.25,7.35-.68,5.65-.88,9.87-2.21,12.65-3.96s3.95-4.08,3.49-6.97c-.09-.56-.28-.94-.57-1.14-.3-.2-.66-.34-1.1-.41s-.93-.13-1.47-.16-1.09-.16-1.66-.38c-.56-.22-1.12-.59-1.68-1.09s-1.07-1.26-1.53-2.25l-11.77-24.83c-.33-.73-.53-1.34-.61-1.83-.08-.55-.04-1,.13-1.35s.4-.63.7-.84c.29-.21.62-.39.98-.53s.69-.29,1-.46c.3-.17.55-.37.74-.6.19-.23.25-.55.19-.94-.02-.1-.07-.26-.15-.48-.65-1.75-1.65-3.06-3-3.94-1.35-.88-2.95-1.47-4.8-1.77-1.85-.3-3.89-.37-6.1-.2s-4.52.45-6.9.82c-2.82.44-5.38.98-7.68,1.6s-4.26,1.38-5.89,2.26-2.88,1.93-3.76,3.15c-.87,1.22-1.3,2.65-1.28,4.28,0,.1,0,.23.03.39.1.61.36.98.78,1.11.42.14.88.24,1.38.3.5.07.97.19,1.4.39s.71.65.82,1.37c.04.28.05.61.03.99s-.07.83-.16,1.34l-4.45,27.38c-.18,1.13-.47,2.01-.87,2.65-.39.64-.84,1.16-1.32,1.54-.48.38-.98.67-1.48.87-.51.19-.95.4-1.35.6s-.71.45-.92.73-.28.7-.19,1.26c.17,1.11.56,2.13,1.15,3.04.59.92,1.38,1.68,2.37,2.3s2.16,1.04,3.53,1.28,2.91.22,4.62-.05v-.02h-.01ZM239.15,15.55l8.53,19.36-10.87,1.71s2.34-21.07,2.34-21.07Z" fill="#f33"/>
  <path d="M318.94,57.34c3.53.46,6.81.46,9.84,0,3.03-.47,5.68-1.26,7.95-2.37,2.27-1.11,4.1-2.47,5.48-4.09,1.38-1.61,2.19-3.35,2.43-5.21.16-1.19.05-2.15-.33-2.88-.38-.74-.89-1.15-1.54-1.23-.35-.05-.74,0-1.18.18s-.86.46-1.27.88c-.33.31-.81.63-1.46.96-.65.33-1.41.62-2.28.87s-1.82.44-2.85.55c-1.04.12-2.07.11-3.12-.03-1.02-.13-2.03-.38-3.02-.73-1-.36-1.93-.88-2.81-1.59-.87-.7-1.66-1.62-2.35-2.75s-1.24-2.54-1.65-4.22-.64-3.68-.69-5.99.12-5,.52-8.07c.3-2.32.77-4.31,1.41-5.95s1.36-2.97,2.17-3.99c.81-1.01,1.67-1.74,2.59-2.16.92-.43,1.81-.58,2.67-.47,1.14.15,2.14.76,3.02,1.83s1.41,2.54,1.59,4.41c.14,1.32.41,2.45.82,3.39s.9,1.73,1.48,2.36c.58.64,1.22,1.11,1.91,1.44s1.4.54,2.12.63c.82.11,1.6.06,2.34-.12s1.41-.5,2-.94c.58-.44,1.07-1.01,1.46-1.72.38-.7.64-1.52.76-2.45.3-2.28.05-4.41-.74-6.39s-1.98-3.73-3.57-5.25-3.5-2.78-5.73-3.78-4.64-1.66-7.22-2c-3.9-.51-7.43-.6-10.58-.28-3.15.32-5.98.99-8.47,2s-4.67,2.33-6.54,3.95-3.45,3.49-4.77,5.58-2.37,4.39-3.17,6.87c-.8,2.48-1.37,5.1-1.73,7.84-.31,2.4-.34,4.76-.09,7.1s.77,4.59,1.58,6.75c.81,2.17,1.89,4.2,3.25,6.1,1.36,1.9,3,3.61,4.92,5.11s4.11,2.76,6.58,3.78,5.23,1.72,8.27,2.12v-.03h0Z" fill="#f33"/>
  <path d="M403.78,57.5l-4.73,9.62c-.47.97-.96,1.65-1.47,2.04-.5.4-1.01.64-1.51.73-.5.09-1,.08-1.49-.03s-.95-.2-1.38-.25c-.43-.06-.83-.04-1.19.06-.36.09-.66.4-.91.9-.64,1.3-.86,2.6-.64,3.88s.85,2.55,1.89,3.81c1.04,1.26,2.48,2.51,4.32,3.77,1.83,1.26,4.03,2.52,6.6,3.78,2.52,1.24,4.83,2.2,6.93,2.88,2.09.68,3.95,1.05,5.57,1.1s3-.23,4.15-.84,2.05-1.57,2.69-2.87c.25-.5.29-.93.14-1.28s-.39-.68-.72-1-.7-.65-1.11-.98c-.41-.34-.74-.74-1-1.2s-.39-1.02-.39-1.68c-.01-.65.22-1.45.69-2.4l11.64-23.65c.46-.93.94-1.58,1.46-1.97.51-.39,1.03-.62,1.55-.69s1.04-.05,1.55.08.99.22,1.44.3.86.07,1.23-.02.68-.39.93-.89c1.28-2.61.87-5.16-1.25-7.65s-5.71-4.99-10.78-7.48c-5.15-2.54-9.36-3.89-12.64-4.05s-5.56,1.06-6.84,3.67c-.25.5-.3.93-.16,1.27.14.34.37.66.68.96s.66.61,1.05.93.7.71.94,1.15.36.98.36,1.62-.22,1.43-.68,2.35l-3.91,7.95-14.16-6.97,3.91-7.95c.45-.92.94-1.58,1.44-1.97s1-.63,1.5-.71,1-.06,1.49.05c.5.12.95.21,1.38.27s.82.05,1.18-.05c.36-.09.66-.4.91-.9.64-1.3.85-2.59.63-3.86-.23-1.27-.86-2.53-1.9-3.79s-2.48-2.51-4.32-3.77c-1.83-1.26-4.03-2.52-6.6-3.78-2.48-1.23-4.76-2.17-6.82-2.83-2.06-.67-3.9-1.02-5.51-1.07s-2.99.23-4.13.83c-1.15.59-2.04,1.55-2.68,2.85-.25.5-.3.93-.16,1.27.14.34.37.66.68.96.32.3.66.6,1.04.92s.69.7.93,1.14.36.98.36,1.62-.22,1.43-.68,2.35l-11.7,23.77c-.47.95-.95,1.61-1.45,1.99s-1,.61-1.5.69c-.5.08-.99.07-1.47-.04s-.94-.19-1.36-.26c-.43-.06-.82-.05-1.18.05-.36.09-.66.4-.91.9-.64,1.3-.86,2.6-.64,3.88.22,1.28.84,2.54,1.86,3.79s2.43,2.49,4.21,3.72c1.79,1.23,3.92,2.46,6.4,3.68,5.13,2.53,9.34,3.87,12.63,4.04s5.58-1.06,6.87-3.69c.25-.5.3-.92.16-1.27-.14-.35-.36-.67-.67-.98-.3-.3-.65-.62-1.04-.94s-.71-.71-.95-1.17-.37-1.01-.37-1.67c-.01-.65.22-1.45.69-2.4l4.73-9.62,14.23,7h-.04,0Z" fill="#f33"/>
  <path d="M432.65,106.97c1.19,1.24,2.4,2.16,3.62,2.79,1.22.62,2.41.99,3.57,1.09,1.16.11,2.25-.03,3.28-.4,1.02-.37,1.94-.95,2.75-1.73.34-.33.52-.66.55-1s-.03-.67-.16-1c-.14-.33-.31-.67-.52-1.02s-.37-.7-.49-1.04-.15-.7-.09-1.06c.06-.37.28-.74.67-1.11.4-.4,1.03-.79,1.88-1.19l2.33-1.08,9.92,10.27-1.35,2.09c-.37.59-.75,1.08-1.14,1.45-.45.44-.88.69-1.28.77-.4.07-.77.05-1.13-.06s-.71-.28-1.05-.5c-.35-.22-.68-.4-1-.55-.32-.14-.65-.21-.98-.2s-.68.19-1.03.53c-1.04,1.01-1.68,2.16-1.91,3.44s-.07,2.68.47,4.21c.54,1.52,1.45,3.17,2.71,4.93,1.27,1.77,2.86,3.64,4.78,5.63,3.97,4.12,7.47,6.81,10.51,8.08s5.61.89,7.72-1.15c.4-.39.6-.76.6-1.12s-.1-.74-.29-1.14-.43-.83-.71-1.29c-.28-.46-.49-.99-.64-1.58s-.18-1.26-.08-2c.09-.74.41-1.59.96-2.54l13.57-23.9c.41-.69.8-1.21,1.15-1.55.4-.4.8-.62,1.18-.68s.74-.03,1.09.09.68.29,1,.5.63.4.95.55.62.24.92.26c.3.02.59-.1.88-.38.06-.06.16-.19.3-.39,1.06-1.54,1.55-3.11,1.5-4.72-.06-1.61-.49-3.26-1.31-4.95-.81-1.68-1.93-3.38-3.34-5.1s-2.95-3.44-4.63-5.18c-1.99-2.06-3.9-3.85-5.73-5.37s-3.57-2.7-5.23-3.52-3.24-1.24-4.74-1.26c-1.5,0-2.91.45-4.24,1.41-.08.04-.18.13-.3.24-.44.42-.59.84-.46,1.27.13.42.32.86.55,1.3.24.44.4.89.49,1.36s-.13.96-.65,1.46c-.2.2-.46.4-.79.6-.32.2-.72.42-1.19.64l-24.96,12.1c-1.02.49-1.91.77-2.66.81s-1.42-.02-2.02-.2-1.12-.41-1.57-.71c-.45-.3-.88-.55-1.27-.76-.4-.21-.77-.32-1.13-.33-.35-.02-.74.17-1.14.56-.81.78-1.41,1.68-1.82,2.69s-.58,2.1-.52,3.26.39,2.37.98,3.62,1.48,2.5,2.69,3.75v.02h-.02ZM455.17,97.81l18.59-10.19-10.96,18.1-7.65-7.91h.02Z" fill="#f33"/>
  <path d="M529.63,161.5c-.42.22-.81.24-1.16.06-.36-.18-.73-.38-1.11-.62-.38-.24-.81-.42-1.26-.54s-.99-.02-1.62.3c-.86.43-1.5,1.06-1.91,1.86s-.66,1.7-.73,2.7.03,2.05.31,3.16c.27,1.11.68,2.19,1.21,3.23.55,1.09,1.23,2.09,2.05,3.02s1.73,1.66,2.74,2.2,2.1.84,3.26.9c1.16.06,2.36-.22,3.59-.85,1.35-.69,2.56-1.77,3.61-3.24,1.06-1.47,1.75-3.31,2.09-5.54.34-2.22.21-4.82-.37-7.8s-1.82-6.31-3.7-10.01c-1.06-2.07-2.21-3.98-3.47-5.75s-2.62-3.32-4.08-4.67c-1.47-1.35-3.02-2.46-4.66-3.33s-3.38-1.45-5.21-1.74c-1.83-.29-3.75-.26-5.75.09-2,.35-4.1,1.08-6.29,2.2-2.22,1.13-3.95,2.5-5.22,4.12-1.26,1.62-2.2,3.37-2.8,5.26s-.93,3.86-.98,5.93c-.05,2.06.04,4.09.25,6.09.21,1.99.5,3.92.87,5.77s.67,3.51.9,4.97c.23,1.46.34,2.67.34,3.65-.01.97-.27,1.59-.79,1.86-.41.21-.87.35-1.36.42-.5.07-1.03-.06-1.62-.38s-1.21-.9-1.88-1.71-1.39-2-2.18-3.54c-.57-1.1-.96-2.14-1.19-3.1-.23-.97-.34-1.81-.33-2.54s.12-1.34.32-1.82c.2-.49.46-.81.77-.97,1.3-.66,2.33-1.48,3.09-2.46.76-.98,1.29-2.03,1.6-3.13.3-1.11.4-2.22.27-3.34s-.43-2.15-.91-3.09c-.39-.77-.9-1.45-1.51-2.03s-1.31-1.02-2.11-1.31-1.68-.4-2.64-.33c-.96.07-1.98.38-3.04.92-1.4.71-2.55,1.69-3.46,2.93s-1.6,2.66-2.06,4.25c-.47,1.59-.73,3.33-.78,5.21s.07,3.82.4,5.81.82,4.01,1.5,6.06c.67,2.04,1.5,4.03,2.48,5.95,1.67,3.28,3.48,6.17,5.41,8.67s4.02,4.45,6.26,5.85c2.24,1.4,4.64,2.15,7.2,2.27s5.3-.57,8.22-2.06c2.28-1.16,4.07-2.6,5.37-4.33s2.24-3.62,2.83-5.67c.58-2.05.9-4.21.96-6.47.05-2.26-.02-4.51-.23-6.75-.21-2.24-.46-4.4-.76-6.48s-.5-3.98-.6-5.67-.03-3.14.22-4.33.82-2.01,1.72-2.47c.44-.23.91-.39,1.4-.48s1.03,0,1.6.27c.57.28,1.19.8,1.84,1.57s1.36,1.91,2.13,3.41c1.11,2.18,1.69,3.91,1.75,5.21s-.21,2.1-.79,2.4v-.02h0Z" fill="#f33"/>
  <path d="M34.21,289.44c.09-.02.25.29.48.92.23.64.52,1.47.85,2.51.33,1.03.73,2.22,1.19,3.56s.98,2.7,1.57,4.08c.59,1.39,1.24,2.75,1.94,4.1s1.47,2.54,2.3,3.58c.83,1.03,1.72,1.87,2.68,2.52s1.98.97,3.06.97c.83,0,1.71-.16,2.63-.48.92-.32,1.82-.76,2.7-1.31s1.71-1.19,2.49-1.9,1.47-1.45,2.07-2.21,1.07-1.54,1.42-2.32.52-1.51.52-2.18c0-1.36-.42-2.69-1.26-3.98s-1.91-2.49-3.2-3.6c-.86-.71-1.75-1.48-2.7-2.3s-1.87-1.63-2.77-2.44-1.76-1.58-2.58-2.32-1.54-1.39-2.16-1.97c-.63-.58-1.12-1.04-1.49-1.37-.37-.34-.55-.52-.55-.54,1.69-.14,3.41-.31,5.19-.52,1.53-.16,3.2-.35,5.02-.57s3.58-.46,5.29-.71c1.27-.18,2.45-.45,3.56-.81,1.1-.36,2.07-.83,2.9-1.45s1.49-1.37,1.97-2.27c.49-.9.73-1.97.73-3.22,0-.73-.08-1.54-.24-2.4-.17-.86-.43-1.81-.8-2.85-.9-2.53-2-4.36-3.3-5.48-1.31-1.12-2.72-1.68-4.24-1.68-.69,0-1.49.14-2.4.4-.91.27-1.87.61-2.9,1.04-1.02.42-2.08.91-3.16,1.45-1.09.54-2.14,1.09-3.15,1.64-2.42,1.32-4.92,2.82-7.5,4.5.32-1.82.65-3.66.97-5.53.14-.79.29-1.62.45-2.51.16-.88.33-1.77.5-2.66s.35-1.77.52-2.65c.18-.87.36-1.71.54-2.52.14-.64.26-1.29.35-1.95.09-.65.14-1.28.14-1.88,0-1.1-.17-2.14-.5-3.11-.33-.96-.88-1.8-1.64-2.52s-1.77-1.27-3.01-1.68-2.79-.61-4.63-.61-3.39.21-4.63.61c-1.25.41-2.25.97-3.01,1.68-.77.71-1.31,1.55-1.63,2.52s-.48,2-.48,3.11c0,.6.05,1.22.14,1.88.1.65.21,1.3.35,1.95.16.8.34,1.64.52,2.52.19.88.37,1.76.54,2.65s.34,1.77.5,2.66.31,1.73.45,2.51c.32,1.86.65,3.71.97,5.53-2.61-1.69-5.12-3.19-7.54-4.5-1.04-.55-2.1-1.1-3.18-1.64-1.09-.54-2.14-1.02-3.15-1.45-1.02-.43-1.98-.77-2.89-1.04s-1.7-.4-2.37-.4c-1.52,0-2.94.56-4.27,1.68-1.32,1.12-2.42,2.94-3.3,5.48-.35,1.03-.6,1.99-.76,2.85-.16.86-.24,1.66-.24,2.4,0,1.25.24,2.32.71,3.22s1.12,1.66,1.95,2.27c.82.61,1.79,1.09,2.9,1.45s2.31.63,3.6.81c1.7.26,3.46.49,5.27.71,1.81.22,3.48.41,5,.57,1.77.21,3.51.38,5.22.52,0,.03-.18.21-.55.54-.37.34-.87.79-1.49,1.37s-1.35,1.23-2.18,1.97-1.69,1.51-2.59,2.32-1.82,1.62-2.75,2.44-1.83,1.59-2.68,2.3c-1.29,1.11-2.36,2.31-3.2,3.6s-1.26,2.62-1.26,3.98c0,.67.17,1.4.52,2.18.35.79.82,1.56,1.42,2.32.59.76,1.29,1.5,2.07,2.21s1.61,1.35,2.49,1.9c.87.55,1.76.99,2.66,1.31s1.76.48,2.59.48c.9,0,1.72-.17,2.47-.52s1.44-.82,2.09-1.42c.64-.6,1.23-1.31,1.76-2.13s1.04-1.71,1.52-2.68c.8-1.66,1.6-3.4,2.4-5.22s1.51-3.49,2.13-5.01c.73-1.78,1.42-3.53,2.07-5.26h-.01Z" fill="#f33"/>
  <path d="M539.07,289.44c.09-.02.25.29.48.92.23.64.52,1.47.85,2.51.33,1.03.73,2.22,1.19,3.56s.98,2.69,1.57,4.08,1.24,2.75,1.94,4.1,1.47,2.54,2.3,3.58c.83,1.03,1.72,1.87,2.68,2.52s1.98.97,3.06.97c.83,0,1.71-.16,2.63-.48s1.82-.76,2.7-1.31,1.71-1.19,2.49-1.9,1.47-1.45,2.07-2.21,1.07-1.54,1.42-2.32.52-1.51.52-2.18c0-1.36-.42-2.69-1.26-3.98s-1.91-2.49-3.2-3.6c-.86-.71-1.75-1.48-2.7-2.3s-1.87-1.63-2.77-2.44-1.76-1.58-2.58-2.32c-.82-.74-1.54-1.39-2.16-1.97-.63-.58-1.12-1.04-1.49-1.37-.37-.34-.55-.52-.55-.54,1.68-.14,3.41-.31,5.19-.52,1.52-.16,3.19-.35,5.01-.57s3.58-.46,5.29-.71c1.27-.18,2.45-.45,3.56-.81s2.08-.84,2.91-1.45c.83-.62,1.49-1.37,1.97-2.27.49-.9.73-1.97.73-3.22,0-.73-.08-1.54-.24-2.4-.17-.86-.43-1.81-.8-2.85-.9-2.53-2-4.36-3.3-5.48-1.31-1.12-2.72-1.68-4.24-1.68-.69,0-1.49.14-2.4.4-.91.27-1.87.61-2.9,1.04-1.02.42-2.07.91-3.16,1.45s-2.14,1.09-3.15,1.64c-2.42,1.32-4.92,2.82-7.5,4.5.32-1.82.65-3.66.97-5.53.14-.79.29-1.62.45-2.51.16-.88.33-1.77.5-2.66s.35-1.77.52-2.65c.18-.87.36-1.71.54-2.52.14-.64.26-1.29.35-1.95.09-.65.14-1.28.14-1.88,0-1.1-.17-2.14-.5-3.11-.33-.96-.88-1.8-1.64-2.52s-1.77-1.27-3.01-1.68-2.79-.61-4.63-.61-3.38.2-4.63.61-2.25.97-3.01,1.68c-.77.71-1.31,1.55-1.63,2.52s-.48,2-.48,3.11c0,.6.05,1.22.14,1.88.1.65.21,1.3.35,1.95.16.8.34,1.64.52,2.52.19.88.37,1.76.54,2.65s.34,1.77.5,2.66.31,1.73.45,2.51c.32,1.86.65,3.71.97,5.53-2.61-1.69-5.12-3.19-7.54-4.5-1.04-.55-2.1-1.1-3.18-1.64-1.09-.54-2.14-1.02-3.15-1.45-1.02-.43-1.98-.77-2.89-1.04s-1.7-.4-2.37-.4c-1.52,0-2.94.56-4.27,1.68-1.32,1.12-2.42,2.94-3.3,5.48-.34,1.03-.6,1.99-.76,2.85s-.24,1.66-.24,2.4c0,1.25.24,2.32.71,3.22s1.12,1.66,1.95,2.27,1.8,1.09,2.91,1.45c1.11.36,2.31.63,3.6.81,1.7.26,3.46.49,5.27.71s3.48.41,5,.57c1.77.21,3.51.38,5.22.52,0,.03-.18.21-.55.54-.37.34-.87.79-1.49,1.37s-1.35,1.23-2.18,1.97-1.69,1.51-2.59,2.32-1.82,1.62-2.75,2.44-1.83,1.59-2.68,2.3c-1.29,1.11-2.36,2.31-3.2,3.6s-1.26,2.62-1.26,3.98c0,.67.17,1.4.52,2.18.35.79.82,1.56,1.42,2.32s1.3,1.5,2.08,2.21,1.61,1.35,2.49,1.9c.87.55,1.76.99,2.66,1.31s1.76.48,2.59.48c.9,0,1.72-.17,2.47-.52s1.44-.82,2.09-1.42c.64-.6,1.23-1.31,1.76-2.13s1.04-1.71,1.52-2.68c.8-1.66,1.6-3.4,2.4-5.22s1.51-3.49,2.13-5.01c.74-1.78,1.43-3.53,2.08-5.26h-.04,0Z" fill="#f33"/>
  <path d="M487.88,371.29l-7.61,14.07c-1.86,3.44-3.34,6.58-4.43,9.41-1.09,2.83-1.86,5.4-2.3,7.69-.44,2.29-.6,4.34-.46,6.13s.51,3.37,1.11,4.75,1.4,2.56,2.41,3.56c1.01.99,2.15,1.84,3.43,2.53,2.31,1.25,4.42,1.93,6.35,2.04,1.92.11,3.67-.16,5.24-.82s2.96-1.6,4.18-2.82,2.27-2.53,3.17-3.94c-.38.81-.72,1.67-1.01,2.61-.29.93-.49,1.88-.6,2.85s-.11,1.94,0,2.91.36,1.91.77,2.83,1,1.78,1.76,2.59c.77.81,1.75,1.54,2.97,2.2,1.05.57,2.14,1.06,3.29,1.48,1.14.41,2.35.63,3.61.63s2.58-.27,3.97-.81c1.38-.55,2.84-1.48,4.36-2.82s3.13-3.14,4.82-5.41c1.69-2.27,3.47-5.13,5.33-8.57l8.91-16.48c1.32-2.43,2.35-4.66,3.09-6.7.75-2.03,1.17-3.85,1.28-5.46s-.12-2.99-.67-4.16c-.56-1.17-1.47-2.1-2.75-2.79-.5-.27-.92-.34-1.27-.21s-.68.34-.99.64-.63.63-.96,1c-.34.36-.73.66-1.18.88-.46.22-1,.32-1.64.29-.64-.02-1.41-.28-2.32-.77l-23.31-12.61c-.92-.5-1.57-1-1.93-1.52-.37-.51-.58-1.02-.64-1.52-.07-.5-.04-.99.09-1.47.12-.48.23-.93.31-1.35s.08-.82,0-1.18c-.09-.37-.38-.68-.87-.95-1.28-.69-2.56-.95-3.85-.78s-2.58.74-3.86,1.71-2.57,2.32-3.87,4.06c-1.3,1.73-2.6,3.82-3.92,6.25v.03h0ZM507.33,401.59c.6-1.11,1.08-1.97,1.45-2.57.36-.6.65-1.04.86-1.33.24-.35.42-.56.54-.63l9.37,5.07c.76.41,1.48.83,2.16,1.25s1.22.89,1.62,1.4c.4.51.63,1.09.69,1.75.05.65-.15,1.41-.62,2.28-.59,1.09-1.26,1.89-2.01,2.39s-1.59.77-2.5.81c-.92.04-1.92-.13-3-.52-1.08-.38-2.24-.91-3.48-1.58-1.15-.63-2.16-1.24-3.02-1.84s-1.53-1.23-2-1.88c-.47-.66-.73-1.36-.76-2.11s.2-1.58.69-2.49h0ZM502.18,398.81c-.49.91-1.06,1.56-1.71,1.94-.64.38-1.37.57-2.16.53s-1.68-.25-2.65-.64c-.97-.4-2.04-.91-3.19-1.53-1.26-.68-2.34-1.37-3.26-2.06s-1.61-1.43-2.08-2.22-.69-1.63-.69-2.53.31-1.9.9-2.99c.46-.87.99-1.46,1.57-1.77s1.19-.44,1.84-.38c.65.05,1.34.25,2.06.59s1.47.72,2.23,1.13l9.37,5.07c0,.12-.09.39-.23.79-.12.33-.34.81-.64,1.45-.3.63-.76,1.51-1.36,2.62h0Z" fill="#f33"/>
  <path d="M437.52,439.12c-3.43,3.2-6.13,6.27-8.11,9.19s-3.38,5.72-4.2,8.4c-.82,2.67-1.13,5.24-.94,7.69.19,2.46.75,4.8,1.68,7.05s2.14,4.4,3.65,6.48,3.16,4.07,4.95,5.99c1.58,1.7,3.29,3.23,5.13,4.59s3.79,2.45,5.85,3.27c2.06.82,4.22,1.33,6.49,1.54s4.63,0,7.1-.59c2.46-.6,5.01-1.66,7.64-3.17,2.63-1.51,5.34-3.56,8.11-6.15,3.45-3.22,6.18-6.27,8.2-9.15,2.02-2.88,3.46-5.64,4.33-8.26s1.23-5.13,1.08-7.52-.68-4.7-1.59-6.93-2.13-4.39-3.65-6.48-3.22-4.15-5.11-6.17c-1.65-1.77-3.43-3.32-5.34-4.66-1.91-1.34-3.93-2.4-6.08-3.19-2.15-.78-4.39-1.26-6.72-1.42-2.34-.16-4.73.05-7.19.65s-4.97,1.63-7.53,3.07-5.13,3.37-7.72,5.79l-.03-.02h0ZM442.4,447.25c.79-.73,1.75-1.03,2.9-.88s2.4.6,3.76,1.35,2.79,1.74,4.29,2.97,2.99,2.55,4.48,3.97c1.48,1.42,2.93,2.87,4.34,4.34,1.41,1.48,2.7,2.84,3.87,4.09,1.28,1.37,2.36,2.62,3.24,3.75.88,1.14,1.52,2.18,1.92,3.14s.52,1.86.37,2.69c-.16.84-.63,1.63-1.44,2.38-.78.73-1.69,1.09-2.73,1.06-1.03-.02-2.15-.33-3.36-.92-1.21-.58-2.47-1.39-3.79-2.4-1.32-1.02-2.65-2.16-3.99-3.42-1.34-1.27-2.67-2.59-3.99-3.97-1.33-1.38-2.59-2.72-3.81-4.02l-1.08-1.16c-1.38-1.47-2.55-2.84-3.53-4.11-.98-1.27-1.7-2.44-2.17-3.51s-.66-2.05-.57-2.93c.09-.89.52-1.69,1.29-2.41h0Z" fill="#f33"/>
  <path d="M385.36,491.04l12.59,25.69c.46.93.69,1.71.69,2.35s-.12,1.19-.36,1.63c-.24.44-.55.83-.94,1.15s-.74.63-1.05.93c-.31.29-.54.62-.68.96s-.09.77.16,1.27c.64,1.3,1.54,2.25,2.68,2.85s2.53.87,4.16.81c1.63-.06,3.5-.43,5.62-1.12,2.11-.69,4.46-1.67,7.02-2.93,2.48-1.22,4.62-2.45,6.4-3.68s3.18-2.47,4.2-3.72,1.64-2.51,1.86-3.78,0-2.56-.63-3.86c-.24-.5-.55-.8-.91-.9-.36-.1-.75-.12-1.18-.05-.42.07-.88.15-1.36.26s-.97.12-1.47.04c-.5-.08-1-.32-1.51-.71-.5-.39-.98-1.05-1.44-1.97l-11.72-23.77c-.46-.94-.69-1.73-.69-2.36s.12-1.17.36-1.61.55-.82.93-1.14c.38-.32.73-.62,1.04-.92.31-.29.54-.62.68-.96s.09-.77-.16-1.27c-.64-1.3-1.54-2.26-2.69-2.87s-2.53-.89-4.14-.84-3.45.41-5.51,1.07c-2.07.66-4.34,1.61-6.82,2.83l-21.56,10.63c-1.07.52-1.95,1.22-2.64,2.08-.68.86-1.21,1.81-1.57,2.85-.37,1.04-.58,2.15-.66,3.32-.08,1.18-.05,2.34.08,3.51.13,1.16.36,2.29.69,3.38s.7,2.07,1.13,2.93c.43.88.96,1.61,1.59,2.19s1.3.99,2.03,1.25c.72.25,1.49.35,2.29.28.8-.07,1.6-.3,2.4-.69.67-.33,1.28-.77,1.83-1.33s1-1.24,1.34-2.05.56-1.75.66-2.83c.09-1.08.02-2.31-.21-3.68l-1.41-6.12c.67-.41,1.19-.73,1.55-.96s.65-.4.84-.51c.2-.11.32-.19.38-.23s.11-.07.15-.09c.38-.18.82-.33,1.32-.43.5-.11,1.01-.09,1.54.06.53.14,1.06.45,1.59.92.53.46,1.03,1.18,1.51,2.15h0,0Z" fill="#f33"/>
  <path d="M341,494.73c-1.69.26-3.14.72-4.36,1.36-1.22.65-2.2,1.41-2.95,2.3s-1.26,1.86-1.55,2.91c-.29,1.06-.34,2.14-.17,3.25.07.46.24.8.5,1.02.26.21.57.36.91.44.35.08.72.13,1.13.16.4.03.78.1,1.13.2.35.1.66.28.92.53s.44.65.52,1.18c.09.55.05,1.29-.11,2.22l-.46,2.53-14.1,2.22-.93-2.31c-.27-.65-.45-1.24-.53-1.77-.1-.62-.07-1.12.1-1.49s.41-.66.7-.89.63-.42,1.01-.57c.37-.16.72-.32,1.02-.5.31-.17.55-.4.73-.68s.24-.66.16-1.15c-.22-1.44-.79-2.62-1.71-3.54s-2.16-1.6-3.72-2.03c-1.57-.44-3.43-.64-5.6-.62-2.17.03-4.62.25-7.35.68-5.65.88-9.87,2.21-12.65,3.96s-3.95,4.08-3.49,6.97c.09.56.28.94.57,1.14.3.2.66.34,1.1.41s.93.13,1.47.16,1.09.16,1.66.38c.56.22,1.12.59,1.68,1.09s1.07,1.26,1.53,2.25l11.77,24.83c.33.73.53,1.34.61,1.83.08.55.04,1-.13,1.35s-.4.63-.7.84c-.29.21-.62.39-.98.53s-.69.29-1,.46c-.3.17-.55.37-.74.6-.19.23-.25.55-.19.94.02.1.07.26.15.48.65,1.75,1.65,3.06,3,3.94,1.35.88,2.95,1.47,4.8,1.77,1.85.3,3.89.37,6.1.2s4.52-.45,6.9-.82c2.82-.44,5.38-.98,7.68-1.6s4.26-1.38,5.89-2.26,2.88-1.93,3.76-3.15c.87-1.22,1.3-2.65,1.28-4.28,0-.1,0-.23-.03-.39-.1-.61-.36-.98-.78-1.11-.42-.14-.88-.24-1.38-.3-.5-.07-.97-.19-1.4-.39s-.71-.65-.82-1.37c-.04-.28-.05-.61-.03-.99s.07-.83.16-1.34l4.45-27.38c.18-1.13.47-2.01.87-2.65.39-.64.84-1.16,1.32-1.54.48-.38.98-.67,1.48-.87.51-.19.95-.4,1.35-.6s.71-.45.92-.73.28-.7.19-1.26c-.17-1.11-.56-2.13-1.15-3.04-.59-.92-1.38-1.68-2.37-2.3s-2.16-1.04-3.53-1.28-2.91-.22-4.62.05v.02h.01ZM333.19,539.45l-8.53-19.36,10.87-1.71s-2.34,21.07-2.34,21.07Z" fill="#f33"/>
  <path d="M253.4,497.66c-3.53-.46-6.81-.46-9.84,0-3.03.47-5.68,1.26-7.95,2.37-2.27,1.11-4.1,2.47-5.48,4.09-1.38,1.61-2.19,3.35-2.43,5.21-.16,1.19-.05,2.15.33,2.88.38.74.89,1.15,1.54,1.23.35.05.74,0,1.18-.18s.86-.46,1.27-.88c.33-.31.81-.63,1.46-.96.65-.33,1.41-.62,2.28-.87s1.82-.44,2.85-.55c1.04-.12,2.07-.11,3.12.03,1.02.13,2.03.38,3.02.73,1,.36,1.93.88,2.81,1.59.87.7,1.66,1.62,2.35,2.75s1.24,2.54,1.65,4.22.64,3.68.69,5.99-.12,5-.52,8.07c-.3,2.32-.77,4.31-1.41,5.95s-1.36,2.97-2.17,3.99c-.81,1.01-1.67,1.74-2.59,2.16-.92.43-1.81.58-2.67.47-1.14-.15-2.14-.76-3.02-1.83s-1.41-2.54-1.59-4.41c-.14-1.32-.41-2.45-.82-3.39s-.9-1.73-1.48-2.36c-.58-.64-1.22-1.11-1.91-1.44s-1.4-.54-2.12-.63c-.82-.11-1.6-.06-2.34.12s-1.41.5-2,.94c-.58.44-1.07,1.01-1.46,1.72-.38.7-.64,1.52-.76,2.45-.3,2.28-.05,4.41.74,6.39s1.98,3.73,3.57,5.25,3.5,2.78,5.73,3.78,4.64,1.66,7.22,2c3.9.51,7.43.6,10.58.28,3.15-.32,5.98-.99,8.47-2s4.67-2.33,6.54-3.95,3.45-3.49,4.77-5.58,2.37-4.39,3.17-6.87c.8-2.48,1.37-5.1,1.73-7.84.31-2.4.34-4.76.09-7.1s-.77-4.59-1.58-6.75c-.81-2.17-1.89-4.2-3.25-6.1-1.36-1.9-3-3.61-4.92-5.11s-4.11-2.76-6.58-3.78-5.23-1.72-8.27-2.12v.03h0Z" fill="#f33"/>
  <path d="M168.56,497.5l4.73-9.62c.47-.97.96-1.65,1.47-2.04.5-.4,1.01-.64,1.51-.73.5-.09,1-.08,1.49.03s.95.2,1.38.25c.43.06.83.04,1.19-.06.36-.09.66-.4.91-.9.64-1.3.86-2.6.64-3.88s-.85-2.55-1.89-3.81c-1.04-1.26-2.48-2.51-4.32-3.77-1.83-1.26-4.03-2.52-6.6-3.78-2.52-1.24-4.83-2.2-6.93-2.88-2.09-.68-3.95-1.05-5.57-1.1s-3,.23-4.15.84-2.05,1.57-2.69,2.87c-.25.5-.29.93-.14,1.28s.39.68.72,1,.7.65,1.11.98c.41.34.74.74,1,1.2s.39,1.02.39,1.68c.01.65-.22,1.45-.69,2.4l-11.64,23.65c-.46.93-.94,1.58-1.46,1.97-.51.39-1.03.62-1.55.69s-1.04.05-1.55-.08-.99-.22-1.44-.3-.86-.07-1.23.02-.68.39-.93.89c-1.28,2.61-.87,5.16,1.25,7.65s5.71,4.99,10.78,7.48c5.15,2.54,9.36,3.89,12.64,4.05s5.56-1.06,6.84-3.67c.25-.5.3-.93.16-1.27-.14-.34-.37-.66-.68-.96s-.66-.61-1.05-.93-.7-.71-.94-1.15-.36-.98-.36-1.62.22-1.43.68-2.35l3.91-7.95,14.16,6.97-3.91,7.95c-.45.92-.94,1.58-1.44,1.97s-1,.63-1.5.71-1,.06-1.49-.05c-.5-.12-.95-.21-1.38-.27s-.82-.05-1.18.05c-.36.09-.66.4-.91.9-.64,1.3-.85,2.59-.63,3.86.23,1.27.86,2.53,1.9,3.79s2.48,2.51,4.32,3.77c1.83,1.26,4.03,2.52,6.6,3.78,2.48,1.23,4.76,2.17,6.82,2.83,2.06.67,3.9,1.02,5.51,1.07s2.99-.23,4.13-.83c1.15-.59,2.04-1.55,2.68-2.85.25-.5.3-.93.16-1.27-.14-.34-.37-.66-.68-.96-.32-.3-.66-.6-1.04-.92s-.69-.7-.93-1.14-.36-.98-.36-1.62.22-1.43.68-2.35l11.7-23.77c.47-.95.95-1.61,1.45-1.99s1-.61,1.5-.69c.5-.08.99-.07,1.47.04s.94.19,1.36.26c.43.06.82.05,1.18-.05.36-.09.66-.4.91-.9.64-1.3.86-2.6.64-3.88-.22-1.28-.84-2.54-1.86-3.79s-2.43-2.49-4.21-3.72c-1.79-1.23-3.92-2.46-6.4-3.68-5.13-2.53-9.34-3.87-12.63-4.04s-5.58,1.06-6.87,3.69c-.25.5-.3.92-.16,1.27.14.35.36.67.67.98.3.3.65.62,1.04.94s.71.71.95,1.17.37,1.01.37,1.67c.01.65-.22,1.45-.69,2.4l-4.73,9.62-14.23-7h.04,0Z" fill="#f33"/>
  <path d="M139.69,448.03c-1.19-1.24-2.4-2.16-3.62-2.79-1.22-.62-2.41-.99-3.57-1.09-1.16-.11-2.25.03-3.28.4-1.02.37-1.94.95-2.75,1.73-.34.33-.52.66-.55,1s.03.67.16,1c.14.33.31.67.52,1.02s.37.7.49,1.04.15.7.09,1.06c-.06.37-.28.74-.67,1.11-.4.4-1.03.79-1.88,1.19l-2.33,1.08-9.92-10.27,1.35-2.09c.37-.59.75-1.08,1.14-1.45.45-.44.88-.69,1.28-.77.4-.07.77-.05,1.13.06s.71.28,1.05.5c.35.22.68.4,1,.55.32.14.65.21.98.2s.68-.19,1.03-.53c1.04-1.01,1.68-2.16,1.91-3.44s.07-2.68-.47-4.21c-.54-1.52-1.45-3.17-2.71-4.93-1.27-1.77-2.86-3.64-4.78-5.63-3.97-4.12-7.47-6.81-10.51-8.08s-5.61-.89-7.72,1.15c-.4.39-.6.76-.6,1.12s.1.74.29,1.14.43.83.71,1.29c.28.46.49.99.64,1.58s.18,1.26.08,2c-.09.74-.41,1.59-.96,2.54l-13.57,23.9c-.41.69-.8,1.21-1.15,1.55-.4.4-.8.62-1.18.68s-.74.03-1.09-.09-.68-.29-1-.5-.63-.4-.95-.55-.62-.24-.92-.26c-.3-.02-.59.1-.88.38-.06.06-.16.19-.3.39-1.06,1.54-1.55,3.11-1.5,4.72.06,1.61.49,3.26,1.31,4.95.81,1.68,1.93,3.38,3.34,5.1s2.95,3.44,4.63,5.18c1.99,2.06,3.9,3.85,5.73,5.37s3.57,2.7,5.23,3.52,3.24,1.24,4.74,1.26c1.5,0,2.91-.45,4.24-1.41.08-.04.18-.13.3-.24.44-.42.59-.84.46-1.27-.13-.42-.32-.86-.55-1.3-.24-.44-.4-.89-.49-1.36s.13-.96.65-1.46c.2-.2.46-.4.79-.6.32-.2.72-.42,1.19-.64l24.96-12.1c1.02-.49,1.91-.77,2.66-.81s1.42.02,2.02.2,1.12.41,1.57.71c.45.3.88.55,1.27.76.4.21.77.32,1.13.33.35.02.74-.17,1.14-.56.81-.78,1.41-1.68,1.82-2.69s.58-2.1.52-3.26-.39-2.37-.98-3.62-1.48-2.5-2.69-3.75v-.02h.02ZM117.17,457.19l-18.59,10.19,10.96-18.1,7.65,7.91h-.02Z" fill="#f33"/>
  <path d="M42.71,393.5c.42-.22.81-.24,1.16-.06.36.18.73.38,1.11.62.38.24.81.42,1.26.54s.99.02,1.62-.3c.86-.43,1.5-1.06,1.91-1.86s.66-1.7.73-2.7-.03-2.05-.31-3.16c-.27-1.11-.68-2.19-1.21-3.23-.55-1.09-1.23-2.09-2.05-3.02s-1.73-1.66-2.74-2.2-2.1-.84-3.26-.9c-1.16-.06-2.36.22-3.59.85-1.35.69-2.56,1.77-3.61,3.24-1.06,1.47-1.75,3.31-2.09,5.54-.34,2.22-.21,4.82.37,7.8s1.82,6.31,3.7,10.01c1.06,2.07,2.21,3.98,3.47,5.75s2.62,3.32,4.08,4.67c1.47,1.35,3.02,2.46,4.66,3.33s3.38,1.45,5.21,1.74c1.83.29,3.75.26,5.75-.09,2-.35,4.1-1.08,6.29-2.2,2.22-1.13,3.95-2.5,5.22-4.12,1.26-1.62,2.2-3.37,2.8-5.26s.93-3.86.98-5.93c.05-2.06-.04-4.09-.25-6.09-.21-1.99-.5-3.92-.87-5.77s-.67-3.51-.9-4.97c-.23-1.46-.34-2.67-.34-3.65.01-.97.27-1.59.79-1.86.41-.21.87-.35,1.36-.42.5-.07,1.03.06,1.62.38s1.21.9,1.88,1.71,1.39,2,2.18,3.54c.57,1.1.96,2.14,1.19,3.1.23.97.34,1.81.33,2.54s-.12,1.34-.32,1.82c-.2.49-.46.81-.77.97-1.3.66-2.33,1.48-3.09,2.46-.76.98-1.29,2.03-1.6,3.13-.3,1.11-.4,2.22-.27,3.34s.43,2.15.91,3.09c.39.77.9,1.45,1.51,2.03s1.31,1.02,2.11,1.31,1.68.4,2.64.33c.96-.07,1.98-.38,3.04-.92,1.4-.71,2.55-1.69,3.46-2.93s1.6-2.66,2.06-4.25c.47-1.59.73-3.33.78-5.21s-.07-3.82-.4-5.81-.82-4.01-1.5-6.06c-.67-2.04-1.5-4.03-2.48-5.95-1.67-3.28-3.48-6.17-5.41-8.67s-4.02-4.45-6.26-5.85c-2.24-1.4-4.64-2.15-7.2-2.27s-5.3.57-8.22,2.06c-2.28,1.16-4.07,2.6-5.37,4.33s-2.24,3.62-2.83,5.67c-.58,2.05-.9,4.21-.96,6.47-.05,2.26.02,4.51.23,6.75.21,2.24.46,4.4.76,6.48s.5,3.98.6,5.67.03,3.14-.22,4.33-.82,2.01-1.72,2.47c-.44.23-.91.39-1.4.48s-1.03,0-1.6-.27c-.57-.28-1.19-.8-1.84-1.57s-1.36-1.91-2.13-3.41c-1.11-2.18-1.69-3.91-1.75-5.21s.21-2.1.79-2.4v.02h0Z" fill="#f33"/>
</svg>