<?xml version="1.0" encoding="UTF-8"?>
<svg id="a" data-name="Camada 1" xmlns="http://www.w3.org/2000/svg" viewBox="0 0 60 60">
  <path d="M30.14,40.8c-.57,1.49-1.18,3.01-1.83,4.54-.55,1.31-1.17,2.76-1.87,4.33-.7,1.57-1.41,3.08-2.12,4.51-.43.84-.87,1.61-1.34,2.31s-.99,1.32-1.56,1.84-1.18.93-1.84,1.22-1.39.45-2.18.45c-.73,0-1.49-.14-2.29-.42s-1.58-.66-2.35-1.13-1.5-1.03-2.2-1.64-1.3-1.25-1.83-1.91-.95-1.32-1.25-2-.46-1.3-.46-1.88c0-1.17.37-2.32,1.11-3.43s1.68-2.15,2.82-3.11c.75-.62,1.54-1.28,2.37-1.99s1.63-1.41,2.42-2.11,1.56-1.36,2.29-2,1.37-1.2,1.92-1.7.99-.89,1.31-1.18.49-.44.49-.46c-1.5-.12-3.04-.27-4.61-.45-1.34-.14-2.81-.3-4.41-.49s-3.15-.39-4.65-.61c-1.14-.16-2.2-.39-3.17-.7s-1.83-.73-2.56-1.25-1.31-1.18-1.72-1.96-.63-1.7-.63-2.78c0-.64.07-1.33.21-2.08s.37-1.57.67-2.46c.77-2.19,1.74-3.77,2.91-4.73s2.42-1.45,3.77-1.45c.59,0,1.29.11,2.09.34s1.65.53,2.55.9,1.82.79,2.78,1.25,1.89.94,2.81,1.42c2.14,1.13,4.35,2.43,6.65,3.88-.28-1.57-.57-3.17-.85-4.78-.12-.68-.25-1.4-.4-2.17s-.29-1.53-.44-2.3-.31-1.53-.47-2.28-.32-1.48-.46-2.18c-.12-.56-.22-1.12-.31-1.69s-.12-1.11-.12-1.63c0-.96.14-1.85.43-2.69s.76-1.56,1.43-2.18,1.56-1.1,2.65-1.45,2.46-.52,4.09-.52,2.99.17,4.09.52,1.98.83,2.65,1.45c.67.62,1.16,1.34,1.45,2.18s.44,1.73.44,2.69c0,.52-.04,1.06-.12,1.63s-.18,1.13-.31,1.69c-.16.7-.32,1.42-.47,2.18s-.31,1.52-.46,2.28-.3,1.53-.44,2.3c-.14.77-.27,1.49-.4,2.17-.28,1.61-.57,3.21-.85,4.78,2.28-1.45,4.48-2.75,6.62-3.88.89-.48,1.82-.95,2.78-1.42s1.89-.89,2.79-1.25,1.76-.67,2.56-.9,1.51-.34,2.12-.34c1.34,0,2.59.48,3.74,1.45s2.12,2.54,2.91,4.73c.33.9.56,1.72.7,2.46s.21,1.44.21,2.08c0,1.08-.21,2-.64,2.78s-1.01,1.43-1.74,1.96-1.59.95-2.56,1.25-2.02.54-3.14.7c-1.5.22-3.06.42-4.67.61s-3.08.35-4.42.49c-1.57.18-3.09.33-4.58.45,0,.02.16.17.49.46s.76.68,1.31,1.18,1.19,1.07,1.91,1.7,1.48,1.3,2.27,2,1.61,1.4,2.44,2.11,1.63,1.37,2.38,1.99c1.14.96,2.08,1.99,2.82,3.11s1.11,2.26,1.11,3.43c0,.58-.15,1.2-.46,1.88s-.72,1.34-1.25,2-1.14,1.29-1.83,1.91-1.42,1.16-2.2,1.64-1.57.86-2.38,1.13-1.59.42-2.32.42c-.96,0-1.85-.28-2.7-.84s-1.63-1.28-2.37-2.18-1.41-1.93-2.03-3.09-1.19-2.34-1.71-3.54c-.52-1.19-.98-2.37-1.39-3.52-.41-1.15-.76-2.18-1.05-3.08s-.54-1.62-.75-2.17-.35-.81-.43-.79Z" fill="#f33"/>
</svg>