<?xml version="1.0" encoding="UTF-8"?>
<svg id="a" data-name="Camada 1" xmlns="http://www.w3.org/2000/svg" viewBox="0 0 573 555">
  <path d="M84.46,183.71l7.61-14.07c1.86-3.44,3.34-6.58,4.43-9.41,1.09-2.83,1.86-5.4,2.3-7.69.44-2.29.6-4.34.46-6.13s-.51-3.37-1.11-4.75-1.4-2.56-2.41-3.56c-1.01-.99-2.15-1.84-3.43-2.53-2.31-1.25-4.42-1.93-6.35-2.04-1.92-.11-3.67.16-5.24.82s-2.96,1.6-4.18,2.82-2.27,2.53-3.17,3.94c.38-.81.72-1.67,1.01-2.61.29-.93.49-1.88.6-2.85s.11-1.94,0-2.91-.36-1.91-.77-2.83-1-1.78-1.76-2.59c-.77-.81-1.75-1.54-2.97-2.2-1.05-.57-2.14-1.06-3.29-1.48-1.14-.41-2.35-.63-3.61-.63s-2.58.27-3.97.81c-1.38.55-2.84,1.48-4.36,2.82s-3.13,3.14-4.82,5.41c-1.69,2.27-3.47,5.13-5.33,8.57l-8.91,16.48c-1.32,2.43-2.35,4.66-3.09,6.7-.75,2.03-1.17,3.85-1.28,5.46s.12,2.99.67,4.16c.56,1.17,1.47,2.1,2.75,2.79.5.27.92.34,1.27.21s.68-.34.99-.64c.31-.3.63-.63.96-1,.34-.36.73-.66,1.18-.88.46-.22,1-.32,1.64-.29.64.02,1.41.28,2.32.77l23.31,12.61c.92.5,1.57,1,1.93,1.52.37.51.58,1.02.64,1.52.07.5.04.99-.09,1.47-.12.48-.23.93-.31,1.35s-.08.82,0,1.18c.09.37.38.68.87.95,1.28.69,2.56.95,3.85.78,1.29-.17,2.58-.74,3.86-1.71,1.28-.97,2.57-2.32,3.87-4.06,1.3-1.73,2.6-3.82,3.92-6.25v-.03ZM65.01,153.41c-.6,1.11-1.08,1.97-1.45,2.57-.36.6-.65,1.04-.86,1.33-.24.35-.42.56-.54.63l-9.37-5.07c-.76-.41-1.48-.83-2.16-1.25s-1.22-.89-1.62-1.4c-.4-.51-.63-1.09-.69-1.75-.05-.65.15-1.41.62-2.28.59-1.09,1.26-1.89,2.01-2.39s1.59-.77,2.5-.81c.92-.04,1.92.13,3,.52,1.08.38,2.24.91,3.48,1.58,1.15.63,2.16,1.24,3.02,1.84s1.53,1.23,2,1.88c.47.66.73,1.36.76,2.11s-.2,1.58-.69,2.49h0ZM70.16,156.19c.49-.91,1.06-1.56,1.71-1.94.64-.38,1.37-.57,2.16-.53s1.68.25,2.65.64c.97.4,2.04.91,3.19,1.53,1.26.68,2.34,1.37,3.26,2.06s1.61,1.43,2.08,2.22.69,1.63.69,2.53c0,.9-.31,1.9-.9,2.99-.46.87-.99,1.46-1.57,1.77-.58.31-1.19.44-1.84.38-.65-.05-1.34-.25-2.06-.59-.72-.34-1.47-.72-2.23-1.13l-9.37-5.07c0-.12.09-.39.23-.79.12-.33.34-.81.64-1.45.3-.63.76-1.51,1.36-2.62h0Z" fill="#fff"/>
  <path d="M134.82,115.88c3.43-3.2,6.13-6.27,8.11-9.19s3.38-5.72,4.2-8.4c.82-2.67,1.13-5.24.94-7.69-.19-2.46-.75-4.8-1.68-7.05s-2.14-4.4-3.65-6.48-3.16-4.07-4.95-5.99c-1.58-1.7-3.29-3.23-5.13-4.59s-3.79-2.45-5.85-3.27c-2.06-.82-4.22-1.33-6.49-1.54s-4.63,0-7.1.59c-2.46.6-5.01,1.66-7.64,3.17-2.63,1.51-5.34,3.56-8.11,6.15-3.45,3.22-6.18,6.27-8.2,9.15-2.02,2.88-3.46,5.64-4.33,8.26-.87,2.62-1.23,5.13-1.08,7.52.15,2.39.68,4.7,1.59,6.93s2.13,4.39,3.65,6.48,3.22,4.15,5.11,6.17c1.65,1.77,3.43,3.32,5.34,4.66,1.91,1.34,3.93,2.4,6.08,3.19,2.15.78,4.39,1.26,6.72,1.42,2.34.16,4.73-.05,7.19-.65s4.97-1.63,7.53-3.07,5.13-3.37,7.72-5.79l.03.02ZM129.94,107.75c-.79.73-1.75,1.03-2.9.88s-2.4-.6-3.76-1.35-2.79-1.74-4.29-2.97-2.99-2.55-4.48-3.97c-1.48-1.42-2.93-2.87-4.34-4.34-1.41-1.48-2.7-2.84-3.87-4.09-1.28-1.37-2.36-2.62-3.24-3.75-.88-1.14-1.52-2.18-1.92-3.14s-.52-1.86-.37-2.69c.16-.84.63-1.63,1.44-2.38.78-.73,1.69-1.09,2.73-1.06,1.03.02,2.15.33,3.36.92,1.21.58,2.47,1.39,3.79,2.4,1.32,1.02,2.65,2.16,3.99,3.42,1.34,1.27,2.67,2.59,3.99,3.97,1.33,1.38,2.59,2.72,3.81,4.02l1.08,1.16c1.38,1.47,2.55,2.84,3.53,4.11.98,1.27,1.7,2.44,2.17,3.51s.66,2.05.57,2.93c-.09.89-.52,1.69-1.29,2.41h0Z" fill="#fff"/>
  <path d="M186.98,63.96l-12.59-25.69c-.46-.93-.69-1.71-.69-2.35s.12-1.19.36-1.63c.24-.44.55-.83.94-1.15s.74-.63,1.05-.93c.31-.29.54-.62.68-.96s.09-.77-.16-1.27c-.64-1.3-1.54-2.25-2.68-2.85s-2.53-.87-4.16-.81c-1.63.06-3.5.43-5.62,1.12-2.11.69-4.46,1.67-7.02,2.93-2.48,1.22-4.62,2.45-6.4,3.68s-3.18,2.47-4.2,3.72-1.64,2.51-1.86,3.78,0,2.56.63,3.86c.24.5.55.8.91.9.36.1.75.12,1.18.05.42-.07.88-.15,1.36-.26s.97-.12,1.47-.04c.5.08,1,.32,1.51.71.5.39.98,1.05,1.44,1.97l11.72,23.77c.46.94.69,1.73.69,2.36s-.12,1.17-.36,1.61c-.24.44-.55.82-.93,1.14-.38.32-.73.62-1.04.92-.31.29-.54.62-.68.96s-.09.77.16,1.27c.64,1.3,1.54,2.26,2.69,2.87s2.53.89,4.14.84,3.45-.41,5.51-1.07c2.07-.66,4.34-1.61,6.82-2.83l21.56-10.63c1.07-.52,1.95-1.22,2.64-2.08.68-.86,1.21-1.81,1.57-2.85.37-1.04.58-2.15.66-3.32.08-1.18.05-2.34-.08-3.51-.13-1.16-.36-2.29-.69-3.38s-.7-2.07-1.13-2.93c-.43-.88-.96-1.61-1.59-2.19s-1.3-.99-2.03-1.25c-.72-.25-1.49-.35-2.29-.28-.8.07-1.6.3-2.4.69-.67.33-1.28.77-1.83,1.33-.55.56-1,1.24-1.34,2.05s-.56,1.75-.66,2.83c-.09,1.08-.02,2.31.21,3.68l1.41,6.12c-.67.41-1.19.73-1.55.96s-.65.4-.84.51c-.2.11-.32.19-.38.23-.06.04-.11.07-.15.09-.38.18-.82.33-1.32.43-.5.11-1.01.09-1.54-.06-.53-.14-1.06-.45-1.59-.92-.53-.46-1.03-1.18-1.51-2.15h-.01Z" fill="#fff"/>
  <path d="M231.34,60.27c1.69-.26,3.14-.72,4.36-1.36,1.22-.65,2.2-1.41,2.95-2.3s1.26-1.86,1.55-2.91c.29-1.06.34-2.14.17-3.25-.07-.46-.24-.8-.5-1.02-.26-.21-.57-.36-.91-.44-.35-.08-.72-.13-1.13-.16-.4-.03-.78-.1-1.13-.2-.35-.1-.66-.28-.92-.53s-.44-.65-.52-1.18c-.09-.55-.05-1.29.11-2.22l.46-2.53,14.1-2.22.93,2.31c.27.65.45,1.24.53,1.77.1.62.07,1.12-.1,1.49s-.41.66-.7.89-.63.42-1.01.57c-.37.16-.72.32-1.02.5-.31.17-.55.4-.73.68-.18.28-.24.66-.16,1.15.22,1.44.79,2.62,1.71,3.54s2.16,1.6,3.72,2.03c1.57.44,3.43.64,5.6.62,2.17-.03,4.62-.25,7.35-.68,5.65-.88,9.87-2.21,12.65-3.96s3.95-4.08,3.49-6.97c-.09-.56-.28-.94-.57-1.14-.3-.2-.66-.34-1.1-.41s-.93-.13-1.47-.16c-.54-.03-1.09-.16-1.66-.38-.56-.22-1.12-.59-1.68-1.09s-1.07-1.26-1.53-2.25l-11.77-24.83c-.33-.73-.53-1.34-.61-1.83-.08-.55-.04-1,.13-1.35s.4-.63.7-.84c.29-.21.62-.39.98-.53s.69-.29,1-.46c.3-.17.55-.37.74-.6.19-.23.25-.55.19-.94-.02-.1-.07-.26-.15-.48-.65-1.75-1.65-3.06-3-3.94-1.35-.88-2.95-1.47-4.8-1.77-1.85-.3-3.89-.37-6.1-.2-2.21.17-4.52.45-6.9.82-2.82.44-5.38.98-7.68,1.6s-4.26,1.38-5.89,2.26c-1.63.88-2.88,1.93-3.76,3.15-.87,1.22-1.3,2.65-1.28,4.28,0,.1,0,.23.03.39.1.61.36.98.78,1.11.42.14.88.24,1.38.3.5.07.97.19,1.4.39s.71.65.82,1.37c.04.28.05.61.03.99-.02.38-.07.83-.16,1.34l-4.45,27.38c-.18,1.13-.47,2.01-.87,2.65-.39.64-.84,1.16-1.32,1.54-.48.38-.98.67-1.48.87-.51.19-.95.4-1.35.6s-.71.45-.92.73-.28.7-.19,1.26c.17,1.11.56,2.13,1.15,3.04.59.92,1.38,1.68,2.37,2.3s2.16,1.04,3.53,1.28,2.91.22,4.62-.05v-.02ZM239.15,15.55l8.53,19.36-10.87,1.71,2.34-21.07Z" fill="#fff"/>
  <path d="M318.94,57.34c3.53.46,6.81.46,9.84,0,3.03-.47,5.68-1.26,7.95-2.37,2.27-1.11,4.1-2.47,5.48-4.09,1.38-1.61,2.19-3.35,2.43-5.21.16-1.19.05-2.15-.33-2.88-.38-.74-.89-1.15-1.54-1.23-.35-.05-.74,0-1.18.18s-.86.46-1.27.88c-.33.31-.81.63-1.46.96-.65.33-1.41.62-2.28.87s-1.82.44-2.85.55c-1.04.12-2.07.11-3.12-.03-1.02-.13-2.03-.38-3.02-.73-1-.36-1.93-.88-2.81-1.59-.87-.7-1.66-1.62-2.35-2.75s-1.24-2.54-1.65-4.22-.64-3.68-.69-5.99c-.05-2.31.12-5,.52-8.07.3-2.32.77-4.31,1.41-5.95s1.36-2.97,2.17-3.99c.81-1.01,1.67-1.74,2.59-2.16.92-.43,1.81-.58,2.67-.47,1.14.15,2.14.76,3.02,1.83s1.41,2.54,1.59,4.41c.14,1.32.41,2.45.82,3.39s.9,1.73,1.48,2.36c.58.64,1.22,1.11,1.91,1.44s1.4.54,2.12.63c.82.11,1.6.06,2.34-.12s1.41-.5,2-.94c.58-.44,1.07-1.01,1.46-1.72.38-.7.64-1.52.76-2.45.3-2.28.05-4.41-.74-6.39s-1.98-3.73-3.57-5.25c-1.59-1.52-3.5-2.78-5.73-3.78s-4.64-1.66-7.22-2c-3.9-.51-7.43-.6-10.58-.28-3.15.32-5.98.99-8.47,2-2.49,1.01-4.67,2.33-6.54,3.95s-3.45,3.49-4.77,5.58-2.37,4.39-3.17,6.87c-.8,2.48-1.37,5.1-1.73,7.84-.31,2.4-.34,4.76-.09,7.1s.77,4.59,1.58,6.75c.81,2.17,1.89,4.2,3.25,6.1,1.36,1.9,3,3.61,4.92,5.11,1.92,1.5,4.11,2.76,6.58,3.78s5.23,1.72,8.27,2.12v-.03Z" fill="#fff"/>
  <path d="M403.78,57.5l-4.73,9.62c-.47.97-.96,1.65-1.47,2.04-.5.4-1.01.64-1.51.73-.5.09-1,.08-1.49-.03s-.95-.2-1.38-.25c-.43-.06-.83-.04-1.19.06-.36.09-.66.4-.91.9-.64,1.3-.86,2.6-.64,3.88s.85,2.55,1.89,3.81c1.04,1.26,2.48,2.51,4.32,3.77,1.83,1.26,4.03,2.52,6.6,3.78,2.52,1.24,4.83,2.2,6.93,2.88,2.09.68,3.95,1.05,5.57,1.1s3-.23,4.15-.84,2.05-1.57,2.69-2.87c.25-.5.29-.93.14-1.28s-.39-.68-.72-1-.7-.65-1.11-.98c-.41-.34-.74-.74-1-1.2s-.39-1.02-.39-1.68c-.01-.65.22-1.45.69-2.4l11.64-23.65c.46-.93.94-1.58,1.46-1.97.51-.39,1.03-.62,1.55-.69s1.04-.05,1.55.08.99.22,1.44.3.86.07,1.23-.02.68-.39.93-.89c1.28-2.61.87-5.16-1.25-7.65s-5.71-4.99-10.78-7.48c-5.15-2.54-9.36-3.89-12.64-4.05s-5.56,1.06-6.84,3.67c-.25.5-.3.93-.16,1.27.14.34.37.66.68.96s.66.61,1.05.93.7.71.94,1.15.36.98.36,1.62-.22,1.43-.68,2.35l-3.91,7.95-14.16-6.97,3.91-7.95c.45-.92.94-1.58,1.44-1.97s1-.63,1.5-.71,1-.06,1.49.05c.5.12.95.21,1.38.27s.82.05,1.18-.05c.36-.09.66-.4.91-.9.64-1.3.85-2.59.63-3.86-.23-1.27-.86-2.53-1.9-3.79s-2.48-2.51-4.32-3.77c-1.83-1.26-4.03-2.52-6.6-3.78-2.48-1.23-4.76-2.17-6.82-2.83-2.06-.67-3.9-1.02-5.51-1.07s-2.99.23-4.13.83c-1.15.59-2.04,1.55-2.68,2.85-.25.5-.3.93-.16,1.27.14.34.37.66.68.96.32.3.66.6,1.04.92s.69.7.93,1.14.36.98.36,1.62-.22,1.43-.68,2.35l-11.7,23.77c-.47.95-.95,1.61-1.45,1.99-.5.38-1,.61-1.5.69-.5.08-.99.07-1.47-.04s-.94-.19-1.36-.26c-.43-.06-.82-.05-1.18.05-.36.09-.66.4-.91.9-.64,1.3-.86,2.6-.64,3.88.22,1.28.84,2.54,1.86,3.79s2.43,2.49,4.21,3.72c1.79,1.23,3.92,2.46,6.4,3.68,5.13,2.53,9.34,3.87,12.63,4.04s5.58-1.06,6.87-3.69c.25-.5.3-.92.16-1.27-.14-.35-.36-.67-.67-.98-.3-.3-.65-.62-1.04-.94s-.71-.71-.95-1.17-.37-1.01-.37-1.67c-.01-.65.22-1.45.69-2.4l4.73-9.62,14.23,7h-.04Z" fill="#fff"/>
  <path d="M432.65,106.97c1.19,1.24,2.4,2.16,3.62,2.79,1.22.62,2.41.99,3.57,1.09,1.16.11,2.25-.03,3.28-.4,1.02-.37,1.94-.95,2.75-1.73.34-.33.52-.66.55-1s-.03-.67-.16-1c-.14-.33-.31-.67-.52-1.02s-.37-.7-.49-1.04-.15-.7-.09-1.06c.06-.37.28-.74.67-1.11.4-.4,1.03-.79,1.88-1.19l2.33-1.08,9.92,10.27-1.35,2.09c-.37.59-.75,1.08-1.14,1.45-.45.44-.88.69-1.28.77-.4.07-.77.05-1.13-.06s-.71-.28-1.05-.5c-.35-.22-.68-.4-1-.55-.32-.14-.65-.21-.98-.2s-.68.19-1.03.53c-1.04,1.01-1.68,2.16-1.91,3.44s-.07,2.68.47,4.21c.54,1.52,1.45,3.17,2.71,4.93,1.27,1.77,2.86,3.64,4.78,5.63,3.97,4.12,7.47,6.81,10.51,8.08s5.61.89,7.72-1.15c.4-.39.6-.76.6-1.12s-.1-.74-.29-1.14-.43-.83-.71-1.29c-.28-.46-.49-.99-.64-1.58s-.18-1.26-.08-2c.09-.74.41-1.59.96-2.54l13.57-23.9c.41-.69.8-1.21,1.15-1.55.4-.4.8-.62,1.18-.68.38-.06.74-.03,1.09.09s.68.29,1,.5c.32.21.63.4.95.55s.62.24.92.26c.3.02.59-.1.88-.38.06-.06.16-.19.3-.39,1.06-1.54,1.55-3.11,1.5-4.72-.06-1.61-.49-3.26-1.31-4.95-.81-1.68-1.93-3.38-3.34-5.1s-2.95-3.44-4.63-5.18c-1.99-2.06-3.9-3.85-5.73-5.37s-3.57-2.7-5.23-3.52-3.24-1.24-4.74-1.26c-1.5,0-2.91.45-4.24,1.41-.08.04-.18.13-.3.24-.44.42-.59.84-.46,1.27.13.42.32.86.55,1.3.24.44.4.89.49,1.36s-.13.96-.65,1.46c-.2.2-.46.4-.79.6-.32.2-.72.42-1.19.64l-24.96,12.1c-1.02.49-1.91.77-2.66.81s-1.42-.02-2.02-.2-1.12-.41-1.57-.71c-.45-.3-.88-.55-1.27-.76-.4-.21-.77-.32-1.13-.33-.35-.02-.74.17-1.14.56-.81.78-1.41,1.68-1.82,2.69s-.58,2.1-.52,3.26.39,2.37.98,3.62,1.48,2.5,2.69,3.75v.02ZM455.17,97.81l18.59-10.19-10.96,18.1-7.65-7.91h0Z" fill="#fff"/>
  <path d="M529.63,161.5c-.42.22-.81.24-1.16.06-.36-.18-.73-.38-1.11-.62-.38-.24-.81-.42-1.26-.54s-.99-.02-1.62.3c-.86.43-1.5,1.06-1.91,1.86s-.66,1.7-.73,2.7.03,2.05.31,3.16c.27,1.11.68,2.19,1.21,3.23.55,1.09,1.23,2.09,2.05,3.02s1.73,1.66,2.74,2.2,2.1.84,3.26.9c1.16.06,2.36-.22,3.59-.85,1.35-.69,2.56-1.77,3.61-3.24,1.06-1.47,1.75-3.31,2.09-5.54.34-2.22.21-4.82-.37-7.8s-1.82-6.31-3.7-10.01c-1.06-2.07-2.21-3.98-3.47-5.75s-2.62-3.32-4.08-4.67c-1.47-1.35-3.02-2.46-4.66-3.33s-3.38-1.45-5.21-1.74c-1.83-.29-3.75-.26-5.75.09-2,.35-4.1,1.08-6.29,2.2-2.22,1.13-3.95,2.5-5.22,4.12-1.26,1.62-2.2,3.37-2.8,5.26s-.93,3.86-.98,5.93c-.05,2.06.04,4.09.25,6.09.21,1.99.5,3.92.87,5.77s.67,3.51.9,4.97c.23,1.46.34,2.67.34,3.65-.01.97-.27,1.59-.79,1.86-.41.21-.87.35-1.36.42-.5.07-1.03-.06-1.62-.38s-1.21-.9-1.88-1.71-1.39-2-2.18-3.54c-.57-1.1-.96-2.14-1.19-3.1-.23-.97-.34-1.81-.33-2.54s.12-1.34.32-1.82c.2-.49.46-.81.77-.97,1.3-.66,2.33-1.48,3.09-2.46.76-.98,1.29-2.03,1.6-3.13.3-1.11.4-2.22.27-3.34s-.43-2.15-.91-3.09c-.39-.77-.9-1.45-1.51-2.03s-1.31-1.02-2.11-1.31-1.68-.4-2.64-.33c-.96.07-1.98.38-3.04.92-1.4.71-2.55,1.69-3.46,2.93s-1.6,2.66-2.06,4.25c-.47,1.59-.73,3.33-.78,5.21-.05,1.88.07,3.82.4,5.81s.82,4.01,1.5,6.06c.67,2.04,1.5,4.03,2.48,5.95,1.67,3.28,3.48,6.17,5.41,8.67,1.93,2.5,4.02,4.45,6.26,5.85,2.24,1.4,4.64,2.15,7.2,2.27s5.3-.57,8.22-2.06c2.28-1.16,4.07-2.6,5.37-4.33s2.24-3.62,2.83-5.67c.58-2.05.9-4.21.96-6.47.05-2.26-.02-4.51-.23-6.75-.21-2.24-.46-4.4-.76-6.48s-.5-3.98-.6-5.67-.03-3.14.22-4.33.82-2.01,1.72-2.47c.44-.23.91-.39,1.4-.48s1.03,0,1.6.27c.57.28,1.19.8,1.84,1.57s1.36,1.91,2.13,3.41c1.11,2.18,1.69,3.91,1.75,5.21.06,1.3-.21,2.1-.79,2.4v-.02Z" fill="#fff"/>
  <path d="M35.09,396.48l7.59,14.08c1.86,3.45,3.67,6.4,5.44,8.87s3.5,4.52,5.17,6.14,3.3,2.87,4.87,3.74,3.1,1.43,4.58,1.68c1.48.26,2.91.23,4.3-.06,1.39-.3,2.72-.79,4-1.48,2.31-1.25,4.04-2.65,5.19-4.2s1.88-3.16,2.19-4.83c.31-1.67.29-3.35-.06-5.04s-.87-3.29-1.56-4.81c.47.76,1.01,1.52,1.63,2.28s1.3,1.45,2.05,2.07c.74.62,1.55,1.16,2.42,1.61s1.8.75,2.79.91,2.03.14,3.13-.05,2.25-.61,3.47-1.27c1.06-.56,2.07-1.21,3.05-1.94.98-.72,1.81-1.62,2.51-2.67.69-1.06,1.19-2.31,1.5-3.77.31-1.45.32-3.19.04-5.19-.29-2.01-.91-4.34-1.88-7s-2.38-5.71-4.24-9.16l-8.89-16.49c-1.31-2.44-2.61-4.52-3.91-6.26-1.3-1.73-2.59-3.09-3.87-4.06s-2.56-1.55-3.84-1.72c-1.28-.18-2.56.08-3.84.77-.5.27-.79.59-.87.95s-.08.76,0,1.18c.08.42.19.87.31,1.35.12.48.15.97.09,1.47-.06.5-.28,1.01-.65,1.53-.37.52-1.01,1.02-1.92,1.51l-23.32,12.58c-.93.5-1.71.76-2.34.78s-1.17-.08-1.62-.3c-.46-.22-.85-.51-1.18-.88-.33-.37-.65-.7-.96-1s-.64-.52-.99-.65-.77-.07-1.27.2c-1.28.69-2.2,1.62-2.77,2.79s-.8,2.56-.69,4.17c.11,1.61.53,3.43,1.27,5.47.74,2.04,1.77,4.28,3.08,6.71h0ZM65.98,399.66c.49.91.71,1.74.68,2.49-.04.75-.29,1.45-.75,2.1-.47.65-1.13,1.27-1.99,1.87-.87.6-1.88,1.21-3.03,1.83-1.26.67-2.43,1.21-3.51,1.59-1.09.39-2.09.56-3,.52s-1.74-.31-2.49-.81-1.42-1.3-2.01-2.39c-.46-.87-.67-1.63-.61-2.29.06-.66.29-1.23.69-1.75s.94-.98,1.62-1.4c.67-.42,1.4-.84,2.16-1.25l9.38-5.06c.1.08.28.29.54.63.21.28.5.73.86,1.33.37.6.85,1.46,1.45,2.57v.02ZM71.09,396.88c-.6-1.11-1.05-1.98-1.35-2.62s-.51-1.12-.64-1.45c-.16-.4-.23-.66-.23-.8l9.38-5.06c.76-.41,1.5-.78,2.23-1.12s1.41-.53,2.06-.59c.64-.06,1.26.07,1.84.38s1.1.9,1.57,1.77c.58,1.09.88,2.09.89,2.99s-.22,1.74-.69,2.53-1.16,1.53-2.08,2.22c-.92.69-1.99,1.37-3.23,2.04-1.15.62-2.22,1.13-3.19,1.52s-1.86.6-2.67.64-1.53-.14-2.18-.52c-.64-.39-1.21-1.03-1.7-1.94h0Z" fill="#fff"/>
  <path d="M95.07,479.96c3.42,3.2,6.66,5.7,9.71,7.48,3.05,1.78,5.93,2.99,8.66,3.63,2.73.64,5.31.78,7.74.43s4.74-1.07,6.92-2.14c2.18-1.07,4.25-2.43,6.22-4.07,1.97-1.64,3.86-3.41,5.65-5.33,1.59-1.69,3-3.5,4.24-5.42,1.23-1.92,2.2-3.94,2.87-6.05s1.04-4.31,1.1-6.58-.3-4.62-1.06-7.04-1.99-4.9-3.67-7.42-3.91-5.08-6.68-7.68c-3.43-3.22-6.66-5.74-9.67-7.57s-5.85-3.09-8.53-3.78-5.2-.88-7.58-.57-4.65.99-6.81,2.05-4.23,2.41-6.22,4.07c-1.98,1.65-3.92,3.49-5.81,5.51-1.65,1.76-3.08,3.65-4.29,5.64s-2.14,4.09-2.78,6.28c-.64,2.2-.97,4.46-.97,6.8s.37,4.72,1.13,7.13c.76,2.41,1.95,4.85,3.56,7.31,1.61,2.46,3.71,4.9,6.29,7.32h-.02ZM102.88,474.58c-.78-.74-1.14-1.68-1.07-2.84.07-1.15.43-2.43,1.09-3.84s1.55-2.9,2.68-4.48c1.12-1.58,2.34-3.15,3.66-4.73s2.66-3.12,4.04-4.62c1.38-1.51,2.65-2.88,3.82-4.13,1.28-1.37,2.46-2.53,3.53-3.49,1.07-.95,2.07-1.66,3-2.12.93-.47,1.82-.65,2.66-.55.84.09,1.67.52,2.47,1.27.78.74,1.2,1.63,1.24,2.66.04,1.04-.19,2.18-.7,3.42-.51,1.25-1.23,2.56-2.15,3.94-.93,1.38-1.98,2.79-3.15,4.21s-2.4,2.84-3.69,4.25-2.54,2.77-3.76,4.07l-1.08,1.15c-1.38,1.47-2.67,2.73-3.87,3.79s-2.31,1.86-3.35,2.4c-1.03.54-1.99.8-2.88.77-.89-.02-1.72-.4-2.49-1.12h0Z" fill="#fff"/>
  <path d="M173.11,517.31l12.75-25.61c.46-.92.94-1.58,1.45-1.97.51-.39,1.01-.63,1.51-.71s1-.06,1.49.05c.5.11.95.2,1.38.27.43.07.82.06,1.18-.04.37-.1.67-.4.92-.9.64-1.3.86-2.59.64-3.86-.22-1.28-.85-2.54-1.89-3.8s-2.48-2.52-4.31-3.78c-1.84-1.26-4.04-2.52-6.6-3.79-2.48-1.23-4.75-2.17-6.81-2.84-2.07-.67-3.9-1.03-5.51-1.08s-2.99.22-4.13.82-2.04,1.55-2.68,2.85c-.25.5-.3.92-.16,1.27.14.34.37.66.68.96.31.29.65.6,1.03.92.37.31.68.7.92,1.14.23.45.35.99.35,1.63s-.23,1.43-.69,2.35l-11.75,23.75c-.46.95-.95,1.61-1.45,1.99s-1,.61-1.5.69-.99.07-1.47-.04c-.48-.11-.94-.19-1.36-.26-.43-.07-.82-.06-1.18.04-.37.1-.67.4-.92.9-.64,1.3-.86,2.6-.64,3.88.22,1.29.83,2.55,1.85,3.8,1.02,1.24,2.42,2.49,4.2,3.72s3.91,2.46,6.39,3.69l21.55,10.66c1.07.53,2.16.81,3.26.83s2.17-.14,3.22-.49c1.05-.35,2.07-.84,3.04-1.5s1.88-1.39,2.73-2.2,1.6-1.68,2.27-2.6c.67-.93,1.21-1.82,1.64-2.68.43-.88.69-1.75.77-2.6s0-1.64-.24-2.37-.63-1.39-1.17-1.99c-.54-.59-1.21-1.09-2.01-1.48-.67-.33-1.39-.54-2.17-.64-.77-.1-1.59-.04-2.44.18-.85.22-1.74.62-2.65,1.2-.92.58-1.85,1.38-2.8,2.4l-4,4.84c-.72-.27-1.29-.49-1.7-.64-.41-.15-.72-.27-.92-.36-.21-.08-.34-.14-.41-.16-.07-.02-.13-.04-.17-.06-.37-.19-.76-.45-1.14-.78-.39-.33-.68-.76-.89-1.26s-.29-1.11-.24-1.82c.05-.71.31-1.54.79-2.51h-.02Z" fill="#fff"/>
  <path d="M222.36,548.81c1.69.27,3.22.29,4.57.05s2.52-.66,3.51-1.28c.98-.61,1.77-1.37,2.37-2.29s.98-1.93,1.16-3.04c.07-.46.02-.84-.16-1.13-.19-.29-.43-.52-.73-.7s-.64-.34-1.02-.5-.72-.34-1.02-.54c-.3-.2-.54-.46-.71-.79-.17-.32-.21-.75-.13-1.28.09-.55.35-1.25.79-2.08l1.21-2.26,14.1,2.23.18,2.48c.06.69.04,1.31-.04,1.84-.1.63-.29,1.09-.56,1.39-.28.3-.59.51-.94.63s-.73.2-1.14.23c-.41.03-.79.08-1.13.16s-.64.22-.9.43c-.26.21-.42.55-.5,1.04-.23,1.43-.05,2.73.54,3.89.59,1.16,1.56,2.19,2.91,3.08s3.06,1.66,5.13,2.31c2.07.65,4.47,1.19,7.2,1.62,5.65.89,10.07.93,13.26.12s5.01-2.67,5.47-5.56c.09-.56.03-.98-.19-1.26-.22-.28-.52-.52-.92-.73-.4-.2-.85-.4-1.35-.6s-.98-.49-1.46-.87-.9-.9-1.27-1.55c-.37-.65-.62-1.52-.76-2.61l-3.55-27.25c-.09-.79-.1-1.43-.02-1.92.09-.56.27-.97.54-1.25s.58-.47.93-.58c.35-.11.72-.18,1.1-.2.38-.02.75-.07,1.09-.13.34-.07.64-.18.89-.34.25-.16.41-.44.47-.83v-.5c-.08-1.86-.63-3.42-1.64-4.67-1.01-1.25-2.35-2.3-4.02-3.16s-3.58-1.55-5.74-2.07c-2.16-.52-4.44-.97-6.82-1.35-2.82-.45-5.42-.73-7.8-.85-2.38-.11-4.48,0-6.3.34-1.83.34-3.34.95-4.55,1.84-1.21.89-2.06,2.11-2.54,3.67-.04.09-.07.22-.1.38-.1.6.04,1.03.4,1.29.36.26.77.49,1.22.71s.86.48,1.21.8c.36.32.47.83.36,1.55-.05.27-.14.59-.28.95-.14.36-.33.77-.57,1.23l-12.67,24.68c-.52,1.01-1.07,1.76-1.64,2.25s-1.15.84-1.73,1.06c-.58.22-1.14.35-1.68.38s-1.03.09-1.47.16c-.44.07-.81.21-1.1.41-.29.21-.48.58-.57,1.14-.18,1.11-.12,2.2.16,3.25.28,1.06.8,2.03,1.55,2.92s1.73,1.65,2.96,2.3c1.23.65,2.7,1.11,4.41,1.38l.03-.02ZM234.82,527.99l8.72-19.32,2.15,21.05-10.87-1.72h0Z" fill="#fff"/>
  <path d="M326.06,553.83c3.53-.45,6.7-1.29,9.51-2.52s5.17-2.67,7.08-4.32c1.91-1.65,3.33-3.44,4.25-5.35s1.26-3.8,1.02-5.66c-.16-1.19-.51-2.08-1.06-2.7s-1.15-.88-1.8-.8c-.35.05-.71.21-1.09.48-.38.28-.71.67-1,1.18-.23.38-.62.82-1.16,1.3s-1.2.95-1.98,1.42c-.78.47-1.65.89-2.62,1.26s-1.97.63-3.02.76c-1.02.13-2.06.15-3.11.06s-2.09-.36-3.12-.82-2.02-1.14-2.98-2.06c-.96-.92-1.85-2.14-2.67-3.66-.83-1.53-1.56-3.4-2.2-5.62-.64-2.22-1.16-4.86-1.56-7.93-.3-2.32-.35-4.36-.15-6.11.2-1.75.56-3.22,1.08-4.41.52-1.19,1.17-2.1,1.95-2.75.78-.64,1.6-1.02,2.46-1.13,1.14-.14,2.27.19,3.39,1,1.12.82,2.01,2.1,2.66,3.86.46,1.24,1.01,2.27,1.65,3.07s1.32,1.44,2.04,1.9,1.46.76,2.21.9,1.49.16,2.21.07c.81-.1,1.56-.34,2.23-.71s1.23-.84,1.69-1.42c.46-.58.79-1.26.98-2.04s.23-1.64.11-2.57c-.29-2.28-1.08-4.28-2.35-5.99-1.27-1.72-2.87-3.11-4.79-4.17s-4.09-1.79-6.5-2.19-4.91-.43-7.49-.1c-3.9.51-7.34,1.32-10.3,2.43-2.97,1.11-5.52,2.48-7.68,4.09s-3.93,3.44-5.32,5.49-2.46,4.26-3.19,6.62c-.74,2.36-1.18,4.85-1.31,7.45s-.02,5.28.33,8.02c.31,2.39.89,4.68,1.72,6.88s1.92,4.24,3.25,6.12c1.33,1.89,2.9,3.58,4.7,5.07s3.82,2.71,6.06,3.68,4.68,1.62,7.33,1.98c2.65.35,5.49.33,8.54-.06h0Z" fill="#fff"/>
  <path d="M405.67,500.83l4.72,9.63c.47.97.71,1.77.71,2.41s-.11,1.19-.35,1.64-.55.84-.94,1.16c-.38.32-.73.63-1.04.94s-.54.64-.68.98c-.14.34-.09.77.16,1.27.64,1.3,1.53,2.26,2.68,2.87s2.54.89,4.17.83c1.63-.05,3.5-.42,5.62-1.11s4.46-1.66,7.03-2.92c2.52-1.23,4.69-2.48,6.51-3.72,1.81-1.24,3.24-2.49,4.27-3.74,1.04-1.25,1.66-2.52,1.88-3.8s.01-2.58-.63-3.88c-.25-.51-.56-.81-.93-.9-.37-.09-.78-.1-1.23-.04-.45.07-.93.16-1.45.28s-1.04.14-1.56.06c-.53-.08-1.05-.32-1.57-.72-.52-.4-1.02-1.07-1.48-2.02l-11.61-23.66c-.46-.93-.68-1.72-.67-2.36.01-.65.15-1.19.41-1.65.26-.45.6-.85,1.01-1.18.42-.33.79-.65,1.12-.96s.58-.64.73-.99.11-.78-.14-1.28c-1.28-2.6-3.55-3.83-6.82-3.68s-7.44,1.47-12.51,3.96c-5.16,2.53-8.8,5.04-10.93,7.53-2.13,2.5-2.56,5.05-1.28,7.66.24.5.55.8.91.9.36.1.76.11,1.18.05.43-.07.89-.16,1.38-.27.5-.11.99-.12,1.49-.04.49.08.99.31,1.5.71s.99,1.05,1.44,1.98l3.9,7.95-14.17,6.95-3.9-7.95c-.45-.93-.68-1.71-.68-2.35s.12-1.18.36-1.62c.23-.44.55-.83.94-1.15.39-.32.74-.63,1.05-.93.31-.29.54-.62.68-.96s.09-.77-.16-1.27c-.63-1.31-1.53-2.26-2.67-2.86s-2.53-.88-4.16-.82c-1.63.05-3.5.42-5.62,1.11s-4.46,1.66-7.03,2.92c-2.48,1.22-4.61,2.44-6.4,3.67s-3.19,2.46-4.21,3.71c-1.02,1.24-1.65,2.5-1.87,3.77-.23,1.28-.02,2.57.62,3.87.24.5.55.8.91.9.36.1.75.12,1.18.05.42-.07.88-.15,1.36-.26.48-.11.97-.12,1.47-.04.49.08.99.31,1.5.71s.99,1.05,1.44,1.98l11.67,23.79c.46.94.7,1.73.69,2.36s-.13,1.17-.37,1.61-.55.82-.93,1.14-.73.62-1.04.92c-.31.29-.54.62-.68.96-.14.34-.09.77.16,1.27.64,1.3,1.53,2.26,2.68,2.87,1.15.61,2.53.89,4.14.85,1.61-.05,3.45-.4,5.51-1.06,2.06-.66,4.34-1.6,6.82-2.82,5.13-2.52,8.77-5.03,10.91-7.53,2.15-2.49,2.57-5.06,1.28-7.69-.24-.5-.55-.8-.91-.9-.36-.09-.77-.12-1.19-.06s-.89.14-1.38.25c-.49.12-1,.13-1.51.04-.51-.09-1.03-.33-1.55-.73-.52-.4-1.02-1.07-1.48-2.02l-4.72-9.63,14.23-6.98.03.04Z" fill="#fff"/>
  <path d="M472.67,486.07c1.19-1.23,2.08-2.46,2.66-3.71s.9-2.45.97-3.61-.1-2.25-.51-3.26c-.4-1.01-1.01-1.91-1.82-2.69-.34-.33-.68-.5-1.02-.52s-.67.04-.99.19-.66.33-1,.55c-.34.23-.68.4-1.02.53-.33.13-.68.17-1.05.13-.37-.05-.74-.25-1.13-.63-.41-.39-.82-1-1.25-1.84l-1.16-2.29,9.93-10.25,2.13,1.28c.61.35,1.1.71,1.49,1.09.46.44.73.85.82,1.25s.08.77-.02,1.13c-.1.35-.26.71-.47,1.06s-.38.69-.52,1.01c-.13.33-.19.66-.17.99s.21.67.56,1.01c1.05,1.02,2.21,1.61,3.5,1.8,1.28.19,2.68,0,4.19-.61s3.13-1.56,4.84-2.88,3.54-2.97,5.46-4.96c3.98-4.11,6.55-7.7,7.72-10.78,1.17-3.08.7-5.63-1.4-7.67-.4-.4-.78-.58-1.14-.57-.36.02-.73.13-1.13.33s-.82.45-1.27.75c-.46.3-.97.53-1.56.7-.59.16-1.25.21-2,.14s-1.61-.36-2.58-.88l-24.34-12.76c-.7-.38-1.23-.75-1.58-1.09-.4-.39-.64-.78-.71-1.16s-.05-.75.06-1.09.27-.68.47-1.01c.2-.33.38-.65.52-.97.14-.31.22-.62.23-.92.01-.29-.12-.58-.41-.86-.07-.06-.2-.16-.4-.29-1.57-1-3.16-1.45-4.77-1.34-1.61.11-3.24.6-4.9,1.47s-3.32,2.05-4.99,3.51-3.34,3.07-5.02,4.8c-1.99,2.05-3.72,4.02-5.18,5.9s-2.57,3.66-3.34,5.35c-.76,1.69-1.14,3.28-1.1,4.78s.55,2.9,1.55,4.19c.05.08.13.18.25.29.44.41.87.56,1.29.41.42-.14.85-.34,1.28-.59.44-.25.89-.42,1.35-.53.47-.1.96.1,1.48.6.2.19.41.45.62.77s.44.71.68,1.17l12.93,24.54c.53,1,.83,1.88.9,2.63s.03,1.43-.13,2.03-.38,1.13-.66,1.59c-.28.46-.52.89-.71,1.29-.19.41-.29.78-.29,1.14s.2.73.6,1.12c.81.78,1.73,1.36,2.75,1.73,1.03.38,2.12.51,3.28.41s2.36-.47,3.59-1.1,2.45-1.57,3.66-2.82h-.01ZM452,445.63l18.45,10.34-7.65,7.91-10.81-18.24Z" fill="#fff"/>
  <path d="M498.07,376.64c.42.21.65.51.72.9s.12.81.15,1.26c.03.45.13.9.3,1.34s.56.82,1.19,1.14c.86.44,1.73.59,2.63.46s1.77-.46,2.62-.99,1.64-1.23,2.38-2.1c.74-.88,1.38-1.84,1.91-2.88.55-1.08.97-2.23,1.24-3.43s.33-2.37.17-3.5-.55-2.19-1.18-3.17-1.56-1.79-2.79-2.42c-1.36-.7-2.94-1.03-4.75-1.03-1.8.01-3.71.53-5.71,1.56s-4.04,2.65-6.11,4.87-4.05,5.18-5.94,8.87c-1.06,2.07-1.93,4.13-2.63,6.18-.69,2.05-1.15,4.07-1.39,6.04s-.22,3.88.03,5.72.8,3.58,1.64,5.24,1.99,3.19,3.45,4.61c1.46,1.42,3.29,2.69,5.48,3.81,2.21,1.13,4.35,1.73,6.4,1.81s4.02-.19,5.9-.81,3.68-1.51,5.38-2.68c1.7-1.17,3.29-2.43,4.79-3.77s2.88-2.71,4.17-4.09,2.45-2.6,3.5-3.64,1.97-1.85,2.76-2.42,1.45-.72,1.97-.45c.42.21.8.5,1.14.86.35.36.55.87.64,1.53s-.01,1.5-.28,2.52c-.27,1.02-.8,2.31-1.59,3.85-.57,1.11-1.17,2.03-1.82,2.78-.64.75-1.26,1.33-1.86,1.75-.6.42-1.15.69-1.66.81s-.92.1-1.23-.06c-1.29-.66-2.56-1.02-3.8-1.06-1.24-.05-2.4.13-3.47.53-1.07.39-2.02.97-2.86,1.73-.83.75-1.49,1.6-1.97,2.54-.39.77-.65,1.57-.76,2.41-.12.84-.06,1.67.17,2.48s.66,1.59,1.28,2.33,1.47,1.39,2.53,1.93c1.4.72,2.86,1.08,4.4,1.09s3.09-.26,4.65-.82c1.56-.55,3.12-1.36,4.68-2.42s3.05-2.3,4.48-3.73,2.78-3.02,4.04-4.77,2.39-3.58,3.37-5.5c1.67-3.27,2.96-6.43,3.85-9.46.89-3.04,1.25-5.87,1.07-8.5s-.97-5.02-2.38-7.16-3.57-3.95-6.49-5.45c-2.28-1.17-4.5-1.77-6.66-1.81s-4.25.3-6.25,1.03c-2.01.72-3.94,1.73-5.81,3.01-1.87,1.28-3.65,2.66-5.34,4.14s-3.29,2.95-4.8,4.41c-1.51,1.46-2.92,2.73-4.24,3.81-1.32,1.07-2.53,1.86-3.64,2.36s-2.11.52-3.01.06c-.44-.22-.84-.51-1.2-.85-.37-.34-.61-.83-.72-1.45s-.05-1.43.19-2.41c.24-.98.74-2.23,1.51-3.73,1.11-2.17,2.17-3.66,3.19-4.47,1.01-.8,1.82-1.06,2.4-.76l-.03.02Z" fill="#fff"/>
  <path d="M34.21,289.44c.09-.02.25.29.48.92.23.64.52,1.47.85,2.51.33,1.03.73,2.22,1.19,3.56s.98,2.7,1.57,4.08c.59,1.39,1.24,2.75,1.94,4.1s1.47,2.54,2.3,3.58c.83,1.03,1.72,1.87,2.68,2.52.96.65,1.98.97,3.06.97.83,0,1.71-.16,2.63-.48.92-.32,1.82-.76,2.7-1.31s1.71-1.19,2.49-1.9,1.47-1.45,2.07-2.21,1.07-1.54,1.42-2.32c.35-.78.52-1.51.52-2.18,0-1.36-.42-2.69-1.26-3.98s-1.91-2.49-3.2-3.6c-.86-.71-1.75-1.48-2.7-2.3s-1.87-1.63-2.77-2.44-1.76-1.58-2.58-2.32-1.54-1.39-2.16-1.97c-.63-.58-1.12-1.04-1.49-1.37-.37-.34-.55-.52-.55-.54,1.69-.14,3.41-.31,5.19-.52,1.53-.16,3.2-.35,5.02-.57s3.58-.46,5.29-.71c1.27-.18,2.45-.45,3.56-.81,1.1-.36,2.07-.83,2.9-1.45s1.49-1.37,1.97-2.27c.49-.9.73-1.97.73-3.22,0-.73-.08-1.54-.24-2.4-.17-.86-.43-1.81-.8-2.85-.9-2.53-2-4.36-3.3-5.48-1.31-1.12-2.72-1.68-4.24-1.68-.69,0-1.49.14-2.4.4-.91.27-1.87.61-2.9,1.04-1.02.42-2.08.91-3.16,1.45-1.09.54-2.14,1.09-3.15,1.64-2.42,1.32-4.92,2.82-7.5,4.5.32-1.82.65-3.66.97-5.53.14-.79.29-1.62.45-2.51.16-.88.33-1.77.5-2.66.17-.89.35-1.77.52-2.65.18-.87.36-1.71.54-2.52.14-.64.26-1.29.35-1.95.09-.65.14-1.28.14-1.88,0-1.1-.17-2.14-.5-3.11-.33-.96-.88-1.8-1.64-2.52-.76-.72-1.77-1.27-3.01-1.68s-2.79-.61-4.63-.61-3.39.21-4.63.61c-1.25.41-2.25.97-3.01,1.68-.77.71-1.31,1.55-1.63,2.52s-.48,2-.48,3.11c0,.6.05,1.22.14,1.88.1.65.21,1.3.35,1.95.16.8.34,1.64.52,2.52.19.88.37,1.76.54,2.65s.34,1.77.5,2.66.31,1.73.45,2.51c.32,1.86.65,3.71.97,5.53-2.61-1.69-5.12-3.19-7.54-4.5-1.04-.55-2.1-1.1-3.18-1.64-1.09-.54-2.14-1.02-3.15-1.45-1.02-.43-1.98-.77-2.89-1.04s-1.7-.4-2.37-.4c-1.52,0-2.94.56-4.27,1.68-1.32,1.12-2.42,2.94-3.3,5.48-.35,1.03-.6,1.99-.76,2.85-.16.86-.24,1.66-.24,2.4,0,1.25.24,2.32.71,3.22.47.9,1.12,1.66,1.95,2.27.82.61,1.79,1.09,2.9,1.45s2.31.63,3.6.81c1.7.26,3.46.49,5.27.71s3.48.41,5,.57c1.77.21,3.51.38,5.22.52,0,.03-.18.21-.55.54-.37.34-.87.79-1.49,1.37s-1.35,1.23-2.18,1.97c-.83.74-1.69,1.51-2.59,2.32-.9.81-1.82,1.62-2.75,2.44-.93.82-1.83,1.59-2.68,2.3-1.29,1.11-2.36,2.31-3.2,3.6s-1.26,2.62-1.26,3.98c0,.67.17,1.4.52,2.18.35.79.82,1.56,1.42,2.32.59.76,1.29,1.5,2.07,2.21s1.61,1.35,2.49,1.9c.87.55,1.76.99,2.66,1.31s1.76.48,2.59.48c.9,0,1.72-.17,2.47-.52s1.44-.82,2.09-1.42c.64-.6,1.23-1.31,1.76-2.13s1.04-1.71,1.52-2.68c.8-1.66,1.6-3.4,2.4-5.22.8-1.82,1.51-3.49,2.13-5.01.73-1.78,1.42-3.53,2.07-5.26h0Z" fill="#fff"/>
  <path d="M539.07,289.44c.09-.02.25.29.48.92.23.64.52,1.47.85,2.51.33,1.03.73,2.22,1.19,3.56s.98,2.69,1.57,4.08,1.24,2.75,1.94,4.1c.7,1.35,1.47,2.54,2.3,3.58.83,1.03,1.72,1.87,2.68,2.52s1.98.97,3.06.97c.83,0,1.71-.16,2.63-.48s1.82-.76,2.7-1.31,1.71-1.19,2.49-1.9,1.47-1.45,2.07-2.21,1.07-1.54,1.42-2.32c.35-.78.52-1.51.52-2.18,0-1.36-.42-2.69-1.26-3.98s-1.91-2.49-3.2-3.6c-.86-.71-1.75-1.48-2.7-2.3s-1.87-1.63-2.77-2.44-1.76-1.58-2.58-2.32c-.82-.74-1.54-1.39-2.16-1.97-.63-.58-1.12-1.04-1.49-1.37-.37-.34-.55-.52-.55-.54,1.68-.14,3.41-.31,5.19-.52,1.52-.16,3.19-.35,5.01-.57s3.58-.46,5.29-.71c1.27-.18,2.45-.45,3.56-.81,1.11-.36,2.08-.84,2.91-1.45.83-.62,1.49-1.37,1.97-2.27.49-.9.73-1.97.73-3.22,0-.73-.08-1.54-.24-2.4-.17-.86-.43-1.81-.8-2.85-.9-2.53-2-4.36-3.3-5.48-1.31-1.12-2.72-1.68-4.24-1.68-.69,0-1.49.14-2.4.4-.91.27-1.87.61-2.9,1.04-1.02.42-2.07.91-3.16,1.45s-2.14,1.09-3.15,1.64c-2.42,1.32-4.92,2.82-7.5,4.5.32-1.82.65-3.66.97-5.53.14-.79.29-1.62.45-2.51.16-.88.33-1.77.5-2.66.17-.89.35-1.77.52-2.65.18-.87.36-1.71.54-2.52.14-.64.26-1.29.35-1.95.09-.65.14-1.28.14-1.88,0-1.1-.17-2.14-.5-3.11-.33-.96-.88-1.8-1.64-2.52-.76-.72-1.77-1.27-3.01-1.68s-2.79-.61-4.63-.61-3.38.2-4.63.61-2.25.97-3.01,1.68c-.77.71-1.31,1.55-1.63,2.52s-.48,2-.48,3.11c0,.6.05,1.22.14,1.88.1.65.21,1.3.35,1.95.16.8.34,1.64.52,2.52.19.88.37,1.76.54,2.65s.34,1.77.5,2.66c.16.89.31,1.73.45,2.51.32,1.86.65,3.71.97,5.53-2.61-1.69-5.12-3.19-7.54-4.5-1.04-.55-2.1-1.1-3.18-1.64-1.09-.54-2.14-1.02-3.15-1.45-1.02-.43-1.98-.77-2.89-1.04s-1.7-.4-2.37-.4c-1.52,0-2.94.56-4.27,1.68-1.32,1.12-2.42,2.94-3.3,5.48-.34,1.03-.6,1.99-.76,2.85s-.24,1.66-.24,2.4c0,1.25.24,2.32.71,3.22s1.12,1.66,1.95,2.27,1.8,1.09,2.91,1.45c1.11.36,2.31.63,3.6.81,1.7.26,3.46.49,5.27.71s3.48.41,5,.57c1.77.21,3.51.38,5.22.52,0,.03-.18.21-.55.54-.37.34-.87.79-1.49,1.37s-1.35,1.23-2.18,1.97c-.83.74-1.69,1.51-2.59,2.32s-1.82,1.62-2.75,2.44c-.93.82-1.83,1.59-2.68,2.3-1.29,1.11-2.36,2.31-3.2,3.6s-1.26,2.62-1.26,3.98c0,.67.17,1.4.52,2.18.35.79.82,1.56,1.42,2.32.6.76,1.3,1.5,2.08,2.21s1.61,1.35,2.49,1.9c.87.55,1.76.99,2.66,1.31s1.76.48,2.59.48c.9,0,1.72-.17,2.47-.52s1.44-.82,2.09-1.42c.64-.6,1.23-1.31,1.76-2.13s1.04-1.71,1.52-2.68c.8-1.66,1.6-3.4,2.4-5.22s1.51-3.49,2.13-5.01c.74-1.78,1.43-3.53,2.08-5.26h-.04Z" fill="#fff"/>
</svg>