<?xml version="1.0" encoding="UTF-8"?>
<svg id="b" data-name="Camada 1" xmlns="http://www.w3.org/2000/svg" xmlns:xlink="http://www.w3.org/1999/xlink" viewBox="0 0 300 290.65">
  <defs>
    <symbol id="a" data-name="BOLACHINHA-EMBLEMA" viewBox="0 0 573.07 555.2">
      <g>
        <g>
          <path d="M185.43,282.17c1.4-3.61,2.34-7.36,3.93-10.91s3.45-6.9,5.66-10.05c4.38-6.23,10-11.61,16.47-15.64,1.63-1.02,3.32-1.95,5.05-2.79,1.83-.88,3.8-1.44,5.72-2.07,3.84-1.26,8.08-1.84,11.99-2.19,8.13-.72,16.38.29,24.01,3.17,4.12,1.55,8.32,3.58,11.74,6.39,1.56,1.28,2.98,2.78,4.18,4.41.59.81,1.09,1.69,1.51,2.6.21.45.33.94.54,1.39.34.77.92,1.26,1.5,1.84.89.89,2.27,1.17,3.49,1.05.91-.09,2.63-.49,2.91-1.58.14-.52.39-1.14.37-1.67-.02-.63-.31-1.21-.6-1.75-.56-1.06-1.19-2.08-1.88-3.06-1.23-1.74-2.73-3.26-4.36-4.62-3.57-2.99-7.58-5.32-11.82-7.21-8.55-3.82-18.11-5.71-27.47-5.37-4.63.17-9.48.9-14.02,2.42-2.13.71-4.31,1.27-6.38,2.16s-3.95,1.89-5.86,2.89c-7.28,3.78-13.74,9.2-18.84,15.62-2.81,3.54-5.3,7.4-7.22,11.5s-3.8,8.67-3.97,13.19c-.05,1.33,2.94,1.31,3.35.27h0Z" fill="#fff"/>
          <path d="M451.38,248.44c-1.58-3.48-4.64-6.46-7.42-9.01-2.93-2.69-6.24-5.16-9.69-7.15-7.21-4.15-15.21-6.92-23.5-7.76s-16.94,0-25.02,2.65c-7.66,2.5-14.74,6.76-20.8,12.05-6.72,5.87-12.12,13.31-15.48,21.58-1.23,3.01,5.68,3.81,6.75,1.17,5.46-13.4,16.57-24.4,29.8-29.79,6.88-2.8,13.52-4.07,20.86-3.78,1.85.07,3.15.2,5.13.5,1.87.28,3.73.65,5.56,1.09,3.51.83,7.2,2.12,10.55,3.7,3.81,1.79,7.32,3.96,10.68,6.49,3.56,2.68,6.41,6.03,9.69,9,.61.55,3.52.65,2.9-.72h0Z" fill="#fff"/>
          <path d="M225.43,312.37c-.06-1.05.07-2.06.06-3.11s.04-2.1.19-3.13c.31-2.04.77-4.09,1.46-6.04,1.37-3.87,3.65-7.39,6.66-10.18,2.86-2.65,6.42-4.45,10.27-5.09,1.83-.3,3.79-.2,5.44.02,1.95.26,3.43.73,5.4,1.48s3.87,1.82,5.66,3.21c.81.64,1.57,1.36,2.28,2.12.39.42.74.89,1.13,1.31.76.83,1.74,1.06,2.79,1.3,1.11.25,3.04-.06,3.56-1.25.65-1.49-.39-2.43-1.37-3.44-.89-.92-1.87-1.75-2.88-2.54-1.94-1.52-4.12-2.72-6.39-3.69-4.72-2.01-9.91-2.55-14.98-1.95s-9.44,2.1-13.35,5.09c-3.69,2.82-6.61,6.54-8.44,10.82-1,2.35-1.74,4.9-1.92,7.45-.09,1.32-.04,2.67.08,3.99.13,1.4.56,2.58,1,3.9.36,1.08,3.43,1.03,3.35-.27h0Z" fill="#fff"/>
          <path d="M379.83,279.23c1.83-.76,3.22-2.43,4.7-3.71,1.61-1.4,3.44-2.54,5.32-3.53,3.08-1.62,6.71-2.72,10.21-2.72s7.1.88,10.39,2.75c1.82,1.04,3.5,2.41,4.66,4.18.54.83.97,1.75,1.29,2.69s.28,2.24.83,3.09c1.21,1.87,5.24,2.25,6.34,0,.82-1.68-.35-4.37-1.16-5.91-.96-1.81-2.25-3.43-3.81-4.76-3.37-2.86-7.48-4.47-11.83-5.12-7.27-1.09-15.15.33-21.48,4.1-1.65.98-3.2,2.21-4.59,3.53-1.08,1.02-3.24,3.05-2.91,4.72.16.82,1.41.97,2.06.7h0Z" fill="#fff"/>
          <path d="M207.25,247.15c-1.03-2.41-1.69-4.93-2.5-7.42-.92-2.81-1.68-5.62-2.1-8.54-.94-6.5-1.33-13,.2-19.46,2.98-12.66,11.95-22.96,23.36-28.9,5.38-2.8,11.02-4.41,16.98-5.03.98-.1,2.85-.18,4.24-.17,1.49,0,2.88.09,4.06.22,3.26.37,6.46,1.11,9.55,2.23s6.21,2.73,8.98,4.7c2.61,1.86,4.83,4.3,6.79,6.83,3.84,4.97,6.33,11.11,7.31,17.3,1.06,6.64.42,13.42-1.18,19.93-1.37,5.58-3.57,11.04-6.99,15.69-.82,1.11-1.69,2.18-2.61,3.21-1.09,1.23,0,2.56,1.26,3.04,1.44.54,3.71.45,4.82-.8,4.03-4.55,7.12-9.84,9.05-15.61,2.26-6.73,3.58-14.16,3.15-21.26s-2.43-13.83-6.05-19.75c-3.85-6.28-9.48-11.21-16.07-14.49-13.03-6.49-28.51-6.75-42.01-1.5-12.72,4.94-23.98,14.75-29.02,27.62-2.63,6.71-3.51,14.06-2.85,21.21.58,6.27,2.36,12.95,5.75,18.29.77,1.21,1.58,2.39,2.43,3.54.69.94,4.12.66,3.47-.87h0Z" fill="#fff"/>
          <path d="M400.93,268.28c-2.25,13.78-7.15,26.86-15.67,38.01-4.21,5.51-8.93,10.57-14.35,14.92s-11.96,8.15-18.62,11.02c-13.25,5.71-27.99,8.14-42.37,6.75-15.05-1.45-29.93-6.77-41.65-16.48-5.43-4.5-10.25-9.82-13.97-15.83-1.85-2.99-3.6-6.15-4.61-9.53-.93-3.11-1.34-6.36-1.51-9.6-.06-1.07-.08-2.14-.08-3.22,0-2.25-5.4-2.26-5.4,0,0,6.5.93,13.03,3.92,18.86,3.36,6.57,7.89,12.55,13.22,17.65,11.65,11.16,26.86,17.98,42.7,20.59s31.76,1.14,46.65-4.08,27.08-13.67,36.82-25.09c9.22-10.82,15.83-24.5,18.06-38.56.28-1.79.4-3.61.49-5.42.07-1.49-3.4-1.45-3.64,0h0Z" fill="#fff"/>
          <path d="M393.48,296.96c4.88,18.91,3.23,39.35-4.91,57.12-7.56,16.52-20.7,30.11-36.72,38.63s-35.31,11.41-53.49,7.86c-18.5-3.61-38.25-13.65-46.71-31.32-4.19-8.76-6.32-18.24-6.94-27.89-.3-4.68-.28-9.52.63-14.14s2.45-9.29,4.46-13.53c.94-1.97,2.01-3.92,3.22-5.73,2.08-3.11-4.51-4.52-6.04-2.23-2.76,4.12-4.84,8.55-6.2,13.32s-1.68,9.77-1.85,14.58c-.35,9.88,1.62,19.95,4.81,29.28,1.71,4.98,3.96,9.71,7.03,14s7.01,7.67,11.3,10.77c8.18,5.91,17.41,10.45,27.1,13.27,18.96,5.51,39.58,4.71,57.85-2.9,17.28-7.2,32.2-19.91,41.66-36.11,10.07-17.26,14.01-38.7,10.15-58.37-.48-2.43-1.06-4.84-1.74-7.22-.39-1.36-4.05-1.07-3.62.6h0Z" fill="#fff"/>
          <path d="M356.22,331.95c.35,7.61-.12,15.28-1.69,22.74l.77-.79c-7.6,2.11-15.19,4.22-22.83,6.17-.41.1-.81.21-1.22.31-.3.08-.61.15-.91.23l.56-.03s-.18-1.04-.2-1.2c-.06-.49-.11-.97-.16-1.46-.21-1.94-.43-3.89-.64-5.83s-.43-3.89-.64-5.83-.26-3.83-.78-5.65c-.37-1.29-3.7-1.13-3.77.31-.11,2.23.46,4.59.73,6.8s.53,4.21.8,6.31.38,4.4.86,6.52c.43,1.89,2.22,2.54,4.03,2.24,2.09-.35,4.17-1.2,6.21-1.78s4.27-1.23,6.4-1.85c4.36-1.27,8.75-2.46,13.13-3.67.41-.11.68-.39.77-.79,1.58-7.5,2.13-15.11,1.36-22.74-.11-1.12-2.83-1.11-2.78,0h0Z" fill="#fff"/>
          <path d="M291.54,337.93c-.47,3.83-.44,7.74-.62,11.6s-.37,7.73-.57,11.6l2.94-1.01c-8.38-2.28-16.7-4.78-25.05-7.17l1.26,1.35c-.95-9.85-.57-19.82-.29-29.7.07-2.43-5.75-2.47-5.83,0-.31,9.94-.37,19.82,1.01,29.7.14.97,1.04,1.29,1.87,1.5,8.35,2.12,16.73,4.11,25.05,6.33.84.22,2.88.3,2.94-1.01.18-3.86.35-7.73.49-11.6s.47-7.75.28-11.6c-.07-1.44-3.31-1.4-3.48,0h0Z" fill="#fff"/>
          <path d="M209.33,408.97c-12.98-7.74-24.49-17.76-34.09-29.41s-17.79-25.29-23.65-39.58-9.7-29.65-11.1-45.16-.3-31.12,3.31-46.23c3.72-15.62,9.93-30.62,18.1-44.44s18.32-26.42,29.95-37.45c11.68-11.07,24.89-20.49,39.18-27.87,16-8.26,33.35-13.83,51.08-16.9s35.96-3.71,53.9-2.12c9.1.8,18.14,2.15,27.08,4.01,8.88,1.84,17.79,4.07,26.34,7.12,17.09,6.08,32.36,16.93,45.54,29.23,6.03,5.63,11.74,11.54,16.04,18.62s7.26,14.9,10,22.79c2.8,8.09,4.75,16.36,6.59,24.71,1.94,8.83,4.01,17.64,5.88,26.5,3.79,17.97,6.38,36.35,4.19,54.71s-9.45,36.89-19.78,52.72c-9.68,14.84-22.17,27.93-35.9,39.07-13.31,10.8-28.22,19.78-44.14,26.17s-32.57,10.07-49.61,10.38c-18.03.33-36.14-.55-53.93-3.6-16.6-2.84-32.96-7.61-48.13-14.98-7.28-3.54-14.28-7.65-20.92-12.27-.96-.67-2.6-.61-3.57,0s-.89,1.56,0,2.18c14.08,9.81,29.76,17.18,46.17,22.16,17.22,5.22,35.07,7.93,53,9.05s36.67,1.27,54.55-2.59c17.17-3.71,33.61-10.44,48.7-19.39,15.16-8.99,29.02-20.22,41.06-33.08,12.84-13.71,23.66-29.53,30.32-47.17s8.92-36.82,7.21-55.67c-1.7-18.72-6.51-37.03-10.55-55.34-3.67-16.62-7.34-33.6-16.51-48.2-4.55-7.26-10.44-13.35-16.71-19.14-6.81-6.29-14.1-12.1-21.86-17.17s-16.36-9.6-25.28-12.73c-8.85-3.11-18.07-5.41-27.24-7.32-18.29-3.8-37.07-5.5-55.74-4.8s-37.3,3.78-55.1,9.58c-16.74,5.46-32.68,13.38-47.05,23.58-13.38,9.49-25.45,20.83-35.73,33.61s-18.79,26.96-25.01,42.12c-6.16,15.03-10.09,31.07-11.21,47.29s.53,31.57,4.32,46.86c3.82,15.38,9.93,30.22,18.14,43.77s18.47,25.54,30.72,35.49c5.89,4.78,12.2,8.91,18.93,12.4.73.38,1.77.46,2.49,0,.63-.4.67-1.08,0-1.48h0Z" fill="#fff"/>
          <path d="M206.95,406.48c-7.1-6.8-13.67-14.1-19.41-22.09s-10.84-16.87-15.06-25.95c-8.45-18.2-13.78-37.84-15.88-57.79s-.72-39.65,4.1-58.97c4.99-19.95,13.52-39,24.92-56.1s25.58-32.14,42.04-44.25c2.06-1.51,4.13-2.99,6.19-4.5,1.68-1.23-1.36-2.1-2.44-1.45-8.85,5.39-16.96,12.29-24.41,19.47s-14.36,15.1-20.48,23.52c-12.2,16.78-21.58,35.57-27.43,55.48-5.68,19.31-7.79,39.52-6.46,59.59s5.98,40.14,13.73,58.79c7.68,18.47,18.54,35.92,32.8,50.02,1.76,1.74,3.58,3.42,5.47,5.02.48.41,1.23.5,1.82.28.43-.16.94-.63.48-1.07h0Z" fill="#fff"/>
          <g>
            <path d="M297.13,435.42c-22.71,1.14-45.29,1.48-67.65-2.33-17.72-3.02-35.25-8.5-51.12-16.78-13.94-7.27-26.46-16.45-37.45-27.59-9.98-10.11-18.35-21.43-25.2-33.8-6.26-11.31-11.2-23.35-14.75-35.77-3.06-10.73-5.08-21.64-5.81-32.94-.92-14.17.82-28.26,4.5-41.97.77-2.86,1.37-5.81,2.29-8.62s1.97-5.64,3.07-8.41c2.2-5.55,4.72-10.99,7.51-16.27,5.61-10.59,12.35-20.56,20.05-29.73,15.63-18.59,35.27-33.96,57.14-44.51,25.49-12.3,53.91-17.89,82.12-17.87,6.93,0,13.86.33,20.76.99.99.09,2.64.04,3.1-1.08.43-1.05-.9-1.81-1.76-1.89-29-2.76-58.58-.27-86.31,8.94-24.73,8.22-47.41,21.9-66.22,39.93-17.52,16.79-31.71,37.5-40.77,60.02-1.11,2.77-2.15,5.57-3.1,8.4s-2.18,5.84-3,8.87c-1.58,5.79-2.84,11.67-3.74,17.61-.91,6.02-1.44,12.06-1.4,18.15.07,10.91,1.57,21.79,3.99,32.42,2.82,12.37,7.02,24.44,12.5,35.88,6.13,12.8,13.89,24.85,23.13,35.62,10.16,11.84,22.15,22.09,35.41,30.31,15.34,9.52,32.27,16.22,49.78,20.51,21.24,5.2,43.35,6.87,65.15,5.7,6.11-.33,12.17-.85,18.23-1.72.58-.08,1.37-.46,1.26-1.15s-1.18-.94-1.73-.91h0Z" fill="#fff"/>
            <path d="M159.84,406.48c-7.13-6.83-13.75-14.12-19.59-22.09-5.96-8.13-11.11-16.87-15.49-25.95-8.76-18.14-14.52-37.78-16.89-57.79s-1.23-39.77,4.12-59.02c5.68-20.42,15.6-39.6,28.11-56.65,12.48-17,27.57-32.2,44.64-44.61,2.08-1.51,4.17-2.99,6.24-4.51,1.68-1.23-1.36-2.1-2.44-1.45-9.01,5.49-17.31,12.43-25.06,19.57s-15.35,15.28-22.05,23.77c-13.26,16.77-24.07,35.66-30.79,56-6.35,19.22-8.39,39.53-6.82,59.68,1.58,20.21,6.63,40.2,14.71,58.79,8.02,18.46,19.15,35.87,33.53,50.02,1.77,1.74,3.59,3.41,5.48,5.02.48.41,1.23.5,1.82.28.43-.16.94-.63.48-1.07h0Z" fill="#fff"/>
          </g>
          <path d="M218.74,417.74c-4.97,2.83-10.67,1.66-15.7-.39-5.37-2.18-10.3-5.42-15.21-8.46-5.16-3.19-10.42-6.38-15.15-10.19s-8.86-7.99-12.6-12.67-6.83-9.74-9.96-14.84c-.71-1.16-1.47-2.3-2.16-3.47-.74-1.25-1.27-2.6-2.06-3.82-1.52-2.35-3.02-4.7-4.45-7.11-2.86-4.82-5.43-9.84-7.19-15.17s-2.63-11.25-3.15-17.01c-.52-5.81-.72-11.64-1.08-17.46s-1.19-11.89-1.84-17.84c-1.4-12.79-2.06-25.71-.65-38.53,1.16-10.6,3.79-20.94,7.76-30.84,4.38-10.91,10.2-21.18,16.5-31.08,2.62-4.11,5.63-7.93,8.79-11.64s6.4-7.37,9.98-10.64c7.46-6.81,16.8-9.9,26.65-11.28,2.61-.37,5.21-.69,7.82-1.08.65-.1,1.61-.54,1.46-1.34s-1.33-1.08-2-1.06c-10.52.3-21.63,2.38-30.76,7.86-4.38,2.63-8.09,6.07-11.58,9.76s-7.04,7.8-10.25,11.95c-3.5,4.54-6.49,9.44-9.41,14.36-3.08,5.19-5.96,10.49-8.53,15.94-4.72,10.03-8.23,20.58-10.13,31.52-2.17,12.46-2.23,25.16-1.23,37.74.53,6.66,1.5,13.26,2.14,19.91.58,6.01.77,12.04,1.14,18.07s.87,11.82,2.14,17.6,3.38,11.16,6.13,16.32c2.77,5.19,5.98,10.29,9.66,14.87,1.94,2.42,3.52,5.15,5.22,7.74s3.42,5.05,5.26,7.48c7.39,9.8,16.67,18.03,26.95,24.7,5.14,3.33,10.37,6.72,15.84,9.5,5,2.54,10.64,4.71,16.35,4.29,2.68-.19,5.25-.99,7.54-2.39.59-.36.55-.96,0-1.33-.61-.41-1.62-.35-2.24,0h0Z" fill="#fff"/>
          <g>
            <path d="M232.21,237.9c-.06-2.11-.76-4.12-1.16-6.19s-.74-4.2-.98-6.31c-.48-4.24-.57-8.52-.28-12.78.58-8.56,2.71-17,6.29-24.8.97-2.12,2.06-4.19,3.24-6.2.61-1.03,1.25-2.05,1.91-3.05s1.77-1.81,1.9-3.06-2.21-1.05-2.81-.69c-1.01.62-1.32,1.41-1.93,2.37s-1.26,1.89-1.85,2.85c-1.15,1.87-2.2,3.81-3.16,5.78-1.9,3.9-3.42,7.97-4.57,12.15-2.31,8.39-3.15,17.17-2.35,25.84.22,2.39.55,4.77,1.05,7.12s.98,5.02,2.29,7.17c.38.62,2.46.84,2.42-.19h0Z" fill="#fff"/>
            <path d="M244.2,237.27c1.33-1.11,2.3-2.56,3.23-4.01s1.75-2.93,2.47-4.48c1.43-3.08,2.36-6.38,2.89-9.72.21-1.3-3.24-1.44-3.45,0-.47,3.23-1.39,6.35-2.69,9.34-.64,1.46-1.37,2.88-2.19,4.24s-1.86,2.63-2.59,4.06c-.24.47.39.79.74.88.54.14,1.16.06,1.59-.31h0Z" fill="#fff"/>
            <path d="M252.77,219.01c-.3-1.45-1.98-2.14-3.16-2.81-1.39-.79-2.91-1.37-4.39-1.99-2.7-1.14-5.4-2.26-8.01-3.59-1.16-.59-2.7-.72-3.84,0-.94.59-1.08,1.79,0,2.36,2.76,1.46,5.62,2.72,8.48,3.97,1.37.6,2.73,1.27,4.12,1.81,1.58.61,3.26,1.42,4.98,1.34.48-.02,1.99-.27,1.82-1.09h0Z" fill="#fff"/>
            <path d="M236.08,212.01c4.65-3.72,9.23-7.52,13.96-11.14.27-.21.77-.59.69-1.02-.33-1.87-1.23-3.7-1.88-5.48-.71-1.93-1.43-3.85-2.15-5.77-1.42-3.77-2.81-7.56-4.18-11.35-.57-1.59-3.68-1.4-4.65-.37-.35.38-.63.69-.54,1.23.16.96,1.26,1.28,2.12,1.27-1.23-.23-1.42-.25-.56-.05.29.04.58.05.87.05.8-.02,1.41-.27,2.11-.63l-4.25-.69c1.33,3.72,2.69,7.42,4.07,11.12.69,1.85,1.39,3.7,2.12,5.54s1.28,3.86,2.29,5.5l.24-1.11c-4.26,4.06-8.69,7.94-13.05,11.91-.57.52.08,1.12.58,1.32.73.28,1.62.14,2.22-.35h0Z" fill="#fff"/>
          </g>
          <g>
            <path d="M393.44,227.23c-.04-1.01-.51-1.87-.9-2.78-.44-1.02-.86-2.06-1.31-3.07-.88-1.96-1.79-3.92-2.62-5.91-1.64-3.96-2.97-8.08-4.1-12.21-2.25-8.18-3.43-16.68-3.03-25.17.24-5.08,1.03-10.12,2.34-15.03.44-1.64-3.22-1.95-3.59-.59-2.33,8.65-3.13,17.59-2.26,26.51.84,8.59,3.1,16.99,6.08,25.07.86,2.34,1.68,4.7,2.62,7.01.45,1.1.93,2.19,1.44,3.27.57,1.2,1.04,2.49,1.97,3.47.65.68,3.42.87,3.36-.54h0Z" fill="#fff"/>
            <path d="M404.84,226.74c1.04-1.65,1.46-3.77,1.82-5.67.41-2.17.7-4.37.92-6.57.44-4.55.34-9.15-.09-13.7-.13-1.39-3.49-1.33-3.37,0,.42,4.49.31,8.98-.07,13.47-.18,2.13-.45,4.25-.8,6.36-.32,1.9-.86,4-.68,5.93.09.95,1.88.8,2.27.18h0Z" fill="#fff"/>
            <path d="M388.85,198.17c1.29.83,3.09,1.04,4.57,1.36,1.56.34,3.15.6,4.72.89s3.15.59,4.72.89c1.23.23,4.21.9,4.49-.94.05-.35-.35-.7-.59-.85-1.2-.76-2.94-.81-4.31-1.05s-2.85-.5-4.27-.75-2.74-.52-4.13-.7c-1.51-.19-3.05-.52-4.57-.29-.77.11-1.53.86-.64,1.43h0Z" fill="#fff"/>
            <path d="M390.75,198.11c.77-.61,1.03-1.61,1.4-2.49s.73-1.69,1.07-2.55c.74-1.89,1.53-3.76,2.37-5.6s1.78-3.69,2.79-5.48c.5-.89,1.02-1.76,1.57-2.62s1.41-1.74,1.03-2.82c-.27-.76-1.68-.75-2.24-.54-1.99.73-3.05,3.26-4.04,5.01-1.07,1.89-2.05,3.84-2.95,5.81-.84,1.84-1.61,3.72-2.35,5.6-.35.9-.64,1.82-.94,2.74s-.77,1.79-.43,2.72c.36.98,2.11.69,2.72.21h0Z" fill="#fff"/>
            <path d="M381.25,161.9c1.51,3.32,4.81,5.62,7.5,7.94,2.89,2.49,5.82,4.95,8.54,7.64.75.75,2.1.83,3.05.48.75-.27,1.55-1.09.8-1.85-2.71-2.71-5.62-5.18-8.57-7.62s-5.94-5.29-9.39-7.25c-.43-.24-2.36-.28-1.93.66h0Z" fill="#fff"/>
          </g>
          <g>
            <path d="M220.23,389.44c-.09-.19-.19-.37-.28-.56l-.61,1.39.05-.04.4-.31c.18-.16.28-.35.3-.58.06-.14.06-.28,0-.41-.02-.23-.12-.42-.3-.58-.07-.1-.14-.19-.22-.29-.04-.05-.07-.1-.11-.14-.18-.24-.41-.33-.66-.45-.26-.14-.55-.24-.85-.27-.25-.03-.5-.05-.75-.06l1.64.41c-.33-.25-.76-.35-1.16-.42l-.58-.05c-.29,0-.57.03-.84.11-.17.03-.33.08-.48.17-.21.08-.4.2-.56.37-.19.24-.39.49-.34.81l.32-.71-.07.06c-.18.16-.28.35-.3.57-.07.2-.06.41.04.61.09.16.18.32.28.48l.26.37c.19.2.4.34.65.44.17.1.36.17.56.2.32.1.64.14.98.13h.08c-.68-.24-1.35-.47-2.03-.71.14.17.29.34.43.52.17.17.36.3.58.39.24.13.5.21.77.25l.6.05c.3,0,.59-.03.87-.12.18-.03.35-.09.5-.18.22-.08.42-.21.58-.39l.23-.33c.11-.24.11-.49,0-.73h0Z" fill="#fff"/>
            <path d="M194.69,300.44s-.03.02-.04.03c-.06.04-.06.06-.12.15-.14.2-.1.12-.16.43,0,.02,0,.04-.01.06l.54-.78-.07.04c-.18.09-.32.22-.41.39-.13.18-.1.11-.15.32-.03.13-.04.12-.03.2v.04c.02.06.03.12.04.18.02.13.04.32.09.4v.02c.08.1.15.2.22.3.01.01.03.03.04.04.02.02.05.05.07.07l.32.24.41.19c.24.09.49.14.75.14.11.02.21.03.32.02l-.91-.15c.32.09.6.17.94.16l.45-.04c.27-.04.51-.13.75-.26.11-.06.2-.15.3-.22l-.63.37.07-.03c.21-.06.4-.17.57-.31.11-.06.2-.15.26-.27.12-.13.18-.28.17-.47,0-.03,0-.06.01-.09,0-.02,0-.03,0-.05l-.07-.33v-.02s-.04-.06-.06-.09c-.04-.06-.07-.11-.11-.17,0-.02-.02-.03-.03-.05-.03-.05-.07-.1-.11-.15-.1-.17-.24-.3-.42-.39h-.02c-.14-.07-.27-.14-.41-.2-.24-.09-.49-.14-.74-.14-.1-.01-.2-.02-.3-.02l1.6.55c-.07-.06-.14-.11-.21-.17-.18-.14-.12-.1-.34-.2-.11-.05-.14-.07-.22-.09-.01,0-.03,0-.04-.01-.13-.04-.28-.08-.42-.11l-.44-.04c-.22,0-.43.02-.64.09-.13.02-.25.06-.37.13-.16.06-.31.15-.43.28h0Z" fill="#fff"/>
            <path d="M207.1,276.67c.27-.13.43-.33.59-.57l-1.08.64h.08c.27-.05.53-.14.77-.28.2-.11.34-.26.45-.46.03-.12.06-.24.08-.36,0-.03,0-.05,0-.08,0-.11-.03-.21-.05-.31s-.04-.2-.09-.29c-.08-.14-.17-.27-.28-.39l.19.27c-.04-.14-.15-.27-.24-.36-.21-.23-.53-.38-.81-.49-.34-.12-.69-.17-1.05-.17-.36,0-.71.06-1.05.17-.28.09-.53.24-.75.45-.18.17-.27.38-.28.63,0,.06-.02.12-.03.18-.01.2.06.34.16.49.07.12.15.23.22.35s.14.22.22.33c.04.06.07.11.11.17.1.16.2.35.33.47.16.17.35.29.57.37.23.13.48.21.75.24l.59.05c.29,0,.57-.03.85-.11.17-.03.33-.08.49-.17.22-.08.41-.2.57-.37l.22-.32c.1-.24.1-.47,0-.71-.02-.06-.07-.12-.1-.18-.03-.05-.06-.1-.1-.16-.07-.12-.14-.23-.21-.35s-.14-.22-.2-.34c-.02-.03-.03-.05-.05-.08-.17-.28-.31-.47-.61-.64-.07-.04-.14-.08-.21-.11l.33,1.52h0c-.11.08-.22.16-.32.25.01,0,.02-.02.04-.02l-.41.19s.02,0,.03-.01l-.48.12s.03,0,.05,0l-.52.04s.05,0,.07,0l-.5-.04s.02,0,.03,0l-.83-.29s.07.04.11.07l-.29-.22c.06.05.11.1.16.17l-.18-.26c.05.08.09.16.12.26l-.06-.28s0,.04.01.07c0,.21.09.38.24.52.18.17.39.29.63.37l.07.02-.77-.79s0,.02,0,.04l.06-.24s-.03.09-.06.13l.15-.21s-.02.03-.03.04c-.1.09-.16.2-.18.33-.04.12-.04.23.03.35l.15.21c.11.11.24.19.38.25.1.06.21.1.33.11.19.06.38.08.57.08l.4-.03c.23-.04.45-.11.66-.23h0Z" fill="#fff"/>
            <path d="M337.58,282.73c.03.07.07.14.1.21.06.13.13.25.24.34l.11.1c.13.13.28.23.45.29.18.1.38.16.59.19.23.04.46.05.69.02.22,0,.44-.05.65-.12l.35-.16c.2-.11.34-.26.45-.46l.06-.28c0-.21-.09-.38-.24-.52l-.11-.1c-.1-.09-.2-.19-.33-.25-.02-.01-.05-.02-.07-.03-.1-.05-.2-.09-.3-.14l-.32-.15c-.19-.07-.39-.11-.59-.11-.14-.02-.28-.02-.42,0-.2,0-.4.04-.59.11l-.32.15-.25.19c-.11.09-.17.21-.19.35-.05.12-.04.25.03.37h0Z" fill="#fff"/>
            <path d="M441.47,265.77c.17.24.33.47.5.71.08.11.15.24.26.34.16.14.31.28.49.4.3.17.62.28.96.34.2.03.4.05.59.05.37,0,.73-.06,1.08-.18.16-.05.31-.12.44-.21.24-.14.43-.33.56-.58.1-.23.1-.47,0-.7-.02-.05-.03-.1-.05-.16-.02-.06-.04-.1-.08-.15-.06-.1-.13-.21-.19-.31-.13-.2-.25-.41-.38-.61-.13-.26-.33-.47-.59-.61l-.46-.22c-.37-.13-.76-.19-1.16-.19-.3,0-.6.03-.88.12-.26.05-.51.14-.74.29-.2.1-.36.25-.47.45-.13.15-.2.33-.2.53.01.27.12.51.31.7h0Z" fill="#fff"/>
            <path d="M202.82,136.25c.17.24.33.47.5.71.08.11.15.24.26.34.16.14.31.28.49.4.3.17.62.28.96.34.2.03.4.05.59.05.37,0,.73-.06,1.08-.18.16-.05.31-.12.44-.21.24-.14.43-.33.56-.58.1-.23.1-.47,0-.7-.02-.05-.03-.1-.05-.16-.02-.06-.04-.1-.08-.15-.06-.1-.13-.21-.19-.31-.13-.2-.25-.41-.38-.61-.13-.26-.33-.47-.59-.61l-.46-.22c-.37-.13-.76-.19-1.16-.19-.3,0-.6.03-.88.12-.26.05-.51.14-.74.29-.2.1-.36.25-.47.45-.13.15-.2.33-.2.53.01.27.12.51.31.7h0Z" fill="#fff"/>
            <path d="M220.53,425.12c.17.24.33.47.5.71.08.11.15.24.26.34.16.14.31.28.49.4.3.17.62.28.96.34.2.03.4.05.59.05.37,0,.73-.06,1.08-.18.16-.05.31-.12.44-.21.24-.14.43-.33.56-.58.1-.23.1-.47,0-.7-.02-.05-.03-.1-.05-.16-.02-.06-.04-.1-.08-.15-.06-.1-.13-.21-.19-.31-.13-.2-.25-.41-.38-.61-.13-.26-.33-.47-.59-.61l-.46-.22c-.37-.13-.76-.19-1.16-.19-.3,0-.6.03-.88.12-.26.05-.51.14-.74.29-.2.1-.36.25-.47.45-.13.15-.2.33-.2.53.01.27.12.51.31.7h0Z" fill="#fff"/>
            <path d="M456.5,284.72c-.04.08-.08.17-.12.25l1.01-.59c-.25.04-.49.12-.72.24-.17.09-.32.25-.41.43-.03.06-.05.11-.08.17-.05.11-.1.21-.15.32s-.09.21-.12.32-.07.23-.1.34c-.07.13-.08.25-.03.38.01.14.08.26.19.35.12.12.26.21.41.27.17.09.35.15.55.17.41.06.85.05,1.24-.1l.32-.15c.18-.1.32-.24.41-.42.04-.1.08-.21.12-.31.02-.05.04-.09.05-.14.05-.12.07-.25.09-.38l.12-.61c0-.14-.04-.25-.13-.35-.07-.13-.18-.22-.32-.29l-.04-.02.42.6.05-.26c0-.13-.04-.23-.12-.32-.07-.12-.17-.21-.29-.27-.25-.14-.52-.21-.81-.23s-.62,0-.9.1c-.25.1-.52.24-.65.5h0Z" fill="#fff"/>
            <path d="M438.95,305.31c-.59-.34-1.3-.4-1.96-.3l1.33.1c-.45-.17-.97-.2-1.44-.12-.34.06-.53.14-.83.29-.03.01-.06.03-.09.05-.13.09-.25.18-.37.28-.03.02-.05.05-.08.08-.11.13-.22.27-.3.43s-.1.33-.12.49l1.39-1.09c-.25.03-.69.16-.9.31-.18.09-.32.22-.41.39-.12.13-.17.28-.17.46.02.15.05.31.1.45,0,.02.02.04.03.06.07.11.15.22.23.33.03.03.05.07.09.09.13.11.26.23.41.31,0,0,.02,0,.03.01.07.03.14.07.21.1.07.04.14.07.22.1l.48.12s.01,0,.02,0c.01,0,.02,0,.04,0,.18.02.44.06.65.04.38-.02.83-.05,1.18-.21.25-.08.48-.22.67-.4.16-.15.24-.34.25-.56v-.05c-.03.09-.05.18-.07.27.02-.03.03-.06.04-.1.03-.11.07-.24.07-.36l-.05-.24-.15-.22-.24-.18c-.15-.09-.32-.15-.49-.19-.13-.04-.25-.06-.39-.06-.14-.02-.27-.02-.41,0-.13,0-.26.02-.39.06-.17.03-.34.09-.49.19-.03.02-.06.03-.08.05l.32-.15s-.07.03-.11.04l.39-.1s-.07.01-.11.02l.45-.04h-.01c.4.1.8.2,1.2.3-.19-.14-.41-.2-.63-.26-.15-.05-.31-.08-.47-.08-.09,0-.17-.02-.26-.02l.5.04s-.07,0-.11-.02l.46.12s-.07-.02-.1-.03l.4.18s-.07-.04-.1-.06l.31.24c-.11-.09-.21-.19-.33-.26-.14-.08-.29-.14-.43-.2l.41.19s-.08-.04-.12-.07l.31.24s-.08-.07-.11-.12l.2.29c-.04-.05-.06-.11-.08-.17l.07.32c-.01-.06-.03-.12-.04-.19,0-.12-.05-.22-.14-.3-.1-.17-.23-.3-.41-.39h-.01c-.13-.07-.27-.13-.4-.19-.24-.09-.48-.14-.74-.14-.09-.01-.18-.02-.27-.02l1.9,1.13c0-.06,0-.12,0-.17l-.07.3c.02-.08.05-.16.1-.23l-.19.26c.04-.06.09-.11.15-.16l-.29.22s.03-.02.04-.03c.2-.11.36-.27.47-.48.09-.19.09-.38,0-.58v-.02c-.15.33-.3.66-.45,1,.01,0,.03-.02.04-.02l-.35.16s.05-.02.08-.03l-.4.1s.05-.01.08-.01l-.44.04s.05,0,.08,0l-.44-.03s.03,0,.04,0l.43.03c.21,0,.42-.02.63-.08.13-.02.25-.06.36-.12.16-.06.3-.15.42-.27l.16-.23.06-.26c0-.15-.05-.27-.14-.37-.08-.13-.19-.24-.34-.31h0Z" fill="#fff"/>
            <path d="M387.95,380.67s.04.05.06.08l-.14-.2c.06.08.09.16.12.26l.37-.84-.06.03c-.14.07-.25.17-.33.3-.09.1-.14.22-.14.36,0,.09-.02.18-.02.27s0,.19-.03.28l.06-.26c-.03.12-.08.23-.15.33l.17-.24c-.05.07-.11.13-.17.18l.27-.2s-.03.02-.05.03c-.19.11-.34.25-.44.45l-.06.27c0,.2.09.37.23.51.13.13.27.22.44.28.18.1.37.16.58.18.23.04.45.05.68.02.22,0,.43-.04.63-.12.23-.08.44-.2.61-.36.04-.03.09-.07.12-.12.09-.11.18-.24.26-.36.1-.17.13-.38.17-.57.03-.16,0-.3-.03-.46-.02-.11-.05-.19-.11-.28-.02-.03-.03-.05-.05-.08l-.16-.22-.25-.19c-.16-.1-.33-.16-.51-.19-.08-.03-.17-.05-.26-.05l.87.39c-.05-.06-.1-.12-.15-.17-.12-.1-.25-.21-.4-.28-.3-.15-.63-.24-.97-.24-.29,0-.57.05-.83.17-.18.08-.42.22-.49.42l-.05.21c0,.16.07.3.19.41h0Z" fill="#fff"/>
            <path d="M336.41,414.88l.02.23v.11c.02.11.02.24.08.34l.15.21c.11.11.24.2.39.25.1.06.21.1.33.11.19.06.38.08.58.08l.4-.03.36-.09c.16-.05.3-.12.42-.23.12-.07.21-.17.27-.3.05-.1.06-.23.07-.34v-.11c.02-.08.02-.15.03-.23,0-.14-.04-.26-.13-.35-.08-.13-.18-.23-.32-.29-.16-.09-.32-.16-.5-.19-.19-.06-.39-.09-.6-.08l-.41.03c-.24.04-.47.11-.68.24l-.24.19c-.13.13-.2.28-.21.46h0Z" fill="#fff"/>
            <path d="M113.35,261.12l.02.23v.11c.02.11.02.24.08.34l.15.21c.11.11.24.2.39.25.1.06.21.1.33.11.19.06.38.08.58.08l.4-.03.36-.09c.16-.05.3-.12.42-.23.12-.07.21-.17.27-.3.05-.1.06-.23.07-.34v-.11c.02-.08.02-.15.03-.23,0-.14-.04-.26-.13-.35-.08-.13-.18-.23-.32-.29-.16-.09-.32-.16-.5-.19-.19-.06-.39-.09-.6-.08l-.41.03c-.24.04-.47.11-.68.24l-.24.19c-.13.13-.2.28-.21.46h0Z" fill="#fff"/>
            <path d="M218.32,133.05l.02.23v.11c.02.11.02.24.08.34l.15.21c.11.11.24.2.39.25.1.06.21.1.33.11.19.06.38.08.58.08l.4-.03.36-.09c.16-.05.3-.12.42-.23.12-.07.21-.17.27-.3.05-.1.06-.23.07-.34v-.11c.02-.08.02-.15.03-.23,0-.14-.04-.26-.13-.35-.08-.13-.18-.23-.32-.29-.16-.09-.32-.16-.5-.19-.19-.06-.39-.09-.6-.08l-.41.03c-.24.04-.47.11-.68.24l-.24.19c-.13.13-.2.28-.21.46h0Z" fill="#fff"/>
            <path d="M282.26,149.59s.09,0,.14,0l-.33-.03s.05,0,.08,0l-.92-.71v.12c-.03.51.54.83.93.98.05.02.11.04.16.06l-.38-.18c.14.06.27.14.39.23l-.3-.23c.15.12.28.25.39.4l-.19-.27c.06.09.11.17.16.27.16.34.54.56.87.68.23.08.46.13.71.13.25.03.5.03.76-.02l.45-.11c.26-.08.49-.22.68-.41l.19-.27c.09-.2.09-.4,0-.6-.1-.21-.24-.4-.38-.58-.08-.1-.17-.2-.27-.29-.4-.35-.81-.59-1.31-.78-.23-.08-.46-.13-.71-.13-.25-.03-.5-.03-.76.02-.41.08-.84.21-1.13.52l-.08.09.75-.34c-.07,0-.14.02-.21.04-.24.06-.55.13-.73.33l-.12.17c-.05.09-.06.19-.02.28.04.18.17.32.33.41.26.14.56.21.86.21h0Z" fill="#fff"/>
            <path d="M332.53,164.53v.28c.04,1.15,1.88,1.25,2.65,1.04.95-.25,1.67-1.16.61-1.85l-.22-.14c-.6-.39-1.67-.39-2.27,0l-.22.14c-1.06.69-.34,1.6.61,1.85.78.2,2.61.11,2.65-1.04v-.28c.05-1.56-3.87-1.57-3.83,0h0Z" fill="#fff"/>
            <path d="M112.98,304.49v.28c.04,1.15,1.88,1.25,2.65,1.04.95-.25,1.67-1.16.61-1.85l-.22-.14c-.6-.39-1.67-.39-2.27,0l-.22.14c-1.06.69-.34,1.6.61,1.85.78.2,2.61.11,2.65-1.04v-.28c.05-1.56-3.87-1.57-3.83,0h0Z" fill="#fff"/>
            <path d="M293.98,172.38c.49,0,1.45-.2,1.45-.85s-.97-.85-1.45-.85-1.45.2-1.45.85.97.85,1.45.85h0Z" fill="#fff"/>
            <path d="M119.07,317.55c.49,0,1.45-.2,1.45-.85s-.97-.85-1.45-.85-1.45.2-1.45.85.97.85,1.45.85h0Z" fill="#fff"/>
          </g>
          <path d="M364.03,242.47c-.17-.74-.16-1.46-.63-2.07s-1-1.28-1.48-1.94c-.98-1.35-1.86-2.77-2.68-4.22-1.62-2.84-2.99-5.8-4.07-8.89-2.18-6.29-3.11-12.98-2.77-19.63.64-12.22,6.06-24.68,14.99-33.14,8.34-7.9,20.16-11.3,31.25-8.82,5.98,1.33,11.78,4.53,16.7,8.23,1.82,1.36,3.63,2.95,5.29,4.77,1.88,2.05,3.32,4.43,4.6,6.89,3.28,6.32,4.95,13.26,4.96,20.37s-1.64,13.76-4.25,20.2c-.64,1.59-1.32,3.15-1.9,4.76s1.17,2.49,2.44,2.71c1.58.28,3.43-.11,4.31-1.54,3.81-6.22,5.46-14.02,6.16-21.2.73-7.44-.24-15.06-2.96-22.04-2.3-5.89-5.67-11.25-10.45-15.41-5.14-4.47-11.13-8.13-17.64-10.2-12.67-4.03-27.9-1.91-38.72,5.97-10.41,7.58-17.25,20.06-19.3,32.66-2.23,13.78,1.26,28.54,9.7,39.69.53.7,1.07,1.42,1.66,2.07.67.74,1.67,1.09,2.55,1.55.63.32,2.49.37,2.23-.76h0Z" fill="#fff"/>
        </g>
        <g>
          <path d="M230.97,236.93s-11.17-30.59,9.65-60.15l7.74,23.07-13.69,11.67,16.39,7.54s-3.74,15.18-7.97,17.83c0,0-9.49-1.09-12.12.04Z" fill="#fff"/>
          <path d="M382.36,161.72s-11.29,30.11,10.78,66.25l10.82-2.24s4.22-19.5,1.84-24.93l-16.34-3.14s7.47-18.69,9.97-20.64l-17.06-15.3Z" fill="#fff"/>
          <path d="M251.07,307.15s-20.45,25.19-2.7,60.79c16.5,33.08,55.81,36.13,73.53,35.17,0,0,53.23-3.98,71.62-56.26,0,0,11.8-24.43.45-50.19,0,0-12.93,25.36-36.35,35.29,0,0,.31,20.75-1.52,22.74l-26.37,7.06-3.07-20.82s-22.96,1.16-33.36-2.99l-.98,23.2-25.36-6.83-.07-30.66s-11.98-9.07-15.82-16.49Z" fill="#fff"/>
          <path d="M200.57,153.46s-23.05.31-36.66,17.06c-13.61,16.75-18.28,21.31-28.37,43.16s-10.4,41.96-11.18,59.09,4.78,36.33,4.23,50.38c-.54,14.05,3.72,28.11,14.62,40.44,10.9,12.34,11.01,21.64,23.49,31.42s42.47,33.97,54.11,21.92l-17.33-10.88s-23.07-11.98-40.57-39.1c0,0-39.53-50.63-19.78-126.34,0,0,11.14-37.69,36.77-64.98,0,0,11.69-12.56,19.68-18.68l.98-3.5Z" fill="#fff"/>
        </g>
        <g>
          <path d="M84.43,183.8c-1.32,2.43-2.62,4.52-3.92,6.25-1.3,1.74-2.59,3.09-3.87,4.06-1.28.97-2.57,1.54-3.86,1.71-1.29.17-2.57-.09-3.85-.78-.49-.27-.78-.58-.87-.95-.08-.36-.08-.76,0-1.18.08-.42.19-.87.31-1.35.13-.48.16-.97.09-1.47-.06-.5-.27-1.01-.64-1.52-.36-.52-1.01-1.02-1.93-1.52l-23.32-12.61c-.91-.49-1.68-.75-2.32-.77-.64-.03-1.18.07-1.64.29-.45.22-.84.52-1.18.88-.33.37-.65.7-.96,1-.31.3-.64.51-.99.64s-.77.06-1.27-.21c-1.28-.69-2.19-1.62-2.75-2.79-.55-1.17-.78-2.55-.67-4.16.11-1.61.53-3.43,1.28-5.46.74-2.04,1.77-4.27,3.09-6.7l8.91-16.48c1.86-3.44,3.64-6.3,5.33-8.57,1.69-2.27,3.3-4.07,4.82-5.41s2.98-2.27,4.36-2.82c1.39-.54,2.71-.81,3.97-.81,1.26,0,2.47.22,3.61.63,1.15.42,2.24.91,3.29,1.48,1.22.66,2.2,1.39,2.97,2.2.76.81,1.35,1.67,1.76,2.59.41.92.67,1.86.77,2.83.1.97.1,1.94-.01,2.91-.11.97-.31,1.92-.6,2.85-.29.94-.63,1.8-1.01,2.61.9-1.41,1.95-2.72,3.17-3.94,1.22-1.22,2.61-2.16,4.18-2.82,1.57-.66,3.32-.93,5.24-.82,1.93.11,4.04.79,6.35,2.04,1.28.69,2.42,1.54,3.43,2.53,1.01,1,1.81,2.18,2.41,3.56s.97,2.96,1.11,4.75c.14,1.79-.02,3.84-.46,6.13-.44,2.29-1.21,4.86-2.3,7.69-1.09,2.83-2.57,5.97-4.43,9.41l-7.61,14.07ZM64.98,153.46c.49-.91.72-1.74.69-2.49-.03-.75-.29-1.45-.76-2.11-.47-.65-1.14-1.28-2-1.88-.86-.6-1.87-1.21-3.02-1.84-1.24-.67-2.4-1.2-3.48-1.58-1.08-.39-2.08-.56-3-.52-.91.04-1.75.31-2.5.81-.75.5-1.42,1.3-2.01,2.39-.47.87-.67,1.63-.62,2.28.06.66.29,1.24.69,1.75.4.51.94.98,1.62,1.4.68.42,1.4.84,2.16,1.25l9.37,5.07c.12-.07.3-.28.54-.63.21-.29.5-.73.86-1.33.37-.6.85-1.46,1.45-2.57ZM70.12,156.24c-.6,1.11-1.06,1.99-1.36,2.62-.3.64-.52,1.12-.64,1.45-.14.4-.22.67-.23.79l9.37,5.07c.76.41,1.51.79,2.23,1.13.72.34,1.41.54,2.06.59.65.06,1.26-.07,1.84-.38.58-.31,1.11-.9,1.57-1.77.59-1.09.89-2.09.9-2.99,0-.9-.22-1.74-.69-2.53-.47-.79-1.16-1.53-2.08-2.22-.92-.69-2-1.38-3.26-2.06-1.15-.62-2.22-1.13-3.19-1.53-.97-.39-1.86-.6-2.65-.64s-1.52.15-2.16.53c-.65.38-1.22,1.03-1.71,1.94Z" fill="#fff"/>
          <path d="M134.77,115.9c-2.59,2.42-5.16,4.35-7.72,5.79s-5.07,2.47-7.53,3.07c-2.46.6-4.85.81-7.19.65-2.33-.16-4.57-.64-6.72-1.42-2.15-.79-4.17-1.85-6.08-3.19-1.91-1.34-3.69-2.89-5.34-4.66-1.89-2.02-3.59-4.08-5.11-6.17s-2.74-4.25-3.65-6.48c-.91-2.23-1.44-4.54-1.59-6.93-.15-2.39.21-4.9,1.08-7.52.87-2.62,2.31-5.38,4.33-8.26,2.02-2.88,4.75-5.93,8.2-9.15,2.77-2.59,5.48-4.64,8.11-6.15,2.63-1.51,5.18-2.57,7.64-3.17,2.47-.6,4.83-.8,7.1-.59s4.43.72,6.49,1.54c2.06.82,4.01,1.91,5.85,3.27,1.84,1.36,3.55,2.89,5.13,4.59,1.79,1.92,3.44,3.91,4.95,5.99s2.72,4.23,3.65,6.48c.93,2.25,1.49,4.59,1.68,7.05.19,2.45-.12,5.02-.94,7.69-.82,2.68-2.22,5.48-4.2,8.4s-4.68,5.99-8.11,9.19ZM129.92,107.78c.77-.72,1.2-1.52,1.29-2.41.09-.88-.1-1.86-.57-2.93-.47-1.07-1.19-2.24-2.17-3.51-.98-1.27-2.15-2.64-3.53-4.11l-1.08-1.16c-1.22-1.3-2.48-2.64-3.81-4.02-1.32-1.38-2.65-2.7-3.99-3.97-1.34-1.26-2.67-2.4-3.99-3.42-1.32-1.01-2.58-1.82-3.79-2.4-1.21-.59-2.33-.9-3.36-.92-1.04-.03-1.95.33-2.73,1.06-.81.75-1.28,1.54-1.44,2.38-.15.83-.03,1.73.37,2.69.4.96,1.04,2,1.92,3.14.88,1.13,1.96,2.38,3.24,3.75,1.17,1.25,2.46,2.61,3.87,4.09,1.41,1.47,2.86,2.92,4.34,4.34,1.49,1.42,2.98,2.74,4.48,3.97,1.5,1.23,2.93,2.22,4.29,2.97,1.36.75,2.61,1.2,3.76,1.35,1.15.15,2.11-.15,2.9-.88Z" fill="#fff"/>
          <path d="M186.99,63.97c.48.97.98,1.69,1.51,2.15.53.47,1.06.78,1.59.92.53.15,1.04.17,1.54.06.5-.1.94-.25,1.32-.43.04-.02.09-.05.15-.09.06-.04.18-.12.38-.23.19-.11.48-.28.84-.51s.88-.55,1.55-.96l-1.41-6.12c-.23-1.37-.3-2.6-.21-3.68.1-1.08.32-2.02.66-2.83s.79-1.49,1.34-2.05c.55-.56,1.16-1,1.83-1.33.8-.39,1.6-.62,2.4-.69.8-.07,1.57.03,2.29.28.73.26,1.4.67,2.03,1.25.63.58,1.16,1.31,1.59,2.19.43.86.8,1.84,1.13,2.93.33,1.09.56,2.22.69,3.38.13,1.17.16,2.33.08,3.51-.08,1.17-.29,2.28-.66,3.32-.36,1.04-.89,1.99-1.57,2.85-.69.86-1.57,1.56-2.64,2.08l-21.57,10.63c-2.48,1.22-4.75,2.17-6.82,2.83-2.06.66-3.9,1.02-5.51,1.07-1.61.05-2.99-.23-4.14-.84s-2.05-1.57-2.69-2.87c-.25-.5-.3-.93-.16-1.27s.37-.67.68-.96c.31-.3.66-.6,1.04-.92.38-.32.69-.7.93-1.14.24-.44.36-.98.36-1.61s-.23-1.42-.69-2.36l-11.72-23.78c-.46-.92-.94-1.58-1.44-1.97-.51-.39-1.01-.63-1.51-.71-.5-.08-.99-.07-1.47.04-.48.11-.94.19-1.36.26-.43.07-.82.05-1.18-.05-.36-.1-.67-.4-.91-.9-.64-1.3-.85-2.59-.63-3.86.22-1.27.84-2.53,1.86-3.78,1.02-1.25,2.42-2.49,4.2-3.72s3.92-2.46,6.4-3.68c2.56-1.26,4.91-2.24,7.02-2.93,2.12-.69,3.99-1.06,5.62-1.12,1.63-.06,3.02.21,4.16.81,1.14.6,2.04,1.55,2.68,2.85.25.5.3.93.16,1.27-.14.34-.37.67-.68.96-.31.3-.66.61-1.05.93s-.7.71-.94,1.15c-.24.44-.36.99-.36,1.63,0,.64.23,1.42.69,2.35l12.59,25.7Z" fill="#fff"/>
          <path d="M231.36,60.31c-1.71.27-3.25.29-4.62.05-1.37-.24-2.54-.66-3.53-1.28-.99-.62-1.78-1.38-2.37-2.3-.59-.91-.98-1.93-1.15-3.04-.09-.56-.02-.98.19-1.26s.52-.53.92-.73c.4-.2.84-.41,1.35-.6.5-.2,1-.49,1.48-.87.48-.38.93-.9,1.32-1.54.4-.64.69-1.52.87-2.65l4.45-27.39c.09-.51.14-.96.16-1.34.02-.38.01-.71-.03-.99-.11-.72-.39-1.17-.82-1.37s-.9-.32-1.4-.39c-.5-.06-.96-.16-1.38-.3-.42-.13-.68-.5-.78-1.11-.03-.16-.03-.29-.03-.39-.02-1.63.41-3.06,1.28-4.28.88-1.22,2.13-2.27,3.76-3.15,1.63-.88,3.59-1.64,5.89-2.26,2.3-.62,4.86-1.16,7.68-1.6,2.38-.37,4.69-.65,6.9-.82,2.21-.17,4.25-.1,6.1.2,1.85.3,3.45.89,4.8,1.77,1.35.88,2.35,2.19,3,3.94.08.22.13.38.15.48.06.39,0,.71-.19.94-.19.23-.44.43-.74.6-.31.17-.64.32-1,.46-.36.14-.69.32-.98.53-.3.21-.53.49-.7.84-.17.35-.21.8-.13,1.35.08.49.28,1.1.61,1.83l11.77,24.84c.46.99.97,1.75,1.53,2.25s1.12.87,1.68,1.09c.57.22,1.12.35,1.66.38.54.03,1.03.09,1.47.16.44.07.8.21,1.1.41.29.2.48.58.57,1.14.46,2.89-.71,5.22-3.49,6.97-2.78,1.75-7,3.08-12.65,3.96-2.73.43-5.18.65-7.35.68-2.17.02-4.03-.18-5.6-.62-1.56-.43-2.8-1.11-3.72-2.03-.92-.92-1.49-2.1-1.71-3.54-.08-.49-.02-.87.16-1.15.18-.28.42-.51.73-.68.3-.18.65-.34,1.02-.5.38-.15.72-.34,1.01-.57s.53-.52.7-.89c.17-.37.2-.87.1-1.49-.08-.53-.26-1.12-.53-1.77l-.93-2.31-14.1,2.22-.46,2.53c-.16.93-.2,1.67-.11,2.22.08.53.26.93.52,1.18s.57.43.92.53c.35.1.73.17,1.13.2.41.03.78.08,1.13.16.34.08.65.23.91.44.26.22.43.56.5,1.02.17,1.11.12,2.19-.17,3.25-.29,1.05-.8,2.02-1.55,2.91-.75.89-1.73,1.65-2.95,2.3-1.22.64-2.67,1.1-4.36,1.36ZM236.82,36.64l10.87-1.71-8.53-19.37-2.34,21.08Z" fill="#fff"/>
          <path d="M318.97,57.39c-3.04-.4-5.8-1.1-8.27-2.12-2.47-1.02-4.66-2.28-6.58-3.78-1.92-1.5-3.56-3.21-4.92-5.11-1.36-1.9-2.44-3.93-3.25-6.1-.81-2.16-1.33-4.41-1.58-6.75-.25-2.34-.22-4.7.09-7.1.36-2.74.93-5.36,1.73-7.84.8-2.48,1.85-4.78,3.17-6.87s2.9-3.96,4.77-5.58c1.87-1.62,4.05-2.94,6.54-3.95,2.49-1.01,5.32-1.68,8.47-2,3.15-.32,6.68-.23,10.58.28,2.58.34,4.99,1,7.22,2,2.23,1,4.14,2.26,5.73,3.78,1.59,1.52,2.78,3.27,3.57,5.25.79,1.98,1.04,4.11.74,6.39-.12.93-.38,1.75-.76,2.45-.39.71-.88,1.28-1.46,1.72-.59.44-1.26.76-2,.94s-1.52.23-2.34.12c-.72-.09-1.43-.3-2.12-.63-.69-.33-1.33-.8-1.91-1.44-.58-.63-1.07-1.42-1.48-2.36-.41-.94-.68-2.07-.82-3.39-.18-1.87-.71-3.34-1.59-4.41-.88-1.07-1.88-1.68-3.02-1.83-.86-.11-1.75.04-2.67.47-.92.42-1.78,1.15-2.59,2.16-.81,1.02-1.53,2.35-2.17,3.99-.64,1.64-1.11,3.63-1.41,5.95-.4,3.07-.57,5.76-.52,8.07.05,2.31.28,4.31.69,5.99.41,1.68.96,3.09,1.65,4.22.69,1.13,1.48,2.05,2.35,2.75.88.71,1.81,1.23,2.81,1.59.99.35,2,.6,3.02.73,1.05.14,2.08.15,3.12.03,1.03-.11,1.98-.3,2.85-.55.87-.25,1.63-.54,2.28-.87.65-.33,1.13-.65,1.46-.96.41-.42.83-.71,1.27-.88s.83-.23,1.18-.18c.65.08,1.16.49,1.54,1.23.38.73.49,1.69.33,2.88-.24,1.86-1.05,3.6-2.43,5.21-1.38,1.62-3.21,2.98-5.48,4.09-2.27,1.11-4.92,1.9-7.95,2.37-3.03.47-6.31.47-9.84.01Z" fill="#fff"/>
          <path d="M403.88,57.52l-14.23-7-4.73,9.62c-.47.95-.7,1.75-.69,2.4,0,.66.13,1.21.37,1.67s.56.85.95,1.17c.39.32.74.64,1.04.94.31.31.53.63.67.98.14.35.09.77-.16,1.27-1.29,2.63-3.58,3.86-6.87,3.69-3.29-.17-7.5-1.51-12.63-4.04-2.48-1.22-4.61-2.45-6.4-3.68-1.78-1.23-3.19-2.47-4.21-3.72s-1.64-2.51-1.86-3.79c-.22-1.28,0-2.58.64-3.88.25-.5.55-.81.91-.9.36-.1.75-.11,1.18-.05.42.07.88.15,1.36.26s.97.12,1.47.04c.5-.08,1-.31,1.5-.69.5-.38.98-1.04,1.45-1.99l11.7-23.78c.46-.92.68-1.71.68-2.35,0-.64-.12-1.18-.36-1.62s-.55-.82-.93-1.14c-.38-.32-.72-.62-1.04-.92-.31-.3-.54-.62-.68-.96-.14-.34-.09-.77.16-1.27.64-1.3,1.53-2.26,2.68-2.85,1.14-.6,2.52-.88,4.13-.83s3.45.4,5.51,1.07c2.06.66,4.34,1.6,6.82,2.83,2.57,1.26,4.77,2.52,6.6,3.78,1.84,1.26,3.28,2.51,4.32,3.77,1.04,1.26,1.67,2.52,1.9,3.79.22,1.27.01,2.56-.63,3.86-.25.5-.55.81-.91.9-.36.1-.75.11-1.18.05-.43-.06-.88-.15-1.38-.27-.49-.11-.99-.13-1.49-.05-.5.08-1,.32-1.5.71s-.99,1.05-1.44,1.97l-3.91,7.95,14.16,6.97,3.91-7.95c.46-.92.68-1.71.68-2.35s-.12-1.18-.36-1.62c-.24-.44-.55-.83-.94-1.15-.39-.32-.74-.63-1.05-.93-.31-.3-.54-.62-.68-.96-.14-.34-.09-.77.16-1.27,1.28-2.61,3.56-3.83,6.84-3.67s7.49,1.51,12.64,4.05c5.07,2.49,8.66,4.99,10.78,7.48,2.12,2.49,2.53,5.04,1.25,7.65-.25.5-.56.8-.93.89-.37.09-.78.1-1.23.02s-.93-.17-1.44-.3-1.03-.15-1.55-.08-1.04.3-1.55.69c-.52.39-1,1.04-1.46,1.97l-11.64,23.66c-.47.95-.7,1.75-.69,2.4,0,.66.13,1.22.39,1.68s.59.86,1,1.2c.41.33.78.66,1.11.98.33.32.57.65.72,1,.15.35.11.78-.14,1.28-.64,1.3-1.54,2.26-2.69,2.87-1.15.61-2.53.89-4.15.84-1.62-.05-3.48-.42-5.57-1.1-2.1-.68-4.41-1.64-6.93-2.88-2.57-1.26-4.77-2.52-6.6-3.78-1.84-1.26-3.28-2.51-4.32-3.77-1.04-1.26-1.67-2.53-1.89-3.81s0-2.58.64-3.88c.25-.5.55-.81.91-.9.36-.1.76-.12,1.19-.06.43.05.89.14,1.38.25.49.11.99.12,1.49.03.5-.09,1.01-.33,1.51-.73.51-.39,1-1.07,1.47-2.04l4.73-9.62Z" fill="#fff"/>
          <path d="M432.73,106.99c-1.21-1.25-2.1-2.5-2.69-3.75-.59-1.25-.92-2.46-.98-3.62-.06-1.16.11-2.25.52-3.26.41-1.01,1.01-1.91,1.82-2.69.4-.39.79-.58,1.14-.56.36.01.73.12,1.13.33.39.21.82.46,1.27.76.45.3.97.53,1.57.71s1.27.24,2.02.2,1.64-.32,2.66-.81l24.97-12.1c.47-.22.87-.44,1.19-.64.33-.2.59-.4.79-.6.52-.5.74-.99.65-1.46-.09-.47-.25-.92-.49-1.36-.23-.44-.42-.88-.55-1.3-.13-.43.02-.85.46-1.27.12-.11.22-.2.3-.24,1.33-.96,2.74-1.42,4.24-1.41,1.5.02,3.08.44,4.74,1.26,1.66.82,3.4,2,5.23,3.52s3.74,3.31,5.73,5.37c1.68,1.74,3.22,3.46,4.63,5.18,1.41,1.72,2.53,3.42,3.34,5.1.82,1.69,1.25,3.34,1.31,4.95.05,1.61-.44,3.18-1.5,4.72-.14.2-.24.33-.3.39-.29.28-.58.4-.88.38-.3-.02-.6-.11-.92-.26s-.63-.34-.95-.55c-.32-.21-.65-.38-1-.5-.35-.12-.71-.15-1.09-.09-.38.06-.78.28-1.18.68-.35.34-.74.86-1.15,1.55l-13.57,23.91c-.55.95-.87,1.8-.96,2.54-.1.74-.07,1.41.08,2,.15.59.36,1.12.64,1.58.28.46.52.89.71,1.29.19.4.29.78.29,1.14,0,.36-.2.73-.6,1.12-2.11,2.04-4.68,2.42-7.72,1.15s-6.54-3.96-10.51-8.08c-1.92-1.99-3.51-3.86-4.78-5.63-1.26-1.76-2.17-3.41-2.71-4.93-.54-1.53-.7-2.93-.47-4.21.23-1.28.87-2.43,1.91-3.44.35-.34.7-.52,1.03-.53.33-.01.66.06.98.2.32.15.65.33,1,.55.34.22.69.39,1.05.5s.73.13,1.13.06c.4-.08.83-.33,1.28-.77.39-.37.77-.86,1.14-1.45l1.35-2.09-9.92-10.27-2.33,1.08c-.85.4-1.48.79-1.88,1.19-.39.37-.61.74-.67,1.11-.06.36-.03.72.09,1.06.12.34.28.69.49,1.04.21.35.38.69.52,1.02.13.33.19.66.16,1-.03.34-.21.67-.55,1-.81.78-1.73,1.36-2.75,1.73-1.03.37-2.12.51-3.28.4-1.16-.1-2.35-.47-3.57-1.09-1.22-.63-2.43-1.55-3.62-2.79ZM455.24,97.85l7.65,7.91,10.96-18.11-18.6,10.19Z" fill="#fff"/>
          <path d="M529.73,161.57c.58-.3.85-1.1.79-2.4-.06-1.3-.64-3.03-1.75-5.21-.77-1.5-1.48-2.64-2.13-3.41s-1.27-1.29-1.84-1.57c-.57-.27-1.11-.36-1.6-.27-.49.09-.96.25-1.4.48-.9.46-1.47,1.28-1.72,2.47-.25,1.19-.32,2.64-.22,4.33s.3,3.59.6,5.67c.3,2.08.55,4.24.76,6.48.21,2.24.28,4.49.23,6.75-.06,2.26-.38,4.42-.96,6.47-.59,2.05-1.53,3.94-2.83,5.67-1.3,1.73-3.09,3.17-5.37,4.33-2.92,1.49-5.66,2.18-8.22,2.06-2.56-.12-4.96-.87-7.2-2.27-2.24-1.4-4.33-3.35-6.26-5.85-1.93-2.5-3.74-5.39-5.41-8.67-.98-1.92-1.81-3.91-2.48-5.95-.68-2.05-1.17-4.07-1.5-6.06s-.45-3.93-.4-5.81c.05-1.88.31-3.62.78-5.21.46-1.59,1.15-3.01,2.06-4.25.91-1.24,2.06-2.22,3.46-2.93,1.06-.54,2.08-.85,3.04-.92.96-.07,1.84.04,2.64.33s1.5.73,2.11,1.31c.61.58,1.12,1.26,1.51,2.03.48.94.78,1.97.91,3.09s.03,2.23-.27,3.34c-.31,1.1-.84,2.15-1.6,3.13-.76.98-1.79,1.8-3.09,2.46-.31.16-.57.48-.77.97-.2.48-.31,1.09-.32,1.82s.1,1.57.33,2.54c.23.96.62,2,1.19,3.1.79,1.54,1.51,2.73,2.18,3.54s1.29,1.39,1.88,1.71,1.12.45,1.62.38c.49-.07.95-.21,1.36-.42.52-.27.78-.89.79-1.86,0-.98-.11-2.19-.34-3.65-.23-1.46-.53-3.12-.9-4.97-.37-1.85-.66-3.78-.87-5.77-.21-2-.3-4.03-.25-6.09.05-2.07.38-4.04.98-5.93.6-1.89,1.54-3.64,2.8-5.26,1.27-1.62,3-2.99,5.22-4.12,2.19-1.12,4.29-1.85,6.29-2.2,2-.35,3.92-.38,5.75-.09,1.83.29,3.57.87,5.21,1.74s3.19,1.98,4.66,3.33c1.46,1.35,2.82,2.9,4.08,4.67s2.41,3.68,3.47,5.75c1.88,3.7,3.12,7.03,3.7,10.01.58,2.98.71,5.58.37,7.8-.34,2.23-1.03,4.07-2.09,5.54-1.05,1.47-2.26,2.55-3.61,3.24-1.23.63-2.43.91-3.59.85-1.16-.06-2.25-.36-3.26-.9-1.01-.54-1.92-1.27-2.74-2.2-.82-.93-1.5-1.93-2.05-3.02-.53-1.04-.94-2.12-1.21-3.23-.28-1.11-.38-2.16-.31-3.16.07-1,.32-1.9.73-2.7s1.05-1.43,1.91-1.86c.63-.32,1.17-.42,1.62-.3s.88.3,1.26.54c.38.24.75.44,1.11.62.35.18.74.16,1.16-.06Z" fill="#fff"/>
          <path d="M35.03,396.61c-1.31-2.43-2.34-4.67-3.08-6.71-.74-2.04-1.16-3.86-1.27-5.47-.11-1.61.12-3,.69-4.17s1.49-2.1,2.77-2.79c.5-.27.92-.33,1.27-.2s.68.35.99.65c.31.3.63.63.96,1,.33.37.72.66,1.18.88.45.22.99.32,1.62.3s1.41-.28,2.34-.78l23.33-12.58c.91-.49,1.55-.99,1.92-1.51.37-.52.59-1.03.65-1.53.06-.5.03-.99-.09-1.47-.12-.48-.23-.93-.31-1.35-.08-.42-.08-.82,0-1.18s.37-.68.87-.95c1.28-.69,2.56-.95,3.84-.77,1.28.17,2.56.75,3.84,1.72,1.28.97,2.57,2.33,3.87,4.06,1.3,1.74,2.6,3.82,3.91,6.26l8.89,16.49c1.86,3.45,3.27,6.5,4.24,9.16.97,2.66,1.59,4.99,1.88,7,.28,2,.27,3.74-.04,5.19-.31,1.46-.81,2.71-1.5,3.77-.7,1.05-1.53,1.95-2.51,2.67-.98.73-1.99,1.38-3.05,1.94-1.22.66-2.37,1.08-3.47,1.27s-2.14.21-3.13.05c-.99-.16-1.92-.46-2.79-.91-.87-.45-1.68-.99-2.42-1.61-.75-.62-1.43-1.31-2.05-2.07-.62-.76-1.16-1.52-1.63-2.28.69,1.52,1.21,3.12,1.56,4.81.35,1.69.37,3.37.06,5.04-.31,1.67-1.04,3.28-2.19,4.83-1.15,1.55-2.88,2.95-5.19,4.2-1.28.69-2.61,1.18-4,1.48-1.39.29-2.82.32-4.3.06-1.48-.25-3.01-.81-4.58-1.68s-3.2-2.12-4.87-3.74-3.4-3.67-5.17-6.14c-1.77-2.47-3.58-5.42-5.44-8.87l-7.59-14.08ZM65.93,399.76c-.6-1.11-1.08-1.97-1.45-2.57-.36-.6-.65-1.05-.86-1.33-.26-.34-.44-.55-.54-.63l-9.38,5.06c-.76.41-1.49.83-2.16,1.25-.68.42-1.22.88-1.62,1.4s-.63,1.09-.69,1.75c-.06.66.15,1.42.61,2.29.59,1.09,1.26,1.89,2.01,2.39.75.5,1.58.77,2.49.81.91.04,1.91-.13,3-.52,1.08-.38,2.25-.92,3.51-1.59,1.15-.62,2.16-1.23,3.03-1.83.86-.6,1.52-1.22,1.99-1.87.46-.65.71-1.35.75-2.1.03-.75-.19-1.58-.68-2.49ZM71.06,396.99c.49.91,1.06,1.55,1.7,1.94.65.38,1.37.56,2.18.52s1.7-.25,2.67-.64c.97-.39,2.04-.9,3.19-1.52,1.24-.67,2.31-1.35,3.23-2.04.92-.69,1.61-1.43,2.08-2.22.47-.79.7-1.63.69-2.53s-.31-1.9-.89-2.99c-.47-.87-.99-1.46-1.57-1.77-.58-.31-1.2-.44-1.84-.38-.65.06-1.33.25-2.06.59s-1.47.71-2.23,1.12l-9.38,5.06c0,.14.07.4.23.8.13.33.34.81.64,1.45.3.64.75,1.51,1.35,2.62Z" fill="#fff"/>
          <path d="M95.06,480.11c-2.58-2.42-4.68-4.86-6.29-7.32-1.61-2.46-2.8-4.9-3.56-7.31-.76-2.41-1.13-4.79-1.13-7.13,0-2.34.33-4.6.97-6.8.64-2.19,1.57-4.29,2.78-6.28s2.64-3.88,4.29-5.64c1.89-2.02,3.83-3.86,5.81-5.51,1.99-1.66,4.06-3.01,6.22-4.07,2.16-1.06,4.43-1.74,6.81-2.05,2.38-.31,4.9-.12,7.58.57,2.68.69,5.52,1.95,8.53,3.78,3.01,1.83,6.24,4.35,9.67,7.57,2.77,2.6,5,5.16,6.68,7.68s2.91,5,3.67,7.42,1.12,4.77,1.06,7.04-.43,4.47-1.1,6.58-1.64,4.13-2.87,6.05c-1.24,1.92-2.65,3.73-4.24,5.42-1.79,1.92-3.68,3.69-5.65,5.33-1.97,1.64-4.04,3-6.22,4.07-2.18,1.07-4.49,1.79-6.92,2.14-2.43.35-5.01.21-7.74-.43s-5.61-1.85-8.66-3.63c-3.05-1.78-6.29-4.28-9.71-7.48ZM102.85,474.73c.77.72,1.6,1.1,2.49,1.12.89.03,1.85-.23,2.88-.77,1.04-.54,2.15-1.34,3.35-2.4,1.2-1.06,2.49-2.32,3.87-3.79l1.08-1.15c1.22-1.3,2.47-2.66,3.76-4.07,1.29-1.41,2.52-2.83,3.69-4.25s2.22-2.83,3.15-4.21c.92-1.38,1.64-2.69,2.15-3.94.51-1.24.74-2.38.7-3.42-.04-1.03-.46-1.92-1.24-2.66-.8-.75-1.63-1.18-2.47-1.27-.84-.1-1.73.08-2.66.55-.93.46-1.93,1.17-3,2.12-1.07.96-2.25,2.12-3.53,3.49-1.17,1.25-2.44,2.62-3.82,4.13-1.38,1.5-2.72,3.04-4.04,4.62-1.32,1.58-2.54,3.15-3.66,4.73-1.13,1.58-2.02,3.07-2.68,4.48-.66,1.41-1.02,2.69-1.09,3.84-.07,1.16.29,2.1,1.07,2.84Z" fill="#fff"/>
          <path d="M173.12,517.48c-.48.97-.74,1.8-.79,2.51-.05.71.03,1.32.24,1.82s.5.93.89,1.26c.38.33.77.59,1.14.78.04.02.1.04.17.06.07.02.2.08.41.16.2.09.51.21.92.36.41.15.98.37,1.7.64l4-4.84c.95-1.02,1.88-1.82,2.8-2.4.91-.58,1.8-.98,2.65-1.2.85-.22,1.67-.28,2.44-.18.78.1,1.5.31,2.17.64.8.39,1.47.89,2.01,1.48.54.6.93,1.26,1.17,1.99.24.73.32,1.52.24,2.37-.08.85-.34,1.72-.77,2.6-.43.86-.97,1.75-1.64,2.68-.67.92-1.42,1.79-2.27,2.6-.85.81-1.76,1.54-2.73,2.2s-1.99,1.15-3.04,1.5c-1.05.35-2.12.51-3.22.49-1.1-.02-2.19-.3-3.26-.83l-21.56-10.66c-2.48-1.23-4.61-2.46-6.39-3.69-1.78-1.23-3.18-2.48-4.2-3.72-1.02-1.25-1.63-2.51-1.85-3.8-.22-1.28,0-2.58.64-3.88.25-.5.55-.8.92-.9.36-.1.75-.11,1.18-.04.42.07.88.15,1.36.26.48.11.97.12,1.47.04.5-.08,1-.31,1.5-.69.5-.38.99-1.04,1.45-1.99l11.75-23.76c.46-.92.69-1.71.69-2.35s-.12-1.18-.35-1.63c-.24-.44-.55-.83-.92-1.14-.38-.32-.72-.63-1.03-.92-.31-.3-.54-.62-.68-.96-.14-.35-.09-.77.16-1.27.64-1.3,1.54-2.25,2.68-2.85,1.14-.6,2.52-.87,4.13-.82,1.61.05,3.44.41,5.51,1.08,2.06.67,4.33,1.61,6.81,2.84,2.56,1.27,4.76,2.53,6.6,3.79,1.83,1.26,3.27,2.52,4.31,3.78,1.04,1.26,1.67,2.52,1.89,3.8.22,1.27,0,2.56-.64,3.86-.25.5-.55.8-.92.9-.36.1-.75.11-1.18.04-.43-.07-.88-.16-1.38-.27-.49-.11-.99-.13-1.49-.05s-1,.32-1.51.71c-.51.39-.99,1.05-1.45,1.97l-12.75,25.62Z" fill="#fff"/>
          <path d="M222.34,549c-1.71-.27-3.18-.73-4.41-1.38-1.23-.65-2.21-1.41-2.96-2.3-.75-.89-1.27-1.86-1.55-2.92-.28-1.05-.34-2.14-.16-3.25.09-.56.28-.93.57-1.14.29-.2.66-.34,1.1-.41.44-.07.93-.13,1.47-.16s1.1-.16,1.68-.38c.58-.22,1.16-.57,1.73-1.06s1.12-1.24,1.64-2.25l12.67-24.69c.24-.46.43-.87.57-1.23.14-.36.23-.68.28-.95.11-.72,0-1.23-.36-1.55-.35-.32-.76-.58-1.21-.8s-.86-.45-1.22-.71c-.36-.26-.5-.69-.4-1.29.03-.16.06-.29.1-.38.48-1.56,1.33-2.78,2.54-3.67,1.21-.89,2.72-1.5,4.55-1.84,1.82-.34,3.92-.45,6.3-.34,2.38.12,4.98.4,7.8.85,2.38.38,4.66.83,6.82,1.35,2.16.52,4.07,1.21,5.74,2.07s3.01,1.91,4.02,3.16c1.01,1.25,1.56,2.81,1.64,4.67,0,.24,0,.41,0,.5-.06.39-.22.67-.47.83-.25.16-.55.27-.89.34-.34.06-.71.11-1.09.13-.38.02-.75.09-1.1.2-.35.11-.66.3-.93.58-.27.28-.45.69-.54,1.25-.08.49-.07,1.13.02,1.92l3.55,27.26c.14,1.09.39,1.96.76,2.61.37.65.79,1.17,1.27,1.55s.96.67,1.46.87c.5.2.95.4,1.35.6.4.21.7.45.92.73.22.28.28.7.19,1.26-.46,2.89-2.28,4.75-5.47,5.56-3.19.81-7.61.77-13.26-.12-2.73-.43-5.13-.97-7.2-1.62-2.07-.65-3.78-1.42-5.13-2.31-1.35-.89-2.32-1.92-2.91-3.08-.59-1.16-.77-2.46-.54-3.89.08-.49.24-.83.5-1.04.26-.21.56-.35.9-.43.34-.08.72-.13,1.13-.16.41-.03.79-.11,1.14-.23.35-.12.66-.33.94-.63.27-.3.46-.76.56-1.39.08-.53.1-1.15.04-1.84l-.18-2.48-14.1-2.23-1.21,2.26c-.44.83-.7,1.53-.79,2.08-.08.53-.04.96.13,1.28.17.33.41.59.71.79.3.2.64.38,1.02.54.38.16.72.32,1.02.5.3.18.54.41.73.7.18.29.23.67.16,1.13-.18,1.11-.56,2.12-1.16,3.04-.6.92-1.39,1.68-2.37,2.29-.99.62-2.16,1.04-3.51,1.28s-2.88.22-4.57-.05ZM234.83,528.16l10.87,1.72-2.15-21.06-8.72,19.33Z" fill="#fff"/>
          <path d="M326.1,554c-3.05.39-5.89.41-8.54.06-2.65-.36-5.09-1.01-7.33-1.98s-4.26-2.19-6.06-3.68c-1.8-1.49-3.37-3.18-4.7-5.07-1.33-1.88-2.42-3.92-3.25-6.12s-1.41-4.49-1.72-6.88c-.35-2.74-.46-5.42-.33-8.02s.57-5.09,1.31-7.45c.73-2.36,1.8-4.57,3.19-6.62,1.39-2.05,3.16-3.88,5.32-5.49,2.16-1.61,4.71-2.98,7.68-4.09,2.96-1.11,6.4-1.92,10.3-2.43,2.58-.33,5.08-.3,7.49.1,2.41.4,4.58,1.13,6.5,2.19,1.92,1.06,3.52,2.45,4.79,4.17,1.27,1.71,2.06,3.71,2.35,5.99.12.93.08,1.79-.11,2.57s-.52,1.46-.98,2.04c-.46.58-1.02,1.05-1.69,1.42-.67.37-1.42.61-2.23.71-.72.09-1.46.07-2.21-.07-.75-.14-1.49-.44-2.21-.9-.72-.46-1.4-1.1-2.04-1.9s-1.19-1.83-1.65-3.07c-.65-1.76-1.54-3.04-2.66-3.86-1.12-.81-2.25-1.14-3.39-1-.86.11-1.68.49-2.46,1.13-.78.65-1.43,1.56-1.95,2.75-.52,1.19-.88,2.66-1.08,4.41-.2,1.75-.15,3.79.15,6.11.4,3.07.92,5.71,1.56,7.93.64,2.22,1.37,4.09,2.2,5.62.82,1.52,1.71,2.74,2.67,3.66.96.92,1.95,1.6,2.98,2.06,1.03.46,2.07.73,3.12.82,1.05.09,2.09.07,3.11-.06,1.05-.13,2.05-.39,3.02-.76s1.84-.79,2.62-1.26c.78-.47,1.44-.94,1.98-1.42s.93-.92,1.16-1.3c.29-.51.62-.9,1-1.18.38-.27.74-.43,1.09-.48.65-.08,1.25.18,1.8.8s.9,1.51,1.06,2.7c.24,1.86-.1,3.75-1.02,5.66s-2.34,3.7-4.25,5.35c-1.91,1.65-4.27,3.09-7.08,4.32-2.81,1.23-5.98,2.07-9.51,2.52Z" fill="#fff"/>
          <path d="M405.7,500.94l-14.23,6.98,4.72,9.63c.46.95.96,1.62,1.48,2.02.52.4,1.04.64,1.55.73.51.09,1.02.08,1.51-.04.49-.11.96-.19,1.38-.25s.83-.03,1.19.06c.36.1.67.4.91.9,1.29,2.63.87,5.2-1.28,7.69-2.14,2.5-5.78,5.01-10.91,7.53-2.48,1.22-4.76,2.16-6.82,2.82-2.06.66-3.9,1.01-5.51,1.06-1.61.04-2.99-.24-4.14-.85-1.15-.61-2.04-1.57-2.68-2.87-.25-.5-.3-.93-.16-1.27.14-.34.37-.67.68-.96.31-.3.66-.6,1.04-.92.38-.32.69-.7.93-1.14.24-.44.36-.98.37-1.61s-.23-1.42-.69-2.36l-11.67-23.8c-.45-.93-.93-1.58-1.44-1.98s-1.01-.63-1.5-.71c-.5-.08-.99-.07-1.47.04-.48.11-.94.19-1.36.26-.43.07-.82.05-1.18-.05-.36-.1-.67-.4-.91-.9-.64-1.3-.85-2.59-.62-3.87.22-1.27.85-2.53,1.87-3.77,1.02-1.25,2.42-2.48,4.21-3.71s3.92-2.45,6.4-3.67c2.57-1.26,4.91-2.23,7.03-2.92,2.12-.69,3.99-1.06,5.62-1.11,1.63-.06,3.02.22,4.16.82,1.14.6,2.04,1.55,2.67,2.86.25.5.3.93.16,1.27s-.37.67-.68.96c-.31.3-.66.61-1.05.93-.39.32-.71.71-.94,1.15-.24.44-.36.99-.36,1.62,0,.64.23,1.42.68,2.35l3.9,7.95,14.17-6.95-3.9-7.95c-.45-.93-.93-1.58-1.44-1.98s-1.01-.63-1.5-.71c-.5-.08-.99-.07-1.49.04-.49.11-.95.2-1.38.27-.42.06-.82.05-1.18-.05-.36-.1-.67-.4-.91-.9-1.28-2.61-.85-5.16,1.28-7.66,2.13-2.49,5.77-5,10.93-7.53,5.07-2.49,9.24-3.81,12.51-3.96s5.54,1.08,6.82,3.68c.25.5.29.93.14,1.28-.15.35-.4.68-.73.99s-.7.63-1.12.96c-.41.33-.75.73-1.01,1.18-.26.46-.4,1-.41,1.65-.01.64.21,1.43.67,2.36l11.61,23.67c.46.95.96,1.62,1.48,2.02.52.4,1.04.64,1.57.72.52.08,1.04.06,1.56-.06s1-.21,1.45-.28c.45-.06.86-.05,1.23.04.37.09.68.39.93.9.64,1.3.85,2.6.63,3.88-.22,1.28-.84,2.55-1.88,3.8-1.03,1.25-2.46,2.5-4.27,3.74-1.82,1.24-3.99,2.49-6.51,3.72-2.57,1.26-4.91,2.23-7.03,2.92s-3.99,1.06-5.62,1.11c-1.63.06-3.02-.22-4.17-.83s-2.04-1.57-2.68-2.87c-.25-.5-.3-.93-.16-1.27.14-.34.37-.67.68-.98s.66-.62,1.04-.94c.39-.32.7-.71.94-1.16s.35-1,.35-1.64c0-.64-.24-1.44-.71-2.41l-4.72-9.63Z" fill="#fff"/>
          <path d="M472.76,486.21c-1.21,1.25-2.43,2.19-3.66,2.82-1.23.63-2.43,1-3.59,1.1-1.16.1-2.25-.03-3.28-.41-1.02-.37-1.94-.95-2.75-1.73-.4-.39-.6-.77-.6-1.12,0-.36.1-.73.29-1.14.19-.4.43-.83.71-1.29.28-.46.5-.99.66-1.59.16-.6.2-1.28.13-2.03-.07-.75-.37-1.63-.9-2.63l-12.93-24.55c-.24-.46-.47-.85-.68-1.17-.21-.32-.42-.58-.62-.77-.52-.5-1.01-.7-1.48-.6-.46.11-.91.28-1.35.53-.43.25-.86.45-1.28.59-.42.15-.85,0-1.29-.41-.12-.11-.2-.21-.25-.29-1-1.29-1.51-2.69-1.55-4.19s.34-3.09,1.1-4.78c.77-1.69,1.88-3.47,3.34-5.35,1.46-1.88,3.19-3.85,5.18-5.9,1.68-1.73,3.35-3.34,5.02-4.8s3.33-2.64,4.99-3.51c1.66-.87,3.29-1.36,4.9-1.47,1.61-.11,3.2.34,4.77,1.34.2.13.33.23.4.29.29.28.42.57.41.86-.01.3-.09.61-.23.92-.14.32-.32.64-.52.97-.2.33-.36.67-.47,1.01s-.13.71-.06,1.09.31.77.71,1.16c.35.34.88.71,1.58,1.09l24.35,12.76c.97.52,1.83.81,2.58.88s1.41.02,2-.14c.59-.17,1.1-.4,1.56-.7.45-.3.87-.55,1.27-.75s.77-.31,1.13-.33c.36-.01.74.17,1.14.57,2.1,2.04,2.57,4.59,1.4,7.67-1.17,3.08-3.74,6.67-7.72,10.78-1.92,1.99-3.75,3.64-5.46,4.96s-3.33,2.28-4.84,2.88c-1.51.6-2.91.8-4.19.61-1.29-.19-2.45-.78-3.5-1.8-.35-.34-.54-.68-.56-1.01s.04-.66.17-.99c.14-.32.31-.66.52-1.01s.37-.71.47-1.06c.1-.36.11-.73.02-1.13-.09-.4-.36-.81-.82-1.25-.39-.38-.88-.74-1.49-1.09l-2.13-1.28-9.93,10.25,1.16,2.29c.43.84.84,1.45,1.25,1.84.39.38.76.58,1.13.63.37.04.72,0,1.05-.13.34-.13.68-.3,1.02-.53.34-.22.68-.4,1-.55.32-.15.65-.21.99-.19.34.02.68.19,1.02.52.81.78,1.42,1.68,1.82,2.69.41,1.01.58,2.1.51,3.26s-.39,2.36-.97,3.61-1.47,2.48-2.66,3.71ZM462.88,464.02l7.65-7.91-18.46-10.34,10.81,18.25Z" fill="#fff"/>
          <path d="M498.19,376.74c-.58-.3-1.39-.04-2.4.76-1.02.81-2.08,2.3-3.19,4.47-.77,1.5-1.27,2.75-1.51,3.73-.24.98-.3,1.79-.19,2.41.11.62.35,1.11.72,1.45.36.34.76.63,1.2.85.9.46,1.9.44,3.01-.06s2.32-1.29,3.64-2.36c1.32-1.08,2.73-2.35,4.24-3.81,1.51-1.46,3.11-2.93,4.8-4.41,1.69-1.48,3.47-2.86,5.34-4.14s3.8-2.29,5.81-3.01c2-.73,4.09-1.07,6.25-1.03s4.38.64,6.66,1.81c2.92,1.5,5.08,3.31,6.49,5.45,1.41,2.14,2.2,4.53,2.38,7.16.18,2.63-.18,5.46-1.07,8.5-.89,3.03-2.18,6.19-3.85,9.46-.98,1.92-2.11,3.75-3.37,5.5-1.26,1.75-2.61,3.34-4.04,4.77s-2.92,2.67-4.48,3.73c-1.56,1.06-3.12,1.87-4.68,2.42-1.56.56-3.11.83-4.65.82s-3-.37-4.4-1.09c-1.06-.54-1.91-1.19-2.53-1.93s-1.05-1.52-1.28-2.33c-.23-.81-.29-1.64-.17-2.48.11-.84.37-1.64.76-2.41.48-.94,1.14-1.79,1.97-2.54.84-.76,1.79-1.34,2.86-1.73,1.07-.4,2.23-.58,3.47-.53,1.24.04,2.51.4,3.8,1.06.31.16.72.18,1.23.06.51-.12,1.06-.39,1.66-.81.6-.42,1.22-1,1.86-1.75.65-.75,1.25-1.67,1.82-2.78.79-1.54,1.32-2.83,1.59-3.85.27-1.02.37-1.86.28-2.52s-.29-1.17-.64-1.53c-.34-.36-.72-.65-1.14-.86-.52-.27-1.18-.12-1.97.45-.79.57-1.71,1.38-2.76,2.42-1.05,1.04-2.21,2.26-3.5,3.64-1.29,1.38-2.67,2.75-4.17,4.09s-3.09,2.6-4.79,3.77c-1.7,1.17-3.5,2.06-5.38,2.68-1.88.62-3.85.89-5.9.81s-4.19-.68-6.4-1.81c-2.19-1.12-4.02-2.39-5.48-3.81-1.46-1.42-2.61-2.95-3.45-4.61s-1.39-3.4-1.64-5.24-.27-3.75-.03-5.72.7-3.99,1.39-6.04c.7-2.05,1.57-4.11,2.63-6.18,1.89-3.69,3.87-6.65,5.94-8.87,2.07-2.22,4.11-3.84,6.11-4.87,2-1.03,3.91-1.55,5.71-1.56,1.81,0,3.39.33,4.75,1.03,1.23.63,2.16,1.44,2.79,2.42s1.02,2.04,1.18,3.17c.16,1.13.1,2.3-.17,3.5s-.69,2.35-1.24,3.43c-.53,1.04-1.17,2-1.91,2.88-.74.87-1.53,1.57-2.38,2.1-.85.53-1.72.86-2.62.99-.9.13-1.77-.02-2.63-.46-.63-.32-1.02-.7-1.19-1.14-.17-.44-.27-.89-.3-1.34-.03-.45-.08-.87-.15-1.26s-.3-.69-.72-.9Z" fill="#fff"/>
          <path d="M34.17,289.53c-.65,1.73-1.34,3.48-2.07,5.26-.62,1.52-1.33,3.19-2.13,5.01-.8,1.82-1.6,3.56-2.4,5.22-.48.97-.99,1.86-1.52,2.68-.53.82-1.12,1.53-1.76,2.13-.65.6-1.34,1.07-2.09,1.42-.75.35-1.57.52-2.47.52-.83,0-1.69-.16-2.59-.48-.9-.32-1.79-.76-2.66-1.31-.88-.55-1.71-1.19-2.49-1.9-.78-.71-1.48-1.45-2.07-2.21-.6-.76-1.07-1.53-1.42-2.32-.35-.78-.52-1.51-.52-2.18,0-1.36.42-2.69,1.26-3.98.84-1.29,1.91-2.49,3.2-3.6.85-.71,1.75-1.48,2.68-2.3.93-.82,1.85-1.63,2.75-2.44.9-.81,1.76-1.58,2.59-2.32.83-.74,1.56-1.39,2.18-1.97.62-.58,1.12-1.03,1.49-1.37.37-.33.55-.51.55-.54-1.71-.14-3.45-.31-5.22-.52-1.52-.16-3.19-.35-5-.57-1.81-.22-3.57-.45-5.27-.71-1.29-.18-2.49-.45-3.6-.81-1.11-.36-2.08-.84-2.9-1.45-.83-.61-1.48-1.37-1.95-2.27-.47-.9-.71-1.97-.71-3.22,0-.74.08-1.54.24-2.4.16-.86.41-1.82.76-2.85.88-2.54,1.98-4.36,3.3-5.48,1.33-1.12,2.75-1.68,4.27-1.68.67,0,1.46.13,2.37.4.91.27,1.87.61,2.89,1.04,1.01.43,2.06.91,3.15,1.45,1.08.54,2.14,1.09,3.18,1.64,2.42,1.31,4.93,2.81,7.54,4.5-.32-1.82-.65-3.67-.97-5.53-.14-.78-.29-1.62-.45-2.51-.16-.89-.33-1.77-.5-2.66-.17-.89-.35-1.77-.54-2.65-.18-.88-.36-1.72-.52-2.52-.14-.65-.25-1.3-.35-1.95-.09-.66-.14-1.28-.14-1.88,0-1.11.16-2.14.48-3.11.32-.97.86-1.81,1.63-2.52.76-.71,1.76-1.27,3.01-1.68,1.24-.4,2.79-.61,4.63-.61s3.39.2,4.63.61,2.25.96,3.01,1.68c.76.72,1.31,1.56,1.64,2.52.33.97.5,2.01.5,3.11,0,.6-.05,1.23-.14,1.88-.09.66-.21,1.31-.35,1.95-.18.81-.36,1.65-.54,2.52-.17.88-.35,1.76-.52,2.65-.17.89-.34,1.78-.5,2.66-.16.89-.31,1.72-.45,2.51-.32,1.87-.65,3.71-.97,5.53,2.58-1.68,5.08-3.18,7.5-4.5,1.01-.55,2.06-1.1,3.15-1.64,1.08-.54,2.14-1.03,3.16-1.45,1.03-.43,1.99-.77,2.9-1.04.91-.26,1.71-.4,2.4-.4,1.52,0,2.93.56,4.24,1.68,1.3,1.12,2.4,2.95,3.3,5.48.37,1.04.63,1.99.8,2.85.16.86.24,1.67.24,2.4,0,1.25-.24,2.32-.73,3.22-.48.9-1.14,1.65-1.97,2.27s-1.8,1.09-2.9,1.45c-1.11.36-2.29.63-3.56.81-1.71.25-3.47.49-5.29.71-1.82.22-3.49.41-5.02.57-1.78.21-3.5.38-5.19.52,0,.02.18.2.55.54.37.33.86.79,1.49,1.37.62.58,1.34,1.23,2.16,1.97.82.74,1.68,1.51,2.58,2.32.9.81,1.82,1.62,2.77,2.44.95.82,1.84,1.59,2.7,2.3,1.29,1.11,2.36,2.31,3.2,3.6.84,1.29,1.26,2.62,1.26,3.98,0,.67-.17,1.4-.52,2.18-.35.78-.82,1.56-1.42,2.32-.6.76-1.29,1.5-2.07,2.21-.78.71-1.61,1.35-2.49,1.9-.88.55-1.78.99-2.7,1.31-.92.32-1.8.48-2.63.48-1.08,0-2.1-.32-3.06-.97-.96-.65-1.85-1.49-2.68-2.52-.83-1.04-1.6-2.23-2.3-3.58s-1.35-2.71-1.94-4.1c-.59-1.38-1.11-2.74-1.57-4.08-.46-1.34-.86-2.53-1.19-3.56-.33-1.04-.62-1.87-.85-2.51-.23-.63-.39-.94-.48-.92Z" fill="#fff"/>
          <path d="M539.21,289.53c-.65,1.73-1.34,3.48-2.08,5.26-.62,1.52-1.33,3.19-2.13,5.01-.8,1.82-1.6,3.56-2.4,5.22-.48.97-.99,1.86-1.52,2.68-.53.82-1.12,1.53-1.76,2.13-.65.6-1.34,1.07-2.09,1.42s-1.57.52-2.47.52c-.83,0-1.69-.16-2.59-.48-.9-.32-1.79-.76-2.66-1.31-.88-.55-1.71-1.19-2.49-1.9s-1.48-1.45-2.08-2.21c-.6-.76-1.07-1.53-1.42-2.32-.35-.78-.52-1.51-.52-2.18,0-1.36.42-2.69,1.26-3.98s1.91-2.49,3.2-3.6c.85-.71,1.75-1.48,2.68-2.3.93-.82,1.85-1.63,2.75-2.44.9-.81,1.76-1.58,2.59-2.32.83-.74,1.56-1.39,2.18-1.97.62-.58,1.12-1.03,1.49-1.37.37-.33.55-.51.55-.54-1.71-.14-3.45-.31-5.22-.52-1.52-.16-3.19-.35-5-.57-1.81-.22-3.57-.45-5.27-.71-1.29-.18-2.49-.45-3.6-.81-1.11-.36-2.08-.84-2.91-1.45s-1.48-1.37-1.95-2.27-.71-1.97-.71-3.22c0-.74.08-1.54.24-2.4.16-.86.42-1.82.76-2.85.88-2.54,1.98-4.36,3.3-5.48,1.33-1.12,2.75-1.68,4.27-1.68.67,0,1.46.13,2.37.4.91.27,1.87.61,2.89,1.04,1.01.43,2.06.91,3.15,1.45,1.08.54,2.14,1.09,3.18,1.64,2.42,1.31,4.93,2.81,7.54,4.5-.32-1.82-.65-3.67-.97-5.53-.14-.78-.29-1.62-.45-2.51-.16-.89-.33-1.77-.5-2.66-.17-.89-.35-1.77-.54-2.65-.18-.88-.36-1.72-.52-2.52-.14-.65-.25-1.3-.35-1.95-.09-.66-.14-1.28-.14-1.88,0-1.11.16-2.14.48-3.11.32-.97.86-1.81,1.63-2.52.76-.71,1.76-1.27,3.01-1.68s2.79-.61,4.63-.61,3.39.2,4.63.61,2.25.96,3.01,1.68c.76.72,1.31,1.56,1.64,2.52.33.97.5,2.01.5,3.11,0,.6-.05,1.23-.14,1.88-.09.66-.21,1.31-.35,1.95-.18.81-.36,1.65-.54,2.52-.17.88-.35,1.76-.52,2.65-.17.89-.34,1.78-.5,2.66-.16.89-.31,1.72-.45,2.51-.32,1.87-.65,3.71-.97,5.53,2.58-1.68,5.08-3.18,7.5-4.5,1.01-.55,2.06-1.1,3.15-1.64s2.14-1.03,3.16-1.45c1.03-.43,1.99-.77,2.9-1.04.91-.26,1.71-.4,2.4-.4,1.52,0,2.93.56,4.24,1.68,1.3,1.12,2.4,2.95,3.3,5.48.37,1.04.63,1.99.8,2.85.16.86.24,1.67.24,2.4,0,1.25-.24,2.32-.73,3.22-.48.9-1.14,1.65-1.97,2.27-.83.61-1.8,1.09-2.91,1.45-1.11.36-2.29.63-3.56.81-1.71.25-3.47.49-5.29.71-1.82.22-3.49.41-5.01.57-1.78.21-3.51.38-5.19.52,0,.02.18.2.55.54.37.33.86.79,1.49,1.37.62.58,1.34,1.23,2.16,1.97.82.74,1.68,1.51,2.58,2.32.9.81,1.82,1.62,2.77,2.44.95.82,1.84,1.59,2.7,2.3,1.29,1.11,2.36,2.31,3.2,3.6s1.26,2.62,1.26,3.98c0,.67-.17,1.4-.52,2.18-.35.78-.82,1.56-1.42,2.32-.6.76-1.29,1.5-2.07,2.21-.78.71-1.61,1.35-2.49,1.9-.88.55-1.78.99-2.7,1.31-.92.32-1.8.48-2.63.48-1.08,0-2.1-.32-3.06-.97-.96-.65-1.85-1.49-2.68-2.52-.83-1.04-1.6-2.23-2.3-3.58-.7-1.35-1.35-2.71-1.94-4.1s-1.11-2.74-1.57-4.08c-.46-1.34-.86-2.53-1.19-3.56-.33-1.04-.62-1.87-.85-2.51-.23-.63-.39-.94-.48-.92Z" fill="#fff"/>
        </g>
      </g>
    </symbol>
  </defs>
  <use width="573.07" height="555.2" transform="scale(.52)" xlink:href="#a"/>
</svg>