<?xml version="1.0" encoding="UTF-8"?>
<svg id="a" xmlns="http://www.w3.org/2000/svg" version="1.1" viewBox="0 0 152 44">
  <!-- Generator: Adobe Illustrator 29.6.1, SVG Export Plug-In . SVG Version: 2.1.1 Build 9)  -->
  <defs>
    <style>
      .st0 {
        fill: #2a2a2a;
      }

      .st1 {
        fill: #fff;
      }
    </style>
  </defs>
  <path class="st0" d="M51.49.21h2.24c3.19,0,5.18,2.19,5.18,5.62v.05c0,3.43-1.88,5.72-5.28,5.72h-1.01v6.65h-1.13s0-18.04,0-18.04ZM53.73,10.59c2.6,0,4.04-1.75,4.04-4.69v-.05c0-2.94-1.6-4.61-4.1-4.61h-1.06v9.35h1.12Z"/>
  <path class="st0" d="M60.95,13.6V.21h1.13v13.42c0,2.45,1.06,3.81,2.76,3.81s2.78-1.37,2.78-3.81V.21h1.13v13.39c0,2.99-1.52,4.87-3.91,4.87s-3.89-1.88-3.89-4.87Z"/>
  <path class="st0" d="M78.37.21l-3.01,8.42,3.43,9.61h-1.16l-2.96-8.37-2.91,8.37h-1.13l3.4-9.5L70.96.21h1.16l2.55,7.29,2.58-7.29h1.13s-.01,0-.01,0Z"/>
  <path class="st0" d="M80.88.21h6.13v1.03h-5v7.39h4.56v1.03h-4.56v7.55h5.07v1.03h-6.21V.21h.01Z"/>
  <path class="st0" d="M93.53,9.43v-.41c0-5.95,1.83-9.02,4.28-9.02s4.28,3.07,4.28,9.02v.41c0,5.95-1.83,9.02-4.28,9.02s-4.28-3.07-4.28-9.02ZM100.94,9.43v-.41c0-5.25-1.36-7.98-3.14-7.98s-3.14,2.73-3.14,7.98v.41c0,5.25,1.37,7.98,3.14,7.98s3.14-2.73,3.14-7.98Z"/>
  <path class="st0" d="M109.24.21h1.13v17h4.53v1.03h-5.67V.21h.01Z"/>
  <path class="st0" d="M120.42.13h1.24l3.94,18.11h-1.18l-1.06-5.05h-4.69l-1.06,5.05h-1.13L120.42.13ZM123.15,12.16l-2.14-10.25-2.14,10.25h4.28Z"/>
  <path class="st0" d="M126.88,9.45v-.46c0-6,2.24-8.94,4.82-8.94.8,0,1.21.15,1.75.44v1.21c-.67-.39-1.16-.57-1.75-.57-2.01,0-3.68,2.7-3.68,7.86v.46c0,5.15,1.67,7.86,3.68,7.86.64,0,1.18-.18,1.83-.59v1.16c-.52.31-1.11.52-1.88.52-2.65,0-4.77-2.94-4.77-8.94h0Z"/>
  <path class="st0" d="M135.79.21h2.24c1.57,0,2.86.49,3.76,1.39.9.9,1.42,2.24,1.42,3.91v.05c0,2.5-1.16,4.3-3.12,5.05l3.45,7.62h-1.34l-3.27-7.34c-.31.05-.64.08-1,.08h-1.01v7.26h-1.13V.21ZM138.03,9.97c2.47,0,4.04-1.57,4.04-4.38v-.05c0-2.91-1.65-4.3-4.1-4.3h-1.06v8.73h1.12Z"/>
  <path class="st0" d="M145.71.21h6.13v1.03h-5v7.39h4.56v1.03h-4.56v7.55h5.07v1.03h-6.21V.21h0Z"/>
  <path class="st0" d="M51.49,25.97h2.24c3.19,0,5.18,2.19,5.18,5.62v.05c0,3.43-1.88,5.72-5.28,5.72h-1.01v6.65h-1.13v-18.03h0ZM53.73,36.35c2.6,0,4.04-1.75,4.04-4.69v-.05c0-2.94-1.6-4.61-4.1-4.61h-1.06v9.35h1.12Z"/>
  <path class="st0" d="M63.36,25.89h1.24l3.94,18.11h-1.18l-1.06-5.05h-4.69l-1.06,5.05h-1.13l3.94-18.11ZM66.09,37.92l-2.14-10.25-2.14,10.25h4.28Z"/>
  <path class="st0" d="M70.73,25.97h2.24c1.57,0,2.86.49,3.76,1.39s1.42,2.24,1.42,3.91v.05c0,2.5-1.16,4.3-3.12,5.05l3.45,7.62h-1.34l-3.27-7.34c-.31.05-.64.08-1,.08h-1.01v7.26h-1.13v-18.03h0ZM72.97,35.73c2.47,0,4.04-1.57,4.04-4.38v-.05c0-2.91-1.65-4.3-4.1-4.3h-1.06v8.73s1.12,0,1.12,0Z"/>
  <path class="st0" d="M84.24,25.89h1.24l3.94,18.11h-1.19l-1.06-5.05h-4.69l-1.06,5.05h-1.13l3.94-18.11h0ZM86.97,37.92l-2.14-10.25-2.14,10.25h4.28Z"/>
  <path class="st0" d="M99.57,25.89h1.24l3.94,18.11h-1.19l-1.06-5.05h-4.69l-1.06,5.05h-1.13l3.94-18.11h0ZM102.3,37.92l-2.14-10.25-2.14,10.25h4.28Z"/>
  <path class="st0" d="M106.94,25.97h2.32c1.49,0,2.73.49,3.61,1.37.75.75,1.21,1.85,1.21,3.14v.05c0,2.65-1.52,3.86-3.3,4.35,2.14.49,3.53,1.93,3.53,4.4v.05c0,2.94-2.19,4.66-5.54,4.66h-1.83v-18.03h0ZM112.94,30.53c0-2.19-1.49-3.53-3.73-3.53h-1.13v7.39h.8c2.65,0,4.07-1.44,4.07-3.81v-.05h-.01ZM108.97,35.42h-.9v7.55h.72c2.7,0,4.38-1.26,4.38-3.66v-.05c0-2.47-1.52-3.84-4.2-3.84Z"/>
  <path class="st0" d="M116.66,25.97h2.24c1.57,0,2.86.49,3.76,1.39s1.42,2.24,1.42,3.91v.05c0,2.5-1.16,4.3-3.12,5.05l3.45,7.62h-1.34l-3.27-7.34c-.31.05-.64.08-1,.08h-1.01v7.26h-1.13v-18.03h0ZM118.9,35.73c2.47,0,4.04-1.57,4.04-4.38v-.05c0-2.91-1.65-4.3-4.1-4.3h-1.06v8.73s1.12,0,1.12,0Z"/>
  <path class="st0" d="M126.67,25.97h1.13v18.03h-1.13v-18.03Z"/>
  <path class="st0" d="M130.83,25.97h2.24c1.57,0,2.86.49,3.76,1.39s1.42,2.24,1.42,3.91v.05c0,2.5-1.16,4.3-3.12,5.05l3.45,7.62h-1.34l-3.27-7.34c-.31.05-.64.08-1,.08h-1.01v7.26h-1.13v-18.03h0ZM133.07,35.73c2.47,0,4.04-1.57,4.04-4.38v-.05c0-2.91-1.65-4.3-4.1-4.3h-1.06v8.73h1.12Z"/>
  <path class="st0" d="M3.85,22.06h0c2.66,1.56,4.46,3.88,5.41,6.98.03.14.07.28.12.42.01.02.02.05.03.07.02.05.04.09.05.14,1.01,3.01,2.56,5.05,4.63,6.13-.49,2.09-.09,4.02,1.19,5.78h0c1.37,2.15,5,2.87,10.9,2.16,6.12-.73,9.16-2.84,9.12-6.32.07-2.13-.1-3.69-.51-4.68.33-.38.66-.79.97-1.21h0c.31-.42.66-.97,1.03-1.66,0-.01,0-.02.02-.03.08-.16.16-.33.25-.51,0-.02.02-.04.03-.06.97-1.86,1.67-3.6,2.1-5.23.37-1.38.56-2.68.56-3.89,0-1.87-.19-3.51-.56-4.92-.2-.82-.46-1.57-.78-2.25h0c-1.29-2.7-3.32-4.04-6.07-4.02-.21,0-.43.02-.67.09-1.05-1.13-2.24-1.68-3.57-1.64-.43-.02-1.01.13-1.76.45-.02,0-.04.01-.05.02-.31.12-.57.23-.78.35-.75-.44-1.58-.66-2.48-.65-.37,0-.75.05-1.14.15-.02,0-.03,0-.05.01-.12.03-.25.07-.39.14-1.6-3.29-3.57-5.56-5.92-6.8C13.99.27,12.74-.08,11.74.02c-1.28.07-2.23.71-2.84,1.91v.02c-1.17,2.01-.62,4.15,1.64,6.43h.01c1.56,1.6,2.62,2.84,3.15,3.74,0,0,0,.01.01.02,1.12,2.65,1.67,4.73,1.66,6.22-.01.69-.2,1.2-.56,1.53-.19-.17-.39-.37-.61-.61h-.01c-.83-.88-1.66-1.82-2.47-2.82-.95-1.21-2.49-2.19-4.62-2.92h0c-2.43-.84-4.46-.26-6.1,1.73h0c-1.01,1.22-1.17,2.47-.48,3.76.47.99,1.59,2,3.35,3.02h-.02ZM2.96,16.91h0c.89-1.09,1.99-1.4,3.3-.95h0c1.59.53,2.74,1.24,3.47,2.1.86,1.06,1.72,2.05,2.59,2.97h.01c.63.69,1.17,1.17,1.64,1.46.16.1.33.16.51.19s.36.01.54-.04c1.88-.5,2.85-1.91,2.9-4.22.06-1.77-.56-4.2-1.86-7.31-.02-.04-.04-.08-.06-.12-.56-1.05-1.77-2.52-3.63-4.41h-.01c-1.25-1.27-1.65-2.43-1.2-3.47v-.02c.18-.32.42-.5.76-.53.62,0,1.41.25,2.37.77,2.18,1.21,3.97,3.51,5.39,6.88,0,.02.02.05.03.07,0,0,0,.01.01.02h0l.02.05c.5,1.24,1.05,2.97,1.63,5.17.09.34.29.6.6.78s.63.22.97.13.6-.29.78-.6c.18-.31.22-.63.13-.97-.5-1.87-.97-3.42-1.41-4.63.04-.02.07-.04.11-.05.16-.04.32-.05.47-.05.78.02,1.46.36,2.02,1.03.62.8,1.19,2.51,1.73,5.1.07.34.26.61.55.81.29.19.61.25.96.18.34-.07.61-.25.81-.54.2-.3.26-.61.19-.96-.54-2.62-1.15-4.49-1.82-5.6.26-.11.47-.17.63-.19.84.05,1.59.56,2.24,1.52h.01c.58.89,1.2,2.51,1.88,4.88.1.34.3.59.61.77.31.17.63.21.97.11.34-.1.59-.3.77-.61.17-.31.21-.63.11-.97-.47-1.67-.93-3.01-1.37-4.04,1.23.28,2.16,1.1,2.81,2.45h0c.25.53.46,1.13.63,1.78h0c.31,1.24.47,2.67.47,4.29,0,1-.16,2.08-.47,3.23-.39,1.48-1.03,3.07-1.92,4.76,0,.02-.02.04-.03.06-.08.17-.16.33-.23.49l.02-.03c-.31.56-.59,1.02-.84,1.36h0c-.47.64-.96,1.22-1.48,1.76l-.02.02-.03.04c-.88.86-1.81,1.58-2.79,2.15l.05-.02c-.21.11-.43.23-.64.34-.31.17-.52.42-.63.76-.1.34-.07.66.1.97s.42.52.76.63c.34.1.66.07.97-.1.21-.11.43-.23.64-.34.02,0,.03,0,.05-.02.71-.42,1.4-.9,2.07-1.44.04.59.04,1.44,0,2.57-.23,2.06-2.51,3.35-6.86,3.87-4.57.54-7.41.17-8.53-1.13h0c-.7-.98-.99-2.05-.85-3.2.66.29,1.35.53,2.08.75h.02c.34.1.68.18,1.03.26h.05c.45.08.91.14,1.36.18.35.04.66-.06.94-.28.27-.22.42-.51.46-.86.04-.35-.05-.66-.28-.94-.23-.27-.51-.42-.86-.46-.38-.04-.76-.09-1.14-.15h-.05c-.28-.07-.56-.14-.83-.21h.02c-.73-.2-1.41-.45-2.06-.74h-.01c-.27-.13-.52-.25-.77-.38-.18-.15-.37-.24-.55-.27-1.83-.73-3.17-2.37-4.03-4.92,0-.02-.02-.05-.03-.07-.02-.05-.04-.09-.05-.14-.03-.09-.05-.17-.07-.26,0-.03-.01-.06-.02-.1-1.15-3.75-3.34-6.57-6.56-8.45h-.01c-1.2-.7-1.98-1.36-2.34-1.98-.15-.32-.09-.64.17-.94h-.07Z"/>
  <path class="st1" d="M2.96,16.91h0c.89-1.09,1.99-1.4,3.3-.95h0c1.59.53,2.74,1.24,3.47,2.1.86,1.06,1.72,2.05,2.59,2.97h.01c.63.69,1.17,1.17,1.64,1.46.16.1.33.16.51.19s.36.01.54-.04c1.88-.5,2.85-1.91,2.9-4.22.06-1.77-.56-4.2-1.86-7.31-.02-.04-.04-.08-.06-.12-.56-1.05-1.77-2.52-3.63-4.41h-.01c-1.25-1.27-1.65-2.43-1.2-3.47v-.02c.18-.32.42-.5.76-.53.62,0,1.41.25,2.37.77,2.18,1.21,3.97,3.51,5.39,6.88,0,.02.02.05.03.07,0,0,0,.01.01.02h0l.02.05c.5,1.24,1.05,2.97,1.63,5.17.09.34.29.6.6.78s.63.22.97.13.6-.29.78-.6c.18-.31.22-.63.13-.97-.5-1.87-.97-3.42-1.41-4.63.04-.02.07-.04.11-.05.16-.04.32-.05.47-.05.78.02,1.46.36,2.02,1.03.62.8,1.19,2.51,1.73,5.1.07.34.26.61.55.81.29.19.61.25.96.18.34-.07.61-.25.81-.54.2-.3.26-.61.19-.96-.54-2.62-1.15-4.49-1.82-5.6.26-.11.47-.17.63-.19.84.05,1.59.56,2.24,1.52h.01c.58.89,1.2,2.51,1.88,4.88.1.34.3.59.61.77.31.17.63.21.97.11.34-.1.59-.3.77-.61.17-.31.21-.63.11-.97-.47-1.67-.93-3.01-1.37-4.04,1.23.28,2.16,1.1,2.81,2.45h0c.25.53.46,1.13.63,1.78h0c.31,1.24.47,2.67.47,4.29,0,1-.16,2.08-.47,3.23-.39,1.48-1.03,3.07-1.92,4.76,0,.02-.02.04-.03.06-.08.17-.16.33-.23.49l.02-.03c-.31.56-.59,1.02-.84,1.36h0c-.47.64-.96,1.22-1.48,1.76l-.02.02-.03.04c-.88.86-1.81,1.58-2.79,2.15l.05-.02c-.21.11-.43.23-.64.34-.31.17-.52.42-.63.76-.1.34-.07.66.1.97s.42.52.76.63c.34.1.66.07.97-.1.21-.11.43-.23.64-.34.02,0,.03,0,.05-.02.71-.42,1.4-.9,2.07-1.44.04.59.04,1.44,0,2.57-.23,2.06-2.51,3.35-6.86,3.87-4.57.54-7.41.17-8.53-1.13h0c-.7-.98-.99-2.05-.85-3.2.66.29,1.35.53,2.08.75h.02c.34.1.68.18,1.03.26h.05c.45.08.91.14,1.36.18.35.04.66-.06.94-.28.27-.22.42-.51.46-.86.04-.35-.05-.66-.28-.94-.23-.27-.51-.42-.86-.46-.38-.04-.76-.09-1.14-.15h-.05c-.28-.07-.56-.14-.83-.21h.02c-.73-.2-1.41-.45-2.06-.74h-.01c-.27-.13-.52-.25-.77-.38-.18-.15-.37-.24-.55-.27-1.83-.73-3.17-2.37-4.03-4.92,0-.02-.02-.05-.03-.07-.02-.05-.04-.09-.05-.14-.03-.09-.05-.17-.07-.26,0-.03-.01-.06-.02-.1-1.15-3.75-3.34-6.57-6.56-8.45h-.01c-1.2-.7-1.98-1.36-2.34-1.98-.15-.32-.09-.64.17-.94h-.07Z"/>
</svg>