<?xml version="1.0" encoding="UTF-8"?>
<svg id="a" xmlns="http://www.w3.org/2000/svg" version="1.1" viewBox="0 0 1760 340">
  <!-- Generator: Adobe Illustrator 29.6.1, SVG Export Plug-In . SVG Version: 2.1.1 Build 9)  -->
  <defs>
    <style>
      .st0 {
        fill: #2a2a2a;
      }
    </style>
  </defs>
  <path class="st0" d="M1369.41,30.36h-10.5v-1.7l10.65-25.51h1.85v25.31h2.75v1.9h-2.75v8.05h-2v-8.05ZM1369.41,28.46V8.2l-8.4,20.26h8.4Z"/>
  <path class="st0" d="M1375.11,36.96l8.45-17.35c1.55-3.2,2.45-5.65,2.45-8.7,0-3.5-1.95-5.7-4.9-5.7-2.05,0-3.6.65-5.1,1.6v-2.35c1.35-.8,3.05-1.45,5.2-1.45,4.3,0,7.05,3.1,7.05,7.65v.2c0,3.4-1.1,6.05-2.95,9.9l-7.5,15.5h10.75v2.15h-13.45v-1.45Z"/>
  <path class="st0" d="M1391.28,21.36v-.8c0-12.4,3-17.55,7.35-17.55s7.35,5.05,7.35,17.46v.8c0,12.4-3,17.56-7.35,17.56s-7.35-5.05-7.35-17.46h0ZM1403.78,21.36v-.8c0-10.45-2.05-15.55-5.15-15.55s-5.15,5-5.15,15.45v.8c0,10.45,2.05,15.56,5.15,15.56s5.15-5,5.15-15.45h0Z"/>
  <path class="st0" d="M1410.18,43.96v-2.15c1.9.75,4.15,1.25,5.85,1.25,3.55,0,5.4-1.7,5.4-5.3v-6.2c-1.05,3-2.85,5.45-5.5,5.45-3.5,0-6.85-4.35-6.85-12.4v-.45c0-7.95,3.35-12.4,6.85-12.4,2.65,0,4.45,2.45,5.5,5.45v-5.05h2.1v25.51c0,2.4-.65,4.2-1.85,5.4-1.3,1.3-3.25,1.95-5.75,1.95-1.8,0-3.95-.4-5.75-1.05h0ZM1421.54,24.61v-.45c0-6.7-2.8-10.55-5.35-10.55s-5,3.75-5,10.6v.35c0,6.85,2.4,10.6,5,10.6s5.35-3.85,5.35-10.55Z"/>
  <path class="st0" d="M1438.94,0h1.8v43.31h-1.8V0Z"/>
  <path class="st0" d="M1455.73,10.41h3.48c4.96,0,8.04,3.4,8.04,8.72v.08c0,5.32-2.92,8.88-8.2,8.88h-1.56v10.32h-1.76V10.41ZM1459.21,26.53c4.04,0,6.28-2.72,6.28-7.28v-.08c0-4.56-2.48-7.16-6.36-7.16h-1.64v14.52h1.72Z"/>
  <path class="st0" d="M1469.93,10.41h9.52v1.6h-7.76v11.48h7.08v1.6h-7.08v11.72h7.88v1.6h-9.64V10.41Z"/>
  <path class="st0" d="M1481.97,37.25v-2c1.92,1.24,3.52,1.8,4.88,1.8,2.36,0,3.88-1.56,3.88-4.04v-.08c0-2.32-.84-3.8-3.92-7.96-3.72-5-4.64-6.52-4.64-9.08v-.08c0-3.32,2.44-5.72,5.48-5.72,1.6,0,2.88.44,4.24,1.24v2c-1.52-1.04-2.92-1.56-4.28-1.56-2.16,0-3.68,1.6-3.68,3.92v.08c0,2.08.84,3.6,3.96,7.56,3.4,4.28,4.6,6.48,4.6,9.48v.08c0,3.56-2.44,5.84-5.68,5.84-1.64,0-3.16-.52-4.84-1.48h0Z"/>
  <path class="st0" d="M1494.82,24.73v-.64c0-9.24,2.84-14,6.64-14s6.64,4.76,6.64,14v.64c0,9.24-2.84,14-6.64,14s-6.64-4.76-6.64-14ZM1506.34,24.73v-.64c0-8.16-2.12-12.4-4.88-12.4s-4.88,4.24-4.88,12.4v.64c0,8.16,2.12,12.4,4.88,12.4s4.88-4.24,4.88-12.4Z"/>
  <path class="st0" d="M1518.42,10.41h1.76v26.4h7.04v1.6h-8.8V10.41Z"/>
  <path class="st0" d="M1529.78,10.41h1.76v28h-1.76V10.41ZM1532.42,4.65l1.92.88-3.12,3.28h-1.28s2.48-4.16,2.48-4.16Z"/>
  <path class="st0" d="M1547.35,39.21l-2.04-2.6c-1.08,1.4-2.36,2.12-3.76,2.12-3.8,0-6.64-4.76-6.64-14v-.64c0-9.24,2.84-14,6.64-14s6.64,4.76,6.64,14v.64c0,4.68-.8,8.2-2.04,10.56l2.44,2.88-1.24,1.04h0ZM1544.35,35.45l-2.88-3.44,1.24-1.04,2.4,3.04c.84-2.08,1.32-5.16,1.32-9.28v-.64c0-8.16-2.12-12.4-4.88-12.4s-4.88,4.24-4.88,12.4v.64c0,8.16,2.12,12.4,4.88,12.4,1.08,0,2.04-.56,2.8-1.68Z"/>
  <path class="st0" d="M1551.22,35.13h2.48v3.28h-2.48v-3.28Z"/>
  <path class="st0" d="M1563.97,7.69h1.52l-8.72,34.64h-1.52s8.72-34.64,8.72-34.64Z"/>
  <path class="st0" d="M1567.57,10.41h1.92l8.72,23.52V10.41h1.68v28h-1.72l-8.92-24.08v24.08h-1.68V10.41Z"/>
  <path class="st0" d="M1583.93,10.41h9.52v1.6h-7.76v11.48h7.08v1.6h-7.08v11.72h7.88v1.6h-9.64V10.41Z"/>
  <path class="st0" d="M1600.05,12.01h-4.56v-1.6h10.88v1.6h-4.56v26.4h-1.76V12.01h0Z"/>
  <path class="st0" d="M1607.21,24.73v-.64c0-9.24,2.84-14,6.64-14s6.64,4.76,6.64,14v.64c0,9.24-2.84,14-6.64,14s-6.64-4.76-6.64-14ZM1618.73,24.73v-.64c0-8.16-2.12-12.4-4.88-12.4s-4.88,4.24-4.88,12.4v.64c0,8.16,2.12,12.4,4.88,12.4s4.88-4.24,4.88-12.4Z"/>
  <path class="st0" d="M1629.41,7.69h1.52l-8.72,34.64h-1.52s8.72-34.64,8.72-34.64Z"/>
  <path class="st0" d="M1633.02,10.41h1.92l8.72,23.52V10.41h1.68v28h-1.72l-8.92-24.08v24.08h-1.68V10.41Z"/>
  <path class="st0" d="M1649.38,10.41h9.52v1.6h-7.76v11.48h7.08v1.6h-7.08v11.72h7.88v1.6h-9.64V10.41Z"/>
  <path class="st0" d="M1665.5,12.01h-4.56v-1.6h10.88v1.6h-4.56v26.4h-1.76V12.01h0Z"/>
  <path class="st0" d="M1680.1,10.41h1.88l3.8,24.44,4.56-24.44h1.64l4.52,24.44,3.84-24.44h1.8l-4.84,28.2h-1.64l-4.52-24.44-4.56,24.44h-1.64l-4.84-28.2h0Z"/>
  <path class="st0" d="M1708.77,12.01h-4.56v-1.6h10.88v1.6h-4.56v26.4h-1.76V12.01h0Z"/>
  <path class="st0" d="M1715.62,35.13h2.48v3.28h-2.48v-3.28Z"/>
  <path class="st0" d="M1381.61,87.5l-1.79-2.28c-.95,1.23-2.07,1.86-3.29,1.86-3.33,0-5.81-4.17-5.81-12.25v-.56c0-8.09,2.49-12.25,5.81-12.25s5.81,4.17,5.81,12.25v.56c0,4.1-.7,7.18-1.79,9.24l2.14,2.52-1.09.91h.01ZM1378.98,84.21l-2.52-3.01,1.09-.91,2.1,2.66c.74-1.82,1.16-4.52,1.16-8.12v-.56c0-7.14-1.85-10.85-4.27-10.85s-4.27,3.71-4.27,10.85v.56c0,7.14,1.86,10.85,4.27,10.85.95,0,1.79-.49,2.45-1.47h0Z"/>
  <path class="st0" d="M1385.17,81.27v-12.85h1.47v12.71c0,3.05,1.09,4.69,3.01,4.69s3.5-2,3.5-4.97v-12.43h1.47v18.38h-1.47v-2.7c-.63,1.54-1.75,2.98-3.78,2.98-2.49,0-4.2-2.07-4.2-5.81Z"/>
  <path class="st0" d="M1397.97,62.04h1.61v2.45h-1.61s0-2.45,0-2.45ZM1398.04,68.42h1.47v18.38h-1.47v-18.38Z"/>
  <path class="st0" d="M1403.47,83.72v-13.93h-1.75v-1.37h1.75v-5.18h1.47v5.18h2.98v1.37h-2.98v13.72c0,1.61.73,2.03,1.93,2.03.35,0,.84-.07,1.12-.18v1.37c-.35.14-.88.21-1.26.21-2,0-3.26-.88-3.26-3.22Z"/>
  <path class="st0" d="M1410.15,81.27v-12.85h1.47v12.71c0,3.05,1.09,4.69,3.01,4.69s3.5-2,3.5-4.97v-12.43h1.47v18.38h-1.47v-2.7c-.63,1.54-1.75,2.98-3.78,2.98-2.49,0-4.2-2.07-4.2-5.81Z"/>
  <path class="st0" d="M1423.5,83.72v-13.93h-1.75v-1.37h1.75v-5.18h1.47v5.18h2.98v1.37h-2.98v13.72c0,1.61.73,2.03,1.93,2.03.35,0,.84-.07,1.12-.18v1.37c-.35.14-.88.21-1.26.21-2,0-3.26-.88-3.26-3.22Z"/>
  <path class="st0" d="M1429.09,77.94v-.32c0-6.37,2.35-9.49,5.04-9.49s4.8,3.26,4.8,9v1.09h-8.37c.07,4.97,2.1,7.42,4.59,7.42,1.12,0,2-.28,3.19-1.09l.17,1.51c-1.3.74-2.14.98-3.57.98-3.08,0-5.85-3.01-5.85-9.1h0ZM1437.49,76.92c0-4.24-1.4-7.42-3.36-7.42s-3.43,2.56-3.57,7.42h6.93,0Z"/>
  <path class="st0" d="M1440.69,86.13v-1.54c1.26.67,2.56,1.05,3.75,1.05,1.54,0,2.8-1.01,2.8-2.73v-.07c0-1.3-.74-2.59-2.91-4.66-2.73-2.59-3.61-4.03-3.61-5.88v-.07c0-2.56,2-4.03,4.17-4.03,1.23,0,2.07.17,3.05.59v1.54c-1.05-.52-2.03-.77-3.12-.77-1.51,0-2.63.98-2.63,2.59v.07c0,1.33.7,2.35,2.91,4.52,2.59,2.56,3.61,4.06,3.61,6.02v.07c0,2.59-2.1,4.17-4.34,4.17-1.44,0-2.49-.32-3.68-.88h0Z"/>
  <path class="st0" d="M1456.65,74.86v-.63c0-8.16,3.05-12.15,6.55-12.15,1.09,0,1.65.21,2.38.6v1.64c-.91-.52-1.58-.77-2.38-.77-2.73,0-5.01,3.68-5.01,10.68v.63c0,7,2.28,10.68,5.01,10.68.88,0,1.61-.25,2.49-.81v1.58c-.7.42-1.51.7-2.56.7-3.61,0-6.48-3.99-6.48-12.15Z"/>
  <path class="st0" d="M1468.17,68.42h1.47v2.7c.7-1.68,2.14-3.05,4.31-2.91v1.58h-.07c-2.31,0-4.24,1.47-4.24,4.69v12.32h-1.47v-18.38h0Z"/>
  <path class="st0" d="M1476.06,62.04h1.61v2.45h-1.61s0-2.45,0-2.45ZM1476.13,68.42h1.47v18.38h-1.47v-18.38Z"/>
  <path class="st0" d="M1479.96,81.44v-.28c0-3.4,1.75-5.88,4.83-5.88,1.26,0,2.24.32,3.08.7v-2.31c0-2.56-1.16-4.06-3.5-4.06-1.3,0-2.31.25-3.4.84v-1.44c1.02-.49,2.17-.8,3.47-.8,1.47,0,2.66.42,3.57,1.33.77.77,1.33,2.17,1.33,3.96v13.3h-1.47v-2.66c-.73,1.82-1.93,2.98-3.71,2.98-2.49,0-4.2-2.42-4.2-5.67h0ZM1487.88,81.06v-3.68c-.98-.46-1.93-.74-3.01-.74-2.28,0-3.43,1.89-3.43,4.45v.28c0,2.49,1.02,4.45,2.94,4.45,2.17,0,3.5-2.35,3.5-4.76h0Z"/>
  <path class="st0" d="M1492.88,83.72v-13.93h-1.75v-1.37h1.75v-5.18h1.47v5.18h2.98v1.37h-2.98v13.72c0,1.61.73,2.03,1.93,2.03.35,0,.84-.07,1.12-.18v1.37c-.35.14-.88.21-1.26.21-2,0-3.26-.88-3.26-3.22Z"/>
  <path class="st0" d="M1499.69,62.04h1.61v2.45h-1.61s0-2.45,0-2.45ZM1499.76,68.42h1.47v18.38h-1.47v-18.38Z"/>
  <path class="st0" d="M1503.58,68.42h1.51l3.64,15.9,3.71-15.9h1.44l-4.52,18.49h-1.26l-4.52-18.49h0Z"/>
  <path class="st0" d="M1515.02,77.76v-.31c0-5.78,2.49-9.31,5.25-9.31s5.18,3.54,5.18,9.31v.31c0,5.78-2.45,9.31-5.22,9.31s-5.22-3.54-5.22-9.31h0ZM1523.99,77.76v-.31c0-4.83-1.68-7.95-3.75-7.95s-3.75,3.12-3.75,7.95v.31c0,4.83,1.68,7.95,3.75,7.95s3.75-3.12,3.75-7.95Z"/>
  <path class="st0" d="M1527.11,86.13v-1.54c1.26.67,2.56,1.05,3.75,1.05,1.54,0,2.8-1.01,2.8-2.73v-.07c0-1.3-.74-2.59-2.91-4.66-2.73-2.59-3.61-4.03-3.61-5.88v-.07c0-2.56,2-4.03,4.17-4.03,1.23,0,2.07.17,3.05.59v1.54c-1.05-.52-2.03-.77-3.12-.77-1.51,0-2.63.98-2.63,2.59v.07c0,1.33.7,2.35,2.91,4.52,2.59,2.56,3.61,4.06,3.61,6.02v.07c0,2.59-2.1,4.17-4.34,4.17-1.44,0-2.49-.32-3.68-.88h0Z"/>
  <path class="st0" d="M1546.19,63.69h-3.99v-1.4h9.52v1.4h-3.99v23.11h-1.54v-23.11Z"/>
  <path class="st0" d="M1553.91,62.04h1.61v2.45h-1.61s0-2.45,0-2.45ZM1553.98,68.42h1.47v18.38h-1.47v-18.38Z"/>
  <path class="st0" d="M1558.83,68.42h1.47v3.54c.74-2.1,2-3.82,3.85-3.82,2.52,0,4.8,3.22,4.8,9.14v.67c0,5.85-2.28,9.14-4.8,9.14-1.86,0-3.12-1.72-3.85-3.82v8.09h-1.47v-22.93h0ZM1567.47,77.91v-.6c0-5.04-1.61-7.88-3.5-7.88s-3.75,2.8-3.75,7.74v.88c0,4.94,1.89,7.74,3.75,7.74s3.5-2.84,3.5-7.88Z"/>
  <path class="st0" d="M1570.99,77.76v-.31c0-5.78,2.49-9.31,5.25-9.31s5.18,3.54,5.18,9.31v.31c0,5.78-2.45,9.31-5.22,9.31s-5.22-3.54-5.22-9.31h0ZM1579.95,77.76v-.31c0-4.83-1.68-7.95-3.75-7.95s-3.75,3.12-3.75,7.95v.31c0,4.83,1.68,7.95,3.75,7.95s3.75-3.12,3.75-7.95Z"/>
  <path class="st0" d="M1594.66,62.19h1.68l5.36,24.61h-1.61l-1.43-6.86h-6.37l-1.43,6.86h-1.54l5.36-24.61h-.02,0ZM1598.37,78.54l-2.91-13.93-2.91,13.93h5.82Z"/>
  <path class="st0" d="M1604.08,68.42h1.47v2.7c.63-1.54,1.72-2.98,3.68-2.98s3.05,1.4,3.61,3.12c.67-1.51,1.85-3.12,4.06-3.12,2.52,0,4.2,2,4.2,5.74v12.92h-1.47v-12.78c0-3.05-1.09-4.62-2.91-4.62s-3.4,1.93-3.4,4.9v12.5h-1.47v-12.78c0-3.05-1.09-4.62-2.91-4.62s-3.4,1.93-3.4,4.9v12.5h-1.47v-18.38s.01,0,.01,0Z"/>
  <path class="st0" d="M1623.34,81.44v-.28c0-3.4,1.75-5.88,4.83-5.88,1.26,0,2.24.32,3.08.7v-2.31c0-2.56-1.16-4.06-3.5-4.06-1.3,0-2.31.25-3.4.84v-1.44c1.02-.49,2.17-.8,3.47-.8,1.47,0,2.66.42,3.57,1.33.77.77,1.33,2.17,1.33,3.96v13.3h-1.47v-2.66c-.73,1.82-1.93,2.98-3.71,2.98-2.49,0-4.2-2.42-4.2-5.67h0ZM1631.25,81.06v-3.68c-.98-.46-1.93-.74-3.01-.74-2.28,0-3.43,1.89-3.43,4.45v.28c0,2.49,1.02,4.45,2.94,4.45,2.17,0,3.5-2.35,3.5-4.76h0Z"/>
  <path class="st0" d="M1635.95,68.42h1.47v2.7c.63-1.54,1.75-2.98,3.78-2.98,2.49,0,4.2,2.07,4.2,5.81v12.85h-1.47v-12.71c0-3.05-1.09-4.69-3.01-4.69s-3.5,2-3.5,4.97v12.43h-1.47s0-18.38,0-18.38Z"/>
  <path class="st0" d="M1648.94,83.72v-13.93h-1.75v-1.37h1.75v-5.18h1.47v5.18h2.98v1.37h-2.98v13.72c0,1.61.73,2.03,1.93,2.03.35,0,.84-.07,1.12-.18v1.37c-.35.14-.88.21-1.26.21-2,0-3.26-.88-3.26-3.22Z"/>
  <path class="st0" d="M1654.53,77.94v-.32c0-6.37,2.35-9.49,5.04-9.49s4.8,3.26,4.8,9v1.09h-8.37c.07,4.97,2.1,7.42,4.59,7.42,1.12,0,2-.28,3.19-1.09l.17,1.51c-1.3.74-2.14.98-3.57.98-3.08,0-5.85-3.01-5.85-9.1h0ZM1662.93,76.92c0-4.24-1.4-7.42-3.36-7.42s-3.43,2.56-3.57,7.42h6.93,0Z"/>
  <path class="st0" d="M1666.92,62.04h1.61v2.45h-1.61s0-2.45,0-2.45ZM1666.99,68.42h1.47v18.38h-1.47v-18.38Z"/>
  <path class="st0" d="M1671.9,90.68v-1.51c1.33.53,2.91.88,4.1.88,2.49,0,3.78-1.19,3.78-3.71v-4.34c-.74,2.1-2,3.82-3.85,3.82-2.45,0-4.8-3.05-4.8-8.68v-.31c0-5.57,2.35-8.68,4.8-8.68,1.86,0,3.12,1.72,3.85,3.82v-3.54h1.47v17.86c0,1.68-.46,2.94-1.3,3.78-.91.91-2.28,1.37-4.03,1.37-1.26,0-2.77-.28-4.03-.73v-.03h.01ZM1679.85,77.13v-.31c0-4.69-1.96-7.39-3.75-7.39s-3.5,2.63-3.5,7.42v.25c0,4.8,1.68,7.42,3.5,7.42s3.75-2.7,3.75-7.39Z"/>
  <path class="st0" d="M1683.55,81.44v-.28c0-3.4,1.75-5.88,4.83-5.88,1.26,0,2.24.32,3.08.7v-2.31c0-2.56-1.16-4.06-3.5-4.06-1.3,0-2.31.25-3.4.84v-1.44c1.02-.49,2.17-.8,3.47-.8,1.47,0,2.66.42,3.57,1.33.77.77,1.33,2.17,1.33,3.96v13.3h-1.47v-2.66c-.73,1.82-1.93,2.98-3.71,2.98-2.49,0-4.2-2.42-4.2-5.67h0ZM1691.46,81.06v-3.68c-.98-.46-1.93-.74-3.01-.74-2.28,0-3.43,1.89-3.43,4.45v.28c0,2.49,1.02,4.45,2.94,4.45,2.17,0,3.5-2.35,3.5-4.76h0Z"/>
  <path class="st0" d="M1695.54,77.94v-.67c0-5.85,2.28-9.14,4.8-9.14,1.86,0,3.12,1.72,3.85,3.82v-9.91h1.47v24.75h-1.47v-3.54c-.74,2.1-2,3.82-3.85,3.82-2.52,0-4.8-3.22-4.8-9.14h0ZM1704.26,78.05v-.88c0-4.94-1.89-7.74-3.75-7.74s-3.5,2.84-3.5,7.88v.6c0,5.04,1.61,7.88,3.5,7.88s3.75-2.8,3.75-7.74Z"/>
  <path class="st0" d="M1708.31,77.76v-.31c0-5.78,2.49-9.31,5.25-9.31s5.18,3.54,5.18,9.31v.31c0,5.78-2.45,9.31-5.22,9.31s-5.22-3.54-5.22-9.31h0ZM1717.27,77.76v-.31c0-4.83-1.68-7.95-3.75-7.95s-3.75,3.12-3.75,7.95v.31c0,4.83,1.68,7.95,3.75,7.95s3.75-3.12,3.75-7.95Z"/>
  <path class="st0" d="M1119.89,207.37h33.16v132.63h-33.16v-132.63ZM1368.58,207.37v132.63h16.58v-132.63h-16.58ZM1176.26,340h9.95v-132.63h-9.95v132.63ZM1159.68,340h9.95v-132.63h-9.95v132.63ZM1192.84,340h16.58v-132.63h-16.58v132.63ZM1216.05,340h6.63v-132.63h-6.63v132.63ZM1229.31,340h6.63v-132.63h-6.63v132.63ZM1242.57,340h6.63v-132.63h-6.63v132.63ZM1262.47,340h19.89v-132.63h-19.89v132.63ZM1338.73,340h6.63v-132.63h-6.63v132.63ZM1352,340h6.63v-132.63h-6.63v132.63ZM1305.57,340h6.63v-132.63h-6.63v132.63ZM1289,340h9.95v-132.63h-9.95v132.63ZM1318.84,340h13.26v-132.63h-13.26v132.63Z"/>
  <path class="st0" d="M1392.23,207.37h33.16v132.63h-33.16v-132.63ZM1640.92,207.37v132.63h16.58v-132.63h-16.58ZM1448.6,340h9.95v-132.63h-9.95v132.63ZM1432.02,340h9.95v-132.63h-9.95v132.63ZM1465.18,340h16.58v-132.63h-16.58v132.63ZM1488.39,340h6.63v-132.63h-6.63v132.63ZM1501.65,340h6.63v-132.63h-6.63v132.63ZM1514.91,340h6.63v-132.63h-6.63v132.63ZM1534.81,340h19.89v-132.63h-19.89v132.63ZM1611.07,340h6.63v-132.63h-6.63v132.63ZM1624.34,340h6.63v-132.63h-6.63v132.63ZM1577.92,340h6.63v-132.63h-6.63v132.63ZM1561.34,340h9.95v-132.63h-9.95v132.63ZM1591.18,340h13.26v-132.63h-13.26v132.63ZM1743.01,207.37v132.63h16.58v-132.63h-16.58ZM1713.17,340h6.63v-132.63h-6.63v132.63ZM1726.43,340h6.63v-132.63h-6.63v132.63ZM1680.01,340h6.63v-132.63h-6.63v132.63ZM1663.43,340h9.95v-132.63h-9.95v132.63ZM1693.27,340h13.26v-132.63h-13.26v132.63Z"/>
  <path class="st0" d="M154.79,82.66l-2.85-3.08c-1.93-2.08-2.64-4.74-1.99-7.5l.92-4.02c1.32-5.73-2.04-11.58-7.67-13.31l-4.01-1.24c-2.7-.84-4.65-2.79-5.47-5.49l-1.21-3.94c-1.72-5.62-7.57-9-13.3-7.7l-4.09.93c-2.75.63-5.43-.08-7.48-2.01l-3.02-2.82c-4.3-4.01-11.04-4.01-15.36-.02l-3.08,2.85c-2.08,1.93-4.74,2.64-7.5,1.99l-4.02-.92c-5.73-1.32-11.58,2.04-13.31,7.67l-1.24,4.01c-.84,2.7-2.79,4.65-5.49,5.47l-3.94,1.21c-5.62,1.72-9,7.57-7.7,13.3l.93,4.09c.63,2.75-.08,5.43-2.01,7.48l-2.82,3.02c-4.01,4.3-4.01,11.04-.02,15.36l2.85,3.08c1.93,2.08,2.64,4.74,1.99,7.5l-.92,4.02c-1.32,5.73,2.04,11.58,7.67,13.31l4.01,1.24c2.7.84,4.65,2.79,5.47,5.49l.06.21-16.1,24.63c-.63.97-.6,2.19.08,3.13.68.93,1.84,1.35,2.94,1.04l14.52-3.9c.32-.08.66.11.74.43l3.9,14.52c.29,1.11,1.24,1.9,2.38,2.03.09.02.19.02.29.02,1.03,0,1.98-.57,2.45-1.52l14.33-28.3c.18.14.34.28.5.43l3.02,2.82c2.16,2.01,4.92,3.01,7.7,3.01s5.52-1,7.68-2.99l3.08-2.85c.14-.13.31-.26.45-.38l14.31,28.29c.48.93,1.41,1.52,2.45,1.52.09,0,.19,0,.29-.02,1.14-.11,2.08-.92,2.38-2.03l3.9-14.52c.08-.32.42-.52.74-.43l14.52,3.9c1.11.31,2.27-.11,2.94-1.04.68-.93.71-2.16.08-3.13l-16.08-24.61.08-.29c.84-2.7,2.79-4.65,5.49-5.47l3.94-1.21c5.62-1.72,9-7.57,7.7-13.3l-.93-4.09c-.63-2.75.08-5.43,2.01-7.48l2.82-3.02c3.99-4.3,4.01-11.06,0-15.36h0ZM69.01,171.35l-3.74-13.92c-.52-1.92-2.5-3.06-4.41-2.54l-13.92,3.74,14.4-22.04v.02c1.72,5.62,7.57,9,13.3,7.7l4.09-.93c1.52-.34,2.98-.29,4.35.16l-14.06,27.82h-.01ZM146.9,158.61l-13.92-3.74c-1.92-.52-3.9.63-4.41,2.54l-3.72,13.93-14.07-27.83c1.38-.45,2.88-.52,4.43-.16l4.02.92c5.73,1.32,11.58-2.04,13.31-7.67l14.36,22.01h0ZM152.59,95.97l-2.82,3.02c-2.62,2.82-3.6,6.44-2.74,10.19l.93,4.09c.97,4.22-1.53,8.5-5.65,9.77l-3.94,1.21c-3.69,1.13-6.35,3.79-7.47,7.45l-1.24,4.01c-1.27,4.12-5.57,6.6-9.77,5.63l-4.02-.92c-3.75-.87-7.37.09-10.21,2.72l-3.08,2.85c-3.17,2.93-8.13,2.93-11.29-.02l-3.02-2.82c-2.16-1.99-4.77-3.04-7.57-3.04-.87,0-1.74.09-2.64.31l-4.09.93c-4.2.97-8.5-1.53-9.77-5.65l-1.21-3.94c-1.13-3.69-3.79-6.35-7.45-7.47l-4.01-1.24c-4.12-1.27-6.6-5.57-5.63-9.77l.92-4.02c.87-3.75-.09-7.37-2.72-10.21l-2.85-3.08c-2.93-3.17-2.93-8.13.02-11.29l2.82-3.02c2.62-2.82,3.6-6.44,2.74-10.19l-.93-4.09c-.97-4.22,1.53-8.5,5.65-9.77l3.94-1.21c3.69-1.13,6.35-3.79,7.47-7.45l1.24-4.01c1.27-4.12,5.57-6.6,9.77-5.63l4.02.92c3.75.87,7.37-.09,10.21-2.72l3.08-2.85c3.17-2.93,8.13-2.93,11.29.02l3.02,2.82c2.82,2.62,6.44,3.6,10.19,2.74l4.09-.93c4.2-.97,8.5,1.53,9.77,5.65l1.21,3.94c1.13,3.69,3.79,6.35,7.45,7.47l4.01,1.24c4.12,1.27,6.6,5.57,5.63,9.77l-.92,4.02c-.87,3.75.09,7.37,2.72,10.21l2.85,3.08c2.94,3.18,2.94,8.13,0,11.29h0ZM96.93,49.25c-22.65,0-41.09,18.43-41.09,41.09s18.43,41.1,41.09,41.1,41.09-18.43,41.09-41.09-18.43-41.1-41.09-41.1ZM96.93,128.44c-21.01,0-38.09-17.1-38.09-38.09s17.1-38.09,38.09-38.09,38.09,17.1,38.09,38.09-17.08,38.09-38.09,38.09Z"/>
  <path class="st0" d="M123.98,84.06c0-2.65-2.16-4.81-4.81-4.81h-13.21c1.1-2.87,1.73-5.67,2.07-7.64.21-1.21.32-2.48.32-3.78,0-2.65-2.16-4.81-4.81-4.81s-4.81,2.16-4.81,4.81c0,1.3-.29,2.57-.85,3.68-1.2,2.4-3.95,7.9-15.99,11.56v-.81c0-.66-.54-1.2-1.2-1.2h-9.62c-.66,0-1.2.54-1.2,1.2v25.25c0,.66.54,1.2,1.2,1.2h9.62c.66,0,1.2-.54,1.2-1.2v-.49c6.84,3.16,11.07,3.52,12.66,3.52.3,0,.51-.01.62-.02h16.78c2.65,0,4.81-2.16,4.81-4.81,0-.99-.3-1.91-.82-2.68,1.88-.66,3.22-2.44,3.22-4.53,0-.99-.3-1.91-.82-2.68,1.88-.66,3.22-2.44,3.22-4.53,0-.99-.3-1.91-.82-2.68,1.88-.66,3.22-2.43,3.22-4.53l.02-.02h0ZM79.49,106.3h-7.21v-22.85h7.21v22.85ZM119.17,86.46h-9.61c-.66,0-1.2.54-1.2,1.2s.54,1.2,1.2,1.2h7.21c1.33,0,2.4,1.08,2.4,2.4s-1.08,2.4-2.4,2.4h-9.61c-.66,0-1.2.54-1.2,1.2s.54,1.2,1.2,1.2h7.21c1.33,0,2.4,1.08,2.4,2.4s-1.08,2.4-2.4,2.4h-12.02c-.66,0-1.2.54-1.2,1.2s.54,1.2,1.2,1.2h9.62c1.33,0,2.4,1.08,2.4,2.4s-1.08,2.4-2.4,2.4h-16.97c-.05,0-4.46.41-13.09-3.77v-18.78c12.05-3.48,16.03-8.75,18.14-12.99.72-1.44,1.1-3.08,1.1-4.76,0-1.33,1.08-2.4,2.4-2.4s2.4,1.08,2.4,2.4c0,1.15-.1,2.29-.28,3.37-.35,2.06-1.05,5.07-2.29,8.06h-2.24c-.66,0-1.2.54-1.2,1.2s.54,1.2,1.2,1.2h18.04c1.33,0,2.4,1.08,2.4,2.4s-1.08,2.4-2.4,2.4v.07h0ZM75.03,103.54c-.22-.22-.35-.53-.35-.85s.13-.63.35-.85c.06-.05.12-.1.19-.15.07-.04.13-.08.2-.11.08-.03.15-.05.23-.07.16-.04.31-.04.47,0,.08.01.15.04.23.07.07.03.14.07.2.11.07.05.13.1.18.15.23.22.35.54.35.85s-.13.62-.35.85c-.22.23-.53.35-.85.35-.16,0-.31-.03-.46-.09-.14-.06-.28-.15-.39-.26Z"/>
  <path class="st0" d="M11.59,77.7l-2.03-1.98c1.28-.86,2.52-2.4,3.13-4.07.69-1.91.34-2.92-.52-3.23-2.61-.95-3.76,7.81-8.94,5.93-2.37-.86-3.65-3.49-2.21-7.45.64-1.75,1.71-3.39,2.99-4.39l2.09,1.89c-1.21,1.03-2.05,2.23-2.5,3.47-.69,1.91-.25,2.91.63,3.23,2.57.93,3.74-7.82,8.86-5.96,2.33.85,3.62,3.5,2.17,7.49-.8,2.21-2.27,4.2-3.67,5.09v-.02Z"/>
  <path class="st0" d="M22.51,54.02c.16,1.7-.41,3.95-1.55,6.05-2.2,4.04-4.98,5.25-7.23,4.03-1.41-.77-2.05-2.22-1.86-3.81-1.1.73-2.4.77-3.57.13-2.05-1.11-2.84-3.96-.67-7.96.93-1.71,2.19-3.2,3.42-4.07l1.85,2.09c-1.21.89-2.11,1.97-2.77,3.19-1.09,2.01-.92,3.29.03,3.8.89.49,1.76.14,2.5-1.22l1.93-3.56,2.38,1.29-2.03,3.74c-.81,1.49-.76,2.65.24,3.19.99.54,2.18-.07,3.41-2.32.83-1.53,1.3-3.42,1.14-4.9l2.78.3s0,.03,0,.03Z"/>
  <path class="st0" d="M12.5,44.86l2.06-2.75,9.64,7.21,4.46-5.96,2.24,1.68-6.51,8.71-11.88-8.89h0Z"/>
  <path class="st0" d="M25.34,39.93c-3.07-3.16-2.88-7.9.49-11.16,3.35-3.25,8.08-3.32,11.17-.14,3.08,3.18,2.86,7.91-.49,11.16-3.36,3.26-8.1,3.31-11.17.14ZM34.5,31.05c-1.96-2.02-4.73-2.02-6.64-.18-1.9,1.84-1.99,4.62-.03,6.64s4.73,2.02,6.64.18c1.9-1.84,1.99-4.62.03-6.64Z"/>
  <path class="st0" d="M40.67,16.86l5.86-3.32c4.22-2.39,8.56-1.49,10.77,2.42,2.22,3.91.76,8.09-3.46,10.49l-5.86,3.32-7.31-12.91ZM52.31,24.07c2.56-1.45,3.37-3.93,1.97-6.4-1.4-2.47-3.95-3.05-6.51-1.6l-2.73,1.55,4.53,8,2.73-1.55h0Z"/>
  <path class="st0" d="M73.31,16.7c-1.01,1.38-2.93,2.68-5.18,3.5-4.32,1.56-7.21.62-8.08-1.79-.55-1.51-.06-3.02,1.14-4.08-1.3-.18-2.3-1.01-2.76-2.27-.79-2.19.5-4.85,4.79-6.39,1.83-.66,3.76-.93,5.26-.78v2.8c-1.49-.14-2.88.07-4.2.55-2.15.78-2.87,1.85-2.5,2.86.35.96,1.23,1.27,2.68.74l3.81-1.38.92,2.55-4.01,1.45c-1.59.58-2.33,1.47-1.94,2.55.38,1.06,1.68,1.4,4.09.53,1.63-.59,3.24-1.69,4.11-2.91l1.88,2.07h0Z"/>
  <path class="st0" d="M89.13,15.49l.3,2.74-3.43.37-.3-2.74c-3.82-.29-6.74-2.98-7.15-6.79-.47-4.38,2.59-7.99,7.24-8.5,4.63-.5,8.42,2.35,8.89,6.75.42,3.83-1.88,7.07-5.55,8.17ZM91.23,7.7c-.3-2.8-2.49-4.5-5.12-4.22s-4.41,2.42-4.1,5.22c.24,2.23,1.6,3.75,3.5,4.16l-.33-3.03,3.16-.34.33,3.03c1.81-.79,2.81-2.56,2.57-4.82,0,0-.01,0-.01,0Z"/>
  <path class="st0" d="M111.15.99l-1.09,14.8-3.32-.25.13-1.8c-1.12,1.3-2.69,1.86-4.63,1.72-3.45-.25-5.39-2.67-5.09-6.79l.64-8.67,3.42.25-.63,8.56c-.18,2.43.98,3.66,2.84,3.8,1.97.15,3.49-.95,3.68-3.55l.61-8.33,3.42.25h.02Z"/>
  <path class="st0" d="M127.41,11.66l-2.03,7.86-3.32-.86.89-3.45-6.57-1.7-.89,3.45-3.28-.85,2.03-7.86c1.13-4.37,4.39-6.07,8.33-5.05s5.97,4.08,4.84,8.45h0ZM123.63,12.55l.53-2.05c.63-2.44-.38-3.95-2.35-4.46-1.99-.51-3.59.32-4.22,2.76l-.53,2.05,6.57,1.7Z"/>
  <path class="st0" d="M133.45,6.85l3.15,1.38-4.82,11.03,6.82,2.98-1.12,2.56-9.96-4.36,5.94-13.59h0Z"/>
  <path class="st0" d="M149.18,17.83l-4.78,8,2.2,1.31-1.41,2.36-7.37-4.4,1.41-2.36,2.22,1.33,4.78-8-2.22-1.33,1.41-2.36,7.37,4.4-1.41,2.36s-2.2-1.31-2.2-1.31Z"/>
  <path class="st0" d="M156.13,18.88l5.21,4.27c3.75,3.08,4.47,7.45,1.62,10.92s-7.28,3.62-11.03.54l-5.21-4.27,9.41-11.47h0ZM153.59,32.34c2.28,1.87,4.88,1.73,6.68-.46,1.8-2.2,1.43-4.78-.85-6.65l-2.42-1.99-5.83,7.11,2.42,1.99h0Z"/>
  <path class="st0" d="M173.99,45.83l-6.19,5.24-2.22-2.62,2.72-2.3-4.38-5.17-2.72,2.3-2.19-2.59,6.19-5.24c3.44-2.92,7.09-2.42,9.71.69s2.52,6.78-.92,9.69ZM170.39,44.38l1.62-1.37c1.92-1.63,1.97-3.44.65-5-1.33-1.57-3.11-1.81-5.04-.18l-1.62,1.37,4.38,5.17h0Z"/>
  <path class="st0" d="M181.92,45.46l3.35,5.85c2.41,4.21,1.53,8.55-2.37,10.78-3.9,2.23-8.09.8-10.5-3.41l-3.35-5.85,12.87-7.37ZM174.76,57.13c1.46,2.56,3.95,3.35,6.41,1.94s3.03-3.96,1.57-6.51l-1.56-2.72-7.98,4.57,1.56,2.72h0Z"/>
  <path class="st0" d="M182.23,78.11c-1.38-1.01-2.69-2.92-3.52-5.17-1.58-4.32-.65-7.21,1.75-8.09,1.51-.55,3.02-.07,4.09,1.12.18-1.31,1-2.31,2.26-2.77,2.19-.8,4.85.48,6.42,4.76.67,1.83.95,3.76.8,5.26h-2.8c.13-1.48-.08-2.87-.57-4.19-.79-2.15-1.86-2.86-2.88-2.49-.96.35-1.26,1.23-.73,2.68l1.39,3.8-2.55.93-1.47-4c-.58-1.59-1.48-2.32-2.56-1.93-1.05.39-1.39,1.68-.51,4.09.6,1.63,1.7,3.24,2.92,4.1l-2.06,1.88.02.02h0Z"/>
  <path class="st0" d="M1.01,215.07v-.48c0-5.23,1.95-7.44,4.33-7.44.71,0,1.1.09,1.64.35v2.21c-.54-.32-.97-.48-1.47-.48-1.32,0-2.34,1.41-2.34,5.34v.52c0,4.09,1.02,5.34,2.36,5.34.45,0,.95-.15,1.49-.48v2.12c-.54.3-1.1.43-1.84.43-2.36,0-4.17-2.23-4.17-7.44h0Z"/>
  <path class="st0" d="M8.84,216.93v-.54c0-3.68,1.51-5.69,3.48-5.69s3.48,2.01,3.48,5.69v.54c0,3.68-1.51,5.67-3.48,5.67s-3.48-1.99-3.48-5.67ZM13.73,216.95v-.61c0-2.49-.58-3.81-1.41-3.81s-1.43,1.32-1.43,3.81v.61c0,2.47.58,3.81,1.43,3.81s1.41-1.34,1.41-3.81Z"/>
  <path class="st0" d="M18.02,210.87h2.05v1.45c.48-.95,1.1-1.64,2.12-1.64s1.64.67,2.03,1.51c.45-.71,1.1-1.51,2.21-1.51,1.34,0,2.47,1.1,2.47,3.2v8.52h-2.05v-8.09c0-1.17-.41-1.8-1.12-1.8s-1.23.69-1.23,1.84v8.04h-2.05v-8.09c0-1.17-.41-1.8-1.12-1.8s-1.23.69-1.23,1.84v8.04h-2.05v-11.53l-.03.02h0Z"/>
  <path class="st0" d="M31.39,210.87h2.05v1.66c.39-.86,1.02-1.86,2.14-1.86,1.43,0,2.62,1.51,2.62,5.54v.84c0,3.98-1.19,5.54-2.62,5.54-1.12,0-1.73-.95-2.14-1.84v4.46h-2.05v-14.34ZM36.15,216.97v-.67c0-2.38-.52-3.68-1.32-3.68s-1.41,1.3-1.41,3.65v.71c0,2.36.61,3.65,1.41,3.65s1.32-1.32,1.32-3.68v.02h0Z"/>
  <path class="st0" d="M40.22,216.93v-.54c0-3.68,1.51-5.69,3.48-5.69s3.48,2.01,3.48,5.69v.54c0,3.68-1.51,5.67-3.48,5.67s-3.48-1.99-3.48-5.67ZM45.11,216.95v-.61c0-2.49-.58-3.81-1.41-3.81s-1.43,1.32-1.43,3.81v.61c0,2.47.58,3.81,1.43,3.81s1.41-1.34,1.41-3.81Z"/>
  <path class="st0" d="M48.99,222.05v-2.05c.84.45,1.6.74,2.23.74.71,0,1.19-.43,1.19-1.17,0-.58-.28-1.08-1.45-2.21-1.32-1.3-2.03-2.29-2.03-3.65v-.04c0-1.82,1.28-2.94,3.07-2.94.71,0,1.25.09,1.88.32v2.03c-.56-.28-1.17-.5-1.79-.5-.71,0-1.17.41-1.17,1.04,0,.58.26.97,1.51,2.18,1.47,1.45,1.97,2.38,1.97,3.68v.04c0,1.88-1.36,3.07-3.07,3.07-.8,0-1.6-.22-2.34-.54Z"/>
  <path class="st0" d="M56.32,207.13h2.12v2.25h-2.12v-2.25ZM56.36,210.87h2.05v11.53h-2.05v-11.53Z"/>
  <path class="st0" d="M61.79,224.34l1.25-1.95c-1.45-.58-2.42-2.38-2.42-5.47v-.54c0-3.78,1.6-5.67,3.59-5.67.69,0,1.06.09,1.54.32v2.12c-.43-.26-.84-.45-1.32-.45-.91,0-1.73,1.02-1.73,3.63v.63c0,2.62.82,3.63,1.8,3.63.39,0,.84-.22,1.25-.52v2.05c-.45.26-.82.39-1.32.43l-.82,2.47-1.82-.69h0Z"/>
  <path class="st0" d="M67.53,219.15v-.32c0-2.44,1.06-3.65,2.7-3.65.61,0,1.15.17,1.64.43v-.91c0-1.32-.61-2.03-1.77-2.03-.71,0-1.38.24-1.99.54v-1.97c.74-.32,1.58-.5,2.27-.5,1.15,0,1.95.3,2.57.91.63.63.97,1.6.97,2.9v7.85h-2.08v-1.36c-.45,1.02-1.1,1.56-2.01,1.56-1.36,0-2.31-1.36-2.31-3.44h.01ZM70.86,209.42c-.37-.24-.65-.37-.84-.37-.3,0-.43.24-.61.87l-1.19-.28c.28-1.51.69-2.1,1.45-2.1.43,0,.84.22,1.28.48.37.24.65.37.84.37.32,0,.43-.24.61-.89l1.19.3c-.28,1.49-.69,2.1-1.45,2.1-.43,0-.84-.24-1.28-.48ZM71.88,219.2v-2.08c-.32-.15-.76-.3-1.12-.3-.78,0-1.23.65-1.23,1.9v.26c0,1.28.43,1.88,1.1,1.88.71,0,1.25-.69,1.25-1.66h0Z"/>
  <path class="st0" d="M76.09,216.93v-.54c0-3.68,1.51-5.69,3.48-5.69s3.48,2.01,3.48,5.69v.54c0,3.68-1.51,5.67-3.48,5.67s-3.48-1.99-3.48-5.67ZM80.98,216.95v-.61c0-2.49-.58-3.81-1.41-3.81s-1.43,1.32-1.43,3.81v.61c0,2.47.58,3.81,1.43,3.81s1.41-1.34,1.41-3.81Z"/>
  <path class="st0" d="M89.41,215.07v-.48c0-5.23,1.95-7.44,4.33-7.44.71,0,1.1.09,1.64.35v2.21c-.54-.32-.97-.48-1.47-.48-1.32,0-2.34,1.41-2.34,5.34v.52c0,4.09,1.02,5.34,2.36,5.34.45,0,.95-.15,1.49-.48v2.12c-.54.3-1.1.43-1.84.43-2.36,0-4.17-2.23-4.17-7.44h0Z"/>
  <path class="st0" d="M97.54,210.87h2.05v1.51c.37-.99,1.02-1.71,2.1-1.64v2.44h-.04c-1.28,0-2.05.84-2.05,2.6v6.62h-2.05v-11.53h0Z"/>
  <path class="st0" d="M103.61,207.13h2.12v2.25h-2.12v-2.25ZM103.65,210.87h2.05v11.53h-2.05v-11.53Z"/>
  <path class="st0" d="M107.77,219.15v-.32c0-2.44,1.06-3.65,2.7-3.65.61,0,1.15.17,1.64.43v-.91c0-1.32-.61-2.03-1.77-2.03-.71,0-1.38.24-1.99.54v-1.97c.74-.32,1.58-.5,2.27-.5,1.15,0,1.95.3,2.57.91.63.63.97,1.6.97,2.9v7.85h-2.08v-1.36c-.45,1.02-1.1,1.56-2.01,1.56-1.36,0-2.31-1.36-2.31-3.44h.01ZM112.12,219.2v-2.08c-.32-.15-.76-.3-1.12-.3-.78,0-1.23.65-1.23,1.9v.26c0,1.28.43,1.88,1.1,1.88.71,0,1.25-.69,1.25-1.66h0Z"/>
  <path class="st0" d="M116.8,220.43v-7.85h-.82v-1.71h.82v-3.03h2.05v3.03h1.49v1.71h-1.49v7.2c0,.67.32.89.84.89.22,0,.45-.04.65-.13v1.69c-.32.17-.84.3-1.28.3-1.23,0-2.27-.43-2.27-2.1h0Z"/>
  <path class="st0" d="M122.33,207.13h2.12v2.25h-2.12v-2.25ZM122.37,210.87h2.05v11.53h-2.05v-11.53Z"/>
  <path class="st0" d="M126.38,210.87h2.05l1.51,8.22,1.51-8.22h2.01l-2.51,11.57h-2.05l-2.53-11.57h.01Z"/>
  <path class="st0" d="M134.89,219.15v-.32c0-2.44,1.06-3.65,2.7-3.65.61,0,1.15.17,1.64.43v-.91c0-1.32-.61-2.03-1.77-2.03-.71,0-1.38.24-1.99.54v-1.97c.74-.32,1.58-.5,2.27-.5,1.15,0,1.95.3,2.57.91.63.63.97,1.6.97,2.9v7.85h-2.08v-1.36c-.45,1.02-1.1,1.56-2.01,1.56-1.36,0-2.31-1.36-2.31-3.44h0ZM139.24,219.2v-2.08c-.32-.15-.76-.3-1.12-.3-.78,0-1.23.65-1.23,1.9v.26c0,1.28.43,1.88,1.1,1.88.71,0,1.25-.69,1.25-1.66h0Z"/>
  <path class="st0" d="M143.59,210.87h2.49v2.64h-2.49v-2.64ZM143.59,219.76h2.49v2.64h-2.49v-2.64Z"/>
  <path class="st0" d="M1.7,232.67h.9v14.38h-.9s0-14.38,0-14.38Z"/>
  <path class="st0" d="M5.27,241.85v-.39c0-3.43,1.33-5.36,2.81-5.36,1.09,0,1.83,1.01,2.26,2.24v-5.81h.86v14.52h-.86v-2.07c-.43,1.23-1.17,2.24-2.26,2.24-1.48,0-2.81-1.89-2.81-5.36h0ZM10.38,241.91v-.51c0-2.9-1.11-4.54-2.2-4.54s-2.05,1.66-2.05,4.62v.35c0,2.96.94,4.62,2.05,4.62s2.2-1.64,2.2-4.54h0Z"/>
  <path class="st0" d="M13.69,241.85v-.18c0-3.74,1.38-5.57,2.96-5.57s2.81,1.91,2.81,5.28v.64h-4.91c.04,2.92,1.23,4.35,2.69,4.35.66,0,1.17-.16,1.87-.64l.1.88c-.76.43-1.25.57-2.1.57-1.81,0-3.43-1.77-3.43-5.34h0ZM18.62,241.25c0-2.48-.82-4.35-1.97-4.35s-2.01,1.5-2.09,4.35h4.07-.01Z"/>
  <path class="st0" d="M21.88,232.53h.94v1.44h-.94v-1.44ZM21.92,236.26h.86v10.78h-.86v-10.78Z"/>
  <path class="st0" d="M25.09,243.9v-.16c0-1.99,1.03-3.45,2.83-3.45.74,0,1.31.18,1.81.41v-1.36c0-1.5-.68-2.38-2.05-2.38-.76,0-1.36.14-1.99.49v-.84c.6-.29,1.27-.47,2.03-.47.86,0,1.56.25,2.1.78.45.45.78,1.27.78,2.32v7.8h-.86v-1.56c-.43,1.07-1.13,1.75-2.18,1.75-1.46,0-2.46-1.42-2.46-3.33h-.01ZM29.74,243.68v-2.16c-.57-.27-1.13-.43-1.77-.43-1.33,0-2.01,1.11-2.01,2.61v.16c0,1.46.6,2.61,1.73,2.61,1.27,0,2.05-1.38,2.05-2.79h0Z"/>
  <path class="st0" d="M32.79,246.66v-.9c.74.39,1.5.62,2.2.62.9,0,1.64-.6,1.64-1.6v-.04c0-.76-.43-1.52-1.7-2.73-1.6-1.52-2.12-2.36-2.12-3.45v-.04c0-1.5,1.17-2.36,2.44-2.36.72,0,1.21.1,1.79.35v.9c-.62-.31-1.19-.45-1.83-.45-.88,0-1.54.58-1.54,1.52v.04c0,.78.41,1.38,1.7,2.65,1.52,1.5,2.12,2.38,2.12,3.53v.04c0,1.52-1.23,2.44-2.55,2.44-.84,0-1.46-.18-2.16-.51h.01Z"/>
  <path class="st0" d="M44.15,232.53h.94v1.44h-.94v-1.44ZM44.19,236.26h.86v10.78h-.86v-10.78Z"/>
  <path class="st0" d="M47.96,236.26h.86v1.58c.37-.9,1.03-1.75,2.22-1.75,1.46,0,2.46,1.21,2.46,3.41v7.54h-.86v-7.45c0-1.79-.64-2.75-1.77-2.75s-2.05,1.17-2.05,2.92v7.29h-.86v-10.78h0Z"/>
  <path class="st0" d="M56.5,245.24v-8.17h-1.03v-.8h1.03v-3.04h.86v3.04h1.75v.8h-1.75v8.05c0,.94.43,1.19,1.13,1.19.21,0,.49-.04.66-.1v.8c-.21.08-.51.12-.74.12-1.17,0-1.91-.51-1.91-1.89Z"/>
  <path class="st0" d="M60.7,241.85v-.18c0-3.74,1.38-5.57,2.96-5.57s2.81,1.91,2.81,5.28v.64h-4.91c.04,2.92,1.23,4.35,2.69,4.35.66,0,1.17-.16,1.87-.64l.1.88c-.76.43-1.25.57-2.1.57-1.81,0-3.43-1.77-3.43-5.34h0ZM65.63,241.25c0-2.48-.82-4.35-1.97-4.35s-2.01,1.5-2.09,4.35h4.07-.01Z"/>
  <path class="st0" d="M69.07,249.33v-.88c.78.31,1.7.51,2.4.51,1.46,0,2.22-.7,2.22-2.18v-2.55c-.43,1.23-1.17,2.24-2.26,2.24-1.44,0-2.81-1.79-2.81-5.09v-.18c0-3.27,1.38-5.09,2.81-5.09,1.09,0,1.83,1.01,2.26,2.24v-2.07h.86v10.47c0,.99-.27,1.73-.76,2.22-.53.53-1.33.8-2.36.8-.74,0-1.62-.16-2.36-.43h0ZM73.73,241.38v-.18c0-2.75-1.15-4.33-2.2-4.33s-2.05,1.54-2.05,4.35v.14c0,2.81.99,4.35,2.05,4.35s2.2-1.58,2.2-4.33h0Z"/>
  <path class="st0" d="M77.41,236.26h.86v1.58c.41-.99,1.25-1.79,2.53-1.7v.92h-.04c-1.36,0-2.49.86-2.49,2.75v7.23h-.86v-10.78Z"/>
  <path class="st0" d="M82.37,243.9v-.16c0-1.99,1.03-3.45,2.83-3.45.74,0,1.31.18,1.81.41v-1.36c0-1.5-.68-2.38-2.05-2.38-.76,0-1.36.14-1.99.49v-.84c.6-.29,1.27-.47,2.03-.47.86,0,1.56.25,2.1.78.45.45.78,1.27.78,2.32v7.8h-.86v-1.56c-.43,1.07-1.13,1.75-2.18,1.75-1.46,0-2.46-1.42-2.46-3.33h0ZM87.02,243.68v-2.16c-.57-.27-1.13-.43-1.77-.43-1.33,0-2.01,1.11-2.01,2.61v.16c0,1.46.6,2.61,1.73,2.61,1.27,0,2.05-1.38,2.05-2.79h0Z"/>
  <path class="st0" d="M90.7,232.53h.94v1.44h-.94v-1.44ZM90.74,236.26h.86v10.78h-.86v-10.78Z"/>
  <path class="st0" d="M93.88,246.66v-.9c.74.39,1.5.62,2.2.62.9,0,1.64-.6,1.64-1.6v-.04c0-.76-.43-1.52-1.7-2.73-1.6-1.52-2.12-2.36-2.12-3.45v-.04c0-1.5,1.17-2.36,2.44-2.36.72,0,1.21.1,1.79.35v.9c-.62-.31-1.19-.45-1.83-.45-.88,0-1.54.58-1.54,1.52v.04c0,.78.41,1.38,1.7,2.65,1.52,1.5,2.12,2.38,2.12,3.53v.04c0,1.52-1.23,2.44-2.55,2.44-.84,0-1.46-.18-2.16-.51h.01Z"/>
  <path class="st0" d="M100.44,248.65c.8-.35,1.11-.82,1.05-1.6h-.55v-1.68h1.27v1.46c0,1.27-.39,1.81-1.52,2.34l-.25-.51h0Z"/>
  <path class="st0" d="M109.61,237.07h-1.11v-.8h1.11v-1.25c0-.9.23-1.58.64-1.99.35-.35.84-.53,1.46-.53.16,0,.47.04.64.08v.84c-.16-.04-.49-.08-.62-.08-.82,0-1.25.53-1.25,1.7v1.23h1.77v.8h-1.77v9.98h-.86v-9.98h0Z"/>
  <path class="st0" d="M113.77,243.9v-.16c0-1.99,1.03-3.45,2.83-3.45.74,0,1.31.18,1.81.41v-1.36c0-1.5-.68-2.38-2.05-2.38-.76,0-1.36.14-1.99.49v-.84c.6-.29,1.27-.47,2.03-.47.86,0,1.56.25,2.1.78.45.45.78,1.27.78,2.32v7.8h-.86v-1.56c-.43,1.07-1.13,1.75-2.18,1.75-1.46,0-2.46-1.42-2.46-3.33h0ZM118.42,243.68v-2.16c-.57-.27-1.13-.43-1.77-.43-1.33,0-2.01,1.11-2.01,2.61v.16c0,1.46.6,2.61,1.73,2.61,1.27,0,2.05-1.38,2.05-2.79h0Z"/>
  <path class="st0" d="M122.08,236.26h.86v1.58c.41-.99,1.25-1.79,2.53-1.7v.92h-.04c-1.36,0-2.49.86-2.49,2.75v7.23h-.86v-10.78Z"/>
  <path class="st0" d="M127.63,232.53h.94v1.44h-.94s0-1.44,0-1.44ZM127.67,236.26h.86v10.78h-.86v-10.78Z"/>
  <path class="st0" d="M131.43,236.26h.86v1.58c.37-.9,1.03-1.75,2.22-1.75,1.46,0,2.46,1.21,2.46,3.41v7.54h-.86v-7.45c0-1.79-.64-2.75-1.77-2.75s-2.05,1.17-2.05,2.92v7.29h-.86v-10.78h0Z"/>
  <path class="st0" d="M139.78,232.53h.86v5.32c.37-.9,1.03-1.75,2.22-1.75,1.46,0,2.46,1.21,2.46,3.41v7.54h-.86v-7.45c0-1.79-.64-2.75-1.77-2.75s-2.05,1.17-2.05,2.92v7.29h-.86v-14.52h0Z"/>
  <path class="st0" d="M147.55,243.9v-.16c0-1.99,1.03-3.45,2.83-3.45.74,0,1.31.18,1.81.41v-1.36c0-1.5-.68-2.38-2.05-2.38-.76,0-1.36.14-1.99.49v-.84c.6-.29,1.27-.47,2.03-.47.86,0,1.56.25,2.1.78.45.45.78,1.27.78,2.32v7.8h-.86v-1.56c-.43,1.07-1.13,1.75-2.18,1.75-1.46,0-2.46-1.42-2.46-3.33h0ZM152.19,243.68v-2.16c-.57-.27-1.13-.43-1.77-.43-1.33,0-2.01,1.11-2.01,2.61v.16c0,1.46.6,2.61,1.73,2.61,1.27,0,2.05-1.38,2.05-2.79h0Z"/>
  <path class="st0" d="M155.25,246.66v-.9c.74.39,1.5.62,2.2.62.9,0,1.64-.6,1.64-1.6v-.04c0-.76-.43-1.52-1.7-2.73-1.6-1.52-2.12-2.36-2.12-3.45v-.04c0-1.5,1.17-2.36,2.44-2.36.72,0,1.21.1,1.79.35v.9c-.62-.31-1.19-.45-1.83-.45-.88,0-1.54.58-1.54,1.52v.04c0,.78.41,1.38,1.7,2.65,1.52,1.5,2.12,2.38,2.12,3.53v.04c0,1.52-1.23,2.44-2.55,2.44-.84,0-1.46-.18-2.16-.51h.01Z"/>
  <path class="st0" d="M166.14,241.85v-.39c0-3.43,1.33-5.36,2.81-5.36,1.09,0,1.83,1.01,2.26,2.24v-5.81h.86v14.52h-.86v-2.07c-.43,1.23-1.17,2.24-2.26,2.24-1.48,0-2.81-1.89-2.81-5.36h0ZM171.25,241.91v-.51c0-2.9-1.11-4.54-2.2-4.54s-2.05,1.66-2.05,4.62v.35c0,2.96.94,4.62,2.05,4.62s2.2-1.64,2.2-4.54h0Z"/>
  <path class="st0" d="M174.57,241.85v-.18c0-3.74,1.38-5.57,2.96-5.57s2.81,1.91,2.81,5.28v.64h-4.91c.04,2.92,1.23,4.35,2.69,4.35.66,0,1.17-.16,1.87-.64l.1.88c-.76.43-1.25.57-2.1.57-1.81,0-3.43-1.77-3.43-5.34h0ZM179.5,241.25c0-2.48-.82-4.35-1.97-4.35s-2.01,1.5-2.09,4.35h4.07-.01Z"/>
  <path class="st0" d="M186.69,241.79v-.21c0-3.74,1.64-5.46,3.29-5.46.53,0,.99.16,1.29.37v.94c-.37-.29-.8-.49-1.31-.49-1.11,0-2.4,1.42-2.4,4.6v.29c0,3.24,1.25,4.54,2.49,4.54.45,0,.86-.18,1.23-.49v.9c-.35.25-.76.41-1.29.41-1.68,0-3.29-1.64-3.29-5.4h-.01Z"/>
  <path class="st0" d="M192.86,241.75v-.18c0-3.39,1.46-5.46,3.08-5.46s3.04,2.07,3.04,5.46v.18c0,3.39-1.44,5.46-3.06,5.46s-3.06-2.07-3.06-5.46ZM198.12,241.75v-.18c0-2.83-.99-4.66-2.2-4.66s-2.2,1.83-2.2,4.66v.18c0,2.83.99,4.66,2.2,4.66s2.2-1.83,2.2-4.66Z"/>
  <path class="st0" d="M201.45,236.26h.86v1.58c.37-.9,1.03-1.75,2.22-1.75,1.46,0,2.46,1.21,2.46,3.41v7.54h-.86v-7.45c0-1.79-.64-2.75-1.77-2.75s-2.05,1.17-2.05,2.92v7.29h-.86v-10.78h0Z"/>
  <path class="st0" d="M209.4,241.79v-.21c0-3.74,1.64-5.46,3.29-5.46.53,0,.99.16,1.29.37v.94c-.37-.29-.8-.49-1.31-.49-1.11,0-2.4,1.42-2.4,4.6v.29c0,3.24,1.25,4.54,2.49,4.54.45,0,.86-.18,1.23-.49v.9c-.35.25-.76.41-1.29.41-1.68,0-3.29-1.64-3.29-5.4h-.01Z"/>
  <path class="st0" d="M215.6,241.85v-.18c0-3.74,1.38-5.57,2.96-5.57s2.81,1.91,2.81,5.28v.64h-4.91c.04,2.92,1.23,4.35,2.69,4.35.66,0,1.17-.16,1.87-.64l.1.88c-.76.43-1.25.57-2.1.57-1.81,0-3.43-1.77-3.43-5.34h0ZM220.53,241.25c0-2.48-.82-4.35-1.97-4.35s-2.01,1.5-2.09,4.35h4.07-.01Z"/>
  <path class="st0" d="M223.79,232.53h.94v1.44h-.94v-1.44ZM223.83,236.26h.86v10.78h-.86v-10.78Z"/>
  <path class="st0" d="M227.93,245.24v-8.17h-1.03v-.8h1.03v-3.04h.86v3.04h1.75v.8h-1.75v8.05c0,.94.43,1.19,1.13,1.19.21,0,.49-.04.66-.1v.8c-.21.08-.51.12-.74.12-1.17,0-1.91-.51-1.91-1.89Z"/>
  <path class="st0" d="M232.13,241.75v-.18c0-3.39,1.46-5.46,3.08-5.46s3.04,2.07,3.04,5.46v.18c0,3.39-1.44,5.46-3.06,5.46s-3.06-2.07-3.06-5.46ZM237.38,241.75v-.18c0-2.83-.99-4.66-2.2-4.66s-2.2,1.83-2.2,4.66v.18c0,2.83.99,4.66,2.2,4.66s2.2-1.83,2.2-4.66Z"/>
  <path class="st0" d="M240.13,246.66v-.9c.74.39,1.5.62,2.2.62.9,0,1.64-.6,1.64-1.6v-.04c0-.76-.43-1.52-1.7-2.73-1.6-1.52-2.12-2.36-2.12-3.45v-.04c0-1.5,1.17-2.36,2.44-2.36.72,0,1.21.1,1.79.35v.9c-.62-.31-1.19-.45-1.83-.45-.88,0-1.54.58-1.54,1.52v.04c0,.78.41,1.38,1.7,2.65,1.52,1.5,2.12,2.38,2.12,3.53v.04c0,1.52-1.23,2.44-2.55,2.44-.84,0-1.46-.18-2.16-.51h.01Z"/>
  <path class="st0" d="M252.27,244.97v2.07h-.86v-14.52h.86v5.81c.43-1.23,1.17-2.24,2.26-2.24,1.48,0,2.81,1.89,2.81,5.36v.39c0,3.43-1.33,5.36-2.81,5.36-1.09,0-1.83-1.01-2.26-2.24h0ZM256.48,241.83v-.35c0-2.96-.94-4.62-2.05-4.62s-2.2,1.64-2.2,4.54v.51c0,2.9,1.11,4.54,2.2,4.54s2.05-1.66,2.05-4.62h0Z"/>
  <path class="st0" d="M259.46,241.85v-.18c0-3.74,1.38-5.57,2.96-5.57s2.81,1.91,2.81,5.28v.64h-4.91c.04,2.92,1.23,4.35,2.69,4.35.66,0,1.17-.16,1.87-.64l.1.88c-.76.43-1.25.57-2.1.57-1.81,0-3.43-1.77-3.43-5.34h.01ZM264.39,241.25c0-2.48-.82-4.35-1.97-4.35s-2.01,1.5-2.1,4.35h4.07Z"/>
  <path class="st0" d="M267.67,236.26h.86v1.58c.37-.9,1.01-1.75,2.16-1.75s1.79.82,2.12,1.83c.39-.88,1.09-1.83,2.38-1.83,1.48,0,2.46,1.17,2.46,3.37v7.58h-.86v-7.5c0-1.79-.64-2.71-1.7-2.71s-1.99,1.13-1.99,2.87v7.33h-.86v-7.5c0-1.79-.64-2.71-1.7-2.71s-1.99,1.13-1.99,2.87v7.33h-.86v-10.78l-.02.02h0Z"/>
  <path class="st0" d="M284.72,236.26h.86v1.58c.41-.99,1.25-1.79,2.53-1.7v.92h-.04c-1.36,0-2.49.86-2.49,2.75v7.23h-.86v-10.78Z"/>
  <path class="st0" d="M289.58,241.85v-.18c0-3.74,1.38-5.57,2.96-5.57s2.81,1.91,2.81,5.28v.64h-4.91c.04,2.92,1.23,4.35,2.69,4.35.66,0,1.17-.16,1.87-.64l.1.88c-.76.43-1.25.57-2.1.57-1.81,0-3.43-1.77-3.43-5.34h.01ZM294.5,241.25c0-2.48-.82-4.35-1.97-4.35s-2.01,1.5-2.09,4.35h4.07-.01Z"/>
  <path class="st0" d="M298.1,237.07h-1.11v-.8h1.11v-1.25c0-.9.23-1.58.64-1.99.35-.35.84-.53,1.46-.53.16,0,.47.04.64.08v.84c-.16-.04-.49-.08-.62-.08-.82,0-1.25.53-1.25,1.7v1.23h1.77v.8h-1.77v9.98h-.86v-9.98h-.01ZM302.18,232.53h.94v1.44h-.94v-1.44ZM302.22,236.26h.86v10.78h-.86v-10.78Z"/>
  <path class="st0" d="M306.06,236.26h.86v1.58c.37-.9,1.03-1.75,2.22-1.75,1.46,0,2.46,1.21,2.46,3.41v7.54h-.86v-7.45c0-1.79-.64-2.75-1.77-2.75s-2.05,1.17-2.05,2.92v7.29h-.86v-10.78h0Z"/>
  <path class="st0" d="M313.83,243.9v-.16c0-1.99,1.03-3.45,2.83-3.45.74,0,1.31.18,1.81.41v-1.36c0-1.5-.68-2.38-2.05-2.38-.76,0-1.36.14-1.99.49v-.84c.6-.29,1.27-.47,2.03-.47.86,0,1.56.25,2.1.78.45.45.78,1.27.78,2.32v7.8h-.86v-1.56c-.43,1.07-1.13,1.75-2.18,1.75-1.46,0-2.46-1.42-2.46-3.33h-.01ZM318.47,243.68v-2.16c-.57-.27-1.13-.43-1.77-.43-1.33,0-2.01,1.11-2.01,2.61v.16c0,1.46.6,2.61,1.73,2.61,1.27,0,2.05-1.38,2.05-2.79h0Z"/>
  <path class="st0" d="M321.78,241.85v-.39c0-3.43,1.33-5.36,2.81-5.36,1.09,0,1.83,1.01,2.26,2.24v-5.81h.86v14.52h-.86v-2.07c-.43,1.23-1.17,2.24-2.26,2.24-1.48,0-2.81-1.89-2.81-5.36h0ZM326.89,241.91v-.51c0-2.9-1.11-4.54-2.2-4.54s-2.05,1.66-2.05,4.62v.35c0,2.96.94,4.62,2.05,4.62s2.2-1.64,2.2-4.54h0Z"/>
  <path class="st0" d="M330.18,241.75v-.18c0-3.39,1.46-5.46,3.08-5.46s3.04,2.07,3.04,5.46v.18c0,3.39-1.44,5.46-3.06,5.46s-3.06-2.07-3.06-5.46ZM335.44,241.75v-.18c0-2.83-.99-4.66-2.2-4.66s-2.2,1.83-2.2,4.66v.18c0,2.83.99,4.66,2.2,4.66s2.2-1.83,2.2-4.66Z"/>
  <path class="st0" d="M338.19,246.66v-.9c.74.39,1.5.62,2.2.62.9,0,1.64-.6,1.64-1.6v-.04c0-.76-.43-1.52-1.7-2.73-1.6-1.52-2.12-2.36-2.12-3.45v-.04c0-1.5,1.17-2.36,2.44-2.36.72,0,1.21.1,1.79.35v.9c-.62-.31-1.19-.45-1.83-.45-.88,0-1.54.58-1.54,1.52v.04c0,.78.41,1.38,1.7,2.65,1.52,1.5,2.12,2.38,2.12,3.53v.04c0,1.52-1.23,2.44-2.55,2.44-.84,0-1.46-.18-2.16-.51h0Z"/>
  <path class="st0" d="M344.75,248.65c.8-.35,1.11-.82,1.05-1.6h-.55v-1.68h1.27v1.46c0,1.27-.39,1.81-1.52,2.34l-.25-.51h0Z"/>
  <path class="st0" d="M353.49,236.26h.86v1.58c.37-.9,1.01-1.75,2.16-1.75s1.79.82,2.12,1.83c.39-.88,1.09-1.83,2.38-1.83,1.48,0,2.46,1.17,2.46,3.37v7.58h-.86v-7.5c0-1.79-.64-2.71-1.7-2.71s-1.99,1.13-1.99,2.87v7.33h-.86v-7.5c0-1.79-.64-2.71-1.7-2.71s-1.99,1.13-1.99,2.87v7.33h-.86v-10.78l-.02.02h0Z"/>
  <path class="st0" d="M365.7,243.9v-.16c0-1.99,1.03-3.45,2.83-3.45.74,0,1.31.18,1.81.41v-1.36c0-1.5-.68-2.38-2.05-2.38-.76,0-1.36.14-1.99.49v-.84c.6-.29,1.27-.47,2.03-.47.86,0,1.56.25,2.1.78.45.45.78,1.27.78,2.32v7.8h-.86v-1.56c-.43,1.07-1.13,1.75-2.18,1.75-1.46,0-2.46-1.42-2.46-3.33h-.01ZM370.34,243.68v-2.16c-.57-.27-1.13-.43-1.77-.43-1.33,0-2.01,1.11-2.01,2.61v.16c0,1.46.6,2.61,1.73,2.61,1.27,0,2.05-1.38,2.05-2.79h0Z"/>
  <path class="st0" d="M374.01,236.26h.86v1.58c.37-.9,1.03-1.75,2.22-1.75,1.46,0,2.46,1.21,2.46,3.41v7.54h-.86v-7.45c0-1.79-.64-2.75-1.77-2.75s-2.05,1.17-2.05,2.92v7.29h-.86v-10.78h0Z"/>
  <path class="st0" d="M382.55,245.24v-8.17h-1.03v-.8h1.03v-3.04h.86v3.04h1.75v.8h-1.75v8.05c0,.94.43,1.19,1.13,1.19.21,0,.49-.04.66-.1v.8c-.21.08-.51.12-.74.12-1.17,0-1.91-.51-1.91-1.89Z"/>
  <path class="st0" d="M386.76,241.85v-.18c0-3.74,1.38-5.57,2.96-5.57s2.81,1.91,2.81,5.28v.64h-4.91c.04,2.92,1.23,4.35,2.69,4.35.66,0,1.17-.16,1.87-.64l.1.88c-.76.43-1.25.57-2.1.57-1.81,0-3.43-1.77-3.43-5.34h.01ZM391.68,241.25c0-2.48-.82-4.35-1.97-4.35s-2.01,1.5-2.1,4.35h4.07Z"/>
  <path class="st0" d="M394.94,232.53h.94v1.44h-.94v-1.44ZM394.98,236.26h.86v10.78h-.86v-10.78Z"/>
  <path class="st0" d="M398.79,249.33v-.88c.78.31,1.7.51,2.4.51,1.46,0,2.22-.7,2.22-2.18v-2.55c-.43,1.23-1.17,2.24-2.26,2.24-1.44,0-2.81-1.79-2.81-5.09v-.18c0-3.27,1.38-5.09,2.81-5.09,1.09,0,1.83,1.01,2.26,2.24v-2.07h.86v10.47c0,.99-.27,1.73-.76,2.22-.53.53-1.33.8-2.36.8-.74,0-1.62-.16-2.36-.43h0ZM403.45,241.38v-.18c0-2.75-1.15-4.33-2.2-4.33s-2.05,1.54-2.05,4.35v.14c0,2.81.99,4.35,2.05,4.35s2.2-1.58,2.2-4.33h0Z"/>
  <path class="st0" d="M406.54,243.9v-.16c0-1.99,1.03-3.45,2.83-3.45.74,0,1.31.18,1.81.41v-1.36c0-1.5-.68-2.38-2.05-2.38-.76,0-1.36.14-1.99.49v-.84c.6-.29,1.27-.47,2.03-.47.86,0,1.56.25,2.1.78.45.45.78,1.27.78,2.32v7.8h-.86v-1.56c-.43,1.07-1.13,1.75-2.18,1.75-1.46,0-2.46-1.42-2.46-3.33h-.01ZM411.18,243.68v-2.16c-.57-.27-1.13-.43-1.77-.43-1.33,0-2.01,1.11-2.01,2.61v.16c0,1.46.6,2.61,1.73,2.61,1.27,0,2.05-1.38,2.05-2.79h0Z"/>
  <path class="st0" d="M418.72,241.85v-.39c0-3.43,1.33-5.36,2.81-5.36,1.09,0,1.83,1.01,2.26,2.24v-5.81h.86v14.52h-.86v-2.07c-.43,1.23-1.17,2.24-2.26,2.24-1.48,0-2.81-1.89-2.81-5.36h0ZM423.83,241.91v-.51c0-2.9-1.11-4.54-2.2-4.54s-2.05,1.66-2.05,4.62v.35c0,2.96.94,4.62,2.05,4.62s2.2-1.64,2.2-4.54h0Z"/>
  <path class="st0" d="M427.15,241.85v-.18c0-3.74,1.38-5.57,2.96-5.57s2.81,1.91,2.81,5.28v.64h-4.91c.04,2.92,1.23,4.35,2.69,4.35.66,0,1.17-.16,1.87-.64l.1.88c-.76.43-1.25.57-2.1.57-1.81,0-3.43-1.77-3.43-5.34h.01ZM432.08,241.25c0-2.48-.82-4.35-1.97-4.35s-2.01,1.5-2.09,4.35h4.07-.01Z"/>
  <path class="st0" d="M439.7,236.26h.86v1.58c.41-.99,1.25-1.79,2.53-1.7v.92h-.04c-1.36,0-2.49.86-2.49,2.75v7.23h-.86v-10.78Z"/>
  <path class="st0" d="M444.55,241.85v-.18c0-3.74,1.38-5.57,2.96-5.57s2.81,1.91,2.81,5.28v.64h-4.91c.04,2.92,1.23,4.35,2.69,4.35.66,0,1.17-.16,1.87-.64l.1.88c-.76.43-1.25.57-2.1.57-1.81,0-3.43-1.77-3.43-5.34h.01ZM449.48,241.25c0-2.48-.82-4.35-1.97-4.35s-2.01,1.5-2.1,4.35h4.07Z"/>
  <path class="st0" d="M453.02,237.07h-1.11v-.8h1.11v-1.25c0-.9.23-1.58.64-1.99.35-.35.84-.53,1.46-.53.16,0,.47.04.64.08v.84c-.16-.04-.49-.08-.62-.08-.82,0-1.25.53-1.25,1.7v1.23h1.77v.8h-1.77v9.98h-.86v-9.98h-.01Z"/>
  <path class="st0" d="M457.07,241.85v-.18c0-3.74,1.38-5.57,2.96-5.57s2.81,1.91,2.81,5.28v.64h-4.91c.04,2.92,1.23,4.35,2.69,4.35.66,0,1.17-.16,1.87-.64l.1.88c-.76.43-1.25.57-2.1.57-1.81,0-3.43-1.77-3.43-5.34h.01ZM462,241.25c0-2.48-.82-4.35-1.97-4.35s-2.01,1.5-2.1,4.35h4.07Z"/>
  <path class="st0" d="M465.28,236.26h.86v1.58c.41-.99,1.25-1.79,2.53-1.7v.92h-.04c-1.36,0-2.49.86-2.49,2.75v7.23h-.86v-10.78Z"/>
  <path class="st0" d="M470.13,241.85v-.18c0-3.74,1.38-5.57,2.96-5.57s2.81,1.91,2.81,5.28v.64h-4.91c.04,2.92,1.23,4.35,2.69,4.35.66,0,1.17-.16,1.87-.64l.1.88c-.76.43-1.25.57-2.1.57-1.81,0-3.43-1.77-3.43-5.34h.01ZM475.06,241.25c0-2.48-.82-4.35-1.97-4.35s-2.01,1.5-2.09,4.35h4.07-.01ZM472.74,232.61h.7l1.38,2.51h-.76l-.99-1.54-.99,1.54h-.72l1.38-2.51h0Z"/>
  <path class="st0" d="M478.35,236.26h.86v1.58c.37-.9,1.03-1.75,2.22-1.75,1.46,0,2.46,1.21,2.46,3.41v7.54h-.86v-7.45c0-1.79-.64-2.75-1.77-2.75s-2.05,1.17-2.05,2.92v7.29h-.86v-10.78h0Z"/>
  <path class="st0" d="M486.29,241.79v-.21c0-3.74,1.64-5.46,3.29-5.46.53,0,.99.16,1.29.37v.94c-.37-.29-.8-.49-1.31-.49-1.11,0-2.4,1.42-2.4,4.6v.29c0,3.24,1.25,4.54,2.49,4.54.45,0,.86-.18,1.23-.49v.9c-.35.25-.76.41-1.29.41-1.68,0-3.29-1.64-3.29-5.4h-.01Z"/>
  <path class="st0" d="M493.13,232.53h.94v1.44h-.94v-1.44ZM493.17,236.26h.86v10.78h-.86v-10.78Z"/>
  <path class="st0" d="M496.34,243.9v-.16c0-1.99,1.03-3.45,2.83-3.45.74,0,1.31.18,1.81.41v-1.36c0-1.5-.68-2.38-2.05-2.38-.76,0-1.36.14-1.99.49v-.84c.6-.29,1.27-.47,2.03-.47.86,0,1.56.25,2.1.78.45.45.78,1.27.78,2.32v7.8h-.86v-1.56c-.43,1.07-1.13,1.75-2.18,1.75-1.46,0-2.46-1.42-2.46-3.33h-.01ZM500.98,243.68v-2.16c-.57-.27-1.13-.43-1.77-.43-1.33,0-2.01,1.11-2.01,2.61v.16c0,1.46.6,2.61,1.73,2.61,1.27,0,2.05-1.38,2.05-2.79h0Z"/>
  <path class="st0" d="M504.03,246.66v-.9c.74.39,1.5.62,2.2.62.9,0,1.64-.6,1.64-1.6v-.04c0-.76-.43-1.52-1.7-2.73-1.6-1.52-2.12-2.36-2.12-3.45v-.04c0-1.5,1.17-2.36,2.44-2.36.72,0,1.21.1,1.79.35v.9c-.62-.31-1.19-.45-1.83-.45-.88,0-1.54.58-1.54,1.52v.04c0,.78.41,1.38,1.7,2.65,1.52,1.5,2.12,2.38,2.12,3.53v.04c0,1.52-1.23,2.44-2.55,2.44-.84,0-1.46-.18-2.16-.51h0Z"/>
  <path class="st0" d="M514.88,241.79v-.21c0-3.74,1.64-5.46,3.29-5.46.53,0,.99.16,1.29.37v.94c-.37-.29-.8-.49-1.31-.49-1.11,0-2.4,1.42-2.4,4.6v.29c0,3.24,1.25,4.54,2.49,4.54.45,0,.86-.18,1.23-.49v.9c-.35.25-.76.41-1.29.41-1.68,0-3.29-1.64-3.29-5.4h0Z"/>
  <path class="st0" d="M521.66,243.8v-7.54h.86v7.45c0,1.79.64,2.75,1.77,2.75s2.05-1.17,2.05-2.92v-7.29h.86v10.78h-.86v-1.58c-.37.9-1.03,1.75-2.22,1.75-1.46,0-2.46-1.21-2.46-3.41h0Z"/>
  <path class="st0" d="M530.12,232.53h.86v14.52h-.86v-14.52Z"/>
  <path class="st0" d="M534.22,245.24v-8.17h-1.03v-.8h1.03v-3.04h.86v3.04h1.75v.8h-1.75v8.05c0,.94.43,1.19,1.13,1.19.21,0,.49-.04.66-.1v.8c-.21.08-.51.12-.74.12-1.17,0-1.91-.51-1.91-1.89Z"/>
  <path class="st0" d="M539.05,243.8v-7.54h.86v7.45c0,1.79.64,2.75,1.77,2.75s2.05-1.17,2.05-2.92v-7.29h.86v10.78h-.86v-1.58c-.37.9-1.03,1.75-2.22,1.75-1.46,0-2.46-1.21-2.46-3.41h0Z"/>
  <path class="st0" d="M547.46,236.26h.86v1.58c.41-.99,1.25-1.79,2.53-1.7v.92h-.04c-1.36,0-2.49.86-2.49,2.75v7.23h-.86v-10.78h0Z"/>
  <path class="st0" d="M552.42,243.9v-.16c0-1.99,1.03-3.45,2.83-3.45.74,0,1.31.18,1.81.41v-1.36c0-1.5-.68-2.38-2.05-2.38-.76,0-1.36.14-1.99.49v-.84c.6-.29,1.27-.47,2.03-.47.86,0,1.56.25,2.1.78.45.45.78,1.27.78,2.32v7.8h-.86v-1.56c-.43,1.07-1.13,1.75-2.18,1.75-1.46,0-2.46-1.42-2.46-3.33h-.01ZM557.06,243.68v-2.16c-.57-.27-1.13-.43-1.77-.43-1.33,0-2.01,1.11-2.01,2.61v.16c0,1.46.6,2.61,1.73,2.61,1.27,0,2.05-1.38,2.05-2.79h0Z"/>
  <path class="st0" d="M560.75,232.53h.94v1.44h-.94v-1.44ZM560.79,236.26h.86v10.78h-.86v-10.78Z"/>
  <path class="st0" d="M563.93,246.66v-.9c.74.39,1.5.62,2.2.62.9,0,1.64-.6,1.64-1.6v-.04c0-.76-.43-1.52-1.7-2.73-1.6-1.52-2.12-2.36-2.12-3.45v-.04c0-1.5,1.17-2.36,2.44-2.36.72,0,1.21.1,1.79.35v.9c-.62-.31-1.19-.45-1.83-.45-.88,0-1.54.58-1.54,1.52v.04c0,.78.41,1.38,1.7,2.65,1.52,1.5,2.12,2.38,2.12,3.53v.04c0,1.52-1.23,2.44-2.55,2.44-.84,0-1.46-.18-2.16-.51h0Z"/>
  <path class="st0" d="M570.49,248.65c.8-.35,1.11-.82,1.05-1.6h-.55v-1.68h1.27v1.46c0,1.27-.39,1.81-1.52,2.34l-.25-.51h0Z"/>
  <path class="st0" d="M578.71,243.9v-.16c0-1.99,1.03-3.45,2.83-3.45.74,0,1.31.18,1.81.41v-1.36c0-1.5-.68-2.38-2.05-2.38-.76,0-1.36.14-1.99.49v-.84c.6-.29,1.27-.47,2.03-.47.86,0,1.56.25,2.1.78.45.45.78,1.27.78,2.32v7.8h-.86v-1.56c-.43,1.07-1.13,1.75-2.18,1.75-1.46,0-2.46-1.42-2.46-3.33h-.01ZM583.35,243.68v-2.16c-.57-.27-1.13-.43-1.77-.43-1.33,0-2.01,1.11-2.01,2.61v.16c0,1.46.6,2.61,1.73,2.61,1.27,0,2.05-1.38,2.05-2.79h0Z"/>
  <path class="st0" d="M588.03,248.92l1.07-1.85c-1.36-.45-2.49-2.12-2.49-5.28v-.21c0-3.74,1.64-5.46,3.29-5.46.53,0,.99.16,1.29.37v.94c-.37-.29-.8-.49-1.31-.49-1.11,0-2.4,1.42-2.4,4.6v.29c0,3.24,1.25,4.54,2.49,4.54.45,0,.86-.18,1.23-.49v.9c-.35.25-.76.41-1.29.41h-.14l-.78,2.12-.94-.39h-.02,0Z"/>
  <path class="st0" d="M593.39,243.8v-7.54h.86v7.45c0,1.79.64,2.75,1.77,2.75s2.05-1.17,2.05-2.92v-7.29h.86v10.78h-.86v-1.58c-.37.9-1.03,1.75-2.22,1.75-1.46,0-2.46-1.21-2.46-3.41h0ZM597.1,232.75l.97.51-1.68,2.05h-.6l1.31-2.57h0Z"/>
  <path class="st0" d="M601.4,241.79v-.21c0-3.74,1.64-5.46,3.29-5.46.53,0,.99.16,1.29.37v.94c-.37-.29-.8-.49-1.31-.49-1.11,0-2.4,1.42-2.4,4.6v.29c0,3.24,1.25,4.54,2.49,4.54.45,0,.86-.18,1.23-.49v.9c-.35.25-.76.41-1.29.41-1.68,0-3.29-1.64-3.29-5.4h0Z"/>
  <path class="st0" d="M607.81,243.9v-.16c0-1.99,1.03-3.45,2.83-3.45.74,0,1.31.18,1.81.41v-1.36c0-1.5-.68-2.38-2.05-2.38-.76,0-1.36.14-1.99.49v-.84c.6-.29,1.27-.47,2.03-.47.86,0,1.56.25,2.1.78.45.45.78,1.27.78,2.32v7.8h-.86v-1.56c-.43,1.07-1.13,1.75-2.18,1.75-1.46,0-2.46-1.42-2.46-3.33h-.01ZM612.45,243.68v-2.16c-.57-.27-1.13-.43-1.77-.43-1.33,0-2.01,1.11-2.01,2.61v.16c0,1.46.6,2.61,1.73,2.61,1.27,0,2.05-1.38,2.05-2.79h0Z"/>
  <path class="st0" d="M616.12,236.26h.86v1.58c.41-.99,1.25-1.79,2.53-1.7v.92h-.04c-1.36,0-2.49.86-2.49,2.75v7.23h-.86v-10.78h0Z"/>
  <path class="st0" d="M625.9,236.26h.86v1.58c.37-.9,1.01-1.75,2.16-1.75s1.79.82,2.12,1.83c.39-.88,1.09-1.83,2.38-1.83,1.48,0,2.46,1.17,2.46,3.37v7.58h-.86v-7.5c0-1.79-.64-2.71-1.7-2.71s-1.99,1.13-1.99,2.87v7.33h-.86v-7.5c0-1.79-.64-2.71-1.7-2.71s-1.99,1.13-1.99,2.87v7.33h-.86v-10.78l-.02.02h0Z"/>
  <path class="st0" d="M638.12,243.9v-.16c0-1.99,1.03-3.45,2.83-3.45.74,0,1.31.18,1.81.41v-1.36c0-1.5-.68-2.38-2.05-2.38-.76,0-1.36.14-1.99.49v-.84c.6-.29,1.27-.47,2.03-.47.86,0,1.56.25,2.1.78.45.45.78,1.27.78,2.32v7.8h-.86v-1.56c-.43,1.07-1.13,1.75-2.18,1.75-1.46,0-2.46-1.42-2.46-3.33h-.01ZM642.76,243.68v-2.16c-.57-.27-1.13-.43-1.77-.43-1.33,0-2.01,1.11-2.01,2.61v.16c0,1.46.6,2.61,1.73,2.61,1.27,0,2.05-1.38,2.05-2.79h0Z"/>
  <path class="st0" d="M645.82,246.66v-.9c.74.39,1.5.62,2.2.62.9,0,1.64-.6,1.64-1.6v-.04c0-.76-.43-1.52-1.7-2.73-1.6-1.52-2.12-2.36-2.12-3.45v-.04c0-1.5,1.17-2.36,2.44-2.36.72,0,1.21.1,1.79.35v.9c-.62-.31-1.19-.45-1.83-.45-.88,0-1.54.58-1.54,1.52v.04c0,.78.41,1.38,1.7,2.65,1.52,1.5,2.12,2.38,2.12,3.53v.04c0,1.52-1.23,2.44-2.55,2.44-.84,0-1.46-.18-2.16-.51h0Z"/>
  <path class="st0" d="M652.43,241.79v-.21c0-3.74,1.64-5.46,3.29-5.46.53,0,.99.16,1.29.37v.94c-.37-.29-.8-.49-1.31-.49-1.11,0-2.4,1.42-2.4,4.6v.29c0,3.24,1.25,4.54,2.49,4.54.45,0,.86-.18,1.23-.49v.9c-.35.25-.76.41-1.29.41-1.68,0-3.29-1.64-3.29-5.4h0Z"/>
  <path class="st0" d="M658.83,243.9v-.16c0-1.99,1.03-3.45,2.83-3.45.74,0,1.31.18,1.81.41v-1.36c0-1.5-.68-2.38-2.05-2.38-.76,0-1.36.14-1.99.49v-.84c.6-.29,1.27-.47,2.03-.47.86,0,1.56.25,2.1.78.45.45.78,1.27.78,2.32v7.8h-.86v-1.56c-.43,1.07-1.13,1.75-2.18,1.75-1.46,0-2.46-1.42-2.46-3.33h-.01ZM663.47,243.68v-2.16c-.57-.27-1.13-.43-1.77-.43-1.33,0-2.01,1.11-2.01,2.61v.16c0,1.46.6,2.61,1.73,2.61,1.27,0,2.05-1.38,2.05-2.79h0Z"/>
  <path class="st0" d="M666.3,236.26h.88l2.14,9.32,2.18-9.32h.84l-2.65,10.84h-.74l-2.65-10.84h0Z"/>
  <path class="st0" d="M673.93,241.75v-.18c0-3.39,1.46-5.46,3.08-5.46s3.04,2.07,3.04,5.46v.18c0,3.39-1.44,5.46-3.06,5.46s-3.06-2.07-3.06-5.46ZM679.19,241.75v-.18c0-2.83-.99-4.66-2.2-4.66s-2.2,1.83-2.2,4.66v.18c0,2.83.99,4.66,2.2,4.66s2.2-1.83,2.2-4.66Z"/>
  <path class="st0" d="M686.38,241.85v-.39c0-3.43,1.33-5.36,2.81-5.36,1.09,0,1.83,1.01,2.26,2.24v-5.81h.86v14.52h-.86v-2.07c-.43,1.23-1.17,2.24-2.26,2.24-1.48,0-2.81-1.89-2.81-5.36h0ZM691.5,241.91v-.51c0-2.9-1.11-4.54-2.2-4.54s-2.05,1.66-2.05,4.62v.35c0,2.96.94,4.62,2.05,4.62s2.2-1.64,2.2-4.54h0Z"/>
  <path class="st0" d="M694.81,241.85v-.18c0-3.74,1.38-5.57,2.96-5.57s2.81,1.91,2.81,5.28v.64h-4.91c.04,2.92,1.23,4.35,2.69,4.35.66,0,1.17-.16,1.87-.64l.1.88c-.76.43-1.25.57-2.1.57-1.81,0-3.43-1.77-3.43-5.34h0ZM699.74,241.25c0-2.48-.82-4.35-1.97-4.35s-2.01,1.5-2.1,4.35h4.07,0Z"/>
  <path class="st0" d="M706.94,241.85v-.18c0-3.74,1.38-5.57,2.96-5.57s2.81,1.91,2.81,5.28v.64h-4.91c.04,2.92,1.23,4.35,2.69,4.35.66,0,1.17-.16,1.87-.64l.1.88c-.76.43-1.25.57-2.1.57-1.81,0-3.43-1.77-3.43-5.34h0ZM711.86,241.25c0-2.48-.82-4.35-1.97-4.35s-2.01,1.5-2.1,4.35h4.07,0Z"/>
  <path class="st0" d="M717.52,240.7l1.83-4.44h.9l-2.24,5.18,2.42,5.61h-.92l-2.01-4.83-1.99,4.83h-.9l2.4-5.57-2.24-5.22h.92l1.83,4.44h0Z"/>
  <path class="st0" d="M722.66,236.26h.86v2.07c.43-1.23,1.17-2.24,2.26-2.24,1.48,0,2.81,1.89,2.81,5.36v.39c0,3.43-1.33,5.36-2.81,5.36-1.09,0-1.83-1.01-2.26-2.24v4.74h-.86v-13.45h0ZM727.73,241.83v-.35c0-2.96-.94-4.62-2.05-4.62s-2.2,1.64-2.2,4.54v.51c0,2.9,1.11,4.54,2.2,4.54s2.05-1.66,2.05-4.62h0Z"/>
  <path class="st0" d="M730.71,241.85v-.18c0-3.74,1.38-5.57,2.96-5.57s2.81,1.91,2.81,5.28v.64h-4.91c.04,2.92,1.23,4.35,2.69,4.35.66,0,1.17-.16,1.87-.64l.1.88c-.76.43-1.25.57-2.1.57-1.81,0-3.43-1.77-3.43-5.34h0ZM735.64,241.25c0-2.48-.82-4.35-1.97-4.35s-2.01,1.5-2.09,4.35h4.07-.01Z"/>
  <path class="st0" d="M738.92,236.26h.86v1.58c.41-.99,1.25-1.79,2.53-1.7v.92h-.04c-1.36,0-2.49.86-2.49,2.75v7.23h-.86v-10.78h0Z"/>
  <path class="st0" d="M744.46,232.53h.94v1.44h-.94v-1.44ZM744.5,236.26h.86v10.78h-.86v-10.78Z"/>
  <path class="st0" d="M747.87,241.85v-.18c0-3.74,1.38-5.57,2.96-5.57s2.81,1.91,2.81,5.28v.64h-4.91c.04,2.92,1.23,4.35,2.69,4.35.66,0,1.17-.16,1.87-.64l.1.88c-.76.43-1.25.57-2.1.57-1.81,0-3.43-1.77-3.43-5.34h0ZM752.8,241.25c0-2.48-.82-4.35-1.97-4.35s-2.01,1.5-2.09,4.35h4.07-.01ZM750.47,232.61h.7l1.38,2.51h-.76l-.99-1.54-.99,1.54h-.72l1.38-2.51h0Z"/>
  <path class="st0" d="M756.08,236.26h.86v1.58c.37-.9,1.03-1.75,2.22-1.75,1.46,0,2.46,1.21,2.46,3.41v7.54h-.86v-7.45c0-1.79-.64-2.75-1.77-2.75s-2.05,1.17-2.05,2.92v7.29h-.86v-10.78h0Z"/>
  <path class="st0" d="M764.02,241.79v-.21c0-3.74,1.64-5.46,3.29-5.46.53,0,.99.16,1.29.37v.94c-.37-.29-.8-.49-1.31-.49-1.11,0-2.4,1.42-2.4,4.6v.29c0,3.24,1.25,4.54,2.49,4.54.45,0,.86-.18,1.23-.49v.9c-.35.25-.76.41-1.29.41-1.68,0-3.29-1.64-3.29-5.4h0Z"/>
  <path class="st0" d="M770.86,232.53h.94v1.44h-.94v-1.44ZM770.9,236.26h.86v10.78h-.86v-10.78Z"/>
  <path class="st0" d="M774.07,243.9v-.16c0-1.99,1.03-3.45,2.83-3.45.74,0,1.31.18,1.81.41v-1.36c0-1.5-.68-2.38-2.05-2.38-.76,0-1.36.14-1.99.49v-.84c.6-.29,1.27-.47,2.03-.47.86,0,1.56.25,2.1.78.45.45.78,1.27.78,2.32v7.8h-.86v-1.56c-.43,1.07-1.13,1.75-2.18,1.75-1.46,0-2.46-1.42-2.46-3.33h-.01ZM778.71,243.68v-2.16c-.57-.27-1.13-.43-1.77-.43-1.33,0-2.01,1.11-2.01,2.61v.16c0,1.46.6,2.61,1.73,2.61,1.27,0,2.05-1.38,2.05-2.79h0Z"/>
  <path class="st0" d="M781.76,246.66v-.9c.74.39,1.5.62,2.2.62.9,0,1.64-.6,1.64-1.6v-.04c0-.76-.43-1.52-1.7-2.73-1.6-1.52-2.12-2.36-2.12-3.45v-.04c0-1.5,1.17-2.36,2.44-2.36.72,0,1.21.1,1.79.35v.9c-.62-.31-1.19-.45-1.83-.45-.88,0-1.54.58-1.54,1.52v.04c0,.78.41,1.38,1.7,2.65,1.52,1.5,2.12,2.38,2.12,3.53v.04c0,1.52-1.23,2.44-2.55,2.44-.84,0-1.46-.18-2.16-.51h0Z"/>
  <path class="st0" d="M792.51,236.26h.88l2.14,9.32,2.18-9.32h.84l-2.65,10.84h-.74l-2.65-10.84h0Z"/>
  <path class="st0" d="M800.82,232.53h.94v1.44h-.94v-1.44ZM800.86,236.26h.86v10.78h-.86v-10.78Z"/>
  <path class="st0" d="M804.02,236.26h.88l2.14,9.32,2.18-9.32h.84l-2.65,10.84h-.74l-2.65-10.84h0Z"/>
  <path class="st0" d="M812.34,232.53h.94v1.44h-.94v-1.44ZM812.38,236.26h.86v10.78h-.86v-10.78Z"/>
  <path class="st0" d="M815.79,241.85v-.39c0-3.43,1.33-5.36,2.81-5.36,1.09,0,1.83,1.01,2.26,2.24v-5.81h.86v14.52h-.86v-2.07c-.43,1.23-1.17,2.24-2.26,2.24-1.48,0-2.81-1.89-2.81-5.36h0ZM820.9,241.91v-.51c0-2.9-1.11-4.54-2.2-4.54s-2.05,1.66-2.05,4.62v.35c0,2.96.94,4.62,2.05,4.62s2.2-1.64,2.2-4.54h0Z"/>
  <path class="st0" d="M823.99,243.9v-.16c0-1.99,1.03-3.45,2.83-3.45.74,0,1.31.18,1.81.41v-1.36c0-1.5-.68-2.38-2.05-2.38-.76,0-1.36.14-1.99.49v-.84c.6-.29,1.27-.47,2.03-.47.86,0,1.56.25,2.1.78.45.45.78,1.27.78,2.32v7.8h-.86v-1.56c-.43,1.07-1.13,1.75-2.18,1.75-1.46,0-2.46-1.42-2.46-3.33h-.01ZM828.63,243.68v-2.16c-.57-.27-1.13-.43-1.77-.43-1.33,0-2.01,1.11-2.01,2.61v.16c0,1.46.6,2.61,1.73,2.61,1.27,0,2.05-1.38,2.05-2.79h0Z"/>
  <path class="st0" d="M831.69,246.66v-.9c.74.39,1.5.62,2.2.62.9,0,1.64-.6,1.64-1.6v-.04c0-.76-.43-1.52-1.7-2.73-1.6-1.52-2.12-2.36-2.12-3.45v-.04c0-1.5,1.17-2.36,2.44-2.36.72,0,1.21.1,1.79.35v.9c-.62-.31-1.19-.45-1.83-.45-.88,0-1.54.58-1.54,1.52v.04c0,.78.41,1.38,1.7,2.65,1.52,1.5,2.12,2.38,2.12,3.53v.04c0,1.52-1.23,2.44-2.55,2.44-.84,0-1.46-.18-2.16-.51h0Z"/>
  <path class="st0" d="M838.25,248.65c.8-.35,1.11-.82,1.05-1.6h-.55v-1.68h1.27v1.46c0,1.27-.39,1.81-1.52,2.34l-.25-.51h0Z"/>
  <path class="st0" d="M1.93,261.71H.82v-.8h1.11v-1.25c0-.9.23-1.58.64-1.99.35-.35.84-.53,1.46-.53.16,0,.47.04.64.08v.84c-.16-.04-.49-.08-.62-.08-.82,0-1.25.53-1.25,1.7v1.23h1.77v.8h-1.77v9.98h-.86v-9.98h-.01Z"/>
  <path class="st0" d="M5.98,266.5v-.18c0-3.74,1.38-5.57,2.96-5.57s2.81,1.91,2.81,5.28v.64h-4.91c.04,2.92,1.23,4.35,2.69,4.35.66,0,1.17-.16,1.87-.64l.1.88c-.76.43-1.25.57-2.1.57-1.81,0-3.43-1.77-3.43-5.34h0ZM10.91,265.9c0-2.48-.82-4.35-1.97-4.35s-2.01,1.5-2.1,4.35h4.07Z"/>
  <path class="st0" d="M14.19,260.91h.86v1.58c.41-.99,1.25-1.79,2.53-1.7v.92h-.04c-1.36,0-2.49.86-2.49,2.75v7.23h-.86v-10.78Z"/>
  <path class="st0" d="M19.71,260.91h.86v1.58c.37-.9,1.01-1.75,2.16-1.75s1.79.82,2.12,1.83c.39-.88,1.09-1.83,2.38-1.83,1.48,0,2.46,1.17,2.46,3.37v7.58h-.86v-7.5c0-1.79-.64-2.71-1.7-2.71s-1.99,1.13-1.99,2.87v7.33h-.86v-7.5c0-1.79-.64-2.71-1.7-2.71s-1.99,1.13-1.99,2.87v7.33h-.86v-10.78l-.02.02h0Z"/>
  <path class="st0" d="M32.13,266.5v-.18c0-3.74,1.38-5.57,2.96-5.57s2.81,1.91,2.81,5.28v.64h-4.91c.04,2.92,1.23,4.35,2.69,4.35.66,0,1.17-.16,1.87-.64l.1.88c-.76.43-1.25.57-2.1.57-1.81,0-3.43-1.77-3.43-5.34h.01ZM37.06,265.9c0-2.48-.82-4.35-1.97-4.35s-2.01,1.5-2.09,4.35h4.07,0Z"/>
  <path class="st0" d="M40.34,260.91h.86v1.58c.37-.9,1.03-1.75,2.22-1.75,1.46,0,2.46,1.21,2.46,3.41v7.54h-.86v-7.45c0-1.79-.64-2.75-1.77-2.75s-2.05,1.17-2.05,2.92v7.29h-.86v-10.78h0Z"/>
  <path class="st0" d="M48.88,269.89v-8.17h-1.03v-.8h1.03v-3.04h.86v3.04h1.75v.8h-1.75v8.05c0,.94.43,1.19,1.13,1.19.21,0,.49-.04.66-.1v.8c-.21.08-.51.12-.74.12-1.17,0-1.91-.51-1.91-1.89h0Z"/>
  <path class="st0" d="M53.07,266.4v-.18c0-3.39,1.46-5.46,3.08-5.46s3.04,2.07,3.04,5.46v.18c0,3.39-1.44,5.46-3.06,5.46s-3.06-2.07-3.06-5.46ZM58.33,266.4v-.18c0-2.83-.99-4.66-2.2-4.66s-2.2,1.83-2.2,4.66v.18c0,2.83.99,4.66,2.2,4.66s2.2-1.83,2.2-4.66Z"/>
  <path class="st0" d="M65.58,266.5v-.39c0-3.43,1.33-5.36,2.81-5.36,1.09,0,1.83,1.01,2.26,2.24v-5.81h.86v14.52h-.86v-2.07c-.43,1.23-1.17,2.24-2.26,2.24-1.48,0-2.81-1.89-2.81-5.36h0ZM70.7,266.56v-.51c0-2.9-1.11-4.54-2.2-4.54s-2.05,1.66-2.05,4.62v.35c0,2.96.94,4.62,2.05,4.62s2.2-1.64,2.2-4.54h0Z"/>
  <path class="st0" d="M74.01,266.5v-.18c0-3.74,1.38-5.57,2.96-5.57s2.81,1.91,2.81,5.28v.64h-4.91c.04,2.92,1.23,4.35,2.69,4.35.66,0,1.17-.16,1.87-.64l.1.88c-.76.43-1.25.57-2.1.57-1.81,0-3.43-1.77-3.43-5.34h.01ZM78.94,265.9c0-2.48-.82-4.35-1.97-4.35s-2.01,1.5-2.09,4.35h4.07-.01Z"/>
  <path class="st0" d="M87.49,269.62v2.07h-.86v-14.52h.86v5.81c.43-1.23,1.17-2.24,2.26-2.24,1.48,0,2.81,1.89,2.81,5.36v.39c0,3.43-1.33,5.36-2.81,5.36-1.09,0-1.83-1.01-2.26-2.24h0ZM91.7,266.48v-.35c0-2.96-.94-4.62-2.05-4.62s-2.2,1.64-2.2,4.54v.51c0,2.9,1.11,4.54,2.2,4.54s2.05-1.66,2.05-4.62h0Z"/>
  <path class="st0" d="M95.07,260.91h.86v1.58c.41-.99,1.25-1.79,2.53-1.7v.92h-.04c-1.36,0-2.49.86-2.49,2.75v7.23h-.86v-10.78Z"/>
  <path class="st0" d="M100.04,268.55v-.16c0-1.99,1.03-3.45,2.83-3.45.74,0,1.31.18,1.81.41v-1.36c0-1.5-.68-2.38-2.05-2.38-.76,0-1.36.14-1.99.49v-.84c.6-.29,1.27-.47,2.03-.47.86,0,1.56.25,2.1.78.45.45.78,1.27.78,2.32v7.8h-.86v-1.56c-.43,1.07-1.13,1.75-2.18,1.75-1.46,0-2.46-1.42-2.46-3.33h0ZM104.68,268.33v-2.16c-.57-.27-1.13-.43-1.77-.43-1.33,0-2.01,1.11-2.01,2.61v.16c0,1.46.6,2.61,1.73,2.61,1.27,0,2.05-1.38,2.05-2.79h0Z"/>
  <path class="st0" d="M108.37,257.17h.94v1.44h-.94v-1.44ZM108.41,260.91h.86v10.78h-.86v-10.78Z"/>
  <path class="st0" d="M112.17,260.91h.86v1.58c.37-.9,1.03-1.75,2.22-1.75,1.46,0,2.46,1.21,2.46,3.41v7.54h-.86v-7.45c0-1.79-.64-2.75-1.77-2.75s-2.05,1.17-2.05,2.92v7.29h-.86v-10.78h0Z"/>
  <path class="st0" d="M119.91,271.3v-.9c.74.39,1.5.62,2.2.62.9,0,1.64-.6,1.64-1.6v-.04c0-.76-.43-1.52-1.7-2.73-1.6-1.52-2.12-2.36-2.12-3.45v-.04c0-1.5,1.17-2.36,2.44-2.36.72,0,1.21.1,1.79.35v.9c-.62-.31-1.19-.45-1.83-.45-.88,0-1.54.58-1.54,1.52v.04c0,.78.41,1.38,1.7,2.65,1.52,1.5,2.12,2.38,2.12,3.53v.04c0,1.52-1.23,2.44-2.55,2.44-.84,0-1.46-.18-2.16-.51h.01Z"/>
  <path class="st0" d="M127.29,269.89v-8.17h-1.03v-.8h1.03v-3.04h.86v3.04h1.75v.8h-1.75v8.05c0,.94.43,1.19,1.13,1.19.21,0,.49-.04.66-.1v.8c-.21.08-.51.12-.74.12-1.17,0-1.91-.51-1.91-1.89h0Z"/>
  <path class="st0" d="M131.48,266.4v-.18c0-3.39,1.46-5.46,3.08-5.46s3.04,2.07,3.04,5.46v.18c0,3.39-1.44,5.46-3.06,5.46s-3.06-2.07-3.06-5.46ZM136.74,266.4v-.18c0-2.83-.99-4.66-2.2-4.66s-2.2,1.83-2.2,4.66v.18c0,2.83.99,4.66,2.2,4.66s2.2-1.83,2.2-4.66Z"/>
  <path class="st0" d="M140.07,260.91h.86v1.58c.41-.99,1.25-1.79,2.53-1.7v.92h-.04c-1.36,0-2.49.86-2.49,2.75v7.23h-.86v-10.78Z"/>
  <path class="st0" d="M145.6,260.91h.86v1.58c.37-.9,1.01-1.75,2.16-1.75s1.79.82,2.12,1.83c.39-.88,1.09-1.83,2.38-1.83,1.48,0,2.46,1.17,2.46,3.37v7.58h-.86v-7.5c0-1.79-.64-2.71-1.7-2.71s-1.99,1.13-1.99,2.87v7.33h-.86v-7.5c0-1.79-.64-2.71-1.7-2.71s-1.99,1.13-1.99,2.87v7.33h-.86v-10.78l-.02.02h0Z"/>
  <path class="st0" d="M157.78,271.3v-.9c.74.39,1.5.62,2.2.62.9,0,1.64-.6,1.64-1.6v-.04c0-.76-.43-1.52-1.7-2.73-1.6-1.52-2.12-2.36-2.12-3.45v-.04c0-1.5,1.17-2.36,2.44-2.36.72,0,1.21.1,1.79.35v.9c-.62-.31-1.19-.45-1.83-.45-.88,0-1.54.58-1.54,1.52v.04c0,.78.41,1.38,1.7,2.65,1.52,1.5,2.12,2.38,2.12,3.53v.04c0,1.52-1.23,2.44-2.55,2.44-.84,0-1.46-.18-2.16-.51h.01Z"/>
  <path class="st0" d="M164.35,273.3c.8-.35,1.11-.82,1.05-1.6h-.55v-1.68h1.27v1.46c0,1.27-.39,1.81-1.52,2.34l-.25-.51h0Z"/>
  <path class="st0" d="M172.71,266.5v-.18c0-3.74,1.38-5.57,2.96-5.57s2.81,1.91,2.81,5.28v.64h-4.91c.04,2.92,1.23,4.35,2.69,4.35.66,0,1.17-.16,1.87-.64l.1.88c-.76.43-1.25.57-2.1.57-1.81,0-3.43-1.77-3.43-5.34h0ZM177.64,265.9c0-2.48-.82-4.35-1.97-4.35s-2.01,1.5-2.1,4.35h4.07Z"/>
  <path class="st0" d="M180.43,271.3v-.9c.74.39,1.5.62,2.2.62.9,0,1.64-.6,1.64-1.6v-.04c0-.76-.43-1.52-1.7-2.73-1.6-1.52-2.12-2.36-2.12-3.45v-.04c0-1.5,1.17-2.36,2.44-2.36.72,0,1.21.1,1.79.35v.9c-.62-.31-1.19-.45-1.83-.45-.88,0-1.54.58-1.54,1.52v.04c0,.78.41,1.38,1.7,2.65,1.52,1.5,2.12,2.38,2.12,3.53v.04c0,1.52-1.23,2.44-2.55,2.44-.84,0-1.46-.18-2.16-.51h.01Z"/>
  <path class="st0" d="M187.03,271.3v-.9c.74.39,1.5.62,2.2.62.9,0,1.64-.6,1.64-1.6v-.04c0-.76-.43-1.52-1.7-2.73-1.6-1.52-2.12-2.36-2.12-3.45v-.04c0-1.5,1.17-2.36,2.44-2.36.72,0,1.21.1,1.79.35v.9c-.62-.31-1.19-.45-1.83-.45-.88,0-1.54.58-1.54,1.52v.04c0,.78.41,1.38,1.7,2.65,1.52,1.5,2.12,2.38,2.12,3.53v.04c0,1.52-1.23,2.44-2.55,2.44-.84,0-1.46-.18-2.16-.51h.01Z"/>
  <path class="st0" d="M193.63,266.5v-.18c0-3.74,1.38-5.57,2.96-5.57s2.81,1.91,2.81,5.28v.64h-4.91c.04,2.92,1.23,4.35,2.69,4.35.66,0,1.17-.16,1.87-.64l.1.88c-.76.43-1.25.57-2.1.57-1.81,0-3.43-1.77-3.43-5.34h0ZM198.56,265.9c0-2.48-.82-4.35-1.97-4.35s-2.01,1.5-2.09,4.35h4.07-.01ZM196.24,257.26h.7l1.38,2.51h-.76l-.99-1.54-.99,1.54h-.72l1.38-2.51Z"/>
  <path class="st0" d="M201.84,260.91h.86v1.58c.37-.9,1.03-1.75,2.22-1.75,1.46,0,2.46,1.21,2.46,3.41v7.54h-.86v-7.45c0-1.79-.64-2.75-1.77-2.75s-2.05,1.17-2.05,2.92v7.29h-.86v-10.78h0Z"/>
  <path class="st0" d="M209.78,266.44v-.21c0-3.74,1.64-5.46,3.29-5.46.53,0,.99.16,1.29.37v.94c-.37-.29-.8-.49-1.31-.49-1.11,0-2.4,1.42-2.4,4.6v.29c0,3.24,1.25,4.54,2.49,4.54.45,0,.86-.18,1.23-.49v.9c-.35.25-.76.41-1.29.41-1.68,0-3.29-1.64-3.29-5.4h-.01Z"/>
  <path class="st0" d="M216.62,257.17h.94v1.44h-.94v-1.44ZM216.66,260.91h.86v10.78h-.86v-10.78Z"/>
  <path class="st0" d="M219.83,268.55v-.16c0-1.99,1.03-3.45,2.83-3.45.74,0,1.31.18,1.81.41v-1.36c0-1.5-.68-2.38-2.05-2.38-.76,0-1.36.14-1.99.49v-.84c.6-.29,1.27-.47,2.03-.47.86,0,1.56.25,2.1.78.45.45.78,1.27.78,2.32v7.8h-.86v-1.56c-.43,1.07-1.13,1.75-2.18,1.75-1.46,0-2.46-1.42-2.46-3.33h0ZM224.47,268.33v-2.16c-.57-.27-1.13-.43-1.77-.43-1.33,0-2.01,1.11-2.01,2.61v.16c0,1.46.6,2.61,1.73,2.61,1.27,0,2.05-1.38,2.05-2.79h0Z"/>
  <path class="st0" d="M232.46,260.91h.86v1.58c.37-.9,1.03-1.75,2.22-1.75,1.46,0,2.46,1.21,2.46,3.41v7.54h-.86v-7.45c0-1.79-.64-2.75-1.77-2.75s-2.05,1.17-2.05,2.92v7.29h-.86v-10.78h0Z"/>
  <path class="st0" d="M240.23,268.55v-.16c0-1.99,1.03-3.45,2.83-3.45.74,0,1.31.18,1.81.41v-1.36c0-1.5-.68-2.38-2.05-2.38-.76,0-1.36.14-1.99.49v-.84c.6-.29,1.27-.47,2.03-.47.86,0,1.56.25,2.1.78.45.45.78,1.27.78,2.32v7.8h-.86v-1.56c-.43,1.07-1.13,1.75-2.18,1.75-1.46,0-2.46-1.42-2.46-3.33h0ZM244.87,268.33v-2.16c-.57-.27-1.13-.43-1.77-.43-1.33,0-2.01,1.11-2.01,2.61v.16c0,1.46.6,2.61,1.73,2.61,1.27,0,2.05-1.38,2.05-2.79h0Z"/>
  <path class="st0" d="M248.73,269.89v-8.17h-1.03v-.8h1.03v-3.04h.86v3.04h1.75v.8h-1.75v8.05c0,.94.43,1.19,1.13,1.19.21,0,.49-.04.66-.1v.8c-.21.08-.51.12-.74.12-1.17,0-1.91-.51-1.91-1.89h0Z"/>
  <path class="st0" d="M253.56,268.45v-7.54h.86v7.45c0,1.79.64,2.75,1.77,2.75s2.05-1.17,2.05-2.92v-7.29h.86v10.78h-.86v-1.58c-.37.9-1.03,1.75-2.22,1.75-1.46,0-2.46-1.21-2.46-3.41h0Z"/>
  <path class="st0" d="M261.97,260.91h.86v1.58c.41-.99,1.25-1.79,2.53-1.7v.92h-.04c-1.36,0-2.49.86-2.49,2.75v7.23h-.86v-10.78Z"/>
  <path class="st0" d="M266.93,268.55v-.16c0-1.99,1.03-3.45,2.83-3.45.74,0,1.31.18,1.81.41v-1.36c0-1.5-.68-2.38-2.05-2.38-.76,0-1.36.14-1.99.49v-.84c.6-.29,1.27-.47,2.03-.47.86,0,1.56.25,2.1.78.45.45.78,1.27.78,2.32v7.8h-.86v-1.56c-.43,1.07-1.13,1.75-2.18,1.75-1.46,0-2.46-1.42-2.46-3.33h-.01ZM271.57,268.33v-2.16c-.57-.27-1.13-.43-1.77-.43-1.33,0-2.01,1.11-2.01,2.61v.16c0,1.46.6,2.61,1.73,2.61,1.27,0,2.05-1.38,2.05-2.79h0Z"/>
  <path class="st0" d="M275.3,257.17h.86v14.52h-.86v-14.52Z"/>
  <path class="st0" d="M283.11,266.5v-.39c0-3.43,1.33-5.36,2.81-5.36,1.09,0,1.83,1.01,2.26,2.24v-5.81h.86v14.52h-.86v-2.07c-.43,1.23-1.17,2.24-2.26,2.24-1.48,0-2.81-1.89-2.81-5.36h0ZM288.22,266.56v-.51c0-2.9-1.11-4.54-2.2-4.54s-2.05,1.66-2.05,4.62v.35c0,2.96.94,4.62,2.05,4.62s2.2-1.64,2.2-4.54h0Z"/>
  <path class="st0" d="M291.54,266.5v-.18c0-3.74,1.38-5.57,2.96-5.57s2.81,1.91,2.81,5.28v.64h-4.91c.04,2.92,1.23,4.35,2.69,4.35.66,0,1.17-.16,1.87-.64l.1.88c-.76.43-1.25.57-2.1.57-1.81,0-3.43-1.77-3.43-5.34h.01ZM296.47,265.9c0-2.48-.82-4.35-1.97-4.35s-2.01,1.5-2.1,4.35h4.07Z"/>
  <path class="st0" d="M303.72,266.4v-.18c0-3.39,1.46-5.46,3.08-5.46s3.04,2.07,3.04,5.46v.18c0,3.39-1.44,5.46-3.06,5.46s-3.06-2.07-3.06-5.46ZM308.97,266.4v-.18c0-2.83-.99-4.66-2.2-4.66s-2.2,1.83-2.2,4.66v.18c0,2.83.99,4.66,2.2,4.66s2.2-1.83,2.2-4.66Z"/>
  <path class="st0" d="M312.3,260.91h.86v1.58c.41-.99,1.25-1.79,2.53-1.7v.92h-.04c-1.36,0-2.49.86-2.49,2.75v7.23h-.86v-10.78Z"/>
  <path class="st0" d="M317.85,257.17h.94v1.44h-.94v-1.44ZM317.89,260.91h.86v10.78h-.86v-10.78Z"/>
  <path class="st0" d="M321.69,273.97v-.88c.78.31,1.7.51,2.4.51,1.46,0,2.22-.7,2.22-2.18v-2.55c-.43,1.23-1.17,2.24-2.26,2.24-1.44,0-2.81-1.79-2.81-5.09v-.18c0-3.27,1.38-5.09,2.81-5.09,1.09,0,1.83,1.01,2.26,2.24v-2.07h.86v10.47c0,.99-.27,1.73-.76,2.22-.53.53-1.33.8-2.36.8-.74,0-1.62-.16-2.36-.43h0ZM326.35,266.03v-.18c0-2.75-1.15-4.33-2.2-4.33s-2.05,1.54-2.05,4.35v.14c0,2.81.99,4.35,2.05,4.35s2.2-1.58,2.2-4.33h0Z"/>
  <path class="st0" d="M330.05,257.17h.94v1.44h-.94v-1.44ZM330.1,260.91h.86v10.78h-.86v-10.78Z"/>
  <path class="st0" d="M333.86,260.91h.86v1.58c.37-.9,1.03-1.75,2.22-1.75,1.46,0,2.46,1.21,2.46,3.41v7.54h-.86v-7.45c0-1.79-.64-2.75-1.77-2.75s-2.05,1.17-2.05,2.92v7.29h-.86v-10.78h0Z"/>
  <path class="st0" d="M341.63,268.55v-.16c0-1.99,1.03-3.45,2.83-3.45.74,0,1.31.18,1.81.41v-1.36c0-1.5-.68-2.38-2.05-2.38-.76,0-1.36.14-1.99.49v-.84c.6-.29,1.27-.47,2.03-.47.86,0,1.56.25,2.1.78.45.45.78,1.27.78,2.32v7.8h-.86v-1.56c-.43,1.07-1.13,1.75-2.18,1.75-1.46,0-2.46-1.42-2.46-3.33h-.01ZM346.27,268.33v-2.16c-.57-.27-1.13-.43-1.77-.43-1.33,0-2.01,1.11-2.01,2.61v.16c0,1.46.6,2.61,1.73,2.61,1.27,0,2.05-1.38,2.05-2.79h0Z"/>
  <path class="st0" d="M349.99,257.17h.86v14.52h-.86v-14.52Z"/>
  <path class="st0" d="M353.77,257.17h.94v1.44h-.94v-1.44ZM353.81,260.91h.86v10.78h-.86v-10.78Z"/>
  <path class="st0" d="M357.22,266.5v-.39c0-3.43,1.33-5.36,2.81-5.36,1.09,0,1.83,1.01,2.26,2.24v-5.81h.86v14.52h-.86v-2.07c-.43,1.23-1.17,2.24-2.26,2.24-1.48,0-2.81-1.89-2.81-5.36h0ZM362.34,266.56v-.51c0-2.9-1.11-4.54-2.2-4.54s-2.05,1.66-2.05,4.62v.35c0,2.96.94,4.62,2.05,4.62s2.2-1.64,2.2-4.54h0Z"/>
  <path class="st0" d="M365.42,268.55v-.16c0-1.99,1.03-3.45,2.83-3.45.74,0,1.31.18,1.81.41v-1.36c0-1.5-.68-2.38-2.05-2.38-.76,0-1.36.14-1.99.49v-.84c.6-.29,1.27-.47,2.03-.47.86,0,1.56.25,2.1.78.45.45.78,1.27.78,2.32v7.8h-.86v-1.56c-.43,1.07-1.13,1.75-2.18,1.75-1.46,0-2.46-1.42-2.46-3.33h-.01ZM370.07,268.33v-2.16c-.57-.27-1.13-.43-1.77-.43-1.33,0-2.01,1.11-2.01,2.61v.16c0,1.46.6,2.61,1.73,2.61,1.27,0,2.05-1.38,2.05-2.79h0Z"/>
  <path class="st0" d="M373.38,266.5v-.39c0-3.43,1.33-5.36,2.81-5.36,1.09,0,1.83,1.01,2.26,2.24v-5.81h.86v14.52h-.86v-2.07c-.43,1.23-1.17,2.24-2.26,2.24-1.48,0-2.81-1.89-2.81-5.36h0ZM378.49,266.56v-.51c0-2.9-1.11-4.54-2.2-4.54s-2.05,1.66-2.05,4.62v.35c0,2.96.94,4.62,2.05,4.62s2.2-1.64,2.2-4.54h0Z"/>
  <path class="st0" d="M381.81,266.5v-.18c0-3.74,1.38-5.57,2.96-5.57s2.81,1.91,2.81,5.28v.64h-4.91c.04,2.92,1.23,4.35,2.69,4.35.66,0,1.17-.16,1.87-.64l.1.88c-.76.43-1.25.57-2.1.57-1.81,0-3.43-1.77-3.43-5.34h.01ZM386.73,265.9c0-2.48-.82-4.35-1.97-4.35s-2.01,1.5-2.1,4.35h4.07Z"/>
  <path class="st0" d="M389.26,273.3c.8-.35,1.11-.82,1.05-1.6h-.55v-1.68h1.27v1.46c0,1.27-.39,1.81-1.52,2.34l-.25-.51h0Z"/>
  <path class="st0" d="M398.05,260.91h.86v2.07c.43-1.23,1.17-2.24,2.26-2.24,1.48,0,2.81,1.89,2.81,5.36v.39c0,3.43-1.33,5.36-2.81,5.36-1.09,0-1.83-1.01-2.26-2.24v4.74h-.86v-13.45h0ZM403.12,266.48v-.35c0-2.96-.94-4.62-2.05-4.62s-2.2,1.64-2.2,4.54v.51c0,2.9,1.11,4.54,2.2,4.54s2.05-1.66,2.05-4.62h0Z"/>
  <path class="st0" d="M406.51,257.17h.94v1.44h-.94v-1.44ZM406.55,260.91h.86v10.78h-.86v-10.78Z"/>
  <path class="st0" d="M410.66,269.89v-8.17h-1.03v-.8h1.03v-3.04h.86v3.04h1.75v.8h-1.75v8.05c0,.94.43,1.19,1.13,1.19.21,0,.49-.04.66-.1v.8c-.21.08-.51.12-.74.12-1.17,0-1.91-.51-1.91-1.89h0Z"/>
  <path class="st0" d="M415.09,268.55v-.16c0-1.99,1.03-3.45,2.83-3.45.74,0,1.31.18,1.81.41v-1.36c0-1.5-.68-2.38-2.05-2.38-.76,0-1.36.14-1.99.49v-.84c.6-.29,1.27-.47,2.03-.47.86,0,1.56.25,2.1.78.45.45.78,1.27.78,2.32v7.8h-.86v-1.56c-.43,1.07-1.13,1.75-2.18,1.75-1.46,0-2.46-1.42-2.46-3.33h-.01ZM419.73,268.33v-2.16c-.57-.27-1.13-.43-1.77-.43-1.33,0-2.01,1.11-2.01,2.61v.16c0,1.46.6,2.61,1.73,2.61,1.27,0,2.05-1.38,2.05-2.79h0Z"/>
  <path class="st0" d="M423.04,266.5v-.39c0-3.43,1.33-5.36,2.81-5.36,1.09,0,1.83,1.01,2.26,2.24v-5.81h.86v14.52h-.86v-2.07c-.43,1.23-1.17,2.24-2.26,2.24-1.48,0-2.81-1.89-2.81-5.36h0ZM428.15,266.56v-.51c0-2.9-1.11-4.54-2.2-4.54s-2.05,1.66-2.05,4.62v.35c0,2.96.94,4.62,2.05,4.62s2.2-1.64,2.2-4.54h0Z"/>
  <path class="st0" d="M431.24,268.55v-.16c0-1.99,1.03-3.45,2.83-3.45.74,0,1.31.18,1.81.41v-1.36c0-1.5-.68-2.38-2.05-2.38-.76,0-1.36.14-1.99.49v-.84c.6-.29,1.27-.47,2.03-.47.86,0,1.56.25,2.1.78.45.45.78,1.27.78,2.32v7.8h-.86v-1.56c-.43,1.07-1.13,1.75-2.18,1.75-1.46,0-2.46-1.42-2.46-3.33h-.01ZM435.88,268.33v-2.16c-.57-.27-1.13-.43-1.77-.43-1.33,0-2.01,1.11-2.01,2.61v.16c0,1.46.6,2.61,1.73,2.61,1.27,0,2.05-1.38,2.05-2.79h0Z"/>
  <path class="st0" d="M438.94,271.3v-.9c.74.39,1.5.62,2.2.62.9,0,1.64-.6,1.64-1.6v-.04c0-.76-.43-1.52-1.7-2.73-1.6-1.52-2.12-2.36-2.12-3.45v-.04c0-1.5,1.17-2.36,2.44-2.36.72,0,1.21.1,1.79.35v.9c-.62-.31-1.19-.45-1.83-.45-.88,0-1.54.58-1.54,1.52v.04c0,.78.41,1.38,1.7,2.65,1.52,1.5,2.12,2.38,2.12,3.53v.04c0,1.52-1.23,2.44-2.55,2.44-.84,0-1.46-.18-2.16-.51h0Z"/>
  <path class="st0" d="M449.89,266.5v-.39c0-3.43,1.33-5.36,2.81-5.36,1.09,0,1.83,1.01,2.26,2.24v-5.81h.86v14.52h-.86v-2.07c-.43,1.23-1.17,2.24-2.26,2.24-1.48,0-2.81-1.89-2.81-5.36h0ZM455,266.56v-.51c0-2.9-1.11-4.54-2.2-4.54s-2.05,1.66-2.05,4.62v.35c0,2.96.94,4.62,2.05,4.62s2.2-1.64,2.2-4.54h0Z"/>
  <path class="st0" d="M458.32,266.5v-.18c0-3.74,1.38-5.57,2.96-5.57s2.81,1.91,2.81,5.28v.64h-4.91c.04,2.92,1.23,4.35,2.69,4.35.66,0,1.17-.16,1.87-.64l.1.88c-.76.43-1.25.57-2.1.57-1.81,0-3.43-1.77-3.43-5.34h.01ZM463.24,265.9c0-2.48-.82-4.35-1.97-4.35s-2.01,1.5-2.09,4.35h4.07-.01Z"/>
  <path class="st0" d="M470.49,266.44v-.21c0-3.74,1.64-5.46,3.29-5.46.53,0,.99.16,1.29.37v.94c-.37-.29-.8-.49-1.31-.49-1.11,0-2.4,1.42-2.4,4.6v.29c0,3.24,1.25,4.54,2.49,4.54.45,0,.86-.18,1.23-.49v.9c-.35.25-.76.41-1.29.41-1.68,0-3.29-1.64-3.29-5.4h-.01Z"/>
  <path class="st0" d="M477.31,260.91h.86v1.58c.41-.99,1.25-1.79,2.53-1.7v.92h-.04c-1.36,0-2.49.86-2.49,2.75v7.23h-.86v-10.78Z"/>
  <path class="st0" d="M482.89,260.91h.86v10.78h-.86v-10.78ZM484.27,257.3l.97.51-1.68,2.05h-.6l1.31-2.57h0Z"/>
  <path class="st0" d="M487.22,269.89v-8.17h-1.03v-.8h1.03v-3.04h.86v3.04h1.75v.8h-1.75v8.05c0,.94.43,1.19,1.13,1.19.21,0,.49-.04.66-.1v.8c-.21.08-.51.12-.74.12-1.17,0-1.91-.51-1.91-1.89h0Z"/>
  <path class="st0" d="M492.14,257.17h.94v1.44h-.94v-1.44ZM492.18,260.91h.86v10.78h-.86v-10.78Z"/>
  <path class="st0" d="M495.54,266.44v-.21c0-3.74,1.64-5.46,3.29-5.46.53,0,.99.16,1.29.37v.94c-.37-.29-.8-.49-1.31-.49-1.11,0-2.4,1.42-2.4,4.6v.29c0,3.24,1.25,4.54,2.49,4.54.45,0,.86-.18,1.23-.49v.9c-.35.25-.76.41-1.29.41-1.68,0-3.29-1.64-3.29-5.4h-.01Z"/>
  <path class="st0" d="M501.95,268.55v-.16c0-1.99,1.03-3.45,2.83-3.45.74,0,1.31.18,1.81.41v-1.36c0-1.5-.68-2.38-2.05-2.38-.76,0-1.36.14-1.99.49v-.84c.6-.29,1.27-.47,2.03-.47.86,0,1.56.25,2.1.78.45.45.78,1.27.78,2.32v7.8h-.86v-1.56c-.43,1.07-1.13,1.75-2.18,1.75-1.46,0-2.46-1.42-2.46-3.33h-.01ZM506.59,268.33v-2.16c-.57-.27-1.13-.43-1.77-.43-1.33,0-2.01,1.11-2.01,2.61v.16c0,1.46.6,2.61,1.73,2.61,1.27,0,2.05-1.38,2.05-2.79h0Z"/>
  <path class="st0" d="M514.15,266.44v-.21c0-3.74,1.64-5.46,3.29-5.46.53,0,.99.16,1.29.37v.94c-.37-.29-.8-.49-1.31-.49-1.11,0-2.4,1.42-2.4,4.6v.29c0,3.24,1.25,4.54,2.49,4.54.45,0,.86-.18,1.23-.49v.9c-.35.25-.76.41-1.29.41-1.68,0-3.29-1.64-3.29-5.4h0Z"/>
  <path class="st0" d="M520.32,266.4v-.18c0-3.39,1.46-5.46,3.08-5.46s3.04,2.07,3.04,5.46v.18c0,3.39-1.44,5.46-3.06,5.46s-3.06-2.07-3.06-5.46ZM525.58,266.4v-.18c0-2.83-.99-4.66-2.2-4.66s-2.2,1.83-2.2,4.66v.18c0,2.83.99,4.66,2.2,4.66s2.2-1.83,2.2-4.66Z"/>
  <path class="st0" d="M528.91,260.91h.86v1.58c.37-.9,1.03-1.75,2.22-1.75,1.46,0,2.46,1.21,2.46,3.41v7.54h-.86v-7.45c0-1.79-.64-2.75-1.77-2.75s-2.05,1.17-2.05,2.92v7.29h-.86v-10.78h0Z"/>
  <path class="st0" d="M536.65,271.3v-.9c.74.39,1.5.62,2.2.62.9,0,1.64-.6,1.64-1.6v-.04c0-.76-.43-1.52-1.7-2.73-1.6-1.52-2.12-2.36-2.12-3.45v-.04c0-1.5,1.17-2.36,2.44-2.36.72,0,1.21.1,1.79.35v.9c-.62-.31-1.19-.45-1.83-.45-.88,0-1.54.58-1.54,1.52v.04c0,.78.41,1.38,1.7,2.65,1.52,1.5,2.12,2.38,2.12,3.53v.04c0,1.52-1.23,2.44-2.55,2.44-.84,0-1.46-.18-2.16-.51h0Z"/>
  <path class="st0" d="M544.03,269.89v-8.17h-1.03v-.8h1.03v-3.04h.86v3.04h1.75v.8h-1.75v8.05c0,.94.43,1.19,1.13,1.19.21,0,.49-.04.66-.1v.8c-.21.08-.51.12-.74.12-1.17,0-1.91-.51-1.91-1.89h0Z"/>
  <path class="st0" d="M548.93,260.91h.86v1.58c.41-.99,1.25-1.79,2.53-1.7v.92h-.04c-1.36,0-2.49.86-2.49,2.75v7.23h-.86v-10.78h0Z"/>
  <path class="st0" d="M554.41,268.45v-7.54h.86v7.45c0,1.79.64,2.75,1.77,2.75s2.05-1.17,2.05-2.92v-7.29h.86v10.78h-.86v-1.58c-.37.9-1.03,1.75-2.22,1.75-1.46,0-2.46-1.21-2.46-3.41h0Z"/>
  <path class="st0" d="M563.16,269.89v-8.17h-1.03v-.8h1.03v-3.04h.86v3.04h1.75v.8h-1.75v8.05c0,.94.43,1.19,1.13,1.19.21,0,.49-.04.66-.1v.8c-.21.08-.51.12-.74.12-1.17,0-1.91-.51-1.91-1.89h0Z"/>
  <path class="st0" d="M568.07,257.17h.94v1.44h-.94v-1.44ZM568.11,260.91h.86v10.78h-.86v-10.78Z"/>
  <path class="st0" d="M571.27,260.91h.88l2.14,9.32,2.18-9.32h.84l-2.65,10.84h-.74l-2.65-10.84Z"/>
  <path class="st0" d="M579.01,268.55v-.16c0-1.99,1.03-3.45,2.83-3.45.74,0,1.31.18,1.81.41v-1.36c0-1.5-.68-2.38-2.05-2.38-.76,0-1.36.14-1.99.49v-.84c.6-.29,1.27-.47,2.03-.47.86,0,1.56.25,2.1.78.45.45.78,1.27.78,2.32v7.8h-.86v-1.56c-.43,1.07-1.13,1.75-2.18,1.75-1.46,0-2.46-1.42-2.46-3.33h-.01ZM583.65,268.33v-2.16c-.57-.27-1.13-.43-1.77-.43-1.33,0-2.01,1.11-2.01,2.61v.16c0,1.46.6,2.61,1.73,2.61,1.27,0,2.05-1.38,2.05-2.79h0Z"/>
  <path class="st0" d="M586.78,273.3c.8-.35,1.11-.82,1.05-1.6h-.55v-1.68h1.27v1.46c0,1.27-.39,1.81-1.52,2.34l-.25-.51h0Z"/>
  <path class="st0" d="M595,271.3v-.9c.74.39,1.5.62,2.2.62.9,0,1.64-.6,1.64-1.6v-.04c0-.76-.43-1.52-1.7-2.73-1.6-1.52-2.12-2.36-2.12-3.45v-.04c0-1.5,1.17-2.36,2.44-2.36.72,0,1.21.1,1.79.35v.9c-.62-.31-1.19-.45-1.83-.45-.88,0-1.54.58-1.54,1.52v.04c0,.78.41,1.38,1.7,2.65,1.52,1.5,2.12,2.38,2.12,3.53v.04c0,1.52-1.23,2.44-2.55,2.44-.84,0-1.46-.18-2.16-.51h0Z"/>
  <path class="st0" d="M601.67,268.55v-.16c0-1.99,1.03-3.45,2.83-3.45.74,0,1.31.18,1.81.41v-1.36c0-1.5-.68-2.38-2.05-2.38-.76,0-1.36.14-1.99.49v-.84c.6-.29,1.27-.47,2.03-.47.86,0,1.56.25,2.1.78.45.45.78,1.27.78,2.32v7.8h-.86v-1.56c-.43,1.07-1.13,1.75-2.18,1.75-1.46,0-2.46-1.42-2.46-3.33h-.01ZM606.31,268.33v-2.16c-.57-.27-1.13-.43-1.77-.43-1.33,0-2.01,1.11-2.01,2.61v.16c0,1.46.6,2.61,1.73,2.61,1.27,0,2.05-1.38,2.05-2.79h0Z"/>
  <path class="st0" d="M610.04,257.17h.86v14.52h-.86v-14.52Z"/>
  <path class="st0" d="M617.85,266.5v-.39c0-3.43,1.33-5.36,2.81-5.36,1.09,0,1.83,1.01,2.26,2.24v-5.81h.86v14.52h-.86v-2.07c-.43,1.23-1.17,2.24-2.26,2.24-1.48,0-2.81-1.89-2.81-5.36h0ZM622.96,266.56v-.51c0-2.9-1.11-4.54-2.2-4.54s-2.05,1.66-2.05,4.62v.35c0,2.96.94,4.62,2.05,4.62s2.2-1.64,2.2-4.54h0Z"/>
  <path class="st0" d="M626.28,266.5v-.18c0-3.74,1.38-5.57,2.96-5.57s2.81,1.91,2.81,5.28v.64h-4.91c.04,2.92,1.23,4.35,2.69,4.35.66,0,1.17-.16,1.87-.64l.1.88c-.76.43-1.25.57-2.1.57-1.81,0-3.43-1.77-3.43-5.34h0ZM631.21,265.9c0-2.48-.82-4.35-1.97-4.35s-2.01,1.5-2.1,4.35h4.07,0Z"/>
  <path class="st0" d="M638.46,266.4v-.18c0-3.39,1.46-5.46,3.08-5.46s3.04,2.07,3.04,5.46v.18c0,3.39-1.44,5.46-3.06,5.46s-3.06-2.07-3.06-5.46ZM643.71,266.4v-.18c0-2.83-.99-4.66-2.2-4.66s-2.2,1.83-2.2,4.66v.18c0,2.83.99,4.66,2.2,4.66s2.2-1.83,2.2-4.66Z"/>
  <path class="st0" d="M646.98,268.45v-7.54h.86v7.45c0,1.79.64,2.75,1.77,2.75s2.05-1.17,2.05-2.92v-7.29h.86v10.78h-.86v-1.58c-.37.9-1.03,1.75-2.22,1.75-1.46,0-2.46-1.21-2.46-3.41h0Z"/>
  <path class="st0" d="M654.76,271.3v-.9c.74.39,1.5.62,2.2.62.9,0,1.64-.6,1.64-1.6v-.04c0-.76-.43-1.52-1.7-2.73-1.6-1.52-2.12-2.36-2.12-3.45v-.04c0-1.5,1.17-2.36,2.44-2.36.72,0,1.21.1,1.79.35v.9c-.62-.31-1.19-.45-1.83-.45-.88,0-1.54.58-1.54,1.52v.04c0,.78.41,1.38,1.7,2.65,1.52,1.5,2.12,2.38,2.12,3.53v.04c0,1.52-1.23,2.44-2.55,2.44-.84,0-1.46-.18-2.16-.51h0Z"/>
  <path class="st0" d="M661.43,268.55v-.16c0-1.99,1.03-3.45,2.83-3.45.74,0,1.31.18,1.81.41v-1.36c0-1.5-.68-2.38-2.05-2.38-.76,0-1.36.14-1.99.49v-.84c.6-.29,1.27-.47,2.03-.47.86,0,1.56.25,2.1.78.45.45.78,1.27.78,2.32v7.8h-.86v-1.56c-.43,1.07-1.13,1.75-2.18,1.75-1.46,0-2.46-1.42-2.46-3.33h-.01ZM666.07,268.33v-2.16c-.57-.27-1.13-.43-1.77-.43-1.33,0-2.01,1.11-2.01,2.61v.16c0,1.46.6,2.61,1.73,2.61,1.27,0,2.05-1.38,2.05-2.79h0Z"/>
  <path class="st0" d="M669.38,266.5v-.39c0-3.43,1.33-5.36,2.81-5.36,1.09,0,1.83,1.01,2.26,2.24v-5.81h.86v14.52h-.86v-2.07c-.43,1.23-1.17,2.24-2.26,2.24-1.48,0-2.81-1.89-2.81-5.36h0ZM674.5,266.56v-.51c0-2.9-1.11-4.54-2.2-4.54s-2.05,1.66-2.05,4.62v.35c0,2.96.94,4.62,2.05,4.62s2.2-1.64,2.2-4.54h0Z"/>
  <path class="st0" d="M678.2,257.17h.94v1.44h-.94v-1.44ZM678.24,260.91h.86v10.78h-.86v-10.78Z"/>
  <path class="st0" d="M681.41,268.55v-.16c0-1.99,1.03-3.45,2.83-3.45.74,0,1.31.18,1.81.41v-1.36c0-1.5-.68-2.38-2.05-2.38-.76,0-1.36.14-1.99.49v-.84c.6-.29,1.27-.47,2.03-.47.86,0,1.56.25,2.1.78.45.45.78,1.27.78,2.32v7.8h-.86v-1.56c-.43,1.07-1.13,1.75-2.18,1.75-1.46,0-2.46-1.42-2.46-3.33h-.01ZM686.05,268.33v-2.16c-.57-.27-1.13-.43-1.77-.43-1.33,0-2.01,1.11-2.01,2.61v.16c0,1.46.6,2.61,1.73,2.61,1.27,0,2.05-1.38,2.05-2.79h0Z"/>
  <path class="st0" d="M693.61,266.5v-.18c0-3.74,1.38-5.57,2.96-5.57s2.81,1.91,2.81,5.28v.64h-4.91c.04,2.92,1.23,4.35,2.69,4.35.66,0,1.17-.16,1.87-.64l.1.88c-.76.43-1.25.57-2.1.57-1.81,0-3.43-1.77-3.43-5.34h0ZM698.54,265.9c0-2.48-.82-4.35-1.97-4.35s-2.01,1.5-2.09,4.35h4.07-.01Z"/>
  <path class="st0" d="M706.6,269.62c-.43,1.23-1.17,2.24-2.26,2.24-1.48,0-2.81-1.89-2.81-5.36v-.39c0-3.43,1.33-5.36,2.81-5.36,1.09,0,1.83,1.01,2.26,2.24v-2.07h.86v13.45h-.86v-4.74h0ZM706.64,266.56v-.51c0-2.9-1.11-4.54-2.2-4.54s-2.05,1.66-2.05,4.62v.35c0,2.96.94,4.62,2.05,4.62s2.2-1.64,2.2-4.54h0Z"/>
  <path class="st0" d="M710.27,268.45v-7.54h.86v7.45c0,1.79.64,2.75,1.77,2.75s2.05-1.17,2.05-2.92v-7.29h.86v10.78h-.86v-1.58c-.37.9-1.03,1.75-2.22,1.75-1.46,0-2.46-1.21-2.46-3.41h0Z"/>
  <path class="st0" d="M718.69,257.17h.94v1.44h-.94v-1.44ZM718.73,260.91h.86v10.78h-.86v-10.78Z"/>
  <path class="st0" d="M722.55,257.17h.86v14.52h-.86v-14.52Z"/>
  <path class="st0" d="M726.33,257.17h.94v1.44h-.94v-1.44ZM726.37,260.91h.86v10.78h-.86v-10.78Z"/>
  <path class="st0" d="M731,269.62v2.07h-.86v-14.52h.86v5.81c.43-1.23,1.17-2.24,2.26-2.24,1.48,0,2.81,1.89,2.81,5.36v.39c0,3.43-1.33,5.36-2.81,5.36-1.09,0-1.83-1.01-2.26-2.24h0ZM735.21,266.48v-.35c0-2.96-.94-4.62-2.05-4.62s-2.2,1.64-2.2,4.54v.51c0,2.9,1.11,4.54,2.2,4.54s2.05-1.66,2.05-4.62h0Z"/>
  <path class="st0" d="M738.59,260.91h.86v1.58c.41-.99,1.25-1.79,2.53-1.7v.92h-.04c-1.36,0-2.49.86-2.49,2.75v7.23h-.86v-10.78h0Z"/>
  <path class="st0" d="M743.55,268.55v-.16c0-1.99,1.03-3.45,2.83-3.45.74,0,1.31.18,1.81.41v-1.36c0-1.5-.68-2.38-2.05-2.38-.76,0-1.36.14-1.99.49v-.84c.6-.29,1.27-.47,2.03-.47.86,0,1.56.25,2.1.78.45.45.78,1.27.78,2.32v7.8h-.86v-1.56c-.43,1.07-1.13,1.75-2.18,1.75-1.46,0-2.46-1.42-2.46-3.33h-.01ZM748.19,268.33v-2.16c-.57-.27-1.13-.43-1.77-.43-1.33,0-2.01,1.11-2.01,2.61v.16c0,1.46.6,2.61,1.73,2.61,1.27,0,2.05-1.38,2.05-2.79h0Z"/>
  <path class="st0" d="M751.5,266.5v-.39c0-3.43,1.33-5.36,2.81-5.36,1.09,0,1.83,1.01,2.26,2.24v-5.81h.86v14.52h-.86v-2.07c-.43,1.23-1.17,2.24-2.26,2.24-1.48,0-2.81-1.89-2.81-5.36h0ZM756.62,266.56v-.51c0-2.9-1.11-4.54-2.2-4.54s-2.05,1.66-2.05,4.62v.35c0,2.96.94,4.62,2.05,4.62s2.2-1.64,2.2-4.54h0Z"/>
  <path class="st0" d="M759.7,268.55v-.16c0-1.99,1.03-3.45,2.83-3.45.74,0,1.31.18,1.81.41v-1.36c0-1.5-.68-2.38-2.05-2.38-.76,0-1.36.14-1.99.49v-.84c.6-.29,1.27-.47,2.03-.47.86,0,1.56.25,2.1.78.45.45.78,1.27.78,2.32v7.8h-.86v-1.56c-.43,1.07-1.13,1.75-2.18,1.75-1.46,0-2.46-1.42-2.46-3.33h-.01ZM764.35,268.33v-2.16c-.57-.27-1.13-.43-1.77-.43-1.33,0-2.01,1.11-2.01,2.61v.16c0,1.46.6,2.61,1.73,2.61,1.27,0,2.05-1.38,2.05-2.79h0Z"/>
  <path class="st0" d="M767.97,270.01h1.27v1.68h-1.27v-1.68Z"/>
  <path class="st0" d="M1.32,292.71c0-3.05,1.04-7.2,3.05-9.21.84-.84,1.67-1.12,2.44-1.12.65,0,1.23.19,1.66.48l-.19,1.04c-.41-.35-.95-.61-1.54-.61-.65,0-1.19.3-1.67.78-1.58,1.58-2.81,5.38-2.81,8.63,0,2.55.61,4.17,2.14,4.17.48,0,.93-.15,1.51-.5l-.19.99c-.32.22-.82.41-1.43.41-2.01,0-2.98-1.75-2.98-5.06h0Z"/>
  <path class="st0" d="M8.08,293.96c0-2.77,1-5.62,2.31-6.94.65-.65,1.36-.91,1.99-.91,1.49,0,2.49,1.41,2.49,3.85,0,2.77-.99,5.62-2.31,6.94-.65.65-1.36.91-1.99.91-1.49,0-2.49-1.41-2.49-3.85ZM11.93,296.34c1.17-1.17,2.03-4.04,2.03-6.42,0-1.88-.63-2.96-1.64-2.96-.48,0-.89.22-1.3.63-1.17,1.17-2.03,4.04-2.03,6.42,0,1.88.63,2.96,1.64,2.96.48,0,.89-.22,1.3-.63Z"/>
  <path class="st0" d="M18.42,286.29h.91l-.32,1.67c.63-1.08,1.49-1.84,2.62-1.84,1.23,0,2.05.89,2.05,2.4,0,.43-.04.97-.24,1.97l-1.38,7.16h-.91l1.41-7.24c.19-.99.22-1.47.22-1.86,0-1.06-.5-1.64-1.41-1.64-1.34,0-2.42,1.47-2.75,3.09l-1.49,7.66h-.91l2.21-11.35v-.02h-.01Z"/>
  <path class="st0" d="M25.59,296.28c0-.35.11-.91.15-1.12l1.56-8.02h-1.08l.17-.84h1.08l.61-3.2h.91l-.61,3.2h1.84l-.17.84h-1.84l-1.64,8.48c-.04.22-.06.39-.06.52,0,.48.26.74.86.74.3,0,.69-.11.87-.22l-.15.84c-.22.13-.58.24-.93.24-.93,0-1.56-.48-1.56-1.45h-.01Z"/>
  <path class="st0" d="M31.54,292.34c-.06.45-.09.89-.09,1.3,0,2.23.89,3.29,2.23,3.29.61,0,1.23-.22,1.88-.67l-.06.93c-.3.24-1.06.61-1.88.61-1.73,0-3.05-1.28-3.05-4.15,0-2.49.93-5.21,2.31-6.6.58-.58,1.23-.93,1.95-.93,1.34,0,2.25,1.17,2.25,3.42,0,.63-.11,1.6-.37,2.81h-5.17ZM31.67,291.54h4.3c.15-.71.22-1.36.22-2.08,0-1.51-.45-2.51-1.45-2.51-.43,0-.84.22-1.23.61-.87.86-1.51,2.4-1.84,3.98ZM36.54,282.37l.95.56-2.18,2.14h-.69l1.93-2.7h-.01Z"/>
  <path class="st0" d="M40.57,286.29h.91l-.32,1.67c.63-1.08,1.49-1.84,2.55-1.84s1.8.71,1.92,1.99c.82-1.34,1.8-1.99,2.88-1.99,1.17,0,1.99.89,1.99,2.4,0,.43-.04.97-.24,1.97l-1.38,7.16h-.91l1.41-7.24c.19-.99.22-1.47.22-1.86,0-1.06-.5-1.64-1.34-1.64-1.17,0-2.34,1.34-2.64,2.85l-1.54,7.89h-.91l1.41-7.24c.19-.99.22-1.47.22-1.86,0-1.06-.5-1.64-1.34-1.64-1.28,0-2.36,1.47-2.68,3.09l-1.49,7.66h-.91l2.21-11.35-.02-.02h0Z"/>
  <path class="st0" d="M57.05,296.28c0-.35.11-.91.15-1.12l1.56-8.02h-1.08l.17-.84h1.08l.61-3.2h.91l-.61,3.2h1.84l-.17.84h-1.84l-1.64,8.48c-.04.22-.06.39-.06.52,0,.48.26.74.86.74.3,0,.69-.11.87-.22l-.15.84c-.22.13-.58.24-.93.24-.93,0-1.56-.48-1.56-1.45h0Z"/>
  <path class="st0" d="M63.95,286.29h.91l-.32,1.67c.63-1.04,1.54-1.88,3.01-1.79l-.19.97h-.09c-1.56,0-2.75.91-3.14,2.9l-1.47,7.61h-.91l2.21-11.35h-.01Z"/>
  <path class="st0" d="M67.38,295.13c0-1.41.48-2.79,1.36-3.68.56-.56,1.32-.93,2.21-.93.78,0,1.47.22,2.05.56l.09-.48c.19-.99.24-1.38.24-1.79,0-1.04-.48-1.8-1.92-1.8-.61,0-1.28.13-1.97.43l.17-.89c.63-.28,1.47-.41,1.97-.41,1.69,0,2.66.95,2.66,2.55,0,.48-.06.99-.26,1.99l-1.34,6.94h-.91l.3-1.54c-.56.95-1.32,1.73-2.44,1.73-1.34,0-2.21-.95-2.21-2.7v.02h0ZM72.46,293.88l.37-1.92c-.5-.39-1.32-.58-1.95-.58s-1.12.24-1.51.63c-.74.74-1.08,1.99-1.08,3.14,0,1.3.61,1.9,1.54,1.9,1.36,0,2.31-1.47,2.64-3.16h-.01Z"/>
  <path class="st0" d="M76.3,299.59l1.51-1.95c-1.02-.41-1.75-1.6-1.75-3.65,0-2.49.91-5.36,2.4-6.86.63-.63,1.36-.99,2.16-.99.58,0,1.19.22,1.54.54l-.19.97c-.32-.37-.78-.65-1.41-.65-.54,0-1.04.26-1.47.69-1.32,1.32-2.12,4.15-2.12,6.08,0,2.36.87,3.16,1.86,3.16.5,0,.97-.19,1.43-.52l-.17.97c-.43.26-.91.41-1.41.41-.06,0-.13-.02-.19-.02l-1.23,2.25-.95-.43h0Z"/>
  <path class="st0" d="M82.64,293.96c0-2.77,1-5.62,2.31-6.94.65-.65,1.36-.91,1.99-.91,1.49,0,2.49,1.41,2.49,3.85,0,2.77-.99,5.62-2.31,6.94-.65.65-1.36.91-1.99.91-1.49,0-2.49-1.41-2.49-3.85ZM86.49,296.34c1.17-1.17,2.03-4.04,2.03-6.42,0-1.88-.63-2.96-1.64-2.96-.48,0-.89.22-1.3.63-1.17,1.17-2.03,4.04-2.03,6.42,0,1.88.63,2.96,1.64,2.96.48,0,.89-.22,1.3-.63Z"/>
  <path class="st0" d="M90.02,296.86l.24-.95c.69.61,1.54,1,2.31,1,1.04,0,1.84-.65,1.84-1.9,0-.69-.32-1.45-1.23-2.7-1.1-1.54-1.47-2.4-1.47-3.42,0-1.45.91-2.72,2.72-2.72.91,0,1.67.37,2.12.71l-.22.95c-.56-.48-1.28-.8-1.95-.8-1.1,0-1.77.71-1.77,1.82,0,.63.24,1.34,1.19,2.68,1.06,1.47,1.51,2.4,1.51,3.42,0,1.62-1,2.83-2.79,2.83-.89,0-1.71-.32-2.51-.91h.01Z"/>
  <path class="st0" d="M107.15,295.74c-.63,1.15-1.56,2.08-2.59,2.08-1.34,0-2.23-1.28-2.23-3.61s.78-5.67,2.36-7.24c.58-.58,1.17-.84,1.77-.84,1.21,0,1.88,1.12,2.05,2.51l1.23-6.27h.91l-2.96,15.29h-.91l.37-1.9v-.02h0ZM106.09,296.34c1.32-1.32,2.03-4.24,2.03-6.36,0-1.97-.69-3.07-1.64-3.07-.41,0-.8.19-1.19.58-1.32,1.32-2.05,4.54-2.05,6.73,0,1.79.56,2.79,1.49,2.79.45,0,.93-.24,1.36-.67Z"/>
  <path class="st0" d="M112.18,292.34c-.06.45-.09.89-.09,1.3,0,2.23.89,3.29,2.23,3.29.61,0,1.23-.22,1.88-.67l-.06.93c-.3.24-1.06.61-1.88.61-1.73,0-3.05-1.28-3.05-4.15,0-2.49.93-5.21,2.31-6.6.58-.58,1.23-.93,1.95-.93,1.34,0,2.25,1.17,2.25,3.42,0,.63-.11,1.6-.37,2.81h-5.17ZM112.31,291.54h4.3c.15-.71.22-1.36.22-2.08,0-1.51-.45-2.51-1.45-2.51-.43,0-.84.22-1.23.61-.87.86-1.51,2.4-1.84,3.98Z"/>
  <path class="st0" d="M124.05,293.98c0-2.49.91-5.36,2.4-6.86.63-.63,1.36-.99,2.16-.99.58,0,1.19.22,1.54.54l-.19.97c-.32-.37-.78-.65-1.41-.65-.54,0-1.04.26-1.47.69-1.32,1.32-2.12,4.15-2.12,6.08,0,2.36.87,3.16,1.86,3.16.5,0,.97-.19,1.43-.52l-.17.97c-.43.26-.91.41-1.41.41-1.43,0-2.62-1.21-2.62-3.81h0Z"/>
  <path class="st0" d="M130.63,293.96c0-2.77,1-5.62,2.31-6.94.65-.65,1.36-.91,1.99-.91,1.49,0,2.49,1.41,2.49,3.85,0,2.77-.99,5.62-2.31,6.94-.65.65-1.36.91-1.99.91-1.49,0-2.49-1.41-2.49-3.85ZM134.48,296.34c1.17-1.17,2.03-4.04,2.03-6.42,0-1.88-.63-2.96-1.64-2.96-.48,0-.89.22-1.3.63-1.17,1.17-2.03,4.04-2.03,6.42,0,1.88.63,2.96,1.64,2.96.48,0,.89-.22,1.3-.63Z"/>
  <path class="st0" d="M141.79,282.35h.91l-2.96,15.29h-.91l2.96-15.29Z"/>
  <path class="st0" d="M142.68,295.13c0-1.41.48-2.79,1.36-3.68.56-.56,1.32-.93,2.21-.93.78,0,1.47.22,2.05.56l.09-.48c.19-.99.24-1.38.24-1.79,0-1.04-.48-1.8-1.92-1.8-.61,0-1.28.13-1.97.43l.17-.89c.63-.28,1.47-.41,1.97-.41,1.69,0,2.66.95,2.66,2.55,0,.48-.06.99-.26,1.99l-1.34,6.94h-.91l.3-1.54c-.56.95-1.32,1.73-2.44,1.73-1.34,0-2.21-.95-2.21-2.7v.02h0ZM147.76,293.88l.37-1.92c-.5-.39-1.32-.58-1.95-.58s-1.12.24-1.51.63c-.74.74-1.08,1.99-1.08,3.14,0,1.3.61,1.9,1.54,1.9,1.36,0,2.31-1.47,2.64-3.16h0Z"/>
  <path class="st0" d="M152.29,295.3l-.48,2.34h-.91l2.96-15.29h.91l-1.12,5.84c.63-1.15,1.56-2.08,2.59-2.08,1.34,0,2.23,1.28,2.23,3.61s-.78,5.67-2.36,7.24c-.58.58-1.17.84-1.77.84-1.21,0-1.88-1.12-2.05-2.51h0ZM155.51,296.43c1.32-1.32,2.05-4.54,2.05-6.73,0-1.79-.56-2.79-1.49-2.79-.45,0-.93.24-1.36.67-1.32,1.32-2.03,4.24-2.03,6.36,0,1.97.69,3.07,1.64,3.07.41,0,.8-.19,1.19-.58Z"/>
  <path class="st0" d="M160.35,293.96c0-2.77,1-5.62,2.31-6.94.65-.65,1.36-.91,1.99-.91,1.49,0,2.49,1.41,2.49,3.85,0,2.77-.99,5.62-2.31,6.94-.65.65-1.36.91-1.99.91-1.49,0-2.49-1.41-2.49-3.85ZM164.2,296.34c1.17-1.17,2.03-4.04,2.03-6.42,0-1.88-.63-2.96-1.64-2.96-.48,0-.89.22-1.3.63-1.17,1.17-2.03,4.04-2.03,6.42,0,1.88.63,2.96,1.64,2.96.48,0,.89-.22,1.3-.63Z"/>
  <path class="st0" d="M170.69,286.29h.91l-.32,1.67c.63-1.04,1.54-1.88,3.01-1.79l-.19.97h-.09c-1.56,0-2.75.91-3.14,2.9l-1.47,7.61h-.91l2.21-11.35h0Z"/>
  <path class="st0" d="M174.12,295.13c0-1.41.48-2.79,1.36-3.68.56-.56,1.32-.93,2.21-.93.78,0,1.47.22,2.05.56l.09-.48c.19-.99.24-1.38.24-1.79,0-1.04-.48-1.8-1.92-1.8-.61,0-1.28.13-1.97.43l.17-.89c.63-.28,1.47-.41,1.97-.41,1.69,0,2.66.95,2.66,2.55,0,.48-.06.99-.26,1.99l-1.34,6.94h-.91l.3-1.54c-.56.95-1.32,1.73-2.44,1.73-1.34,0-2.21-.95-2.21-2.7v.02h0ZM179.21,293.88l.37-1.92c-.5-.39-1.32-.58-1.95-.58s-1.12.24-1.51.63c-.74.74-1.08,1.99-1.08,3.14,0,1.3.61,1.9,1.54,1.9,1.36,0,2.31-1.47,2.64-3.16h0Z"/>
  <path class="st0" d="M183.04,299.59l1.51-1.95c-1.02-.41-1.75-1.6-1.75-3.65,0-2.49.91-5.36,2.4-6.86.63-.63,1.36-.99,2.16-.99.58,0,1.19.22,1.54.54l-.19.97c-.32-.37-.78-.65-1.41-.65-.54,0-1.04.26-1.47.69-1.32,1.32-2.12,4.15-2.12,6.08,0,2.36.87,3.16,1.86,3.16.5,0,.97-.19,1.43-.52l-.17.97c-.43.26-.91.41-1.41.41-.06,0-.13-.02-.19-.02l-1.23,2.25-.95-.43h0Z"/>
  <path class="st0" d="M189.38,293.96c0-2.77,1-5.62,2.31-6.94.65-.65,1.36-.91,1.99-.91,1.49,0,2.49,1.41,2.49,3.85,0,2.77-.99,5.62-2.31,6.94-.65.65-1.36.91-1.99.91-1.49,0-2.49-1.41-2.49-3.85ZM193.23,296.34c1.17-1.17,2.03-4.04,2.03-6.42,0-1.88-.63-2.96-1.64-2.96-.48,0-.89.22-1.3.63-1.17,1.17-2.03,4.04-2.03,6.42,0,1.88.63,2.96,1.64,2.96.48,0,.89-.22,1.3-.63ZM196.39,283.41c-.39,1.08-.8,1.62-1.41,1.62-.39,0-.65-.19-.95-.54-.35-.39-.48-.52-.67-.52-.26,0-.52.37-.76.99l-.63-.19c.39-1.08.8-1.62,1.41-1.62.39,0,.65.19.95.54.35.39.48.52.67.52.26,0,.52-.37.76-.99l.63.19Z"/>
  <path class="st0" d="M198.95,292.34c-.06.45-.09.89-.09,1.3,0,2.23.89,3.29,2.23,3.29.61,0,1.23-.22,1.88-.67l-.06.93c-.3.24-1.06.61-1.88.61-1.73,0-3.05-1.28-3.05-4.15,0-2.49.93-5.21,2.31-6.6.58-.58,1.23-.93,1.95-.93,1.34,0,2.25,1.17,2.25,3.42,0,.63-.11,1.6-.37,2.81h-5.17ZM199.08,291.54h4.3c.15-.71.22-1.36.22-2.08,0-1.51-.45-2.51-1.45-2.51-.43,0-.84.22-1.23.61-.87.86-1.51,2.4-1.84,3.98h0Z"/>
  <path class="st0" d="M205.08,296.86l.24-.95c.69.61,1.54,1,2.31,1,1.04,0,1.84-.65,1.84-1.9,0-.69-.32-1.45-1.23-2.7-1.1-1.54-1.47-2.4-1.47-3.42,0-1.45.91-2.72,2.72-2.72.91,0,1.67.37,2.12.71l-.22.95c-.56-.48-1.28-.8-1.95-.8-1.1,0-1.77.71-1.77,1.82,0,.63.24,1.34,1.19,2.68,1.06,1.47,1.51,2.4,1.51,3.42,0,1.62-1,2.83-2.79,2.83-.89,0-1.71-.32-2.51-.91h0Z"/>
  <path class="st0" d="M219.2,286.29h.91l-2.21,11.35h-.91l2.21-11.35ZM219.91,282.35h.99l-.28,1.51h-1l.28-1.51h0Z"/>
  <path class="st0" d="M223.24,286.29h.91l-.32,1.67c.63-1.08,1.49-1.84,2.62-1.84,1.23,0,2.05.89,2.05,2.4,0,.43-.04.97-.24,1.97l-1.38,7.16h-.91l1.41-7.24c.19-.99.22-1.47.22-1.86,0-1.06-.5-1.64-1.41-1.64-1.34,0-2.42,1.47-2.75,3.09l-1.49,7.66h-.91l2.21-11.35v-.02h0Z"/>
  <path class="st0" d="M230.4,296.28c0-.35.11-.91.15-1.12l1.56-8.02h-1.08l.17-.84h1.08l.61-3.2h.91l-.61,3.2h1.84l-.17.84h-1.84l-1.64,8.48c-.04.22-.06.39-.06.52,0,.48.26.74.86.74.3,0,.69-.11.87-.22l-.15.84c-.22.13-.58.24-.93.24-.93,0-1.56-.48-1.56-1.45h-.01Z"/>
  <path class="st0" d="M236.36,292.34c-.06.45-.09.89-.09,1.3,0,2.23.89,3.29,2.23,3.29.61,0,1.23-.22,1.88-.67l-.06.93c-.3.24-1.06.61-1.88.61-1.73,0-3.05-1.28-3.05-4.15,0-2.49.93-5.21,2.31-6.6.58-.58,1.23-.93,1.95-.93,1.34,0,2.25,1.17,2.25,3.42,0,.63-.11,1.6-.37,2.81h-5.17ZM236.49,291.54h4.3c.15-.71.22-1.36.22-2.08,0-1.51-.45-2.51-1.45-2.51-.43,0-.84.22-1.23.61-.87.86-1.51,2.4-1.84,3.98h0Z"/>
  <path class="st0" d="M245.38,286.29h.91l-.32,1.67c.63-1.08,1.49-1.84,2.62-1.84,1.23,0,2.05.89,2.05,2.4,0,.43-.04.97-.24,1.97l-1.38,7.16h-.91l1.41-7.24c.19-.99.22-1.47.22-1.86,0-1.06-.5-1.64-1.41-1.64-1.34,0-2.42,1.47-2.75,3.09l-1.49,7.66h-.91l2.21-11.35v-.02h0Z"/>
  <path class="st0" d="M251.31,296.86l.24-.95c.69.61,1.54,1,2.31,1,1.04,0,1.84-.65,1.84-1.9,0-.69-.32-1.45-1.23-2.7-1.1-1.54-1.47-2.4-1.47-3.42,0-1.45.91-2.72,2.72-2.72.91,0,1.67.37,2.12.71l-.22.95c-.56-.48-1.28-.8-1.95-.8-1.1,0-1.77.71-1.77,1.82,0,.63.24,1.34,1.19,2.68,1.06,1.47,1.51,2.4,1.51,3.42,0,1.62-1,2.83-2.79,2.83-.89,0-1.71-.32-2.51-.91h0Z"/>
  <path class="st0" d="M258.53,295.13c0-1.41.48-2.79,1.36-3.68.56-.56,1.32-.93,2.21-.93.78,0,1.47.22,2.05.56l.09-.48c.19-.99.24-1.38.24-1.79,0-1.04-.48-1.8-1.92-1.8-.61,0-1.28.13-1.97.43l.17-.89c.63-.28,1.47-.41,1.97-.41,1.69,0,2.66.95,2.66,2.55,0,.48-.06.99-.26,1.99l-1.34,6.94h-.91l.3-1.54c-.56.95-1.32,1.73-2.44,1.73-1.34,0-2.21-.95-2.21-2.7v.02h0ZM263.61,293.88l.37-1.92c-.5-.39-1.32-.58-1.95-.58s-1.12.24-1.51.63c-.74.74-1.08,1.99-1.08,3.14,0,1.3.61,1.9,1.54,1.9,1.36,0,2.31-1.47,2.64-3.16h-.01Z"/>
  <path class="st0" d="M266.08,296.86l.24-.95c.69.61,1.54,1,2.31,1,1.04,0,1.84-.65,1.84-1.9,0-.69-.32-1.45-1.23-2.7-1.1-1.54-1.47-2.4-1.47-3.42,0-1.45.91-2.72,2.72-2.72.91,0,1.67.37,2.12.71l-.22.95c-.56-.48-1.28-.8-1.95-.8-1.1,0-1.77.71-1.77,1.82,0,.63.24,1.34,1.19,2.68,1.06,1.47,1.51,2.4,1.51,3.42,0,1.62-1,2.83-2.79,2.83-.89,0-1.71-.32-2.51-.91h.01Z"/>
  <path class="st0" d="M279.32,292.34c-.06.45-.09.89-.09,1.3,0,2.23.89,3.29,2.23,3.29.61,0,1.23-.22,1.88-.67l-.06.93c-.3.24-1.06.61-1.88.61-1.73,0-3.05-1.28-3.05-4.15,0-2.49.93-5.21,2.31-6.6.58-.58,1.23-.93,1.95-.93,1.34,0,2.25,1.17,2.25,3.42,0,.63-.11,1.6-.37,2.81h-5.17ZM279.45,291.54h4.3c.15-.71.22-1.36.22-2.08,0-1.51-.45-2.51-1.45-2.51-.43,0-.84.22-1.23.61-.87.86-1.51,2.4-1.84,3.98h0Z"/>
  <path class="st0" d="M292.92,286.29h.91l-.32,1.67c.63-1.08,1.49-1.84,2.62-1.84,1.23,0,2.05.89,2.05,2.4,0,.43-.04.97-.24,1.97l-1.38,7.16h-.91l1.41-7.24c.19-.99.22-1.47.22-1.86,0-1.06-.5-1.64-1.41-1.64-1.34,0-2.42,1.47-2.75,3.09l-1.49,7.66h-.91l2.21-11.35v-.02h0Z"/>
  <path class="st0" d="M299.99,293.96c0-2.77,1-5.62,2.31-6.94.65-.65,1.36-.91,1.99-.91,1.49,0,2.49,1.41,2.49,3.85,0,2.77-.99,5.62-2.31,6.94-.65.65-1.36.91-1.99.91-1.49,0-2.49-1.41-2.49-3.85ZM303.84,296.34c1.17-1.17,2.03-4.04,2.03-6.42,0-1.88-.63-2.96-1.64-2.96-.48,0-.89.22-1.3.63-1.17,1.17-2.03,4.04-2.03,6.42,0,1.88.63,2.96,1.64,2.96.48,0,.89-.22,1.3-.63Z"/>
  <path class="st0" d="M310.39,286.29h.91l-2.21,11.35h-.91l2.21-11.35ZM311.1,282.35h.99l-.28,1.51h-1l.28-1.51h.01Z"/>
  <path class="st0" d="M312.79,296.28c0-.35.11-.91.15-1.12l1.56-8.02h-1.08l.17-.84h1.08l.61-3.2h.91l-.61,3.2h1.84l-.17.84h-1.84l-1.64,8.48c-.04.22-.06.39-.06.52,0,.48.26.74.86.74.3,0,.69-.11.87-.22l-.15.84c-.22.13-.58.24-.93.24-.93,0-1.56-.48-1.56-1.45h0Z"/>
  <path class="st0" d="M318.74,292.34c-.06.45-.09.89-.09,1.3,0,2.23.89,3.29,2.23,3.29.61,0,1.23-.22,1.88-.67l-.06.93c-.3.24-1.06.61-1.88.61-1.73,0-3.05-1.28-3.05-4.15,0-2.49.93-5.21,2.31-6.6.58-.58,1.23-.93,1.95-.93,1.34,0,2.25,1.17,2.25,3.42,0,.63-.11,1.6-.37,2.81h-5.17ZM318.87,291.54h4.3c.15-.71.22-1.36.22-2.08,0-1.51-.45-2.51-1.45-2.51-.43,0-.84.22-1.23.61-.87.86-1.51,2.4-1.84,3.98h0Z"/>
  <path class="st0" d="M324.87,296.86l.24-.95c.69.61,1.54,1,2.31,1,1.04,0,1.84-.65,1.84-1.9,0-.69-.32-1.45-1.23-2.7-1.1-1.54-1.47-2.4-1.47-3.42,0-1.45.91-2.72,2.72-2.72.91,0,1.67.37,2.12.71l-.22.95c-.56-.48-1.28-.8-1.95-.8-1.1,0-1.77.71-1.77,1.82,0,.63.24,1.34,1.19,2.68,1.06,1.47,1.51,2.4,1.51,3.42,0,1.62-1,2.83-2.79,2.83-.89,0-1.71-.32-2.51-.91h.01Z"/>
  <path class="st0" d="M338.85,286.29h.91l-.32,1.67c.63-1.08,1.49-1.84,2.55-1.84s1.8.71,1.92,1.99c.82-1.34,1.8-1.99,2.88-1.99,1.17,0,1.99.89,1.99,2.4,0,.43-.04.97-.24,1.97l-1.38,7.16h-.91l1.41-7.24c.19-.99.22-1.47.22-1.86,0-1.06-.5-1.64-1.34-1.64-1.17,0-2.34,1.34-2.64,2.85l-1.54,7.89h-.91l1.41-7.24c.19-.99.22-1.47.22-1.86,0-1.06-.5-1.64-1.34-1.64-1.28,0-2.36,1.47-2.68,3.09l-1.49,7.66h-.91l2.21-11.35-.02-.02h0Z"/>
  <path class="st0" d="M350.02,295.13c0-1.41.48-2.79,1.36-3.68.56-.56,1.32-.93,2.21-.93.78,0,1.47.22,2.05.56l.09-.48c.19-.99.24-1.38.24-1.79,0-1.04-.48-1.8-1.92-1.8-.61,0-1.28.13-1.97.43l.17-.89c.63-.28,1.47-.41,1.97-.41,1.69,0,2.66.95,2.66,2.55,0,.48-.06.99-.26,1.99l-1.34,6.94h-.91l.3-1.54c-.56.95-1.32,1.73-2.44,1.73-1.34,0-2.21-.95-2.21-2.7v.02h0ZM355.1,293.88l.37-1.92c-.5-.39-1.32-.58-1.95-.58s-1.12.24-1.51.63c-.74.74-1.08,1.99-1.08,3.14,0,1.3.61,1.9,1.54,1.9,1.36,0,2.31-1.47,2.64-3.16h-.01Z"/>
  <path class="st0" d="M361.26,282.35h.91l-2.96,15.29h-.91l2.96-15.29Z"/>
  <path class="st0" d="M372.27,295.74c-.63,1.15-1.56,2.08-2.59,2.08-1.34,0-2.23-1.28-2.23-3.61s.78-5.67,2.36-7.24c.58-.58,1.17-.84,1.77-.84,1.21,0,1.88,1.12,2.05,2.51l1.23-6.27h.91l-2.96,15.29h-.91l.37-1.9v-.02h0ZM371.21,296.34c1.32-1.32,2.03-4.24,2.03-6.36,0-1.97-.69-3.07-1.64-3.07-.41,0-.8.19-1.19.58-1.32,1.32-2.05,4.54-2.05,6.73,0,1.79.56,2.79,1.49,2.79.45,0,.93-.24,1.36-.67h0Z"/>
  <path class="st0" d="M376.33,293.96c0-2.77,1-5.62,2.31-6.94.65-.65,1.36-.91,1.99-.91,1.49,0,2.49,1.41,2.49,3.85,0,2.77-.99,5.62-2.31,6.94-.65.65-1.36.91-1.99.91-1.49,0-2.49-1.41-2.49-3.85ZM380.18,296.34c1.17-1.17,2.03-4.04,2.03-6.42,0-1.88-.63-2.96-1.64-2.96-.48,0-.89.22-1.3.63-1.17,1.17-2.03,4.04-2.03,6.42,0,1.88.63,2.96,1.64,2.96.48,0,.89-.22,1.3-.63Z"/>
  <path class="st0" d="M386.67,286.29h.91l-.32,1.67c.63-1.04,1.54-1.88,3.01-1.79l-.19.97h-.09c-1.56,0-2.75.91-3.14,2.9l-1.47,7.61h-.91l2.21-11.35h0Z"/>
  <path class="st0" d="M392.34,286.29h.91l-.32,1.67c.63-1.08,1.49-1.84,2.55-1.84s1.8.71,1.92,1.99c.82-1.34,1.8-1.99,2.88-1.99,1.17,0,1.99.89,1.99,2.4,0,.43-.04.97-.24,1.97l-1.38,7.16h-.91l1.41-7.24c.19-.99.22-1.47.22-1.86,0-1.06-.5-1.64-1.34-1.64-1.17,0-2.34,1.34-2.64,2.85l-1.54,7.89h-.91l1.41-7.24c.19-.99.22-1.47.22-1.86,0-1.06-.5-1.64-1.34-1.64-1.28,0-2.36,1.47-2.68,3.09l-1.49,7.66h-.91l2.21-11.35-.02-.02h0Z"/>
  <path class="st0" d="M405.9,286.29h.91l-2.21,11.35h-.91l2.21-11.35ZM406.61,282.35h.99l-.28,1.51h-.99l.28-1.51Z"/>
  <path class="st0" d="M413.04,295.74c-.63,1.15-1.56,2.08-2.59,2.08-1.34,0-2.23-1.28-2.23-3.61s.78-5.67,2.36-7.24c.58-.58,1.17-.84,1.77-.84,1.21,0,1.88,1.12,2.05,2.51l1.23-6.27h.91l-2.96,15.29h-.91l.37-1.9v-.02h0ZM411.98,296.34c1.32-1.32,2.03-4.24,2.03-6.36,0-1.97-.69-3.07-1.64-3.07-.41,0-.8.19-1.19.58-1.32,1.32-2.05,4.54-2.05,6.73,0,1.79.56,2.79,1.49,2.79.45,0,.93-.24,1.36-.67h0Z"/>
  <path class="st0" d="M416.47,295.13c0-1.41.48-2.79,1.36-3.68.56-.56,1.32-.93,2.21-.93.78,0,1.47.22,2.05.56l.09-.48c.19-.99.24-1.38.24-1.79,0-1.04-.48-1.8-1.92-1.8-.61,0-1.28.13-1.97.43l.17-.89c.63-.28,1.47-.41,1.97-.41,1.69,0,2.66.95,2.66,2.55,0,.48-.06.99-.26,1.99l-1.34,6.94h-.91l.3-1.54c-.56.95-1.32,1.73-2.44,1.73-1.34,0-2.21-.95-2.21-2.7v.02h0ZM421.56,293.88l.37-1.92c-.5-.39-1.32-.58-1.95-.58s-1.12.24-1.51.63c-.74.74-1.08,1.99-1.08,3.14,0,1.3.61,1.9,1.54,1.9,1.36,0,2.31-1.47,2.64-3.16h-.01Z"/>
  <path class="st0" d="M424.03,296.86l.24-.95c.69.61,1.54,1,2.31,1,1.04,0,1.84-.65,1.84-1.9,0-.69-.32-1.45-1.23-2.7-1.1-1.54-1.47-2.4-1.47-3.42,0-1.45.91-2.72,2.72-2.72.91,0,1.67.37,2.12.71l-.22.95c-.56-.48-1.28-.8-1.95-.8-1.1,0-1.77.71-1.77,1.82,0,.63.24,1.34,1.19,2.68,1.06,1.47,1.51,2.4,1.51,3.42,0,1.62-1,2.83-2.79,2.83-.89,0-1.71-.32-2.51-.91h.01Z"/>
  <path class="st0" d="M431.71,295.87h1.34l-.35,1.77h-1.34l.35-1.77Z"/>
</svg>