<?xml version="1.0" encoding="UTF-8"?>
<svg id="a" xmlns="http://www.w3.org/2000/svg" viewBox="0 0 2667.85 2667.85">
  <path d="M2654.3,1412.42l-127.17-78.35v-.3l127.17-78.35c19.76-12.17,17.44-41.59-3.98-50.52l-137.86-57.49c-.02-.13-.03-.17-.05-.3l113.35-97.28c17.61-15.11,10.72-43.81-11.83-49.28l-145.16-35.21c-.04-.13-.05-.16-.09-.29l96.74-113.81c15.03-17.68,3.73-44.95-19.39-46.82l-148.88-12.07c-.06-.12-.08-.15-.14-.27l77.74-127.54c12.08-19.81-3.34-44.98-26.48-43.21l-148.93,11.36c-.08-.11-.1-.14-.18-.25l56.83-138.13c8.83-21.46-10.34-43.9-32.91-38.54l-145.32,34.52c-.09-.09-.12-.12-.21-.21l34.52-145.32c5.36-22.58-17.08-41.74-38.54-32.91l-138.13,56.83c-.11-.08-.14-.1-.25-.18l11.36-148.93c1.77-23.14-23.4-38.56-43.21-26.48l-127.54,77.74c-.12-.06-.15-.08-.27-.14l-12.07-148.88c-1.88-23.13-29.14-34.42-46.82-19.39l-113.81,96.74c-.13-.04-.16-.05-.29-.09l-35.21-145.16c-5.47-22.55-34.17-29.44-49.28-11.83l-97.28,113.35c-.13-.02-.17-.03-.3-.05l-57.49-137.86c-8.93-21.42-38.35-23.73-50.52-3.98l-78.35,127.17h-.3l-78.35-127.17c-12.17-19.76-41.59-17.44-50.52,3.98l-57.49,137.86c-.13.02-.17.03-.3.05l-97.28-113.35c-15.11-17.61-43.81-10.72-49.28,11.83l-35.21,145.16c-.13.04-.16.05-.29.09l-113.81-96.74c-17.68-15.03-44.95-3.73-46.82,19.39l-12.07,148.88c-.12.06-.15.08-.27.14l-127.54-77.74c-19.81-12.08-44.98,3.34-43.21,26.48l11.36,148.93c-.11.08-.14.1-.25.18l-138.13-56.83c-21.46-8.83-43.9,10.34-38.54,32.91l34.52,145.32-.21.21-145.32-34.52c-22.58-5.36-41.74,17.08-32.91,38.54l56.83,138.13c-.08.11-.1.14-.18.25l-148.93-11.36c-23.14-1.77-38.56,23.4-26.48,43.21l77.74,127.54c-.06.12-.08.15-.14.27l-148.88,12.07c-23.13,1.88-34.42,29.14-19.39,46.82l96.74,113.81c-.04.13-.05.16-.09.29l-145.16,35.21c-22.55,5.47-29.44,34.17-11.83,49.28l113.35,97.28c-.02.13-.03.17-.05.3l-137.86,57.49c-21.42,8.93-23.73,38.35-3.98,50.52l127.17,78.35v.3l-127.17,78.35c-19.76,12.17-17.44,41.59,3.98,50.52l137.86,57.49c.02.13.03.17.05.3l-113.35,97.28c-17.61,15.11-10.72,43.81,11.83,49.28l145.16,35.21c.04.13.05.16.09.29l-96.74,113.81c-15.03,17.68-3.73,44.95,19.39,46.82l148.88,12.07c.06.12.08.15.14.27l-77.74,127.54c-12.08,19.81,3.34,44.98,26.48,43.21l148.93-11.36c.08.11.1.14.18.25l-56.83,138.13c-8.83,21.46,10.34,43.9,32.91,38.54l145.32-34.52.21.21-34.52,145.32c-5.36,22.58,17.08,41.74,38.54,32.91l138.13-56.83c.11.08.14.1.25.18l-11.36,148.93c-1.77,23.14,23.4,38.56,43.21,26.48l127.54-77.74c.12.06.15.08.27.14l12.07,148.88c1.88,23.13,29.14,34.42,46.82,19.39l113.81-96.74c.13.04.16.05.29.09l35.21,145.16c5.47,22.55,34.17,29.44,49.28,11.83l97.28-113.35c.13.02.17.03.3.05l57.49,137.86c8.93,21.42,38.35,23.73,50.52,3.98l78.35-127.17h.3l78.35,127.17c12.17,19.76,41.59,17.44,50.52-3.98l57.49-137.86c.13-.02.17-.03.3-.05l97.28,113.35c15.11,17.61,43.81,10.72,49.28-11.83l35.21-145.16c.13-.04.16-.05.29-.09l113.81,96.74c17.68,15.03,44.95,3.73,46.82-19.39l12.07-148.88c.12-.06.15-.08.27-.14l127.54,77.74c19.81,12.08,44.98-3.34,43.21-26.48l-11.36-148.93c.11-.08.14-.1.25-.18l138.13,56.83c21.46,8.83,43.9-10.34,38.54-32.91l-34.52-145.32.21-.21,145.32,34.52c22.58,5.36,41.74-17.08,32.91-38.54l-56.83-138.13c.08-.11.1-.14.18-.25l148.93,11.36c23.14,1.77,38.56-23.4,26.48-43.21l-77.74-127.54c.06-.12.08-.15.14-.27l148.88-12.07c23.13-1.88,34.42-29.14,19.39-46.82l-96.74-113.81c.04-.13.05-.16.09-.29l145.16-35.21c22.55-5.47,29.44-34.17,11.83-49.28l-113.35-97.28c.02-.13.03-.17.05-.3l137.86-57.49c21.42-8.93,23.73-38.35,3.98-50.52h0ZM2312.91,1357.56l-101.79,68.43c-.01.11-.02.16-.03.27l85.33,88.1c14.07,14.53,8.94,38.68-9.83,46.23l-113.79,45.77c-.03.11-.05.15-.08.26l65.15,103.91c10.74,17.13.7,39.69-19.22,43.17l-120.82,21.11c-.06.1-.08.14-.14.24l42.12,115.19c6.95,18.99-7.57,38.97-27.78,38.23l-122.57-4.47c-.07.08-.11.12-.18.2l17.25,121.43c2.85,20.02-15.51,36.55-35.12,31.62l-118.96-29.85c-.09.07-.13.1-.22.16l-8.37,122.36c-1.38,20.18-22.77,32.52-40.93,23.63l-110.16-53.93c-.1.05-.15.07-.25.11l-33.63,117.95c-5.54,19.45-29.03,27.08-44.95,14.6l-96.54-75.66c-.11.02-.16.03-.27.06l-57.42,108.38c-9.47,17.87-34.03,20.45-47,4.94l-78.7-94.08h-.27l-78.7,94.08c-12.98,15.51-37.53,12.93-47-4.94l-57.42-108.38c-.11-.02-.16-.03-.27-.06l-96.54,75.66c-15.92,12.48-39.4,4.84-44.95-14.6l-33.63-117.95c-.1-.05-.15-.07-.25-.11l-110.16,53.93c-18.16,8.89-39.55-3.45-40.93-23.63l-8.37-122.36c-.09-.07-.13-.1-.22-.16l-118.96,29.85c-19.62,4.92-37.97-11.6-35.12-31.62l17.25-121.43c-.07-.08-.11-.12-.18-.2l-122.57,4.47c-20.21.74-34.72-19.24-27.78-38.23l42.12-115.19c-.06-.1-.08-.14-.14-.24l-120.82-21.11c-19.92-3.48-29.97-26.04-19.22-43.17l65.15-103.91c-.03-.11-.05-.15-.08-.26l-113.79-45.77c-18.76-7.55-23.9-31.7-9.83-46.23l85.33-88.1c-.01-.11-.02-.16-.03-.27l-101.79-68.43c-16.78-11.28-16.78-35.98,0-47.26l101.79-68.43c.01-.11.02-.16.03-.27l-85.33-88.1c-14.07-14.53-8.94-38.68,9.83-46.23l113.79-45.77c.03-.11.05-.15.08-.26l-65.15-103.91c-10.74-17.13-.7-39.69,19.22-43.18l120.82-21.11c.06-.1.08-.14.14-.24l-42.12-115.19c-6.95-18.99,7.57-38.97,27.78-38.23l122.57,4.47c.07-.08.11-.12.18-.2l-17.25-121.43c-2.85-20.02,15.51-36.55,35.12-31.62l118.96,29.85c.09-.07.13-.1.22-.16l8.37-122.36c1.38-20.18,22.77-32.52,40.93-23.63l110.16,53.93c.1-.05.15-.07.25-.11l33.63-117.95c5.55-19.45,29.03-27.08,44.95-14.6l96.54,75.66c.11-.02.16-.03.27-.06l57.42-108.38c9.47-17.87,34.03-20.45,47-4.94l78.7,94.08h.27l78.7-94.08c12.98-15.51,37.53-12.93,47,4.94l57.42,108.38c.11.02.16.03.27.06l96.54-75.66c15.92-12.48,39.4-4.84,44.95,14.6l33.63,117.95c.1.05.15.07.25.11l110.16-53.93c18.16-8.89,39.55,3.45,40.93,23.63l8.37,122.36c.09.07.13.1.22.16l118.96-29.85c19.62-4.92,37.97,11.6,35.12,31.62l-17.25,121.43c.07.08.11.12.18.2l122.57-4.47c20.21-.74,34.72,19.24,27.78,38.23l-42.12,115.19c.06.1.08.14.14.24l120.82,21.11c19.92,3.48,29.97,26.04,19.22,43.18l-65.15,103.91c.03.11.05.15.08.26l113.79,45.77c18.76,7.55,23.9,31.7,9.83,46.23l-85.33,88.1c.01.11.02.16.03.27l101.79,68.43c16.78,11.28,16.78,35.98,0,47.26h0Z" fill="#f33"/>
</svg>