<?xml version="1.0" encoding="UTF-8"?>
<svg id="a" xmlns="http://www.w3.org/2000/svg" version="1.1" viewBox="0 0 113 175.84">
  <!-- Generator: Adobe Illustrator 30.2.1, SVG Export Plug-In . SVG Version: 2.1.1 Build 1)  -->
  <defs>
    <style>
      .st0, .st1 {
        fill: #2a2a2a;
      }

      .st1 {
        fill-rule: evenodd;
      }

      .st2 {
        fill: #e5e1c3;
      }
    </style>
  </defs>
  <rect class="st2" x="2.08" y="2.08" width="108.85" height="171.68" rx="7.15" ry="7.15"/>
  <path class="st0" d="M103.78,0H9.22C4.15,0,0,4.15,0,9.23v157.39c0,5.07,4.15,9.22,9.22,9.22h94.56c5.07,0,9.22-4.15,9.22-9.22V9.23C113,4.16,108.85,0,103.78,0h0ZM110.92,166.61c0,3.94-3.21,7.15-7.15,7.15H9.22c-3.94,0-7.15-3.21-7.15-7.15V9.23c0-3.94,3.21-7.15,7.15-7.15h94.56c3.94,0,7.15,3.21,7.15,7.15v157.39h-.01Z"/>
  <path class="st1" d="M13.41,90h86.12c3.99,0,7.25,3.44,7.25,7.64v22.45c0,4.2-3.26,7.64-7.25,7.64H13.41c-3.99,0-7.25-3.44-7.25-7.64v-22.45c0-4.2,3.26-7.64,7.25-7.64Z"/>
  <path class="st1" d="M13.41,48.11h86.12c3.99,0,7.25,3.44,7.25,7.64v22.45c0,4.2-3.26,7.64-7.25,7.64H13.41c-3.99,0-7.25-3.44-7.25-7.64v-22.45c0-4.2,3.26-7.64,7.25-7.64Z"/>
  <path class="st0" d="M48.43,31.37h-2.26l-.9-2.85h-4.13l-.85,2.85h-2.21l4.02-12.58h2.21l4.13,12.58h-.01ZM44.6,26.39l-1.42-4.67-1.4,4.67h2.82Z"/>
  <path class="st0" d="M49.58,31.37v-12.47h2.08v10.35h5.18v2.13h-7.26Z"/>
  <path class="st0" d="M59.59,31.37v-10.45h-3.06v-2.13h8.19v2.13h-3.05v10.45h-2.08Z"/>
  <path class="st0" d="M65.4,25.16c0-1.5.22-2.73.66-3.7.44-.97,1.02-1.69,1.74-2.17.71-.47,1.58-.71,2.6-.71,1.48,0,2.68.56,3.61,1.69.93,1.13,1.39,2.73,1.39,4.81s-.49,3.75-1.48,4.93c-.86,1.05-2.04,1.57-3.52,1.57s-2.67-.52-3.53-1.55c-.98-1.18-1.48-2.81-1.48-4.87h.01ZM67.54,25.07c0,1.45.27,2.53.82,3.26s1.23,1.09,2.04,1.09,1.5-.36,2.04-1.08.81-1.82.81-3.31-.26-2.54-.79-3.23-1.21-1.05-2.06-1.05-1.54.35-2.07,1.06c-.53.7-.8,1.79-.8,3.27h.01Z"/>
  <path class="st0" d="M81.05,31.37v-12.58h7.65v2.13h-5.58v2.79h5.18v2.12h-5.18v3.41h5.77v2.13h-7.84Z"/>
  <path class="st0" d="M90.62,31.37v-12.58h3.11l1.87,8.59,1.86-8.59h3.13v12.58h-1.94v-9.91l-2.06,9.91h-2l-2.04-9.91v9.91h-1.94.01Z"/>
  <path class="st0" d="M28.27,7.72c-5.3-3.06-12.08-1.24-15.15,4.06-2.79,4.83-1.52,10.87,2.73,14.23l-1.6,2.77h0c-.84.09-1.63.56-2.08,1.35l-5.57,9.65c-.75,1.31-.31,2.98,1,3.73,1.31.75,2.98.31,3.73-1l5.57-9.65c.45-.79.47-1.7.12-2.47h0l1.6-2.77c5.03,2.01,10.9.08,13.7-4.75,3.06-5.3,1.24-12.08-4.06-15.15h.01ZM24.78,24.96c-4.21,1.13-8.55-1.38-9.68-5.59-1.13-4.21,1.38-8.56,5.59-9.69,4.21-1.13,8.55,1.38,9.68,5.59,1.13,4.21-1.38,8.56-5.59,9.69Z"/>
  <path class="st0" d="M98.07,43.96H12.91l6.23-10.79c.31-.54.46-1.16.42-1.79l-.02-.3.77-1.33.7.14c5.25,1.06,10.57-1.33,13.25-5.97,3.05-5.29,1.75-12.14-3.03-15.94l-2.21-1.76h69.06c4.81,0,8.71,3.69,8.71,8.23v21.28c0,4.54-3.91,8.23-8.71,8.23h-.01ZM16.32,41.99h81.74c3.72,0,6.74-2.8,6.74-6.25V14.46c0-3.45-3.02-6.25-6.74-6.25h-63.78c3.99,4.55,4.77,11.33,1.67,16.71-2.94,5.1-8.66,7.86-14.44,7.07-.06.76-.29,1.5-.68,2.17l-4.52,7.83h.01Z"/>
  <path class="st1" d="M13.41,131.88h86.12c3.99,0,7.25,3.44,7.25,7.64v22.45c0,4.2-3.26,7.64-7.25,7.64H13.41c-3.99,0-7.25-3.44-7.25-7.64v-22.45c0-4.2,3.26-7.64,7.25-7.64Z"/>
  <path class="st2" d="M29.19,101.7l1.57.61c-.24,1.1-.65,1.9-1.22,2.4-.57.5-1.27.76-2.1.76-1.05,0-1.89-.4-2.54-1.21-.75-.93-1.12-2.19-1.12-3.77,0-1.67.38-2.98,1.13-3.92.66-.82,1.54-1.23,2.64-1.23.9,0,1.65.31,2.26.92.43.44.75,1.08.95,1.94l-1.6.47c-.1-.53-.31-.94-.61-1.22-.31-.28-.67-.42-1.08-.42-.59,0-1.08.26-1.45.77s-.56,1.37-.56,2.56.18,2.11.55,2.63.84.78,1.42.78c.43,0,.8-.17,1.11-.5s.54-.86.67-1.58h-.02,0Z"/>
  <path class="st2" d="M31.81,100.47c0-1.17.17-2.13.52-2.88.35-.75.8-1.32,1.35-1.69s1.23-.55,2.02-.55c1.15,0,2.08.44,2.81,1.32s1.09,2.13,1.09,3.75-.38,2.92-1.15,3.84c-.67.81-1.58,1.22-2.74,1.22s-2.08-.4-2.75-1.21c-.77-.92-1.15-2.19-1.15-3.79h0ZM33.48,100.4c0,1.13.21,1.97.64,2.53.43.56.96.84,1.59.84s1.17-.28,1.58-.84.63-1.42.63-2.57-.2-1.97-.61-2.52c-.41-.55-.94-.81-1.6-.81s-1.2.27-1.61.82-.62,1.4-.62,2.54h0Z"/>
  <path class="st2" d="M40.89,105.3v-9.79h1.58l3.29,6.54v-6.54h1.51v9.79h-1.63l-3.23-6.38v6.38h-1.52Z"/>
  <path class="st2" d="M54.1,101.7l1.57.61c-.24,1.1-.65,1.9-1.22,2.4-.57.5-1.27.76-2.1.76-1.05,0-1.89-.4-2.54-1.21-.75-.93-1.12-2.19-1.12-3.77,0-1.67.38-2.98,1.13-3.92.66-.82,1.54-1.23,2.64-1.23.9,0,1.65.31,2.26.92.43.44.75,1.08.95,1.94l-1.6.47c-.1-.53-.31-.94-.61-1.22-.31-.28-.67-.42-1.08-.42-.59,0-1.08.26-1.45.77s-.56,1.37-.56,2.56.18,2.11.55,2.63c.37.52.84.78,1.42.78.43,0,.8-.17,1.11-.5s.54-.86.67-1.58h-.02,0Z"/>
  <path class="st2" d="M57.06,105.3v-9.79h5.96v1.66h-4.34v2.17h4.03v1.65h-4.03v2.66h4.49v1.66h-6.11,0Z"/>
  <path class="st2" d="M64.49,105.3v-9.79h1.62v9.79h-1.62Z"/>
  <path class="st2" d="M69.46,105.3v-8.13h-2.38v-1.66h6.38v1.66h-2.38v8.13h-1.62Z"/>
  <path class="st2" d="M73.98,100.47c0-1.17.17-2.13.52-2.88.35-.75.8-1.32,1.35-1.69s1.23-.55,2.02-.55c1.15,0,2.08.44,2.81,1.32.73.88,1.09,2.13,1.09,3.75s-.38,2.92-1.15,3.84c-.67.81-1.58,1.22-2.74,1.22s-2.08-.4-2.75-1.21c-.77-.92-1.15-2.19-1.15-3.79h0ZM75.65,100.4c0,1.13.21,1.97.64,2.53s.96.84,1.59.84,1.17-.28,1.58-.84.63-1.42.63-2.57-.2-1.97-.61-2.52-.94-.81-1.6-.81-1.2.27-1.61.82-.62,1.4-.62,2.54h0Z"/>
  <path class="st2" d="M82.63,102.11l1.58-.19c.18,1.25.76,1.88,1.75,1.88.49,0,.87-.13,1.16-.38.28-.26.42-.57.42-.95,0-.22-.05-.41-.15-.57-.1-.16-.25-.28-.45-.38s-.69-.27-1.46-.5c-.69-.21-1.2-.44-1.52-.68-.32-.24-.58-.57-.76-.96-.18-.39-.28-.83-.28-1.28,0-.53.12-1.01.36-1.44s.58-.75,1-.97.95-.33,1.58-.33c.94,0,1.68.26,2.21.77.53.51.81,1.24.84,2.2l-1.62.09c-.07-.53-.22-.89-.46-1.1-.24-.21-.57-.31-1.01-.31s-.77.09-1.01.27c-.24.18-.35.41-.35.68s.11.49.32.67.71.38,1.48.6c.81.24,1.4.48,1.77.74s.64.6.83,1.01.29.91.29,1.5c0,.85-.26,1.56-.78,2.14s-1.34.87-2.45.87c-1.97,0-3.06-1.12-3.29-3.36v-.02Z"/>
  <path class="st2" d="M24.27,120.93v-9.79h3.41c.87,0,1.5.09,1.87.26s.68.48.92.91.36.95.36,1.56c0,.77-.18,1.38-.55,1.85-.37.47-.89.76-1.57.88.35.25.63.52.86.82s.54.83.93,1.59l.97,1.91h-1.93l-1.17-2.13c-.42-.77-.71-1.25-.86-1.45s-.31-.33-.48-.4-.44-.11-.81-.11h-.33v4.09h-1.62ZM25.89,115.28h1.2c.73,0,1.2-.03,1.4-.1s.36-.19.49-.39.19-.46.19-.78-.06-.56-.19-.75-.29-.32-.51-.39c-.15-.05-.59-.07-1.32-.07h-1.27v2.48h.01Z"/>
  <path class="st2" d="M32.37,120.93v-9.79h5.96v1.66h-4.34v2.17h4.03v1.65h-4.03v2.66h4.49v1.66h-6.11,0Z"/>
  <path class="st2" d="M39.85,120.93v-9.79h5.5v1.66h-3.89v2.32h3.37v1.66h-3.37v4.16h-1.62,0Z"/>
  <path class="st2" d="M46.64,120.93v-9.79h1.62v9.79h-1.62Z"/>
  <path class="st2" d="M49.83,120.93v-9.79h1.58l3.29,6.54v-6.54h1.51v9.79h-1.63l-3.23-6.38v6.38h-1.52Z"/>
  <path class="st2" d="M65.15,120.93h-1.76l-.7-2.22h-3.21l-.66,2.22h-1.72l3.13-9.79h1.72l3.22,9.79h-.02ZM62.17,117.06l-1.11-3.63-1.09,3.63h2.2Z"/>
  <path class="st2" d="M65.99,111.14h2.96c.75,0,1.31.08,1.69.25s.73.45,1.05.84.57.91.75,1.54.27,1.42.27,2.36c0,.85-.1,1.58-.29,2.21s-.43,1.12-.73,1.49c-.3.37-.65.64-1.06.82s-.95.28-1.6.28h-3.04v-9.79ZM67.6,112.8v6.48h1.22c.52,0,.9-.05,1.13-.15.23-.1.42-.25.57-.44.15-.2.27-.51.37-.94s.15-.99.15-1.69-.05-1.3-.15-1.71c-.1-.42-.26-.75-.47-.99s-.47-.4-.77-.47c-.23-.06-.67-.09-1.32-.09h-.73Z"/>
  <path class="st2" d="M73.76,116.1c0-1.17.17-2.13.52-2.88s.8-1.32,1.35-1.69,1.23-.55,2.02-.55c1.15,0,2.08.44,2.81,1.32.73.88,1.09,2.13,1.09,3.75s-.38,2.92-1.15,3.84c-.67.81-1.58,1.22-2.74,1.22s-2.08-.4-2.75-1.21c-.77-.92-1.15-2.19-1.15-3.79h0ZM75.43,116.03c0,1.13.21,1.97.64,2.53s.96.84,1.59.84,1.17-.28,1.58-.84c.41-.56.63-1.42.63-2.57s-.2-1.97-.61-2.52-.94-.81-1.6-.81-1.2.27-1.61.82-.62,1.4-.62,2.54h0Z"/>
  <path class="st2" d="M82.41,117.74l1.58-.19c.18,1.25.76,1.88,1.75,1.88.49,0,.87-.13,1.16-.38.28-.26.42-.57.42-.95,0-.22-.05-.41-.15-.57-.1-.16-.25-.28-.45-.38s-.69-.27-1.46-.5c-.69-.21-1.2-.44-1.52-.68s-.58-.57-.76-.96-.28-.83-.28-1.28c0-.53.12-1.01.36-1.44s.58-.75,1-.97.95-.33,1.58-.33c.94,0,1.68.26,2.21.77s.81,1.24.84,2.2l-1.62.09c-.07-.53-.22-.89-.46-1.1s-.57-.31-1.01-.31-.77.09-1.01.27c-.24.18-.35.41-.35.68s.11.49.32.67.71.38,1.48.6c.81.24,1.4.48,1.77.74s.64.6.83,1.01.29.91.29,1.5c0,.85-.26,1.56-.78,2.14-.52.58-1.34.87-2.45.87-1.97,0-3.06-1.12-3.29-3.36v-.02Z"/>
  <path class="st2" d="M12.1,58.32c0-1.17.17-2.13.52-2.88s.8-1.32,1.35-1.69,1.23-.55,2.02-.55c1.15,0,2.08.44,2.81,1.32.73.88,1.09,2.13,1.09,3.75s-.38,2.92-1.15,3.84c-.67.81-1.58,1.22-2.74,1.22s-2.08-.4-2.75-1.21c-.77-.92-1.15-2.19-1.15-3.79h0ZM13.77,58.26c0,1.13.21,1.97.64,2.53s.96.84,1.59.84,1.17-.28,1.58-.84c.41-.56.63-1.42.63-2.57s-.2-1.97-.61-2.52-.94-.81-1.6-.81-1.2.27-1.61.82-.62,1.4-.62,2.54h0Z"/>
  <path class="st2" d="M21.16,63.16v-9.79h3.41c.87,0,1.5.09,1.87.26s.68.48.92.91.36.95.36,1.56c0,.77-.18,1.38-.55,1.85s-.89.76-1.57.88c.35.25.63.52.86.82s.54.83.93,1.59l.97,1.91h-1.93l-1.17-2.13c-.42-.77-.71-1.25-.86-1.45-.15-.2-.31-.33-.48-.4s-.44-.11-.81-.11h-.33v4.09h-1.62ZM22.78,57.51h1.2c.73,0,1.2-.03,1.4-.1s.36-.19.49-.39.19-.46.19-.78-.06-.56-.19-.75-.29-.32-.51-.39c-.15-.05-.59-.07-1.32-.07h-1.27v2.48h.01Z"/>
  <path class="st2" d="M29.2,63.16v-9.79h1.62v9.79h-1.62Z"/>
  <path class="st2" d="M36.11,59.56v-1.66h3.49v3.9c-.35.41-.85.77-1.5,1.07s-1.29.45-1.94.45c-.79,0-1.49-.19-2.1-.58s-1.09-.97-1.44-1.75c-.35-.78-.53-1.69-.53-2.74s.18-2,.54-2.76.82-1.34,1.4-1.72c.58-.38,1.26-.57,2.05-.57.96,0,1.72.24,2.3.73.58.49.95,1.2,1.11,2.15l-1.6.37c-.12-.5-.34-.89-.66-1.16s-.7-.4-1.15-.4c-.69,0-1.25.27-1.68.8s-.64,1.35-.64,2.45c0,1.18.23,2.08.69,2.69.4.53.93.79,1.61.79.32,0,.64-.07.98-.22s.64-.35.91-.61v-1.24h-1.86.02,0Z"/>
  <path class="st2" d="M41.05,63.16v-9.79h1.62v9.79h-1.62Z"/>
  <path class="st2" d="M44.24,63.16v-9.79h1.58l3.29,6.54v-6.54h1.51v9.79h-1.63l-3.23-6.38v6.38h-1.52Z"/>
  <path class="st2" d="M59.55,63.16h-1.76l-.7-2.22h-3.21l-.66,2.22h-1.72l3.13-9.79h1.72l3.22,9.79h-.02ZM56.57,59.28l-1.11-3.63-1.09,3.63h2.2Z"/>
  <path class="st2" d="M60.45,63.16v-9.71h1.62v8.05h4.03v1.66h-5.65Z"/>
  <path class="st2" d="M67.21,63.16v-9.79h1.62v9.79h-1.62Z"/>
  <path class="st2" d="M70.37,53.37h2.96c.75,0,1.31.08,1.69.25s.73.45,1.05.84c.32.39.57.91.75,1.54s.27,1.42.27,2.36c0,.85-.1,1.58-.29,2.21s-.43,1.12-.73,1.49c-.3.37-.65.64-1.06.82s-.95.28-1.6.28h-3.04v-9.79ZM71.98,55.02v6.48h1.22c.52,0,.9-.05,1.13-.15.23-.1.42-.25.57-.44.15-.2.27-.51.37-.94s.15-.99.15-1.69-.05-1.3-.15-1.71c-.1-.42-.26-.75-.47-.99s-.47-.4-.77-.47c-.23-.06-.67-.09-1.32-.09h-.73Z"/>
  <path class="st2" d="M85.71,63.16h-1.76l-.7-2.22h-3.21l-.66,2.22h-1.72l3.13-9.79h1.72l3.22,9.79h-.02ZM82.73,59.28l-1.11-3.63-1.09,3.63h2.2Z"/>
  <path class="st2" d="M86.55,53.37h2.96c.75,0,1.31.08,1.69.25s.73.45,1.05.84.57.91.75,1.54c.18.63.27,1.42.27,2.36,0,.85-.1,1.58-.29,2.21s-.43,1.12-.73,1.49c-.3.37-.65.64-1.06.82s-.95.28-1.6.28h-3.04v-9.79ZM88.17,55.02v6.48h1.22c.52,0,.9-.05,1.13-.15.23-.1.42-.25.57-.44.15-.2.27-.51.37-.94.1-.43.15-.99.15-1.69s-.05-1.3-.15-1.71c-.1-.42-.26-.75-.47-.99s-.47-.4-.77-.47c-.23-.06-.67-.09-1.32-.09h-.73Z"/>
  <path class="st2" d="M94.66,63.16v-9.79h5.96v1.66h-4.34v2.17h4.03v1.65h-4.03v2.66h4.49v1.66h-6.11,0Z"/>
  <path class="st2" d="M28.72,78.79h-1.76l-.7-2.22h-3.21l-.66,2.22h-1.72l3.13-9.79h1.72l3.22,9.79h-.02ZM25.74,74.91l-1.11-3.63-1.09,3.63h2.2Z"/>
  <path class="st2" d="M29.56,69h2.96c.75,0,1.31.08,1.69.25s.73.45,1.05.84.57.91.75,1.54.27,1.42.27,2.36c0,.85-.1,1.58-.29,2.21-.19.63-.43,1.12-.73,1.49s-.65.64-1.06.82c-.41.18-.95.28-1.6.28h-3.04v-9.79ZM31.17,70.65v6.48h1.22c.52,0,.9-.05,1.13-.15s.42-.25.57-.44c.15-.2.27-.51.37-.94s.15-.99.15-1.69-.05-1.3-.15-1.71c-.1-.42-.26-.75-.47-.99-.21-.24-.47-.4-.77-.47-.23-.06-.67-.09-1.32-.09h-.73Z"/>
  <path class="st2" d="M37.61,78.79v-9.79h1.62v9.79h-1.62Z"/>
  <path class="st2" d="M45.92,75.19l1.57.61c-.24,1.1-.65,1.9-1.22,2.4-.57.5-1.27.76-2.1.76-1.05,0-1.89-.4-2.54-1.21-.75-.93-1.12-2.19-1.12-3.77,0-1.67.38-2.98,1.13-3.92.66-.82,1.54-1.23,2.64-1.23.9,0,1.65.31,2.26.92.43.44.75,1.08.95,1.94l-1.6.47c-.1-.53-.31-.94-.61-1.22-.31-.28-.67-.42-1.08-.42-.59,0-1.08.26-1.45.77s-.56,1.37-.56,2.56.18,2.11.55,2.63c.37.52.84.78,1.42.78.43,0,.8-.17,1.11-.5.31-.33.54-.86.67-1.58h-.02,0Z"/>
  <path class="st2" d="M48.82,78.79v-9.79h1.62v9.79h-1.62Z"/>
  <path class="st2" d="M51.66,73.95c0-1.17.17-2.13.52-2.88.35-.75.8-1.32,1.35-1.69s1.23-.55,2.02-.55c1.15,0,2.08.44,2.81,1.32s1.09,2.13,1.09,3.75-.38,2.92-1.15,3.84c-.67.81-1.58,1.22-2.74,1.22s-2.08-.4-2.75-1.21c-.77-.92-1.15-2.19-1.15-3.79h0ZM53.33,73.89c0,1.13.21,1.97.64,2.53s.96.84,1.59.84,1.17-.28,1.58-.84c.41-.56.63-1.42.63-2.57s-.2-1.97-.61-2.52-.94-.81-1.6-.81-1.2.27-1.61.82-.62,1.4-.62,2.54h0Z"/>
  <path class="st2" d="M60.74,78.79v-9.79h1.58l3.29,6.54v-6.54h1.51v9.79h-1.63l-3.23-6.38v6.38h-1.52Z"/>
  <path class="st2" d="M76.05,78.79h-1.76l-.7-2.22h-3.21l-.66,2.22h-1.72l3.13-9.79h1.72l3.22,9.79h-.02ZM73.07,74.91l-1.11-3.63-1.09,3.63h2.2Z"/>
  <path class="st2" d="M76.9,69h2.96c.75,0,1.31.08,1.69.25s.73.45,1.05.84.57.91.75,1.54.27,1.42.27,2.36c0,.85-.1,1.58-.29,2.21s-.43,1.12-.73,1.49c-.3.37-.65.64-1.06.82s-.95.28-1.6.28h-3.04v-9.79ZM78.51,70.65v6.48h1.22c.52,0,.9-.05,1.13-.15.23-.1.42-.25.57-.44.15-.2.27-.51.37-.94s.15-.99.15-1.69-.05-1.3-.15-1.71c-.1-.42-.26-.75-.47-.99s-.47-.4-.77-.47c-.23-.06-.67-.09-1.32-.09h-.73Z"/>
  <path class="st2" d="M92.24,78.79h-1.76l-.7-2.22h-3.21l-.66,2.22h-1.72l3.13-9.79h1.72l3.22,9.79h-.02ZM89.26,74.91l-1.11-3.63-1.09,3.63h2.2Z"/>
  <path class="st2" d="M36.25,151.99l1.81-.21c.2,1.43.87,2.15,2,2.15.56,0,1-.15,1.32-.44.32-.29.48-.66.48-1.09,0-.25-.06-.47-.17-.65-.11-.18-.28-.32-.51-.44-.23-.11-.78-.31-1.67-.58-.79-.24-1.37-.5-1.73-.78s-.66-.65-.87-1.1c-.22-.46-.32-.95-.32-1.47,0-.61.14-1.16.42-1.65s.66-.86,1.15-1.11c.49-.25,1.09-.37,1.81-.37,1.08,0,1.92.29,2.53.88.61.59.93,1.42.96,2.51l-1.86.1c-.08-.6-.26-1.02-.53-1.26-.27-.24-.65-.36-1.15-.36s-.88.1-1.15.31c-.27.21-.4.47-.4.78s.12.56.37.77c.24.21.81.44,1.69.69.93.27,1.61.55,2.02.85s.73.68.95,1.15c.22.47.33,1.04.33,1.72,0,.97-.3,1.79-.9,2.45-.6.66-1.53.99-2.81.99-2.25,0-3.5-1.28-3.76-3.84h-.01Z"/>
  <path class="st2" d="M44.9,150.11c0-1.33.2-2.43.59-3.3.39-.86.91-1.51,1.55-1.93s1.41-.63,2.32-.63c1.31,0,2.38.5,3.21,1.51.83,1,1.24,2.43,1.24,4.29s-.44,3.34-1.31,4.39c-.77.93-1.81,1.4-3.13,1.4s-2.38-.46-3.15-1.38c-.88-1.05-1.31-2.5-1.31-4.34h0ZM46.81,150.04c0,1.29.24,2.26.73,2.9.49.64,1.1.97,1.82.97s1.33-.32,1.81-.96.72-1.62.72-2.95-.23-2.26-.7-2.88-1.08-.93-1.83-.93-1.37.31-1.84.94-.71,1.6-.71,2.91ZM48.38,143.7l.87-2.28h1.98l-1.73,2.28h-1.12Z"/>
  <path class="st2" d="M55.25,144.44h3.38c.85,0,1.5.1,1.94.29.44.19.84.51,1.2.97.37.45.65,1.04.86,1.77.21.72.31,1.62.31,2.7,0,.97-.11,1.81-.33,2.53s-.5,1.28-.83,1.7c-.34.42-.74.73-1.22.94s-1.09.32-1.84.32h-3.48v-11.22h.01ZM57.1,146.34v7.41h1.39c.6,0,1.03-.06,1.29-.17.27-.11.49-.28.66-.51s.31-.58.42-1.07c.11-.49.17-1.13.17-1.93s-.06-1.48-.17-1.96c-.11-.48-.29-.85-.54-1.13s-.54-.46-.88-.54c-.26-.07-.76-.1-1.5-.1h-.84Z"/>
  <path class="st2" d="M64.47,155.64v-11.2h1.85v11.2h-1.85Z"/>
  <path class="st2" d="M67.72,150.11c0-1.33.2-2.43.59-3.3.39-.86.91-1.51,1.55-1.93s1.41-.63,2.32-.63c1.31,0,2.38.5,3.21,1.51.83,1,1.24,2.43,1.24,4.29s-.44,3.34-1.31,4.39c-.77.93-1.81,1.4-3.13,1.4s-2.38-.46-3.15-1.38c-.88-1.05-1.31-2.5-1.31-4.34h-.01ZM69.63,150.04c0,1.29.24,2.26.73,2.9s1.1.97,1.82.97,1.33-.32,1.81-.96.72-1.62.72-2.95-.23-2.26-.7-2.88-1.08-.93-1.83-.93-1.37.31-1.84.94c-.47.63-.71,1.6-.71,2.91Z"/>
</svg>