<?xml version="1.0" encoding="UTF-8"?>
<svg id="a" data-name="Camada 1" xmlns="http://www.w3.org/2000/svg" viewBox="0 0 180 163">
  <path d="M143.35,77.12l-2.64-2.85c-1.79-1.92-2.45-4.39-1.85-6.95l.85-3.73c1.22-5.31-1.89-10.73-7.11-12.34l-3.71-1.15c-2.51-.78-4.31-2.58-5.07-5.09l-1.12-3.65c-1.6-5.21-7.01-8.34-12.33-7.14l-3.79.86c-2.55.58-5.03-.08-6.94-1.87l-2.8-2.61c-3.99-3.71-10.24-3.71-14.24-.02l-2.85,2.64c-1.92,1.79-4.39,2.45-6.95,1.85l-3.73-.85c-5.31-1.22-10.73,1.89-12.34,7.11l-1.15,3.71c-.78,2.51-2.58,4.31-5.09,5.07l-3.65,1.12c-5.21,1.6-8.34,7.01-7.14,12.33l.86,3.79c.58,2.55-.08,5.03-1.87,6.94l-2.61,2.8c-3.71,3.99-3.71,10.24-.02,14.24l2.64,2.85c1.79,1.92,2.45,4.39,1.85,6.95l-.85,3.73c-1.22,5.31,1.89,10.73,7.11,12.34l3.71,1.15c2.51.78,4.31,2.58,5.07,5.09l.06.19-14.92,22.83c-.58.9-.55,2.03.08,2.9.63.86,1.7,1.25,2.73.97l13.46-3.61c.3-.08.61.1.69.4l3.61,13.46c.27,1.03,1.15,1.76,2.21,1.88.09.02.18.02.27.02.96,0,1.84-.52,2.27-1.4l13.28-26.23c.16.13.31.26.46.4l2.8,2.61c2,1.87,4.56,2.79,7.14,2.79s5.12-.93,7.12-2.77l2.85-2.64c.13-.12.29-.24.42-.36l13.27,26.22c.45.86,1.31,1.4,2.27,1.4.09,0,.18,0,.27-.02,1.06-.1,1.92-.85,2.21-1.88l3.61-13.46c.08-.3.39-.48.69-.4l13.46,3.61c1.03.29,2.1-.1,2.73-.97.63-.86.66-2,.08-2.9l-14.91-22.82.08-.27c.78-2.51,2.58-4.31,5.09-5.07l3.65-1.12c5.21-1.6,8.34-7.01,7.14-12.33l-.86-3.79c-.58-2.55.08-5.03,1.87-6.94l2.61-2.8c3.7-3.98,3.71-10.25,0-14.24h0ZM63.83,159.33l-3.46-12.91c-.48-1.78-2.31-2.83-4.09-2.36l-12.91,3.46,13.34-20.43v.02c1.6,5.21,7.01,8.34,12.33,7.14l3.79-.86c1.4-.31,2.76-.27,4.03.15l-13.03,25.79ZM136.03,147.52l-12.91-3.46c-1.78-.48-3.61.58-4.09,2.36l-3.45,12.91-13.04-25.8c1.28-.42,2.67-.48,4.1-.15l3.73.85c5.31,1.22,10.73-1.89,12.34-7.11l13.31,20.4ZM141.3,89.46l-2.61,2.8c-2.43,2.61-3.34,5.97-2.54,9.44l.86,3.79c.9,3.91-1.42,7.88-5.24,9.06l-3.65,1.12c-3.42,1.04-5.88,3.51-6.93,6.91l-1.15,3.71c-1.18,3.82-5.16,6.12-9.06,5.22l-3.73-.85c-3.47-.8-6.83.09-9.46,2.52l-2.85,2.64c-2.94,2.72-7.54,2.72-10.46-.02l-2.8-2.61c-2-1.85-4.42-2.82-7.01-2.82-.8,0-1.61.09-2.45.29l-3.79.86c-3.89.9-7.88-1.42-9.06-5.24l-1.12-3.65c-1.04-3.42-3.51-5.88-6.91-6.93l-3.71-1.15c-3.82-1.18-6.12-5.16-5.22-9.06l.85-3.73c.8-3.47-.09-6.83-2.52-9.46l-2.64-2.85c-2.72-2.94-2.72-7.54.02-10.46l2.61-2.8c2.43-2.61,3.34-5.97,2.54-9.44l-.86-3.79c-.9-3.91,1.42-7.88,5.24-9.06l3.65-1.12c3.42-1.04,5.88-3.51,6.93-6.91l1.15-3.71c1.18-3.82,5.16-6.12,9.06-5.22l3.73.85c3.47.8,6.83-.09,9.46-2.52l2.85-2.64c2.94-2.72,7.54-2.72,10.46.02l2.8,2.61c2.61,2.43,5.97,3.34,9.44,2.54l3.79-.86c3.89-.9,7.88,1.42,9.06,5.24l1.12,3.65c1.04,3.42,3.51,5.88,6.91,6.93l3.71,1.15c3.82,1.18,6.12,5.16,5.22,9.06l-.85,3.73c-.8,3.47.09,6.83,2.52,9.46l2.64,2.85c2.73,2.94,2.73,7.54,0,10.46h0ZM89.71,46.15c-21,0-38.08,17.09-38.08,38.08s17.09,38.1,38.08,38.1,38.08-17.09,38.08-38.08c0-21-17.09-38.1-38.08-38.1ZM89.71,119.56c-19.48,0-35.31-15.85-35.31-35.31s15.85-35.31,35.31-35.31c19.48,0,35.31,15.85,35.31,35.31,0,19.46-15.83,35.31-35.31,35.31Z" fill="#f33"/>
  <path d="M114.79,78.42c0-2.46-2-4.46-4.46-4.46h-12.24c1.02-2.66,1.61-5.26,1.92-7.08.2-1.13.3-2.3.3-3.51,0-2.46-2-4.46-4.46-4.46s-4.46,2-4.46,4.46c0,1.2-.27,2.39-.79,3.41-1.11,2.23-3.66,7.32-14.82,10.71v-.75c0-.61-.5-1.11-1.11-1.11h-8.92c-.61,0-1.11.5-1.11,1.11v23.41c0,.61.5,1.11,1.11,1.11h8.92c.61,0,1.11-.5,1.11-1.11v-.46c6.34,2.93,10.27,3.27,11.74,3.27.28,0,.47-.01.57-.02h15.55c2.46,0,4.46-2,4.46-4.46,0-.92-.28-1.77-.76-2.49,1.74-.61,2.99-2.26,2.99-4.2,0-.92-.28-1.77-.76-2.49,1.74-.61,2.99-2.26,2.99-4.2,0-.92-.28-1.77-.76-2.49,1.74-.61,2.99-2.26,2.99-4.2ZM73.55,99.04h-6.69s0-21.18,0-21.18h6.69s0,21.18,0,21.18ZM110.33,80.65h-2.23s-4.46,0-4.46,0h-2.23c-.61,0-1.11.5-1.11,1.11s.5,1.11,1.11,1.11h2.23s4.46,0,4.46,0c1.23,0,2.23,1,2.23,2.23s-1,2.23-2.23,2.23h-2.23s-6.69,0-6.69,0c-.61,0-1.11.5-1.11,1.11s.5,1.11,1.11,1.11h6.69c1.23,0,2.23,1,2.23,2.23s-1,2.23-2.23,2.23h-2.23s-8.92,0-8.92,0c-.61,0-1.11.5-1.11,1.11s.5,1.11,1.11,1.11h8.92c1.23,0,2.23,1,2.23,2.23s-1,2.23-2.23,2.23h-15.6s-.09,0-.13,0c-.04,0-4.14.38-12.13-3.49v-17.4c11.17-3.23,14.86-8.11,16.81-12.04.67-1.34,1.02-2.86,1.02-4.41,0-1.23,1-2.23,2.23-2.23s2.23,1,2.23,2.23c0,1.07-.09,2.12-.26,3.12-.33,1.91-.97,4.7-2.12,7.47h-2.07c-.61,0-1.11.5-1.11,1.11s.5,1.11,1.11,1.11h16.72c1.23,0,2.23,1,2.23,2.23s-1,2.23-2.23,2.23ZM69.41,96.48c-.21-.21-.32-.49-.32-.79s.12-.59.32-.79c.06-.05.11-.09.17-.14.06-.04.12-.07.19-.1.07-.03.14-.05.21-.06.14-.03.29-.03.43,0,.07.01.14.03.21.06.07.03.13.06.19.1.06.04.12.09.17.14.21.21.33.5.33.79s-.12.57-.33.79c-.21.21-.49.33-.79.33-.15,0-.29-.03-.43-.08-.13-.06-.26-.14-.36-.25Z" fill="#f33"/>
  <path d="M10.61,72.52l-1.88-1.83c1.19-.8,2.33-2.22,2.9-3.78.64-1.77.31-2.71-.48-3-2.42-.88-3.49,7.24-8.29,5.5-2.2-.8-3.38-3.23-2.05-6.91.59-1.62,1.58-3.15,2.77-4.07l1.94,1.75c-1.12.95-1.9,2.07-2.32,3.21-.64,1.77-.23,2.7.59,2.99,2.38.86,3.47-7.25,8.21-5.52,2.16.78,3.36,3.25,2.01,6.94-.74,2.05-2.1,3.9-3.41,4.72Z" fill="#f33"/>
  <path d="M20.73,50.57c.15,1.58-.38,3.66-1.44,5.61-2.03,3.74-4.61,4.87-6.7,3.73-1.31-.71-1.9-2.06-1.72-3.53-1.02.68-2.22.71-3.31.12-1.9-1.03-2.63-3.67-.62-7.38.86-1.59,2.03-2.96,3.17-3.78l1.72,1.94c-1.12.82-1.95,1.82-2.57,2.96-1.01,1.86-.85,3.05.03,3.52.83.45,1.63.13,2.31-1.13l1.79-3.3,2.21,1.2-1.88,3.47c-.75,1.38-.71,2.45.22,2.96.91.5,2.02-.06,3.16-2.15.77-1.42,1.21-3.17,1.06-4.54l2.57.28Z" fill="#f33"/>
  <path d="M11.45,42.08l1.91-2.55,8.94,6.68,4.13-5.52,2.08,1.55-6.04,8.07-11.01-8.24Z" fill="#f33"/>
  <path d="M23.35,37.51c-2.84-2.93-2.67-7.32.45-10.34,3.1-3.01,7.49-3.08,10.35-.13,2.86,2.95,2.65,7.33-.45,10.34-3.12,3.02-7.51,3.07-10.35.13ZM31.84,29.28c-1.82-1.88-4.39-1.87-6.15-.16-1.76,1.71-1.84,4.28-.03,6.15s4.39,1.87,6.15.16c1.76-1.71,1.84-4.28.03-6.15Z" fill="#f33"/>
  <path d="M37.56,16.12l5.44-3.08c3.91-2.22,7.93-1.38,9.99,2.24,2.05,3.62.71,7.5-3.21,9.72l-5.44,3.08-6.78-11.96ZM48.35,22.81c2.38-1.35,3.13-3.65,1.83-5.94-1.3-2.29-3.66-2.83-6.03-1.48l-2.53,1.43,4.2,7.42,2.53-1.43Z" fill="#f33"/>
  <path d="M67.82,15.98c-.94,1.28-2.71,2.49-4.8,3.24-4.01,1.45-6.68.58-7.49-1.66-.51-1.4-.05-2.8,1.05-3.79-1.21-.17-2.14-.94-2.56-2.1-.73-2.03.46-4.49,4.44-5.93,1.7-.61,3.49-.86,4.88-.72v2.59c-1.39-.13-2.67.07-3.89.51-1.99.72-2.66,1.71-2.32,2.66.32.89,1.14,1.18,2.48.69l3.53-1.28.85,2.36-3.71,1.34c-1.48.53-2.16,1.37-1.8,2.36.35.98,1.56,1.3,3.79.49,1.51-.55,3-1.57,3.81-2.69l1.74,1.92Z" fill="#f33"/>
  <path d="M82.49,14.86l.28,2.54-3.18.34-.27-2.54c-3.55-.27-6.25-2.76-6.63-6.29-.44-4.06,2.4-7.41,6.71-7.88,4.3-.47,7.8,2.18,8.24,6.26.39,3.55-1.74,6.55-5.15,7.57ZM84.43,7.63c-.28-2.6-2.31-4.17-4.75-3.91s-4.08,2.24-3.8,4.84c.22,2.07,1.48,3.47,3.24,3.86l-.3-2.81,2.93-.32.3,2.81c1.68-.73,2.61-2.38,2.38-4.47Z" fill="#f33"/>
  <path d="M102.9,1.41l-1.01,13.71-3.08-.23.12-1.67c-1.03,1.2-2.49,1.73-4.29,1.59-3.19-.24-5-2.48-4.72-6.3l.59-8.03,3.17.23-.59,7.94c-.17,2.25.91,3.4,2.64,3.52,1.82.13,3.24-.88,3.42-3.29l.57-7.72,3.17.23Z" fill="#f33"/>
  <path d="M117.96,11.31l-1.88,7.28-3.08-.8.83-3.2-6.09-1.57-.83,3.2-3.04-.79,1.88-7.28c1.05-4.05,4.07-5.62,7.72-4.68,3.65.94,5.54,3.78,4.49,7.83ZM114.46,12.13l.49-1.9c.59-2.26-.35-3.66-2.18-4.13-1.84-.48-3.32.3-3.91,2.56l-.49,1.9,6.09,1.57Z" fill="#f33"/>
  <path d="M123.56,6.85l2.92,1.28-4.47,10.22,6.32,2.76-1.04,2.38-9.23-4.04,5.51-12.6Z" fill="#f33"/>
  <path d="M138.14,17.03l-4.43,7.42,2.04,1.22-1.31,2.19-6.83-4.08,1.31-2.19,2.06,1.23,4.43-7.42-2.06-1.23,1.31-2.19,6.83,4.08-1.31,2.19-2.04-1.22Z" fill="#f33"/>
  <path d="M144.59,18l4.83,3.96c3.48,2.85,4.14,6.9,1.5,10.12-2.64,3.22-6.74,3.36-10.22.5l-4.83-3.96,8.72-10.63ZM142.23,30.48c2.11,1.73,4.53,1.61,6.2-.43,1.67-2.03,1.32-4.43-.79-6.16l-2.25-1.84-5.41,6.59,2.25,1.84Z" fill="#f33"/>
  <path d="M161.14,42.98l-5.74,4.86-2.06-2.43,2.52-2.13-4.06-4.8-2.52,2.13-2.03-2.4,5.74-4.86c3.19-2.7,6.57-2.24,9,.64s2.34,6.28-.86,8.99ZM157.81,41.63l1.5-1.27c1.78-1.51,1.83-3.19.61-4.63-1.23-1.45-2.88-1.67-4.67-.16l-1.5,1.27,4.06,4.8Z" fill="#f33"/>
  <path d="M168.49,42.64l3.1,5.42c2.24,3.9,1.42,7.92-2.2,9.99-3.61,2.07-7.5.74-9.73-3.16l-3.1-5.42,11.93-6.83ZM161.86,53.46c1.36,2.37,3.66,3.11,5.94,1.8s2.81-3.67,1.45-6.04l-1.44-2.52-7.4,4.24,1.44,2.52Z" fill="#f33"/>
  <path d="M168.78,72.9c-1.28-.93-2.5-2.7-3.26-4.79-1.47-4-.61-6.68,1.63-7.5,1.4-.51,2.8-.06,3.79,1.04.16-1.21.93-2.14,2.09-2.57,2.03-.74,4.49.45,5.95,4.41.62,1.7.88,3.49.74,4.88h-2.59c.12-1.38-.08-2.66-.52-3.88-.73-1.99-1.72-2.65-2.67-2.31-.89.32-1.17,1.14-.68,2.49l1.29,3.52-2.36.86-1.36-3.71c-.54-1.48-1.37-2.15-2.37-1.79-.98.36-1.29,1.56-.47,3.79.55,1.51,1.58,3,2.71,3.8l-1.91,1.75Z" fill="#f33"/>
</svg>