<?xml version="1.0" encoding="UTF-8"?>
<svg id="a" xmlns="http://www.w3.org/2000/svg" version="1.1" viewBox="0 0 1017.49 218.31">
  <!-- Generator: Adobe Illustrator 30.2.1, SVG Export Plug-In . SVG Version: 2.1.1 Build 1)  -->
  <defs>
    <style>
      .st0 {
        fill: #2a2a2a;
      }

      .st1 {
        fill: #e5e1c3;
      }
    </style>
  </defs>
  <path class="st0" d="M74.96,177.4h0c-1.79-6.87-.94-13.58,2.56-20.18.18-.28.34-.57.49-.88.02-.05.05-.11.07-.16.05-.11.08-.21.15-.31,3.26-6.55,4.05-12.39,2.44-17.52,4.2-2.61,6.69-6.4,7.47-11.35h0c1.27-5.73-3.47-12.82-14.23-21.27-11.15-8.78-19.54-10.29-25.14-4.56-3.58,3.35-5.85,6.17-6.79,8.45-1.16.08-2.36.21-3.55.39h0c-1.19.18-2.65.5-4.38,1.03-.02.02-.03.03-.08.02-.39.13-.8.28-1.24.42-.03.03-.1.03-.15.05-4.61,1.45-8.58,3.14-11.94,5.1-2.85,1.64-5.28,3.45-7.25,5.42-3.05,3.05-5.41,6.02-7.1,8.92-1.01,1.66-1.81,3.31-2.39,4.93h0c-2.3,6.5-1.17,11.98,3.34,16.43.34.34.73.67,1.24.94-.13,3.55.91,6.38,3.14,8.48.67.73,1.86,1.43,3.6,2.13.03.03.08.05.11.05.7.31,1.3.55,1.84.7.5,1.94,1.5,3.65,2.98,5.1.6.6,1.3,1.14,2.1,1.61.03.03.05.05.1.07.24.15.52.29.86.41-2.75,7.96-3.24,14.87-1.43,20.71,1.19,3.83,2.65,6.43,4.45,7.9,2.2,1.97,4.79,2.48,7.73,1.51l.03-.03c5.18-1.37,7.77-5.75,7.8-13.14l-.02-.02c.07-5.15.36-8.89.96-11.22,0,0,.02-.02.02-.05,2.49-6.14,4.98-10.42,7.43-12.83,1.14-1.11,2.28-1.63,3.4-1.58.03.59.03,1.24,0,1.99l.02.02c-.08,2.78-.26,5.67-.57,8.61-.42,3.52.49,7.62,2.77,12.28h0c2.59,5.32,6.84,7.69,12.75,7.12h0c3.63-.34,5.93-2.12,6.9-5.34.85-2.38.67-5.85-.54-10.37l.03.03.02-.02ZM68.03,187.24h0c-3.22.33-5.52-.96-6.92-3.83h0c-1.73-3.45-2.44-6.48-2.23-9.07.33-3.13.54-6.14.62-9.05l-.02-.02c.1-2.15,0-3.81-.29-5.05-.1-.42-.28-.8-.52-1.14s-.57-.6-.94-.81c-3.88-2.25-7.75-1.53-11.59,2.15-2.98,2.78-5.93,7.75-8.87,14.93-.03.1-.07.2-.1.29-.8,2.62-1.22,6.99-1.27,13.09l.02.02c-.03,4.1-1.27,6.64-3.7,7.6l-.03.03c-.81.23-1.5.13-2.1-.37-1.01-1.01-1.89-2.7-2.61-5.11-1.58-5.52-.75-12.18,2.43-19.98.03-.03.05-.11.07-.16,0,0,.02-.02.02-.05h0l.05-.11c1.2-2.83,3.13-6.55,5.76-11.07.41-.7.5-1.45.29-2.25-.21-.8-.67-1.38-1.37-1.79s-1.45-.5-2.25-.29c-.8.21-1.38.67-1.79,1.37-2.23,3.86-3.99,7.15-5.24,9.84-.1-.03-.18-.05-.26-.1-.33-.2-.6-.44-.85-.68-1.24-1.3-1.79-2.96-1.61-4.97.29-2.31,2.15-6.02,5.49-11.12.44-.67.57-1.42.42-2.21-.16-.78-.59-1.4-1.27-1.86-.67-.44-1.4-.59-2.2-.44-.81.16-1.42.57-1.87,1.25-3.39,5.15-5.44,9.18-6.16,12.08-.6-.24-1.04-.49-1.34-.72-1.29-1.45-1.68-3.5-1.17-6.12l-.02-.02c.5-2.39,2.13-6.04,4.89-11.01.39-.72.47-1.45.26-2.25-.23-.78-.68-1.37-1.4-1.76-.72-.39-1.45-.47-2.25-.26-.78.23-1.37.68-1.76,1.4-1.95,3.48-3.39,6.42-4.35,8.81-1.55-2.46-1.73-5.31-.59-8.57h0c.46-1.27,1.09-2.59,1.87-3.92h0c1.51-2.52,3.58-5.11,6.22-7.75,1.63-1.63,3.65-3.13,6.02-4.49,3.05-1.77,6.68-3.32,10.88-4.62.03-.03.1-.03.15-.05.41-.15.8-.28,1.17-.42l-.08.02c1.42-.41,2.62-.7,3.58-.85h0c1.81-.28,3.55-.42,5.28-.46h.07l.11-.02c2.83.03,5.52.37,8.04,1.04l-.11-.05c.52.16,1.07.33,1.6.49.78.23,1.53.16,2.26-.21.72-.39,1.19-.96,1.42-1.74s.16-1.53-.21-2.26c-.39-.72-.96-1.19-1.74-1.42-.52-.16-1.07-.33-1.6-.49-.03-.03-.05-.05-.11-.05-1.84-.47-3.75-.81-5.72-1.03.9-1.03,2.28-2.41,4.18-4.18,3.73-2.98,9.54-1.37,17.47,4.87,8.32,6.56,12.34,11.79,12.05,15.73h0c-.46,2.74-1.73,4.95-3.83,6.59-.6-1.55-1.34-3.06-2.17-4.61l-.03-.03c-.39-.72-.81-1.4-1.25-2.1l-.08-.08c-.6-.86-1.25-1.71-1.92-2.51-.5-.64-1.17-.98-1.99-1.07-.8-.08-1.51.15-2.15.65-.64.5-.99,1.16-1.07,1.99-.07.81.15,1.51.65,2.15.55.68,1.09,1.38,1.61,2.1l.08.08c.34.57.68,1.14,1.01,1.69l-.03-.03c.86,1.51,1.56,3.03,2.15,4.56l.02.02c.23.65.44,1.25.64,1.87.05.54.21.99.46,1.34,1.79,4.17,1.3,9.02-1.45,14.57-.03.03-.05.11-.07.16-.05.11-.08.21-.15.31-.1.2-.2.36-.31.54-.05.05-.08.11-.13.2-4.23,7.98-5.26,16.14-3.08,24.44l.02.02c.81,3.09,1.01,5.44.59,7.03-.28.77-.9,1.19-1.81,1.25l.11.11h0Z"/>
  <path class="st1" d="M68.03,187.24h0c-3.22.33-5.52-.96-6.92-3.83h0c-1.73-3.45-2.44-6.48-2.23-9.07.33-3.13.54-6.14.62-9.05l-.02-.02c.1-2.15,0-3.81-.29-5.05-.1-.42-.28-.8-.52-1.14s-.57-.6-.94-.81c-3.88-2.25-7.75-1.53-11.59,2.15-2.98,2.78-5.93,7.75-8.87,14.93-.03.1-.07.2-.1.29-.8,2.62-1.22,6.99-1.27,13.09l.02.02c-.03,4.1-1.27,6.64-3.7,7.6l-.03.03c-.81.23-1.5.13-2.1-.37-1.01-1.01-1.89-2.7-2.61-5.11-1.58-5.52-.75-12.18,2.43-19.98.03-.03.05-.11.07-.16,0,0,.02-.02.02-.05h0l.05-.11c1.2-2.83,3.13-6.55,5.76-11.07.41-.7.5-1.45.29-2.25-.21-.8-.67-1.38-1.37-1.79s-1.45-.5-2.25-.29c-.8.21-1.38.67-1.79,1.37-2.23,3.86-3.99,7.15-5.24,9.84-.1-.03-.18-.05-.26-.1-.33-.2-.6-.44-.85-.68-1.24-1.3-1.79-2.96-1.61-4.97.29-2.31,2.15-6.02,5.49-11.12.44-.67.57-1.42.42-2.21-.16-.78-.59-1.4-1.27-1.86-.67-.44-1.4-.59-2.2-.44-.81.16-1.42.57-1.87,1.25-3.39,5.15-5.44,9.18-6.16,12.08-.6-.24-1.04-.49-1.34-.72-1.29-1.45-1.68-3.5-1.17-6.12l-.02-.02c.5-2.39,2.13-6.04,4.89-11.01.39-.72.47-1.45.26-2.25-.23-.78-.68-1.37-1.4-1.76-.72-.39-1.45-.47-2.25-.26-.78.23-1.37.68-1.76,1.4-1.95,3.48-3.39,6.42-4.35,8.81-1.55-2.46-1.73-5.31-.59-8.57h0c.46-1.27,1.09-2.59,1.87-3.92h0c1.51-2.52,3.58-5.11,6.22-7.75,1.63-1.63,3.65-3.13,6.02-4.49,3.05-1.77,6.68-3.32,10.88-4.62.03-.03.1-.03.15-.05.41-.15.8-.28,1.17-.42l-.08.02c1.42-.41,2.62-.7,3.58-.85h0c1.81-.28,3.55-.42,5.28-.46h.07l.11-.02c2.83.03,5.52.37,8.04,1.04l-.11-.05c.52.16,1.07.33,1.6.49.78.23,1.53.16,2.26-.21.72-.39,1.19-.96,1.42-1.74s.16-1.53-.21-2.26c-.39-.72-.96-1.19-1.74-1.42-.52-.16-1.07-.33-1.6-.49-.03-.03-.05-.05-.11-.05-1.84-.47-3.75-.81-5.72-1.03.9-1.03,2.28-2.41,4.18-4.18,3.73-2.98,9.54-1.37,17.47,4.87,8.32,6.56,12.34,11.79,12.05,15.73h0c-.46,2.74-1.73,4.95-3.83,6.59-.6-1.55-1.34-3.06-2.17-4.61l-.03-.03c-.39-.72-.81-1.4-1.25-2.1l-.08-.08c-.6-.86-1.25-1.71-1.92-2.51-.5-.64-1.17-.98-1.99-1.07-.8-.08-1.51.15-2.15.65-.64.5-.99,1.16-1.07,1.99-.07.81.15,1.51.65,2.15.55.68,1.09,1.38,1.61,2.1l.08.08c.34.57.68,1.14,1.01,1.69l-.03-.03c.86,1.51,1.56,3.03,2.15,4.56l.02.02c.23.65.44,1.25.64,1.87.05.54.21.99.46,1.34,1.79,4.17,1.3,9.02-1.45,14.57-.03.03-.05.11-.07.16-.05.11-.08.21-.15.31-.1.2-.2.36-.31.54-.05.05-.08.11-.13.2-4.23,7.98-5.26,16.14-3.08,24.44l.02.02c.81,3.09,1.01,5.44.59,7.03-.28.77-.9,1.19-1.81,1.25l.11.11h0Z"/>
  <path class="st1" d="M455.03,123.7c-.88-5.87-5.93-10.22-11.87-10.22h-24.85c-3.95,0-7.66,1.95-9.89,5.21l-23.69,34.51c.09-1.15.14-2.32.14-3.51,0-9.64-3.26-17.98-9.4-24.11-7.76-7.77-19.58-11.55-36.12-11.55h-29.23c-5.43,0-10.18,3.64-11.59,8.89l-8.97,33.37-4.9-32.58c-.88-5.87-5.93-10.22-11.87-10.22h-24.85c-3.95,0-7.66,1.95-9.89,5.21l-16.74,24.38c-1.15-6.68-4.15-12.58-8.87-17.3-8.02-8.02-19.57-11.75-36.34-11.75h-25.16c-5.43,0-10.18,3.64-11.59,8.89l-20.14,74.96c-.97,3.6-.2,7.45,2.07,10.42,2.27,2.96,5.79,4.7,9.52,4.7h25.06c5.43,0,10.18-3.64,11.59-8.88l3.08-11.46h1.4c5.95,0,11.58-.7,16.76-2.04l-2.47,3.6c-2.52,3.67-2.8,8.44-.73,12.38,2.08,3.94,6.16,6.41,10.62,6.41h27.31c4.07,0,7.86-2.06,10.07-5.47l2.98-4.6h9.16c.94,5.78,5.94,10.07,11.84,10.07h26.67c.99,0,1.96-.14,2.91-.37.95.24,1.93.37,2.92.37h25.06c4.22,0,8.02-2.2,10.18-5.64,2.16,3.46,5.99,5.64,10.17,5.64h26.99c.68,0,1.35-.08,2.01-.19.68.12,1.38.19,2.09.19h27.31c4.07,0,7.86-2.06,10.07-5.47l2.98-4.6h9.16c.94,5.78,5.94,10.07,11.84,10.07h26.67c3.49,0,6.81-1.52,9.09-4.17,2.28-2.65,3.29-6.16,2.77-9.61l-11.35-75.5Z"/>
  <path class="st1" d="M456.4,6.92h-63.93c-1.36,0-2.68.23-3.91.65-1.23-.42-2.54-.65-3.88-.65h-29.02c-3.43,0-6.7,1.47-8.97,4.03l-3.05,3.43c-1.84-4.5-6.23-7.46-11.11-7.46h-27.09c-1.03,0-2.05.14-3.03.39-.97-.25-1.97-.39-2.99-.39h-25.49c-5.4,0-10.13,3.6-11.56,8.8-.41-1.47-1.09-2.86-2.04-4.1-2.27-2.96-5.79-4.7-9.52-4.7h-25.49c-5.43,0-10.18,3.64-11.59,8.88l-.89,3.29c-.13-.14-.26-.28-.39-.41-8.03-8.03-19.57-11.76-36.34-11.76h-25.16c-5.43,0-10.18,3.64-11.59,8.89l-20.14,74.97c-.97,3.6-.2,7.45,2.07,10.42,2.27,2.96,5.79,4.7,9.52,4.7h25.06c5.43,0,10.18-3.64,11.59-8.88l3.08-11.46h1.4c11.81,0,22.37-2.75,30.64-7.86,3.89,18.55,19.82,29.71,43.51,29.71,11.07,0,20.49-2.05,28.18-6.09,2.24,2.85,5.69,4.59,9.43,4.59h29.02c3.42,0,6.67-1.46,8.95-4l5.78-6.47,1.04,2.73c1.77,4.66,6.23,7.75,11.22,7.75h27.09c.94,0,1.86-.12,2.75-.33.9.22,1.84.33,2.79.33h64.47c5.44,0,10.2-3.66,11.6-8.92l5.46-20.56c.76-2.86.43-5.88-.88-8.48l4.73-17.75c.09-.34.17-.68.23-1.02,2.13-1.57,3.74-3.84,4.47-6.53l5.57-20.57c.98-3.61.22-7.46-2.05-10.43-2.27-2.97-5.79-4.71-9.53-4.71Z"/>
  <path class="st1" d="M525.26,107.39c14.93,0,28.98-5.81,39.55-16.37,10.53-10.53,16.57-24.99,16.57-39.65,0-26.2-21.18-45.95-49.26-45.95-14.94,0-28.99,5.82-39.54,16.37-10.54,10.52-16.58,24.98-16.58,39.65,0,26.2,21.18,45.95,49.26,45.95Z"/>
  <path class="st1" d="M876.68,149.68c0-9.64-3.26-17.98-9.4-24.11-7.76-7.77-19.58-11.55-36.12-11.55h-29.24c-2.61,0-5.05.85-7.05,2.3-2.03-1.47-4.47-2.3-7.03-2.3h-25.06c-5.43,0-10.18,3.64-11.59,8.89l-1.6,5.96c-.87-1.16-1.82-2.26-2.86-3.3-7.77-7.77-19.58-11.54-36.12-11.54h-29.24c-5.43,0-10.18,3.64-11.59,8.89l-1.09,4.06c-1.61-2.13-3.4-3.81-5.07-5.09-6.91-5.28-16.79-7.85-30.22-7.85h-33.2c-5.43,0-10.18,3.64-11.59,8.89l-8.97,33.37-4.9-32.58c-.88-5.87-5.93-10.22-11.87-10.22h-24.85c-3.95,0-7.66,1.95-9.89,5.21l-51.83,75.5c-2.52,3.67-2.8,8.44-.73,12.38,2.08,3.94,6.16,6.41,10.62,6.41h27.31c4.07,0,7.86-2.06,10.07-5.47l2.98-4.6h9.16c.94,5.78,5.94,10.07,11.84,10.07h26.67c.99,0,1.96-.14,2.91-.37.95.24,1.93.37,2.92.37h40.81c13.37,0,23.01-2.43,29.97-6.04.26.46.55.91.88,1.34,2.27,2.96,5.79,4.7,9.52,4.7h25.06c4.22,0,8.02-2.2,10.17-5.64,2.17,3.46,5.99,5.64,10.17,5.64h26.98c1.57,0,3.1-.32,4.51-.89,1.41.57,2.93.89,4.49.89h25.06c2.61,0,5.05-.85,7.05-2.3,2.03,1.47,4.47,2.3,7.03,2.3h25.06c4.22,0,8.02-2.2,10.17-5.64,2.17,3.46,5.99,5.64,10.17,5.64h26.98c4.01,0,7.76-2,9.98-5.34,2.23-3.34,2.64-7.57,1.1-11.27l-5.99-14.39c2.44-1.57,4.65-3.33,6.61-5.29,7.16-7.16,10.79-16.25,10.79-27.01Z"/>
  <path class="st1" d="M1012.27,11.63c-2.27-2.97-5.79-4.71-9.53-4.71h-63.93c-5.43,0-10.18,3.64-11.59,8.89l-1.58,5.88c-.85-1.12-1.78-2.2-2.79-3.21-7.78-7.78-19.59-11.55-36.12-11.55h-29.24c-5.43,0-10.18,3.64-11.59,8.89l-1.14,4.23c-7.82-9.26-19.99-14.72-34.25-14.72-16.88,0-32.14,5.96-42.96,16.79-4.21,4.21-7.72,9-10.45,14.15l-2.96-19.66c-.88-5.87-5.93-10.21-11.87-10.21h-24.84c-3.95,0-7.66,1.95-9.89,5.21l-34.9,50.84c-1.93-1.26-4.21-1.96-6.57-1.96h-18.52l10.3-38.44c.97-3.6.2-7.45-2.07-10.41-2.27-2.96-5.79-4.7-9.52-4.7h-25.06c-5.43,0-10.18,3.64-11.59,8.89l-20.14,74.97c-.97,3.6-.21,7.45,2.07,10.42,2.27,2.96,5.79,4.7,9.52,4.7h59.23c.91,0,1.79-.11,2.65-.3.86.2,1.75.3,2.66.3h27.31c4.07,0,7.86-2.06,10.07-5.47l2.98-4.6h9.16c.94,5.78,5.94,10.07,11.84,10.07h26.67c3.49,0,6.82-1.52,9.09-4.17,1.32-1.53,2.2-3.35,2.62-5.29,8.27,7.01,19.52,11.06,32.63,11.06,10.86,0,20.63-2.61,28.98-7.63.26.46.55.91.87,1.33,2.27,2.96,5.79,4.7,9.52,4.7h25.06c4.22,0,8.02-2.2,10.17-5.64,2.17,3.46,5.99,5.64,10.17,5.64h26.98c1.55,0,3.07-.31,4.47-.87,1.4.56,2.9.87,4.44.87h64.47c5.44,0,10.2-3.66,11.6-8.92l5.46-20.56c.76-2.86.43-5.87-.87-8.46l4.73-17.77c.09-.34.17-.68.23-1.02,2.13-1.57,3.74-3.84,4.47-6.53l5.57-20.57c.98-3.61.22-7.46-2.05-10.43Z"/>
  <path class="st0" d="M203.96,27.17c-5.57-5.57-14.03-8.25-27.85-8.25h-25.16l-20.14,74.97h25.06l5.47-20.35h10.6c13.06,0,23.24-3.86,29.55-10.17,5.68-5.68,8.36-12.75,8.36-21.1,0-5.89-1.93-11.14-5.89-15.1ZM182.11,52.02c-2.46,2.46-6.32,3.64-11.46,3.64h-4.5l4.4-16.71h4.71c2.78,0,5.78.64,7.49,2.36,1.18,1.17,1.82,2.78,1.82,4.39,0,2.46-.75,4.6-2.46,6.32Z"/>
  <path class="st0" d="M273.93,18.92l-10.82,40.27c-1.6,5.78-3.1,8.67-5.35,10.92-2.03,2.04-4.93,3.11-8.03,3.11-6.64,0-10.28-3.21-10.28-9.43,0-1.71.32-3.74.85-5.88l10.5-38.99h-25.49l-10.06,37.38c-1.08,4.07-1.61,8.24-1.61,12.1,0,16.92,11.35,26.99,32.45,26.99,11.88,0,22.59-2.79,29.66-9.86,5.25-5.24,9.1-12.53,11.78-22.48l11.89-44.13h-25.49Z"/>
  <path class="st0" d="M384.68,18.92h-29.02l-16.17,18.21-6.96-18.21h-27.09l15.1,35.56-36.84,39.41h29.02l18.95-21.21,8.04,21.21h27.09l-16.38-38.34,34.26-36.63Z"/>
  <path class="st0" d="M450.83,39.49l5.57-20.57h-63.93l-20.13,74.97h64.47l5.46-20.56h-39.84l2.25-8.14h36.62l4.82-18.1h-36.62l2.03-7.6h39.3Z"/>
  <path class="st0" d="M532.12,17.42c-12.32,0-23.24,5.04-31.06,12.86-8.14,8.13-13.06,19.27-13.06,31.16,0,19.17,15.2,33.95,37.26,33.95,12.32,0,23.24-5.04,31.06-12.85,8.14-8.14,13.06-19.28,13.06-31.17,0-19.17-15.2-33.95-37.26-33.95ZM538.11,68.61c-2.89,2.9-6.64,4.72-11.13,4.72-9,0-13.82-6.22-13.82-14.14,0-5.46,2.25-11.14,6.11-14.99,2.89-2.89,6.64-4.71,11.13-4.71,9,0,13.82,6.21,13.82,14.13,0,5.46-2.25,11.14-6.11,14.99Z"/>
  <path class="st0" d="M631.93,72.47l14.35-53.55h-25.06l-20.14,74.97h59.23l5.78-21.42h-34.16Z"/>
  <path class="st0" d="M742.29,18.39h-24.84l-51.83,75.5h27.31l6.53-10.07h26.24l1.28,10.07h26.67l-11.36-75.5ZM710.6,66.04l11.67-18.2,2.03,18.2h-13.7Z"/>
  <path class="st0" d="M800.46,73.22c-6.64,0-11.78-4.61-11.78-12.85,0-5.68,2.24-11.46,6.21-15.42,3.1-3.11,7.28-5.14,12.31-5.14,5.68,0,10.07,3,11.68,9.1l22.38-9.75c-3.11-13.28-14.57-21.84-30.74-21.84-15.2,0-26.77,5.57-34.48,13.28-9.32,9.31-13.6,21.2-13.6,32.02,0,20.13,14.56,32.87,35.55,32.87,15.96,0,26.88-6.53,34.38-16.38l-17.35-13.71c-4.07,5.03-8.78,7.82-14.56,7.82Z"/>
  <path class="st0" d="M920.26,42.59c0-5.89-1.72-11.46-5.89-15.63-5.04-5.04-13.82-8.04-27.63-8.04h-29.24l-20.13,74.97h25.06l5.78-21.42h6.21l8.36,21.42h26.98l-10.38-24.95c5.99-1.93,10.38-4.61,13.6-7.82,5.14-5.14,7.28-11.46,7.28-18.53ZM892.63,51.16c-2.04,2.03-5.68,3.43-10.6,3.43h-9.11l3.97-14.68h8.88c3.54,0,6,.75,7.39,2.15,1.08,1.07,1.61,2.46,1.61,3.96,0,1.93-.75,3.75-2.14,5.14Z"/>
  <path class="st0" d="M997.17,39.49l5.57-20.57h-63.93l-20.14,74.97h64.47l5.46-20.56h-39.83l2.25-8.14h36.62l4.82-18.1h-36.63l2.04-7.6h39.3Z"/>
  <path class="st0" d="M203.96,134.26c-5.57-5.57-14.03-8.24-27.85-8.24h-25.16l-20.14,74.96h25.06l5.47-20.35h10.6c13.06,0,23.24-3.85,29.55-10.17,5.68-5.68,8.36-12.75,8.36-21.1,0-5.89-1.93-11.14-5.89-15.1ZM182.11,159.11c-2.46,2.46-6.32,3.64-11.46,3.64h-4.5l4.4-16.71h4.71c2.78,0,5.78.64,7.49,2.36,1.18,1.18,1.82,2.78,1.82,4.39,0,2.46-.75,4.6-2.46,6.32Z"/>
  <path class="st0" d="M272.8,125.48h-24.85l-51.83,75.5h27.31l6.53-10.07h26.24l1.28,10.07h26.67l-11.35-75.5ZM241.1,173.14l11.67-18.21,2.03,18.21h-13.7Z"/>
  <path class="st0" d="M372.87,149.68c0-5.89-1.71-11.46-5.89-15.63-5.03-5.04-13.81-8.03-27.63-8.03h-29.23l-20.14,74.96h25.06l5.79-21.42h6.21l8.35,21.42h26.99l-10.39-24.95c6-1.93,10.39-4.61,13.6-7.82,5.14-5.14,7.28-11.46,7.28-18.53ZM345.24,158.25c-2.03,2.03-5.67,3.43-10.6,3.43h-9.1l3.96-14.67h8.89c3.53,0,6,.75,7.39,2.14,1.07,1.07,1.61,2.46,1.61,3.96,0,1.93-.75,3.75-2.15,5.14Z"/>
  <path class="st0" d="M443.16,125.48h-24.85l-51.83,75.5h27.31l6.53-10.07h26.24l1.28,10.07h26.67l-11.35-75.5ZM411.46,173.14l11.67-18.21,2.04,18.21h-13.71Z"/>
  <path class="st0" d="M562.89,125.48h-24.85l-51.83,75.5h27.31l6.53-10.07h26.24l1.28,10.07h26.67l-11.35-75.5ZM531.19,173.14l11.67-18.21,2.03,18.21h-13.7Z"/>
  <path class="st0" d="M644.44,163.39c11.45-3,17.56-10.6,17.56-19.7s-5.57-17.67-28.59-17.67h-33.2l-20.14,74.96h40.81c25.7,0,35.76-10.17,35.76-22.81,0-7.71-5.14-12.96-12.2-14.78ZM621.63,182.02h-12.11l3-11.13h10.82c5.35,0,8.03,1.5,8.03,4.71,0,3.75-3.64,6.42-9.74,6.42ZM628.26,155.47h-11.56l2.78-10.5h10.39c5.36,0,7.71,1.29,7.71,4.39s-2.89,6.11-9.32,6.11Z"/>
  <path class="st0" d="M744.14,149.68c0-5.89-1.72-11.46-5.89-15.63-5.04-5.04-13.82-8.03-27.63-8.03h-29.24l-20.13,74.96h25.06l5.78-21.42h6.21l8.36,21.42h26.98l-10.39-24.95c6-1.93,10.39-4.61,13.6-7.82,5.15-5.14,7.29-11.46,7.29-18.53ZM716.51,158.25c-2.04,2.03-5.68,3.43-10.6,3.43h-9.11l3.97-14.67h8.88c3.54,0,6,.75,7.39,2.14,1.07,1.07,1.61,2.46,1.61,3.96,0,1.93-.75,3.75-2.14,5.14Z"/>
  <path class="st0" d="M762.78,126.02l-20.13,74.96h25.06l20.13-74.96h-25.06Z"/>
  <path class="st0" d="M864.68,149.68c0-5.89-1.71-11.46-5.89-15.63-5.03-5.04-13.82-8.03-27.63-8.03h-29.24l-20.13,74.96h25.06l5.78-21.42h6.21l8.36,21.42h26.98l-10.38-24.95c5.99-1.93,10.38-4.61,13.6-7.82,5.14-5.14,7.28-11.46,7.28-18.53ZM837.05,158.25c-2.03,2.03-5.68,3.43-10.6,3.43h-9.1l3.96-14.67h8.89c3.53,0,5.99.75,7.39,2.14,1.07,1.07,1.6,2.46,1.6,3.96,0,1.93-.75,3.75-2.14,5.14Z"/>
</svg>