<?xml version="1.0" encoding="UTF-8"?>
<svg id="a" data-name="Camada 1" xmlns="http://www.w3.org/2000/svg" viewBox="0 0 1000 183.89">
  <path d="M148.16,1.61h25.17c13.82,0,22.28,2.68,27.85,8.25,3.96,3.96,5.89,9.21,5.89,15.1,0,8.35-2.68,15.42-8.35,21.1-6.32,6.32-16.49,10.17-29.56,10.17h-10.6l-5.46,20.35h-25.06L148.16,1.61ZM172.47,21.63h-4.71l-4.39,16.71h4.5c5.14,0,9-1.18,11.46-3.64,1.71-1.71,2.46-3.86,2.46-6.32,0-1.61-.64-3.21-1.82-4.39-1.71-1.71-4.71-2.36-7.5-2.36Z" fill="#f4f4f4"/>
  <path d="M210.85,51.09c0-3.86.54-8.03,1.61-12.1L222.52,1.61h25.49l-10.5,38.98c-.54,2.14-.86,4.18-.86,5.89,0,6.21,3.64,9.42,10.28,9.42,3.11,0,6-1.07,8.03-3.11,2.25-2.25,3.75-5.14,5.35-10.92l10.82-40.27h25.49l-11.89,44.12c-2.68,9.96-6.53,17.24-11.78,22.49-7.07,7.07-17.78,9.85-29.67,9.85-21.1,0-32.45-10.07-32.45-26.99Z" fill="#f4f4f4"/>
  <path d="M317.76,37.16l-15.1-35.56h27.1l6.96,18.21,16.17-18.21h29.02l-34.27,36.63,16.39,38.34h-27.1l-8.03-21.21-18.96,21.21h-29.02l36.84-39.41Z" fill="#f4f4f4"/>
  <path d="M389.69,1.61h63.94l-5.57,20.56h-39.3l-2.03,7.6h36.63l-4.82,18.1h-36.63l-2.25,8.14h39.84l-5.46,20.56h-64.47L389.69,1.61Z" fill="#f4f4f4"/>
  <path d="M566.62,34.06c0,11.89-4.93,23.03-13.07,31.17s-18.74,12.85-31.06,12.85c-22.06,0-37.27-14.78-37.27-33.95,0-11.89,4.93-23.03,13.07-31.17S517.03.11,529.35.11c22.06,0,37.27,14.78,37.27,33.95ZM535.35,51.3c3.86-3.86,6.1-9.53,6.1-14.99,0-7.93-4.82-14.14-13.82-14.14-4.5,0-8.25,1.82-11.14,4.71-3.86,3.86-6.1,9.53-6.1,14.99,0,7.93,4.82,14.14,13.82,14.14,4.5,0,8.25-1.82,11.14-4.71Z" fill="#f4f4f4"/>
  <path d="M618.45,1.61h25.06l-14.35,53.55h34.16l-5.78,21.42h-59.22L618.45,1.61Z" fill="#f4f4f4"/>
  <path d="M714.69,1.07h24.85l11.35,75.5h-26.67l-1.29-10.07h-26.24l-6.53,10.07h-27.31L714.69,1.07ZM721.55,48.73l-2.04-18.21-11.67,18.21h13.71Z" fill="#f4f4f4"/>
  <path d="M759.68,45.3c0-10.82,4.28-22.7,13.6-32.02,7.71-7.71,19.28-13.28,34.49-13.28,16.17,0,27.63,8.57,30.74,21.85l-22.38,9.75c-1.61-6.1-6-9.1-11.67-9.1-5.03,0-9.21,2.04-12.32,5.14-3.96,3.96-6.21,9.75-6.21,15.42,0,8.25,5.14,12.85,11.78,12.85,5.78,0,10.5-2.78,14.57-7.82l17.35,13.71c-7.5,9.85-18.42,16.39-34.38,16.39-20.99,0-35.56-12.74-35.56-32.88Z" fill="#f4f4f4"/>
  <path d="M871.68,55.15h-6.21l-5.78,21.42h-25.06L854.75,1.61h29.24c13.82,0,22.6,3,27.63,8.03,4.18,4.18,5.89,9.75,5.89,15.64,0,7.07-2.14,13.39-7.28,18.53-3.21,3.21-7.6,5.89-13.6,7.82l10.39,24.95h-26.99l-8.35-21.42ZM879.28,37.27c4.93,0,8.57-1.39,10.6-3.43,1.39-1.39,2.14-3.21,2.14-5.14,0-1.5-.54-2.89-1.61-3.96-1.39-1.39-3.86-2.14-7.39-2.14h-8.89l-3.96,14.67h9.1Z" fill="#f4f4f4"/>
  <path d="M936.06,1.61h63.94l-5.57,20.56h-39.3l-2.03,7.6h36.63l-4.82,18.1h-36.63l-2.25,8.14h39.84l-5.46,20.56h-64.47L936.06,1.61Z" fill="#f4f4f4"/>
  <path d="M148.16,108.7h25.17c13.82,0,22.28,2.68,27.85,8.25,3.96,3.96,5.89,9.21,5.89,15.1,0,8.35-2.68,15.42-8.35,21.1-6.32,6.32-16.49,10.17-29.56,10.17h-10.6l-5.46,20.35h-25.06l20.13-74.97ZM172.47,128.73h-4.71l-4.39,16.71h4.5c5.14,0,9-1.18,11.46-3.64,1.71-1.71,2.46-3.86,2.46-6.32,0-1.61-.64-3.21-1.82-4.39-1.71-1.71-4.71-2.36-7.5-2.36Z" fill="#f4f4f4"/>
  <path d="M245.16,108.17h24.85l11.35,75.5h-26.67l-1.29-10.07h-26.24l-6.53,10.07h-27.31l51.84-75.5ZM252.02,155.83l-2.03-18.21-11.67,18.21h13.71Z" fill="#f4f4f4"/>
  <path d="M324.26,162.25h-6.21l-5.78,21.42h-25.06l20.13-74.97h29.24c13.82,0,22.6,3,27.63,8.03,4.18,4.18,5.89,9.75,5.89,15.64,0,7.07-2.14,13.39-7.28,18.53-3.21,3.21-7.6,5.89-13.6,7.82l10.39,24.95h-26.99l-8.35-21.42ZM331.86,144.37c4.93,0,8.57-1.39,10.6-3.43,1.39-1.39,2.14-3.21,2.14-5.14,0-1.5-.54-2.89-1.61-3.96-1.39-1.39-3.86-2.14-7.39-2.14h-8.89l-3.96,14.67h9.1Z" fill="#f4f4f4"/>
  <path d="M415.54,108.17h24.85l11.35,75.5h-26.67l-1.29-10.07h-26.24l-6.53,10.07h-27.31l51.84-75.5ZM422.39,155.83l-2.04-18.21-11.67,18.21h13.71Z" fill="#f4f4f4"/>
  <path d="M535.27,108.17h24.85l11.35,75.5h-26.67l-1.29-10.07h-26.24l-6.53,10.07h-27.31l51.84-75.5ZM542.13,155.83l-2.04-18.21-11.67,18.21h13.71Z" fill="#f4f4f4"/>
  <path d="M597.44,108.7h33.2c23.03,0,28.59,8.46,28.59,17.67s-6.1,16.71-17.56,19.71c7.07,1.82,12.21,7.07,12.21,14.78,0,12.64-10.07,22.81-35.77,22.81h-40.8l20.13-74.97ZM618.86,164.72c6.1,0,9.75-2.68,9.75-6.43,0-3.21-2.68-4.71-8.03-4.71h-10.82l-3,11.14h12.1ZM625.5,138.16c6.43,0,9.32-2.89,9.32-6.1s-2.36-4.39-7.71-4.39h-10.39l-2.78,10.5h11.57Z" fill="#f4f4f4"/>
  <path d="M695.54,162.25h-6.21l-5.78,21.42h-25.06l20.13-74.97h29.24c13.82,0,22.6,3,27.63,8.03,4.18,4.18,5.89,9.75,5.89,15.64,0,7.07-2.14,13.39-7.28,18.53-3.21,3.21-7.6,5.89-13.6,7.82l10.39,24.95h-26.99l-8.35-21.42ZM703.15,144.37c4.93,0,8.57-1.39,10.6-3.43,1.39-1.39,2.14-3.21,2.14-5.14,0-1.5-.54-2.89-1.61-3.96-1.39-1.39-3.86-2.14-7.39-2.14h-8.89l-3.96,14.67h9.1Z" fill="#f4f4f4"/>
  <path d="M760.03,108.7h25.06l-20.13,74.97h-25.06l20.13-74.97Z" fill="#f4f4f4"/>
  <path d="M816.09,162.25h-6.21l-5.78,21.42h-25.06l20.13-74.97h29.24c13.82,0,22.6,3,27.63,8.03,4.18,4.18,5.89,9.75,5.89,15.64,0,7.07-2.14,13.39-7.28,18.53-3.21,3.21-7.6,5.89-13.6,7.82l10.39,24.95h-26.99l-8.35-21.42ZM823.7,144.37c4.93,0,8.57-1.39,10.6-3.43,1.39-1.39,2.14-3.21,2.14-5.14,0-1.5-.54-2.89-1.61-3.96-1.39-1.39-3.86-2.14-7.39-2.14h-8.89l-3.96,14.67h9.1Z" fill="#f4f4f4"/>
  <path d="M71.31,159.17h0c-1.77-6.79-.93-13.41,2.52-19.92.18-.27.34-.56.48-.87.02-.05.05-.11.06-.16.05-.11.08-.21.14-.31,3.22-6.46,4-12.24,2.41-17.3,4.15-2.57,6.61-6.32,7.38-11.21h0c1.25-5.66-3.42-12.65-14.05-21-11.01-8.67-19.3-10.16-24.83-4.5-3.54,3.31-5.77,6.09-6.71,8.35-1.14.08-2.33.21-3.51.39h0c-1.17.18-2.62.5-4.33,1.01-.02.02-.03.03-.08.02-.39.13-.79.27-1.22.42-.03.03-.1.03-.14.05-4.55,1.43-8.47,3.1-11.79,5.03-2.81,1.62-5.21,3.41-7.16,5.35-3.01,3.01-5.34,5.95-7.01,8.81-1,1.64-1.78,3.26-2.36,4.87h0c-2.27,6.42-1.16,11.83,3.3,16.22.34.34.72.66,1.22.93-.13,3.51.9,6.3,3.1,8.38.66.72,1.83,1.41,3.55,2.11.03.03.08.05.11.05.69.31,1.29.55,1.82.69.5,1.91,1.48,3.6,2.94,5.03.59.59,1.29,1.13,2.07,1.59.03.03.05.05.1.06.24.14.51.29.85.4-2.72,7.86-3.2,14.68-1.41,20.45,1.17,3.78,2.62,6.35,4.39,7.8,2.17,1.95,4.73,2.44,7.64,1.5l.03-.03c5.11-1.35,7.67-5.68,7.7-12.98l-.02-.02c.06-5.08.35-8.78.95-11.08,0,0,.02-.02.02-.05,2.46-6.06,4.92-10.29,7.33-12.67,1.13-1.09,2.25-1.61,3.36-1.56.03.58.03,1.22,0,1.96l.02.02c-.08,2.75-.26,5.6-.56,8.51-.42,3.47.48,7.53,2.73,12.12h0c2.56,5.26,6.75,7.59,12.59,7.03h0c3.59-.34,5.85-2.09,6.82-5.27.84-2.35.66-5.77-.53-10.24l.03.03.02-.02ZM64.46,168.88h0c-3.18.32-5.45-.95-6.83-3.78h0c-1.7-3.41-2.41-6.4-2.2-8.96.32-3.09.53-6.06.61-8.94l-.02-.02c.1-2.12,0-3.76-.29-4.98-.1-.42-.27-.79-.51-1.13s-.56-.59-.93-.8c-3.83-2.22-7.65-1.51-11.45,2.12-2.94,2.75-5.85,7.65-8.76,14.74-.03.1-.06.19-.1.29-.79,2.59-1.21,6.9-1.25,12.93l.02.02c-.03,4.05-1.25,6.56-3.65,7.51l-.03.03c-.8.23-1.48.13-2.07-.37-1-1-1.87-2.67-2.57-5.05-1.56-5.45-.74-12.03,2.4-19.73.03-.03.05-.11.06-.16,0,0,.02-.02.02-.05h0l.05-.11c1.19-2.8,3.09-6.46,5.69-10.93.4-.69.5-1.43.29-2.22s-.66-1.37-1.35-1.77-1.43-.5-2.22-.29c-.79.21-1.37.66-1.77,1.35-2.2,3.81-3.94,7.06-5.18,9.71-.1-.03-.18-.05-.26-.1-.32-.19-.59-.43-.84-.68-1.22-1.29-1.77-2.93-1.59-4.9.29-2.28,2.12-5.95,5.42-10.98.43-.66.56-1.4.42-2.19-.16-.77-.58-1.38-1.25-1.83-.66-.43-1.38-.58-2.17-.43-.8.16-1.4.56-1.85,1.24-3.34,5.08-5.37,9.07-6.08,11.93-.59-.24-1.03-.48-1.32-.71-1.27-1.43-1.66-3.46-1.16-6.05l-.02-.02c.5-2.36,2.11-5.97,4.82-10.87.39-.71.47-1.43.26-2.22-.23-.77-.68-1.35-1.38-1.74-.71-.39-1.43-.47-2.22-.26-.77.23-1.35.68-1.74,1.38-1.93,3.44-3.34,6.34-4.29,8.7-1.53-2.43-1.7-5.24-.58-8.46h0c.45-1.25,1.08-2.56,1.85-3.88h0c1.5-2.49,3.54-5.05,6.14-7.65,1.61-1.61,3.6-3.09,5.95-4.44,3.01-1.75,6.59-3.28,10.74-4.57.03-.03.1-.03.14-.05.4-.14.79-.27,1.16-.42l-.08.02c1.4-.4,2.59-.69,3.54-.84h0c1.78-.27,3.51-.42,5.21-.45h.06l.11-.02c2.8.03,5.45.37,7.94,1.03l-.11-.05c.51.16,1.06.32,1.58.48.77.23,1.51.16,2.24-.21.71-.39,1.17-.95,1.4-1.72s.16-1.51-.21-2.24c-.39-.71-.95-1.17-1.72-1.4-.51-.16-1.06-.32-1.58-.48-.03-.03-.05-.05-.11-.05-1.82-.47-3.7-.8-5.64-1.01.88-1.01,2.25-2.38,4.13-4.13,3.68-2.94,9.42-1.35,17.25,4.81,8.22,6.48,12.19,11.64,11.9,15.53h0c-.45,2.7-1.7,4.89-3.78,6.51-.59-1.53-1.32-3.02-2.14-4.55l-.03-.03c-.39-.71-.8-1.38-1.24-2.07l-.08-.08c-.59-.85-1.24-1.69-1.9-2.48-.5-.63-1.16-.96-1.96-1.06-.79-.08-1.5.14-2.12.64-.63.5-.98,1.14-1.06,1.96-.06.8.14,1.5.64,2.12.55.68,1.08,1.37,1.59,2.07l.08.08c.34.56.68,1.13,1,1.67l-.03-.03c.85,1.5,1.54,2.99,2.12,4.5l.02.02c.23.64.43,1.24.63,1.85.05.53.21.98.45,1.32,1.77,4.12,1.29,8.91-1.43,14.39-.03.03-.05.11-.06.16-.05.11-.08.21-.14.31-.1.19-.19.35-.31.53-.05.05-.08.11-.13.19-4.18,7.88-5.19,15.93-3.04,24.14l.02.02c.8,3.06,1,5.37.58,6.95-.27.76-.88,1.17-1.78,1.24l.11.11h0Z" fill="#2a2a2a"/>
  <path d="M64.46,168.88h0c-3.18.32-5.45-.95-6.83-3.78h0c-1.7-3.41-2.41-6.4-2.2-8.96.32-3.09.53-6.06.61-8.94l-.02-.02c.1-2.12,0-3.76-.29-4.98-.1-.42-.27-.79-.51-1.13s-.56-.59-.93-.8c-3.83-2.22-7.65-1.51-11.45,2.12-2.94,2.75-5.85,7.65-8.76,14.74-.03.1-.06.19-.1.29-.79,2.59-1.21,6.9-1.25,12.93l.02.02c-.03,4.05-1.25,6.56-3.65,7.51l-.03.03c-.8.23-1.48.13-2.07-.37-1-1-1.87-2.67-2.57-5.05-1.56-5.45-.74-12.03,2.4-19.73.03-.03.05-.11.06-.16,0,0,.02-.02.02-.05h0l.05-.11c1.19-2.8,3.09-6.46,5.69-10.93.4-.69.5-1.43.29-2.22s-.66-1.37-1.35-1.77-1.43-.5-2.22-.29c-.79.21-1.37.66-1.77,1.35-2.2,3.81-3.94,7.06-5.18,9.71-.1-.03-.18-.05-.26-.1-.32-.19-.59-.43-.84-.68-1.22-1.29-1.77-2.93-1.59-4.9.29-2.28,2.12-5.95,5.42-10.98.43-.66.56-1.4.42-2.19-.16-.77-.58-1.38-1.25-1.83-.66-.43-1.38-.58-2.17-.43-.8.16-1.4.56-1.85,1.24-3.34,5.08-5.37,9.07-6.08,11.93-.59-.24-1.03-.48-1.32-.71-1.27-1.43-1.66-3.46-1.16-6.05l-.02-.02c.5-2.36,2.11-5.97,4.82-10.87.39-.71.47-1.43.26-2.22-.23-.77-.68-1.35-1.38-1.74-.71-.39-1.43-.47-2.22-.26-.77.23-1.35.68-1.74,1.38-1.93,3.44-3.34,6.34-4.29,8.7-1.53-2.43-1.7-5.24-.58-8.46h0c.45-1.25,1.08-2.56,1.85-3.88h0c1.5-2.49,3.54-5.05,6.14-7.65,1.61-1.61,3.6-3.09,5.95-4.44,3.01-1.75,6.59-3.28,10.74-4.57.03-.03.1-.03.14-.05.4-.14.79-.27,1.16-.42l-.08.02c1.4-.4,2.59-.69,3.54-.84h0c1.78-.27,3.51-.42,5.21-.45h.06l.11-.02c2.8.03,5.45.37,7.94,1.03l-.11-.05c.51.16,1.06.32,1.58.48.77.23,1.51.16,2.24-.21.71-.39,1.17-.95,1.4-1.72s.16-1.51-.21-2.24c-.39-.71-.95-1.17-1.72-1.4-.51-.16-1.06-.32-1.58-.48-.03-.03-.05-.05-.11-.05-1.82-.47-3.7-.8-5.64-1.01.88-1.01,2.25-2.38,4.13-4.13,3.68-2.94,9.42-1.35,17.25,4.81,8.22,6.48,12.19,11.64,11.9,15.53h0c-.45,2.7-1.7,4.89-3.78,6.51-.59-1.53-1.32-3.02-2.14-4.55l-.03-.03c-.39-.71-.8-1.38-1.24-2.07l-.08-.08c-.59-.85-1.24-1.69-1.9-2.48-.5-.63-1.16-.96-1.96-1.06-.79-.08-1.5.14-2.12.64-.63.5-.98,1.14-1.06,1.96-.06.8.14,1.5.64,2.12.55.68,1.08,1.37,1.59,2.07l.08.08c.34.56.68,1.13,1,1.67l-.03-.03c.85,1.5,1.54,2.99,2.12,4.5l.02.02c.23.64.43,1.24.63,1.85.05.53.21.98.45,1.32,1.77,4.12,1.29,8.91-1.43,14.39-.03.03-.05.11-.06.16-.05.11-.08.21-.14.31-.1.19-.19.35-.31.53-.05.05-.08.11-.13.19-4.18,7.88-5.19,15.93-3.04,24.14l.02.02c.8,3.06,1,5.37.58,6.95-.27.76-.88,1.17-1.78,1.24l.11.11h0Z" fill="#f4f4f4"/>
</svg>