<?xml version="1.0" encoding="UTF-8"?>
<svg id="a" data-name="Camada 1" xmlns="http://www.w3.org/2000/svg" viewBox="0 0 74.37 115.73">
  <rect x="1.37" y="1.37" width="71.64" height="112.99" rx="7.15" ry="7.15" fill="#e5e1c3"/>
  <path d="M68.3,0H6.07C2.73,0,0,2.73,0,6.07v103.59c0,3.34,2.73,6.07,6.07,6.07h62.23c3.34,0,6.07-2.73,6.07-6.07V6.07C74.37,2.74,71.64,0,68.3,0h0ZM73,109.65c0,2.59-2.11,4.71-4.71,4.71H6.07c-2.59,0-4.71-2.11-4.71-4.71V6.07C1.36,3.48,3.48,1.37,6.07,1.37h62.23c2.59,0,4.71,2.11,4.71,4.71v103.59h0Z" fill="#2a2a2a"/>
  <path d="M8.83,59.23h56.68c2.63,0,4.77,2.26,4.77,5.03v14.78c0,2.76-2.15,5.03-4.77,5.03H8.83c-2.63,0-4.77-2.26-4.77-5.03v-14.78c0-2.76,2.15-5.03,4.77-5.03Z" fill="#2a2a2a" fill-rule="evenodd"/>
  <path d="M8.83,31.66h56.68c2.63,0,4.77,2.26,4.77,5.03v14.78c0,2.76-2.15,5.03-4.77,5.03H8.83c-2.63,0-4.77-2.26-4.77-5.03v-14.78c0-2.76,2.15-5.03,4.77-5.03Z" fill="#2a2a2a" fill-rule="evenodd"/>
  <path d="M31.87,20.65h-1.49l-.59-1.88h-2.72l-.56,1.88h-1.45l2.65-8.28h1.45l2.72,8.28h0ZM29.35,17.37l-.93-3.07-.92,3.07h1.86Z" fill="#2a2a2a"/>
  <path d="M32.63,20.65v-8.21h1.37v6.81h3.41v1.4h-4.78Z" fill="#2a2a2a"/>
  <path d="M39.22,20.65v-6.88h-2.01v-1.4h5.39v1.4h-2.01v6.88h-1.37Z" fill="#2a2a2a"/>
  <path d="M43.04,16.56c0-.99.14-1.8.43-2.44.29-.64.67-1.11,1.15-1.43.47-.31,1.04-.47,1.71-.47.97,0,1.76.37,2.38,1.11.61.74.91,1.8.91,3.17s-.32,2.47-.97,3.24c-.57.69-1.34,1.03-2.32,1.03s-1.76-.34-2.32-1.02c-.64-.78-.97-1.85-.97-3.21h0ZM44.45,16.5c0,.95.18,1.67.54,2.15s.81.72,1.34.72.99-.24,1.34-.71.53-1.2.53-2.18-.17-1.67-.52-2.13-.8-.69-1.36-.69-1.01.23-1.36.7c-.35.46-.53,1.18-.53,2.15h0Z" fill="#2a2a2a"/>
  <path d="M53.34,20.65v-8.28h5.03v1.4h-3.67v1.84h3.41v1.4h-3.41v2.24h3.8v1.4h-5.16Z" fill="#2a2a2a"/>
  <path d="M59.64,20.65v-8.28h2.05l1.23,5.65,1.22-5.65h2.06v8.28h-1.28v-6.52l-1.36,6.52h-1.32l-1.34-6.52v6.52h-1.28,0Z" fill="#2a2a2a"/>
  <path d="M18.61,5.08c-3.49-2.01-7.95-.82-9.97,2.67-1.84,3.18-1,7.15,1.8,9.37l-1.05,1.82h0c-.55.06-1.07.37-1.37.89l-3.67,6.35c-.49.86-.2,1.96.66,2.45s1.96.2,2.45-.66l3.67-6.35c.3-.52.31-1.12.08-1.63h0l1.05-1.82c3.31,1.32,7.17.05,9.02-3.13,2.01-3.49.82-7.95-2.67-9.97h0ZM16.31,16.43c-2.77.74-5.63-.91-6.37-3.68s.91-5.63,3.68-6.38c2.77-.74,5.63.91,6.37,3.68.74,2.77-.91,5.63-3.68,6.38Z" fill="#2a2a2a"/>
  <path d="M64.54,28.93H8.5l4.1-7.1c.2-.36.3-.76.28-1.18v-.2s.49-.88.49-.88l.46.09c3.46.7,6.96-.88,8.72-3.93,2.01-3.48,1.15-7.99-1.99-10.49l-1.45-1.16h45.45c3.17,0,5.73,2.43,5.73,5.42v14.01c0,2.99-2.57,5.42-5.73,5.42h0ZM10.74,27.64h53.8c2.45,0,4.44-1.84,4.44-4.11v-14.01c0-2.27-1.99-4.11-4.44-4.11H22.56c2.63,2.99,3.14,7.46,1.1,11-1.93,3.36-5.7,5.17-9.5,4.65-.04.5-.19.99-.45,1.43l-2.97,5.15h0Z" fill="#2a2a2a"/>
  <path d="M8.83,86.8h56.68c2.63,0,4.77,2.26,4.77,5.03v14.78c0,2.76-2.15,5.03-4.77,5.03H8.83c-2.63,0-4.77-2.26-4.77-5.03v-14.78c0-2.76,2.15-5.03,4.77-5.03Z" fill="#2a2a2a" fill-rule="evenodd"/>
  <g>
    <path d="M19.21,66.93l1.03.4c-.16.72-.43,1.25-.8,1.58s-.84.5-1.38.5c-.69,0-1.24-.26-1.67-.8-.49-.61-.74-1.44-.74-2.48,0-1.1.25-1.96.74-2.58.43-.54,1.01-.81,1.74-.81.59,0,1.09.2,1.49.61.28.29.49.71.63,1.28l-1.05.31c-.07-.35-.2-.62-.4-.8-.2-.18-.44-.28-.71-.28-.39,0-.71.17-.95.51s-.37.9-.37,1.68.12,1.39.36,1.73.55.51.93.51c.28,0,.53-.11.73-.33s.36-.57.44-1.04h-.01,0Z" fill="#e5e1c3"/>
    <path d="M20.94,66.12c0-.77.11-1.4.34-1.9s.53-.87.89-1.11.81-.36,1.33-.36c.76,0,1.37.29,1.85.87s.72,1.4.72,2.47-.25,1.92-.76,2.53c-.44.53-1.04.8-1.8.8s-1.37-.26-1.81-.8c-.51-.61-.76-1.44-.76-2.49h0ZM22.03,66.08c0,.74.14,1.3.42,1.67s.63.55,1.05.55.77-.18,1.04-.55.41-.93.41-1.69-.13-1.3-.4-1.66-.62-.53-1.05-.53-.79.18-1.06.54-.41.92-.41,1.67h0Z" fill="#e5e1c3"/>
    <path d="M26.91,69.3v-6.44h1.04l2.17,4.3v-4.3h.99v6.44h-1.07l-2.13-4.2v4.2h-1Z" fill="#e5e1c3"/>
    <path d="M35.61,66.93l1.03.4c-.16.72-.43,1.25-.8,1.58s-.84.5-1.38.5c-.69,0-1.24-.26-1.67-.8-.49-.61-.74-1.44-.74-2.48,0-1.1.25-1.96.74-2.58.43-.54,1.01-.81,1.74-.81.59,0,1.09.2,1.49.61.28.29.49.71.63,1.28l-1.05.31c-.07-.35-.2-.62-.4-.8-.2-.18-.44-.28-.71-.28-.39,0-.71.17-.95.51s-.37.9-.37,1.68.12,1.39.36,1.73.55.51.93.51c.28,0,.53-.11.73-.33s.36-.57.44-1.04h-.01,0Z" fill="#e5e1c3"/>
    <path d="M37.55,69.3v-6.44h3.92v1.09h-2.86v1.43h2.65v1.09h-2.65v1.75h2.96v1.09h-4.02,0Z" fill="#e5e1c3"/>
    <path d="M42.44,69.3v-6.44h1.07v6.44h-1.07Z" fill="#e5e1c3"/>
    <path d="M45.72,69.3v-5.35h-1.57v-1.09h4.2v1.09h-1.57v5.35h-1.07Z" fill="#e5e1c3"/>
    <path d="M48.69,66.12c0-.77.11-1.4.34-1.9s.53-.87.89-1.11.81-.36,1.33-.36c.76,0,1.37.29,1.85.87s.72,1.4.72,2.47-.25,1.92-.76,2.53c-.44.53-1.04.8-1.8.8s-1.37-.26-1.81-.8c-.51-.61-.76-1.44-.76-2.49h0ZM49.79,66.08c0,.74.14,1.3.42,1.67s.63.55,1.05.55.77-.18,1.04-.55.41-.93.41-1.69-.13-1.3-.4-1.66-.62-.53-1.05-.53-.79.18-1.06.54-.41.92-.41,1.67h0Z" fill="#e5e1c3"/>
    <path d="M54.38,67.2l1.04-.13c.12.82.5,1.24,1.15,1.24.32,0,.57-.09.76-.25.18-.17.28-.38.28-.63,0-.14-.03-.27-.1-.38-.07-.11-.16-.18-.3-.25s-.45-.18-.96-.33c-.45-.14-.79-.29-1-.45s-.38-.38-.5-.63-.18-.55-.18-.84c0-.35.08-.66.24-.95s.38-.49.66-.64.63-.22,1.04-.22c.62,0,1.11.17,1.45.51s.53.82.55,1.45l-1.07.06c-.05-.35-.14-.59-.3-.72s-.38-.2-.66-.2-.51.06-.66.18c-.16.12-.23.27-.23.45s.07.32.21.44.47.25.97.39c.53.16.92.32,1.16.49s.42.39.55.66.19.6.19.99c0,.56-.17,1.03-.51,1.41s-.88.57-1.61.57c-1.3,0-2.01-.74-2.17-2.21h0Z" fill="#e5e1c3"/>
    <path d="M15.97,79.59v-6.44h2.24c.57,0,.99.06,1.23.17s.45.32.61.6.24.63.24,1.03c0,.51-.12.91-.36,1.22s-.59.5-1.03.58c.23.16.41.34.57.54s.36.55.61,1.05l.64,1.26h-1.27l-.77-1.4c-.28-.51-.47-.82-.57-.95s-.2-.22-.32-.26-.29-.07-.53-.07h-.22v2.69h-1.07ZM17.04,75.87h.79c.48,0,.79-.02.92-.07s.24-.13.32-.26.13-.3.13-.51-.04-.37-.13-.49-.19-.21-.34-.26c-.1-.03-.39-.05-.87-.05h-.84v1.63h0Z" fill="#e5e1c3"/>
    <path d="M21.3,79.59v-6.44h3.92v1.09h-2.86v1.43h2.65v1.09h-2.65v1.75h2.96v1.09h-4.02,0Z" fill="#e5e1c3"/>
    <path d="M26.23,79.59v-6.44h3.62v1.09h-2.56v1.53h2.22v1.09h-2.22v2.74h-1.07,0Z" fill="#e5e1c3"/>
    <path d="M30.7,79.59v-6.44h1.07v6.44h-1.07Z" fill="#e5e1c3"/>
    <path d="M32.8,79.59v-6.44h1.04l2.17,4.3v-4.3h.99v6.44h-1.07l-2.13-4.2v4.2h-1Z" fill="#e5e1c3"/>
    <path d="M42.88,79.59h-1.16l-.46-1.46h-2.11l-.43,1.46h-1.13l2.06-6.44h1.13l2.12,6.44h-.01ZM40.92,77.04l-.73-2.39-.72,2.39h1.45Z" fill="#e5e1c3"/>
    <path d="M43.43,73.15h1.95c.49,0,.86.05,1.11.16s.48.3.69.55.38.6.49,1.01.18.93.18,1.55c0,.56-.07,1.04-.19,1.45s-.28.74-.48.98-.43.42-.7.54-.63.18-1.05.18h-2v-6.44ZM44.49,74.24v4.26h.8c.34,0,.59-.03.74-.1.15-.07.28-.16.38-.29.1-.13.18-.34.24-.62s.1-.65.1-1.11-.03-.86-.1-1.13c-.07-.28-.17-.49-.31-.65s-.31-.26-.51-.31c-.15-.04-.44-.06-.87-.06h-.48Z" fill="#e5e1c3"/>
    <path d="M48.55,76.41c0-.77.11-1.4.34-1.9s.53-.87.89-1.11.81-.36,1.33-.36c.76,0,1.37.29,1.85.87s.72,1.4.72,2.47-.25,1.92-.76,2.53c-.44.53-1.04.8-1.8.8s-1.37-.26-1.81-.8c-.51-.61-.76-1.44-.76-2.49h0ZM49.64,76.37c0,.74.14,1.3.42,1.67s.63.55,1.05.55.77-.18,1.04-.55.41-.93.41-1.69-.13-1.3-.4-1.66-.62-.53-1.05-.53-.79.18-1.06.54-.41.92-.41,1.67h0Z" fill="#e5e1c3"/>
    <path d="M54.24,77.49l1.04-.13c.12.82.5,1.24,1.15,1.24.32,0,.57-.09.76-.25.18-.17.28-.38.28-.63,0-.14-.03-.27-.1-.38-.07-.11-.16-.18-.3-.25s-.45-.18-.96-.33c-.45-.14-.79-.29-1-.45s-.38-.38-.5-.63-.18-.55-.18-.84c0-.35.08-.66.24-.95s.38-.49.66-.64.63-.22,1.04-.22c.62,0,1.11.17,1.45.51s.53.82.55,1.45l-1.07.06c-.05-.35-.14-.59-.3-.72s-.38-.2-.66-.2-.51.06-.66.18c-.16.12-.23.27-.23.45s.07.32.21.44.47.25.97.39c.53.16.92.32,1.16.49s.42.39.55.66.19.6.19.99c0,.56-.17,1.03-.51,1.41s-.88.57-1.61.57c-1.3,0-2.01-.74-2.17-2.21h0Z" fill="#e5e1c3"/>
  </g>
  <g>
    <path d="M7.96,38.38c0-.77.11-1.4.34-1.9s.53-.87.89-1.11.81-.36,1.33-.36c.76,0,1.37.29,1.85.87s.72,1.4.72,2.47-.25,1.92-.76,2.53c-.44.53-1.04.8-1.8.8s-1.37-.26-1.81-.8c-.51-.61-.76-1.44-.76-2.49h0ZM9.06,38.34c0,.74.14,1.3.42,1.67s.63.55,1.05.55.77-.18,1.04-.55.41-.93.41-1.69-.13-1.3-.4-1.66-.62-.53-1.05-.53-.79.18-1.06.54-.41.92-.41,1.67h0Z" fill="#e5e1c3"/>
    <path d="M13.93,41.57v-6.44h2.24c.57,0,.99.06,1.23.17s.45.32.61.6.24.63.24,1.03c0,.51-.12.91-.36,1.22s-.59.5-1.03.58c.23.16.41.34.57.54s.36.55.61,1.05l.64,1.26h-1.27l-.77-1.4c-.28-.51-.47-.82-.57-.95s-.2-.22-.32-.26-.29-.07-.53-.07h-.22v2.69h-1.07ZM14.99,37.85h.79c.48,0,.79-.02.92-.07s.24-.13.32-.26.13-.3.13-.51-.04-.37-.13-.49-.19-.21-.34-.26c-.1-.03-.39-.05-.87-.05h-.84v1.63h0Z" fill="#e5e1c3"/>
    <path d="M19.22,41.57v-6.44h1.07v6.44h-1.07Z" fill="#e5e1c3"/>
    <path d="M23.77,39.2v-1.09h2.3v2.57c-.23.27-.56.51-.99.7s-.85.3-1.28.3c-.52,0-.98-.13-1.38-.38s-.72-.64-.95-1.15-.35-1.11-.35-1.8.12-1.32.36-1.82.54-.88.92-1.13.83-.38,1.35-.38c.63,0,1.13.16,1.51.48s.63.79.73,1.42l-1.05.24c-.08-.33-.22-.59-.43-.76s-.46-.26-.76-.26c-.45,0-.82.18-1.11.53s-.42.89-.42,1.61c0,.78.15,1.37.45,1.77.26.35.61.52,1.06.52.21,0,.42-.05.64-.14s.42-.23.6-.4v-.82h-1.22.01,0Z" fill="#e5e1c3"/>
    <path d="M27.02,41.57v-6.44h1.07v6.44h-1.07Z" fill="#e5e1c3"/>
    <path d="M29.12,41.57v-6.44h1.04l2.17,4.3v-4.3h.99v6.44h-1.07l-2.13-4.2v4.2h-1Z" fill="#e5e1c3"/>
    <path d="M39.19,41.57h-1.16l-.46-1.46h-2.11l-.43,1.46h-1.13l2.06-6.44h1.13l2.12,6.44h-.01ZM37.23,39.02l-.73-2.39-.72,2.39h1.45Z" fill="#e5e1c3"/>
    <path d="M39.79,41.57v-6.39h1.07v5.3h2.65v1.09h-3.72Z" fill="#e5e1c3"/>
    <path d="M44.23,41.57v-6.44h1.07v6.44h-1.07Z" fill="#e5e1c3"/>
    <path d="M46.31,35.13h1.95c.49,0,.86.05,1.11.16s.48.3.69.55.38.6.49,1.01.18.93.18,1.55c0,.56-.07,1.04-.19,1.45s-.28.74-.48.98c-.2.24-.43.42-.7.54s-.63.18-1.05.18h-2v-6.44ZM47.37,36.21v4.26h.8c.34,0,.59-.03.74-.1.15-.07.28-.16.38-.29.1-.13.18-.34.24-.62s.1-.65.1-1.11-.03-.86-.1-1.13c-.07-.28-.17-.49-.31-.65s-.31-.26-.51-.31c-.15-.04-.44-.06-.87-.06h-.48Z" fill="#e5e1c3"/>
    <path d="M56.41,41.57h-1.16l-.46-1.46h-2.11l-.43,1.46h-1.13l2.06-6.44h1.13l2.12,6.44h-.01ZM54.45,39.02l-.73-2.39-.72,2.39h1.45Z" fill="#e5e1c3"/>
    <path d="M56.96,35.13h1.95c.49,0,.86.05,1.11.16s.48.3.69.55.38.6.49,1.01.18.93.18,1.55c0,.56-.07,1.04-.19,1.45s-.28.74-.48.98c-.2.24-.43.42-.7.54s-.63.18-1.05.18h-2v-6.44ZM58.03,36.21v4.26h.8c.34,0,.59-.03.74-.1.15-.07.28-.16.38-.29.1-.13.18-.34.24-.62s.1-.65.1-1.11-.03-.86-.1-1.13c-.07-.28-.17-.49-.31-.65s-.31-.26-.51-.31c-.15-.04-.44-.06-.87-.06h-.48Z" fill="#e5e1c3"/>
    <path d="M62.3,41.57v-6.44h3.92v1.09h-2.86v1.43h2.65v1.09h-2.65v1.75h2.96v1.09h-4.02,0Z" fill="#e5e1c3"/>
    <path d="M18.9,51.86h-1.16l-.46-1.46h-2.11l-.43,1.46h-1.13l2.06-6.44h1.13l2.12,6.44h-.01ZM16.94,49.3l-.73-2.39-.72,2.39h1.45Z" fill="#e5e1c3"/>
    <path d="M19.45,45.41h1.95c.49,0,.86.05,1.11.16s.48.3.69.55.38.6.49,1.01.18.93.18,1.55c0,.56-.07,1.04-.19,1.45s-.28.74-.48.98-.43.42-.7.54-.63.18-1.05.18h-2v-6.44ZM20.51,46.5v4.26h.8c.34,0,.59-.03.74-.1s.28-.16.38-.29c.1-.13.18-.34.24-.62s.1-.65.1-1.11-.03-.86-.1-1.13c-.07-.28-.17-.49-.31-.65-.14-.16-.31-.26-.51-.31-.15-.04-.44-.06-.87-.06h-.48Z" fill="#e5e1c3"/>
    <path d="M24.75,51.86v-6.44h1.07v6.44h-1.07Z" fill="#e5e1c3"/>
    <path d="M30.22,49.49l1.03.4c-.16.72-.43,1.25-.8,1.58s-.84.5-1.38.5c-.69,0-1.24-.26-1.67-.8-.49-.61-.74-1.44-.74-2.48,0-1.1.25-1.96.74-2.58.43-.54,1.01-.81,1.74-.81.59,0,1.09.2,1.49.61.28.29.49.71.63,1.28l-1.05.31c-.07-.35-.2-.62-.4-.8-.2-.18-.44-.28-.71-.28-.39,0-.71.17-.95.51s-.37.9-.37,1.68.12,1.39.36,1.73.55.51.93.51c.28,0,.53-.11.73-.33s.36-.57.44-1.04h-.01,0Z" fill="#e5e1c3"/>
    <path d="M32.13,51.86v-6.44h1.07v6.44h-1.07Z" fill="#e5e1c3"/>
    <path d="M34,48.67c0-.77.11-1.4.34-1.9s.53-.87.89-1.11.81-.36,1.33-.36c.76,0,1.37.29,1.85.87s.72,1.4.72,2.47-.25,1.92-.76,2.53c-.44.53-1.04.8-1.8.8s-1.37-.26-1.81-.8c-.51-.61-.76-1.44-.76-2.49h0ZM35.1,48.63c0,.74.14,1.3.42,1.67s.63.55,1.05.55.77-.18,1.04-.55.41-.93.41-1.69-.13-1.3-.4-1.66-.62-.53-1.05-.53-.79.18-1.06.54-.41.92-.41,1.67h0Z" fill="#e5e1c3"/>
    <path d="M39.98,51.86v-6.44h1.04l2.17,4.3v-4.3h.99v6.44h-1.07l-2.13-4.2v4.2h-1Z" fill="#e5e1c3"/>
    <path d="M50.05,51.86h-1.16l-.46-1.46h-2.11l-.43,1.46h-1.13l2.06-6.44h1.13l2.12,6.44h-.01ZM48.09,49.3l-.73-2.39-.72,2.39h1.45Z" fill="#e5e1c3"/>
    <path d="M50.61,45.41h1.95c.49,0,.86.05,1.11.16s.48.3.69.55.38.6.49,1.01.18.93.18,1.55c0,.56-.07,1.04-.19,1.45s-.28.74-.48.98-.43.42-.7.54-.63.18-1.05.18h-2v-6.44ZM51.67,46.5v4.26h.8c.34,0,.59-.03.74-.1.15-.07.28-.16.38-.29.1-.13.18-.34.24-.62s.1-.65.1-1.11-.03-.86-.1-1.13c-.07-.28-.17-.49-.31-.65s-.31-.26-.51-.31c-.15-.04-.44-.06-.87-.06h-.48Z" fill="#e5e1c3"/>
    <path d="M60.71,51.86h-1.16l-.46-1.46h-2.11l-.43,1.46h-1.13l2.06-6.44h1.13l2.12,6.44h-.01ZM58.75,49.3l-.73-2.39-.72,2.39h1.45Z" fill="#e5e1c3"/>
  </g>
  <g>
    <path d="M23.86,100.03l1.19-.14c.13.94.57,1.42,1.32,1.42.37,0,.66-.1.87-.29.21-.19.32-.43.32-.72,0-.16-.04-.31-.11-.43-.07-.12-.18-.21-.34-.29-.15-.07-.51-.2-1.1-.38-.52-.16-.9-.33-1.14-.51s-.43-.43-.57-.72c-.14-.3-.21-.63-.21-.97,0-.4.09-.76.28-1.09s.43-.57.76-.73.72-.24,1.19-.24c.71,0,1.26.19,1.67.58s.61.93.63,1.65l-1.22.07c-.05-.39-.17-.67-.35-.83-.18-.16-.43-.24-.76-.24s-.58.07-.76.2c-.18.14-.26.31-.26.51s.08.37.24.51c.16.14.53.29,1.11.45.61.18,1.06.36,1.33.56s.48.45.63.76.22.68.22,1.13c0,.64-.2,1.18-.59,1.61-.39.43-1.01.65-1.85.65-1.48,0-2.3-.84-2.47-2.53h0Z" fill="#e5e1c3"/>
    <path d="M29.55,98.8c0-.88.13-1.6.39-2.17.26-.57.6-.99,1.02-1.27s.93-.41,1.53-.41c.86,0,1.57.33,2.11.99.55.66.82,1.6.82,2.82s-.29,2.2-.86,2.89c-.51.61-1.19.92-2.06.92s-1.57-.3-2.07-.91c-.58-.69-.86-1.65-.86-2.86h0ZM30.81,98.75c0,.85.16,1.49.48,1.91.32.42.72.64,1.2.64s.88-.21,1.19-.63.47-1.07.47-1.94-.15-1.49-.46-1.9-.71-.61-1.2-.61-.9.2-1.21.62-.47,1.05-.47,1.92ZM31.84,94.58l.57-1.5h1.3l-1.14,1.5h-.74Z" fill="#e5e1c3"/>
    <path d="M36.36,95.06h2.22c.56,0,.99.07,1.28.19.29.13.55.34.79.64.24.3.43.68.57,1.16.14.47.2,1.07.2,1.78,0,.64-.07,1.19-.22,1.67s-.33.84-.55,1.12c-.22.28-.49.48-.8.62s-.72.21-1.21.21h-2.29v-7.38h0ZM37.58,96.31v4.88h.91c.39,0,.68-.04.85-.11.18-.07.32-.18.43-.34s.2-.38.28-.7c.07-.32.11-.74.11-1.27s-.04-.97-.11-1.29c-.07-.32-.19-.56-.36-.74s-.36-.3-.58-.36c-.17-.05-.5-.07-.99-.07h-.55Z" fill="#e5e1c3"/>
    <path d="M42.43,102.43v-7.37h1.22v7.37h-1.22Z" fill="#e5e1c3"/>
    <path d="M44.57,98.8c0-.88.13-1.6.39-2.17.26-.57.6-.99,1.02-1.27s.93-.41,1.53-.41c.86,0,1.57.33,2.11.99.55.66.82,1.6.82,2.82s-.29,2.2-.86,2.89c-.51.61-1.19.92-2.06.92s-1.57-.3-2.07-.91c-.58-.69-.86-1.65-.86-2.86h0ZM45.83,98.75c0,.85.16,1.49.48,1.91s.72.64,1.2.64.88-.21,1.19-.63.47-1.07.47-1.94-.15-1.49-.46-1.9-.71-.61-1.2-.61-.9.2-1.21.62c-.31.41-.47,1.05-.47,1.92Z" fill="#e5e1c3"/>
  </g>
</svg>