<?xml version="1.0" encoding="UTF-8"?>
<svg id="a" xmlns="http://www.w3.org/2000/svg" version="1.1" viewBox="0 0 295 295">
  <!-- Generator: Adobe Illustrator 30.2.1, SVG Export Plug-In . SVG Version: 2.1.1 Build 1)  -->
  <defs>
    <style>
      .st0 {
        fill: #2a2a2a;
      }
    </style>
  </defs>
  <path class="st0" d="M148.04,107.36c-1.39,1.38-1.5,3.3-.17,4.63,1.33,1.33,3.25,1.22,4.63-.17s1.49-3.27.15-4.61c-1.34-1.33-3.23-1.22-4.61.15Z"/>
  <path class="st0" d="M136.33,119.07c-1.31,1.3-1.39,3.28.19,4.85s3.53,1.51,4.85.19,1.37-3.26-.2-4.84h0c-1.57-1.57-3.53-1.5-4.84-.2h0Z"/>
  <path class="st0" d="M107.68,147.72c-1.32,1.32-1.37,3.26.2,4.84s3.52,1.52,4.84.2,1.37-3.26-.2-4.84c-1.57-1.57-3.52-1.52-4.84-.2Z"/>
  <path class="st0" d="M118.86,136.54c-1.31,1.3-1.39,3.28.19,4.85s3.53,1.51,4.85.19,1.37-3.26-.2-4.84c-1.57-1.57-3.53-1.5-4.84-.2h0Z"/>
  <path class="st0" d="M82.3,175.88c-1.18-.68-2.6-.51-3.7.59-1.32,1.32-1.35,3.1.13,4.69l3.57-5.28Z"/>
  <path class="st0" d="M111.26,120.4c1.32-1.32,1.37-3.26-.2-4.84-1.57-1.57-3.52-1.52-4.84-.2-1.32,1.32-1.39,3.28.19,4.85s3.53,1.51,4.85.19Z"/>
  <path class="st0" d="M197.45,0c-1.33.83-2.21,2.34-2.1,4.01,0,.19-.08.39-.21.52s-.33.21-.52.21c-2.62-.18-4.85,2.05-4.67,4.67.02.41-.33.76-.74.74-1.32-.08-2.54.37-3.43,1.26-.04.04-.08.09-.12.14-.04.04-.09.08-.14.12-.91.91-1.33,2.11-1.26,3.43.02.41-.33.76-.74.74-2.62-.18-4.85,2.05-4.67,4.67,0,.19-.08.39-.21.52-.13.13-.33.21-.52.21-2.62-.18-4.85,2.05-4.67,4.67.02.41-.33.76-.74.74-2.62-.18-4.85,2.05-4.67,4.67.02.41-.33.76-.74.74-2.62-.18-4.85,2.05-4.67,4.67.02.41-.33.76-.74.74-2.62-.18-4.85,2.05-4.67,4.67.02.41-.33.76-.74.74-2.62-.18-4.85,2.05-4.67,4.67,0,.19-.08.39-.21.52s-.33.21-.52.21c-2.62-.18-4.85,2.05-4.67,4.67.02.41-.33.76-.74.74-1.32-.08-2.54.37-3.43,1.26-.04.04-.08.09-.12.14-.04.04-.09.08-.14.12-.91.91-1.33,2.11-1.26,3.43.02.41-.33.76-.74.74-2.62-.18-4.85,2.05-4.67,4.67,0,.19-.08.39-.21.52s-.33.21-.52.21c-2.62-.18-4.85,2.05-4.67,4.67.02.41-.33.76-.74.74-2.62-.18-4.85,2.05-4.67,4.67.02.41-.33.76-.74.74-2.62-.18-4.85,2.05-4.67,4.67.02.41-.33.76-.74.74-2.62-.18-4.85,2.05-4.67,4.67.02.41-.33.76-.74.74-2.62-.18-4.85,2.05-4.67,4.67,0,.19-.08.39-.21.52s-.33.21-.52.21c-2.62-.18-4.85,2.05-4.67,4.67.02.41-.33.76-.74.74-1.32-.08-2.54.37-3.43,1.26-.04.04-.08.09-.12.14-.04.04-.09.08-.14.12-.91.91-1.33,2.11-1.26,3.43.02.41-.33.76-.74.74-2.62-.18-4.85,2.05-4.67,4.67,0,.19-.08.39-.21.52s-.33.21-.52.21c-2.62-.18-4.85,2.05-4.67,4.67.02.41-.33.76-.74.74-2.62-.18-4.85,2.05-4.67,4.67.02.41-.33.76-.74.74-2.62-.18-4.85,2.05-4.67,4.67.02.41-.33.76-.74.74-2.62-.18-4.85,2.05-4.67,4.67.02.41-.33.76-.74.74-2.62-.18-4.85,2.05-4.67,4.67,0,.19-.08.39-.21.52s-.33.21-.52.21c-2.62-.18-4.85,2.05-4.67,4.67.02.41-.33.76-.74.74-1.32-.08-2.54.37-3.43,1.26-.04.04-.08.09-.12.14-.04.04-.09.08-.14.12-.91.91-1.33,2.11-1.26,3.43.02.41-.33.76-.74.74-2.62-.18-4.85,2.05-4.67,4.67,0,.19-.08.39-.21.52s-.33.21-.52.21c-2.62-.18-4.85,2.05-4.67,4.67.02.41-.33.76-.74.74-2.62-.18-4.85,2.05-4.67,4.67.02.41-.33.76-.74.74-2.62-.18-4.85,2.05-4.67,4.67.02.41-.33.76-.74.74-2.62-.18-4.85,2.05-4.67,4.67.02.41-.33.76-.74.74-2.62-.18-4.85,2.05-4.67,4.67,0,.19-.08.39-.21.52s-.33.21-.52.21c-2.62-.18-4.85,2.05-4.67,4.67.02.41-.33.76-.74.74-1.32-.08-2.54.37-3.43,1.26-.04.04-.08.09-.12.14-.04.04-.09.08-.14.12-.91.91-1.33,2.11-1.26,3.43.02.41-.33.76-.74.74-2.62-.18-4.85,2.05-4.67,4.67,0,.19-.08.39-.21.52s-.33.21-.52.21c-1.59-.11-3.04.68-3.89,1.91v97.62h1.31c.73-.84,1.16-1.94,1.08-3.13-.02-.41.33-.76.74-.74,2.62.18,4.85-2.05,4.67-4.67,0-.19.08-.39.21-.52.13-.13.33-.21.52-.21,2.62.18,4.85-2.05,4.67-4.67-.02-.41.33-.76.74-.74,1.32.08,2.54-.37,3.43-1.26s1.31-2.05,1.29-3.21c0-.18.01-.36,0-.55-.02-.41.33-.76.74-.74,2.62.18,4.85-2.05,4.67-4.67,0-.19.08-.39.21-.52.13-.13.33-.21.52-.21,2.62.18,4.85-2.05,4.67-4.67-.02-.41.33-.76.74-.74,2.62.18,4.85-2.05,4.67-4.67-.02-.41.33-.76.74-.74,2.64.15,4.85-2.06,4.9-4.61-.02-.41.33-.76.74-.74,2.62.18,4.85-2.05,4.67-4.67-.02-.41.33-.76.74-.74,2.62.18,4.85-2.05,4.67-4.67,0-.19.08-.39.21-.52s.33-.21.52-.21c2.62.18,4.85-2.05,4.67-4.67-.02-.41.33-.76.74-.74,1.32.08,2.54-.37,3.43-1.26s1.31-2.05,1.29-3.21v-.55c-.02-.41.33-.76.74-.74,2.62.18,4.85-2.05,4.67-4.67,0-.19.08-.39.21-.52s.33-.21.52-.21c2.62.18,4.85-2.05,4.67-4.67-.02-.41.33-.76.74-.74,2.62.18,4.85-2.05,4.67-4.67-.02-.41.33-.76.74-.74,2.64.15,4.85-2.06,4.9-4.61-.02-.41.33-.76.74-.74,2.62.18,4.85-2.05,4.67-4.67-.02-.41.33-.76.74-.74,2.62.18,4.85-2.05,4.67-4.67,0-.19.08-.39.21-.52s.33-.21.52-.21c2.62.18,4.85-2.05,4.67-4.67-.02-.41.33-.76.74-.74,1.32.08,2.54-.37,3.43-1.26s1.31-2.05,1.29-3.21c0-.18.01-.36,0-.55-.02-.41.33-.76.74-.74,2.62.18,4.85-2.05,4.67-4.67,0-.19.08-.39.21-.52s.33-.21.52-.21c2.62.18,4.85-2.05,4.67-4.67-.02-.41.33-.76.74-.74,2.62.18,4.85-2.05,4.67-4.67-.02-.41.33-.76.74-.74,2.64.15,4.85-2.06,4.9-4.61-.02-.41.33-.76.74-.74,2.62.18,4.85-2.05,4.67-4.67-.02-.41.33-.76.74-.74,2.62.18,4.85-2.05,4.67-4.67,0-.19.08-.39.21-.52s.33-.21.52-.21c2.62.18,4.85-2.05,4.67-4.67-.02-.41.33-.76.74-.74,1.32.08,2.54-.37,3.43-1.26s1.31-2.05,1.29-3.21v-.55c-.02-.41.33-.76.74-.74,2.62.18,4.85-2.05,4.67-4.67,0-.19.08-.39.21-.52s.33-.21.52-.21c2.62.18,4.85-2.05,4.67-4.67-.02-.41.33-.76.74-.74,2.62.18,4.85-2.05,4.67-4.67-.02-.41.33-.76.74-.74,2.64.15,4.85-2.06,4.9-4.61-.02-.41.33-.76.74-.74,2.62.18,4.85-2.05,4.67-4.67-.02-.41.33-.76.74-.74,2.62.18,4.85-2.05,4.67-4.67,0-.19.08-.39.21-.52s.33-.21.52-.21c2.62.18,4.85-2.05,4.67-4.67-.02-.41.33-.76.74-.74,1.32.08,2.54-.37,3.43-1.26s1.31-2.05,1.29-3.21v-.55c-.02-.41.33-.76.74-.74,2.62.18,4.85-2.05,4.67-4.67,0-.19.08-.39.21-.52s.33-.21.52-.21c2.62.18,4.85-2.05,4.67-4.67-.02-.41.33-.76.74-.74,2.62.18,4.85-2.05,4.67-4.67-.02-.41.33-.76.74-.74,2.64.15,4.85-2.06,4.9-4.61-.02-.41.33-.76.74-.74,2.62.18,4.85-2.05,4.67-4.67-.02-.41.33-.76.74-.74,2.62.18,4.85-2.05,4.67-4.67,0-.19.08-.39.21-.52s.33-.21.52-.21c2.62.18,4.85-2.05,4.67-4.67-.02-.41.33-.76.74-.74,1.32.08,2.54-.37,3.43-1.26s1.31-2.05,1.29-3.21v-.55c-.02-.41.33-.76.74-.74,2.62.18,4.85-2.05,4.67-4.67,0-.19.08-.39.21-.52s.33-.21.52-.21c2.62.18,4.85-2.05,4.67-4.67-.02-.41.33-.76.74-.74,2.62.18,4.85-2.05,4.67-4.67-.02-.41.33-.76.74-.74,2.64.15,4.85-2.06,4.9-4.61-.02-.41.33-.76.74-.74,2.62.18,4.85-2.05,4.67-4.67-.02-.41.33-.76.74-.74,2.62.18,4.85-2.05,4.67-4.67,0-.19.08-.39.21-.52s.33-.21.52-.21c2.62.18,4.85-2.05,4.67-4.67-.02-.41.33-.76.74-.74,1.32.08,2.54-.37,3.43-1.26s1.31-2.05,1.29-3.21c0-.18.01-.36,0-.55-.02-.41.33-.76.74-.74,2.62.18,4.85-2.05,4.67-4.67,0-.19.08-.39.21-.52s.33-.21.52-.21c2.62.18,4.85-2.05,4.67-4.67-.02-.41.33-.76.74-.74,1.34.09,2.57-.45,3.44-1.35V0h-97.51ZM63.7,198.79c-.08.34-.19.66-.33.96-.14.3-.31.54-.51.74-.26.26-.58.43-.96.5-.38.07-.8.09-1.24.04s-.91-.15-1.4-.31c-.49-.15-.97-.33-1.44-.52-.47-.19-.92-.39-1.35-.6s-.81-.4-1.14-.57c-.33-.17-.59-.3-.8-.4-.21-.1-.32-.13-.33-.1v.04h0c.26.57.51,1.15.76,1.75.21.51.44,1.08.69,1.7.24.62.47,1.23.67,1.82.12.35.21.68.28,1s.1.63.09.93c0,.3-.06.58-.16.84s-.25.5-.47.71c-.2.2-.44.37-.73.5-.29.14-.61.24-.95.32s-.69.12-1.05.14-.7,0-1.02-.03c-.32-.04-.62-.11-.89-.21s-.48-.24-.64-.4c-.32-.32-.54-.74-.65-1.25s-.14-1.05-.1-1.62c.03-.37.06-.77.09-1.19s.05-.83.07-1.24.04-.8.07-1.17c.02-.37.04-.7.05-.99,0-.29.02-.51.03-.68v-.26c-.44.37-.9.75-1.37,1.12-.4.33-.84.68-1.33,1.06-.48.38-.96.74-1.43,1.09-.35.26-.7.49-1.05.66-.35.18-.7.29-1.04.35-.34.05-.68.03-1.01-.07-.33-.1-.64-.3-.94-.6-.18-.18-.35-.39-.52-.63-.17-.24-.33-.53-.5-.86-.4-.81-.57-1.51-.52-2.1.05-.58.26-1.06.62-1.42.16-.16.38-.32.66-.47s.59-.3.94-.44c.34-.14.71-.28,1.1-.4.39-.13.77-.25,1.15-.37.89-.26,1.85-.51,2.87-.73-.51-.36-1.03-.72-1.55-1.09-.22-.15-.46-.32-.71-.49s-.5-.35-.76-.52c-.25-.17-.51-.34-.76-.5s-.49-.32-.73-.48c-.19-.12-.37-.25-.55-.38s-.34-.27-.48-.42c-.26-.26-.47-.55-.63-.86-.15-.31-.23-.64-.21-.99,0-.35.12-.72.32-1.12.2-.39.52-.81.96-1.25s.86-.76,1.25-.96.77-.31,1.12-.32c.35,0,.68.06.99.21.31.15.6.36.86.62.14.14.28.3.42.48.13.18.26.36.38.55.15.24.31.48.47.73.17.25.34.5.51.76.17.25.34.51.52.76.17.25.34.49.49.71.37.52.73,1.04,1.09,1.55.21-1.02.45-1.97.72-2.87.11-.37.23-.75.36-1.14s.27-.76.41-1.1c.14-.35.29-.66.45-.94.15-.28.31-.5.48-.67.36-.36.83-.57,1.41-.61s1.28.13,2.1.52c.34.16.63.32.87.49.25.17.46.34.63.52.3.3.5.61.59.94s.12.67.07,1.01-.17.69-.35,1.04c-.18.35-.4.7-.66,1.04-.35.47-.71.95-1.09,1.43-.38.49-.74.93-1.06,1.33-.37.47-.75.93-1.11,1.36h.26c.17,0,.4-.02.68-.03.29,0,.61-.03.99-.05.37-.02.76-.04,1.17-.06s.82-.05,1.24-.08c.42-.03.82-.06,1.19-.1.57-.04,1.11,0,1.62.09.51.11.93.32,1.25.65.16.16.29.37.4.64.1.27.18.57.21.89.04.32.05.67.03,1.02-.02.36-.06.71-.14,1.05h.01ZM124.22,93.03c1.12-1.12,2.42-1.71,3.82-1.62l-.96-.96,2.64-2.64,9.1,9.1-2.52,2.52-1.05-1.05c.14,1.45-.44,2.81-1.66,4.02-2.57,2.57-6.38,2.72-9.23-.14s-2.71-6.66-.14-9.23h0ZM112.02,105.51l8.71,3.67-3.58-8.79,2.53-2.53h.01l5.26,12.94-2.72,2.72-12.92-5.28,2.72-2.72h-.01ZM104.06,113.19c2.89-2.89,6.93-3.04,9.67-.3s2.59,6.78-.3,9.67-6.95,3.06-9.69.32-2.57-6.8.32-9.69ZM90.77,126.76l1.07,1.07c-.07-1.49.58-2.98,1.81-4.21,2.15-2.15,5.02-2.52,7.8.25l5.2,5.2-2.64,2.64-4.8-4.8c-1.47-1.47-2.82-1.47-3.99-.3-1.27,1.27-1.4,2.96.27,4.63l4.5,4.5-2.64,2.64-9.1-9.1s2.52-2.52,2.52-2.52ZM86.29,183.53c-3.15,3.15-7.17,3.21-9.88.51-2.71-2.7-2.62-6.75.19-9.55,2.57-2.57,6.37-2.99,9.3-.1l-5.43,8.03c1.28.51,2.59.12,3.77-1.07.96-.96,1.37-1.94,1.4-3.16h0l2.93.11c.12,1.81-.64,3.58-2.28,5.23h0ZM104.9,164.64l-4.8-4.8c-1.47-1.47-2.81-1.49-3.87-.42-1.18,1.18-1.25,2.77.37,4.4l4.57,4.57-2.64,2.64-4.8-4.8c-1.47-1.47-2.77-1.52-3.87-.42-1.17,1.17-1.23,2.76.39,4.38l4.57,4.57-2.64,2.64-9.1-9.1,2.52-2.52,1.05,1.05c-.1-1.45.51-2.87,1.67-4.04,1.27-1.27,2.84-1.86,4.48-1.51-.2-1.66.42-3.4,1.79-4.77,2.16-2.16,4.97-2.47,7.74.3v-.02l5.21,5.21-2.64,2.64h0ZM115.34,154.47c-1.22,1.22-2.59,1.81-4.04,1.67l1.05,1.05-2.52,2.52-12.55-12.55,2.64-2.64,4.41,4.41c-.07-1.42.51-2.71,1.64-3.84,2.55-2.55,6.36-2.71,9.22.15h0c2.86,2.87,2.71,6.67.15,9.23ZM128.32,141.23l-1.05-1.05c.14,1.45-.44,2.81-1.66,4.02-2.57,2.57-6.38,2.72-9.23-.14s-2.71-6.66-.14-9.23c1.12-1.12,2.42-1.71,3.82-1.62l-.96-.96,2.64-2.64,9.1,9.1-2.52,2.52h0ZM136.54,133.25c-2.05,2.05-4.38,2.15-6.41.12h.02l-9.54-9.54,2.64-2.64,9.38,9.38c.78.78,1.61.79,2.33.07.29-.29.51-.68.57-.91l2.16,1.93c-.3.61-.69,1.13-1.15,1.59h0ZM145.79,123.75l-1.05-1.05c.14,1.45-.44,2.81-1.66,4.02-2.57,2.57-6.38,2.72-9.23-.14-2.85-2.86-2.71-6.66-.14-9.23,1.12-1.12,2.42-1.71,3.82-1.62l-.96-.96,2.64-2.64,9.1,9.1-2.52,2.52h0ZM158.41,117.96c-1.72,1.72-3.82,2.98-5.72,3.21l-.85-2.94c1.4-.15,3.08-1.01,4.24-2.18,1.86-1.86,1.83-3.52.19-5.16l-.39-.39c.07,1.45-.56,2.82-1.74,4.01-2.52,2.52-6.29,2.81-8.95.15s-2.37-6.43.15-8.95c1.27-1.27,2.74-1.89,4.31-1.71l-1.17-1.17,2.5-2.5h.02l7.58,7.59c3.38,3.38,3.11,6.76-.17,10.04h0ZM167.17,102.65c-3.15,3.15-7.17,3.21-9.88.51-2.72-2.72-2.62-6.75.19-9.55,2.57-2.57,6.37-2.99,9.3-.1l-5.43,8.03c1.29.51,2.59.12,3.77-1.07.96-.96,1.37-1.94,1.4-3.16h0l2.93.11c.12,1.81-.64,3.58-2.28,5.23ZM185.78,83.76l-4.8-4.8c-1.47-1.47-2.81-1.49-3.87-.42-1.18,1.18-1.25,2.77.37,4.4l4.57,4.57-2.64,2.64-4.8-4.8c-1.47-1.47-2.77-1.52-3.87-.42-1.17,1.17-1.23,2.76.39,4.38l4.57,4.57-2.64,2.64-9.1-9.1,2.52-2.52,1.05,1.05c-.1-1.45.51-2.87,1.67-4.04,1.27-1.27,2.84-1.86,4.48-1.51-.2-1.66.42-3.4,1.79-4.77,2.16-2.16,4.97-2.47,7.74.3v-.02h0l5.21,5.21-2.64,2.64h0ZM207.97,54.52c-.08.34-.19.66-.33.96s-.31.54-.51.74c-.26.26-.58.43-.96.5s-.8.09-1.24.04-.91-.15-1.4-.31c-.49-.15-.97-.33-1.44-.52s-.92-.39-1.35-.6c-.43-.21-.81-.4-1.14-.57s-.59-.3-.8-.4c-.21-.1-.32-.13-.33-.1v.04h0c.26.57.51,1.15.76,1.75.21.51.44,1.08.69,1.7.24.62.47,1.23.67,1.82.12.35.21.68.28,1s.1.63.09.93c0,.3-.06.58-.16.84s-.25.5-.47.71c-.2.2-.44.37-.73.5-.29.14-.61.24-.95.32-.34.08-.69.12-1.05.14-.36.02-.7,0-1.02-.03-.32-.04-.62-.11-.89-.21s-.48-.24-.64-.4c-.32-.32-.54-.74-.65-1.25s-.14-1.05-.1-1.62c.03-.37.06-.77.09-1.19s.05-.83.07-1.24.04-.8.07-1.17c.02-.37.04-.7.05-.99,0-.29.02-.51.03-.68v-.26c-.44.37-.9.75-1.37,1.12-.4.33-.84.68-1.33,1.06-.48.38-.96.74-1.43,1.09-.35.26-.7.49-1.05.66-.35.18-.7.29-1.04.35-.34.05-.68.03-1.01-.07s-.64-.3-.94-.6c-.18-.18-.35-.39-.52-.63s-.33-.53-.5-.86c-.4-.81-.57-1.51-.52-2.1.05-.58.26-1.06.62-1.42.16-.16.38-.32.66-.47s.59-.3.94-.44c.34-.14.71-.28,1.1-.4.39-.13.77-.25,1.15-.37.89-.26,1.85-.51,2.87-.73-.51-.36-1.03-.72-1.55-1.09-.22-.15-.46-.32-.71-.49s-.5-.35-.76-.52c-.25-.17-.51-.34-.76-.5s-.49-.32-.73-.48c-.19-.12-.37-.25-.55-.38s-.34-.27-.48-.42c-.26-.26-.47-.55-.63-.86-.15-.31-.23-.64-.21-.99,0-.35.12-.72.32-1.12.2-.39.52-.81.96-1.25s.86-.76,1.25-.96.77-.31,1.12-.32c.35,0,.68.06.99.21.31.15.6.36.86.62.14.14.28.3.42.48.13.18.26.36.38.55.15.24.31.48.47.73.17.25.34.5.51.76.17.25.34.51.52.76.17.25.34.49.49.71.37.52.73,1.04,1.09,1.55.21-1.02.45-1.97.72-2.87.11-.37.23-.75.36-1.14s.27-.76.41-1.1c.14-.35.29-.66.45-.94.15-.28.31-.5.48-.67.36-.36.83-.57,1.41-.61s1.28.13,2.1.52c.34.16.63.32.87.49.25.17.46.34.63.52.3.3.5.61.59.94.09.33.12.67.07,1.01-.05.34-.17.69-.35,1.04-.18.35-.4.7-.66,1.04-.35.47-.71.95-1.09,1.43-.38.49-.74.93-1.06,1.33-.37.47-.75.93-1.11,1.36h.26c.17,0,.4-.02.68-.03.29,0,.61-.03.99-.05.37-.02.76-.04,1.17-.06s.82-.05,1.24-.08c.42-.03.82-.06,1.19-.1.57-.04,1.11,0,1.62.09.51.11.93.32,1.25.65.16.16.29.37.4.64.1.27.18.57.21.89.04.32.05.67.03,1.02-.02.36-.06.71-.14,1.05h0Z"/>
  <path class="st0" d="M163.17,95.01c-1.18-.68-2.6-.51-3.7.59-1.32,1.32-1.35,3.1.13,4.69l3.57-5.28h0Z"/>
  <path class="st0" d="M131.88,99.78c1.32-1.32,1.37-3.26-.2-4.84-1.57-1.57-3.53-1.5-4.84-.2s-1.39,3.28.19,4.85,3.53,1.51,4.85.19h0Z"/>
</svg>