<?xml version="1.0" encoding="UTF-8"?>
<svg id="a" data-name="Camada 1" xmlns="http://www.w3.org/2000/svg" viewBox="0 0 499.76 116.53">
  <path d="M14.61,42.24H0s0-2.37,0-2.37L14.82,4.38h2.57s0,35.21,0,35.21h3.83s0,2.64,0,2.64h-3.83s0,11.2,0,11.2h-2.78s0-11.2,0-11.2ZM14.61,39.6V11.41S2.92,39.6,2.92,39.6h11.69Z" fill="#2a2a2a"/>
  <path d="M22.54,51.42l11.76-24.14c2.16-4.45,3.41-7.86,3.41-12.1,0-4.87-2.71-7.93-6.82-7.93-2.85,0-5.01.9-7.1,2.23v-3.27c1.88-1.11,4.24-2.02,7.23-2.02,5.98,0,9.81,4.31,9.81,10.64v.28c0,4.73-1.53,8.42-4.1,13.77l-10.44,21.57h14.96s0,2.99,0,2.99h-18.71s0-2.02,0-2.02Z" fill="#2a2a2a"/>
  <path d="M45.04,29.72v-1.11c0-17.25,4.17-24.42,10.23-24.42s10.23,7.03,10.23,24.29v1.11c0,17.25-4.17,24.43-10.23,24.43-6.05,0-10.23-7.03-10.23-24.29h0ZM62.43,29.72v-1.11c0-14.54-2.85-21.64-7.17-21.64-4.31,0-7.17,6.96-7.17,21.5v1.11c0,14.54,2.85,21.65,7.17,21.65s7.17-6.96,7.17-21.5h0Z" fill="#2a2a2a"/>
  <path d="M71.33,61.16v-2.99c2.64,1.04,5.77,1.74,8.14,1.74,4.94,0,7.51-2.37,7.51-7.37v-8.63c-1.46,4.17-3.97,7.58-7.65,7.58-4.87,0-9.53-6.05-9.53-17.25v-.63c0-11.06,4.66-17.25,9.53-17.25,3.69,0,6.19,3.41,7.65,7.58v-7.03s2.92,0,2.92,0v35.49c0,3.34-.9,5.84-2.57,7.51-1.81,1.81-4.52,2.71-8,2.71-2.5,0-5.5-.56-8-1.46h0ZM87.14,34.24v-.63c0-9.32-3.9-14.68-7.44-14.68-3.55,0-6.96,5.22-6.96,14.75v.49c0,9.53,3.34,14.75,6.96,14.75,3.62,0,7.44-5.36,7.44-14.68Z" fill="#2a2a2a"/>
  <path d="M111.35,0h2.5s0,60.26,0,60.26h-2.5S111.35,0,111.35,0Z" fill="#2a2a2a"/>
  <path d="M134.71,14.48h4.84c6.9,0,11.19,4.73,11.19,12.13v.11c0,7.4-4.06,12.36-11.41,12.36h-2.17s0,14.36,0,14.36h-2.45s0-38.96,0-38.96ZM139.55,36.91c5.62,0,8.74-3.78,8.74-10.13v-.11c0-6.34-3.45-9.96-8.85-9.96h-2.28s0,20.2,0,20.2h2.39Z" fill="#2a2a2a"/>
  <path d="M154.47,14.48h13.25s0,2.23,0,2.23h-10.8s0,15.97,0,15.97h9.85s0,2.23,0,2.23h-9.85s0,16.31,0,16.31h10.96s0,2.23,0,2.23h-13.41s0-38.96,0-38.96Z" fill="#2a2a2a"/>
  <path d="M171.22,51.83v-2.78c2.67,1.73,4.9,2.5,6.79,2.5,3.28,0,5.4-2.17,5.4-5.62v-.11c0-3.23-1.17-5.29-5.45-11.08-5.18-6.96-6.46-9.07-6.46-12.63v-.11c0-4.62,3.39-7.96,7.62-7.96,2.23,0,4.01.61,5.9,1.73v2.78c-2.11-1.45-4.06-2.17-5.95-2.17-3.01,0-5.12,2.23-5.12,5.45v.11c0,2.89,1.17,5.01,5.51,10.52,4.73,5.95,6.4,9.02,6.4,13.19v.11c0,4.95-3.39,8.13-7.9,8.13-2.28,0-4.4-.72-6.73-2.06h0Z" fill="#2a2a2a"/>
  <path d="M189.1,34.41v-.89c0-12.86,3.95-19.48,9.24-19.48s9.24,6.62,9.24,19.48v.89c0,12.86-3.95,19.48-9.24,19.48-5.29,0-9.24-6.62-9.24-19.48ZM205.13,34.41v-.89c0-11.35-2.95-17.25-6.79-17.25s-6.79,5.9-6.79,17.25v.89c0,11.35,2.95,17.25,6.79,17.25,3.84,0,6.79-5.9,6.79-17.25Z" fill="#2a2a2a"/>
  <path d="M221.93,14.48h2.45s0,36.73,0,36.73h9.8s0,2.23,0,2.23h-12.24s0-38.96,0-38.96Z" fill="#2a2a2a"/>
  <path d="M237.74,14.48h2.45s0,38.96,0,38.96h-2.45s0-38.96,0-38.96ZM241.41,6.47l2.67,1.22-4.34,4.56h-1.78s3.45-5.79,3.45-5.79Z" fill="#2a2a2a"/>
  <path d="M262.18,54.55l-2.84-3.62c-1.5,1.95-3.28,2.95-5.23,2.95-5.29,0-9.24-6.62-9.24-19.48v-.89c0-12.86,3.95-19.48,9.24-19.48s9.24,6.62,9.24,19.48v.89c0,6.51-1.11,11.41-2.84,14.69l3.39,4.01-1.73,1.45h0ZM258.01,49.32l-4.01-4.79,1.73-1.45,3.34,4.23c1.17-2.89,1.84-7.18,1.84-12.91v-.89c0-11.35-2.95-17.25-6.79-17.25-3.84,0-6.79,5.9-6.79,17.25v.89c0,11.35,2.95,17.25,6.79,17.25,1.5,0,2.84-.78,3.9-2.34Z" fill="#2a2a2a"/>
  <path d="M267.57,48.88h3.45s0,4.56,0,4.56h-3.45s0-4.56,0-4.56Z" fill="#2a2a2a"/>
  <path d="M285.31,10.7h2.11s-12.13,48.2-12.13,48.2h-2.11s12.13-48.2,12.13-48.2Z" fill="#2a2a2a"/>
  <path d="M290.32,14.48h2.67s12.13,32.72,12.13,32.72V14.48s2.34,0,2.34,0v38.96s-2.39,0-2.39,0l-12.41-33.5v33.5s-2.34,0-2.34,0V14.48Z" fill="#2a2a2a"/>
  <path d="M313.08,14.48h13.25s0,2.23,0,2.23h-10.8s0,15.97,0,15.97h9.85s0,2.23,0,2.23h-9.85s0,16.31,0,16.31h10.96s0,2.23,0,2.23h-13.41s0-38.96,0-38.96Z" fill="#2a2a2a"/>
  <path d="M335.51,16.71h-6.34s0-2.23,0-2.23h15.14s0,2.23,0,2.23h-6.34s0,36.73,0,36.73h-2.45s0-36.73,0-36.73h0Z" fill="#2a2a2a"/>
  <path d="M345.47,34.41v-.89c0-12.86,3.95-19.48,9.24-19.48,5.29,0,9.24,6.62,9.24,19.48v.89c0,12.86-3.95,19.48-9.24,19.48-5.29,0-9.24-6.62-9.24-19.48ZM361.5,34.41v-.89c0-11.35-2.95-17.25-6.79-17.25s-6.79,5.9-6.79,17.25v.89c0,11.35,2.95,17.25,6.79,17.25,3.84,0,6.79-5.9,6.79-17.25Z" fill="#2a2a2a"/>
  <path d="M376.36,10.7h2.11s-12.13,48.2-12.13,48.2h-2.11s12.13-48.2,12.13-48.2Z" fill="#2a2a2a"/>
  <path d="M381.38,14.48h2.67s12.13,32.72,12.13,32.72V14.48s2.34,0,2.34,0v38.96s-2.39,0-2.39,0l-12.41-33.5v33.5s-2.34,0-2.34,0V14.48Z" fill="#2a2a2a"/>
  <path d="M404.14,14.48h13.25s0,2.23,0,2.23h-10.8s0,15.97,0,15.97h9.85s0,2.23,0,2.23h-9.85s0,16.31,0,16.31h10.96s0,2.23,0,2.23h-13.41s0-38.96,0-38.96Z" fill="#2a2a2a"/>
  <path d="M426.57,16.71h-6.34s0-2.23,0-2.23h15.14s0,2.23,0,2.23h-6.34s0,36.73,0,36.73h-2.45s0-36.73,0-36.73h0Z" fill="#2a2a2a"/>
  <path d="M446.88,14.48h2.62s5.29,34,5.29,34l6.34-34h2.28s6.29,34,6.29,34l5.34-34h2.5s-6.73,39.24-6.73,39.24h-2.28s-6.29-34-6.29-34l-6.34,34h-2.28s-6.73-39.24-6.73-39.24h0Z" fill="#2a2a2a"/>
  <path d="M486.77,16.71h-6.34s0-2.23,0-2.23h15.14s0,2.23,0,2.23h-6.34s0,36.73,0,36.73h-2.45s0-36.73,0-36.73h0Z" fill="#2a2a2a"/>
  <path d="M496.3,48.88h3.45s0,4.56,0,4.56h-3.45s0-4.56,0-4.56Z" fill="#2a2a2a"/>
  <path d="M22.92,111.05l-2.49-3.17c-1.32,1.71-2.88,2.59-4.58,2.59-4.63,0-8.08-5.8-8.08-17.04v-.78c0-11.26,3.46-17.04,8.08-17.04s8.08,5.8,8.08,17.04v.78c0,5.7-.97,9.99-2.49,12.86l2.98,3.51-1.52,1.27h.01ZM19.26,106.47l-3.51-4.19,1.52-1.27,2.92,3.7c1.03-2.53,1.61-6.29,1.61-11.3v-.78c0-9.93-2.57-15.1-5.94-15.1s-5.94,5.16-5.94,15.1v.78c0,9.93,2.59,15.1,5.94,15.1,1.32,0,2.49-.68,3.41-2.05h-.01Z" fill="#2a2a2a"/>
  <path d="M27.88,102.38v-17.88s2.05,0,2.05,0v17.68c0,4.24,1.52,6.53,4.19,6.53s4.87-2.78,4.87-6.91v-17.29s2.05,0,2.05,0v25.57s-2.05,0-2.05,0v-3.76c-.88,2.14-2.43,4.15-5.26,4.15-3.46,0-5.84-2.88-5.84-8.08Z" fill="#2a2a2a"/>
  <path d="M45.68,75.62h2.24s0,3.41,0,3.41h-2.24s0-3.41,0-3.41ZM45.78,84.5h2.05s0,25.57,0,25.57h-2.05s0-25.57,0-25.57Z" fill="#2a2a2a"/>
  <path d="M53.34,105.79v-19.38s-2.43,0-2.43,0v-1.91s2.43,0,2.43,0v-7.21s2.05,0,2.05,0v7.21s4.15,0,4.15,0v1.91s-4.15,0-4.15,0v19.09c0,2.24,1.02,2.82,2.69,2.82.49,0,1.17-.1,1.56-.25v1.91c-.49.19-1.22.29-1.75.29-2.78,0-4.54-1.22-4.54-4.48Z" fill="#2a2a2a"/>
  <path d="M62.63,102.38v-17.88s2.05,0,2.05,0v17.68c0,4.24,1.52,6.53,4.19,6.53,2.67,0,4.87-2.78,4.87-6.91v-17.29s2.05,0,2.05,0v25.57s-2.05,0-2.05,0v-3.76c-.88,2.14-2.43,4.15-5.26,4.15-3.46,0-5.84-2.88-5.84-8.08Z" fill="#2a2a2a"/>
  <path d="M81.21,105.79v-19.38s-2.43,0-2.43,0v-1.91s2.43,0,2.43,0v-7.21s2.05,0,2.05,0v7.21s4.15,0,4.15,0v1.91s-4.15,0-4.15,0v19.09c0,2.24,1.02,2.82,2.69,2.82.49,0,1.17-.1,1.56-.25v1.91c-.49.19-1.22.29-1.75.29-2.78,0-4.54-1.22-4.54-4.48Z" fill="#2a2a2a"/>
  <path d="M88.98,97.74v-.45c0-8.86,3.27-13.2,7.01-13.2,3.74,0,6.68,4.54,6.68,12.52v1.52s-11.65,0-11.65,0c.1,6.91,2.92,10.32,6.39,10.32,1.56,0,2.78-.39,4.44-1.52l.24,2.1c-1.81,1.03-2.98,1.36-4.97,1.36-4.29,0-8.14-4.19-8.14-12.66h0ZM100.67,96.33c0-5.9-1.95-10.32-4.67-10.32s-4.77,3.56-4.97,10.32h9.64s0,0,0,0Z" fill="#2a2a2a"/>
  <path d="M105.12,109.14v-2.14c1.75.93,3.56,1.46,5.22,1.46,2.14,0,3.9-1.41,3.9-3.8v-.1c0-1.81-1.03-3.6-4.05-6.48-3.8-3.6-5.02-5.61-5.02-8.18v-.1c0-3.56,2.78-5.61,5.8-5.61,1.71,0,2.88.24,4.24.82v2.14c-1.46-.72-2.82-1.07-4.34-1.07-2.1,0-3.66,1.36-3.66,3.6v.1c0,1.85.97,3.27,4.05,6.29,3.6,3.56,5.02,5.65,5.02,8.38v.1c0,3.6-2.92,5.8-6.04,5.8-2,0-3.46-.45-5.12-1.22h0Z" fill="#2a2a2a"/>
  <path d="M127.33,93.46v-.88c0-11.35,4.24-16.9,9.11-16.9,1.52,0,2.3.29,3.31.83v2.28c-1.27-.72-2.2-1.07-3.31-1.07-3.8,0-6.97,5.12-6.97,14.86v.88c0,9.74,3.17,14.86,6.97,14.86,1.22,0,2.24-.35,3.46-1.13v2.2c-.97.58-2.1.97-3.56.97-5.02,0-9.02-5.55-9.02-16.9Z" fill="#2a2a2a"/>
  <path d="M143.36,84.5h2.05s0,3.76,0,3.76c.97-2.34,2.98-4.24,6-4.05v2.2s-.1,0-.1,0c-3.21,0-5.9,2.05-5.9,6.53v17.14s-2.05,0-2.05,0v-25.57h0Z" fill="#2a2a2a"/>
  <path d="M154.33,75.62h2.24s0,3.41,0,3.41h-2.24s0-3.41,0-3.41ZM154.43,84.5h2.05s0,25.57,0,25.57h-2.05s0-25.57,0-25.57Z" fill="#2a2a2a"/>
  <path d="M159.76,102.61v-.39c0-4.73,2.43-8.18,6.72-8.18,1.75,0,3.12.45,4.29.97v-3.21c0-3.56-1.61-5.65-4.87-5.65-1.81,0-3.21.35-4.73,1.17v-2c1.42-.68,3.02-1.11,4.83-1.11,2.05,0,3.7.58,4.97,1.85,1.07,1.07,1.85,3.02,1.85,5.51v18.5s-2.05,0-2.05,0v-3.7c-1.02,2.53-2.69,4.15-5.16,4.15-3.46,0-5.84-3.37-5.84-7.89h0ZM170.78,102.09v-5.12c-1.36-.64-2.69-1.03-4.19-1.03-3.17,0-4.77,2.63-4.77,6.19v.39c0,3.46,1.42,6.19,4.09,6.19,3.02,0,4.87-3.27,4.87-6.62h0Z" fill="#2a2a2a"/>
  <path d="M177.74,105.79v-19.38s-2.43,0-2.43,0v-1.91s2.43,0,2.43,0v-7.21s2.05,0,2.05,0v7.21s4.15,0,4.15,0v1.91s-4.15,0-4.15,0v19.09c0,2.24,1.02,2.82,2.69,2.82.49,0,1.17-.1,1.56-.25v1.91c-.49.19-1.22.29-1.75.29-2.78,0-4.54-1.22-4.54-4.48Z" fill="#2a2a2a"/>
  <path d="M187.21,75.62h2.24s0,3.41,0,3.41h-2.24s0-3.41,0-3.41ZM187.31,84.5h2.05s0,25.57,0,25.57h-2.05s0-25.57,0-25.57Z" fill="#2a2a2a"/>
  <path d="M192.62,84.5h2.1s5.06,22.12,5.06,22.12l5.16-22.12h2s-6.29,25.73-6.29,25.73h-1.75s-6.29-25.73-6.29-25.73h0Z" fill="#2a2a2a"/>
  <path d="M208.54,97.49v-.43c0-8.04,3.46-12.95,7.3-12.95,3.84,0,7.21,4.93,7.21,12.95v.43c0,8.04-3.41,12.95-7.26,12.95-3.85,0-7.26-4.93-7.26-12.95h.01ZM221.02,97.49v-.43c0-6.72-2.34-11.06-5.22-11.06-2.88,0-5.22,4.34-5.22,11.06v.43c0,6.72,2.34,11.06,5.22,11.06,2.88,0,5.22-4.34,5.22-11.06Z" fill="#2a2a2a"/>
  <path d="M225.36,109.14v-2.14c1.75.93,3.56,1.46,5.22,1.46,2.14,0,3.9-1.41,3.9-3.8v-.1c0-1.81-1.03-3.6-4.05-6.48-3.8-3.6-5.02-5.61-5.02-8.18v-.1c0-3.56,2.78-5.61,5.8-5.61,1.71,0,2.88.24,4.24.82v2.14c-1.46-.72-2.82-1.07-4.34-1.07-2.1,0-3.66,1.36-3.66,3.6v.1c0,1.85.97,3.27,4.05,6.29,3.6,3.56,5.02,5.65,5.02,8.38v.1c0,3.6-2.92,5.8-6.04,5.8-2,0-3.46-.45-5.12-1.22h0Z" fill="#2a2a2a"/>
  <path d="M251.91,77.92h-5.55s0-1.95,0-1.95h13.25s0,1.95,0,1.95h-5.55s0,32.15,0,32.15h-2.14s0-32.15,0-32.15Z" fill="#2a2a2a"/>
  <path d="M262.65,75.62h2.24s0,3.41,0,3.41h-2.24s0-3.41,0-3.41ZM262.75,84.5h2.05s0,25.57,0,25.57h-2.05s0-25.57,0-25.57Z" fill="#2a2a2a"/>
  <path d="M269.5,84.5h2.05s0,4.93,0,4.93c1.03-2.92,2.78-5.31,5.36-5.31,3.51,0,6.68,4.48,6.68,12.72v.93c0,8.14-3.17,12.72-6.68,12.72-2.59,0-4.34-2.39-5.36-5.31v11.26s-2.05,0-2.05,0v-31.9h0ZM281.52,97.7v-.83c0-7.01-2.24-10.96-4.87-10.96-2.63,0-5.22,3.9-5.22,10.77v1.22c0,6.87,2.63,10.77,5.22,10.77s4.87-3.95,4.87-10.96Z" fill="#2a2a2a"/>
  <path d="M286.41,97.49v-.43c0-8.04,3.46-12.95,7.3-12.95,3.84,0,7.21,4.93,7.21,12.95v.43c0,8.04-3.41,12.95-7.26,12.95s-7.26-4.93-7.26-12.95h.01ZM298.88,97.49v-.43c0-6.72-2.34-11.06-5.22-11.06-2.88,0-5.22,4.34-5.22,11.06v.43c0,6.72,2.34,11.06,5.22,11.06,2.88,0,5.22-4.34,5.22-11.06Z" fill="#2a2a2a"/>
  <path d="M319.35,75.83h2.34s7.46,34.24,7.46,34.24h-2.24s-1.99-9.54-1.99-9.54h-8.86s-1.99,9.54-1.99,9.54h-2.14s7.46-34.24,7.46-34.24h-.03s0,0,0,0ZM324.51,98.58l-4.05-19.38-4.05,19.38h8.1s0,0,0,0Z" fill="#2a2a2a"/>
  <path d="M332.45,84.5h2.05s0,3.76,0,3.76c.88-2.14,2.39-4.15,5.12-4.15s4.24,1.95,5.02,4.34c.93-2.1,2.57-4.34,5.65-4.34,3.51,0,5.84,2.78,5.84,7.99v17.98s-2.05,0-2.05,0v-17.78c0-4.24-1.52-6.43-4.05-6.43s-4.73,2.69-4.73,6.82v17.39s-2.05,0-2.05,0v-17.78c0-4.24-1.52-6.43-4.05-6.43-2.53,0-4.73,2.69-4.73,6.82v17.39s-2.05,0-2.05,0v-25.57s.01,0,.01,0Z" fill="#2a2a2a"/>
  <path d="M359.25,102.61v-.39c0-4.73,2.43-8.18,6.72-8.18,1.75,0,3.12.45,4.29.97v-3.21c0-3.56-1.61-5.65-4.87-5.65-1.81,0-3.21.35-4.73,1.17v-2c1.42-.68,3.02-1.11,4.83-1.11,2.05,0,3.7.58,4.97,1.85,1.07,1.07,1.85,3.02,1.85,5.51v18.5s-2.05,0-2.05,0v-3.7c-1.02,2.53-2.69,4.15-5.16,4.15-3.46,0-5.84-3.37-5.84-7.89h0ZM370.26,102.09v-5.12c-1.36-.64-2.69-1.03-4.19-1.03-3.17,0-4.77,2.63-4.77,6.19v.39c0,3.46,1.42,6.19,4.09,6.19,3.02,0,4.87-3.27,4.87-6.62h0Z" fill="#2a2a2a"/>
  <path d="M376.8,84.5h2.05s0,3.76,0,3.76c.88-2.14,2.43-4.15,5.26-4.15,3.46,0,5.84,2.88,5.84,8.08v17.88s-2.05,0-2.05,0v-17.68c0-4.24-1.52-6.53-4.19-6.53s-4.87,2.78-4.87,6.91v17.29s-2.05,0-2.05,0c0,0,0-25.57,0-25.57Z" fill="#2a2a2a"/>
  <path d="M394.87,105.79v-19.38s-2.43,0-2.43,0v-1.91s2.43,0,2.43,0v-7.21s2.05,0,2.05,0v7.21s4.15,0,4.15,0v1.91s-4.15,0-4.15,0v19.09c0,2.24,1.02,2.82,2.69,2.82.49,0,1.17-.1,1.56-.25v1.91c-.49.19-1.22.29-1.75.29-2.78,0-4.54-1.22-4.54-4.48Z" fill="#2a2a2a"/>
  <path d="M402.65,97.74v-.45c0-8.86,3.27-13.2,7.01-13.2s6.68,4.54,6.68,12.52v1.52s-11.65,0-11.65,0c.1,6.91,2.92,10.32,6.39,10.32,1.56,0,2.78-.39,4.44-1.52l.24,2.1c-1.81,1.03-2.98,1.36-4.97,1.36-4.29,0-8.14-4.19-8.14-12.66h0ZM414.33,96.33c0-5.9-1.95-10.32-4.67-10.32s-4.77,3.56-4.97,10.32h9.64s0,0,0,0Z" fill="#2a2a2a"/>
  <path d="M419.89,75.62h2.24s0,3.41,0,3.41h-2.24s0-3.41,0-3.41ZM419.98,84.5h2.05s0,25.57,0,25.57h-2.05s0-25.57,0-25.57Z" fill="#2a2a2a"/>
  <path d="M426.81,115.47v-2.1c1.85.74,4.05,1.22,5.7,1.22,3.46,0,5.26-1.66,5.26-5.16v-6.04c-1.03,2.92-2.78,5.31-5.36,5.31-3.41,0-6.68-4.24-6.68-12.08v-.43c0-7.75,3.27-12.08,6.68-12.08,2.59,0,4.34,2.39,5.36,5.31v-4.93s2.05,0,2.05,0v24.85c0,2.34-.64,4.09-1.81,5.26-1.27,1.27-3.17,1.91-5.61,1.91-1.75,0-3.85-.39-5.61-1.02v-.04s.01,0,.01,0h0ZM437.88,96.62v-.43c0-6.53-2.73-10.28-5.22-10.28s-4.87,3.66-4.87,10.32v.35c0,6.68,2.34,10.32,4.87,10.32s5.22-3.76,5.22-10.28Z" fill="#2a2a2a"/>
  <path d="M443.02,102.61v-.39c0-4.73,2.43-8.18,6.72-8.18,1.75,0,3.12.45,4.29.97v-3.21c0-3.56-1.61-5.65-4.87-5.65-1.81,0-3.21.35-4.73,1.17v-2c1.42-.68,3.02-1.11,4.83-1.11,2.05,0,3.7.58,4.97,1.85,1.07,1.07,1.85,3.02,1.85,5.51v18.5s-2.05,0-2.05,0v-3.7c-1.02,2.53-2.69,4.15-5.16,4.15-3.46,0-5.84-3.37-5.84-7.89h0ZM454.03,102.09v-5.12c-1.36-.64-2.69-1.03-4.19-1.03-3.17,0-4.77,2.63-4.77,6.19v.39c0,3.46,1.42,6.19,4.09,6.19,3.02,0,4.87-3.27,4.87-6.62h0Z" fill="#2a2a2a"/>
  <path d="M459.71,97.74v-.93c0-8.14,3.17-12.72,6.68-12.72,2.59,0,4.34,2.39,5.36,5.31v-13.79s2.05,0,2.05,0v34.44s-2.05,0-2.05,0v-4.93c-1.03,2.92-2.78,5.31-5.36,5.31-3.51,0-6.68-4.48-6.68-12.72h0ZM471.84,97.9v-1.22c0-6.87-2.63-10.77-5.22-10.77s-4.87,3.95-4.87,10.96v.83c0,7.01,2.24,10.96,4.87,10.96,2.63,0,5.22-3.9,5.22-10.77Z" fill="#2a2a2a"/>
  <path d="M477.47,97.49v-.43c0-8.04,3.46-12.95,7.3-12.95,3.84,0,7.21,4.93,7.21,12.95v.43c0,8.04-3.41,12.95-7.26,12.95-3.85,0-7.26-4.93-7.26-12.95h.01ZM489.94,97.49v-.43c0-6.72-2.34-11.06-5.22-11.06-2.88,0-5.22,4.34-5.22,11.06v.43c0,6.72,2.34,11.06,5.22,11.06s5.22-4.34,5.22-11.06Z" fill="#2a2a2a"/>
</svg>