<?xml version="1.0" encoding="UTF-8"?>
<svg id="a" xmlns="http://www.w3.org/2000/svg" version="1.1" viewBox="0 0 1859.76 48.99">
  <!-- Generator: Adobe Illustrator 30.2.1, SVG Export Plug-In . SVG Version: 2.1.1 Build 1)  -->
  <defs>
    <style>
      .st0 {
        fill: #2a2a2a;
      }
    </style>
  </defs>
  <path class="st0" d="M3.1,11.45v-.42c0-4.96,1.87-7.26,4.03-7.26.67,0,1.03.13,1.51.36v1.43c-.55-.31-.94-.46-1.43-.46-1.51,0-2.73,1.89-2.73,5.94v.42c0,4.12,1.22,5.94,2.73,5.94.5,0,.94-.15,1.47-.48v1.36c-.46.29-.97.44-1.62.44-2.23,0-3.97-2.31-3.97-7.26Z"/>
  <path class="st0" d="M10.08,13.21v-.31c0-3.51,1.47-5.56,3.23-5.56s3.21,2.06,3.21,5.56v.31c0,3.51-1.47,5.56-3.23,5.56s-3.21-2.06-3.21-5.56ZM15.21,13.21v-.34c0-2.71-.84-4.35-1.91-4.35s-1.91,1.64-1.91,4.35v.34c0,2.71.84,4.37,1.91,4.37s1.91-1.66,1.91-4.37Z"/>
  <path class="st0" d="M18.49,7.5h1.3v1.53c.42-.92,1.05-1.72,2.14-1.72s1.74.78,2.1,1.72c.4-.82,1.09-1.72,2.33-1.72,1.41,0,2.46,1.15,2.46,3.34v7.94h-1.3v-7.75c0-1.55-.57-2.37-1.49-2.37s-1.72.99-1.72,2.5v7.62h-1.3v-7.75c0-1.55-.57-2.37-1.49-2.37s-1.72.99-1.72,2.5v7.62h-1.3V7.5Z"/>
  <path class="st0" d="M31.12,7.5h1.3v1.93c.42-1.11,1.11-2.12,2.23-2.12,1.47,0,2.75,1.76,2.75,5.46v.55c0,3.65-1.28,5.46-2.75,5.46-1.11,0-1.81-1.01-2.23-2.1v4.64h-1.3V7.5ZM36.08,13.27v-.46c0-2.75-.78-4.28-1.78-4.28s-1.91,1.51-1.91,4.22v.59c0,2.71.92,4.22,1.91,4.22s1.78-1.53,1.78-4.28Z"/>
  <path class="st0" d="M39.07,13.21v-.31c0-3.51,1.47-5.56,3.23-5.56s3.21,2.06,3.21,5.56v.31c0,3.51-1.47,5.56-3.23,5.56s-3.21-2.06-3.21-5.56ZM44.19,13.21v-.34c0-2.71-.84-4.35-1.91-4.35s-1.91,1.64-1.91,4.35v.34c0,2.71.84,4.37,1.91,4.37s1.91-1.66,1.91-4.37Z"/>
  <path class="st0" d="M46.95,18.21v-1.32c.78.4,1.53.65,2.2.65.84,0,1.49-.55,1.49-1.45v-.02c0-.69-.38-1.36-1.62-2.54-1.51-1.43-2.1-2.33-2.1-3.53v-.04c0-1.64,1.22-2.6,2.69-2.6.71,0,1.24.1,1.83.36v1.32c-.61-.29-1.2-.46-1.83-.46-.82,0-1.41.5-1.41,1.34v.02c0,.69.36,1.22,1.64,2.48,1.51,1.49,2.08,2.39,2.08,3.59v.04c0,1.66-1.28,2.69-2.75,2.69-.82,0-1.51-.19-2.23-.52Z"/>
  <path class="st0" d="M53.64,3.76h1.39v1.72h-1.39v-1.72ZM53.66,7.5h1.32v11.09h-1.32V7.5Z"/>
  <path class="st0" d="M58.29,20.47l1.13-1.89c-1.39-.48-2.46-2.23-2.46-5.35v-.34c0-3.76,1.62-5.54,3.4-5.54.59,0,1.03.13,1.39.36v1.39c-.4-.29-.82-.48-1.32-.48-1.03,0-2.14,1.28-2.14,4.24v.42c0,3.02,1.07,4.22,2.23,4.22.42,0,.86-.21,1.24-.5v1.32c-.4.27-.82.44-1.41.44l-.78,2.25-1.28-.52Z"/>
  <path class="st0" d="M63.15,15.39v-.21c0-2.18,1.05-3.55,2.79-3.55.69,0,1.26.19,1.76.42v-1.2c0-1.43-.67-2.25-1.97-2.25-.73,0-1.36.17-1.99.5v-1.26c.65-.31,1.39-.48,2.14-.48.97,0,1.7.27,2.27.82.52.52.86,1.41.86,2.54v7.85h-1.32v-1.49c-.44,1.05-1.11,1.68-2.12,1.68-1.43,0-2.41-1.41-2.41-3.38ZM66.19,5.94c-.4-.34-.59-.44-.78-.44-.25,0-.42.29-.59.9l-.82-.21c.25-1.2.63-1.74,1.24-1.74.44,0,.73.19,1.11.5.4.31.59.44.78.44.25,0,.42-.29.59-.9l.82.21c-.25,1.2-.63,1.74-1.24,1.74-.44,0-.73-.19-1.11-.5ZM67.71,15.27v-2.12c-.48-.23-1.01-.4-1.53-.4-1.13,0-1.74.94-1.74,2.35v.21c0,1.39.55,2.33,1.51,2.33,1.05,0,1.76-1.11,1.76-2.37Z"/>
  <path class="st0" d="M70.93,13.21v-.31c0-3.51,1.47-5.56,3.23-5.56s3.21,2.06,3.21,5.56v.31c0,3.51-1.47,5.56-3.23,5.56s-3.21-2.06-3.21-5.56ZM76.05,13.21v-.34c0-2.71-.84-4.35-1.91-4.35s-1.91,1.64-1.91,4.35v.34c0,2.71.84,4.37,1.91,4.37s1.91-1.66,1.91-4.37Z"/>
  <path class="st0" d="M82.94,11.45v-.42c0-4.96,1.87-7.26,4.03-7.26.67,0,1.03.13,1.51.36v1.43c-.55-.31-.94-.46-1.43-.46-1.51,0-2.73,1.89-2.73,5.94v.42c0,4.12,1.22,5.94,2.73,5.94.5,0,.94-.15,1.47-.48v1.36c-.46.29-.97.44-1.62.44-2.23,0-3.97-2.31-3.97-7.26Z"/>
  <path class="st0" d="M90.39,7.5h1.3v1.55c.4-.99,1.18-1.76,2.37-1.68v1.49h-.04c-1.32,0-2.33.86-2.33,2.71v7.01h-1.3V7.5Z"/>
  <path class="st0" d="M95.73,3.76h1.39v1.72h-1.39v-1.72ZM95.75,7.5h1.32v11.09h-1.32V7.5Z"/>
  <path class="st0" d="M98.89,15.39v-.21c0-2.18,1.05-3.55,2.79-3.55.69,0,1.26.19,1.76.42v-1.2c0-1.43-.67-2.25-1.97-2.25-.73,0-1.36.17-1.99.5v-1.26c.65-.31,1.39-.48,2.14-.48.97,0,1.7.27,2.27.82.52.52.86,1.41.86,2.54v7.85h-1.32v-1.49c-.44,1.05-1.11,1.68-2.12,1.68-1.43,0-2.41-1.41-2.41-3.38ZM103.45,15.27v-2.12c-.48-.23-1.01-.4-1.53-.4-1.13,0-1.74.94-1.74,2.35v.21c0,1.39.55,2.33,1.51,2.33,1.05,0,1.76-1.11,1.76-2.37Z"/>
  <path class="st0" d="M107.2,16.72v-8.08h-.94v-1.13h.94v-3.04h1.32v3.04h1.66v1.13h-1.66v7.77c0,.84.38,1.07,1.03,1.07.19,0,.46-.04.65-.1v1.13c-.25.1-.65.19-.94.19-1.2,0-2.06-.48-2.06-1.97Z"/>
  <path class="st0" d="M111.95,3.76h1.39v1.72h-1.39v-1.72ZM111.98,7.5h1.32v11.09h-1.32V7.5Z"/>
  <path class="st0" d="M115.04,7.5h1.32l1.91,8.92,1.93-8.92h1.28l-2.58,11.15h-1.24l-2.62-11.15Z"/>
  <path class="st0" d="M122.66,15.39v-.21c0-2.18,1.05-3.55,2.79-3.55.69,0,1.26.19,1.76.42v-1.2c0-1.43-.67-2.25-1.97-2.25-.73,0-1.36.17-1.99.5v-1.26c.65-.31,1.39-.48,2.14-.48.97,0,1.7.27,2.27.82.52.52.86,1.41.86,2.54v7.85h-1.32v-1.49c-.44,1.05-1.11,1.68-2.12,1.68-1.43,0-2.41-1.41-2.41-3.38ZM127.22,15.27v-2.12c-.48-.23-1.01-.4-1.53-.4-1.13,0-1.74.94-1.74,2.35v.21c0,1.39.55,2.33,1.51,2.33,1.05,0,1.76-1.11,1.76-2.37Z"/>
  <path class="st0" d="M130.5,7.5h1.72v2.04h-1.72v-2.04ZM130.5,16.55h1.72v2.04h-1.72v-2.04Z"/>
  <path class="st0" d="M3.67,28.58h.88v14h-.88v-14Z"/>
  <path class="st0" d="M6.73,37.52v-.38c0-3.34,1.3-5.22,2.74-5.22,1.06,0,1.78.98,2.2,2.18v-5.66h.84v14.14h-.84v-2.02c-.42,1.2-1.14,2.18-2.2,2.18-1.44,0-2.74-1.84-2.74-5.22ZM11.71,37.58v-.5c0-2.82-1.08-4.42-2.14-4.42s-2,1.62-2,4.5v.34c0,2.88.92,4.5,2,4.5s2.14-1.6,2.14-4.42Z"/>
  <path class="st0" d="M14.53,37.52v-.18c0-3.64,1.34-5.42,2.88-5.42s2.74,1.86,2.74,5.14v.62h-4.78c.04,2.84,1.2,4.24,2.62,4.24.64,0,1.14-.16,1.82-.62l.1.86c-.74.42-1.22.56-2.04.56-1.76,0-3.34-1.72-3.34-5.2ZM19.33,36.94c0-2.42-.8-4.24-1.92-4.24s-1.96,1.46-2.04,4.24h3.96Z"/>
  <path class="st0" d="M22.1,28.44h.92v1.4h-.92v-1.4ZM22.14,32.08h.84v10.5h-.84v-10.5Z"/>
  <path class="st0" d="M24.82,39.52v-.16c0-1.94,1-3.36,2.76-3.36.72,0,1.28.18,1.76.4v-1.32c0-1.46-.66-2.32-2-2.32-.74,0-1.32.14-1.94.48v-.82c.58-.28,1.24-.46,1.98-.46.84,0,1.52.24,2.04.76.44.44.76,1.24.76,2.26v7.6h-.84v-1.52c-.42,1.04-1.1,1.7-2.12,1.7-1.42,0-2.4-1.38-2.4-3.24ZM29.34,39.3v-2.1c-.56-.26-1.1-.42-1.72-.42-1.3,0-1.96,1.08-1.96,2.54v.16c0,1.42.58,2.54,1.68,2.54,1.24,0,2-1.34,2-2.72Z"/>
  <path class="st0" d="M31.91,42.2v-.88c.72.38,1.46.6,2.14.6.88,0,1.6-.58,1.6-1.56v-.04c0-.74-.42-1.48-1.66-2.66-1.56-1.48-2.06-2.3-2.06-3.36v-.04c0-1.46,1.14-2.3,2.38-2.3.7,0,1.18.1,1.74.34v.88c-.6-.3-1.16-.44-1.78-.44-.86,0-1.5.56-1.5,1.48v.04c0,.76.4,1.34,1.66,2.58,1.48,1.46,2.06,2.32,2.06,3.44v.04c0,1.48-1.2,2.38-2.48,2.38-.82,0-1.42-.18-2.1-.5Z"/>
  <path class="st0" d="M42.23,28.44h.92v1.4h-.92v-1.4ZM42.27,32.08h.84v10.5h-.84v-10.5Z"/>
  <path class="st0" d="M45.53,32.08h.84v1.54c.36-.88,1-1.7,2.16-1.7,1.42,0,2.4,1.18,2.4,3.32v7.34h-.84v-7.26c0-1.74-.62-2.68-1.72-2.68s-2,1.14-2,2.84v7.1h-.84v-10.5Z"/>
  <path class="st0" d="M53.43,40.82v-7.96h-1v-.78h1v-2.96h.84v2.96h1.7v.78h-1.7v7.84c0,.92.42,1.16,1.1,1.16.2,0,.48-.04.64-.1v.78c-.2.08-.5.12-.72.12-1.14,0-1.86-.5-1.86-1.84Z"/>
  <path class="st0" d="M57.12,37.52v-.18c0-3.64,1.34-5.42,2.88-5.42s2.74,1.86,2.74,5.14v.62h-4.78c.04,2.84,1.2,4.24,2.62,4.24.64,0,1.14-.16,1.82-.62l.1.86c-.74.42-1.22.56-2.04.56-1.76,0-3.34-1.72-3.34-5.2ZM61.92,36.94c0-2.42-.8-4.24-1.92-4.24s-1.96,1.46-2.04,4.24h3.96Z"/>
  <path class="st0" d="M64.86,44.8v-.86c.76.3,1.66.5,2.34.5,1.42,0,2.16-.68,2.16-2.12v-2.48c-.42,1.2-1.14,2.18-2.2,2.18-1.4,0-2.74-1.74-2.74-4.96v-.18c0-3.18,1.34-4.96,2.74-4.96,1.06,0,1.78.98,2.2,2.18v-2.02h.84v10.2c0,.96-.26,1.68-.74,2.16-.52.52-1.3.78-2.3.78-.72,0-1.58-.16-2.3-.42ZM69.41,37.06v-.18c0-2.68-1.12-4.22-2.14-4.22s-2,1.5-2,4.24v.14c0,2.74.96,4.24,2,4.24s2.14-1.54,2.14-4.22Z"/>
  <path class="st0" d="M72.58,32.08h.84v1.54c.4-.96,1.22-1.74,2.46-1.66v.9h-.04c-1.32,0-2.42.84-2.42,2.68v7.04h-.84v-10.5Z"/>
  <path class="st0" d="M77.02,39.52v-.16c0-1.94,1-3.36,2.76-3.36.72,0,1.28.18,1.76.4v-1.32c0-1.46-.66-2.32-2-2.32-.74,0-1.32.14-1.94.48v-.82c.58-.28,1.24-.46,1.98-.46.84,0,1.52.24,2.04.76.44.44.76,1.24.76,2.26v7.6h-.84v-1.52c-.42,1.04-1.1,1.7-2.12,1.7-1.42,0-2.4-1.38-2.4-3.24ZM81.54,39.3v-2.1c-.56-.26-1.1-.42-1.72-.42-1.3,0-1.96,1.08-1.96,2.54v.16c0,1.42.58,2.54,1.68,2.54,1.24,0,2-1.34,2-2.72Z"/>
  <path class="st0" d="M84.72,28.44h.92v1.4h-.92v-1.4ZM84.76,32.08h.84v10.5h-.84v-10.5Z"/>
  <path class="st0" d="M87.41,42.2v-.88c.72.38,1.46.6,2.14.6.88,0,1.6-.58,1.6-1.56v-.04c0-.74-.42-1.48-1.66-2.66-1.56-1.48-2.06-2.3-2.06-3.36v-.04c0-1.46,1.14-2.3,2.38-2.3.7,0,1.18.1,1.74.34v.88c-.6-.3-1.16-.44-1.78-.44-.86,0-1.5.56-1.5,1.48v.04c0,.76.4,1.34,1.66,2.58,1.48,1.46,2.06,2.32,2.06,3.44v.04c0,1.48-1.2,2.38-2.48,2.38-.82,0-1.42-.18-2.1-.5Z"/>
  <path class="st0" d="M93.39,44.14c.78-.34,1.08-.8,1.02-1.56h-.54v-1.64h1.24v1.42c0,1.24-.38,1.76-1.48,2.28l-.24-.5Z"/>
  <path class="st0" d="M101.57,32.86h-1.08v-.78h1.08v-1.22c0-.88.22-1.54.62-1.94.34-.34.82-.52,1.42-.52.16,0,.46.04.62.08v.82c-.16-.04-.48-.08-.6-.08-.8,0-1.22.52-1.22,1.66v1.2h1.72v.78h-1.72v9.72h-.84v-9.72Z"/>
  <path class="st0" d="M105.22,39.52v-.16c0-1.94,1-3.36,2.76-3.36.72,0,1.28.18,1.76.4v-1.32c0-1.46-.66-2.32-2-2.32-.74,0-1.32.14-1.94.48v-.82c.58-.28,1.24-.46,1.98-.46.84,0,1.52.24,2.04.76.44.44.76,1.24.76,2.26v7.6h-.84v-1.52c-.42,1.04-1.1,1.7-2.12,1.7-1.42,0-2.4-1.38-2.4-3.24ZM109.75,39.3v-2.1c-.56-.26-1.1-.42-1.72-.42-1.3,0-1.96,1.08-1.96,2.54v.16c0,1.42.58,2.54,1.68,2.54,1.24,0,2-1.34,2-2.72Z"/>
  <path class="st0" d="M112.92,32.08h.84v1.54c.4-.96,1.22-1.74,2.46-1.66v.9h-.04c-1.32,0-2.42.84-2.42,2.68v7.04h-.84v-10.5Z"/>
  <path class="st0" d="M117.91,28.44h.92v1.4h-.92v-1.4ZM117.95,32.08h.84v10.5h-.84v-10.5Z"/>
  <path class="st0" d="M121.21,32.08h.84v1.54c.36-.88,1-1.7,2.16-1.7,1.42,0,2.4,1.18,2.4,3.32v7.34h-.84v-7.26c0-1.74-.62-2.68-1.72-2.68s-2,1.14-2,2.84v7.1h-.84v-10.5Z"/>
  <path class="st0" d="M128.93,28.44h.84v5.18c.36-.88,1-1.7,2.16-1.7,1.42,0,2.4,1.18,2.4,3.32v7.34h-.84v-7.26c0-1.74-.62-2.68-1.72-2.68s-2,1.14-2,2.84v7.1h-.84v-14.14Z"/>
  <path class="st0" d="M136.1,39.52v-.16c0-1.94,1-3.36,2.76-3.36.72,0,1.28.18,1.76.4v-1.32c0-1.46-.66-2.32-2-2.32-.74,0-1.32.14-1.94.48v-.82c.58-.28,1.24-.46,1.98-.46.84,0,1.52.24,2.04.76.44.44.76,1.24.76,2.26v7.6h-.84v-1.52c-.42,1.04-1.1,1.7-2.12,1.7-1.42,0-2.4-1.38-2.4-3.24ZM140.62,39.3v-2.1c-.56-.26-1.1-.42-1.72-.42-1.3,0-1.96,1.08-1.96,2.54v.16c0,1.42.58,2.54,1.68,2.54,1.24,0,2-1.34,2-2.72Z"/>
  <path class="st0" d="M143.19,42.2v-.88c.72.38,1.46.6,2.14.6.88,0,1.6-.58,1.6-1.56v-.04c0-.74-.42-1.48-1.66-2.66-1.56-1.48-2.06-2.3-2.06-3.36v-.04c0-1.46,1.14-2.3,2.38-2.3.7,0,1.18.1,1.74.34v.88c-.6-.3-1.16-.44-1.78-.44-.86,0-1.5.56-1.5,1.48v.04c0,.76.4,1.34,1.66,2.58,1.48,1.46,2.06,2.32,2.06,3.44v.04c0,1.48-1.2,2.38-2.48,2.38-.82,0-1.42-.18-2.1-.5Z"/>
  <path class="st0" d="M153.05,37.52v-.38c0-3.34,1.3-5.22,2.74-5.22,1.06,0,1.78.98,2.2,2.18v-5.66h.84v14.14h-.84v-2.02c-.42,1.2-1.14,2.18-2.2,2.18-1.44,0-2.74-1.84-2.74-5.22ZM158.03,37.58v-.5c0-2.82-1.08-4.42-2.14-4.42s-2,1.62-2,4.5v.34c0,2.88.92,4.5,2,4.5s2.14-1.6,2.14-4.42Z"/>
  <path class="st0" d="M160.85,37.52v-.18c0-3.64,1.34-5.42,2.88-5.42s2.74,1.86,2.74,5.14v.62h-4.78c.04,2.84,1.2,4.24,2.62,4.24.64,0,1.14-.16,1.82-.62l.1.86c-.74.42-1.22.56-2.04.56-1.76,0-3.34-1.72-3.34-5.2ZM165.65,36.94c0-2.42-.8-4.24-1.92-4.24s-1.96,1.46-2.04,4.24h3.96Z"/>
  <path class="st0" d="M171.91,37.46v-.2c0-3.64,1.6-5.32,3.2-5.32.52,0,.96.16,1.26.36v.92c-.36-.28-.78-.48-1.28-.48-1.08,0-2.34,1.38-2.34,4.48v.28c0,3.16,1.22,4.42,2.42,4.42.44,0,.84-.18,1.2-.48v.88c-.34.24-.74.4-1.26.4-1.64,0-3.2-1.6-3.2-5.26Z"/>
  <path class="st0" d="M177.52,37.42v-.18c0-3.3,1.42-5.32,3-5.32s2.96,2.02,2.96,5.32v.18c0,3.3-1.4,5.32-2.98,5.32s-2.98-2.02-2.98-5.32ZM182.64,37.42v-.18c0-2.76-.96-4.54-2.14-4.54s-2.14,1.78-2.14,4.54v.18c0,2.76.96,4.54,2.14,4.54s2.14-1.78,2.14-4.54Z"/>
  <path class="st0" d="M185.48,32.08h.84v1.54c.36-.88,1-1.7,2.16-1.7,1.42,0,2.4,1.18,2.4,3.32v7.34h-.84v-7.26c0-1.74-.62-2.68-1.72-2.68s-2,1.14-2,2.84v7.1h-.84v-10.5Z"/>
  <path class="st0" d="M192.81,37.46v-.2c0-3.64,1.6-5.32,3.2-5.32.52,0,.96.16,1.26.36v.92c-.36-.28-.78-.48-1.28-.48-1.08,0-2.34,1.38-2.34,4.48v.28c0,3.16,1.22,4.42,2.42,4.42.44,0,.84-.18,1.2-.48v.88c-.34.24-.74.4-1.26.4-1.64,0-3.2-1.6-3.2-5.26Z"/>
  <path class="st0" d="M198.44,37.52v-.18c0-3.64,1.34-5.42,2.88-5.42s2.74,1.86,2.74,5.14v.62h-4.78c.04,2.84,1.2,4.24,2.62,4.24.64,0,1.14-.16,1.82-.62l.1.86c-.74.42-1.22.56-2.04.56-1.76,0-3.34-1.72-3.34-5.2ZM203.24,36.94c0-2.42-.8-4.24-1.92-4.24s-1.96,1.46-2.04,4.24h3.96Z"/>
  <path class="st0" d="M206.01,28.44h.92v1.4h-.92v-1.4ZM206.05,32.08h.84v10.5h-.84v-10.5Z"/>
  <path class="st0" d="M209.64,40.82v-7.96h-1v-.78h1v-2.96h.84v2.96h1.7v.78h-1.7v7.84c0,.92.42,1.16,1.1,1.16.2,0,.48-.04.64-.1v.78c-.2.08-.5.12-.72.12-1.14,0-1.86-.5-1.86-1.84Z"/>
  <path class="st0" d="M213.32,37.42v-.18c0-3.3,1.42-5.32,3-5.32s2.96,2.02,2.96,5.32v.18c0,3.3-1.4,5.32-2.98,5.32s-2.98-2.02-2.98-5.32ZM218.44,37.42v-.18c0-2.76-.96-4.54-2.14-4.54s-2.14,1.78-2.14,4.54v.18c0,2.76.96,4.54,2.14,4.54s2.14-1.78,2.14-4.54Z"/>
  <path class="st0" d="M220.71,42.2v-.88c.72.38,1.46.6,2.14.6.88,0,1.6-.58,1.6-1.56v-.04c0-.74-.42-1.48-1.66-2.66-1.56-1.48-2.06-2.3-2.06-3.36v-.04c0-1.46,1.14-2.3,2.38-2.3.7,0,1.18.1,1.74.34v.88c-.6-.3-1.16-.44-1.78-.44-.86,0-1.5.56-1.5,1.48v.04c0,.76.4,1.34,1.66,2.58,1.48,1.46,2.06,2.32,2.06,3.44v.04c0,1.48-1.2,2.38-2.48,2.38-.82,0-1.42-.18-2.1-.5Z"/>
  <path class="st0" d="M231.79,40.56v2.02h-.84v-14.14h.84v5.66c.42-1.2,1.14-2.18,2.2-2.18,1.44,0,2.74,1.84,2.74,5.22v.38c0,3.34-1.3,5.22-2.74,5.22-1.06,0-1.78-.98-2.2-2.18ZM235.89,37.5v-.34c0-2.88-.92-4.5-2-4.5s-2.14,1.6-2.14,4.42v.5c0,2.82,1.08,4.42,2.14,4.42s2-1.62,2-4.5Z"/>
  <path class="st0" d="M238.38,37.52v-.18c0-3.64,1.34-5.42,2.88-5.42s2.74,1.86,2.74,5.14v.62h-4.78c.04,2.84,1.2,4.24,2.62,4.24.64,0,1.14-.16,1.82-.62l.1.86c-.74.42-1.22.56-2.04.56-1.76,0-3.34-1.72-3.34-5.2ZM243.18,36.94c0-2.42-.8-4.24-1.92-4.24s-1.96,1.46-2.04,4.24h3.96Z"/>
  <path class="st0" d="M245.97,32.08h.84v1.54c.36-.88.98-1.7,2.1-1.7s1.74.8,2.06,1.78c.38-.86,1.06-1.78,2.32-1.78,1.44,0,2.4,1.14,2.4,3.28v7.38h-.84v-7.3c0-1.74-.62-2.64-1.66-2.64s-1.94,1.1-1.94,2.8v7.14h-.84v-7.3c0-1.74-.62-2.64-1.66-2.64s-1.94,1.1-1.94,2.8v7.14h-.84v-10.5Z"/>
  <path class="st0" d="M261.83,32.08h.84v1.54c.4-.96,1.22-1.74,2.46-1.66v.9h-.04c-1.32,0-2.42.84-2.42,2.68v7.04h-.84v-10.5Z"/>
  <path class="st0" d="M266.15,37.52v-.18c0-3.64,1.34-5.42,2.88-5.42s2.74,1.86,2.74,5.14v.62h-4.78c.04,2.84,1.2,4.24,2.62,4.24.64,0,1.14-.16,1.82-.62l.1.86c-.74.42-1.22.56-2.04.56-1.76,0-3.34-1.72-3.34-5.2ZM270.95,36.94c0-2.42-.8-4.24-1.92-4.24s-1.96,1.46-2.04,4.24h3.96Z"/>
  <path class="st0" d="M274.04,32.86h-1.08v-.78h1.08v-1.22c0-.88.22-1.54.62-1.94.34-.34.82-.52,1.42-.52.16,0,.46.04.62.08v.82c-.16-.04-.48-.08-.6-.08-.8,0-1.22.52-1.22,1.66v1.2h1.72v.78h-1.72v9.72h-.84v-9.72ZM278.02,28.44h.92v1.4h-.92v-1.4ZM278.06,32.08h.84v10.5h-.84v-10.5Z"/>
  <path class="st0" d="M281.39,32.08h.84v1.54c.36-.88,1-1.7,2.16-1.7,1.42,0,2.4,1.18,2.4,3.32v7.34h-.84v-7.26c0-1.74-.62-2.68-1.72-2.68s-2,1.14-2,2.84v7.1h-.84v-10.5Z"/>
  <path class="st0" d="M288.55,39.52v-.16c0-1.94,1-3.36,2.76-3.36.72,0,1.28.18,1.76.4v-1.32c0-1.46-.66-2.32-2-2.32-.74,0-1.32.14-1.94.48v-.82c.58-.28,1.24-.46,1.98-.46.84,0,1.52.24,2.04.76.44.44.76,1.24.76,2.26v7.6h-.84v-1.52c-.42,1.04-1.1,1.7-2.12,1.7-1.42,0-2.4-1.38-2.4-3.24ZM293.07,39.3v-2.1c-.56-.26-1.1-.42-1.72-.42-1.3,0-1.96,1.08-1.96,2.54v.16c0,1.42.58,2.54,1.68,2.54,1.24,0,2-1.34,2-2.72Z"/>
  <path class="st0" d="M295.89,37.52v-.38c0-3.34,1.3-5.22,2.74-5.22,1.06,0,1.78.98,2.2,2.18v-5.66h.84v14.14h-.84v-2.02c-.42,1.2-1.14,2.18-2.2,2.18-1.44,0-2.74-1.84-2.74-5.22ZM300.87,37.58v-.5c0-2.82-1.08-4.42-2.14-4.42s-2,1.62-2,4.5v.34c0,2.88.92,4.5,2,4.5s2.14-1.6,2.14-4.42Z"/>
  <path class="st0" d="M303.67,37.42v-.18c0-3.3,1.42-5.32,3-5.32s2.96,2.02,2.96,5.32v.18c0,3.3-1.4,5.32-2.98,5.32s-2.98-2.02-2.98-5.32ZM308.79,37.42v-.18c0-2.76-.96-4.54-2.14-4.54s-2.14,1.78-2.14,4.54v.18c0,2.76.96,4.54,2.14,4.54s2.14-1.78,2.14-4.54Z"/>
  <path class="st0" d="M311.06,42.2v-.88c.72.38,1.46.6,2.14.6.88,0,1.6-.58,1.6-1.56v-.04c0-.74-.42-1.48-1.66-2.66-1.56-1.48-2.06-2.3-2.06-3.36v-.04c0-1.46,1.14-2.3,2.38-2.3.7,0,1.18.1,1.74.34v.88c-.6-.3-1.16-.44-1.78-.44-.86,0-1.5.56-1.5,1.48v.04c0,.76.4,1.34,1.66,2.58,1.48,1.46,2.06,2.32,2.06,3.44v.04c0,1.48-1.2,2.38-2.48,2.38-.82,0-1.42-.18-2.1-.5Z"/>
  <path class="st0" d="M317.05,44.14c.78-.34,1.08-.8,1.02-1.56h-.54v-1.64h1.24v1.42c0,1.24-.38,1.76-1.48,2.28l-.24-.5Z"/>
  <path class="st0" d="M324.8,32.08h.84v1.54c.36-.88.98-1.7,2.1-1.7s1.74.8,2.06,1.78c.38-.86,1.06-1.78,2.32-1.78,1.44,0,2.4,1.14,2.4,3.28v7.38h-.84v-7.3c0-1.74-.62-2.64-1.66-2.64s-1.94,1.1-1.94,2.8v7.14h-.84v-7.3c0-1.74-.62-2.64-1.66-2.64s-1.94,1.1-1.94,2.8v7.14h-.84v-10.5Z"/>
  <path class="st0" d="M336.3,39.52v-.16c0-1.94,1-3.36,2.76-3.36.72,0,1.28.18,1.76.4v-1.32c0-1.46-.66-2.32-2-2.32-.74,0-1.32.14-1.94.48v-.82c.58-.28,1.24-.46,1.98-.46.84,0,1.52.24,2.04.76.44.44.76,1.24.76,2.26v7.6h-.84v-1.52c-.42,1.04-1.1,1.7-2.12,1.7-1.42,0-2.4-1.38-2.4-3.24ZM340.82,39.3v-2.1c-.56-.26-1.1-.42-1.72-.42-1.3,0-1.96,1.08-1.96,2.54v.16c0,1.42.58,2.54,1.68,2.54,1.24,0,2-1.34,2-2.72Z"/>
  <path class="st0" d="M343.98,32.08h.84v1.54c.36-.88,1-1.7,2.16-1.7,1.42,0,2.4,1.18,2.4,3.32v7.34h-.84v-7.26c0-1.74-.62-2.68-1.72-2.68s-2,1.14-2,2.84v7.1h-.84v-10.5Z"/>
  <path class="st0" d="M351.89,40.82v-7.96h-1v-.78h1v-2.96h.84v2.96h1.7v.78h-1.7v7.84c0,.92.42,1.16,1.1,1.16.2,0,.48-.04.64-.1v.78c-.2.08-.5.12-.72.12-1.14,0-1.86-.5-1.86-1.84Z"/>
  <path class="st0" d="M355.58,37.52v-.18c0-3.64,1.34-5.42,2.88-5.42s2.74,1.86,2.74,5.14v.62h-4.78c.04,2.84,1.2,4.24,2.62,4.24.64,0,1.14-.16,1.82-.62l.1.86c-.74.42-1.22.56-2.04.56-1.76,0-3.34-1.72-3.34-5.2ZM360.38,36.94c0-2.42-.8-4.24-1.92-4.24s-1.96,1.46-2.04,4.24h3.96Z"/>
  <path class="st0" d="M363.15,28.44h.92v1.4h-.92v-1.4ZM363.19,32.08h.84v10.5h-.84v-10.5Z"/>
  <path class="st0" d="M366.49,44.8v-.86c.76.3,1.66.5,2.34.5,1.42,0,2.16-.68,2.16-2.12v-2.48c-.42,1.2-1.14,2.18-2.2,2.18-1.4,0-2.74-1.74-2.74-4.96v-.18c0-3.18,1.34-4.96,2.74-4.96,1.06,0,1.78.98,2.2,2.18v-2.02h.84v10.2c0,.96-.26,1.68-.74,2.16-.52.52-1.3.78-2.3.78-.72,0-1.58-.16-2.3-.42ZM371.03,37.06v-.18c0-2.68-1.12-4.22-2.14-4.22s-2,1.5-2,4.24v.14c0,2.74.96,4.24,2,4.24s2.14-1.54,2.14-4.22Z"/>
  <path class="st0" d="M373.63,39.52v-.16c0-1.94,1-3.36,2.76-3.36.72,0,1.28.18,1.76.4v-1.32c0-1.46-.66-2.32-2-2.32-.74,0-1.32.14-1.94.48v-.82c.58-.28,1.24-.46,1.98-.46.84,0,1.52.24,2.04.76.44.44.76,1.24.76,2.26v7.6h-.84v-1.52c-.42,1.04-1.1,1.7-2.12,1.7-1.42,0-2.4-1.38-2.4-3.24ZM378.15,39.3v-2.1c-.56-.26-1.1-.42-1.72-.42-1.3,0-1.96,1.08-1.96,2.54v.16c0,1.42.58,2.54,1.68,2.54,1.24,0,2-1.34,2-2.72Z"/>
  <path class="st0" d="M384.75,37.52v-.38c0-3.34,1.3-5.22,2.74-5.22,1.06,0,1.78.98,2.2,2.18v-5.66h.84v14.14h-.84v-2.02c-.42,1.2-1.14,2.18-2.2,2.18-1.44,0-2.74-1.84-2.74-5.22ZM389.73,37.58v-.5c0-2.82-1.08-4.42-2.14-4.42s-2,1.62-2,4.5v.34c0,2.88.92,4.5,2,4.5s2.14-1.6,2.14-4.42Z"/>
  <path class="st0" d="M392.55,37.52v-.18c0-3.64,1.34-5.42,2.88-5.42s2.74,1.86,2.74,5.14v.62h-4.78c.04,2.84,1.2,4.24,2.62,4.24.64,0,1.14-.16,1.82-.62l.1.86c-.74.42-1.22.56-2.04.56-1.76,0-3.34-1.72-3.34-5.2ZM397.35,36.94c0-2.42-.8-4.24-1.92-4.24s-1.96,1.46-2.04,4.24h3.96Z"/>
  <path class="st0" d="M404.03,32.08h.84v1.54c.4-.96,1.22-1.74,2.46-1.66v.9h-.04c-1.32,0-2.42.84-2.42,2.68v7.04h-.84v-10.5Z"/>
  <path class="st0" d="M408.35,37.52v-.18c0-3.64,1.34-5.42,2.88-5.42s2.74,1.86,2.74,5.14v.62h-4.78c.04,2.84,1.2,4.24,2.62,4.24.64,0,1.14-.16,1.82-.62l.1.86c-.74.42-1.22.56-2.04.56-1.76,0-3.34-1.72-3.34-5.2ZM413.15,36.94c0-2.42-.8-4.24-1.92-4.24s-1.96,1.46-2.04,4.24h3.96Z"/>
  <path class="st0" d="M416.19,32.86h-1.08v-.78h1.08v-1.22c0-.88.22-1.54.62-1.94.34-.34.82-.52,1.42-.52.16,0,.46.04.62.08v.82c-.16-.04-.48-.08-.6-.08-.8,0-1.22.52-1.22,1.66v1.2h1.72v.78h-1.72v9.72h-.84v-9.72Z"/>
  <path class="st0" d="M419.72,37.52v-.18c0-3.64,1.34-5.42,2.88-5.42s2.74,1.86,2.74,5.14v.62h-4.78c.04,2.84,1.2,4.24,2.62,4.24.64,0,1.14-.16,1.82-.62l.1.86c-.74.42-1.22.56-2.04.56-1.76,0-3.34-1.72-3.34-5.2ZM424.53,36.94c0-2.42-.8-4.24-1.92-4.24s-1.96,1.46-2.04,4.24h3.96Z"/>
  <path class="st0" d="M427.31,32.08h.84v1.54c.4-.96,1.22-1.74,2.46-1.66v.9h-.04c-1.32,0-2.42.84-2.42,2.68v7.04h-.84v-10.5Z"/>
  <path class="st0" d="M431.64,37.52v-.18c0-3.64,1.34-5.42,2.88-5.42s2.74,1.86,2.74,5.14v.62h-4.78c.04,2.84,1.2,4.24,2.62,4.24.64,0,1.14-.16,1.82-.62l.1.86c-.74.42-1.22.56-2.04.56-1.76,0-3.34-1.72-3.34-5.2ZM436.44,36.94c0-2.42-.8-4.24-1.92-4.24s-1.96,1.46-2.04,4.24h3.96ZM434.18,28.52h.68l1.34,2.44h-.74l-.96-1.5-.96,1.5h-.7l1.34-2.44Z"/>
  <path class="st0" d="M439.22,32.08h.84v1.54c.36-.88,1-1.7,2.16-1.7,1.42,0,2.4,1.18,2.4,3.32v7.34h-.84v-7.26c0-1.74-.62-2.68-1.72-2.68s-2,1.14-2,2.84v7.1h-.84v-10.5Z"/>
  <path class="st0" d="M446.55,37.46v-.2c0-3.64,1.6-5.32,3.2-5.32.52,0,.96.16,1.26.36v.92c-.36-.28-.78-.48-1.28-.48-1.08,0-2.34,1.38-2.34,4.48v.28c0,3.16,1.22,4.42,2.42,4.42.44,0,.84-.18,1.2-.48v.88c-.34.24-.74.4-1.26.4-1.64,0-3.2-1.6-3.2-5.26Z"/>
  <path class="st0" d="M452.8,28.44h.92v1.4h-.92v-1.4ZM452.84,32.08h.84v10.5h-.84v-10.5Z"/>
  <path class="st0" d="M455.52,39.52v-.16c0-1.94,1-3.36,2.76-3.36.72,0,1.28.18,1.76.4v-1.32c0-1.46-.66-2.32-2-2.32-.74,0-1.32.14-1.94.48v-.82c.58-.28,1.24-.46,1.98-.46.84,0,1.52.24,2.04.76.44.44.76,1.24.76,2.26v7.6h-.84v-1.52c-.42,1.04-1.1,1.7-2.12,1.7-1.42,0-2.4-1.38-2.4-3.24ZM460.05,39.3v-2.1c-.56-.26-1.1-.42-1.72-.42-1.3,0-1.96,1.08-1.96,2.54v.16c0,1.42.58,2.54,1.68,2.54,1.24,0,2-1.34,2-2.72Z"/>
  <path class="st0" d="M462.62,42.2v-.88c.72.38,1.46.6,2.14.6.88,0,1.6-.58,1.6-1.56v-.04c0-.74-.42-1.48-1.66-2.66-1.56-1.48-2.06-2.3-2.06-3.36v-.04c0-1.46,1.14-2.3,2.38-2.3.7,0,1.18.1,1.74.34v.88c-.6-.3-1.16-.44-1.78-.44-.86,0-1.5.56-1.5,1.48v.04c0,.76.4,1.34,1.66,2.58,1.48,1.46,2.06,2.32,2.06,3.44v.04c0,1.48-1.2,2.38-2.48,2.38-.82,0-1.42-.18-2.1-.5Z"/>
  <path class="st0" d="M472.44,37.46v-.2c0-3.64,1.6-5.32,3.2-5.32.52,0,.96.16,1.26.36v.92c-.36-.28-.78-.48-1.28-.48-1.08,0-2.34,1.38-2.34,4.48v.28c0,3.16,1.22,4.42,2.42,4.42.44,0,.84-.18,1.2-.48v.88c-.34.24-.74.4-1.26.4-1.64,0-3.2-1.6-3.2-5.26Z"/>
  <path class="st0" d="M478.63,39.42v-7.34h.84v7.26c0,1.74.62,2.68,1.72,2.68s2-1.14,2-2.84v-7.1h.84v10.5h-.84v-1.54c-.36.88-1,1.7-2.16,1.7-1.42,0-2.4-1.18-2.4-3.32Z"/>
  <path class="st0" d="M486.46,28.44h.84v14.14h-.84v-14.14Z"/>
  <path class="st0" d="M490.05,40.82v-7.96h-1v-.78h1v-2.96h.84v2.96h1.7v.78h-1.7v7.84c0,.92.42,1.16,1.1,1.16.2,0,.48-.04.64-.1v.78c-.2.08-.5.12-.72.12-1.14,0-1.86-.5-1.86-1.84Z"/>
  <path class="st0" d="M494.36,39.42v-7.34h.84v7.26c0,1.74.62,2.68,1.72,2.68s2-1.14,2-2.84v-7.1h.84v10.5h-.84v-1.54c-.36.88-1,1.7-2.16,1.7-1.42,0-2.4-1.18-2.4-3.32Z"/>
  <path class="st0" d="M502.13,32.08h.84v1.54c.4-.96,1.22-1.74,2.46-1.66v.9h-.04c-1.32,0-2.42.84-2.42,2.68v7.04h-.84v-10.5Z"/>
  <path class="st0" d="M506.57,39.52v-.16c0-1.94,1-3.36,2.76-3.36.72,0,1.28.18,1.76.4v-1.32c0-1.46-.66-2.32-2-2.32-.74,0-1.32.14-1.94.48v-.82c.58-.28,1.24-.46,1.98-.46.84,0,1.52.24,2.04.76.44.44.76,1.24.76,2.26v7.6h-.84v-1.52c-.42,1.04-1.1,1.7-2.12,1.7-1.42,0-2.4-1.38-2.4-3.24ZM511.09,39.3v-2.1c-.56-.26-1.1-.42-1.72-.42-1.3,0-1.96,1.08-1.96,2.54v.16c0,1.42.58,2.54,1.68,2.54,1.24,0,2-1.34,2-2.72Z"/>
  <path class="st0" d="M514.27,28.44h.92v1.4h-.92v-1.4ZM514.31,32.08h.84v10.5h-.84v-10.5Z"/>
  <path class="st0" d="M516.96,42.2v-.88c.72.38,1.46.6,2.14.6.88,0,1.6-.58,1.6-1.56v-.04c0-.74-.42-1.48-1.66-2.66-1.56-1.48-2.06-2.3-2.06-3.36v-.04c0-1.46,1.14-2.3,2.38-2.3.7,0,1.18.1,1.74.34v.88c-.6-.3-1.16-.44-1.78-.44-.86,0-1.5.56-1.5,1.48v.04c0,.76.4,1.34,1.66,2.58,1.48,1.46,2.06,2.32,2.06,3.44v.04c0,1.48-1.2,2.38-2.48,2.38-.82,0-1.42-.18-2.1-.5Z"/>
  <path class="st0" d="M522.95,44.14c.78-.34,1.08-.8,1.02-1.56h-.54v-1.64h1.24v1.42c0,1.24-.38,1.76-1.48,2.28l-.24-.5Z"/>
  <path class="st0" d="M530.21,39.52v-.16c0-1.94,1-3.36,2.76-3.36.72,0,1.28.18,1.76.4v-1.32c0-1.46-.66-2.32-2-2.32-.74,0-1.32.14-1.94.48v-.82c.58-.28,1.24-.46,1.98-.46.84,0,1.52.24,2.04.76.44.44.76,1.24.76,2.26v7.6h-.84v-1.52c-.42,1.04-1.1,1.7-2.12,1.7-1.42,0-2.4-1.38-2.4-3.24ZM534.73,39.3v-2.1c-.56-.26-1.1-.42-1.72-.42-1.3,0-1.96,1.08-1.96,2.54v.16c0,1.42.58,2.54,1.68,2.54,1.24,0,2-1.34,2-2.72Z"/>
  <path class="st0" d="M538.88,44.4l1.04-1.8c-1.32-.44-2.42-2.06-2.42-5.14v-.2c0-3.64,1.6-5.32,3.2-5.32.52,0,.96.16,1.26.36v.92c-.36-.28-.78-.48-1.28-.48-1.08,0-2.34,1.38-2.34,4.48v.28c0,3.16,1.22,4.42,2.42,4.42.44,0,.84-.18,1.2-.48v.88c-.34.24-.74.4-1.26.4h-.14l-.76,2.06-.92-.38Z"/>
  <path class="st0" d="M543.69,39.42v-7.34h.84v7.26c0,1.74.62,2.68,1.72,2.68s2-1.14,2-2.84v-7.1h.84v10.5h-.84v-1.54c-.36.88-1,1.7-2.16,1.7-1.42,0-2.4-1.18-2.4-3.32ZM547.31,28.66l.94.5-1.64,2h-.58l1.28-2.5Z"/>
  <path class="st0" d="M551.09,37.46v-.2c0-3.64,1.6-5.32,3.2-5.32.52,0,.96.16,1.26.36v.92c-.36-.28-.78-.48-1.28-.48-1.08,0-2.34,1.38-2.34,4.48v.28c0,3.16,1.22,4.42,2.42,4.42.44,0,.84-.18,1.2-.48v.88c-.34.24-.74.4-1.26.4-1.64,0-3.2-1.6-3.2-5.26Z"/>
  <path class="st0" d="M556.92,39.52v-.16c0-1.94,1-3.36,2.76-3.36.72,0,1.28.18,1.76.4v-1.32c0-1.46-.66-2.32-2-2.32-.74,0-1.32.14-1.94.48v-.82c.58-.28,1.24-.46,1.98-.46.84,0,1.52.24,2.04.76.44.44.76,1.24.76,2.26v7.6h-.84v-1.52c-.42,1.04-1.1,1.7-2.12,1.7-1.42,0-2.4-1.38-2.4-3.24ZM561.44,39.3v-2.1c-.56-.26-1.1-.42-1.72-.42-1.3,0-1.96,1.08-1.96,2.54v.16c0,1.42.58,2.54,1.68,2.54,1.24,0,2-1.34,2-2.72Z"/>
  <path class="st0" d="M564.61,32.08h.84v1.54c.4-.96,1.22-1.74,2.46-1.66v.9h-.04c-1.32,0-2.42.84-2.42,2.68v7.04h-.84v-10.5Z"/>
  <path class="st0" d="M573.39,32.08h.84v1.54c.36-.88.98-1.7,2.1-1.7s1.74.8,2.06,1.78c.38-.86,1.06-1.78,2.32-1.78,1.44,0,2.4,1.14,2.4,3.28v7.38h-.84v-7.3c0-1.74-.62-2.64-1.66-2.64s-1.94,1.1-1.94,2.8v7.14h-.84v-7.3c0-1.74-.62-2.64-1.66-2.64s-1.94,1.1-1.94,2.8v7.14h-.84v-10.5Z"/>
  <path class="st0" d="M584.88,39.52v-.16c0-1.94,1-3.36,2.76-3.36.72,0,1.28.18,1.76.4v-1.32c0-1.46-.66-2.32-2-2.32-.74,0-1.32.14-1.94.48v-.82c.58-.28,1.24-.46,1.98-.46.84,0,1.52.24,2.04.76.44.44.76,1.24.76,2.26v7.6h-.84v-1.52c-.42,1.04-1.1,1.7-2.12,1.7-1.42,0-2.4-1.38-2.4-3.24ZM589.4,39.3v-2.1c-.56-.26-1.1-.42-1.72-.42-1.3,0-1.96,1.08-1.96,2.54v.16c0,1.42.58,2.54,1.68,2.54,1.24,0,2-1.34,2-2.72Z"/>
  <path class="st0" d="M591.97,42.2v-.88c.72.38,1.46.6,2.14.6.88,0,1.6-.58,1.6-1.56v-.04c0-.74-.42-1.48-1.66-2.66-1.56-1.48-2.06-2.3-2.06-3.36v-.04c0-1.46,1.14-2.3,2.38-2.3.7,0,1.18.1,1.74.34v.88c-.6-.3-1.16-.44-1.78-.44-.86,0-1.5.56-1.5,1.48v.04c0,.76.4,1.34,1.66,2.58,1.48,1.46,2.06,2.32,2.06,3.44v.04c0,1.48-1.2,2.38-2.48,2.38-.82,0-1.42-.18-2.1-.5Z"/>
  <path class="st0" d="M598,37.46v-.2c0-3.64,1.6-5.32,3.2-5.32.52,0,.96.16,1.26.36v.92c-.36-.28-.78-.48-1.28-.48-1.08,0-2.34,1.38-2.34,4.48v.28c0,3.16,1.22,4.42,2.42,4.42.44,0,.84-.18,1.2-.48v.88c-.34.24-.74.4-1.26.4-1.64,0-3.2-1.6-3.2-5.26Z"/>
  <path class="st0" d="M603.84,39.52v-.16c0-1.94,1-3.36,2.76-3.36.72,0,1.28.18,1.76.4v-1.32c0-1.46-.66-2.32-2-2.32-.74,0-1.32.14-1.94.48v-.82c.58-.28,1.24-.46,1.98-.46.84,0,1.52.24,2.04.76.44.44.76,1.24.76,2.26v7.6h-.84v-1.52c-.42,1.04-1.1,1.7-2.12,1.7-1.42,0-2.4-1.38-2.4-3.24ZM608.36,39.3v-2.1c-.56-.26-1.1-.42-1.72-.42-1.3,0-1.96,1.08-1.96,2.54v.16c0,1.42.58,2.54,1.68,2.54,1.24,0,2-1.34,2-2.72Z"/>
  <path class="st0" d="M610.7,32.08h.86l2.08,9.08,2.12-9.08h.82l-2.58,10.56h-.72l-2.58-10.56Z"/>
  <path class="st0" d="M617.73,37.42v-.18c0-3.3,1.42-5.32,3-5.32s2.96,2.02,2.96,5.32v.18c0,3.3-1.4,5.32-2.98,5.32s-2.98-2.02-2.98-5.32ZM622.85,37.42v-.18c0-2.76-.96-4.54-2.14-4.54s-2.14,1.78-2.14,4.54v.18c0,2.76.96,4.54,2.14,4.54s2.14-1.78,2.14-4.54Z"/>
  <path class="st0" d="M629.11,37.52v-.38c0-3.34,1.3-5.22,2.74-5.22,1.06,0,1.78.98,2.2,2.18v-5.66h.84v14.14h-.84v-2.02c-.42,1.2-1.14,2.18-2.2,2.18-1.44,0-2.74-1.84-2.74-5.22ZM634.09,37.58v-.5c0-2.82-1.08-4.42-2.14-4.42s-2,1.62-2,4.5v.34c0,2.88.92,4.5,2,4.5s2.14-1.6,2.14-4.42Z"/>
  <path class="st0" d="M636.91,37.52v-.18c0-3.64,1.34-5.42,2.88-5.42s2.74,1.86,2.74,5.14v.62h-4.78c.04,2.84,1.2,4.24,2.62,4.24.64,0,1.14-.16,1.82-.62l.1.86c-.74.42-1.22.56-2.04.56-1.76,0-3.34-1.72-3.34-5.2ZM641.72,36.94c0-2.42-.8-4.24-1.92-4.24s-1.96,1.46-2.04,4.24h3.96Z"/>
  <path class="st0" d="M647.97,37.52v-.18c0-3.64,1.34-5.42,2.88-5.42s2.74,1.86,2.74,5.14v.62h-4.78c.04,2.84,1.2,4.24,2.62,4.24.64,0,1.14-.16,1.82-.62l.1.86c-.74.42-1.22.56-2.04.56-1.76,0-3.34-1.72-3.34-5.2ZM652.77,36.94c0-2.42-.8-4.24-1.92-4.24s-1.96,1.46-2.04,4.24h3.96Z"/>
  <path class="st0" d="M657.88,36.4l1.78-4.32h.88l-2.18,5.04,2.36,5.46h-.9l-1.96-4.7-1.94,4.7h-.88l2.34-5.42-2.18-5.08h.9l1.78,4.32Z"/>
  <path class="st0" d="M662.48,32.08h.84v2.02c.42-1.2,1.14-2.18,2.2-2.18,1.44,0,2.74,1.84,2.74,5.22v.38c0,3.34-1.3,5.22-2.74,5.22-1.06,0-1.78-.98-2.2-2.18v4.62h-.84v-13.1ZM667.42,37.5v-.34c0-2.88-.92-4.5-2-4.5s-2.14,1.6-2.14,4.42v.5c0,2.82,1.08,4.42,2.14,4.42s2-1.62,2-4.5Z"/>
  <path class="st0" d="M669.91,37.52v-.18c0-3.64,1.34-5.42,2.88-5.42s2.74,1.86,2.74,5.14v.62h-4.78c.04,2.84,1.2,4.24,2.62,4.24.64,0,1.14-.16,1.82-.62l.1.86c-.74.42-1.22.56-2.04.56-1.76,0-3.34-1.72-3.34-5.2ZM674.71,36.94c0-2.42-.8-4.24-1.92-4.24s-1.96,1.46-2.04,4.24h3.96Z"/>
  <path class="st0" d="M677.5,32.08h.84v1.54c.4-.96,1.22-1.74,2.46-1.66v.9h-.04c-1.32,0-2.42.84-2.42,2.68v7.04h-.84v-10.5Z"/>
  <path class="st0" d="M682.49,28.44h.92v1.4h-.92v-1.4ZM682.53,32.08h.84v10.5h-.84v-10.5Z"/>
  <path class="st0" d="M685.4,37.52v-.18c0-3.64,1.34-5.42,2.88-5.42s2.74,1.86,2.74,5.14v.62h-4.78c.04,2.84,1.2,4.24,2.62,4.24.64,0,1.14-.16,1.82-.62l.1.86c-.74.42-1.22.56-2.04.56-1.76,0-3.34-1.72-3.34-5.2ZM690.2,36.94c0-2.42-.8-4.24-1.92-4.24s-1.96,1.46-2.04,4.24h3.96ZM687.94,28.52h.68l1.34,2.44h-.74l-.96-1.5-.96,1.5h-.7l1.34-2.44Z"/>
  <path class="st0" d="M692.99,32.08h.84v1.54c.36-.88,1-1.7,2.16-1.7,1.42,0,2.4,1.18,2.4,3.32v7.34h-.84v-7.26c0-1.74-.62-2.68-1.72-2.68s-2,1.14-2,2.84v7.1h-.84v-10.5Z"/>
  <path class="st0" d="M700.32,37.46v-.2c0-3.64,1.6-5.32,3.2-5.32.52,0,.96.16,1.26.36v.92c-.36-.28-.78-.48-1.28-.48-1.08,0-2.34,1.38-2.34,4.48v.28c0,3.16,1.22,4.42,2.42,4.42.44,0,.84-.18,1.2-.48v.88c-.34.24-.74.4-1.26.4-1.64,0-3.2-1.6-3.2-5.26Z"/>
  <path class="st0" d="M706.57,28.44h.92v1.4h-.92v-1.4ZM706.61,32.08h.84v10.5h-.84v-10.5Z"/>
  <path class="st0" d="M709.29,39.52v-.16c0-1.94,1-3.36,2.76-3.36.72,0,1.28.18,1.76.4v-1.32c0-1.46-.66-2.32-2-2.32-.74,0-1.32.14-1.94.48v-.82c.58-.28,1.24-.46,1.98-.46.84,0,1.52.24,2.04.76.44.44.76,1.24.76,2.26v7.6h-.84v-1.52c-.42,1.04-1.1,1.7-2.12,1.7-1.42,0-2.4-1.38-2.4-3.24ZM713.81,39.3v-2.1c-.56-.26-1.1-.42-1.72-.42-1.3,0-1.96,1.08-1.96,2.54v.16c0,1.42.58,2.54,1.68,2.54,1.24,0,2-1.34,2-2.72Z"/>
  <path class="st0" d="M716.38,42.2v-.88c.72.38,1.46.6,2.14.6.88,0,1.6-.58,1.6-1.56v-.04c0-.74-.42-1.48-1.66-2.66-1.56-1.48-2.06-2.3-2.06-3.36v-.04c0-1.46,1.14-2.3,2.38-2.3.7,0,1.18.1,1.74.34v.88c-.6-.3-1.16-.44-1.78-.44-.86,0-1.5.56-1.5,1.48v.04c0,.76.4,1.34,1.66,2.58,1.48,1.46,2.06,2.32,2.06,3.44v.04c0,1.48-1.2,2.38-2.48,2.38-.82,0-1.42-.18-2.1-.5Z"/>
  <path class="st0" d="M726.1,32.08h.86l2.08,9.08,2.12-9.08h.82l-2.58,10.56h-.72l-2.58-10.56Z"/>
  <path class="st0" d="M733.79,28.44h.92v1.4h-.92v-1.4ZM733.83,32.08h.84v10.5h-.84v-10.5Z"/>
  <path class="st0" d="M736.5,32.08h.86l2.08,9.08,2.12-9.08h.82l-2.58,10.56h-.72l-2.58-10.56Z"/>
  <path class="st0" d="M744.19,28.44h.92v1.4h-.92v-1.4ZM744.23,32.08h.84v10.5h-.84v-10.5Z"/>
  <path class="st0" d="M747.15,37.52v-.38c0-3.34,1.3-5.22,2.74-5.22,1.06,0,1.78.98,2.2,2.18v-5.66h.84v14.14h-.84v-2.02c-.42,1.2-1.14,2.18-2.2,2.18-1.44,0-2.74-1.84-2.74-5.22ZM752.13,37.58v-.5c0-2.82-1.08-4.42-2.14-4.42s-2,1.62-2,4.5v.34c0,2.88.92,4.5,2,4.5s2.14-1.6,2.14-4.42Z"/>
  <path class="st0" d="M754.73,39.52v-.16c0-1.94,1-3.36,2.76-3.36.72,0,1.28.18,1.76.4v-1.32c0-1.46-.66-2.32-2-2.32-.74,0-1.32.14-1.94.48v-.82c.58-.28,1.24-.46,1.98-.46.84,0,1.52.24,2.04.76.44.44.76,1.24.76,2.26v7.6h-.84v-1.52c-.42,1.04-1.1,1.7-2.12,1.7-1.42,0-2.4-1.38-2.4-3.24ZM759.25,39.3v-2.1c-.56-.26-1.1-.42-1.72-.42-1.3,0-1.96,1.08-1.96,2.54v.16c0,1.42.58,2.54,1.68,2.54,1.24,0,2-1.34,2-2.72Z"/>
  <path class="st0" d="M761.82,42.2v-.88c.72.38,1.46.6,2.14.6.88,0,1.6-.58,1.6-1.56v-.04c0-.74-.42-1.48-1.66-2.66-1.56-1.48-2.06-2.3-2.06-3.36v-.04c0-1.46,1.14-2.3,2.38-2.3.7,0,1.18.1,1.74.34v.88c-.6-.3-1.16-.44-1.78-.44-.86,0-1.5.56-1.5,1.48v.04c0,.76.4,1.34,1.66,2.58,1.48,1.46,2.06,2.32,2.06,3.44v.04c0,1.48-1.2,2.38-2.48,2.38-.82,0-1.42-.18-2.1-.5Z"/>
  <path class="st0" d="M767.81,44.14c.78-.34,1.08-.8,1.02-1.56h-.54v-1.64h1.24v1.42c0,1.24-.38,1.76-1.48,2.28l-.24-.5Z"/>
  <path class="st0" d="M775.99,32.86h-1.08v-.78h1.08v-1.22c0-.88.22-1.54.62-1.94.34-.34.82-.52,1.42-.52.16,0,.46.04.62.08v.82c-.16-.04-.48-.08-.6-.08-.8,0-1.22.52-1.22,1.66v1.2h1.72v.78h-1.72v9.72h-.84v-9.72Z"/>
  <path class="st0" d="M779.53,37.52v-.18c0-3.64,1.34-5.42,2.88-5.42s2.74,1.86,2.74,5.14v.62h-4.78c.04,2.84,1.2,4.24,2.62,4.24.64,0,1.14-.16,1.82-.62l.1.86c-.74.42-1.22.56-2.04.56-1.76,0-3.34-1.72-3.34-5.2ZM784.33,36.94c0-2.42-.8-4.24-1.92-4.24s-1.96,1.46-2.04,4.24h3.96Z"/>
  <path class="st0" d="M787.12,32.08h.84v1.54c.4-.96,1.22-1.74,2.46-1.66v.9h-.04c-1.32,0-2.42.84-2.42,2.68v7.04h-.84v-10.5Z"/>
  <path class="st0" d="M792.09,32.08h.84v1.54c.36-.88.98-1.7,2.1-1.7s1.74.8,2.06,1.78c.38-.86,1.06-1.78,2.32-1.78,1.44,0,2.4,1.14,2.4,3.28v7.38h-.84v-7.3c0-1.74-.62-2.64-1.66-2.64s-1.94,1.1-1.94,2.8v7.14h-.84v-7.3c0-1.74-.62-2.64-1.66-2.64s-1.94,1.1-1.94,2.8v7.14h-.84v-10.5Z"/>
  <path class="st0" d="M803.78,37.52v-.18c0-3.64,1.34-5.42,2.88-5.42s2.74,1.86,2.74,5.14v.62h-4.78c.04,2.84,1.2,4.24,2.62,4.24.64,0,1.14-.16,1.82-.62l.1.86c-.74.42-1.22.56-2.04.56-1.76,0-3.34-1.72-3.34-5.2ZM808.58,36.94c0-2.42-.8-4.24-1.92-4.24s-1.96,1.46-2.04,4.24h3.96Z"/>
  <path class="st0" d="M811.37,32.08h.84v1.54c.36-.88,1-1.7,2.16-1.7,1.42,0,2.4,1.18,2.4,3.32v7.34h-.84v-7.26c0-1.74-.62-2.68-1.72-2.68s-2,1.14-2,2.84v7.1h-.84v-10.5Z"/>
  <path class="st0" d="M819.28,40.82v-7.96h-1v-.78h1v-2.96h.84v2.96h1.7v.78h-1.7v7.84c0,.92.42,1.16,1.1,1.16.2,0,.48-.04.64-.1v.78c-.2.08-.5.12-.72.12-1.14,0-1.86-.5-1.86-1.84Z"/>
  <path class="st0" d="M822.95,37.42v-.18c0-3.3,1.42-5.32,3-5.32s2.96,2.02,2.96,5.32v.18c0,3.3-1.4,5.32-2.98,5.32s-2.98-2.02-2.98-5.32ZM828.07,37.42v-.18c0-2.76-.96-4.54-2.14-4.54s-2.14,1.78-2.14,4.54v.18c0,2.76.96,4.54,2.14,4.54s2.14-1.78,2.14-4.54Z"/>
  <path class="st0" d="M834.33,37.52v-.38c0-3.34,1.3-5.22,2.74-5.22,1.06,0,1.78.98,2.2,2.18v-5.66h.84v14.14h-.84v-2.02c-.42,1.2-1.14,2.18-2.2,2.18-1.44,0-2.74-1.84-2.74-5.22ZM839.31,37.58v-.5c0-2.82-1.08-4.42-2.14-4.42s-2,1.62-2,4.5v.34c0,2.88.92,4.5,2,4.5s2.14-1.6,2.14-4.42Z"/>
  <path class="st0" d="M842.14,37.52v-.18c0-3.64,1.34-5.42,2.88-5.42s2.74,1.86,2.74,5.14v.62h-4.78c.04,2.84,1.2,4.24,2.62,4.24.64,0,1.14-.16,1.82-.62l.1.86c-.74.42-1.22.56-2.04.56-1.76,0-3.34-1.72-3.34-5.2ZM846.94,36.94c0-2.42-.8-4.24-1.92-4.24s-1.96,1.46-2.04,4.24h3.96Z"/>
  <path class="st0" d="M854.46,40.56v2.02h-.84v-14.14h.84v5.66c.42-1.2,1.14-2.18,2.2-2.18,1.44,0,2.74,1.84,2.74,5.22v.38c0,3.34-1.3,5.22-2.74,5.22-1.06,0-1.78-.98-2.2-2.18ZM858.56,37.5v-.34c0-2.88-.92-4.5-2-4.5s-2.14,1.6-2.14,4.42v.5c0,2.82,1.08,4.42,2.14,4.42s2-1.62,2-4.5Z"/>
  <path class="st0" d="M861.44,32.08h.84v1.54c.4-.96,1.22-1.74,2.46-1.66v.9h-.04c-1.32,0-2.42.84-2.42,2.68v7.04h-.84v-10.5Z"/>
  <path class="st0" d="M865.87,39.52v-.16c0-1.94,1-3.36,2.76-3.36.72,0,1.28.18,1.76.4v-1.32c0-1.46-.66-2.32-2-2.32-.74,0-1.32.14-1.94.48v-.82c.58-.28,1.24-.46,1.98-.46.84,0,1.52.24,2.04.76.44.44.76,1.24.76,2.26v7.6h-.84v-1.52c-.42,1.04-1.1,1.7-2.12,1.7-1.42,0-2.4-1.38-2.4-3.24ZM870.39,39.3v-2.1c-.56-.26-1.1-.42-1.72-.42-1.3,0-1.96,1.08-1.96,2.54v.16c0,1.42.58,2.54,1.68,2.54,1.24,0,2-1.34,2-2.72Z"/>
  <path class="st0" d="M873.57,28.44h.92v1.4h-.92v-1.4ZM873.61,32.08h.84v10.5h-.84v-10.5Z"/>
  <path class="st0" d="M876.87,32.08h.84v1.54c.36-.88,1-1.7,2.16-1.7,1.42,0,2.4,1.18,2.4,3.32v7.34h-.84v-7.26c0-1.74-.62-2.68-1.72-2.68s-2,1.14-2,2.84v7.1h-.84v-10.5Z"/>
  <path class="st0" d="M884,42.2v-.88c.72.38,1.46.6,2.14.6.88,0,1.6-.58,1.6-1.56v-.04c0-.74-.42-1.48-1.66-2.66-1.56-1.48-2.06-2.3-2.06-3.36v-.04c0-1.46,1.14-2.3,2.38-2.3.7,0,1.18.1,1.74.34v.88c-.6-.3-1.16-.44-1.78-.44-.86,0-1.5.56-1.5,1.48v.04c0,.76.4,1.34,1.66,2.58,1.48,1.46,2.06,2.32,2.06,3.44v.04c0,1.48-1.2,2.38-2.48,2.38-.82,0-1.42-.18-2.1-.5Z"/>
  <path class="st0" d="M890.78,40.82v-7.96h-1v-.78h1v-2.96h.84v2.96h1.7v.78h-1.7v7.84c0,.92.42,1.16,1.1,1.16.2,0,.48-.04.64-.1v.78c-.2.08-.5.12-.72.12-1.14,0-1.86-.5-1.86-1.84Z"/>
  <path class="st0" d="M894.46,37.42v-.18c0-3.3,1.42-5.32,3-5.32s2.96,2.02,2.96,5.32v.18c0,3.3-1.4,5.32-2.98,5.32s-2.98-2.02-2.98-5.32ZM899.58,37.42v-.18c0-2.76-.96-4.54-2.14-4.54s-2.14,1.78-2.14,4.54v.18c0,2.76.96,4.54,2.14,4.54s2.14-1.78,2.14-4.54Z"/>
  <path class="st0" d="M902.42,32.08h.84v1.54c.4-.96,1.22-1.74,2.46-1.66v.9h-.04c-1.32,0-2.42.84-2.42,2.68v7.04h-.84v-10.5Z"/>
  <path class="st0" d="M907.39,32.08h.84v1.54c.36-.88.98-1.7,2.1-1.7s1.74.8,2.06,1.78c.38-.86,1.06-1.78,2.32-1.78,1.44,0,2.4,1.14,2.4,3.28v7.38h-.84v-7.3c0-1.74-.62-2.64-1.66-2.64s-1.94,1.1-1.94,2.8v7.14h-.84v-7.3c0-1.74-.62-2.64-1.66-2.64s-1.94,1.1-1.94,2.8v7.14h-.84v-10.5Z"/>
  <path class="st0" d="M918.85,42.2v-.88c.72.38,1.46.6,2.14.6.88,0,1.6-.58,1.6-1.56v-.04c0-.74-.42-1.48-1.66-2.66-1.56-1.48-2.06-2.3-2.06-3.36v-.04c0-1.46,1.14-2.3,2.38-2.3.7,0,1.18.1,1.74.34v.88c-.6-.3-1.16-.44-1.78-.44-.86,0-1.5.56-1.5,1.48v.04c0,.76.4,1.34,1.66,2.58,1.48,1.46,2.06,2.32,2.06,3.44v.04c0,1.48-1.2,2.38-2.48,2.38-.82,0-1.42-.18-2.1-.5Z"/>
  <path class="st0" d="M924.84,44.14c.78-.34,1.08-.8,1.02-1.56h-.54v-1.64h1.24v1.42c0,1.24-.38,1.76-1.48,2.28l-.24-.5Z"/>
  <path class="st0" d="M932.18,37.52v-.18c0-3.64,1.34-5.42,2.88-5.42s2.74,1.86,2.74,5.14v.62h-4.78c.04,2.84,1.2,4.24,2.62,4.24.64,0,1.14-.16,1.82-.62l.1.86c-.74.42-1.22.56-2.04.56-1.76,0-3.34-1.72-3.34-5.2ZM936.98,36.94c0-2.42-.8-4.24-1.92-4.24s-1.96,1.46-2.04,4.24h3.96Z"/>
  <path class="st0" d="M939.29,42.2v-.88c.72.38,1.46.6,2.14.6.88,0,1.6-.58,1.6-1.56v-.04c0-.74-.42-1.48-1.66-2.66-1.56-1.48-2.06-2.3-2.06-3.36v-.04c0-1.46,1.14-2.3,2.38-2.3.7,0,1.18.1,1.74.34v.88c-.6-.3-1.16-.44-1.78-.44-.86,0-1.5.56-1.5,1.48v.04c0,.76.4,1.34,1.66,2.58,1.48,1.46,2.06,2.32,2.06,3.44v.04c0,1.48-1.2,2.38-2.48,2.38-.82,0-1.42-.18-2.1-.5Z"/>
  <path class="st0" d="M945.32,42.2v-.88c.72.38,1.46.6,2.14.6.88,0,1.6-.58,1.6-1.56v-.04c0-.74-.42-1.48-1.66-2.66-1.56-1.48-2.06-2.3-2.06-3.36v-.04c0-1.46,1.14-2.3,2.38-2.3.7,0,1.18.1,1.74.34v.88c-.6-.3-1.16-.44-1.78-.44-.86,0-1.5.56-1.5,1.48v.04c0,.76.4,1.34,1.66,2.58,1.48,1.46,2.06,2.32,2.06,3.44v.04c0,1.48-1.2,2.38-2.48,2.38-.82,0-1.42-.18-2.1-.5Z"/>
  <path class="st0" d="M951.34,37.52v-.18c0-3.64,1.34-5.42,2.88-5.42s2.74,1.86,2.74,5.14v.62h-4.78c.04,2.84,1.2,4.24,2.62,4.24.64,0,1.14-.16,1.82-.62l.1.86c-.74.42-1.22.56-2.04.56-1.76,0-3.34-1.72-3.34-5.2ZM956.14,36.94c0-2.42-.8-4.24-1.92-4.24s-1.96,1.46-2.04,4.24h3.96ZM953.88,28.52h.68l1.34,2.44h-.74l-.96-1.5-.96,1.5h-.7l1.34-2.44Z"/>
  <path class="st0" d="M958.93,32.08h.84v1.54c.36-.88,1-1.7,2.16-1.7,1.42,0,2.4,1.18,2.4,3.32v7.34h-.84v-7.26c0-1.74-.62-2.68-1.72-2.68s-2,1.14-2,2.84v7.1h-.84v-10.5Z"/>
  <path class="st0" d="M966.26,37.46v-.2c0-3.64,1.6-5.32,3.2-5.32.52,0,.96.16,1.26.36v.92c-.36-.28-.78-.48-1.28-.48-1.08,0-2.34,1.38-2.34,4.48v.28c0,3.16,1.22,4.42,2.42,4.42.44,0,.84-.18,1.2-.48v.88c-.34.24-.74.4-1.26.4-1.64,0-3.2-1.6-3.2-5.26Z"/>
  <path class="st0" d="M972.51,28.44h.92v1.4h-.92v-1.4ZM972.55,32.08h.84v10.5h-.84v-10.5Z"/>
  <path class="st0" d="M975.23,39.52v-.16c0-1.94,1-3.36,2.76-3.36.72,0,1.28.18,1.76.4v-1.32c0-1.46-.66-2.32-2-2.32-.74,0-1.32.14-1.94.48v-.82c.58-.28,1.24-.46,1.98-.46.84,0,1.52.24,2.04.76.44.44.76,1.24.76,2.26v7.6h-.84v-1.52c-.42,1.04-1.1,1.7-2.12,1.7-1.42,0-2.4-1.38-2.4-3.24ZM979.75,39.3v-2.1c-.56-.26-1.1-.42-1.72-.42-1.3,0-1.96,1.08-1.96,2.54v.16c0,1.42.58,2.54,1.68,2.54,1.24,0,2-1.34,2-2.72Z"/>
  <path class="st0" d="M986.73,32.08h.84v1.54c.36-.88,1-1.7,2.16-1.7,1.42,0,2.4,1.18,2.4,3.32v7.34h-.84v-7.26c0-1.74-.62-2.68-1.72-2.68s-2,1.14-2,2.84v7.1h-.84v-10.5Z"/>
  <path class="st0" d="M993.89,39.52v-.16c0-1.94,1-3.36,2.76-3.36.72,0,1.28.18,1.76.4v-1.32c0-1.46-.66-2.32-2-2.32-.74,0-1.32.14-1.94.48v-.82c.58-.28,1.24-.46,1.98-.46.84,0,1.52.24,2.04.76.44.44.76,1.24.76,2.26v7.6h-.84v-1.52c-.42,1.04-1.1,1.7-2.12,1.7-1.42,0-2.4-1.38-2.4-3.24ZM998.41,39.3v-2.1c-.56-.26-1.1-.42-1.72-.42-1.3,0-1.96,1.08-1.96,2.54v.16c0,1.42.58,2.54,1.68,2.54,1.24,0,2-1.34,2-2.72Z"/>
  <path class="st0" d="M1001.76,40.82v-7.96h-1v-.78h1v-2.96h.84v2.96h1.7v.78h-1.7v7.84c0,.92.42,1.16,1.1,1.16.2,0,.48-.04.64-.1v.78c-.2.08-.5.12-.72.12-1.14,0-1.86-.5-1.86-1.84Z"/>
  <path class="st0" d="M1006.06,39.42v-7.34h.84v7.26c0,1.74.62,2.68,1.72,2.68s2-1.14,2-2.84v-7.1h.84v10.5h-.84v-1.54c-.36.88-1,1.7-2.16,1.7-1.42,0-2.4-1.18-2.4-3.32Z"/>
  <path class="st0" d="M1013.83,32.08h.84v1.54c.4-.96,1.22-1.74,2.46-1.66v.9h-.04c-1.32,0-2.42.84-2.42,2.68v7.04h-.84v-10.5Z"/>
  <path class="st0" d="M1018.27,39.52v-.16c0-1.94,1-3.36,2.76-3.36.72,0,1.28.18,1.76.4v-1.32c0-1.46-.66-2.32-2-2.32-.74,0-1.32.14-1.94.48v-.82c.58-.28,1.24-.46,1.98-.46.84,0,1.52.24,2.04.76.44.44.76,1.24.76,2.26v7.6h-.84v-1.52c-.42,1.04-1.1,1.7-2.12,1.7-1.42,0-2.4-1.38-2.4-3.24ZM1022.79,39.3v-2.1c-.56-.26-1.1-.42-1.72-.42-1.3,0-1.96,1.08-1.96,2.54v.16c0,1.42.58,2.54,1.68,2.54,1.24,0,2-1.34,2-2.72Z"/>
  <path class="st0" d="M1026.02,28.44h.84v14.14h-.84v-14.14Z"/>
  <path class="st0" d="M1032.82,37.52v-.38c0-3.34,1.3-5.22,2.74-5.22,1.06,0,1.78.98,2.2,2.18v-5.66h.84v14.14h-.84v-2.02c-.42,1.2-1.14,2.18-2.2,2.18-1.44,0-2.74-1.84-2.74-5.22ZM1037.8,37.58v-.5c0-2.82-1.08-4.42-2.14-4.42s-2,1.62-2,4.5v.34c0,2.88.92,4.5,2,4.5s2.14-1.6,2.14-4.42Z"/>
  <path class="st0" d="M1040.62,37.52v-.18c0-3.64,1.34-5.42,2.88-5.42s2.74,1.86,2.74,5.14v.62h-4.78c.04,2.84,1.2,4.24,2.62,4.24.64,0,1.14-.16,1.82-.62l.1.86c-.74.42-1.22.56-2.04.56-1.76,0-3.34-1.72-3.34-5.2ZM1045.42,36.94c0-2.42-.8-4.24-1.92-4.24s-1.96,1.46-2.04,4.24h3.96Z"/>
  <path class="st0" d="M1051.68,37.42v-.18c0-3.3,1.42-5.32,3-5.32s2.96,2.02,2.96,5.32v.18c0,3.3-1.4,5.32-2.98,5.32s-2.98-2.02-2.98-5.32ZM1056.8,37.42v-.18c0-2.76-.96-4.54-2.14-4.54s-2.14,1.78-2.14,4.54v.18c0,2.76.96,4.54,2.14,4.54s2.14-1.78,2.14-4.54Z"/>
  <path class="st0" d="M1059.64,32.08h.84v1.54c.4-.96,1.22-1.74,2.46-1.66v.9h-.04c-1.32,0-2.42.84-2.42,2.68v7.04h-.84v-10.5Z"/>
  <path class="st0" d="M1064.63,28.44h.92v1.4h-.92v-1.4ZM1064.67,32.08h.84v10.5h-.84v-10.5Z"/>
  <path class="st0" d="M1067.97,44.8v-.86c.76.3,1.66.5,2.34.5,1.42,0,2.16-.68,2.16-2.12v-2.48c-.42,1.2-1.14,2.18-2.2,2.18-1.4,0-2.74-1.74-2.74-4.96v-.18c0-3.18,1.34-4.96,2.74-4.96,1.06,0,1.78.98,2.2,2.18v-2.02h.84v10.2c0,.96-.26,1.68-.74,2.16-.52.52-1.3.78-2.3.78-.72,0-1.58-.16-2.3-.42ZM1072.51,37.06v-.18c0-2.68-1.12-4.22-2.14-4.22s-2,1.5-2,4.24v.14c0,2.74.96,4.24,2,4.24s2.14-1.54,2.14-4.22Z"/>
  <path class="st0" d="M1075.71,28.44h.92v1.4h-.92v-1.4ZM1075.75,32.08h.84v10.5h-.84v-10.5Z"/>
  <path class="st0" d="M1079,32.08h.84v1.54c.36-.88,1-1.7,2.16-1.7,1.42,0,2.4,1.18,2.4,3.32v7.34h-.84v-7.26c0-1.74-.62-2.68-1.72-2.68s-2,1.14-2,2.84v7.1h-.84v-10.5Z"/>
  <path class="st0" d="M1086.16,39.52v-.16c0-1.94,1-3.36,2.76-3.36.72,0,1.28.18,1.76.4v-1.32c0-1.46-.66-2.32-2-2.32-.74,0-1.32.14-1.94.48v-.82c.58-.28,1.24-.46,1.98-.46.84,0,1.52.24,2.04.76.44.44.76,1.24.76,2.26v7.6h-.84v-1.52c-.42,1.04-1.1,1.7-2.12,1.7-1.42,0-2.4-1.38-2.4-3.24ZM1090.69,39.3v-2.1c-.56-.26-1.1-.42-1.72-.42-1.3,0-1.96,1.08-1.96,2.54v.16c0,1.42.58,2.54,1.68,2.54,1.24,0,2-1.34,2-2.72Z"/>
  <path class="st0" d="M1093.91,28.44h.84v14.14h-.84v-14.14Z"/>
  <path class="st0" d="M1097.18,28.44h.92v1.4h-.92v-1.4ZM1097.22,32.08h.84v10.5h-.84v-10.5Z"/>
  <path class="st0" d="M1100.14,37.52v-.38c0-3.34,1.3-5.22,2.74-5.22,1.06,0,1.78.98,2.2,2.18v-5.66h.84v14.14h-.84v-2.02c-.42,1.2-1.14,2.18-2.2,2.18-1.44,0-2.74-1.84-2.74-5.22ZM1105.12,37.58v-.5c0-2.82-1.08-4.42-2.14-4.42s-2,1.62-2,4.5v.34c0,2.88.92,4.5,2,4.5s2.14-1.6,2.14-4.42Z"/>
  <path class="st0" d="M1107.72,39.52v-.16c0-1.94,1-3.36,2.76-3.36.72,0,1.28.18,1.76.4v-1.32c0-1.46-.66-2.32-2-2.32-.74,0-1.32.14-1.94.48v-.82c.58-.28,1.24-.46,1.98-.46.84,0,1.52.24,2.04.76.44.44.76,1.24.76,2.26v7.6h-.84v-1.52c-.42,1.04-1.1,1.7-2.12,1.7-1.42,0-2.4-1.38-2.4-3.24ZM1112.24,39.3v-2.1c-.56-.26-1.1-.42-1.72-.42-1.3,0-1.96,1.08-1.96,2.54v.16c0,1.42.58,2.54,1.68,2.54,1.24,0,2-1.34,2-2.72Z"/>
  <path class="st0" d="M1115.06,37.52v-.38c0-3.34,1.3-5.22,2.74-5.22,1.06,0,1.78.98,2.2,2.18v-5.66h.84v14.14h-.84v-2.02c-.42,1.2-1.14,2.18-2.2,2.18-1.44,0-2.74-1.84-2.74-5.22ZM1120.04,37.58v-.5c0-2.82-1.08-4.42-2.14-4.42s-2,1.62-2,4.5v.34c0,2.88.92,4.5,2,4.5s2.14-1.6,2.14-4.42Z"/>
  <path class="st0" d="M1122.86,37.52v-.18c0-3.64,1.34-5.42,2.88-5.42s2.74,1.86,2.74,5.14v.62h-4.78c.04,2.84,1.2,4.24,2.62,4.24.64,0,1.14-.16,1.82-.62l.1.86c-.74.42-1.22.56-2.04.56-1.76,0-3.34-1.72-3.34-5.2ZM1127.66,36.94c0-2.42-.8-4.24-1.92-4.24s-1.96,1.46-2.04,4.24h3.96Z"/>
  <path class="st0" d="M1129.71,44.14c.78-.34,1.08-.8,1.02-1.56h-.54v-1.64h1.24v1.42c0,1.24-.38,1.76-1.48,2.28l-.24-.5Z"/>
  <path class="st0" d="M1137.47,32.08h.84v2.02c.42-1.2,1.14-2.18,2.2-2.18,1.44,0,2.74,1.84,2.74,5.22v.38c0,3.34-1.3,5.22-2.74,5.22-1.06,0-1.78-.98-2.2-2.18v4.62h-.84v-13.1ZM1142.41,37.5v-.34c0-2.88-.92-4.5-2-4.5s-2.14,1.6-2.14,4.42v.5c0,2.82,1.08,4.42,2.14,4.42s2-1.62,2-4.5Z"/>
  <path class="st0" d="M1145.3,28.44h.92v1.4h-.92v-1.4ZM1145.34,32.08h.84v10.5h-.84v-10.5Z"/>
  <path class="st0" d="M1148.94,40.82v-7.96h-1v-.78h1v-2.96h.84v2.96h1.7v.78h-1.7v7.84c0,.92.42,1.16,1.1,1.16.2,0,.48-.04.64-.1v.78c-.2.08-.5.12-.72.12-1.14,0-1.86-.5-1.86-1.84Z"/>
  <path class="st0" d="M1152.85,39.52v-.16c0-1.94,1-3.36,2.76-3.36.72,0,1.28.18,1.76.4v-1.32c0-1.46-.66-2.32-2-2.32-.74,0-1.32.14-1.94.48v-.82c.58-.28,1.24-.46,1.98-.46.84,0,1.52.24,2.04.76.44.44.76,1.24.76,2.26v7.6h-.84v-1.52c-.42,1.04-1.1,1.7-2.12,1.7-1.42,0-2.4-1.38-2.4-3.24ZM1157.37,39.3v-2.1c-.56-.26-1.1-.42-1.72-.42-1.3,0-1.96,1.08-1.96,2.54v.16c0,1.42.58,2.54,1.68,2.54,1.24,0,2-1.34,2-2.72Z"/>
  <path class="st0" d="M1160.19,37.52v-.38c0-3.34,1.3-5.22,2.74-5.22,1.06,0,1.78.98,2.2,2.18v-5.66h.84v14.14h-.84v-2.02c-.42,1.2-1.14,2.18-2.2,2.18-1.44,0-2.74-1.84-2.74-5.22ZM1165.17,37.58v-.5c0-2.82-1.08-4.42-2.14-4.42s-2,1.62-2,4.5v.34c0,2.88.92,4.5,2,4.5s2.14-1.6,2.14-4.42Z"/>
  <path class="st0" d="M1167.77,39.52v-.16c0-1.94,1-3.36,2.76-3.36.72,0,1.28.18,1.76.4v-1.32c0-1.46-.66-2.32-2-2.32-.74,0-1.32.14-1.94.48v-.82c.58-.28,1.24-.46,1.98-.46.84,0,1.52.24,2.04.76.44.44.76,1.24.76,2.26v7.6h-.84v-1.52c-.42,1.04-1.1,1.7-2.12,1.7-1.42,0-2.4-1.38-2.4-3.24ZM1172.29,39.3v-2.1c-.56-.26-1.1-.42-1.72-.42-1.3,0-1.96,1.08-1.96,2.54v.16c0,1.42.58,2.54,1.68,2.54,1.24,0,2-1.34,2-2.72Z"/>
  <path class="st0" d="M1174.86,42.2v-.88c.72.38,1.46.6,2.14.6.88,0,1.6-.58,1.6-1.56v-.04c0-.74-.42-1.48-1.66-2.66-1.56-1.48-2.06-2.3-2.06-3.36v-.04c0-1.46,1.14-2.3,2.38-2.3.7,0,1.18.1,1.74.34v.88c-.6-.3-1.16-.44-1.78-.44-.86,0-1.5.56-1.5,1.48v.04c0,.76.4,1.34,1.66,2.58,1.48,1.46,2.06,2.32,2.06,3.44v.04c0,1.48-1.2,2.38-2.48,2.38-.82,0-1.42-.18-2.1-.5Z"/>
  <path class="st0" d="M1184.72,37.52v-.38c0-3.34,1.3-5.22,2.74-5.22,1.06,0,1.78.98,2.2,2.18v-5.66h.84v14.14h-.84v-2.02c-.42,1.2-1.14,2.18-2.2,2.18-1.44,0-2.74-1.84-2.74-5.22ZM1189.7,37.58v-.5c0-2.82-1.08-4.42-2.14-4.42s-2,1.62-2,4.5v.34c0,2.88.92,4.5,2,4.5s2.14-1.6,2.14-4.42Z"/>
  <path class="st0" d="M1192.52,37.52v-.18c0-3.64,1.34-5.42,2.88-5.42s2.74,1.86,2.74,5.14v.62h-4.78c.04,2.84,1.2,4.24,2.62,4.24.64,0,1.14-.16,1.82-.62l.1.86c-.74.42-1.22.56-2.04.56-1.76,0-3.34-1.72-3.34-5.2ZM1197.32,36.94c0-2.42-.8-4.24-1.92-4.24s-1.96,1.46-2.04,4.24h3.96Z"/>
  <path class="st0" d="M1203.58,37.46v-.2c0-3.64,1.6-5.32,3.2-5.32.52,0,.96.16,1.26.36v.92c-.36-.28-.78-.48-1.28-.48-1.08,0-2.34,1.38-2.34,4.48v.28c0,3.16,1.22,4.42,2.42,4.42.44,0,.84-.18,1.2-.48v.88c-.34.24-.74.4-1.26.4-1.64,0-3.2-1.6-3.2-5.26Z"/>
  <path class="st0" d="M1209.81,32.08h.84v1.54c.4-.96,1.22-1.74,2.46-1.66v.9h-.04c-1.32,0-2.42.84-2.42,2.68v7.04h-.84v-10.5Z"/>
  <path class="st0" d="M1214.84,32.08h.84v10.5h-.84v-10.5ZM1216.18,28.56l.94.5-1.64,2h-.58l1.28-2.5Z"/>
  <path class="st0" d="M1218.65,40.82v-7.96h-1v-.78h1v-2.96h.84v2.96h1.7v.78h-1.7v7.84c0,.92.42,1.16,1.1,1.16.2,0,.48-.04.64-.1v.78c-.2.08-.5.12-.72.12-1.14,0-1.86-.5-1.86-1.84Z"/>
  <path class="st0" d="M1223.03,28.44h.92v1.4h-.92v-1.4ZM1223.07,32.08h.84v10.5h-.84v-10.5Z"/>
  <path class="st0" d="M1225.94,37.46v-.2c0-3.64,1.6-5.32,3.2-5.32.52,0,.96.16,1.26.36v.92c-.36-.28-.78-.48-1.28-.48-1.08,0-2.34,1.38-2.34,4.48v.28c0,3.16,1.22,4.42,2.42,4.42.44,0,.84-.18,1.2-.48v.88c-.34.24-.74.4-1.26.4-1.64,0-3.2-1.6-3.2-5.26Z"/>
  <path class="st0" d="M1231.77,39.52v-.16c0-1.94,1-3.36,2.76-3.36.72,0,1.28.18,1.76.4v-1.32c0-1.46-.66-2.32-2-2.32-.74,0-1.32.14-1.94.48v-.82c.58-.28,1.24-.46,1.98-.46.84,0,1.52.24,2.04.76.44.44.76,1.24.76,2.26v7.6h-.84v-1.52c-.42,1.04-1.1,1.7-2.12,1.7-1.42,0-2.4-1.38-2.4-3.24ZM1236.3,39.3v-2.1c-.56-.26-1.1-.42-1.72-.42-1.3,0-1.96,1.08-1.96,2.54v.16c0,1.42.58,2.54,1.68,2.54,1.24,0,2-1.34,2-2.72Z"/>
  <path class="st0" d="M1242.85,37.46v-.2c0-3.64,1.6-5.32,3.2-5.32.52,0,.96.16,1.26.36v.92c-.36-.28-.78-.48-1.28-.48-1.08,0-2.34,1.38-2.34,4.48v.28c0,3.16,1.22,4.42,2.42,4.42.44,0,.84-.18,1.2-.48v.88c-.34.24-.74.4-1.26.4-1.64,0-3.2-1.6-3.2-5.26Z"/>
  <path class="st0" d="M1248.46,37.42v-.18c0-3.3,1.42-5.32,3-5.32s2.96,2.02,2.96,5.32v.18c0,3.3-1.4,5.32-2.98,5.32s-2.98-2.02-2.98-5.32ZM1253.58,37.42v-.18c0-2.76-.96-4.54-2.14-4.54s-2.14,1.78-2.14,4.54v.18c0,2.76.96,4.54,2.14,4.54s2.14-1.78,2.14-4.54Z"/>
  <path class="st0" d="M1256.42,32.08h.84v1.54c.36-.88,1-1.7,2.16-1.7,1.42,0,2.4,1.18,2.4,3.32v7.34h-.84v-7.26c0-1.74-.62-2.68-1.72-2.68s-2,1.14-2,2.84v7.1h-.84v-10.5Z"/>
  <path class="st0" d="M1263.55,42.2v-.88c.72.38,1.46.6,2.14.6.88,0,1.6-.58,1.6-1.56v-.04c0-.74-.42-1.48-1.66-2.66-1.56-1.48-2.06-2.3-2.06-3.36v-.04c0-1.46,1.14-2.3,2.38-2.3.7,0,1.18.1,1.74.34v.88c-.6-.3-1.16-.44-1.78-.44-.86,0-1.5.56-1.5,1.48v.04c0,.76.4,1.34,1.66,2.58,1.48,1.46,2.06,2.32,2.06,3.44v.04c0,1.48-1.2,2.38-2.48,2.38-.82,0-1.42-.18-2.1-.5Z"/>
  <path class="st0" d="M1270.34,40.82v-7.96h-1v-.78h1v-2.96h.84v2.96h1.7v.78h-1.7v7.84c0,.92.42,1.16,1.1,1.16.2,0,.48-.04.64-.1v.78c-.2.08-.5.12-.72.12-1.14,0-1.86-.5-1.86-1.84Z"/>
  <path class="st0" d="M1274.7,32.08h.84v1.54c.4-.96,1.22-1.74,2.46-1.66v.9h-.04c-1.32,0-2.42.84-2.42,2.68v7.04h-.84v-10.5Z"/>
  <path class="st0" d="M1279.63,39.42v-7.34h.84v7.26c0,1.74.62,2.68,1.72,2.68s2-1.14,2-2.84v-7.1h.84v10.5h-.84v-1.54c-.36.88-1,1.7-2.16,1.7-1.42,0-2.4-1.18-2.4-3.32Z"/>
  <path class="st0" d="M1287.74,40.82v-7.96h-1v-.78h1v-2.96h.84v2.96h1.7v.78h-1.7v7.84c0,.92.42,1.16,1.1,1.16.2,0,.48-.04.64-.1v.78c-.2.08-.5.12-.72.12-1.14,0-1.86-.5-1.86-1.84Z"/>
  <path class="st0" d="M1292.12,28.44h.92v1.4h-.92v-1.4ZM1292.16,32.08h.84v10.5h-.84v-10.5Z"/>
  <path class="st0" d="M1294.83,32.08h.86l2.08,9.08,2.12-9.08h.82l-2.58,10.56h-.72l-2.58-10.56Z"/>
  <path class="st0" d="M1301.96,39.52v-.16c0-1.94,1-3.36,2.76-3.36.72,0,1.28.18,1.76.4v-1.32c0-1.46-.66-2.32-2-2.32-.74,0-1.32.14-1.94.48v-.82c.58-.28,1.24-.46,1.98-.46.84,0,1.52.24,2.04.76.44.44.76,1.24.76,2.26v7.6h-.84v-1.52c-.42,1.04-1.1,1.7-2.12,1.7-1.42,0-2.4-1.38-2.4-3.24ZM1306.48,39.3v-2.1c-.56-.26-1.1-.42-1.72-.42-1.3,0-1.96,1.08-1.96,2.54v.16c0,1.42.58,2.54,1.68,2.54,1.24,0,2-1.34,2-2.72Z"/>
  <path class="st0" d="M1309.12,44.14c.78-.34,1.08-.8,1.02-1.56h-.54v-1.64h1.24v1.42c0,1.24-.38,1.76-1.48,2.28l-.24-.5Z"/>
  <path class="st0" d="M1316.32,42.2v-.88c.72.38,1.46.6,2.14.6.88,0,1.6-.58,1.6-1.56v-.04c0-.74-.42-1.48-1.66-2.66-1.56-1.48-2.06-2.3-2.06-3.36v-.04c0-1.46,1.14-2.3,2.38-2.3.7,0,1.18.1,1.74.34v.88c-.6-.3-1.16-.44-1.78-.44-.86,0-1.5.56-1.5,1.48v.04c0,.76.4,1.34,1.66,2.58,1.48,1.46,2.06,2.32,2.06,3.44v.04c0,1.48-1.2,2.38-2.48,2.38-.82,0-1.42-.18-2.1-.5Z"/>
  <path class="st0" d="M1322.41,39.52v-.16c0-1.94,1-3.36,2.76-3.36.72,0,1.28.18,1.76.4v-1.32c0-1.46-.66-2.32-2-2.32-.74,0-1.32.14-1.94.48v-.82c.58-.28,1.24-.46,1.98-.46.84,0,1.52.24,2.04.76.44.44.76,1.24.76,2.26v7.6h-.84v-1.52c-.42,1.04-1.1,1.7-2.12,1.7-1.42,0-2.4-1.38-2.4-3.24ZM1326.93,39.3v-2.1c-.56-.26-1.1-.42-1.72-.42-1.3,0-1.96,1.08-1.96,2.54v.16c0,1.42.58,2.54,1.68,2.54,1.24,0,2-1.34,2-2.72Z"/>
  <path class="st0" d="M1330.16,28.44h.84v14.14h-.84v-14.14Z"/>
  <path class="st0" d="M1336.96,37.52v-.38c0-3.34,1.3-5.22,2.74-5.22,1.06,0,1.78.98,2.2,2.18v-5.66h.84v14.14h-.84v-2.02c-.42,1.2-1.14,2.18-2.2,2.18-1.44,0-2.74-1.84-2.74-5.22ZM1341.94,37.58v-.5c0-2.82-1.08-4.42-2.14-4.42s-2,1.62-2,4.5v.34c0,2.88.92,4.5,2,4.5s2.14-1.6,2.14-4.42Z"/>
  <path class="st0" d="M1344.76,37.52v-.18c0-3.64,1.34-5.42,2.88-5.42s2.74,1.86,2.74,5.14v.62h-4.78c.04,2.84,1.2,4.24,2.62,4.24.64,0,1.14-.16,1.82-.62l.1.86c-.74.42-1.22.56-2.04.56-1.76,0-3.34-1.72-3.34-5.2ZM1349.56,36.94c0-2.42-.8-4.24-1.92-4.24s-1.96,1.46-2.04,4.24h3.96Z"/>
  <path class="st0" d="M1355.82,37.42v-.18c0-3.3,1.42-5.32,3-5.32s2.96,2.02,2.96,5.32v.18c0,3.3-1.4,5.32-2.98,5.32s-2.98-2.02-2.98-5.32ZM1360.94,37.42v-.18c0-2.76-.96-4.54-2.14-4.54s-2.14,1.78-2.14,4.54v.18c0,2.76.96,4.54,2.14,4.54s2.14-1.78,2.14-4.54Z"/>
  <path class="st0" d="M1363.71,39.42v-7.34h.84v7.26c0,1.74.62,2.68,1.72,2.68s2-1.14,2-2.84v-7.1h.84v10.5h-.84v-1.54c-.36.88-1,1.7-2.16,1.7-1.42,0-2.4-1.18-2.4-3.32Z"/>
  <path class="st0" d="M1370.88,42.2v-.88c.72.38,1.46.6,2.14.6.88,0,1.6-.58,1.6-1.56v-.04c0-.74-.42-1.48-1.66-2.66-1.56-1.48-2.06-2.3-2.06-3.36v-.04c0-1.46,1.14-2.3,2.38-2.3.7,0,1.18.1,1.74.34v.88c-.6-.3-1.16-.44-1.78-.44-.86,0-1.5.56-1.5,1.48v.04c0,.76.4,1.34,1.66,2.58,1.48,1.46,2.06,2.32,2.06,3.44v.04c0,1.48-1.2,2.38-2.48,2.38-.82,0-1.42-.18-2.1-.5Z"/>
  <path class="st0" d="M1376.97,39.52v-.16c0-1.94,1-3.36,2.76-3.36.72,0,1.28.18,1.76.4v-1.32c0-1.46-.66-2.32-2-2.32-.74,0-1.32.14-1.94.48v-.82c.58-.28,1.24-.46,1.98-.46.84,0,1.52.24,2.04.76.44.44.76,1.24.76,2.26v7.6h-.84v-1.52c-.42,1.04-1.1,1.7-2.12,1.7-1.42,0-2.4-1.38-2.4-3.24ZM1381.5,39.3v-2.1c-.56-.26-1.1-.42-1.72-.42-1.3,0-1.96,1.08-1.96,2.54v.16c0,1.42.58,2.54,1.68,2.54,1.24,0,2-1.34,2-2.72Z"/>
  <path class="st0" d="M1384.31,37.52v-.38c0-3.34,1.3-5.22,2.74-5.22,1.06,0,1.78.98,2.2,2.18v-5.66h.84v14.14h-.84v-2.02c-.42,1.2-1.14,2.18-2.2,2.18-1.44,0-2.74-1.84-2.74-5.22ZM1389.29,37.58v-.5c0-2.82-1.08-4.42-2.14-4.42s-2,1.62-2,4.5v.34c0,2.88.92,4.5,2,4.5s2.14-1.6,2.14-4.42Z"/>
  <path class="st0" d="M1392.49,28.44h.92v1.4h-.92v-1.4ZM1392.53,32.08h.84v10.5h-.84v-10.5Z"/>
  <path class="st0" d="M1395.21,39.52v-.16c0-1.94,1-3.36,2.76-3.36.72,0,1.28.18,1.76.4v-1.32c0-1.46-.66-2.32-2-2.32-.74,0-1.32.14-1.94.48v-.82c.58-.28,1.24-.46,1.98-.46.84,0,1.52.24,2.04.76.44.44.76,1.24.76,2.26v7.6h-.84v-1.52c-.42,1.04-1.1,1.7-2.12,1.7-1.42,0-2.4-1.38-2.4-3.24ZM1399.73,39.3v-2.1c-.56-.26-1.1-.42-1.72-.42-1.3,0-1.96,1.08-1.96,2.54v.16c0,1.42.58,2.54,1.68,2.54,1.24,0,2-1.34,2-2.72Z"/>
  <path class="st0" d="M1406.29,37.52v-.18c0-3.64,1.34-5.42,2.88-5.42s2.74,1.86,2.74,5.14v.62h-4.78c.04,2.84,1.2,4.24,2.62,4.24.64,0,1.14-.16,1.82-.62l.1.86c-.74.42-1.22.56-2.04.56-1.76,0-3.34-1.72-3.34-5.2ZM1411.09,36.94c0-2.42-.8-4.24-1.92-4.24s-1.96,1.46-2.04,4.24h3.96Z"/>
  <path class="st0" d="M1418.53,40.56c-.42,1.2-1.14,2.18-2.2,2.18-1.44,0-2.74-1.84-2.74-5.22v-.38c0-3.34,1.3-5.22,2.74-5.22,1.06,0,1.78.98,2.2,2.18v-2.02h.84v13.1h-.84v-4.62ZM1418.57,37.58v-.5c0-2.82-1.08-4.42-2.14-4.42s-2,1.62-2,4.5v.34c0,2.88.92,4.5,2,4.5s2.14-1.6,2.14-4.42Z"/>
  <path class="st0" d="M1421.7,39.42v-7.34h.84v7.26c0,1.74.62,2.68,1.72,2.68s2-1.14,2-2.84v-7.1h.84v10.5h-.84v-1.54c-.36.88-1,1.7-2.16,1.7-1.42,0-2.4-1.18-2.4-3.32Z"/>
  <path class="st0" d="M1429.5,28.44h.92v1.4h-.92v-1.4ZM1429.54,32.08h.84v10.5h-.84v-10.5Z"/>
  <path class="st0" d="M1432.85,28.44h.84v14.14h-.84v-14.14Z"/>
  <path class="st0" d="M1436.13,28.44h.92v1.4h-.92v-1.4ZM1436.17,32.08h.84v10.5h-.84v-10.5Z"/>
  <path class="st0" d="M1440.27,40.56v2.02h-.84v-14.14h.84v5.66c.42-1.2,1.14-2.18,2.2-2.18,1.44,0,2.74,1.84,2.74,5.22v.38c0,3.34-1.3,5.22-2.74,5.22-1.06,0-1.78-.98-2.2-2.18ZM1444.37,37.5v-.34c0-2.88-.92-4.5-2-4.5s-2.14,1.6-2.14,4.42v.5c0,2.82,1.08,4.42,2.14,4.42s2-1.62,2-4.5Z"/>
  <path class="st0" d="M1447.25,32.08h.84v1.54c.4-.96,1.22-1.74,2.46-1.66v.9h-.04c-1.32,0-2.42.84-2.42,2.68v7.04h-.84v-10.5Z"/>
  <path class="st0" d="M1451.68,39.52v-.16c0-1.94,1-3.36,2.76-3.36.72,0,1.28.18,1.76.4v-1.32c0-1.46-.66-2.32-2-2.32-.74,0-1.32.14-1.94.48v-.82c.58-.28,1.24-.46,1.98-.46.84,0,1.52.24,2.04.76.44.44.76,1.24.76,2.26v7.6h-.84v-1.52c-.42,1.04-1.1,1.7-2.12,1.7-1.42,0-2.4-1.38-2.4-3.24ZM1456.2,39.3v-2.1c-.56-.26-1.1-.42-1.72-.42-1.3,0-1.96,1.08-1.96,2.54v.16c0,1.42.58,2.54,1.68,2.54,1.24,0,2-1.34,2-2.72Z"/>
  <path class="st0" d="M1459.02,37.52v-.38c0-3.34,1.3-5.22,2.74-5.22,1.06,0,1.78.98,2.2,2.18v-5.66h.84v14.14h-.84v-2.02c-.42,1.2-1.14,2.18-2.2,2.18-1.44,0-2.74-1.84-2.74-5.22ZM1464,37.58v-.5c0-2.82-1.08-4.42-2.14-4.42s-2,1.62-2,4.5v.34c0,2.88.92,4.5,2,4.5s2.14-1.6,2.14-4.42Z"/>
  <path class="st0" d="M1466.6,39.52v-.16c0-1.94,1-3.36,2.76-3.36.72,0,1.28.18,1.76.4v-1.32c0-1.46-.66-2.32-2-2.32-.74,0-1.32.14-1.94.48v-.82c.58-.28,1.24-.46,1.98-.46.84,0,1.52.24,2.04.76.44.44.76,1.24.76,2.26v7.6h-.84v-1.52c-.42,1.04-1.1,1.7-2.12,1.7-1.42,0-2.4-1.38-2.4-3.24ZM1471.12,39.3v-2.1c-.56-.26-1.1-.42-1.72-.42-1.3,0-1.96,1.08-1.96,2.54v.16c0,1.42.58,2.54,1.68,2.54,1.24,0,2-1.34,2-2.72Z"/>
  <path class="st0" d="M1474.24,40.94h1.24v1.64h-1.24v-1.64Z"/>
  <path class="st0" d="M1481.3,38.02c0-2.82.96-6.66,2.82-8.52.78-.78,1.54-1.04,2.26-1.04.6,0,1.14.18,1.54.44l-.18.96c-.38-.32-.88-.56-1.42-.56-.6,0-1.1.28-1.54.72-1.46,1.46-2.6,4.98-2.6,7.98,0,2.36.56,3.86,1.98,3.86.44,0,.86-.14,1.4-.46l-.18.92c-.3.2-.76.38-1.32.38-1.86,0-2.76-1.62-2.76-4.68Z"/>
  <path class="st0" d="M1487.16,39.18c0-2.56.92-5.2,2.14-6.42.6-.6,1.26-.84,1.84-.84,1.38,0,2.3,1.3,2.3,3.56,0,2.56-.92,5.2-2.14,6.42-.6.6-1.26.84-1.84.84-1.38,0-2.3-1.3-2.3-3.56ZM1490.72,41.38c1.08-1.08,1.88-3.74,1.88-5.94,0-1.74-.58-2.74-1.52-2.74-.44,0-.82.2-1.2.58-1.08,1.08-1.88,3.74-1.88,5.94,0,1.74.58,2.74,1.52,2.74.44,0,.82-.2,1.2-.58Z"/>
  <path class="st0" d="M1496.32,32.08h.84l-.3,1.54c.58-1,1.38-1.7,2.42-1.7,1.14,0,1.9.82,1.9,2.22,0,.4-.04.9-.22,1.82l-1.28,6.62h-.84l1.3-6.7c.18-.92.2-1.36.2-1.72,0-.98-.46-1.52-1.3-1.52-1.24,0-2.24,1.36-2.54,2.86l-1.38,7.08h-.84l2.04-10.5Z"/>
  <path class="st0" d="M1502.55,41.32c0-.32.1-.84.14-1.04l1.44-7.42h-1l.16-.78h1l.56-2.96h.84l-.56,2.96h1.7l-.16.78h-1.7l-1.52,7.84c-.04.2-.06.36-.06.48,0,.44.24.68.8.68.28,0,.64-.1.8-.2l-.14.78c-.2.12-.54.22-.86.22-.86,0-1.44-.44-1.44-1.34Z"/>
  <path class="st0" d="M1507.66,37.68c-.06.42-.08.82-.08,1.2,0,2.06.82,3.04,2.06,3.04.56,0,1.14-.2,1.74-.62l-.06.86c-.28.22-.98.56-1.74.56-1.6,0-2.82-1.18-2.82-3.84,0-2.3.86-4.82,2.14-6.1.54-.54,1.14-.86,1.8-.86,1.24,0,2.08,1.08,2.08,3.16,0,.58-.1,1.48-.34,2.6h-4.78ZM1507.78,36.94h3.98c.14-.66.2-1.26.2-1.92,0-1.4-.42-2.32-1.34-2.32-.4,0-.78.2-1.14.56-.8.8-1.4,2.22-1.7,3.68ZM1512.28,28.46l.88.52-2.02,1.98h-.64l1.78-2.5Z"/>
  <path class="st0" d="M1515.62,32.08h.84l-.3,1.54c.58-1,1.38-1.7,2.36-1.7s1.66.66,1.78,1.84c.76-1.24,1.66-1.84,2.66-1.84,1.08,0,1.84.82,1.84,2.22,0,.4-.04.9-.22,1.82l-1.28,6.62h-.84l1.3-6.7c.18-.92.2-1.36.2-1.72,0-.98-.46-1.52-1.24-1.52-1.08,0-2.16,1.24-2.44,2.64l-1.42,7.3h-.84l1.3-6.7c.18-.92.2-1.36.2-1.72,0-.98-.46-1.52-1.24-1.52-1.18,0-2.18,1.36-2.48,2.86l-1.38,7.08h-.84l2.04-10.5Z"/>
  <path class="st0" d="M1530.05,41.32c0-.32.1-.84.14-1.04l1.44-7.42h-1l.16-.78h1l.56-2.96h.84l-.56,2.96h1.7l-.16.78h-1.7l-1.52,7.84c-.04.2-.06.36-.06.48,0,.44.24.68.8.68.28,0,.64-.1.8-.2l-.14.78c-.2.12-.54.22-.86.22-.86,0-1.44-.44-1.44-1.34Z"/>
  <path class="st0" d="M1536.04,32.08h.84l-.3,1.54c.58-.96,1.42-1.74,2.78-1.66l-.18.9h-.08c-1.44,0-2.54.84-2.9,2.68l-1.36,7.04h-.84l2.04-10.5Z"/>
  <path class="st0" d="M1538.82,40.26c0-1.3.44-2.58,1.26-3.4.52-.52,1.22-.86,2.04-.86.72,0,1.36.2,1.9.52l.08-.44c.18-.92.22-1.28.22-1.66,0-.96-.44-1.66-1.78-1.66-.56,0-1.18.12-1.82.4l.16-.82c.58-.26,1.36-.38,1.82-.38,1.56,0,2.46.88,2.46,2.36,0,.44-.06.92-.24,1.84l-1.24,6.42h-.84l.28-1.42c-.52.88-1.22,1.6-2.26,1.6-1.24,0-2.04-.88-2.04-2.5ZM1543.52,39.1l.34-1.78c-.46-.36-1.22-.54-1.8-.54s-1.04.22-1.4.58c-.68.68-1,1.84-1,2.9,0,1.2.56,1.76,1.42,1.76,1.26,0,2.14-1.36,2.44-2.92Z"/>
  <path class="st0" d="M1546.67,44.38l1.4-1.8c-.94-.38-1.62-1.48-1.62-3.38,0-2.3.84-4.96,2.22-6.34.58-.58,1.26-.92,2-.92.54,0,1.1.2,1.42.5l-.18.9c-.3-.34-.72-.6-1.3-.6-.5,0-.96.24-1.36.64-1.22,1.22-1.96,3.84-1.96,5.62,0,2.18.8,2.92,1.72,2.92.46,0,.9-.18,1.32-.48l-.16.9c-.4.24-.84.38-1.3.38-.06,0-.12-.02-.18-.02l-1.14,2.08-.88-.4Z"/>
  <path class="st0" d="M1552.13,39.18c0-2.56.92-5.2,2.14-6.42.6-.6,1.26-.84,1.84-.84,1.38,0,2.3,1.3,2.3,3.56,0,2.56-.92,5.2-2.14,6.42-.6.6-1.26.84-1.84.84-1.38,0-2.3-1.3-2.3-3.56ZM1555.69,41.38c1.08-1.08,1.88-3.74,1.88-5.94,0-1.74-.58-2.74-1.52-2.74-.44,0-.82.2-1.2.58-1.08,1.08-1.88,3.74-1.88,5.94,0,1.74.58,2.74,1.52,2.74.44,0,.82-.2,1.2-.58Z"/>
  <path class="st0" d="M1558.56,41.86l.22-.88c.64.56,1.42.92,2.14.92.96,0,1.7-.6,1.7-1.76,0-.64-.3-1.34-1.14-2.5-1.02-1.42-1.36-2.22-1.36-3.16,0-1.34.84-2.52,2.52-2.52.84,0,1.54.34,1.96.66l-.2.88c-.52-.44-1.18-.74-1.8-.74-1.02,0-1.64.66-1.64,1.68,0,.58.22,1.24,1.1,2.48.98,1.36,1.4,2.22,1.4,3.16,0,1.5-.92,2.62-2.58,2.62-.82,0-1.58-.3-2.32-.84Z"/>
  <path class="st0" d="M1573.6,40.82c-.58,1.06-1.44,1.92-2.4,1.92-1.24,0-2.06-1.18-2.06-3.34s.72-5.24,2.18-6.7c.54-.54,1.08-.78,1.64-.78,1.12,0,1.74,1.04,1.9,2.32l1.14-5.8h.84l-2.74,14.14h-.84l.34-1.76ZM1572.62,41.38c1.22-1.22,1.88-3.92,1.88-5.88,0-1.82-.64-2.84-1.52-2.84-.38,0-.74.18-1.1.54-1.22,1.22-1.9,4.2-1.9,6.22,0,1.66.52,2.58,1.38,2.58.42,0,.86-.22,1.26-.62Z"/>
  <path class="st0" d="M1577.86,37.68c-.06.42-.08.82-.08,1.2,0,2.06.82,3.04,2.06,3.04.56,0,1.14-.2,1.74-.62l-.06.86c-.28.22-.98.56-1.74.56-1.6,0-2.82-1.18-2.82-3.84,0-2.3.86-4.82,2.14-6.1.54-.54,1.14-.86,1.8-.86,1.24,0,2.08,1.08,2.08,3.16,0,.58-.1,1.48-.34,2.6h-4.78ZM1577.98,36.94h3.98c.14-.66.2-1.26.2-1.92,0-1.4-.42-2.32-1.34-2.32-.4,0-.78.2-1.14.56-.8.8-1.4,2.22-1.7,3.68Z"/>
  <path class="st0" d="M1588.04,39.2c0-2.3.84-4.96,2.22-6.34.58-.58,1.26-.92,2-.92.54,0,1.1.2,1.42.5l-.18.9c-.3-.34-.72-.6-1.3-.6-.5,0-.96.24-1.36.64-1.22,1.22-1.96,3.84-1.96,5.62,0,2.18.8,2.92,1.72,2.92.46,0,.9-.18,1.32-.48l-.16.9c-.4.24-.84.38-1.3.38-1.32,0-2.42-1.12-2.42-3.52Z"/>
  <path class="st0" d="M1593.72,39.18c0-2.56.92-5.2,2.14-6.42.6-.6,1.26-.84,1.84-.84,1.38,0,2.3,1.3,2.3,3.56,0,2.56-.92,5.2-2.14,6.42-.6.6-1.26.84-1.84.84-1.38,0-2.3-1.3-2.3-3.56ZM1597.28,41.38c1.08-1.08,1.88-3.74,1.88-5.94,0-1.74-.58-2.74-1.52-2.74-.44,0-.82.2-1.2.58-1.08,1.08-1.88,3.74-1.88,5.94,0,1.74.58,2.74,1.52,2.74.44,0,.82-.2,1.2-.58Z"/>
  <path class="st0" d="M1603.64,28.44h.84l-2.74,14.14h-.84l2.74-14.14Z"/>
  <path class="st0" d="M1604.07,40.26c0-1.3.44-2.58,1.26-3.4.52-.52,1.22-.86,2.04-.86.72,0,1.36.2,1.9.52l.08-.44c.18-.92.22-1.28.22-1.66,0-.96-.44-1.66-1.78-1.66-.56,0-1.18.12-1.82.4l.16-.82c.58-.26,1.36-.38,1.82-.38,1.56,0,2.46.88,2.46,2.36,0,.44-.06.92-.24,1.84l-1.24,6.42h-.84l.28-1.42c-.52.88-1.22,1.6-2.26,1.6-1.24,0-2.04-.88-2.04-2.5ZM1608.77,39.1l.34-1.78c-.46-.36-1.22-.54-1.8-.54s-1.04.22-1.4.58c-.68.68-1,1.84-1,2.9,0,1.2.56,1.76,1.42,1.76,1.26,0,2.14-1.36,2.44-2.92Z"/>
  <path class="st0" d="M1612.56,40.42l-.44,2.16h-.84l2.74-14.14h.84l-1.04,5.4c.58-1.06,1.44-1.92,2.4-1.92,1.24,0,2.06,1.18,2.06,3.34s-.72,5.24-2.18,6.7c-.54.54-1.08.78-1.64.78-1.12,0-1.74-1.04-1.9-2.32ZM1615.54,41.46c1.22-1.22,1.9-4.2,1.9-6.22,0-1.66-.52-2.58-1.38-2.58-.42,0-.86.22-1.26.62-1.22,1.22-1.88,3.92-1.88,5.88,0,1.82.64,2.84,1.52,2.84.38,0,.74-.18,1.1-.54Z"/>
  <path class="st0" d="M1619.62,39.18c0-2.56.92-5.2,2.14-6.42.6-.6,1.26-.84,1.84-.84,1.38,0,2.3,1.3,2.3,3.56,0,2.56-.92,5.2-2.14,6.42-.6.6-1.26.84-1.84.84-1.38,0-2.3-1.3-2.3-3.56ZM1623.18,41.38c1.08-1.08,1.88-3.74,1.88-5.94,0-1.74-.58-2.74-1.52-2.74-.44,0-.82.2-1.2.58-1.08,1.08-1.88,3.74-1.88,5.94,0,1.74.58,2.74,1.52,2.74.44,0,.82-.2,1.2-.58Z"/>
  <path class="st0" d="M1628.78,32.08h.84l-.3,1.54c.58-.96,1.42-1.74,2.78-1.66l-.18.9h-.08c-1.44,0-2.54.84-2.9,2.68l-1.36,7.04h-.84l2.04-10.5Z"/>
  <path class="st0" d="M1631.55,40.26c0-1.3.44-2.58,1.26-3.4.52-.52,1.22-.86,2.04-.86.72,0,1.36.2,1.9.52l.08-.44c.18-.92.22-1.28.22-1.66,0-.96-.44-1.66-1.78-1.66-.56,0-1.18.12-1.82.4l.16-.82c.58-.26,1.36-.38,1.82-.38,1.56,0,2.46.88,2.46,2.36,0,.44-.06.92-.24,1.84l-1.24,6.42h-.84l.28-1.42c-.52.88-1.22,1.6-2.26,1.6-1.24,0-2.04-.88-2.04-2.5ZM1636.26,39.1l.34-1.78c-.46-.36-1.22-.54-1.8-.54s-1.04.22-1.4.58c-.68.68-1,1.84-1,2.9,0,1.2.56,1.76,1.42,1.76,1.26,0,2.14-1.36,2.44-2.92Z"/>
  <path class="st0" d="M1639.4,44.38l1.4-1.8c-.94-.38-1.62-1.48-1.62-3.38,0-2.3.84-4.96,2.22-6.34.58-.58,1.26-.92,2-.92.54,0,1.1.2,1.42.5l-.18.9c-.3-.34-.72-.6-1.3-.6-.5,0-.96.24-1.36.64-1.22,1.22-1.96,3.84-1.96,5.62,0,2.18.8,2.92,1.72,2.92.46,0,.9-.18,1.32-.48l-.16.9c-.4.24-.84.38-1.3.38-.06,0-.12-.02-.18-.02l-1.14,2.08-.88-.4Z"/>
  <path class="st0" d="M1644.87,39.18c0-2.56.92-5.2,2.14-6.42.6-.6,1.26-.84,1.84-.84,1.38,0,2.3,1.3,2.3,3.56,0,2.56-.92,5.2-2.14,6.42-.6.6-1.26.84-1.84.84-1.38,0-2.3-1.3-2.3-3.56ZM1648.43,41.38c1.08-1.08,1.88-3.74,1.88-5.94,0-1.74-.58-2.74-1.52-2.74-.44,0-.82.2-1.2.58-1.08,1.08-1.88,3.74-1.88,5.94,0,1.74.58,2.74,1.52,2.74.44,0,.82-.2,1.2-.58ZM1651.35,29.42c-.36,1-.74,1.5-1.3,1.5-.36,0-.6-.18-.88-.5-.32-.36-.44-.48-.62-.48-.24,0-.48.34-.7.92l-.58-.18c.36-1,.74-1.5,1.3-1.5.36,0,.6.18.88.5.32.36.44.48.62.48.24,0,.48-.34.7-.92l.58.18Z"/>
  <path class="st0" d="M1653.32,37.68c-.06.42-.08.82-.08,1.2,0,2.06.82,3.04,2.06,3.04.56,0,1.14-.2,1.74-.62l-.06.86c-.28.22-.98.56-1.74.56-1.6,0-2.82-1.18-2.82-3.84,0-2.3.86-4.82,2.14-6.1.54-.54,1.14-.86,1.8-.86,1.24,0,2.08,1.08,2.08,3.16,0,.58-.1,1.48-.34,2.6h-4.78ZM1653.44,36.94h3.98c.14-.66.2-1.26.2-1.92,0-1.4-.42-2.32-1.34-2.32-.4,0-.78.2-1.14.56-.8.8-1.4,2.22-1.7,3.68Z"/>
  <path class="st0" d="M1658.59,41.86l.22-.88c.64.56,1.42.92,2.14.92.96,0,1.7-.6,1.7-1.76,0-.64-.3-1.34-1.14-2.5-1.02-1.42-1.36-2.22-1.36-3.16,0-1.34.84-2.52,2.52-2.52.84,0,1.54.34,1.96.66l-.2.88c-.52-.44-1.18-.74-1.8-.74-1.02,0-1.64.66-1.64,1.68,0,.58.22,1.24,1.1,2.48.98,1.36,1.4,2.22,1.4,3.16,0,1.5-.92,2.62-2.58,2.62-.82,0-1.58-.3-2.32-.84Z"/>
  <path class="st0" d="M1670.85,32.08h.84l-2.04,10.5h-.84l2.04-10.5ZM1671.51,28.44h.92l-.26,1.4h-.92l.26-1.4Z"/>
  <path class="st0" d="M1674.18,32.08h.84l-.3,1.54c.58-1,1.38-1.7,2.42-1.7,1.14,0,1.9.82,1.9,2.22,0,.4-.04.9-.22,1.82l-1.28,6.62h-.84l1.3-6.7c.18-.92.2-1.36.2-1.72,0-.98-.46-1.52-1.3-1.52-1.24,0-2.24,1.36-2.54,2.86l-1.38,7.08h-.84l2.04-10.5Z"/>
  <path class="st0" d="M1680.41,41.32c0-.32.1-.84.14-1.04l1.44-7.42h-1l.16-.78h1l.56-2.96h.84l-.56,2.96h1.7l-.16.78h-1.7l-1.52,7.84c-.04.2-.06.36-.06.48,0,.44.24.68.8.68.28,0,.64-.1.8-.2l-.14.78c-.2.12-.54.22-.86.22-.86,0-1.44-.44-1.44-1.34Z"/>
  <path class="st0" d="M1685.52,37.68c-.06.42-.08.82-.08,1.2,0,2.06.82,3.04,2.06,3.04.56,0,1.14-.2,1.74-.62l-.06.86c-.28.22-.98.56-1.74.56-1.6,0-2.82-1.18-2.82-3.84,0-2.3.86-4.82,2.14-6.1.54-.54,1.14-.86,1.8-.86,1.24,0,2.08,1.08,2.08,3.16,0,.58-.1,1.48-.34,2.6h-4.78ZM1685.64,36.94h3.98c.14-.66.2-1.26.2-1.92,0-1.4-.42-2.32-1.34-2.32-.4,0-.78.2-1.14.56-.8.8-1.4,2.22-1.7,3.68Z"/>
  <path class="st0" d="M1693.47,32.08h.84l-.3,1.54c.58-1,1.38-1.7,2.42-1.7,1.14,0,1.9.82,1.9,2.22,0,.4-.04.9-.22,1.82l-1.28,6.62h-.84l1.3-6.7c.18-.92.2-1.36.2-1.72,0-.98-.46-1.52-1.3-1.52-1.24,0-2.24,1.36-2.54,2.86l-1.38,7.08h-.84l2.04-10.5Z"/>
  <path class="st0" d="M1698.55,41.86l.22-.88c.64.56,1.42.92,2.14.92.96,0,1.7-.6,1.7-1.76,0-.64-.3-1.34-1.14-2.5-1.02-1.42-1.36-2.22-1.36-3.16,0-1.34.84-2.52,2.52-2.52.84,0,1.54.34,1.96.66l-.2.88c-.52-.44-1.18-.74-1.8-.74-1.02,0-1.64.66-1.64,1.68,0,.58.22,1.24,1.1,2.48.98,1.36,1.4,2.22,1.4,3.16,0,1.5-.92,2.62-2.58,2.62-.82,0-1.58-.3-2.32-.84Z"/>
  <path class="st0" d="M1704.83,40.26c0-1.3.44-2.58,1.26-3.4.52-.52,1.22-.86,2.04-.86.72,0,1.36.2,1.9.52l.08-.44c.18-.92.22-1.28.22-1.66,0-.96-.44-1.66-1.78-1.66-.56,0-1.18.12-1.82.4l.16-.82c.58-.26,1.36-.38,1.82-.38,1.56,0,2.46.88,2.46,2.36,0,.44-.06.92-.24,1.84l-1.24,6.42h-.84l.28-1.42c-.52.88-1.22,1.6-2.26,1.6-1.24,0-2.04-.88-2.04-2.5ZM1709.53,39.1l.34-1.78c-.46-.36-1.22-.54-1.8-.54s-1.04.22-1.4.58c-.68.68-1,1.84-1,2.9,0,1.2.56,1.76,1.42,1.76,1.26,0,2.14-1.36,2.44-2.92Z"/>
  <path class="st0" d="M1711.42,41.86l.22-.88c.64.56,1.42.92,2.14.92.96,0,1.7-.6,1.7-1.76,0-.64-.3-1.34-1.14-2.5-1.02-1.42-1.36-2.22-1.36-3.16,0-1.34.84-2.52,2.52-2.52.84,0,1.54.34,1.96.66l-.2.88c-.52-.44-1.18-.74-1.8-.74-1.02,0-1.64.66-1.64,1.68,0,.58.22,1.24,1.1,2.48.98,1.36,1.4,2.22,1.4,3.16,0,1.5-.92,2.62-2.58,2.62-.82,0-1.58-.3-2.32-.84Z"/>
  <path class="st0" d="M1722.86,37.68c-.06.42-.08.82-.08,1.2,0,2.06.82,3.04,2.06,3.04.56,0,1.14-.2,1.74-.62l-.06.86c-.28.22-.98.56-1.74.56-1.6,0-2.82-1.18-2.82-3.84,0-2.3.86-4.82,2.14-6.1.54-.54,1.14-.86,1.8-.86,1.24,0,2.08,1.08,2.08,3.16,0,.58-.1,1.48-.34,2.6h-4.78ZM1722.98,36.94h3.98c.14-.66.2-1.26.2-1.92,0-1.4-.42-2.32-1.34-2.32-.4,0-.78.2-1.14.56-.8.8-1.4,2.22-1.7,3.68Z"/>
  <path class="st0" d="M1734.64,32.08h.84l-.3,1.54c.58-1,1.38-1.7,2.42-1.7,1.14,0,1.9.82,1.9,2.22,0,.4-.04.9-.22,1.82l-1.28,6.62h-.84l1.3-6.7c.18-.92.2-1.36.2-1.72,0-.98-.46-1.52-1.3-1.52-1.24,0-2.24,1.36-2.54,2.86l-1.38,7.08h-.84l2.04-10.5Z"/>
  <path class="st0" d="M1740.78,39.18c0-2.56.92-5.2,2.14-6.42.6-.6,1.26-.84,1.84-.84,1.38,0,2.3,1.3,2.3,3.56,0,2.56-.92,5.2-2.14,6.42-.6.6-1.26.84-1.84.84-1.38,0-2.3-1.3-2.3-3.56ZM1744.34,41.38c1.08-1.08,1.88-3.74,1.88-5.94,0-1.74-.58-2.74-1.52-2.74-.44,0-.82.2-1.2.58-1.08,1.08-1.88,3.74-1.88,5.94,0,1.74.58,2.74,1.52,2.74.44,0,.82-.2,1.2-.58Z"/>
  <path class="st0" d="M1750,32.08h.84l-2.04,10.5h-.84l2.04-10.5ZM1750.66,28.44h.92l-.26,1.4h-.92l.26-1.4Z"/>
  <path class="st0" d="M1751.82,41.32c0-.32.1-.84.14-1.04l1.44-7.42h-1l.16-.78h1l.56-2.96h.84l-.56,2.96h1.7l-.16.78h-1.7l-1.52,7.84c-.04.2-.06.36-.06.48,0,.44.24.68.8.68.28,0,.64-.1.8-.2l-.14.78c-.2.12-.54.22-.86.22-.86,0-1.44-.44-1.44-1.34Z"/>
  <path class="st0" d="M1756.93,37.68c-.06.42-.08.82-.08,1.2,0,2.06.82,3.04,2.06,3.04.56,0,1.14-.2,1.74-.62l-.06.86c-.28.22-.98.56-1.74.56-1.6,0-2.82-1.18-2.82-3.84,0-2.3.86-4.82,2.14-6.1.54-.54,1.14-.86,1.8-.86,1.24,0,2.08,1.08,2.08,3.16,0,.58-.1,1.48-.34,2.6h-4.78ZM1757.05,36.94h3.98c.14-.66.2-1.26.2-1.92,0-1.4-.42-2.32-1.34-2.32-.4,0-.78.2-1.14.56-.8.8-1.4,2.22-1.7,3.68Z"/>
  <path class="st0" d="M1762.19,41.86l.22-.88c.64.56,1.42.92,2.14.92.96,0,1.7-.6,1.7-1.76,0-.64-.3-1.34-1.14-2.5-1.02-1.42-1.36-2.22-1.36-3.16,0-1.34.84-2.52,2.52-2.52.84,0,1.54.34,1.96.66l-.2.88c-.52-.44-1.18-.74-1.8-.74-1.02,0-1.64.66-1.64,1.68,0,.58.22,1.24,1.1,2.48.98,1.36,1.4,2.22,1.4,3.16,0,1.5-.92,2.62-2.58,2.62-.82,0-1.58-.3-2.32-.84Z"/>
  <path class="st0" d="M1774.33,32.08h.84l-.3,1.54c.58-1,1.38-1.7,2.36-1.7s1.66.66,1.78,1.84c.76-1.24,1.66-1.84,2.66-1.84,1.08,0,1.84.82,1.84,2.22,0,.4-.04.9-.22,1.82l-1.28,6.62h-.84l1.3-6.7c.18-.92.2-1.36.2-1.72,0-.98-.46-1.52-1.24-1.52-1.08,0-2.16,1.24-2.44,2.64l-1.42,7.3h-.84l1.3-6.7c.18-.92.2-1.36.2-1.72,0-.98-.46-1.52-1.24-1.52-1.18,0-2.18,1.36-2.48,2.86l-1.38,7.08h-.84l2.04-10.5Z"/>
  <path class="st0" d="M1784.26,40.26c0-1.3.44-2.58,1.26-3.4.52-.52,1.22-.86,2.04-.86.72,0,1.36.2,1.9.52l.08-.44c.18-.92.22-1.28.22-1.66,0-.96-.44-1.66-1.78-1.66-.56,0-1.18.12-1.82.4l.16-.82c.58-.26,1.36-.38,1.82-.38,1.56,0,2.46.88,2.46,2.36,0,.44-.06.92-.24,1.84l-1.24,6.42h-.84l.28-1.42c-.52.88-1.22,1.6-2.26,1.6-1.24,0-2.04-.88-2.04-2.5ZM1788.96,39.1l.34-1.78c-.46-.36-1.22-.54-1.8-.54s-1.04.22-1.4.58c-.68.68-1,1.84-1,2.9,0,1.2.56,1.76,1.42,1.76,1.26,0,2.14-1.36,2.44-2.92Z"/>
  <path class="st0" d="M1794.26,28.44h.84l-2.74,14.14h-.84l2.74-14.14Z"/>
  <path class="st0" d="M1803.64,40.82c-.58,1.06-1.44,1.92-2.4,1.92-1.24,0-2.06-1.18-2.06-3.34s.72-5.24,2.18-6.7c.54-.54,1.08-.78,1.64-.78,1.12,0,1.74,1.04,1.9,2.32l1.14-5.8h.84l-2.74,14.14h-.84l.34-1.76ZM1802.66,41.38c1.22-1.22,1.88-3.92,1.88-5.88,0-1.82-.64-2.84-1.52-2.84-.38,0-.74.18-1.1.54-1.22,1.22-1.9,4.2-1.9,6.22,0,1.66.52,2.58,1.38,2.58.42,0,.86-.22,1.26-.62Z"/>
  <path class="st0" d="M1807,39.18c0-2.56.92-5.2,2.14-6.42.6-.6,1.26-.84,1.84-.84,1.38,0,2.3,1.3,2.3,3.56,0,2.56-.92,5.2-2.14,6.42-.6.6-1.26.84-1.84.84-1.38,0-2.3-1.3-2.3-3.56ZM1810.56,41.38c1.08-1.08,1.88-3.74,1.88-5.94,0-1.74-.58-2.74-1.52-2.74-.44,0-.82.2-1.2.58-1.08,1.08-1.88,3.74-1.88,5.94,0,1.74.58,2.74,1.52,2.74.44,0,.82-.2,1.2-.58Z"/>
  <path class="st0" d="M1816.16,32.08h.84l-.3,1.54c.58-.96,1.42-1.74,2.78-1.66l-.18.9h-.08c-1.44,0-2.54.84-2.9,2.68l-1.36,7.04h-.84l2.04-10.5Z"/>
  <path class="st0" d="M1821.01,32.08h.84l-.3,1.54c.58-1,1.38-1.7,2.36-1.7s1.66.66,1.78,1.84c.76-1.24,1.66-1.84,2.66-1.84,1.08,0,1.84.82,1.84,2.22,0,.4-.04.9-.22,1.82l-1.28,6.62h-.84l1.3-6.7c.18-.92.2-1.36.2-1.72,0-.98-.46-1.52-1.24-1.52-1.08,0-2.16,1.24-2.44,2.64l-1.42,7.3h-.84l1.3-6.7c.18-.92.2-1.36.2-1.72,0-.98-.46-1.52-1.24-1.52-1.18,0-2.18,1.36-2.48,2.86l-1.38,7.08h-.84l2.04-10.5Z"/>
  <path class="st0" d="M1833.15,32.08h.84l-2.04,10.5h-.84l2.04-10.5ZM1833.81,28.44h.92l-.26,1.4h-.92l.26-1.4Z"/>
  <path class="st0" d="M1839.36,40.82c-.58,1.06-1.44,1.92-2.4,1.92-1.24,0-2.06-1.18-2.06-3.34s.72-5.24,2.18-6.7c.54-.54,1.08-.78,1.64-.78,1.12,0,1.74,1.04,1.9,2.32l1.14-5.8h.84l-2.74,14.14h-.84l.34-1.76ZM1838.38,41.38c1.22-1.22,1.88-3.92,1.88-5.88,0-1.82-.64-2.84-1.52-2.84-.38,0-.74.18-1.1.54-1.22,1.22-1.9,4.2-1.9,6.22,0,1.66.52,2.58,1.38,2.58.42,0,.86-.22,1.26-.62Z"/>
  <path class="st0" d="M1842.13,40.26c0-1.3.44-2.58,1.26-3.4.52-.52,1.22-.86,2.04-.86.72,0,1.36.2,1.9.52l.08-.44c.18-.92.22-1.28.22-1.66,0-.96-.44-1.66-1.78-1.66-.56,0-1.18.12-1.82.4l.16-.82c.58-.26,1.36-.38,1.82-.38,1.56,0,2.46.88,2.46,2.36,0,.44-.06.92-.24,1.84l-1.24,6.42h-.84l.28-1.42c-.52.88-1.22,1.6-2.26,1.6-1.24,0-2.04-.88-2.04-2.5ZM1846.84,39.1l.34-1.78c-.46-.36-1.22-.54-1.8-.54s-1.04.22-1.4.58c-.68.68-1,1.84-1,2.9,0,1.2.56,1.76,1.42,1.76,1.26,0,2.14-1.36,2.44-2.92Z"/>
  <path class="st0" d="M1848.72,41.86l.22-.88c.64.56,1.42.92,2.14.92.96,0,1.7-.6,1.7-1.76,0-.64-.3-1.34-1.14-2.5-1.02-1.42-1.36-2.22-1.36-3.16,0-1.34.84-2.52,2.52-2.52.84,0,1.54.34,1.96.66l-.2.88c-.52-.44-1.18-.74-1.8-.74-1.02,0-1.64.66-1.64,1.68,0,.58.22,1.24,1.1,2.48.98,1.36,1.4,2.22,1.4,3.16,0,1.5-.92,2.62-2.58,2.62-.82,0-1.58-.3-2.32-.84Z"/>
  <path class="st0" d="M1855.42,40.94h1.24l-.32,1.64h-1.24l.32-1.64Z"/>
</svg>