<?xml version="1.0" encoding="UTF-8"?>
<svg id="a" data-name="Camada 1" xmlns="http://www.w3.org/2000/svg" viewBox="0 0 116.53 499.76">
  <path d="M42.24,485.15v14.61s-2.37,0-2.37,0l-35.49-14.82v-2.57s35.21,0,35.21,0v-3.83s2.64,0,2.64,0v3.83s11.2,0,11.2,0v2.78s-11.2,0-11.2,0ZM39.6,485.15H11.41s28.19,11.69,28.19,11.69v-11.69Z" fill="#2a2a2a"/>
  <path d="M51.42,477.22l-24.14-11.76c-4.45-2.16-7.86-3.41-12.1-3.41-4.87,0-7.93,2.71-7.93,6.82,0,2.85.9,5.01,2.23,7.1h-3.27c-1.11-1.88-2.02-4.24-2.02-7.23,0-5.98,4.31-9.81,10.64-9.81h.28c4.73,0,8.42,1.53,13.77,4.1l21.57,10.44v-14.96s2.99,0,2.99,0v18.71s-2.02,0-2.02,0Z" fill="#2a2a2a"/>
  <path d="M29.72,454.72h-1.11c-17.25,0-24.42-4.17-24.42-10.23s7.03-10.23,24.29-10.23h1.11c17.25,0,24.43,4.17,24.43,10.23,0,6.05-7.03,10.23-24.29,10.23h-.01ZM29.72,437.33h-1.11c-14.54,0-21.64,2.85-21.64,7.17,0,4.31,6.96,7.17,21.5,7.17h1.11c14.54,0,21.65-2.85,21.65-7.17s-6.96-7.17-21.5-7.17h-.01Z" fill="#2a2a2a"/>
  <path d="M61.16,428.42h-2.99c1.04-2.64,1.74-5.77,1.74-8.14,0-4.94-2.37-7.51-7.37-7.51h-8.63c4.17,1.46,7.58,3.97,7.58,7.65,0,4.87-6.05,9.53-17.25,9.53h-.63c-11.06,0-17.25-4.66-17.25-9.53,0-3.69,3.41-6.19,7.58-7.65h-7.03s0-2.92,0-2.92h35.49c3.34,0,5.84.9,7.51,2.57,1.81,1.81,2.71,4.52,2.71,8,0,2.5-.56,5.5-1.46,8h-.01ZM34.24,412.62h-.63c-9.32,0-14.68,3.9-14.68,7.44,0,3.55,5.22,6.96,14.75,6.96h.49c9.53,0,14.75-3.34,14.75-6.96,0-3.62-5.36-7.44-14.68-7.44Z" fill="#2a2a2a"/>
  <path d="M0,388.41v-2.5s60.26,0,60.26,0v2.5S0,388.41,0,388.41Z" fill="#2a2a2a"/>
  <path d="M14.48,365.05v-4.84c0-6.9,4.73-11.19,12.13-11.19h.11c7.4,0,12.36,4.06,12.36,11.41v2.17s14.36,0,14.36,0v2.45s-38.96,0-38.96,0ZM36.91,360.2c0-5.62-3.78-8.74-10.13-8.74h-.11c-6.34,0-9.96,3.45-9.96,8.85v2.28s20.2,0,20.2,0v-2.39Z" fill="#2a2a2a"/>
  <path d="M14.48,345.29v-13.25s2.23,0,2.23,0v10.8s15.97,0,15.97,0v-9.85s2.23,0,2.23,0v9.85s16.31,0,16.31,0v-10.96s2.23,0,2.23,0v13.41s-38.96,0-38.96,0Z" fill="#2a2a2a"/>
  <path d="M51.83,328.54h-2.78c1.73-2.67,2.5-4.9,2.5-6.79,0-3.28-2.17-5.4-5.62-5.4h-.11c-3.23,0-5.29,1.17-11.08,5.45-6.96,5.18-9.07,6.46-12.63,6.46h-.11c-4.62,0-7.96-3.39-7.96-7.62,0-2.23.61-4.01,1.73-5.9h2.78c-1.45,2.11-2.17,4.06-2.17,5.95,0,3.01,2.23,5.12,5.45,5.12h.11c2.89,0,5.01-1.17,10.52-5.51,5.95-4.73,9.02-6.4,13.19-6.4h.11c4.95,0,8.13,3.39,8.13,7.9,0,2.28-.72,4.4-2.06,6.73h0Z" fill="#2a2a2a"/>
  <path d="M34.41,310.66h-.89c-12.86,0-19.48-3.95-19.48-9.24s6.62-9.24,19.48-9.24h.89c12.86,0,19.48,3.95,19.48,9.24,0,5.29-6.62,9.24-19.48,9.24ZM34.41,294.63h-.89c-11.35,0-17.25,2.95-17.25,6.79s5.9,6.79,17.25,6.79h.89c11.35,0,17.25-2.95,17.25-6.79,0-3.84-5.9-6.79-17.25-6.79Z" fill="#2a2a2a"/>
  <path d="M14.48,277.82v-2.45s36.73,0,36.73,0v-9.8s2.23,0,2.23,0v12.24s-38.96,0-38.96,0Z" fill="#2a2a2a"/>
  <path d="M14.48,262.02v-2.45s38.96,0,38.96,0v2.45s-38.96,0-38.96,0ZM6.47,258.34l1.22-2.67,4.56,4.34v1.78s-5.79-3.45-5.79-3.45Z" fill="#2a2a2a"/>
  <path d="M54.55,237.57l-3.62,2.84c1.95,1.5,2.95,3.28,2.95,5.23,0,5.29-6.62,9.24-19.48,9.24h-.89c-12.86,0-19.48-3.95-19.48-9.24s6.62-9.24,19.48-9.24h.89c6.51,0,11.41,1.11,14.69,2.84l4.01-3.39,1.45,1.73h0ZM49.32,241.75l-4.79,4.01-1.45-1.73,4.23-3.34c-2.89-1.17-7.18-1.84-12.91-1.84h-.89c-11.35,0-17.25,2.95-17.25,6.79,0,3.84,5.9,6.79,17.25,6.79h.89c11.35,0,17.25-2.95,17.25-6.79,0-1.5-.78-2.84-2.34-3.9Z" fill="#2a2a2a"/>
  <path d="M48.88,232.19v-3.45s4.56,0,4.56,0v3.45s-4.56,0-4.56,0Z" fill="#2a2a2a"/>
  <path d="M10.7,214.45v-2.11s48.2,12.13,48.2,12.13v2.11s-48.2-12.13-48.2-12.13Z" fill="#2a2a2a"/>
  <path d="M14.48,209.44v-2.67s32.72-12.13,32.72-12.13H14.48s0-2.34,0-2.34h38.96s0,2.39,0,2.39l-33.5,12.41h33.5s0,2.34,0,2.34H14.48Z" fill="#2a2a2a"/>
  <path d="M14.48,186.68v-13.25s2.23,0,2.23,0v10.8s15.97,0,15.97,0v-9.85s2.23,0,2.23,0v9.85s16.31,0,16.31,0v-10.96s2.23,0,2.23,0v13.41s-38.96,0-38.96,0Z" fill="#2a2a2a"/>
  <path d="M16.71,164.25v6.34s-2.23,0-2.23,0v-15.14s2.23,0,2.23,0v6.34s36.73,0,36.73,0v2.45s-36.73,0-36.73,0h0Z" fill="#2a2a2a"/>
  <path d="M34.41,154.29h-.89c-12.86,0-19.48-3.95-19.48-9.24,0-5.29,6.62-9.24,19.48-9.24h.89c12.86,0,19.48,3.95,19.48,9.24,0,5.29-6.62,9.24-19.48,9.24ZM34.41,138.26h-.89c-11.35,0-17.25,2.95-17.25,6.79s5.9,6.79,17.25,6.79h.89c11.35,0,17.25-2.95,17.25-6.79,0-3.84-5.9-6.79-17.25-6.79Z" fill="#2a2a2a"/>
  <path d="M10.7,123.4v-2.11s48.2,12.13,48.2,12.13v2.11s-48.2-12.13-48.2-12.13Z" fill="#2a2a2a"/>
  <path d="M14.48,118.38v-2.67s32.72-12.13,32.72-12.13H14.48s0-2.34,0-2.34h38.96s0,2.39,0,2.39l-33.5,12.41h33.5s0,2.34,0,2.34H14.48Z" fill="#2a2a2a"/>
  <path d="M14.48,95.61v-13.25s2.23,0,2.23,0v10.8s15.97,0,15.97,0v-9.85s2.23,0,2.23,0v9.85s16.31,0,16.31,0v-10.96s2.23,0,2.23,0v13.41s-38.96,0-38.96,0Z" fill="#2a2a2a"/>
  <path d="M16.71,73.18v6.34s-2.23,0-2.23,0v-15.14s2.23,0,2.23,0v6.34s36.73,0,36.73,0v2.45s-36.73,0-36.73,0h0Z" fill="#2a2a2a"/>
  <path d="M14.48,52.87v-2.62s34-5.29,34-5.29l-34-6.34v-2.28s34-6.29,34-6.29l-34-5.34v-2.5s39.24,6.73,39.24,6.73v2.28s-34,6.29-34,6.29l34,6.34v2.28s-39.24,6.73-39.24,6.73h0Z" fill="#2a2a2a"/>
  <path d="M16.71,12.98v6.34s-2.23,0-2.23,0V4.19s2.23,0,2.23,0v6.34s36.73,0,36.73,0v2.45s-36.73,0-36.73,0h0Z" fill="#2a2a2a"/>
  <path d="M48.88,3.45V0s4.56,0,4.56,0v3.45s-4.56,0-4.56,0Z" fill="#2a2a2a"/>
  <path d="M111.05,476.83l-3.17,2.49c1.71,1.32,2.59,2.88,2.59,4.58,0,4.63-5.8,8.08-17.04,8.08h-.78c-11.26,0-17.04-3.46-17.04-8.08s5.8-8.08,17.04-8.08h.78c5.7,0,9.99.97,12.86,2.49l3.51-2.98,1.27,1.52h0ZM106.47,480.49l-4.19,3.51-1.27-1.52,3.7-2.92c-2.53-1.03-6.29-1.61-11.3-1.61h-.78c-9.93,0-15.1,2.57-15.1,5.94s5.16,5.94,15.1,5.94h.78c9.93,0,15.1-2.59,15.1-5.94,0-1.32-.68-2.49-2.05-3.41h0Z" fill="#2a2a2a"/>
  <path d="M102.38,471.88h-17.88s0-2.05,0-2.05h17.68c4.24,0,6.53-1.52,6.53-4.19s-2.78-4.87-6.91-4.87h-17.29s0-2.05,0-2.05h25.57s0,2.05,0,2.05h-3.76c2.14.88,4.15,2.43,4.15,5.26,0,3.46-2.88,5.84-8.08,5.84Z" fill="#2a2a2a"/>
  <path d="M75.62,454.07v-2.24s3.41,0,3.41,0v2.24s-3.41,0-3.41,0ZM84.5,453.97v-2.05s25.57,0,25.57,0v2.05s-25.57,0-25.57,0Z" fill="#2a2a2a"/>
  <path d="M105.79,446.42h-19.38s0,2.43,0,2.43h-1.91s0-2.43,0-2.43h-7.21s0-2.05,0-2.05h7.21s0-4.15,0-4.15h1.91s0,4.15,0,4.15h19.09c2.24,0,2.82-1.02,2.82-2.69,0-.49-.1-1.17-.25-1.56h1.91c.19.49.29,1.22.29,1.75,0,2.78-1.22,4.54-4.48,4.54Z" fill="#2a2a2a"/>
  <path d="M102.38,437.12h-17.88s0-2.05,0-2.05h17.68c4.24,0,6.53-1.52,6.53-4.19,0-2.67-2.78-4.87-6.91-4.87h-17.29s0-2.05,0-2.05h25.57s0,2.05,0,2.05h-3.76c2.14.88,4.15,2.43,4.15,5.26,0,3.46-2.88,5.84-8.08,5.84Z" fill="#2a2a2a"/>
  <path d="M105.79,418.55h-19.38s0,2.43,0,2.43h-1.91s0-2.43,0-2.43h-7.21s0-2.05,0-2.05h7.21s0-4.15,0-4.15h1.91s0,4.15,0,4.15h19.09c2.24,0,2.82-1.02,2.82-2.69,0-.49-.1-1.17-.25-1.56h1.91c.19.49.29,1.22.29,1.75,0,2.78-1.22,4.54-4.48,4.54Z" fill="#2a2a2a"/>
  <path d="M97.74,410.77h-.45c-8.86,0-13.2-3.27-13.2-7.01,0-3.74,4.54-6.68,12.52-6.68h1.52s0,11.65,0,11.65c6.91-.1,10.32-2.92,10.32-6.39,0-1.56-.39-2.78-1.52-4.44l2.1-.24c1.03,1.81,1.36,2.98,1.36,4.97,0,4.29-4.19,8.14-12.66,8.14h0ZM96.33,399.08c-5.9,0-10.32,1.95-10.32,4.67s3.56,4.77,10.32,4.97v-9.64h0,0Z" fill="#2a2a2a"/>
  <path d="M109.14,394.63h-2.14c.93-1.75,1.46-3.56,1.46-5.22,0-2.14-1.41-3.9-3.8-3.9h-.1c-1.81,0-3.6,1.03-6.48,4.05-3.6,3.8-5.61,5.02-8.18,5.02h-.1c-3.56,0-5.61-2.78-5.61-5.8,0-1.71.24-2.88.82-4.24h2.14c-.72,1.46-1.07,2.82-1.07,4.34,0,2.1,1.36,3.66,3.6,3.66h.1c1.85,0,3.27-.97,6.29-4.05,3.56-3.6,5.65-5.02,8.38-5.02h.1c3.6,0,5.8,2.92,5.8,6.04,0,2-.45,3.46-1.22,5.12h.01Z" fill="#2a2a2a"/>
  <path d="M93.46,372.43h-.88c-11.35,0-16.9-4.24-16.9-9.11,0-1.52.29-2.3.83-3.31h2.28c-.72,1.27-1.07,2.2-1.07,3.31,0,3.8,5.12,6.97,14.86,6.97h.88c9.74,0,14.86-3.17,14.86-6.97,0-1.22-.35-2.24-1.13-3.46h2.2c.58.97.97,2.1.97,3.56,0,5.02-5.55,9.02-16.9,9.02Z" fill="#2a2a2a"/>
  <path d="M84.5,356.4v-2.05s3.76,0,3.76,0c-2.34-.97-4.24-2.98-4.05-6h2.2s0,.1,0,.1c0,3.21,2.05,5.9,6.53,5.9h17.14s0,2.05,0,2.05h-25.57,0Z" fill="#2a2a2a"/>
  <path d="M75.62,345.42v-2.24s3.41,0,3.41,0v2.24s-3.41,0-3.41,0ZM84.5,345.32v-2.05s25.57,0,25.57,0v2.05s-25.57,0-25.57,0Z" fill="#2a2a2a"/>
  <path d="M102.61,339.99h-.39c-4.73,0-8.18-2.43-8.18-6.72,0-1.75.45-3.12.97-4.29h-3.21c-3.56,0-5.65,1.61-5.65,4.87,0,1.81.35,3.21,1.17,4.73h-2c-.68-1.42-1.11-3.02-1.11-4.83,0-2.05.58-3.7,1.85-4.97,1.07-1.07,3.02-1.85,5.51-1.85h18.5s0,2.05,0,2.05h-3.7c2.53,1.02,4.15,2.69,4.15,5.16,0,3.46-3.37,5.84-7.89,5.84h-.01ZM102.09,328.98h-5.12c-.64,1.36-1.03,2.69-1.03,4.19,0,3.17,2.63,4.77,6.19,4.77h.39c3.46,0,6.19-1.42,6.19-4.09,0-3.02-3.27-4.87-6.62-4.87h0Z" fill="#2a2a2a"/>
  <path d="M105.79,322.02h-19.38s0,2.43,0,2.43h-1.91s0-2.43,0-2.43h-7.21s0-2.05,0-2.05h7.21s0-4.15,0-4.15h1.91s0,4.15,0,4.15h19.09c2.24,0,2.82-1.02,2.82-2.69,0-.49-.1-1.17-.25-1.56h1.91c.19.49.29,1.22.29,1.75,0,2.78-1.22,4.54-4.48,4.54Z" fill="#2a2a2a"/>
  <path d="M75.62,312.54v-2.24s3.41,0,3.41,0v2.24s-3.41,0-3.41,0ZM84.5,312.45v-2.05s25.57,0,25.57,0v2.05s-25.57,0-25.57,0Z" fill="#2a2a2a"/>
  <path d="M84.5,307.13v-2.1s22.12-5.06,22.12-5.06l-22.12-5.16v-2s25.73,6.29,25.73,6.29v1.75s-25.73,6.29-25.73,6.29h0Z" fill="#2a2a2a"/>
  <path d="M97.49,291.21h-.43c-8.04,0-12.95-3.46-12.95-7.3,0-3.84,4.93-7.21,12.95-7.21h.43c8.04,0,12.95,3.41,12.95,7.26,0,3.85-4.93,7.26-12.95,7.26h0ZM97.49,278.73h-.43c-6.72,0-11.06,2.34-11.06,5.22,0,2.88,4.34,5.22,11.06,5.22h.43c6.72,0,11.06-2.34,11.06-5.22,0-2.88-4.34-5.22-11.06-5.22Z" fill="#2a2a2a"/>
  <path d="M109.14,274.39h-2.14c.93-1.75,1.46-3.56,1.46-5.22,0-2.14-1.41-3.9-3.8-3.9h-.1c-1.81,0-3.6,1.03-6.48,4.05-3.6,3.8-5.61,5.02-8.18,5.02h-.1c-3.56,0-5.61-2.78-5.61-5.8,0-1.71.24-2.88.82-4.24h2.14c-.72,1.46-1.07,2.82-1.07,4.34,0,2.1,1.36,3.66,3.6,3.66h.1c1.85,0,3.27-.97,6.29-4.05,3.56-3.6,5.65-5.02,8.38-5.02h.1c3.6,0,5.8,2.92,5.8,6.04,0,2-.45,3.46-1.22,5.12h.01Z" fill="#2a2a2a"/>
  <path d="M77.92,247.85v5.55s-1.95,0-1.95,0v-13.25s1.95,0,1.95,0v5.55s32.15,0,32.15,0v2.14s-32.15,0-32.15,0Z" fill="#2a2a2a"/>
  <path d="M75.62,237.11v-2.24s3.41,0,3.41,0v2.24s-3.41,0-3.41,0ZM84.5,237.01v-2.05s25.57,0,25.57,0v2.05s-25.57,0-25.57,0Z" fill="#2a2a2a"/>
  <path d="M84.5,230.26v-2.05s4.93,0,4.93,0c-2.92-1.03-5.31-2.78-5.31-5.36,0-3.51,4.48-6.68,12.72-6.68h.93c8.14,0,12.72,3.17,12.72,6.68,0,2.59-2.39,4.34-5.31,5.36h11.26s0,2.05,0,2.05h-31.9s-.01,0-.01,0ZM97.7,218.24h-.83c-7.01,0-10.96,2.24-10.96,4.87,0,2.63,3.9,5.22,10.77,5.22h1.22c6.87,0,10.77-2.63,10.77-5.22s-3.95-4.87-10.96-4.87Z" fill="#2a2a2a"/>
  <path d="M97.49,213.34h-.43c-8.04,0-12.95-3.46-12.95-7.3,0-3.84,4.93-7.21,12.95-7.21h.43c8.04,0,12.95,3.41,12.95,7.26s-4.93,7.26-12.95,7.26h0ZM97.49,200.87h-.43c-6.72,0-11.06,2.34-11.06,5.22,0,2.88,4.34,5.22,11.06,5.22h.43c6.72,0,11.06-2.34,11.06-5.22,0-2.88-4.34-5.22-11.06-5.22Z" fill="#2a2a2a"/>
  <path d="M75.83,180.41v-2.34s34.24-7.46,34.24-7.46v2.24s-9.54,1.99-9.54,1.99v8.86s9.54,1.99,9.54,1.99v2.14s-34.24-7.46-34.24-7.46v.03h0,0ZM98.58,175.25l-19.38,4.05,19.38,4.05v-8.1s0,0,0,0Z" fill="#2a2a2a"/>
  <path d="M84.5,167.3v-2.05s3.76,0,3.76,0c-2.14-.88-4.15-2.39-4.15-5.12s1.95-4.24,4.34-5.02c-2.1-.93-4.34-2.57-4.34-5.65,0-3.51,2.78-5.84,7.99-5.84h17.98s0,2.05,0,2.05h-17.78c-4.24,0-6.43,1.52-6.43,4.05s2.69,4.73,6.82,4.73h17.39s0,2.05,0,2.05h-17.78c-4.24,0-6.43,1.52-6.43,4.05,0,2.53,2.69,4.73,6.82,4.73h17.39s0,2.05,0,2.05h-25.57s0-.01,0-.01Z" fill="#2a2a2a"/>
  <path d="M102.61,140.5h-.39c-4.73,0-8.18-2.43-8.18-6.72,0-1.75.45-3.12.97-4.29h-3.21c-3.56,0-5.65,1.61-5.65,4.87,0,1.81.35,3.21,1.17,4.73h-2c-.68-1.42-1.11-3.02-1.11-4.83,0-2.05.58-3.7,1.85-4.97,1.07-1.07,3.02-1.85,5.51-1.85h18.5s0,2.05,0,2.05h-3.7c2.53,1.02,4.15,2.69,4.15,5.16,0,3.46-3.37,5.84-7.89,5.84h-.01ZM102.09,129.5h-5.12c-.64,1.36-1.03,2.69-1.03,4.19,0,3.17,2.63,4.77,6.19,4.77h.39c3.46,0,6.19-1.42,6.19-4.09,0-3.02-3.27-4.87-6.62-4.87h0Z" fill="#2a2a2a"/>
  <path d="M84.5,122.96v-2.05s3.76,0,3.76,0c-2.14-.88-4.15-2.43-4.15-5.26,0-3.46,2.88-5.84,8.08-5.84h17.88s0,2.05,0,2.05h-17.68c-4.24,0-6.53,1.52-6.53,4.19s2.78,4.87,6.91,4.87h17.29s0,2.05,0,2.05c0,0-25.57,0-25.57,0Z" fill="#2a2a2a"/>
  <path d="M105.79,104.89h-19.38s0,2.43,0,2.43h-1.91s0-2.43,0-2.43h-7.21s0-2.05,0-2.05h7.21s0-4.15,0-4.15h1.91s0,4.15,0,4.15h19.09c2.24,0,2.82-1.02,2.82-2.69,0-.49-.1-1.17-.25-1.56h1.91c.19.49.29,1.22.29,1.75,0,2.78-1.22,4.54-4.48,4.54Z" fill="#2a2a2a"/>
  <path d="M97.74,97.11h-.45c-8.86,0-13.2-3.27-13.2-7.01s4.54-6.68,12.52-6.68h1.52s0,11.65,0,11.65c6.91-.1,10.32-2.92,10.32-6.39,0-1.56-.39-2.78-1.52-4.44l2.1-.24c1.03,1.81,1.36,2.98,1.36,4.97,0,4.29-4.19,8.14-12.66,8.14h0ZM96.33,85.42c-5.9,0-10.32,1.95-10.32,4.67s3.56,4.77,10.32,4.97v-9.64h0,0Z" fill="#2a2a2a"/>
  <path d="M75.62,79.87v-2.24s3.41,0,3.41,0v2.24s-3.41,0-3.41,0ZM84.5,79.77v-2.05s25.57,0,25.57,0v2.05s-25.57,0-25.57,0Z" fill="#2a2a2a"/>
  <path d="M115.47,72.94h-2.1c.74-1.85,1.22-4.05,1.22-5.7,0-3.46-1.66-5.26-5.16-5.26h-6.04c2.92,1.03,5.31,2.78,5.31,5.36,0,3.41-4.24,6.68-12.08,6.68h-.43c-7.75,0-12.08-3.27-12.08-6.68,0-2.59,2.39-4.34,5.31-5.36h-4.93s0-2.05,0-2.05h24.85c2.34,0,4.09.64,5.26,1.81,1.27,1.27,1.91,3.17,1.91,5.61,0,1.75-.39,3.85-1.02,5.61h-.04s0-.01,0-.01h0ZM96.62,61.88h-.43c-6.53,0-10.28,2.73-10.28,5.22s3.66,4.87,10.32,4.87h.35c6.68,0,10.32-2.34,10.32-4.87s-3.76-5.22-10.28-5.22Z" fill="#2a2a2a"/>
  <path d="M102.61,56.73h-.39c-4.73,0-8.18-2.43-8.18-6.72,0-1.75.45-3.12.97-4.29h-3.21c-3.56,0-5.65,1.61-5.65,4.87,0,1.81.35,3.21,1.17,4.73h-2c-.68-1.42-1.11-3.02-1.11-4.83,0-2.05.58-3.7,1.85-4.97,1.07-1.07,3.02-1.85,5.51-1.85h18.5s0,2.05,0,2.05h-3.7c2.53,1.02,4.15,2.69,4.15,5.16,0,3.46-3.37,5.84-7.89,5.84h-.01ZM102.09,45.73h-5.12c-.64,1.36-1.03,2.69-1.03,4.19,0,3.17,2.63,4.77,6.19,4.77h.39c3.46,0,6.19-1.42,6.19-4.09,0-3.02-3.27-4.87-6.62-4.87h0Z" fill="#2a2a2a"/>
  <path d="M97.74,40.05h-.93c-8.14,0-12.72-3.17-12.72-6.68,0-2.59,2.39-4.34,5.31-5.36h-13.79s0-2.05,0-2.05h34.44s0,2.05,0,2.05h-4.93c2.92,1.03,5.31,2.78,5.31,5.36,0,3.51-4.48,6.68-12.72,6.68h.01ZM97.9,27.92h-1.22c-6.87,0-10.77,2.63-10.77,5.22s3.95,4.87,10.96,4.87h.83c7.01,0,10.96-2.24,10.96-4.87,0-2.63-3.9-5.22-10.77-5.22Z" fill="#2a2a2a"/>
  <path d="M97.49,22.28h-.43c-8.04,0-12.95-3.46-12.95-7.3,0-3.84,4.93-7.21,12.95-7.21h.43c8.04,0,12.95,3.41,12.95,7.26,0,3.85-4.93,7.26-12.95,7.26h0ZM97.49,9.82h-.43c-6.72,0-11.06,2.34-11.06,5.22,0,2.88,4.34,5.22,11.06,5.22h.43c6.72,0,11.06-2.34,11.06-5.22s-4.34-5.22-11.06-5.22Z" fill="#2a2a2a"/>
</svg>