<?xml version="1.0" encoding="UTF-8"?>
<svg id="a" data-name="Camada 1" xmlns="http://www.w3.org/2000/svg" viewBox="0 0 74.37 695.72">
  <path d="M7.05,695.45h-.39c-4.55,0-6.67-1.72-6.67-3.7,0-.62.12-.94.33-1.39h1.31c-.29.5-.42.87-.42,1.31,0,1.39,1.73,2.51,5.45,2.51h.39c3.78,0,5.45-1.12,5.45-2.51,0-.46-.14-.87-.44-1.35h1.25c.27.42.4.89.4,1.48,0,2.04-2.12,3.64-6.67,3.64Z" fill="#2a2a2a"/>
  <path d="M8.67,689.04h-.29c-3.22,0-5.11-1.35-5.11-2.97s1.89-2.95,5.11-2.95h.29c3.22,0,5.11,1.35,5.11,2.97s-1.89,2.95-5.11,2.95ZM8.67,684.34h-.31c-2.49,0-3.99.77-3.99,1.75s1.5,1.75,3.99,1.75h.31c2.49,0,4.01-.77,4.01-1.75s-1.52-1.75-4.01-1.75Z" fill="#2a2a2a"/>
  <path d="M3.43,681.32v-1.19h1.41c-.85-.39-1.58-.96-1.58-1.97s.71-1.6,1.58-1.93c-.75-.37-1.58-1-1.58-2.14,0-1.29,1.06-2.25,3.06-2.25h7.28v1.19h-7.11c-1.43,0-2.18.52-2.18,1.37s.91,1.58,2.29,1.58h7v1.19h-7.11c-1.43,0-2.18.52-2.18,1.37s.91,1.58,2.29,1.58h7v1.19H3.43Z" fill="#2a2a2a"/>
  <path d="M3.43,669.73v-1.19h1.77c-1.02-.39-1.95-1.02-1.95-2.04,0-1.35,1.62-2.52,5.01-2.52h.5c3.35,0,5.01,1.18,5.01,2.52,0,1.02-.93,1.66-1.93,2.04h4.26v1.19H3.43ZM8.73,665.18h-.42c-2.53,0-3.93.71-3.93,1.64s1.39,1.75,3.87,1.75h.54c2.49,0,3.87-.85,3.87-1.75s-1.41-1.64-3.93-1.64Z" fill="#2a2a2a"/>
  <path d="M8.67,662.44h-.29c-3.22,0-5.11-1.35-5.11-2.97s1.89-2.95,5.11-2.95h.29c3.22,0,5.11,1.35,5.11,2.97s-1.89,2.95-5.11,2.95ZM8.67,657.74h-.31c-2.49,0-3.99.77-3.99,1.75s1.5,1.75,3.99,1.75h.31c2.49,0,4.01-.77,4.01-1.75s-1.52-1.75-4.01-1.75Z" fill="#2a2a2a"/>
  <path d="M13.26,655.2h-1.21c.37-.71.6-1.41.6-2.02,0-.77-.5-1.37-1.33-1.37h-.02c-.64,0-1.25.35-2.33,1.48-1.31,1.39-2.14,1.93-3.24,1.93h-.04c-1.5,0-2.39-1.12-2.39-2.47,0-.66.1-1.14.33-1.68h1.21c-.27.56-.42,1.1-.42,1.68,0,.75.46,1.29,1.23,1.29h.02c.64,0,1.12-.33,2.27-1.5,1.37-1.39,2.2-1.91,3.3-1.91h.04c1.52,0,2.47,1.18,2.47,2.52,0,.75-.17,1.39-.48,2.04Z" fill="#2a2a2a"/>
  <path d="M0,649.06v-1.27h1.58v1.27H0ZM3.43,649.04v-1.21h10.18v1.21H3.43Z" fill="#2a2a2a"/>
  <path d="M15.34,644.8l-1.73-1.04c-.44,1.27-2.04,2.25-4.91,2.25h-.31c-3.45,0-5.09-1.48-5.09-3.12,0-.54.12-.94.33-1.27h1.27c-.27.37-.44.75-.44,1.21,0,.94,1.18,1.97,3.89,1.97h.39c2.78,0,3.87-.98,3.87-2.04,0-.39-.19-.79-.46-1.14h1.21c.25.37.4.75.4,1.29l2.06.71-.48,1.18Z" fill="#2a2a2a"/>
  <path d="M10.68,640.33h-.19c-2,0-3.26-.96-3.26-2.56,0-.64.17-1.16.39-1.62h-1.1c-1.31,0-2.06.62-2.06,1.81,0,.67.15,1.25.46,1.83h-1.16c-.29-.6-.44-1.27-.44-1.97,0-.89.25-1.56.75-2.08.48-.48,1.29-.79,2.33-.79h7.21v1.21h-1.37c.96.4,1.54,1.02,1.54,1.95,0,1.31-1.29,2.22-3.1,2.22ZM2,637.54c-.31.37-.4.54-.4.71,0,.23.27.39.83.54l-.19.75c-1.1-.23-1.6-.58-1.6-1.14,0-.4.17-.67.46-1.02.29-.37.4-.54.4-.71,0-.23-.27-.39-.83-.54l.19-.75c1.1.23,1.6.58,1.6,1.14,0,.4-.17.67-.46,1.02ZM10.56,636.15h-1.95c-.21.44-.37.93-.37,1.41,0,1.04.87,1.6,2.16,1.6h.19c1.27,0,2.14-.5,2.14-1.39,0-.96-1.02-1.62-2.18-1.62Z" fill="#2a2a2a"/>
  <path d="M8.67,633.19h-.29c-3.22,0-5.11-1.35-5.11-2.97s1.89-2.95,5.11-2.95h.29c3.22,0,5.11,1.35,5.11,2.97s-1.89,2.95-5.11,2.95ZM8.67,628.49h-.31c-2.49,0-3.99.77-3.99,1.75s1.5,1.75,3.99,1.75h.31c2.49,0,4.01-.77,4.01-1.75s-1.52-1.75-4.01-1.75Z" fill="#2a2a2a"/>
  <path d="M7.05,622.17h-.39c-4.55,0-6.67-1.72-6.67-3.7,0-.62.12-.94.33-1.39h1.31c-.29.5-.42.87-.42,1.31,0,1.39,1.73,2.51,5.45,2.51h.39c3.78,0,5.45-1.12,5.45-2.51,0-.46-.14-.87-.44-1.35h1.25c.27.42.4.89.4,1.48,0,2.04-2.12,3.64-6.67,3.64Z" fill="#2a2a2a"/>
  <path d="M3.43,615.33v-1.19h1.43c-.91-.37-1.62-1.08-1.54-2.18h1.37v.04c0,1.21.79,2.14,2.49,2.14h6.44v1.19H3.43Z" fill="#2a2a2a"/>
  <path d="M0,610.43v-1.27h1.58v1.27H0ZM3.43,610.41v-1.21h10.18v1.21H3.43Z" fill="#2a2a2a"/>
  <path d="M10.68,607.53h-.19c-2,0-3.26-.96-3.26-2.56,0-.64.17-1.16.39-1.62h-1.1c-1.31,0-2.06.62-2.06,1.81,0,.67.15,1.25.46,1.83h-1.16c-.29-.6-.44-1.27-.44-1.97,0-.89.25-1.56.75-2.08.48-.48,1.29-.79,2.33-.79h7.21v1.21h-1.37c.96.4,1.54,1.02,1.54,1.95,0,1.31-1.29,2.22-3.1,2.22ZM10.56,603.35h-1.95c-.21.44-.37.93-.37,1.41,0,1.04.87,1.6,2.16,1.6h.19c1.27,0,2.14-.5,2.14-1.39,0-.96-1.02-1.62-2.18-1.62Z" fill="#2a2a2a"/>
  <path d="M11.89,599.9h-7.42v.87h-1.04v-.87H.64v-1.21h2.79v-1.52h1.04v1.52h7.13c.77,0,.98-.35.98-.94,0-.17-.04-.42-.1-.6h1.04c.1.23.17.6.17.87,0,1.1-.44,1.89-1.81,1.89Z" fill="#2a2a2a"/>
  <path d="M0,595.54v-1.27h1.58v1.27H0ZM3.43,595.52v-1.21h10.18v1.21H3.43Z" fill="#2a2a2a"/>
  <path d="M3.43,592.7v-1.21l8.19-1.75-8.19-1.77v-1.18l10.23,2.37v1.14l-10.23,2.41Z" fill="#2a2a2a"/>
  <path d="M10.68,585.71h-.19c-2,0-3.26-.96-3.26-2.56,0-.64.17-1.16.39-1.62h-1.1c-1.31,0-2.06.62-2.06,1.81,0,.67.15,1.25.46,1.83h-1.16c-.29-.6-.44-1.27-.44-1.97,0-.89.25-1.56.75-2.08.48-.48,1.29-.79,2.33-.79h7.21v1.21h-1.37c.96.4,1.54,1.02,1.54,1.95,0,1.31-1.29,2.22-3.1,2.22ZM10.56,581.53h-1.95c-.21.44-.37.93-.37,1.41,0,1.04.87,1.6,2.16,1.6h.19c1.27,0,2.14-.5,2.14-1.39,0-.96-1.02-1.62-2.18-1.62Z" fill="#2a2a2a"/>
  <path d="M3.43,578.52v-1.58h1.87v1.58h-1.87ZM11.74,578.52v-1.58h1.87v1.58h-1.87Z" fill="#2a2a2a"/>
  <path d="M22.78,694.93v-.81h12.85v.81h-12.85Z" fill="#2a2a2a"/>
  <path d="M30.99,692.12h-.35c-3.07,0-4.79-1.19-4.79-2.52,0-.97.9-1.63,2-2.02h-5.2v-.77h12.98v.77h-1.85c1.1.39,2,1.05,2,2.02,0,1.32-1.69,2.52-4.79,2.52ZM31.04,687.55h-.46c-2.59,0-4.06.99-4.06,1.96s1.49,1.84,4.13,1.84h.31c2.64,0,4.13-.84,4.13-1.84s-1.47-1.96-4.06-1.96Z" fill="#2a2a2a"/>
  <path d="M30.99,684.96h-.17c-3.34,0-4.98-1.23-4.98-2.64s1.71-2.52,4.72-2.52h.57v4.39c2.61-.04,3.89-1.1,3.89-2.41,0-.59-.15-1.05-.57-1.67l.79-.09c.39.68.51,1.12.51,1.87,0,1.62-1.58,3.07-4.77,3.07ZM30.46,680.55c-2.22,0-3.89.73-3.89,1.76s1.34,1.8,3.89,1.87v-3.64Z" fill="#2a2a2a"/>
  <path d="M22.65,678.01v-.84h1.29v.84h-1.29ZM26,677.98v-.77h9.64v.77h-9.64Z" fill="#2a2a2a"/>
  <path d="M32.83,675.52h-.15c-1.78,0-3.08-.92-3.08-2.53,0-.66.16-1.18.37-1.62h-1.21c-1.34,0-2.13.61-2.13,1.84,0,.68.13,1.21.44,1.78h-.75c-.26-.53-.42-1.14-.42-1.82,0-.77.22-1.4.7-1.87.4-.4,1.14-.7,2.08-.7h6.98v.77h-1.4c.96.39,1.56,1.01,1.56,1.95,0,1.3-1.27,2.2-2.98,2.2ZM32.62,671.37h-1.93c-.24.51-.39,1.01-.39,1.58,0,1.19.99,1.8,2.33,1.8h.15c1.3,0,2.33-.53,2.33-1.54,0-1.14-1.23-1.84-2.5-1.84Z" fill="#2a2a2a"/>
  <path d="M35.29,669.01h-.81c.35-.66.55-1.34.55-1.96,0-.81-.53-1.47-1.43-1.47h-.04c-.68,0-1.36.39-2.44,1.52-1.36,1.43-2.11,1.89-3.08,1.89h-.04c-1.34,0-2.11-1.05-2.11-2.18,0-.64.09-1.08.31-1.6h.81c-.28.55-.4,1.06-.4,1.63,0,.79.51,1.38,1.36,1.38h.04c.7,0,1.23-.37,2.37-1.52,1.34-1.36,2.13-1.89,3.16-1.89h.04c1.36,0,2.18,1.1,2.18,2.28,0,.75-.16,1.3-.46,1.93Z" fill="#2a2a2a"/>
  <path d="M22.65,660.07v-.84h1.29v.84h-1.29ZM26,660.04v-.77h9.64v.77h-9.64Z" fill="#2a2a2a"/>
  <path d="M26,657.05v-.77h1.41c-.81-.33-1.56-.92-1.56-1.98,0-1.3,1.08-2.2,3.05-2.2h6.74v.77h-6.67c-1.6,0-2.46.57-2.46,1.58s1.05,1.84,2.61,1.84h6.52v.77h-9.64Z" fill="#2a2a2a"/>
  <path d="M34.02,649.79h-7.31v.92h-.72v-.92h-2.72v-.77h2.72v-1.56h.72v1.56h7.2c.84,0,1.06-.39,1.06-1.01,0-.18-.04-.44-.09-.59h.72c.07.18.11.46.11.66,0,1.05-.46,1.71-1.69,1.71Z" fill="#2a2a2a"/>
  <path d="M30.99,646.4h-.17c-3.34,0-4.98-1.23-4.98-2.64s1.71-2.52,4.72-2.52h.57v4.39c2.61-.04,3.89-1.1,3.89-2.41,0-.59-.15-1.05-.57-1.67l.79-.09c.39.68.51,1.12.51,1.87,0,1.62-1.58,3.07-4.77,3.07ZM30.46,641.99c-2.22,0-3.89.73-3.89,1.76s1.34,1.8,3.89,1.87v-3.64Z" fill="#2a2a2a"/>
  <path d="M37.67,639.3h-.79c.28-.7.46-1.52.46-2.15,0-1.3-.62-1.98-1.95-1.98h-2.28c1.1.39,2,1.05,2,2.02,0,1.29-1.6,2.52-4.55,2.52h-.17c-2.92,0-4.55-1.23-4.55-2.52,0-.97.9-1.63,2-2.02h-1.85v-.77h9.36c.88,0,1.54.24,1.98.68.48.48.72,1.19.72,2.11,0,.66-.15,1.45-.39,2.11ZM30.57,635.13h-.17c-2.46,0-3.87,1.03-3.87,1.96s1.38,1.84,3.89,1.84h.13c2.52,0,3.89-.88,3.89-1.84s-1.41-1.96-3.87-1.96Z" fill="#2a2a2a"/>
  <path d="M26,632.21v-.77h1.41c-.88-.37-1.6-1.12-1.52-2.26h.83v.04c0,1.21.77,2.22,2.46,2.22h6.46v.77h-9.64Z" fill="#2a2a2a"/>
  <path d="M32.83,628.14h-.15c-1.78,0-3.08-.92-3.08-2.53,0-.66.16-1.18.37-1.62h-1.21c-1.34,0-2.13.61-2.13,1.84,0,.68.13,1.21.44,1.78h-.75c-.26-.53-.42-1.14-.42-1.82,0-.77.22-1.4.7-1.87.4-.4,1.14-.7,2.08-.7h6.98v.77h-1.4c.96.39,1.56,1.01,1.56,1.95,0,1.3-1.27,2.2-2.98,2.2ZM32.62,623.99h-1.93c-.24.51-.39,1.01-.39,1.58,0,1.19.99,1.8,2.33,1.8h.15c1.3,0,2.33-.53,2.33-1.54,0-1.14-1.23-1.84-2.5-1.84Z" fill="#2a2a2a"/>
  <path d="M22.65,621.07v-.84h1.29v.84h-1.29ZM26,621.04v-.77h9.64v.77h-9.64Z" fill="#2a2a2a"/>
  <path d="M35.29,618.61h-.81c.35-.66.55-1.34.55-1.96,0-.81-.53-1.47-1.43-1.47h-.04c-.68,0-1.36.39-2.44,1.52-1.36,1.43-2.11,1.89-3.08,1.89h-.04c-1.34,0-2.11-1.05-2.11-2.18,0-.64.09-1.08.31-1.6h.81c-.28.55-.4,1.06-.4,1.63,0,.79.51,1.38,1.36,1.38h.04c.7,0,1.23-.37,2.37-1.52,1.34-1.36,2.13-1.89,3.16-1.89h.04c1.36,0,2.18,1.1,2.18,2.28,0,.75-.16,1.3-.46,1.93Z" fill="#2a2a2a"/>
  <path d="M37.07,613.11c-.31-.72-.73-.99-1.43-.94v.5h-1.51v-1.14h1.3c1.14,0,1.62.35,2.09,1.36l-.46.22Z" fill="#2a2a2a"/>
  <path d="M26.71,606.14v.99h-.72v-.99h-1.12c-.81,0-1.41-.2-1.78-.57-.31-.31-.48-.75-.48-1.3,0-.15.04-.42.07-.57h.75c-.04.15-.07.44-.07.55,0,.73.48,1.12,1.52,1.12h1.1v-1.58h.72v1.58h8.92v.77h-8.92Z" fill="#2a2a2a"/>
  <path d="M32.83,602.79h-.15c-1.78,0-3.08-.92-3.08-2.53,0-.66.16-1.18.37-1.62h-1.21c-1.34,0-2.13.61-2.13,1.84,0,.68.13,1.21.44,1.78h-.75c-.26-.53-.42-1.14-.42-1.82,0-.77.22-1.4.7-1.87.4-.4,1.14-.7,2.08-.7h6.98v.77h-1.4c.96.39,1.56,1.01,1.56,1.95,0,1.3-1.27,2.2-2.98,2.2ZM32.62,598.64h-1.93c-.24.51-.39,1.01-.39,1.58,0,1.19.99,1.8,2.33,1.8h.15c1.3,0,2.33-.53,2.33-1.54,0-1.14-1.23-1.84-2.5-1.84Z" fill="#2a2a2a"/>
  <path d="M26,595.73v-.77h1.41c-.88-.37-1.6-1.12-1.52-2.26h.83v.04c0,1.21.77,2.22,2.46,2.22h6.46v.77h-9.64Z" fill="#2a2a2a"/>
  <path d="M22.65,591.14v-.84h1.29v.84h-1.29ZM26,591.11v-.77h9.64v.77h-9.64Z" fill="#2a2a2a"/>
  <path d="M26,588.12v-.77h1.41c-.81-.33-1.56-.92-1.56-1.98,0-1.3,1.08-2.2,3.05-2.2h6.74v.77h-6.67c-1.6,0-2.46.57-2.46,1.58s1.05,1.84,2.61,1.84h6.52v.77h-9.64Z" fill="#2a2a2a"/>
  <path d="M22.65,581.02v-.77h4.76c-.81-.33-1.56-.92-1.56-1.98,0-1.3,1.08-2.2,3.05-2.2h6.74v.77h-6.67c-1.6,0-2.46.57-2.46,1.58s1.05,1.84,2.61,1.84h6.52v.77h-12.98Z" fill="#2a2a2a"/>
  <path d="M32.83,574.45h-.15c-1.78,0-3.08-.92-3.08-2.53,0-.66.16-1.18.37-1.62h-1.21c-1.34,0-2.13.61-2.13,1.84,0,.68.13,1.21.44,1.78h-.75c-.26-.53-.42-1.14-.42-1.82,0-.77.22-1.4.7-1.87.4-.4,1.14-.7,2.08-.7h6.98v.77h-1.4c.96.39,1.56,1.01,1.56,1.95,0,1.3-1.27,2.2-2.98,2.2ZM32.62,570.3h-1.93c-.24.51-.39,1.01-.39,1.58,0,1.19.99,1.8,2.33,1.8h.15c1.3,0,2.33-.53,2.33-1.54,0-1.14-1.23-1.84-2.5-1.84Z" fill="#2a2a2a"/>
  <path d="M35.29,567.94h-.81c.35-.66.55-1.34.55-1.96,0-.81-.53-1.47-1.43-1.47h-.04c-.68,0-1.36.39-2.44,1.52-1.36,1.43-2.11,1.89-3.08,1.89h-.04c-1.34,0-2.11-1.05-2.11-2.18,0-.64.09-1.08.31-1.6h.81c-.28.55-.4,1.06-.4,1.63,0,.79.51,1.38,1.36,1.38h.04c.7,0,1.23-.37,2.37-1.52,1.34-1.36,2.13-1.89,3.16-1.89h.04c1.36,0,2.18,1.1,2.18,2.28,0,.75-.16,1.3-.46,1.93Z" fill="#2a2a2a"/>
  <path d="M30.99,559.43h-.35c-3.07,0-4.79-1.19-4.79-2.52,0-.97.9-1.63,2-2.02h-5.2v-.77h12.98v.77h-1.85c1.1.39,2,1.05,2,2.02,0,1.32-1.69,2.52-4.79,2.52ZM31.04,554.85h-.46c-2.59,0-4.06.99-4.06,1.96s1.49,1.84,4.13,1.84h.31c2.64,0,4.13-.84,4.13-1.84s-1.47-1.96-4.06-1.96Z" fill="#2a2a2a"/>
  <path d="M30.99,552.26h-.17c-3.34,0-4.98-1.23-4.98-2.64s1.71-2.52,4.72-2.52h.57v4.39c2.61-.04,3.89-1.1,3.89-2.41,0-.59-.15-1.05-.57-1.67l.79-.09c.39.68.51,1.12.51,1.87,0,1.62-1.58,3.07-4.77,3.07ZM30.46,547.86c-2.22,0-3.89.73-3.89,1.76s1.34,1.8,3.89,1.87v-3.64Z" fill="#2a2a2a"/>
  <path d="M30.93,542.65h-.18c-3.34,0-4.88-1.47-4.88-2.94,0-.48.15-.88.33-1.16h.85c-.26.33-.44.72-.44,1.18,0,.99,1.27,2.15,4.11,2.15h.26c2.9,0,4.06-1.12,4.06-2.22,0-.4-.16-.77-.44-1.1h.81c.22.31.37.68.37,1.16,0,1.51-1.47,2.94-4.83,2.94Z" fill="#2a2a2a"/>
  <path d="M30.9,537.5h-.16c-3.03,0-4.88-1.3-4.88-2.75s1.85-2.72,4.88-2.72h.16c3.03,0,4.88,1.29,4.88,2.74s-1.85,2.74-4.88,2.74ZM30.9,532.8h-.16c-2.53,0-4.17.88-4.17,1.96s1.63,1.96,4.17,1.96h.16c2.53,0,4.17-.88,4.17-1.96s-1.63-1.96-4.17-1.96Z" fill="#2a2a2a"/>
  <path d="M26,530.2v-.77h1.41c-.81-.33-1.56-.92-1.56-1.98,0-1.3,1.08-2.2,3.05-2.2h6.74v.77h-6.67c-1.6,0-2.46.57-2.46,1.58s1.05,1.84,2.61,1.84h6.52v.77h-9.64Z" fill="#2a2a2a"/>
  <path d="M30.93,523.47h-.18c-3.34,0-4.88-1.47-4.88-2.94,0-.48.15-.88.33-1.16h.85c-.26.33-.44.72-.44,1.18,0,.99,1.27,2.15,4.11,2.15h.26c2.9,0,4.06-1.12,4.06-2.22,0-.4-.16-.77-.44-1.1h.81c.22.31.37.68.37,1.16,0,1.51-1.47,2.94-4.83,2.94Z" fill="#2a2a2a"/>
  <path d="M30.99,518.29h-.17c-3.34,0-4.98-1.23-4.98-2.64s1.71-2.52,4.72-2.52h.57v4.39c2.61-.04,3.89-1.1,3.89-2.41,0-.59-.15-1.05-.57-1.67l.79-.09c.39.68.51,1.12.51,1.87,0,1.62-1.58,3.07-4.77,3.07ZM30.46,513.89c-2.22,0-3.89.73-3.89,1.76s1.34,1.8,3.89,1.87v-3.64Z" fill="#2a2a2a"/>
  <path d="M22.65,511.35v-.84h1.29v.84h-1.29ZM26,511.31v-.77h9.64v.77h-9.64Z" fill="#2a2a2a"/>
  <path d="M34.02,508.02h-7.31v.92h-.72v-.92h-2.72v-.77h2.72v-1.56h.72v1.56h7.2c.84,0,1.06-.39,1.06-1.01,0-.18-.04-.44-.09-.59h.72c.07.18.11.46.11.66,0,1.05-.46,1.71-1.69,1.71Z" fill="#2a2a2a"/>
  <path d="M30.9,504.64h-.16c-3.03,0-4.88-1.3-4.88-2.75s1.85-2.72,4.88-2.72h.16c3.03,0,4.88,1.29,4.88,2.74s-1.85,2.74-4.88,2.74ZM30.9,499.94h-.16c-2.53,0-4.17.88-4.17,1.96s1.63,1.96,4.17,1.96h.16c2.53,0,4.17-.88,4.17-1.96s-1.63-1.96-4.17-1.96Z" fill="#2a2a2a"/>
  <path d="M35.29,497.86h-.81c.35-.66.55-1.34.55-1.96,0-.81-.53-1.47-1.43-1.47h-.04c-.68,0-1.36.39-2.44,1.52-1.36,1.43-2.11,1.89-3.08,1.89h-.04c-1.34,0-2.11-1.05-2.11-2.18,0-.64.09-1.08.31-1.6h.81c-.28.55-.4,1.06-.4,1.63,0,.79.51,1.38,1.36,1.38h.04c.7,0,1.23-.37,2.37-1.52,1.34-1.36,2.13-1.89,3.16-1.89h.04c1.36,0,2.18,1.1,2.18,2.28,0,.75-.16,1.3-.46,1.93Z" fill="#2a2a2a"/>
  <path d="M33.78,488.22h1.85v.77h-12.98v-.77h5.2c-1.1-.39-2-1.05-2-2.02,0-1.32,1.69-2.52,4.79-2.52h.35c3.07,0,4.79,1.19,4.79,2.52,0,.97-.9,1.63-2,2.02ZM30.97,484.46h-.31c-2.64,0-4.13.84-4.13,1.84s1.47,1.96,4.06,1.96h.46c2.59,0,4.06-.99,4.06-1.96s-1.49-1.84-4.13-1.84Z" fill="#2a2a2a"/>
  <path d="M30.99,482.17h-.17c-3.34,0-4.98-1.23-4.98-2.64s1.71-2.52,4.72-2.52h.57v4.39c2.61-.04,3.89-1.1,3.89-2.41,0-.59-.15-1.05-.57-1.67l.79-.09c.39.68.51,1.12.51,1.87,0,1.62-1.58,3.07-4.77,3.07ZM30.46,477.76c-2.22,0-3.89.73-3.89,1.76s1.34,1.8,3.89,1.87v-3.64Z" fill="#2a2a2a"/>
  <path d="M26,475.2v-.77h1.41c-.81-.33-1.56-.9-1.56-1.93s.73-1.6,1.63-1.89c-.79-.35-1.63-.97-1.63-2.13,0-1.32,1.05-2.2,3.01-2.2h6.77v.77h-6.7c-1.6,0-2.42.57-2.42,1.52s1.01,1.78,2.57,1.78h6.56v.77h-6.7c-1.6,0-2.42.57-2.42,1.52s1.01,1.78,2.57,1.78h6.56v.77h-9.64Z" fill="#2a2a2a"/>
  <path d="M26,461.18v-.77h1.41c-.88-.37-1.6-1.12-1.52-2.26h.83v.04c0,1.21.77,2.22,2.46,2.22h6.46v.77h-9.64Z" fill="#2a2a2a"/>
  <path d="M30.99,457.22h-.17c-3.34,0-4.98-1.23-4.98-2.64s1.71-2.52,4.72-2.52h.57v4.39c2.61-.04,3.89-1.1,3.89-2.41,0-.59-.15-1.05-.57-1.67l.79-.09c.39.68.51,1.12.51,1.87,0,1.62-1.58,3.07-4.77,3.07ZM30.46,452.81c-2.22,0-3.89.73-3.89,1.76s1.34,1.8,3.89,1.87v-3.64Z" fill="#2a2a2a"/>
  <path d="M26.71,449.98v.99h-.72v-.99h-1.12c-.81,0-1.41-.2-1.78-.57-.31-.31-.48-.75-.48-1.3,0-.15.04-.42.07-.57h.75c-.04.15-.07.44-.07.55,0,.73.48,1.12,1.52,1.12h1.1v-1.58h.72v1.58h8.92v.77h-8.92ZM22.65,446.32v-.84h1.29v.84h-1.29ZM26,446.29v-.77h9.64v.77h-9.64Z" fill="#2a2a2a"/>
  <path d="M26,443.23v-.77h1.41c-.81-.33-1.56-.92-1.56-1.98,0-1.3,1.08-2.2,3.05-2.2h6.74v.77h-6.67c-1.6,0-2.46.57-2.46,1.58s1.05,1.84,2.61,1.84h6.52v.77h-9.64Z" fill="#2a2a2a"/>
  <path d="M32.83,436.66h-.15c-1.78,0-3.08-.92-3.08-2.53,0-.66.16-1.18.37-1.62h-1.21c-1.34,0-2.13.61-2.13,1.84,0,.68.13,1.21.44,1.78h-.75c-.26-.53-.42-1.14-.42-1.82,0-.77.22-1.4.7-1.87.4-.4,1.14-.7,2.08-.7h6.98v.77h-1.4c.96.39,1.56,1.01,1.56,1.95,0,1.3-1.27,2.2-2.98,2.2ZM32.62,432.51h-1.93c-.24.51-.39,1.01-.39,1.58,0,1.19.99,1.8,2.33,1.8h.15c1.3,0,2.33-.53,2.33-1.54,0-1.14-1.23-1.84-2.5-1.84Z" fill="#2a2a2a"/>
  <path d="M30.99,429.92h-.35c-3.07,0-4.79-1.19-4.79-2.52,0-.97.9-1.63,2-2.02h-5.2v-.77h12.98v.77h-1.85c1.1.39,2,1.05,2,2.02,0,1.32-1.69,2.52-4.79,2.52ZM31.04,425.35h-.46c-2.59,0-4.06.99-4.06,1.96s1.49,1.84,4.13,1.84h.31c2.64,0,4.13-.84,4.13-1.84s-1.47-1.96-4.06-1.96Z" fill="#2a2a2a"/>
  <path d="M30.9,422.78h-.16c-3.03,0-4.88-1.3-4.88-2.75s1.85-2.72,4.88-2.72h.16c3.03,0,4.88,1.29,4.88,2.74s-1.85,2.74-4.88,2.74ZM30.9,418.08h-.16c-2.53,0-4.17.88-4.17,1.96s1.63,1.96,4.17,1.96h.16c2.53,0,4.17-.88,4.17-1.96s-1.63-1.96-4.17-1.96Z" fill="#2a2a2a"/>
  <path d="M35.29,416h-.81c.35-.66.55-1.34.55-1.96,0-.81-.53-1.47-1.43-1.47h-.04c-.68,0-1.36.39-2.44,1.52-1.36,1.43-2.11,1.89-3.08,1.89h-.04c-1.34,0-2.11-1.05-2.11-2.18,0-.64.09-1.08.31-1.6h.81c-.28.55-.4,1.06-.4,1.63,0,.79.51,1.38,1.36,1.38h.04c.7,0,1.23-.37,2.37-1.52,1.34-1.36,2.13-1.89,3.16-1.89h.04c1.36,0,2.18,1.1,2.18,2.28,0,.75-.16,1.3-.46,1.93Z" fill="#2a2a2a"/>
  <path d="M37.07,410.5c-.31-.72-.73-.99-1.43-.94v.5h-1.51v-1.14h1.3c1.14,0,1.62.35,2.09,1.36l-.46.22Z" fill="#2a2a2a"/>
  <path d="M26,403.92v-.77h1.41c-.81-.33-1.56-.9-1.56-1.93s.73-1.6,1.63-1.89c-.79-.35-1.63-.97-1.63-2.13,0-1.32,1.05-2.2,3.01-2.2h6.77v.77h-6.7c-1.6,0-2.42.57-2.42,1.52s1.01,1.78,2.57,1.78h6.56v.77h-6.7c-1.6,0-2.42.57-2.42,1.52s1.01,1.78,2.57,1.78h6.56v.77h-9.64Z" fill="#2a2a2a"/>
  <path d="M32.83,393.37h-.15c-1.78,0-3.08-.92-3.08-2.53,0-.66.16-1.18.37-1.62h-1.21c-1.34,0-2.13.61-2.13,1.84,0,.68.13,1.21.44,1.78h-.75c-.26-.53-.42-1.14-.42-1.82,0-.77.22-1.4.7-1.87.4-.4,1.14-.7,2.08-.7h6.98v.77h-1.4c.96.39,1.56,1.01,1.56,1.95,0,1.3-1.27,2.2-2.98,2.2ZM32.62,389.22h-1.93c-.24.51-.39,1.01-.39,1.58,0,1.19.99,1.8,2.33,1.8h.15c1.3,0,2.33-.53,2.33-1.54,0-1.14-1.23-1.84-2.5-1.84Z" fill="#2a2a2a"/>
  <path d="M26,386.31v-.77h1.41c-.81-.33-1.56-.92-1.56-1.98,0-1.3,1.08-2.2,3.05-2.2h6.74v.77h-6.67c-1.6,0-2.46.57-2.46,1.58s1.05,1.84,2.61,1.84h6.52v.77h-9.64Z" fill="#2a2a2a"/>
  <path d="M34.02,379.05h-7.31v.92h-.72v-.92h-2.72v-.77h2.72v-1.56h.72v1.56h7.2c.84,0,1.06-.39,1.06-1.01,0-.18-.04-.44-.09-.59h.72c.07.18.11.46.11.66,0,1.05-.46,1.71-1.69,1.71Z" fill="#2a2a2a"/>
  <path d="M30.99,375.67h-.17c-3.34,0-4.98-1.23-4.98-2.64s1.71-2.52,4.72-2.52h.57v4.39c2.61-.04,3.89-1.1,3.89-2.41,0-.59-.15-1.05-.57-1.67l.79-.09c.39.68.51,1.12.51,1.87,0,1.62-1.58,3.07-4.77,3.07ZM30.46,371.26c-2.22,0-3.89.73-3.89,1.76s1.34,1.8,3.89,1.87v-3.64Z" fill="#2a2a2a"/>
  <path d="M22.65,368.72v-.84h1.29v.84h-1.29ZM26,368.69v-.77h9.64v.77h-9.64Z" fill="#2a2a2a"/>
  <path d="M37.67,365.66h-.79c.28-.7.46-1.52.46-2.15,0-1.3-.62-1.98-1.95-1.98h-2.28c1.1.39,2,1.05,2,2.02,0,1.29-1.6,2.52-4.55,2.52h-.17c-2.92,0-4.55-1.23-4.55-2.52,0-.97.9-1.63,2-2.02h-1.85v-.77h9.36c.88,0,1.54.24,1.98.68.48.48.72,1.19.72,2.11,0,.66-.15,1.45-.39,2.11ZM30.57,361.49h-.17c-2.46,0-3.87,1.03-3.87,1.96s1.38,1.84,3.89,1.84h.13c2.52,0,3.89-.88,3.89-1.84s-1.41-1.96-3.87-1.96Z" fill="#2a2a2a"/>
  <path d="M32.83,359.1h-.15c-1.78,0-3.08-.92-3.08-2.53,0-.66.16-1.18.37-1.62h-1.21c-1.34,0-2.13.61-2.13,1.84,0,.68.13,1.21.44,1.78h-.75c-.26-.53-.42-1.14-.42-1.82,0-.77.22-1.4.7-1.87.4-.4,1.14-.7,2.08-.7h6.98v.77h-1.4c.96.39,1.56,1.01,1.56,1.95,0,1.3-1.27,2.2-2.98,2.2ZM32.62,354.95h-1.93c-.24.51-.39,1.01-.39,1.58,0,1.19.99,1.8,2.33,1.8h.15c1.3,0,2.33-.53,2.33-1.54,0-1.14-1.23-1.84-2.5-1.84Z" fill="#2a2a2a"/>
  <path d="M30.99,349.43h-.35c-3.07,0-4.79-1.19-4.79-2.52,0-.97.9-1.63,2-2.02h-5.2v-.77h12.98v.77h-1.85c1.1.39,2,1.05,2,2.02,0,1.32-1.69,2.52-4.79,2.52ZM31.04,344.86h-.46c-2.59,0-4.06.99-4.06,1.96s1.49,1.84,4.13,1.84h.31c2.64,0,4.13-.84,4.13-1.84s-1.47-1.96-4.06-1.96Z" fill="#2a2a2a"/>
  <path d="M30.99,342.27h-.17c-3.34,0-4.98-1.23-4.98-2.64s1.71-2.52,4.72-2.52h.57v4.39c2.61-.04,3.89-1.1,3.89-2.41,0-.59-.15-1.05-.57-1.67l.79-.09c.39.68.51,1.12.51,1.87,0,1.62-1.58,3.07-4.77,3.07ZM30.46,337.87c-2.22,0-3.89.73-3.89,1.76s1.34,1.8,3.89,1.87v-3.64Z" fill="#2a2a2a"/>
  <path d="M26,332.27v-.77h1.41c-.88-.37-1.6-1.12-1.52-2.26h.83v.04c0,1.21.77,2.22,2.46,2.22h6.46v.77h-9.64Z" fill="#2a2a2a"/>
  <path d="M30.99,328.31h-.17c-3.34,0-4.98-1.23-4.98-2.64s1.71-2.52,4.72-2.52h.57v4.39c2.61-.04,3.89-1.1,3.89-2.41,0-.59-.15-1.05-.57-1.67l.79-.09c.39.68.51,1.12.51,1.87,0,1.62-1.58,3.07-4.77,3.07ZM30.46,323.9c-2.22,0-3.89.73-3.89,1.76s1.34,1.8,3.89,1.87v-3.64Z" fill="#2a2a2a"/>
  <path d="M26.71,321.11v.99h-.72v-.99h-1.12c-.81,0-1.41-.2-1.78-.57-.31-.31-.48-.75-.48-1.3,0-.15.04-.42.07-.57h.75c-.04.15-.07.44-.07.55,0,.73.48,1.12,1.52,1.12h1.1v-1.58h.72v1.58h8.92v.77h-8.92Z" fill="#2a2a2a"/>
  <path d="M30.99,317.86h-.17c-3.34,0-4.98-1.23-4.98-2.64s1.71-2.52,4.72-2.52h.57v4.39c2.61-.04,3.89-1.1,3.89-2.41,0-.59-.15-1.05-.57-1.67l.79-.09c.39.68.51,1.12.51,1.87,0,1.62-1.58,3.07-4.77,3.07ZM30.46,313.46c-2.22,0-3.89.73-3.89,1.76s1.34,1.8,3.89,1.87v-3.64Z" fill="#2a2a2a"/>
  <path d="M26,310.9v-.77h1.41c-.88-.37-1.6-1.12-1.52-2.26h.83v.04c0,1.21.77,2.22,2.46,2.22h6.46v.77h-9.64Z" fill="#2a2a2a"/>
  <path d="M30.99,306.93h-.17c-3.34,0-4.98-1.23-4.98-2.64s1.71-2.52,4.72-2.52h.57v4.39c2.61-.04,3.89-1.1,3.89-2.41,0-.59-.15-1.05-.57-1.67l.79-.09c.39.68.51,1.12.51,1.87,0,1.62-1.58,3.07-4.77,3.07ZM30.46,302.52c-2.22,0-3.89.73-3.89,1.76s1.34,1.8,3.89,1.87v-3.64ZM22.73,304.6v-.62l2.24-1.23v.68l-1.38.88,1.38.88v.64l-2.24-1.23Z" fill="#2a2a2a"/>
  <path d="M26,299.96v-.77h1.41c-.81-.33-1.56-.92-1.56-1.98,0-1.3,1.08-2.2,3.05-2.2h6.74v.77h-6.67c-1.6,0-2.46.57-2.46,1.58s1.05,1.84,2.61,1.84h6.52v.77h-9.64Z" fill="#2a2a2a"/>
  <path d="M30.93,293.24h-.18c-3.34,0-4.88-1.47-4.88-2.94,0-.48.15-.88.33-1.16h.85c-.26.33-.44.72-.44,1.18,0,.99,1.27,2.15,4.11,2.15h.26c2.9,0,4.06-1.12,4.06-2.22,0-.4-.16-.77-.44-1.1h.81c.22.31.37.68.37,1.16,0,1.51-1.47,2.94-4.83,2.94Z" fill="#2a2a2a"/>
  <path d="M22.65,287.5v-.84h1.29v.84h-1.29ZM26,287.46v-.77h9.64v.77h-9.64Z" fill="#2a2a2a"/>
  <path d="M32.83,285h-.15c-1.78,0-3.08-.92-3.08-2.53,0-.66.16-1.18.37-1.62h-1.21c-1.34,0-2.13.61-2.13,1.84,0,.68.13,1.21.44,1.78h-.75c-.26-.53-.42-1.14-.42-1.82,0-.77.22-1.4.7-1.87.4-.4,1.14-.7,2.08-.7h6.98v.77h-1.4c.96.39,1.56,1.01,1.56,1.95,0,1.3-1.27,2.2-2.98,2.2ZM32.62,280.85h-1.93c-.24.51-.39,1.01-.39,1.58,0,1.19.99,1.8,2.33,1.8h.15c1.3,0,2.33-.53,2.33-1.54,0-1.14-1.23-1.84-2.5-1.84Z" fill="#2a2a2a"/>
  <path d="M35.29,278.49h-.81c.35-.66.55-1.34.55-1.96,0-.81-.53-1.47-1.43-1.47h-.04c-.68,0-1.36.39-2.44,1.52-1.36,1.43-2.11,1.89-3.08,1.89h-.04c-1.34,0-2.11-1.05-2.11-2.18,0-.64.09-1.08.31-1.6h.81c-.28.55-.4,1.06-.4,1.63,0,.79.51,1.38,1.36,1.38h.04c.7,0,1.23-.37,2.37-1.52,1.34-1.36,2.13-1.89,3.16-1.89h.04c1.36,0,2.18,1.1,2.18,2.28,0,.75-.16,1.3-.46,1.93Z" fill="#2a2a2a"/>
  <path d="M30.93,270.02h-.18c-3.34,0-4.88-1.47-4.88-2.94,0-.48.15-.88.33-1.16h.85c-.26.33-.44.72-.44,1.18,0,.99,1.27,2.15,4.11,2.15h.26c2.9,0,4.06-1.12,4.06-2.22,0-.4-.16-.77-.44-1.1h.81c.22.31.37.68.37,1.16,0,1.51-1.47,2.94-4.83,2.94Z" fill="#2a2a2a"/>
  <path d="M32.73,264.33h-6.74v-.77h6.67c1.6,0,2.46-.57,2.46-1.58s-1.05-1.84-2.61-1.84h-6.52v-.77h9.64v.77h-1.41c.81.33,1.56.92,1.56,1.98,0,1.3-1.08,2.2-3.05,2.2Z" fill="#2a2a2a"/>
  <path d="M22.65,257.14v-.77h12.98v.77h-12.98Z" fill="#2a2a2a"/>
  <path d="M34.02,253.84h-7.31v.92h-.72v-.92h-2.72v-.77h2.72v-1.56h.72v1.56h7.2c.84,0,1.06-.39,1.06-1.01,0-.18-.04-.44-.09-.59h.72c.07.18.11.46.11.66,0,1.05-.46,1.71-1.69,1.71Z" fill="#2a2a2a"/>
  <path d="M32.73,249.9h-6.74v-.77h6.67c1.6,0,2.46-.57,2.46-1.58s-1.05-1.84-2.61-1.84h-6.52v-.77h9.64v.77h-1.41c.81.33,1.56.92,1.56,1.98,0,1.3-1.08,2.2-3.05,2.2Z" fill="#2a2a2a"/>
  <path d="M26,242.76v-.77h1.41c-.88-.37-1.6-1.12-1.52-2.26h.83v.04c0,1.21.77,2.22,2.46,2.22h6.46v.77h-9.64Z" fill="#2a2a2a"/>
  <path d="M32.83,238.69h-.15c-1.78,0-3.08-.92-3.08-2.53,0-.66.16-1.18.37-1.62h-1.21c-1.34,0-2.13.61-2.13,1.84,0,.68.13,1.21.44,1.78h-.75c-.26-.53-.42-1.14-.42-1.82,0-.77.22-1.4.7-1.87.4-.4,1.14-.7,2.08-.7h6.98v.77h-1.4c.96.39,1.56,1.01,1.56,1.95,0,1.3-1.27,2.2-2.98,2.2ZM32.62,234.54h-1.93c-.24.51-.39,1.01-.39,1.58,0,1.19.99,1.8,2.33,1.8h.15c1.3,0,2.33-.53,2.33-1.54,0-1.14-1.23-1.84-2.5-1.84Z" fill="#2a2a2a"/>
  <path d="M22.65,231.62v-.84h1.29v.84h-1.29ZM26,231.58v-.77h9.64v.77h-9.64Z" fill="#2a2a2a"/>
  <path d="M35.29,229.15h-.81c.35-.66.55-1.34.55-1.96,0-.81-.53-1.47-1.43-1.47h-.04c-.68,0-1.36.39-2.44,1.52-1.36,1.43-2.11,1.89-3.08,1.89h-.04c-1.34,0-2.11-1.05-2.11-2.18,0-.64.09-1.08.31-1.6h.81c-.28.55-.4,1.06-.4,1.63,0,.79.51,1.38,1.36,1.38h.04c.7,0,1.23-.37,2.37-1.52,1.34-1.36,2.13-1.89,3.16-1.89h.04c1.36,0,2.18,1.1,2.18,2.28,0,.75-.16,1.3-.46,1.93Z" fill="#2a2a2a"/>
  <path d="M37.07,223.65c-.31-.72-.73-.99-1.43-.94v.5h-1.51v-1.14h1.3c1.14,0,1.62.35,2.09,1.36l-.46.22Z" fill="#2a2a2a"/>
  <path d="M32.83,217.53h-.15c-1.78,0-3.08-.92-3.08-2.53,0-.66.16-1.18.37-1.62h-1.21c-1.34,0-2.13.61-2.13,1.84,0,.68.13,1.21.44,1.78h-.75c-.26-.53-.42-1.14-.42-1.82,0-.77.22-1.4.7-1.87.4-.4,1.14-.7,2.08-.7h6.98v.77h-1.4c.96.39,1.56,1.01,1.56,1.95,0,1.3-1.27,2.2-2.98,2.2ZM32.62,213.38h-1.93c-.24.51-.39,1.01-.39,1.58,0,1.19.99,1.8,2.33,1.8h.15c1.3,0,2.33-.53,2.33-1.54,0-1.14-1.23-1.84-2.5-1.84Z" fill="#2a2a2a"/>
  <path d="M37.31,209.57l-1.65-.95c-.4,1.21-1.89,2.22-4.72,2.22h-.18c-3.34,0-4.88-1.47-4.88-2.94,0-.48.15-.88.33-1.16h.85c-.26.33-.44.72-.44,1.18,0,.99,1.27,2.15,4.11,2.15h.26c2.9,0,4.06-1.12,4.06-2.22,0-.4-.16-.77-.44-1.1h.81c.22.31.37.68.37,1.16v.13l1.89.7-.35.84Z" fill="#2a2a2a"/>
  <path d="M32.73,205.15h-6.74v-.77h6.67c1.6,0,2.46-.57,2.46-1.58s-1.05-1.84-2.61-1.84h-6.52v-.77h9.64v.77h-1.41c.81.33,1.56.92,1.56,1.98,0,1.3-1.08,2.2-3.05,2.2ZM22.86,201.83l.46-.86,1.84,1.51v.53l-2.3-1.18Z" fill="#2a2a2a"/>
  <path d="M30.93,198.36h-.18c-3.34,0-4.88-1.47-4.88-2.94,0-.48.15-.88.33-1.16h.85c-.26.33-.44.72-.44,1.18,0,.99,1.27,2.15,4.11,2.15h.26c2.9,0,4.06-1.12,4.06-2.22,0-.4-.16-.77-.44-1.1h.81c.22.31.37.68.37,1.16,0,1.51-1.47,2.94-4.83,2.94Z" fill="#2a2a2a"/>
  <path d="M32.83,193.01h-.15c-1.78,0-3.08-.92-3.08-2.53,0-.66.16-1.18.37-1.62h-1.21c-1.34,0-2.13.61-2.13,1.84,0,.68.13,1.21.44,1.78h-.75c-.26-.53-.42-1.14-.42-1.82,0-.77.22-1.4.7-1.87.4-.4,1.14-.7,2.08-.7h6.98v.77h-1.4c.96.39,1.56,1.01,1.56,1.95,0,1.3-1.27,2.2-2.98,2.2ZM32.62,188.86h-1.93c-.24.51-.39,1.01-.39,1.58,0,1.19.99,1.8,2.33,1.8h.15c1.3,0,2.33-.53,2.33-1.54,0-1.14-1.23-1.84-2.5-1.84Z" fill="#2a2a2a"/>
  <path d="M26,185.95v-.77h1.41c-.88-.37-1.6-1.12-1.52-2.26h.83v.04c0,1.21.77,2.22,2.46,2.22h6.46v.77h-9.64Z" fill="#2a2a2a"/>
  <path d="M26,178.43v-.77h1.41c-.81-.33-1.56-.9-1.56-1.93s.73-1.6,1.63-1.89c-.79-.35-1.63-.97-1.63-2.13,0-1.32,1.05-2.2,3.01-2.2h6.77v.77h-6.7c-1.6,0-2.42.57-2.42,1.52s1.01,1.78,2.57,1.78h6.56v.77h-6.7c-1.6,0-2.42.57-2.42,1.52s1.01,1.78,2.57,1.78h6.56v.77h-9.64Z" fill="#2a2a2a"/>
  <path d="M32.83,167.88h-.15c-1.78,0-3.08-.92-3.08-2.53,0-.66.16-1.18.37-1.62h-1.21c-1.34,0-2.13.61-2.13,1.84,0,.68.13,1.21.44,1.78h-.75c-.26-.53-.42-1.14-.42-1.82,0-.77.22-1.4.7-1.87.4-.4,1.14-.7,2.08-.7h6.98v.77h-1.4c.96.39,1.56,1.01,1.56,1.95,0,1.3-1.27,2.2-2.98,2.2ZM32.62,163.73h-1.93c-.24.51-.39,1.01-.39,1.58,0,1.19.99,1.8,2.33,1.8h.15c1.3,0,2.33-.53,2.33-1.54,0-1.14-1.23-1.84-2.5-1.84Z" fill="#2a2a2a"/>
  <path d="M35.29,161.37h-.81c.35-.66.55-1.34.55-1.96,0-.81-.53-1.47-1.43-1.47h-.04c-.68,0-1.36.39-2.44,1.52-1.36,1.43-2.11,1.89-3.08,1.89h-.04c-1.34,0-2.11-1.05-2.11-2.18,0-.64.09-1.08.31-1.6h.81c-.28.55-.4,1.06-.4,1.63,0,.79.51,1.38,1.36,1.38h.04c.7,0,1.23-.37,2.37-1.52,1.34-1.36,2.13-1.89,3.16-1.89h.04c1.36,0,2.18,1.1,2.18,2.28,0,.75-.16,1.3-.46,1.93Z" fill="#2a2a2a"/>
  <path d="M30.93,155.83h-.18c-3.34,0-4.88-1.47-4.88-2.94,0-.48.15-.88.33-1.16h.85c-.26.33-.44.72-.44,1.18,0,.99,1.27,2.15,4.11,2.15h.26c2.9,0,4.06-1.12,4.06-2.22,0-.4-.16-.77-.44-1.1h.81c.22.31.37.68.37,1.16,0,1.51-1.47,2.94-4.83,2.94Z" fill="#2a2a2a"/>
  <path d="M32.83,150.48h-.15c-1.78,0-3.08-.92-3.08-2.53,0-.66.16-1.18.37-1.62h-1.21c-1.34,0-2.13.61-2.13,1.84,0,.68.13,1.21.44,1.78h-.75c-.26-.53-.42-1.14-.42-1.82,0-.77.22-1.4.7-1.87.4-.4,1.14-.7,2.08-.7h6.98v.77h-1.4c.96.39,1.56,1.01,1.56,1.95,0,1.3-1.27,2.2-2.98,2.2ZM32.62,146.33h-1.93c-.24.51-.39,1.01-.39,1.58,0,1.19.99,1.8,2.33,1.8h.15c1.3,0,2.33-.53,2.33-1.54,0-1.14-1.23-1.84-2.5-1.84Z" fill="#2a2a2a"/>
  <path d="M26,144.18v-.79l8.34-1.91-8.34-1.95v-.75l9.7,2.37v.66l-9.7,2.37Z" fill="#2a2a2a"/>
  <path d="M30.9,137.72h-.16c-3.03,0-4.88-1.3-4.88-2.75s1.85-2.72,4.88-2.72h.16c3.03,0,4.88,1.29,4.88,2.74s-1.85,2.74-4.88,2.74ZM30.9,133.02h-.16c-2.53,0-4.17.88-4.17,1.96s1.63,1.96,4.17,1.96h.16c2.53,0,4.17-.88,4.17-1.96s-1.63-1.96-4.17-1.96Z" fill="#2a2a2a"/>
  <path d="M30.99,127.81h-.35c-3.07,0-4.79-1.19-4.79-2.52,0-.97.9-1.63,2-2.02h-5.2v-.77h12.98v.77h-1.85c1.1.39,2,1.05,2,2.02,0,1.32-1.69,2.52-4.79,2.52ZM31.04,123.24h-.46c-2.59,0-4.06.99-4.06,1.96s1.49,1.84,4.13,1.84h.31c2.64,0,4.13-.84,4.13-1.84s-1.47-1.96-4.06-1.96Z" fill="#2a2a2a"/>
  <path d="M30.99,120.65h-.17c-3.34,0-4.98-1.23-4.98-2.64s1.71-2.52,4.72-2.52h.57v4.39c2.61-.04,3.89-1.1,3.89-2.41,0-.59-.15-1.05-.57-1.67l.79-.09c.39.68.51,1.12.51,1.87,0,1.62-1.58,3.07-4.77,3.07ZM30.46,116.25c-2.22,0-3.89.73-3.89,1.76s1.34,1.8,3.89,1.87v-3.64Z" fill="#2a2a2a"/>
  <path d="M30.99,111.04h-.17c-3.34,0-4.98-1.23-4.98-2.64s1.71-2.52,4.72-2.52h.57v4.39c2.61-.04,3.89-1.1,3.89-2.41,0-.59-.15-1.05-.57-1.67l.79-.09c.39.68.51,1.12.51,1.87,0,1.62-1.58,3.07-4.77,3.07ZM30.46,106.63c-2.22,0-3.89.73-3.89,1.76s1.34,1.8,3.89,1.87v-3.64Z" fill="#2a2a2a"/>
  <path d="M29.96,101.95l-3.97-1.63v-.81l4.63,2,5.01-2.17v.83l-4.32,1.8,4.32,1.78v.81l-4.98-2.15-4.66,2v-.83l3.97-1.63Z" fill="#2a2a2a"/>
  <path d="M26,97.73v-.77h1.85c-1.1-.39-2-1.05-2-2.02,0-1.32,1.69-2.52,4.79-2.52h.35c3.07,0,4.79,1.19,4.79,2.52,0,.97-.9,1.63-2,2.02h4.24v.77h-12.03ZM30.97,93.19h-.31c-2.64,0-4.13.84-4.13,1.84s1.47,1.96,4.06,1.96h.46c2.59,0,4.06-.99,4.06-1.96s-1.49-1.84-4.13-1.84Z" fill="#2a2a2a"/>
  <path d="M30.99,90.9h-.17c-3.34,0-4.98-1.23-4.98-2.64s1.71-2.52,4.72-2.52h.57v4.39c2.61-.04,3.89-1.1,3.89-2.41,0-.59-.15-1.05-.57-1.67l.79-.09c.39.68.51,1.12.51,1.87,0,1.62-1.58,3.07-4.77,3.07ZM30.46,86.5c-2.22,0-3.89.73-3.89,1.76s1.34,1.8,3.89,1.87v-3.64Z" fill="#2a2a2a"/>
  <path d="M26,83.94v-.77h1.41c-.88-.37-1.6-1.12-1.52-2.26h.83v.04c0,1.21.77,2.22,2.46,2.22h6.46v.77h-9.64Z" fill="#2a2a2a"/>
  <path d="M22.65,79.35v-.84h1.29v.84h-1.29ZM26,79.32v-.77h9.64v.77h-9.64Z" fill="#2a2a2a"/>
  <path d="M30.99,76.68h-.17c-3.34,0-4.98-1.23-4.98-2.64s1.71-2.52,4.72-2.52h.57v4.39c2.61-.04,3.89-1.1,3.89-2.41,0-.59-.15-1.05-.57-1.67l.79-.09c.39.68.51,1.12.51,1.87,0,1.62-1.58,3.07-4.77,3.07ZM30.46,72.28c-2.22,0-3.89.73-3.89,1.76s1.34,1.8,3.89,1.87v-3.64ZM22.73,74.35v-.62l2.24-1.23v.68l-1.38.88,1.38.88v.64l-2.24-1.23Z" fill="#2a2a2a"/>
  <path d="M26,69.72v-.77h1.41c-.81-.33-1.56-.92-1.56-1.98,0-1.3,1.08-2.2,3.05-2.2h6.74v.77h-6.67c-1.6,0-2.46.57-2.46,1.58s1.05,1.84,2.61,1.84h6.52v.77h-9.64Z" fill="#2a2a2a"/>
  <path d="M30.93,62.99h-.18c-3.34,0-4.88-1.47-4.88-2.94,0-.48.15-.88.33-1.16h.85c-.26.33-.44.72-.44,1.18,0,.99,1.27,2.15,4.11,2.15h.26c2.9,0,4.06-1.12,4.06-2.22,0-.4-.16-.77-.44-1.1h.81c.22.31.37.68.37,1.16,0,1.51-1.47,2.94-4.83,2.94Z" fill="#2a2a2a"/>
  <path d="M22.65,57.25v-.84h1.29v.84h-1.29ZM26,57.22v-.77h9.64v.77h-9.64Z" fill="#2a2a2a"/>
  <path d="M32.83,54.76h-.15c-1.78,0-3.08-.92-3.08-2.53,0-.66.16-1.18.37-1.62h-1.21c-1.34,0-2.13.61-2.13,1.84,0,.68.13,1.21.44,1.78h-.75c-.26-.53-.42-1.14-.42-1.82,0-.77.22-1.4.7-1.87.4-.4,1.14-.7,2.08-.7h6.98v.77h-1.4c.96.39,1.56,1.01,1.56,1.95,0,1.3-1.27,2.2-2.98,2.2ZM32.62,50.61h-1.93c-.24.51-.39,1.01-.39,1.58,0,1.19.99,1.8,2.33,1.8h.15c1.3,0,2.33-.53,2.33-1.54,0-1.14-1.23-1.84-2.5-1.84Z" fill="#2a2a2a"/>
  <path d="M35.29,48.25h-.81c.35-.66.55-1.34.55-1.96,0-.81-.53-1.47-1.43-1.47h-.04c-.68,0-1.36.39-2.44,1.52-1.36,1.43-2.11,1.89-3.08,1.89h-.04c-1.34,0-2.11-1.05-2.11-2.18,0-.64.09-1.08.31-1.6h.81c-.28.55-.4,1.06-.4,1.63,0,.79.51,1.38,1.36,1.38h.04c.7,0,1.23-.37,2.37-1.52,1.34-1.36,2.13-1.89,3.16-1.89h.04c1.36,0,2.18,1.1,2.18,2.28,0,.75-.16,1.3-.46,1.93Z" fill="#2a2a2a"/>
  <path d="M26,39.86v-.79l8.34-1.91-8.34-1.95v-.75l9.7,2.37v.66l-9.7,2.37Z" fill="#2a2a2a"/>
  <path d="M22.65,32.8v-.84h1.29v.84h-1.29ZM26,32.77v-.77h9.64v.77h-9.64Z" fill="#2a2a2a"/>
  <path d="M26,30.32v-.79l8.34-1.91-8.34-1.95v-.75l9.7,2.37v.66l-9.7,2.37Z" fill="#2a2a2a"/>
  <path d="M22.65,23.26v-.84h1.29v.84h-1.29ZM26,23.22v-.77h9.64v.77h-9.64Z" fill="#2a2a2a"/>
  <path d="M30.99,20.54h-.35c-3.07,0-4.79-1.19-4.79-2.52,0-.97.9-1.63,2-2.02h-5.2v-.77h12.98v.77h-1.85c1.1.39,2,1.05,2,2.02,0,1.32-1.69,2.52-4.79,2.52ZM31.04,15.97h-.46c-2.59,0-4.06.99-4.06,1.96s1.49,1.84,4.13,1.84h.31c2.64,0,4.13-.84,4.13-1.84s-1.47-1.96-4.06-1.96Z" fill="#2a2a2a"/>
  <path d="M32.83,13.59h-.15c-1.78,0-3.08-.92-3.08-2.53,0-.66.16-1.18.37-1.62h-1.21c-1.34,0-2.13.61-2.13,1.84,0,.68.13,1.21.44,1.78h-.75c-.26-.53-.42-1.14-.42-1.82,0-.77.22-1.4.7-1.87.4-.4,1.14-.7,2.08-.7h6.98v.77h-1.4c.96.39,1.56,1.01,1.56,1.95,0,1.3-1.27,2.2-2.98,2.2ZM32.62,9.44h-1.93c-.24.51-.39,1.01-.39,1.58,0,1.19.99,1.8,2.33,1.8h.15c1.3,0,2.33-.53,2.33-1.54,0-1.14-1.23-1.84-2.5-1.84Z" fill="#2a2a2a"/>
  <path d="M35.29,7.08h-.81c.35-.66.55-1.34.55-1.96,0-.81-.53-1.47-1.43-1.47h-.04c-.68,0-1.36.39-2.44,1.52-1.36,1.43-2.11,1.89-3.08,1.89h-.04c-1.34,0-2.11-1.05-2.11-2.18,0-.64.09-1.08.31-1.6h.81c-.28.55-.4,1.06-.4,1.63,0,.79.51,1.38,1.36,1.38h.04c.7,0,1.23-.37,2.37-1.52,1.34-1.36,2.13-1.89,3.16-1.89h.04c1.36,0,2.18,1.1,2.18,2.28,0,.75-.16,1.3-.46,1.93Z" fill="#2a2a2a"/>
  <path d="M37.07,1.58c-.31-.72-.73-.99-1.43-.94v.5h-1.51V0h1.3c1.14,0,1.62.35,2.09,1.36l-.46.22Z" fill="#2a2a2a"/>
  <path d="M45.07,694.73v.99h-.72v-.99h-1.12c-.81,0-1.41-.2-1.78-.57-.31-.31-.48-.75-.48-1.3,0-.15.04-.42.07-.57h.75c-.04.15-.07.44-.07.55,0,.73.48,1.12,1.52,1.12h1.1v-1.58h.72v1.58h8.92v.77h-8.92Z" fill="#2a2a2a"/>
  <path d="M49.35,691.48h-.17c-3.34,0-4.98-1.23-4.98-2.64s1.71-2.52,4.72-2.52h.57v4.39c2.61-.04,3.89-1.1,3.89-2.41,0-.59-.15-1.05-.57-1.67l.79-.09c.39.68.51,1.12.51,1.87,0,1.62-1.58,3.07-4.77,3.07ZM48.82,687.07c-2.22,0-3.89.73-3.89,1.76s1.34,1.8,3.89,1.87v-3.64Z" fill="#2a2a2a"/>
  <path d="M44.35,684.52v-.77h1.41c-.88-.37-1.6-1.12-1.52-2.26h.83v.04c0,1.21.77,2.22,2.46,2.22h6.46v.77h-9.64Z" fill="#2a2a2a"/>
  <path d="M44.35,679.95v-.77h1.41c-.81-.33-1.56-.9-1.56-1.93s.73-1.6,1.63-1.89c-.79-.35-1.63-.97-1.63-2.13,0-1.32,1.05-2.2,3.01-2.2h6.77v.77h-6.7c-1.6,0-2.42.57-2.42,1.52s1.01,1.78,2.57,1.78h6.56v.77h-6.7c-1.6,0-2.42.57-2.42,1.52s1.01,1.78,2.57,1.78h6.56v.77h-9.64Z" fill="#2a2a2a"/>
  <path d="M49.35,669.22h-.17c-3.34,0-4.98-1.23-4.98-2.64s1.71-2.52,4.72-2.52h.57v4.39c2.61-.04,3.89-1.1,3.89-2.41,0-.59-.15-1.05-.57-1.67l.79-.09c.39.68.51,1.12.51,1.87,0,1.62-1.58,3.07-4.77,3.07ZM48.82,664.82c-2.22,0-3.89.73-3.89,1.76s1.34,1.8,3.89,1.87v-3.64Z" fill="#2a2a2a"/>
  <path d="M44.35,662.26v-.77h1.41c-.81-.33-1.56-.92-1.56-1.98,0-1.3,1.08-2.2,3.05-2.2h6.74v.77h-6.67c-1.6,0-2.46.57-2.46,1.58s1.05,1.84,2.61,1.84h6.52v.77h-9.64Z" fill="#2a2a2a"/>
  <path d="M52.38,655h-7.31v.92h-.72v-.92h-2.72v-.77h2.72v-1.56h.72v1.56h7.2c.84,0,1.06-.39,1.06-1.01,0-.18-.04-.44-.09-.59h.72c.07.18.11.46.11.66,0,1.05-.46,1.71-1.69,1.71Z" fill="#2a2a2a"/>
  <path d="M49.26,651.62h-.16c-3.03,0-4.88-1.3-4.88-2.75s1.85-2.72,4.88-2.72h.16c3.03,0,4.88,1.29,4.88,2.74s-1.85,2.74-4.88,2.74ZM49.26,646.92h-.16c-2.53,0-4.17.88-4.17,1.96s1.63,1.96,4.17,1.96h.16c2.53,0,4.17-.88,4.17-1.96s-1.63-1.96-4.17-1.96Z" fill="#2a2a2a"/>
  <path d="M49.35,641.18h-.35c-3.07,0-4.79-1.19-4.79-2.52,0-.97.9-1.63,2-2.02h-5.2v-.77h12.98v.77h-1.85c1.1.39,2,1.05,2,2.02,0,1.32-1.69,2.52-4.79,2.52ZM49.4,636.6h-.46c-2.59,0-4.06.99-4.06,1.96s1.49,1.84,4.13,1.84h.31c2.64,0,4.13-.84,4.13-1.84s-1.47-1.96-4.06-1.96Z" fill="#2a2a2a"/>
  <path d="M49.35,634.02h-.17c-3.34,0-4.98-1.23-4.98-2.64s1.71-2.52,4.72-2.52h.57v4.39c2.61-.04,3.89-1.1,3.89-2.41,0-.59-.15-1.05-.57-1.67l.79-.09c.39.68.51,1.12.51,1.87,0,1.62-1.58,3.07-4.77,3.07ZM48.82,629.61c-2.22,0-3.89.73-3.89,1.76s1.34,1.8,3.89,1.87v-3.64Z" fill="#2a2a2a"/>
  <path d="M52.14,622.71h1.85v.77h-12.98v-.77h5.2c-1.1-.39-2-1.05-2-2.02,0-1.32,1.69-2.52,4.79-2.52h.35c3.07,0,4.79,1.19,4.79,2.52,0,.97-.9,1.63-2,2.02ZM49.33,618.94h-.31c-2.64,0-4.13.84-4.13,1.84s1.47,1.96,4.06,1.96h.46c2.59,0,4.06-.99,4.06-1.96s-1.49-1.84-4.13-1.84Z" fill="#2a2a2a"/>
  <path d="M44.35,616.3v-.77h1.41c-.88-.37-1.6-1.12-1.52-2.26h.83v.04c0,1.21.77,2.22,2.46,2.22h6.46v.77h-9.64Z" fill="#2a2a2a"/>
  <path d="M51.18,612.23h-.15c-1.78,0-3.08-.92-3.08-2.53,0-.66.16-1.18.37-1.62h-1.21c-1.34,0-2.13.61-2.13,1.84,0,.68.13,1.21.44,1.78h-.75c-.26-.53-.42-1.14-.42-1.82,0-.77.22-1.4.7-1.87.4-.4,1.14-.7,2.08-.7h6.98v.77h-1.4c.96.39,1.56,1.01,1.56,1.95,0,1.3-1.27,2.2-2.98,2.2ZM50.98,608.08h-1.93c-.24.51-.39,1.01-.39,1.58,0,1.19.99,1.8,2.33,1.8h.15c1.3,0,2.33-.53,2.33-1.54,0-1.14-1.23-1.84-2.5-1.84Z" fill="#2a2a2a"/>
  <path d="M41.01,605.16v-.84h1.29v.84h-1.29ZM44.35,605.13v-.77h9.64v.77h-9.64Z" fill="#2a2a2a"/>
  <path d="M44.35,602.14v-.77h1.41c-.81-.33-1.56-.92-1.56-1.98,0-1.3,1.08-2.2,3.05-2.2h6.74v.77h-6.67c-1.6,0-2.46.57-2.46,1.58s1.05,1.84,2.61,1.84h6.52v.77h-9.64Z" fill="#2a2a2a"/>
  <path d="M53.64,595.59h-.81c.35-.66.55-1.34.55-1.96,0-.81-.53-1.47-1.43-1.47h-.04c-.68,0-1.36.39-2.44,1.52-1.36,1.43-2.11,1.89-3.08,1.89h-.04c-1.34,0-2.11-1.05-2.11-2.18,0-.64.09-1.08.31-1.6h.81c-.28.55-.4,1.06-.4,1.63,0,.79.51,1.38,1.36,1.38h.04c.7,0,1.23-.37,2.37-1.52,1.34-1.36,2.13-1.89,3.16-1.89h.04c1.36,0,2.18,1.1,2.18,2.28,0,.75-.16,1.3-.46,1.93Z" fill="#2a2a2a"/>
  <path d="M52.38,589.36h-7.31v.92h-.72v-.92h-2.72v-.77h2.72v-1.56h.72v1.56h7.2c.84,0,1.06-.39,1.06-1.01,0-.18-.04-.44-.09-.59h.72c.07.18.11.46.11.66,0,1.05-.46,1.71-1.69,1.71Z" fill="#2a2a2a"/>
  <path d="M49.26,585.99h-.16c-3.03,0-4.88-1.3-4.88-2.75s1.85-2.72,4.88-2.72h.16c3.03,0,4.88,1.29,4.88,2.74s-1.85,2.74-4.88,2.74ZM49.26,581.29h-.16c-2.53,0-4.17.88-4.17,1.96s1.63,1.96,4.17,1.96h.16c2.53,0,4.17-.88,4.17-1.96s-1.63-1.96-4.17-1.96Z" fill="#2a2a2a"/>
  <path d="M44.35,578.68v-.77h1.41c-.88-.37-1.6-1.12-1.52-2.26h.83v.04c0,1.21.77,2.22,2.46,2.22h6.46v.77h-9.64Z" fill="#2a2a2a"/>
  <path d="M44.35,574.12v-.77h1.41c-.81-.33-1.56-.9-1.56-1.93s.73-1.6,1.63-1.89c-.79-.35-1.63-.97-1.63-2.13,0-1.32,1.05-2.2,3.01-2.2h6.77v.77h-6.7c-1.6,0-2.42.57-2.42,1.52s1.01,1.78,2.57,1.78h6.56v.77h-6.7c-1.6,0-2.42.57-2.42,1.52s1.01,1.78,2.57,1.78h6.56v.77h-9.64Z" fill="#2a2a2a"/>
  <path d="M53.64,563.6h-.81c.35-.66.55-1.34.55-1.96,0-.81-.53-1.47-1.43-1.47h-.04c-.68,0-1.36.39-2.44,1.52-1.36,1.43-2.11,1.89-3.08,1.89h-.04c-1.34,0-2.11-1.05-2.11-2.18,0-.64.09-1.08.31-1.6h.81c-.28.55-.4,1.06-.4,1.63,0,.79.51,1.38,1.36,1.38h.04c.7,0,1.23-.37,2.37-1.52,1.34-1.36,2.13-1.89,3.16-1.89h.04c1.36,0,2.18,1.1,2.18,2.28,0,.75-.16,1.3-.46,1.93Z" fill="#2a2a2a"/>
  <path d="M55.43,558.1c-.31-.72-.73-.99-1.43-.94v.5h-1.51v-1.14h1.3c1.14,0,1.62.35,2.09,1.36l-.46.22Z" fill="#2a2a2a"/>
  <path d="M49.35,551.37h-.17c-3.34,0-4.98-1.23-4.98-2.64s1.71-2.52,4.72-2.52h.57v4.39c2.61-.04,3.89-1.1,3.89-2.41,0-.59-.15-1.05-.57-1.67l.79-.09c.39.68.51,1.12.51,1.87,0,1.62-1.58,3.07-4.77,3.07ZM48.82,546.96c-2.22,0-3.89.73-3.89,1.76s1.34,1.8,3.89,1.87v-3.64Z" fill="#2a2a2a"/>
  <path d="M53.64,544.84h-.81c.35-.66.55-1.34.55-1.96,0-.81-.53-1.47-1.43-1.47h-.04c-.68,0-1.36.39-2.44,1.52-1.36,1.43-2.11,1.89-3.08,1.89h-.04c-1.34,0-2.11-1.05-2.11-2.18,0-.64.09-1.08.31-1.6h.81c-.28.55-.4,1.06-.4,1.63,0,.79.51,1.38,1.36,1.38h.04c.7,0,1.23-.37,2.37-1.52,1.34-1.36,2.13-1.89,3.16-1.89h.04c1.36,0,2.18,1.1,2.18,2.28,0,.75-.16,1.3-.46,1.93Z" fill="#2a2a2a"/>
  <path d="M53.64,539.31h-.81c.35-.66.55-1.34.55-1.96,0-.81-.53-1.47-1.43-1.47h-.04c-.68,0-1.36.39-2.44,1.52-1.36,1.43-2.11,1.89-3.08,1.89h-.04c-1.34,0-2.11-1.05-2.11-2.18,0-.64.09-1.08.31-1.6h.81c-.28.55-.4,1.06-.4,1.63,0,.79.51,1.38,1.36,1.38h.04c.7,0,1.23-.37,2.37-1.52,1.34-1.36,2.13-1.89,3.16-1.89h.04c1.36,0,2.18,1.1,2.18,2.28,0,.75-.16,1.3-.46,1.93Z" fill="#2a2a2a"/>
  <path d="M49.35,533.78h-.17c-3.34,0-4.98-1.23-4.98-2.64s1.71-2.52,4.72-2.52h.57v4.39c2.61-.04,3.89-1.1,3.89-2.41,0-.59-.15-1.05-.57-1.67l.79-.09c.39.68.51,1.12.51,1.87,0,1.62-1.58,3.07-4.77,3.07ZM48.82,529.37c-2.22,0-3.89.73-3.89,1.76s1.34,1.8,3.89,1.87v-3.64ZM41.09,531.45v-.62l2.24-1.23v.68l-1.38.88,1.38.88v.64l-2.24-1.23Z" fill="#2a2a2a"/>
  <path d="M44.35,526.81v-.77h1.41c-.81-.33-1.56-.92-1.56-1.98,0-1.3,1.08-2.2,3.05-2.2h6.74v.77h-6.67c-1.6,0-2.46.57-2.46,1.58s1.05,1.84,2.61,1.84h6.52v.77h-9.64Z" fill="#2a2a2a"/>
  <path d="M49.29,520.09h-.18c-3.34,0-4.88-1.47-4.88-2.94,0-.48.15-.88.33-1.16h.85c-.26.33-.44.72-.44,1.18,0,.99,1.27,2.15,4.11,2.15h.26c2.9,0,4.06-1.12,4.06-2.22,0-.4-.16-.77-.44-1.1h.81c.22.31.37.68.37,1.16,0,1.51-1.47,2.94-4.83,2.94Z" fill="#2a2a2a"/>
  <path d="M41.01,514.35v-.84h1.29v.84h-1.29ZM44.35,514.31v-.77h9.64v.77h-9.64Z" fill="#2a2a2a"/>
  <path d="M51.18,511.85h-.15c-1.78,0-3.08-.92-3.08-2.53,0-.66.16-1.18.37-1.62h-1.21c-1.34,0-2.13.61-2.13,1.84,0,.68.13,1.21.44,1.78h-.75c-.26-.53-.42-1.14-.42-1.82,0-.77.22-1.4.7-1.87.4-.4,1.14-.7,2.08-.7h6.98v.77h-1.4c.96.39,1.56,1.01,1.56,1.95,0,1.3-1.27,2.2-2.98,2.2ZM50.98,507.7h-1.93c-.24.51-.39,1.01-.39,1.58,0,1.19.99,1.8,2.33,1.8h.15c1.3,0,2.33-.53,2.33-1.54,0-1.14-1.23-1.84-2.5-1.84Z" fill="#2a2a2a"/>
  <path d="M44.35,501.3v-.77h1.41c-.81-.33-1.56-.92-1.56-1.98,0-1.3,1.08-2.2,3.05-2.2h6.74v.77h-6.67c-1.6,0-2.46.57-2.46,1.58s1.05,1.84,2.61,1.84h6.52v.77h-9.64Z" fill="#2a2a2a"/>
  <path d="M51.18,494.72h-.15c-1.78,0-3.08-.92-3.08-2.53,0-.66.16-1.18.37-1.62h-1.21c-1.34,0-2.13.61-2.13,1.84,0,.68.13,1.21.44,1.78h-.75c-.26-.53-.42-1.14-.42-1.82,0-.77.22-1.4.7-1.87.4-.4,1.14-.7,2.08-.7h6.98v.77h-1.4c.96.39,1.56,1.01,1.56,1.95,0,1.3-1.27,2.2-2.98,2.2ZM50.98,490.57h-1.93c-.24.51-.39,1.01-.39,1.58,0,1.19.99,1.8,2.33,1.8h.15c1.3,0,2.33-.53,2.33-1.54,0-1.14-1.23-1.84-2.5-1.84Z" fill="#2a2a2a"/>
  <path d="M52.38,487.5h-7.31v.92h-.72v-.92h-2.72v-.77h2.72v-1.56h.72v1.56h7.2c.84,0,1.06-.39,1.06-1.01,0-.18-.04-.44-.09-.59h.72c.07.18.11.46.11.66,0,1.05-.46,1.71-1.69,1.71Z" fill="#2a2a2a"/>
  <path d="M51.09,483.55h-6.74v-.77h6.67c1.6,0,2.46-.57,2.46-1.58s-1.05-1.84-2.61-1.84h-6.52v-.77h9.64v.77h-1.41c.81.33,1.56.92,1.56,1.98,0,1.3-1.08,2.2-3.05,2.2Z" fill="#2a2a2a"/>
  <path d="M44.35,476.42v-.77h1.41c-.88-.37-1.6-1.12-1.52-2.26h.83v.04c0,1.21.77,2.22,2.46,2.22h6.46v.77h-9.64Z" fill="#2a2a2a"/>
  <path d="M51.18,472.34h-.15c-1.78,0-3.08-.92-3.08-2.53,0-.66.16-1.18.37-1.62h-1.21c-1.34,0-2.13.61-2.13,1.84,0,.68.13,1.21.44,1.78h-.75c-.26-.53-.42-1.14-.42-1.82,0-.77.22-1.4.7-1.87.4-.4,1.14-.7,2.08-.7h6.98v.77h-1.4c.96.39,1.56,1.01,1.56,1.95,0,1.3-1.27,2.2-2.98,2.2ZM50.98,468.19h-1.93c-.24.51-.39,1.01-.39,1.58,0,1.19.99,1.8,2.33,1.8h.15c1.3,0,2.33-.53,2.33-1.54,0-1.14-1.23-1.84-2.5-1.84Z" fill="#2a2a2a"/>
  <path d="M41.01,465.23v-.77h12.98v.77h-12.98Z" fill="#2a2a2a"/>
  <path d="M49.35,458.99h-.35c-3.07,0-4.79-1.19-4.79-2.52,0-.97.9-1.63,2-2.02h-5.2v-.77h12.98v.77h-1.85c1.1.39,2,1.05,2,2.02,0,1.32-1.69,2.52-4.79,2.52ZM49.4,454.42h-.46c-2.59,0-4.06.99-4.06,1.96s1.49,1.84,4.13,1.84h.31c2.64,0,4.13-.84,4.13-1.84s-1.47-1.96-4.06-1.96Z" fill="#2a2a2a"/>
  <path d="M49.35,451.83h-.17c-3.34,0-4.98-1.23-4.98-2.64s1.71-2.52,4.72-2.52h.57v4.39c2.61-.04,3.89-1.1,3.89-2.41,0-.59-.15-1.05-.57-1.67l.79-.09c.39.68.51,1.12.51,1.87,0,1.62-1.58,3.07-4.77,3.07ZM48.82,447.43c-2.22,0-3.89.73-3.89,1.76s1.34,1.8,3.89,1.87v-3.64Z" fill="#2a2a2a"/>
  <path d="M49.26,441.68h-.16c-3.03,0-4.88-1.3-4.88-2.75s1.85-2.72,4.88-2.72h.16c3.03,0,4.88,1.29,4.88,2.74s-1.85,2.74-4.88,2.74ZM49.26,436.98h-.16c-2.53,0-4.17.88-4.17,1.96s1.63,1.96,4.17,1.96h.16c2.53,0,4.17-.88,4.17-1.96s-1.63-1.96-4.17-1.96Z" fill="#2a2a2a"/>
  <path d="M44.35,434.38v-.77h1.41c-.88-.37-1.6-1.12-1.52-2.26h.83v.04c0,1.21.77,2.22,2.46,2.22h6.46v.77h-9.64Z" fill="#2a2a2a"/>
  <path d="M41.01,429.79v-.84h1.29v.84h-1.29ZM44.35,429.76v-.77h9.64v.77h-9.64Z" fill="#2a2a2a"/>
  <path d="M56.03,426.73h-.79c.28-.7.46-1.52.46-2.15,0-1.3-.62-1.98-1.95-1.98h-2.28c1.1.39,2,1.05,2,2.02,0,1.29-1.6,2.52-4.55,2.52h-.17c-2.92,0-4.55-1.23-4.55-2.52,0-.97.9-1.63,2-2.02h-1.85v-.77h9.36c.88,0,1.54.24,1.98.68.48.48.72,1.19.72,2.11,0,.66-.15,1.45-.39,2.11ZM48.93,422.56h-.17c-2.46,0-3.87,1.03-3.87,1.96s1.38,1.84,3.89,1.84h.13c2.52,0,3.89-.88,3.89-1.84s-1.41-1.96-3.87-1.96Z" fill="#2a2a2a"/>
  <path d="M41.01,419.63v-.84h1.29v.84h-1.29ZM44.35,419.59v-.77h9.64v.77h-9.64Z" fill="#2a2a2a"/>
  <path d="M44.35,416.6v-.77h1.41c-.81-.33-1.56-.92-1.56-1.98,0-1.3,1.08-2.2,3.05-2.2h6.74v.77h-6.67c-1.6,0-2.46.57-2.46,1.58s1.05,1.84,2.61,1.84h6.52v.77h-9.64Z" fill="#2a2a2a"/>
  <path d="M51.18,410.03h-.15c-1.78,0-3.08-.92-3.08-2.53,0-.66.16-1.18.37-1.62h-1.21c-1.34,0-2.13.61-2.13,1.84,0,.68.13,1.21.44,1.78h-.75c-.26-.53-.42-1.14-.42-1.82,0-.77.22-1.4.7-1.87.4-.4,1.14-.7,2.08-.7h6.98v.77h-1.4c.96.39,1.56,1.01,1.56,1.95,0,1.3-1.27,2.2-2.98,2.2ZM50.98,405.88h-1.93c-.24.51-.39,1.01-.39,1.58,0,1.19.99,1.8,2.33,1.8h.15c1.3,0,2.33-.53,2.33-1.54,0-1.14-1.23-1.84-2.5-1.84Z" fill="#2a2a2a"/>
  <path d="M41.01,402.92v-.77h12.98v.77h-12.98Z" fill="#2a2a2a"/>
  <path d="M41.01,399.91v-.84h1.29v.84h-1.29ZM44.35,399.88v-.77h9.64v.77h-9.64Z" fill="#2a2a2a"/>
  <path d="M49.35,397.2h-.35c-3.07,0-4.79-1.19-4.79-2.52,0-.97.9-1.63,2-2.02h-5.2v-.77h12.98v.77h-1.85c1.1.39,2,1.05,2,2.02,0,1.32-1.69,2.52-4.79,2.52ZM49.4,392.63h-.46c-2.59,0-4.06.99-4.06,1.96s1.49,1.84,4.13,1.84h.31c2.64,0,4.13-.84,4.13-1.84s-1.47-1.96-4.06-1.96Z" fill="#2a2a2a"/>
  <path d="M51.18,390.24h-.15c-1.78,0-3.08-.92-3.08-2.53,0-.66.16-1.18.37-1.62h-1.21c-1.34,0-2.13.61-2.13,1.84,0,.68.13,1.21.44,1.78h-.75c-.26-.53-.42-1.14-.42-1.82,0-.77.22-1.4.7-1.87.4-.4,1.14-.7,2.08-.7h6.98v.77h-1.4c.96.39,1.56,1.01,1.56,1.95,0,1.3-1.27,2.2-2.98,2.2ZM50.98,386.09h-1.93c-.24.51-.39,1.01-.39,1.58,0,1.19.99,1.8,2.33,1.8h.15c1.3,0,2.33-.53,2.33-1.54,0-1.14-1.23-1.84-2.5-1.84Z" fill="#2a2a2a"/>
  <path d="M49.35,383.5h-.35c-3.07,0-4.79-1.19-4.79-2.52,0-.97.9-1.63,2-2.02h-5.2v-.77h12.98v.77h-1.85c1.1.39,2,1.05,2,2.02,0,1.32-1.69,2.52-4.79,2.52ZM49.4,378.93h-.46c-2.59,0-4.06.99-4.06,1.96s1.49,1.84,4.13,1.84h.31c2.64,0,4.13-.84,4.13-1.84s-1.47-1.96-4.06-1.96Z" fill="#2a2a2a"/>
  <path d="M49.35,376.35h-.17c-3.34,0-4.98-1.23-4.98-2.64s1.71-2.52,4.72-2.52h.57v4.39c2.61-.04,3.89-1.1,3.89-2.41,0-.59-.15-1.05-.57-1.67l.79-.09c.39.68.51,1.12.51,1.87,0,1.62-1.58,3.07-4.77,3.07ZM48.82,371.94c-2.22,0-3.89.73-3.89,1.76s1.34,1.8,3.89,1.87v-3.64Z" fill="#2a2a2a"/>
  <path d="M55.43,370.06c-.31-.72-.73-.99-1.43-.94v.5h-1.51v-1.14h1.3c1.14,0,1.62.35,2.09,1.36l-.46.22Z" fill="#2a2a2a"/>
  <path d="M44.35,362.94v-.77h1.85c-1.1-.39-2-1.05-2-2.02,0-1.32,1.69-2.52,4.79-2.52h.35c3.07,0,4.79,1.19,4.79,2.52,0,.97-.9,1.63-2,2.02h4.24v.77h-12.03ZM49.33,358.4h-.31c-2.64,0-4.13.84-4.13,1.84s1.47,1.96,4.06,1.96h.46c2.59,0,4.06-.99,4.06-1.96s-1.49-1.84-4.13-1.84Z" fill="#2a2a2a"/>
  <path d="M41.01,355.74v-.84h1.29v.84h-1.29ZM44.35,355.71v-.77h9.64v.77h-9.64Z" fill="#2a2a2a"/>
  <path d="M52.38,352.41h-7.31v.92h-.72v-.92h-2.72v-.77h2.72v-1.56h.72v1.56h7.2c.84,0,1.06-.39,1.06-1.01,0-.18-.04-.44-.09-.59h.72c.07.18.11.46.11.66,0,1.05-.46,1.71-1.69,1.71Z" fill="#2a2a2a"/>
  <path d="M51.18,348.82h-.15c-1.78,0-3.08-.92-3.08-2.53,0-.66.16-1.18.37-1.62h-1.21c-1.34,0-2.13.61-2.13,1.84,0,.68.13,1.21.44,1.78h-.75c-.26-.53-.42-1.14-.42-1.82,0-.77.22-1.4.7-1.87.4-.4,1.14-.7,2.08-.7h6.98v.77h-1.4c.96.39,1.56,1.01,1.56,1.95,0,1.3-1.27,2.2-2.98,2.2ZM50.98,344.67h-1.93c-.24.51-.39,1.01-.39,1.58,0,1.19.99,1.8,2.33,1.8h.15c1.3,0,2.33-.53,2.33-1.54,0-1.14-1.23-1.84-2.5-1.84Z" fill="#2a2a2a"/>
  <path d="M49.35,342.08h-.35c-3.07,0-4.79-1.19-4.79-2.52,0-.97.9-1.63,2-2.02h-5.2v-.77h12.98v.77h-1.85c1.1.39,2,1.05,2,2.02,0,1.32-1.69,2.52-4.79,2.52ZM49.4,337.51h-.46c-2.59,0-4.06.99-4.06,1.96s1.49,1.84,4.13,1.84h.31c2.64,0,4.13-.84,4.13-1.84s-1.47-1.96-4.06-1.96Z" fill="#2a2a2a"/>
  <path d="M51.18,335.12h-.15c-1.78,0-3.08-.92-3.08-2.53,0-.66.16-1.18.37-1.62h-1.21c-1.34,0-2.13.61-2.13,1.84,0,.68.13,1.21.44,1.78h-.75c-.26-.53-.42-1.14-.42-1.82,0-.77.22-1.4.7-1.87.4-.4,1.14-.7,2.08-.7h6.98v.77h-1.4c.96.39,1.56,1.01,1.56,1.95,0,1.3-1.27,2.2-2.98,2.2ZM50.98,330.97h-1.93c-.24.51-.39,1.01-.39,1.58,0,1.19.99,1.8,2.33,1.8h.15c1.3,0,2.33-.53,2.33-1.54,0-1.14-1.23-1.84-2.5-1.84Z" fill="#2a2a2a"/>
  <path d="M53.64,328.62h-.81c.35-.66.55-1.34.55-1.96,0-.81-.53-1.47-1.43-1.47h-.04c-.68,0-1.36.39-2.44,1.52-1.36,1.43-2.11,1.89-3.08,1.89h-.04c-1.34,0-2.11-1.05-2.11-2.18,0-.64.09-1.08.31-1.6h.81c-.28.55-.4,1.06-.4,1.63,0,.79.51,1.38,1.36,1.38h.04c.7,0,1.23-.37,2.37-1.52,1.34-1.36,2.13-1.89,3.16-1.89h.04c1.36,0,2.18,1.1,2.18,2.28,0,.75-.16,1.3-.46,1.93Z" fill="#2a2a2a"/>
  <path d="M49.35,319.57h-.35c-3.07,0-4.79-1.19-4.79-2.52,0-.97.9-1.63,2-2.02h-5.2v-.77h12.98v.77h-1.85c1.1.39,2,1.05,2,2.02,0,1.32-1.69,2.52-4.79,2.52ZM49.4,314.99h-.46c-2.59,0-4.06.99-4.06,1.96s1.49,1.84,4.13,1.84h.31c2.64,0,4.13-.84,4.13-1.84s-1.47-1.96-4.06-1.96Z" fill="#2a2a2a"/>
  <path d="M49.35,312.4h-.17c-3.34,0-4.98-1.23-4.98-2.64s1.71-2.52,4.72-2.52h.57v4.39c2.61-.04,3.89-1.1,3.89-2.41,0-.59-.15-1.05-.57-1.67l.79-.09c.39.68.51,1.12.51,1.87,0,1.62-1.58,3.07-4.77,3.07ZM48.82,308c-2.22,0-3.89.73-3.89,1.76s1.34,1.8,3.89,1.87v-3.64Z" fill="#2a2a2a"/>
  <path d="M49.29,302.25h-.18c-3.34,0-4.88-1.47-4.88-2.94,0-.48.15-.88.33-1.16h.85c-.26.33-.44.72-.44,1.18,0,.99,1.27,2.15,4.11,2.15h.26c2.9,0,4.06-1.12,4.06-2.22,0-.4-.16-.77-.44-1.1h.81c.22.31.37.68.37,1.16,0,1.51-1.47,2.94-4.83,2.94Z" fill="#2a2a2a"/>
  <path d="M44.35,296.53v-.77h1.41c-.88-.37-1.6-1.12-1.52-2.26h.83v.04c0,1.21.77,2.22,2.46,2.22h6.46v.77h-9.64Z" fill="#2a2a2a"/>
  <path d="M44.35,291.92v-.77h9.64v.77h-9.64ZM41.12,290.69l.46-.86,1.84,1.51v.53l-2.29-1.18Z" fill="#2a2a2a"/>
  <path d="M52.38,288.42h-7.31v.92h-.72v-.92h-2.72v-.77h2.72v-1.56h.72v1.56h7.2c.84,0,1.06-.39,1.06-1.01,0-.18-.04-.44-.09-.59h.72c.07.18.11.46.11.66,0,1.05-.46,1.71-1.69,1.71Z" fill="#2a2a2a"/>
  <path d="M41.01,284.39v-.84h1.29v.84h-1.29ZM44.35,284.36v-.77h9.64v.77h-9.64Z" fill="#2a2a2a"/>
  <path d="M49.29,281.72h-.18c-3.34,0-4.88-1.47-4.88-2.94,0-.48.15-.88.33-1.16h.85c-.26.33-.44.72-.44,1.18,0,.99,1.27,2.15,4.11,2.15h.26c2.9,0,4.06-1.12,4.06-2.22,0-.4-.16-.77-.44-1.1h.81c.22.31.37.68.37,1.16,0,1.51-1.47,2.94-4.83,2.94Z" fill="#2a2a2a"/>
  <path d="M51.18,276.37h-.15c-1.78,0-3.08-.92-3.08-2.53,0-.66.16-1.18.37-1.62h-1.21c-1.34,0-2.13.61-2.13,1.84,0,.68.13,1.21.44,1.78h-.75c-.26-.53-.42-1.14-.42-1.82,0-.77.22-1.4.7-1.87.4-.4,1.14-.7,2.08-.7h6.98v.77h-1.4c.96.39,1.56,1.01,1.56,1.95,0,1.3-1.27,2.2-2.98,2.2ZM50.98,272.22h-1.93c-.24.51-.39,1.01-.39,1.58,0,1.19.99,1.8,2.33,1.8h.15c1.3,0,2.33-.53,2.33-1.54,0-1.14-1.23-1.84-2.5-1.84Z" fill="#2a2a2a"/>
  <path d="M49.29,266.2h-.18c-3.34,0-4.88-1.47-4.88-2.94,0-.48.15-.88.33-1.16h.85c-.26.33-.44.72-.44,1.18,0,.99,1.27,2.15,4.11,2.15h.26c2.9,0,4.06-1.12,4.06-2.22,0-.4-.16-.77-.44-1.1h.81c.22.31.37.68.37,1.16,0,1.51-1.47,2.94-4.83,2.94Z" fill="#2a2a2a"/>
  <path d="M49.26,261.05h-.16c-3.03,0-4.88-1.3-4.88-2.75s1.85-2.72,4.88-2.72h.16c3.03,0,4.88,1.29,4.88,2.74s-1.85,2.74-4.88,2.74ZM49.26,256.35h-.16c-2.53,0-4.17.88-4.17,1.96s1.63,1.96,4.17,1.96h.16c2.53,0,4.17-.88,4.17-1.96s-1.63-1.96-4.17-1.96Z" fill="#2a2a2a"/>
  <path d="M44.35,253.75v-.77h1.41c-.81-.33-1.56-.92-1.56-1.98,0-1.3,1.08-2.2,3.05-2.2h6.74v.77h-6.67c-1.6,0-2.46.57-2.46,1.58s1.05,1.84,2.61,1.84h6.52v.77h-9.64Z" fill="#2a2a2a"/>
  <path d="M53.64,247.2h-.81c.35-.66.55-1.34.55-1.96,0-.81-.53-1.47-1.43-1.47h-.04c-.68,0-1.36.39-2.44,1.52-1.36,1.43-2.11,1.89-3.08,1.89h-.04c-1.34,0-2.11-1.05-2.11-2.18,0-.64.09-1.08.31-1.6h.81c-.28.55-.4,1.06-.4,1.63,0,.79.51,1.38,1.36,1.38h.04c.7,0,1.23-.37,2.37-1.52,1.34-1.36,2.13-1.89,3.16-1.89h.04c1.36,0,2.18,1.1,2.18,2.28,0,.75-.16,1.3-.46,1.93Z" fill="#2a2a2a"/>
  <path d="M52.38,240.98h-7.31v.92h-.72v-.92h-2.72v-.77h2.72v-1.56h.72v1.56h7.2c.84,0,1.06-.39,1.06-1.01,0-.18-.04-.44-.09-.59h.72c.07.18.11.46.11.66,0,1.05-.46,1.71-1.69,1.71Z" fill="#2a2a2a"/>
  <path d="M44.35,236.98v-.77h1.41c-.88-.37-1.6-1.12-1.52-2.26h.83v.04c0,1.21.77,2.22,2.46,2.22h6.46v.77h-9.64Z" fill="#2a2a2a"/>
  <path d="M51.09,232.45h-6.74v-.77h6.67c1.6,0,2.46-.57,2.46-1.58s-1.05-1.84-2.61-1.84h-6.52v-.77h9.64v.77h-1.41c.81.33,1.56.92,1.56,1.98,0,1.3-1.08,2.2-3.05,2.2Z" fill="#2a2a2a"/>
  <path d="M52.38,225h-7.31v.92h-.72v-.92h-2.72v-.77h2.72v-1.56h.72v1.56h7.2c.84,0,1.06-.39,1.06-1.01,0-.18-.04-.44-.09-.59h.72c.07.18.11.46.11.66,0,1.05-.46,1.71-1.69,1.71Z" fill="#2a2a2a"/>
  <path d="M41.01,220.98v-.84h1.29v.84h-1.29ZM44.35,220.95v-.77h9.64v.77h-9.64Z" fill="#2a2a2a"/>
  <path d="M44.35,218.5v-.79l8.34-1.91-8.34-1.95v-.75l9.7,2.37v.66l-9.7,2.37Z" fill="#2a2a2a"/>
  <path d="M51.18,211.95h-.15c-1.78,0-3.08-.92-3.08-2.53,0-.66.16-1.18.37-1.62h-1.21c-1.34,0-2.13.61-2.13,1.84,0,.68.13,1.21.44,1.78h-.75c-.26-.53-.42-1.14-.42-1.82,0-.77.22-1.4.7-1.87.4-.4,1.14-.7,2.08-.7h6.98v.77h-1.4c.96.39,1.56,1.01,1.56,1.95,0,1.3-1.27,2.2-2.98,2.2ZM50.98,207.8h-1.93c-.24.51-.39,1.01-.39,1.58,0,1.19.99,1.8,2.33,1.8h.15c1.3,0,2.33-.53,2.33-1.54,0-1.14-1.23-1.84-2.5-1.84Z" fill="#2a2a2a"/>
  <path d="M55.43,205.38c-.31-.72-.73-.99-1.43-.94v.5h-1.51v-1.14h1.3c1.14,0,1.62.35,2.09,1.36l-.46.22Z" fill="#2a2a2a"/>
  <path d="M53.64,198.77h-.81c.35-.66.55-1.34.55-1.96,0-.81-.53-1.47-1.43-1.47h-.04c-.68,0-1.36.39-2.44,1.52-1.36,1.43-2.11,1.89-3.08,1.89h-.04c-1.34,0-2.11-1.05-2.11-2.18,0-.64.09-1.08.31-1.6h.81c-.28.55-.4,1.06-.4,1.63,0,.79.51,1.38,1.36,1.38h.04c.7,0,1.23-.37,2.37-1.52,1.34-1.36,2.13-1.89,3.16-1.89h.04c1.36,0,2.18,1.1,2.18,2.28,0,.75-.16,1.3-.46,1.93Z" fill="#2a2a2a"/>
  <path d="M51.18,193.18h-.15c-1.78,0-3.08-.92-3.08-2.53,0-.66.16-1.18.37-1.62h-1.21c-1.34,0-2.13.61-2.13,1.84,0,.68.13,1.21.44,1.78h-.75c-.26-.53-.42-1.14-.42-1.82,0-.77.22-1.4.7-1.87.4-.4,1.14-.7,2.08-.7h6.98v.77h-1.4c.96.39,1.56,1.01,1.56,1.95,0,1.3-1.27,2.2-2.98,2.2ZM50.98,189.03h-1.93c-.24.51-.39,1.01-.39,1.58,0,1.19.99,1.8,2.33,1.8h.15c1.3,0,2.33-.53,2.33-1.54,0-1.14-1.23-1.84-2.5-1.84Z" fill="#2a2a2a"/>
  <path d="M41.01,186.07v-.77h12.98v.77h-12.98Z" fill="#2a2a2a"/>
  <path d="M49.35,179.83h-.35c-3.07,0-4.79-1.19-4.79-2.52,0-.97.9-1.63,2-2.02h-5.2v-.77h12.98v.77h-1.85c1.1.39,2,1.05,2,2.02,0,1.32-1.69,2.52-4.79,2.52ZM49.4,175.25h-.46c-2.59,0-4.06.99-4.06,1.96s1.49,1.84,4.13,1.84h.31c2.64,0,4.13-.84,4.13-1.84s-1.47-1.96-4.06-1.96Z" fill="#2a2a2a"/>
  <path d="M49.35,172.66h-.17c-3.34,0-4.98-1.23-4.98-2.64s1.71-2.52,4.72-2.52h.57v4.39c2.61-.04,3.89-1.1,3.89-2.41,0-.59-.15-1.05-.57-1.67l.79-.09c.39.68.51,1.12.51,1.87,0,1.62-1.58,3.07-4.77,3.07ZM48.82,168.26c-2.22,0-3.89.73-3.89,1.76s1.34,1.8,3.89,1.87v-3.64Z" fill="#2a2a2a"/>
  <path d="M49.26,162.51h-.16c-3.03,0-4.88-1.3-4.88-2.75s1.85-2.72,4.88-2.72h.16c3.03,0,4.88,1.29,4.88,2.74s-1.85,2.74-4.88,2.74ZM49.26,157.81h-.16c-2.53,0-4.17.88-4.17,1.96s1.63,1.96,4.17,1.96h.16c2.53,0,4.17-.88,4.17-1.96s-1.63-1.96-4.17-1.96Z" fill="#2a2a2a"/>
  <path d="M51.09,155.27h-6.74v-.77h6.67c1.6,0,2.46-.57,2.46-1.58s-1.05-1.84-2.61-1.84h-6.52v-.77h9.64v.77h-1.41c.81.33,1.56.92,1.56,1.98,0,1.3-1.08,2.2-3.05,2.2Z" fill="#2a2a2a"/>
  <path d="M53.64,148.69h-.81c.35-.66.55-1.34.55-1.96,0-.81-.53-1.47-1.43-1.47h-.04c-.68,0-1.36.39-2.44,1.52-1.36,1.43-2.11,1.89-3.08,1.89h-.04c-1.34,0-2.11-1.05-2.11-2.18,0-.64.09-1.08.31-1.6h.81c-.28.55-.4,1.06-.4,1.63,0,.79.51,1.38,1.36,1.38h.04c.7,0,1.23-.37,2.37-1.52,1.34-1.36,2.13-1.89,3.16-1.89h.04c1.36,0,2.18,1.1,2.18,2.28,0,.75-.16,1.3-.46,1.93Z" fill="#2a2a2a"/>
  <path d="M51.18,143.09h-.15c-1.78,0-3.08-.92-3.08-2.53,0-.66.16-1.18.37-1.62h-1.21c-1.34,0-2.13.61-2.13,1.84,0,.68.13,1.21.44,1.78h-.75c-.26-.53-.42-1.14-.42-1.82,0-.77.22-1.4.7-1.87.4-.4,1.14-.7,2.08-.7h6.98v.77h-1.4c.96.39,1.56,1.01,1.56,1.95,0,1.3-1.27,2.2-2.98,2.2ZM50.98,138.95h-1.93c-.24.51-.39,1.01-.39,1.58,0,1.19.99,1.8,2.33,1.8h.15c1.3,0,2.33-.53,2.33-1.54,0-1.14-1.23-1.84-2.5-1.84Z" fill="#2a2a2a"/>
  <path d="M49.35,136.36h-.35c-3.07,0-4.79-1.19-4.79-2.52,0-.97.9-1.63,2-2.02h-5.2v-.77h12.98v.77h-1.85c1.1.39,2,1.05,2,2.02,0,1.32-1.69,2.52-4.79,2.52ZM49.4,131.79h-.46c-2.59,0-4.06.99-4.06,1.96s1.49,1.84,4.13,1.84h.31c2.64,0,4.13-.84,4.13-1.84s-1.47-1.96-4.06-1.96Z" fill="#2a2a2a"/>
  <path d="M41.01,128.85v-.84h1.29v.84h-1.29ZM44.35,128.82v-.77h9.64v.77h-9.64Z" fill="#2a2a2a"/>
  <path d="M51.18,126.36h-.15c-1.78,0-3.08-.92-3.08-2.53,0-.66.16-1.18.37-1.62h-1.21c-1.34,0-2.13.61-2.13,1.84,0,.68.13,1.21.44,1.78h-.75c-.26-.53-.42-1.14-.42-1.82,0-.77.22-1.4.7-1.87.4-.4,1.14-.7,2.08-.7h6.98v.77h-1.4c.96.39,1.56,1.01,1.56,1.95,0,1.3-1.27,2.2-2.98,2.2ZM50.98,122.21h-1.93c-.24.51-.39,1.01-.39,1.58,0,1.19.99,1.8,2.33,1.8h.15c1.3,0,2.33-.53,2.33-1.54,0-1.14-1.23-1.84-2.5-1.84Z" fill="#2a2a2a"/>
  <path d="M49.35,116.19h-.17c-3.34,0-4.98-1.23-4.98-2.64s1.71-2.52,4.72-2.52h.57v4.39c2.61-.04,3.89-1.1,3.89-2.41,0-.59-.15-1.05-.57-1.67l.79-.09c.39.68.51,1.12.51,1.87,0,1.62-1.58,3.07-4.77,3.07ZM48.82,111.78c-2.22,0-3.89.73-3.89,1.76s1.34,1.8,3.89,1.87v-3.64Z" fill="#2a2a2a"/>
  <path d="M52.14,104.95c1.1.39,2,1.05,2,2.02,0,1.32-1.69,2.52-4.79,2.52h-.35c-3.07,0-4.79-1.19-4.79-2.52,0-.97.9-1.63,2-2.02h-1.85v-.77h12.03v.77h-4.24ZM49.4,104.91h-.46c-2.59,0-4.06.99-4.06,1.96s1.49,1.84,4.13,1.84h.31c2.64,0,4.13-.84,4.13-1.84s-1.47-1.96-4.06-1.96Z" fill="#2a2a2a"/>
  <path d="M51.09,102.04h-6.74v-.77h6.67c1.6,0,2.46-.57,2.46-1.58s-1.05-1.84-2.61-1.84h-6.52v-.77h9.64v.77h-1.41c.81.33,1.56.92,1.56,1.98,0,1.3-1.08,2.2-3.05,2.2Z" fill="#2a2a2a"/>
  <path d="M41.01,94.88v-.84h1.29v.84h-1.29ZM44.35,94.85v-.77h9.64v.77h-9.64Z" fill="#2a2a2a"/>
  <path d="M41.01,91.8v-.77h12.98v.77h-12.98Z" fill="#2a2a2a"/>
  <path d="M41.01,88.8v-.84h1.29v.84h-1.29ZM44.35,88.76v-.77h9.64v.77h-9.64Z" fill="#2a2a2a"/>
  <path d="M52.14,85h1.85v.77h-12.98v-.77h5.2c-1.1-.39-2-1.05-2-2.02,0-1.32,1.69-2.52,4.79-2.52h.35c3.07,0,4.79,1.19,4.79,2.52,0,.97-.9,1.63-2,2.02ZM49.33,81.24h-.31c-2.64,0-4.13.84-4.13,1.84s1.47,1.96,4.06,1.96h.46c2.59,0,4.06-.99,4.06-1.96s-1.49-1.84-4.13-1.84Z" fill="#2a2a2a"/>
  <path d="M44.35,78.59v-.77h1.41c-.88-.37-1.6-1.12-1.52-2.26h.83v.04c0,1.21.77,2.22,2.46,2.22h6.46v.77h-9.64Z" fill="#2a2a2a"/>
  <path d="M51.18,74.52h-.15c-1.78,0-3.08-.92-3.08-2.53,0-.66.16-1.18.37-1.62h-1.21c-1.34,0-2.13.61-2.13,1.84,0,.68.13,1.21.44,1.78h-.75c-.26-.53-.42-1.14-.42-1.82,0-.77.22-1.4.7-1.87.4-.4,1.14-.7,2.08-.7h6.98v.77h-1.4c.96.39,1.56,1.01,1.56,1.95,0,1.3-1.27,2.2-2.98,2.2ZM50.98,70.37h-1.93c-.24.51-.39,1.01-.39,1.58,0,1.19.99,1.8,2.33,1.8h.15c1.3,0,2.33-.53,2.33-1.54,0-1.14-1.23-1.84-2.5-1.84Z" fill="#2a2a2a"/>
  <path d="M49.35,67.79h-.35c-3.07,0-4.79-1.19-4.79-2.52,0-.97.9-1.63,2-2.02h-5.2v-.77h12.98v.77h-1.85c1.1.39,2,1.05,2,2.02,0,1.32-1.69,2.52-4.79,2.52ZM49.4,63.22h-.46c-2.59,0-4.06.99-4.06,1.96s1.49,1.84,4.13,1.84h.31c2.64,0,4.13-.84,4.13-1.84s-1.47-1.96-4.06-1.96Z" fill="#2a2a2a"/>
  <path d="M51.18,60.83h-.15c-1.78,0-3.08-.92-3.08-2.53,0-.66.16-1.18.37-1.62h-1.21c-1.34,0-2.13.61-2.13,1.84,0,.68.13,1.21.44,1.78h-.75c-.26-.53-.42-1.14-.42-1.82,0-.77.22-1.4.7-1.87.4-.4,1.14-.7,2.08-.7h6.98v.77h-1.4c.96.39,1.56,1.01,1.56,1.95,0,1.3-1.27,2.2-2.98,2.2ZM50.98,56.68h-1.93c-.24.51-.39,1.01-.39,1.58,0,1.19.99,1.8,2.33,1.8h.15c1.3,0,2.33-.53,2.33-1.54,0-1.14-1.23-1.84-2.5-1.84Z" fill="#2a2a2a"/>
  <path d="M52.49,53.81v-1.14h1.51v1.14h-1.51Z" fill="#2a2a2a"/>
  <path d="M68.16,695.32c-2.59,0-6.11-.88-7.82-2.59-.72-.72-.95-1.41-.95-2.08,0-.55.17-1.05.4-1.41l.88.16c-.29.35-.51.81-.51,1.3,0,.55.26,1.01.66,1.41,1.34,1.34,4.57,2.39,7.33,2.39,2.17,0,3.54-.51,3.54-1.82,0-.4-.13-.79-.42-1.29l.84.17c.18.28.35.7.35,1.21,0,1.71-1.49,2.53-4.3,2.53Z" fill="#2a2a2a"/>
  <path d="M69.23,689.94c-2.35,0-4.77-.84-5.89-1.96-.55-.55-.77-1.16-.77-1.69,0-1.27,1.19-2.11,3.27-2.11,2.35,0,4.77.84,5.89,1.96.55.55.77,1.16.77,1.69,0,1.27-1.19,2.11-3.27,2.11ZM71.25,686.67c-.99-.99-3.43-1.73-5.45-1.73-1.6,0-2.52.53-2.52,1.4,0,.4.18.75.53,1.1.99.99,3.43,1.73,5.45,1.73,1.6,0,2.52-.53,2.52-1.4,0-.4-.18-.75-.53-1.1Z" fill="#2a2a2a"/>
  <path d="M62.71,681.53v-.77l1.41.28c-.92-.53-1.56-1.27-1.56-2.22,0-1.05.75-1.74,2.04-1.74.37,0,.83.04,1.67.2l6.08,1.18v.77l-6.15-1.19c-.84-.16-1.25-.18-1.58-.18-.9,0-1.39.42-1.39,1.19,0,1.14,1.25,2.06,2.63,2.33l6.5,1.27v.77l-9.64-1.87Z" fill="#2a2a2a"/>
  <path d="M71.19,675.81c-.29,0-.77-.09-.95-.13l-6.81-1.32v.92l-.72-.15v-.92l-2.72-.51v-.77l2.72.51v-1.56l.72.15v1.56l7.2,1.4c.18.04.33.06.44.06.4,0,.62-.22.62-.73,0-.26-.09-.59-.18-.73l.72.13c.11.18.2.5.2.79,0,.79-.4,1.32-1.23,1.32Z" fill="#2a2a2a"/>
  <path d="M67.85,671.12c.39.06.75.07,1.1.07,1.89,0,2.79-.75,2.79-1.89,0-.51-.18-1.05-.57-1.6l.79.06c.2.26.51.9.51,1.6,0,1.47-1.08,2.59-3.53,2.59-2.11,0-4.43-.79-5.6-1.96-.5-.5-.79-1.05-.79-1.65,0-1.14.99-1.91,2.9-1.91.53,0,1.36.09,2.39.31v4.39ZM67.17,671.01v-3.65c-.61-.13-1.16-.18-1.76-.18-1.29,0-2.13.39-2.13,1.23,0,.37.18.72.51,1.05.73.73,2.04,1.29,3.38,1.56ZM59.39,666.88l.48-.81,1.82,1.85v.59l-2.3-1.63Z" fill="#2a2a2a"/>
  <path d="M62.71,663.82v-.77l1.41.28c-.92-.53-1.56-1.27-1.56-2.17s.61-1.52,1.69-1.63c-1.14-.7-1.69-1.52-1.69-2.44,0-.99.75-1.69,2.04-1.69.37,0,.83.04,1.67.2l6.08,1.18v.77l-6.15-1.19c-.84-.17-1.25-.18-1.58-.18-.9,0-1.39.42-1.39,1.14,0,.99,1.14,1.98,2.42,2.24l6.7,1.3v.77l-6.15-1.19c-.84-.17-1.25-.18-1.58-.18-.9,0-1.39.42-1.39,1.14,0,1.08,1.25,2,2.63,2.28l6.5,1.27v.77l-9.64-1.87Z" fill="#2a2a2a"/>
  <path d="M71.19,650.57c-.29,0-.77-.09-.95-.13l-6.81-1.32v.92l-.72-.15v-.92l-2.72-.51v-.77l2.72.51v-1.56l.72.15v1.56l7.2,1.4c.18.04.33.06.44.06.4,0,.62-.22.62-.73,0-.26-.09-.59-.18-.73l.72.13c.11.18.2.5.2.79,0,.79-.4,1.32-1.23,1.32Z" fill="#2a2a2a"/>
  <path d="M62.71,645.08v-.77l1.41.28c-.88-.53-1.6-1.3-1.52-2.55l.83.17v.07c0,1.32.77,2.33,2.46,2.66l6.46,1.25v.77l-9.64-1.87Z" fill="#2a2a2a"/>
  <path d="M70.22,642.53c-1.19,0-2.37-.4-3.12-1.16-.48-.48-.79-1.12-.79-1.87,0-.66.18-1.25.48-1.74l-.4-.07c-.84-.16-1.18-.2-1.52-.2-.88,0-1.52.4-1.52,1.63,0,.51.11,1.08.37,1.67l-.75-.15c-.24-.53-.35-1.25-.35-1.67,0-1.43.81-2.26,2.17-2.26.4,0,.84.06,1.69.22l5.89,1.14v.77l-1.3-.26c.81.48,1.47,1.12,1.47,2.07,0,1.14-.81,1.87-2.3,1.87ZM69.16,638.21l-1.63-.31c-.33.42-.5,1.12-.5,1.65s.2.96.53,1.29c.62.62,1.69.92,2.66.92,1.1,0,1.62-.51,1.62-1.3,0-1.16-1.25-1.96-2.68-2.24Z" fill="#2a2a2a"/>
  <path d="M74,635.32l-1.65-1.29c-.35.86-1.36,1.49-3.1,1.49-2.11,0-4.55-.77-5.82-2.04-.53-.53-.84-1.16-.84-1.84,0-.5.18-1.01.46-1.3l.83.16c-.31.28-.55.66-.55,1.19,0,.46.22.88.59,1.25,1.12,1.12,3.53,1.8,5.16,1.8,2,0,2.68-.73,2.68-1.58,0-.42-.16-.83-.44-1.21l.83.15c.22.37.35.77.35,1.19,0,.05-.02.11-.02.16l1.91,1.05-.37.81Z" fill="#2a2a2a"/>
  <path d="M69.23,630.31c-2.35,0-4.77-.84-5.89-1.96-.55-.55-.77-1.16-.77-1.69,0-1.27,1.19-2.11,3.27-2.11,2.35,0,4.77.84,5.89,1.96.55.55.77,1.16.77,1.69,0,1.27-1.19,2.11-3.27,2.11ZM71.25,627.04c-.99-.99-3.43-1.73-5.45-1.73-1.6,0-2.52.53-2.52,1.4,0,.4.18.75.53,1.1.99.99,3.43,1.73,5.45,1.73,1.6,0,2.52-.53,2.52-1.4,0-.4-.18-.75-.53-1.1Z" fill="#2a2a2a"/>
  <path d="M71.69,624.41l-.81-.2c.51-.59.84-1.3.84-1.96,0-.88-.55-1.56-1.62-1.56-.59,0-1.23.28-2.29,1.05-1.3.94-2.04,1.25-2.9,1.25-1.23,0-2.31-.77-2.31-2.31,0-.77.31-1.41.61-1.8l.81.18c-.4.48-.68,1.08-.68,1.65,0,.94.61,1.51,1.54,1.51.53,0,1.14-.2,2.28-1.01,1.25-.9,2.04-1.29,2.9-1.29,1.38,0,2.4.84,2.4,2.37,0,.75-.28,1.45-.77,2.13Z" fill="#2a2a2a"/>
  <path d="M70.74,610.6c.97.53,1.76,1.32,1.76,2.2,0,1.14-1.08,1.89-3.07,1.89s-4.81-.66-6.15-2c-.5-.5-.72-.99-.72-1.51,0-1.03.95-1.6,2.13-1.74l-5.32-1.05v-.77l12.98,2.52v.77l-1.62-.31ZM71.25,611.5c-1.12-1.12-3.6-1.73-5.4-1.73-1.67,0-2.61.59-2.61,1.4,0,.35.16.68.5,1.01,1.12,1.12,3.86,1.74,5.71,1.74,1.52,0,2.37-.48,2.37-1.27,0-.39-.2-.79-.57-1.16Z" fill="#2a2a2a"/>
  <path d="M67.85,606.69c.39.06.75.07,1.1.07,1.89,0,2.79-.75,2.79-1.89,0-.51-.18-1.05-.57-1.6l.79.06c.2.26.51.9.51,1.6,0,1.47-1.08,2.59-3.53,2.59-2.11,0-4.43-.79-5.6-1.96-.5-.5-.79-1.05-.79-1.65,0-1.14.99-1.91,2.9-1.91.53,0,1.36.09,2.39.31v4.39ZM67.17,606.58v-3.65c-.61-.13-1.16-.18-1.76-.18-1.29,0-2.13.39-2.13,1.23,0,.37.18.72.51,1.05.73.73,2.04,1.29,3.38,1.56Z" fill="#2a2a2a"/>
  <path d="M69.25,597.35c-2.11,0-4.55-.77-5.82-2.04-.53-.53-.84-1.16-.84-1.84,0-.5.18-1.01.46-1.3l.83.16c-.31.28-.55.66-.55,1.19,0,.46.22.88.59,1.25,1.12,1.12,3.53,1.8,5.16,1.8,2,0,2.68-.73,2.68-1.58,0-.42-.16-.83-.44-1.21l.83.15c.22.37.35.77.35,1.19,0,1.21-1.03,2.22-3.23,2.22Z" fill="#2a2a2a"/>
  <path d="M69.23,592.13c-2.35,0-4.77-.84-5.89-1.96-.55-.55-.77-1.16-.77-1.69,0-1.27,1.19-2.11,3.27-2.11,2.35,0,4.77.84,5.89,1.96.55.55.77,1.16.77,1.69,0,1.27-1.19,2.11-3.27,2.11ZM71.25,588.86c-.99-.99-3.43-1.73-5.45-1.73-1.6,0-2.52.53-2.52,1.4,0,.4.18.75.53,1.1.99.99,3.43,1.73,5.45,1.73,1.6,0,2.52-.53,2.52-1.4,0-.4-.18-.75-.53-1.1Z" fill="#2a2a2a"/>
  <path d="M59.37,583.02v-.77l12.98,2.52v.77l-12.98-2.52Z" fill="#2a2a2a"/>
  <path d="M70.22,582.63c-1.19,0-2.37-.4-3.12-1.16-.48-.48-.79-1.12-.79-1.87,0-.66.18-1.25.48-1.74l-.4-.07c-.84-.16-1.18-.2-1.52-.2-.88,0-1.52.4-1.52,1.63,0,.51.11,1.08.37,1.67l-.75-.15c-.24-.53-.35-1.25-.35-1.67,0-1.43.81-2.26,2.17-2.26.4,0,.84.06,1.69.22l5.89,1.14v.77l-1.3-.26c.81.48,1.47,1.12,1.47,2.07,0,1.14-.81,1.87-2.3,1.87ZM69.16,578.32l-1.63-.31c-.33.42-.5,1.12-.5,1.65s.2.96.53,1.29c.62.62,1.69.92,2.66.92,1.1,0,1.62-.51,1.62-1.3,0-1.16-1.25-1.96-2.68-2.24Z" fill="#2a2a2a"/>
  <path d="M70.37,574.84l1.98.4v.77l-12.98-2.52v-.77l4.96.95c-.97-.53-1.76-1.32-1.76-2.2,0-1.14,1.08-1.89,3.07-1.89s4.81.66,6.15,2c.5.5.72.99.72,1.51,0,1.03-.95,1.6-2.13,1.74ZM71.32,572.1c-1.12-1.12-3.86-1.74-5.71-1.74-1.52,0-2.37.48-2.37,1.27,0,.39.2.79.57,1.16,1.12,1.12,3.6,1.73,5.4,1.73,1.67,0,2.61-.59,2.61-1.4,0-.35-.16-.68-.5-1.01Z" fill="#2a2a2a"/>
  <path d="M69.23,568.36c-2.35,0-4.77-.84-5.89-1.96-.55-.55-.77-1.16-.77-1.69,0-1.27,1.19-2.11,3.27-2.11,2.35,0,4.77.84,5.89,1.96.55.55.77,1.16.77,1.69,0,1.27-1.19,2.11-3.27,2.11ZM71.25,565.09c-.99-.99-3.43-1.73-5.45-1.73-1.6,0-2.52.53-2.52,1.4,0,.4.18.75.53,1.1.99.99,3.43,1.73,5.45,1.73,1.6,0,2.52-.53,2.52-1.4,0-.4-.18-.75-.53-1.1Z" fill="#2a2a2a"/>
  <path d="M62.71,559.95v-.77l1.41.28c-.88-.53-1.6-1.3-1.52-2.55l.83.17v.07c0,1.32.77,2.33,2.46,2.66l6.46,1.25v.77l-9.64-1.87Z" fill="#2a2a2a"/>
  <path d="M70.22,557.4c-1.19,0-2.37-.4-3.12-1.16-.48-.48-.79-1.12-.79-1.87,0-.66.18-1.25.48-1.74l-.4-.07c-.84-.16-1.18-.2-1.52-.2-.88,0-1.52.4-1.52,1.63,0,.51.11,1.08.37,1.67l-.75-.15c-.24-.53-.35-1.25-.35-1.67,0-1.43.81-2.26,2.17-2.26.4,0,.84.06,1.69.22l5.89,1.14v.77l-1.3-.26c.81.48,1.47,1.12,1.47,2.07,0,1.14-.81,1.87-2.3,1.87ZM69.16,553.09l-1.63-.31c-.33.42-.5,1.12-.5,1.65s.2.95.53,1.29c.62.62,1.69.92,2.66.92,1.1,0,1.62-.51,1.62-1.3,0-1.16-1.25-1.96-2.68-2.24Z" fill="#2a2a2a"/>
  <path d="M74,550.2l-1.65-1.29c-.35.86-1.36,1.49-3.1,1.49-2.11,0-4.55-.77-5.82-2.04-.53-.53-.84-1.16-.84-1.84,0-.5.18-1.01.46-1.3l.83.16c-.31.28-.55.66-.55,1.19,0,.46.22.88.59,1.25,1.12,1.12,3.53,1.8,5.16,1.8,2,0,2.68-.73,2.68-1.58,0-.42-.16-.83-.44-1.21l.83.15c.22.37.35.77.35,1.19,0,.05-.02.11-.02.16l1.91,1.05-.37.81Z" fill="#2a2a2a"/>
  <path d="M69.23,545.18c-2.35,0-4.77-.84-5.89-1.96-.55-.55-.77-1.16-.77-1.69,0-1.27,1.19-2.11,3.27-2.11,2.35,0,4.77.84,5.89,1.96.55.55.77,1.16.77,1.69,0,1.27-1.19,2.11-3.27,2.11ZM71.25,541.91c-.99-.99-3.43-1.73-5.45-1.73-1.6,0-2.52.53-2.52,1.4,0,.4.18.75.53,1.1.99.99,3.43,1.73,5.45,1.73,1.6,0,2.52-.53,2.52-1.4,0-.4-.18-.75-.53-1.1ZM60.27,539.23c.92.33,1.38.68,1.38,1.19,0,.33-.16.55-.46.81-.33.29-.44.4-.44.57,0,.22.31.44.84.64l-.16.53c-.92-.33-1.38-.68-1.38-1.19,0-.33.16-.55.46-.81.33-.29.44-.4.44-.57,0-.22-.31-.44-.84-.64l.17-.53Z" fill="#2a2a2a"/>
  <path d="M67.85,537.42c.39.06.75.07,1.1.07,1.89,0,2.79-.75,2.79-1.89,0-.51-.18-1.05-.57-1.6l.79.06c.2.26.51.9.51,1.6,0,1.47-1.08,2.59-3.53,2.59-2.11,0-4.43-.79-5.6-1.96-.5-.5-.79-1.05-.79-1.65,0-1.14.99-1.91,2.9-1.91.53,0,1.36.09,2.39.31v4.39ZM67.17,537.31v-3.65c-.61-.13-1.16-.18-1.76-.18-1.29,0-2.13.39-2.13,1.23,0,.37.18.72.51,1.05.73.73,2.04,1.29,3.38,1.56Z" fill="#2a2a2a"/>
  <path d="M71.69,532.59l-.81-.2c.51-.59.84-1.3.84-1.96,0-.88-.55-1.56-1.62-1.56-.59,0-1.23.28-2.29,1.05-1.3.94-2.04,1.25-2.9,1.25-1.23,0-2.31-.77-2.31-2.31,0-.77.31-1.41.61-1.8l.81.18c-.4.48-.68,1.08-.68,1.65,0,.94.61,1.51,1.54,1.51.53,0,1.14-.2,2.28-1.01,1.25-.9,2.04-1.29,2.9-1.29,1.38,0,2.4.84,2.4,2.37,0,.75-.28,1.45-.77,2.13Z" fill="#2a2a2a"/>
  <path d="M62.71,521.34v-.77l9.64,1.87v.77l-9.64-1.87ZM59.37,520.73v-.84l1.29.24v.84l-1.29-.24Z" fill="#2a2a2a"/>
  <path d="M62.71,518.27v-.77l1.41.28c-.92-.53-1.56-1.27-1.56-2.22,0-1.05.75-1.74,2.04-1.74.37,0,.83.04,1.67.2l6.08,1.18v.77l-6.15-1.19c-.84-.16-1.25-.18-1.58-.18-.9,0-1.39.42-1.39,1.19,0,1.14,1.25,2.06,2.63,2.33l6.5,1.27v.77l-9.64-1.87Z" fill="#2a2a2a"/>
  <path d="M71.19,512.56c-.29,0-.77-.09-.95-.13l-6.81-1.32v.92l-.72-.15v-.92l-2.72-.51v-.77l2.72.51v-1.56l.72.15v1.56l7.2,1.4c.18.04.33.06.44.06.4,0,.62-.22.62-.73,0-.26-.09-.59-.18-.73l.72.13c.11.18.2.5.2.79,0,.79-.4,1.32-1.23,1.32Z" fill="#2a2a2a"/>
  <path d="M67.85,507.87c.39.06.75.07,1.1.07,1.89,0,2.79-.75,2.79-1.89,0-.51-.18-1.05-.57-1.6l.79.06c.2.26.51.9.51,1.6,0,1.47-1.08,2.59-3.53,2.59-2.11,0-4.43-.79-5.6-1.96-.5-.5-.79-1.05-.79-1.65,0-1.14.99-1.91,2.9-1.91.53,0,1.36.09,2.39.31v4.39ZM67.17,507.76v-3.65c-.61-.13-1.16-.18-1.76-.18-1.29,0-2.13.39-2.13,1.23,0,.37.18.72.51,1.05.73.73,2.04,1.29,3.38,1.56Z" fill="#2a2a2a"/>
  <path d="M62.71,500.58v-.77l1.41.28c-.92-.53-1.56-1.27-1.56-2.22,0-1.05.75-1.74,2.04-1.74.37,0,.83.04,1.67.2l6.08,1.18v.77l-6.15-1.19c-.84-.16-1.25-.18-1.58-.18-.9,0-1.39.42-1.39,1.19,0,1.14,1.25,2.06,2.63,2.33l6.5,1.27v.77l-9.64-1.87Z" fill="#2a2a2a"/>
  <path d="M71.69,495.91l-.81-.2c.51-.59.84-1.3.84-1.96,0-.88-.55-1.56-1.62-1.56-.59,0-1.23.28-2.29,1.05-1.3.94-2.04,1.25-2.9,1.25-1.23,0-2.31-.77-2.31-2.31,0-.77.31-1.41.61-1.8l.81.18c-.4.48-.68,1.08-.68,1.65,0,.94.61,1.51,1.54,1.51.53,0,1.14-.2,2.28-1.01,1.25-.9,2.04-1.29,2.9-1.29,1.38,0,2.4.84,2.4,2.37,0,.75-.28,1.45-.77,2.13Z" fill="#2a2a2a"/>
  <path d="M70.22,490.14c-1.19,0-2.37-.4-3.12-1.16-.48-.48-.79-1.12-.79-1.87,0-.66.18-1.25.48-1.74l-.4-.07c-.84-.16-1.18-.2-1.52-.2-.88,0-1.52.4-1.52,1.63,0,.51.11,1.08.37,1.67l-.75-.15c-.24-.53-.35-1.25-.35-1.67,0-1.43.81-2.26,2.17-2.26.4,0,.84.06,1.69.22l5.89,1.14v.77l-1.3-.26c.81.48,1.47,1.12,1.47,2.07,0,1.14-.81,1.87-2.3,1.87ZM69.16,485.83l-1.63-.31c-.33.42-.5,1.12-.5,1.65s.2.96.53,1.29c.62.62,1.69.92,2.66.92,1.1,0,1.62-.51,1.62-1.3,0-1.16-1.25-1.96-2.68-2.24Z" fill="#2a2a2a"/>
  <path d="M71.69,484.1l-.81-.2c.51-.59.84-1.3.84-1.96,0-.88-.55-1.56-1.62-1.56-.59,0-1.23.28-2.29,1.05-1.3.94-2.04,1.25-2.9,1.25-1.23,0-2.31-.77-2.31-2.31,0-.77.31-1.41.61-1.8l.81.18c-.4.48-.68,1.08-.68,1.65,0,.94.61,1.51,1.54,1.51.53,0,1.14-.2,2.28-1.01,1.25-.9,2.04-1.29,2.9-1.29,1.38,0,2.4.84,2.4,2.37,0,.75-.28,1.45-.77,2.13Z" fill="#2a2a2a"/>
  <path d="M67.85,473.6c.39.06.75.07,1.1.07,1.89,0,2.79-.75,2.79-1.89,0-.51-.18-1.05-.57-1.6l.79.06c.2.26.51.9.51,1.6,0,1.47-1.08,2.59-3.53,2.59-2.11,0-4.43-.79-5.6-1.96-.5-.5-.79-1.05-.79-1.65,0-1.14.99-1.91,2.9-1.91.53,0,1.36.09,2.39.31v4.39ZM67.17,473.49v-3.65c-.61-.13-1.16-.18-1.76-.18-1.29,0-2.13.39-2.13,1.23,0,.37.18.72.51,1.05.73.73,2.04,1.29,3.38,1.56Z" fill="#2a2a2a"/>
  <path d="M62.71,462.78v-.77l1.41.28c-.92-.53-1.56-1.27-1.56-2.22,0-1.05.75-1.74,2.04-1.74.37,0,.83.04,1.67.2l6.08,1.18v.77l-6.15-1.19c-.84-.17-1.25-.18-1.58-.18-.9,0-1.39.42-1.39,1.19,0,1.14,1.25,2.06,2.63,2.33l6.5,1.27v.77l-9.64-1.87Z" fill="#2a2a2a"/>
  <path d="M69.23,457.15c-2.35,0-4.77-.84-5.89-1.96-.55-.55-.77-1.16-.77-1.69,0-1.27,1.19-2.11,3.27-2.11,2.35,0,4.77.84,5.89,1.96.55.55.77,1.16.77,1.69,0,1.27-1.19,2.11-3.27,2.11ZM71.25,453.88c-.99-.99-3.43-1.73-5.45-1.73-1.6,0-2.52.53-2.52,1.4,0,.4.18.75.53,1.1.99.99,3.43,1.73,5.45,1.73,1.6,0,2.52-.53,2.52-1.4,0-.4-.18-.75-.53-1.1Z" fill="#2a2a2a"/>
  <path d="M62.71,448.68v-.77l9.64,1.87v.77l-9.64-1.87ZM59.37,448.08v-.84l1.29.24v.84l-1.29-.24Z" fill="#2a2a2a"/>
  <path d="M71.19,447.01c-.29,0-.77-.09-.95-.13l-6.81-1.32v.92l-.72-.15v-.92l-2.72-.51v-.77l2.72.51v-1.56l.72.15v1.56l7.2,1.4c.18.04.33.06.44.06.4,0,.62-.22.62-.73,0-.26-.09-.59-.18-.73l.72.13c.11.18.2.5.2.79,0,.79-.4,1.32-1.23,1.32Z" fill="#2a2a2a"/>
  <path d="M67.85,442.33c.39.06.75.07,1.1.07,1.89,0,2.79-.75,2.79-1.89,0-.51-.18-1.05-.57-1.6l.79.06c.2.26.51.9.51,1.6,0,1.47-1.08,2.59-3.53,2.59-2.11,0-4.43-.79-5.6-1.96-.5-.5-.79-1.05-.79-1.65,0-1.14.99-1.91,2.9-1.91.53,0,1.36.09,2.39.31v4.39ZM67.17,442.22v-3.65c-.61-.13-1.16-.18-1.76-.18-1.29,0-2.13.39-2.13,1.23,0,.37.18.72.51,1.05.73.73,2.04,1.29,3.38,1.56Z" fill="#2a2a2a"/>
  <path d="M71.69,437.49l-.81-.2c.51-.59.84-1.3.84-1.96,0-.88-.55-1.56-1.62-1.56-.59,0-1.23.28-2.29,1.05-1.3.94-2.04,1.25-2.9,1.25-1.23,0-2.31-.77-2.31-2.31,0-.77.31-1.41.61-1.8l.81.18c-.4.48-.68,1.08-.68,1.65,0,.94.61,1.51,1.54,1.51.53,0,1.14-.2,2.28-1.01,1.25-.9,2.04-1.29,2.9-1.29,1.38,0,2.4.84,2.4,2.37,0,.75-.28,1.45-.77,2.13Z" fill="#2a2a2a"/>
  <path d="M62.71,426.35v-.77l1.41.28c-.92-.53-1.56-1.27-1.56-2.17s.61-1.52,1.69-1.63c-1.14-.7-1.69-1.52-1.69-2.44,0-.99.75-1.69,2.04-1.69.37,0,.83.04,1.67.2l6.08,1.18v.77l-6.15-1.19c-.84-.17-1.25-.18-1.58-.18-.9,0-1.39.42-1.39,1.14,0,.99,1.14,1.98,2.42,2.24l6.7,1.3v.77l-6.15-1.19c-.84-.17-1.25-.18-1.58-.18-.9,0-1.39.42-1.39,1.14,0,1.08,1.25,2,2.63,2.28l6.5,1.27v.77l-9.64-1.87Z" fill="#2a2a2a"/>
  <path d="M70.22,417.24c-1.19,0-2.37-.4-3.12-1.16-.48-.48-.79-1.12-.79-1.87,0-.66.18-1.25.48-1.74l-.4-.07c-.84-.16-1.18-.2-1.52-.2-.88,0-1.52.4-1.52,1.63,0,.51.11,1.08.37,1.67l-.75-.15c-.24-.53-.35-1.25-.35-1.67,0-1.43.81-2.26,2.17-2.26.4,0,.84.06,1.69.22l5.89,1.14v.77l-1.3-.26c.81.48,1.47,1.12,1.47,2.07,0,1.14-.81,1.87-2.3,1.87ZM69.16,412.92l-1.63-.31c-.33.42-.5,1.12-.5,1.65s.2.95.53,1.29c.62.62,1.69.92,2.66.92,1.1,0,1.62-.51,1.62-1.3,0-1.16-1.25-1.96-2.68-2.24Z" fill="#2a2a2a"/>
  <path d="M59.37,408.06v-.77l12.98,2.52v.77l-12.98-2.52Z" fill="#2a2a2a"/>
  <path d="M70.74,399.45c.97.53,1.76,1.32,1.76,2.2,0,1.14-1.08,1.89-3.07,1.89s-4.81-.66-6.15-2c-.5-.5-.72-.99-.72-1.51,0-1.03.95-1.6,2.13-1.74l-5.32-1.05v-.77l12.98,2.52v.77l-1.62-.31ZM71.25,400.35c-1.12-1.12-3.6-1.73-5.4-1.73-1.67,0-2.61.59-2.61,1.4,0,.35.16.68.5,1.01,1.12,1.12,3.86,1.74,5.71,1.74,1.52,0,2.37-.48,2.37-1.27,0-.39-.2-.79-.57-1.16Z" fill="#2a2a2a"/>
  <path d="M69.23,396.37c-2.35,0-4.77-.84-5.89-1.96-.55-.55-.77-1.16-.77-1.69,0-1.27,1.19-2.11,3.27-2.11,2.35,0,4.77.84,5.89,1.96.55.55.77,1.16.77,1.69,0,1.27-1.19,2.11-3.27,2.11ZM71.25,393.1c-.99-.99-3.43-1.73-5.45-1.73-1.6,0-2.52.53-2.52,1.4,0,.4.18.75.53,1.1.99.99,3.43,1.73,5.45,1.73,1.6,0,2.52-.53,2.52-1.4,0-.4-.18-.75-.53-1.1Z" fill="#2a2a2a"/>
  <path d="M62.71,387.95v-.77l1.41.28c-.88-.53-1.6-1.3-1.52-2.55l.83.17v.07c0,1.32.77,2.33,2.46,2.66l6.46,1.25v.77l-9.64-1.87Z" fill="#2a2a2a"/>
  <path d="M62.71,383.51v-.77l1.41.28c-.92-.53-1.56-1.27-1.56-2.17s.61-1.52,1.69-1.63c-1.14-.7-1.69-1.52-1.69-2.44,0-.99.75-1.69,2.04-1.69.37,0,.83.04,1.67.2l6.08,1.18v.77l-6.15-1.19c-.84-.17-1.25-.18-1.58-.18-.9,0-1.39.42-1.39,1.14,0,.99,1.14,1.98,2.42,2.24l6.7,1.3v.77l-6.15-1.19c-.84-.17-1.25-.18-1.58-.18-.9,0-1.39.42-1.39,1.14,0,1.08,1.25,2,2.63,2.28l6.5,1.27v.77l-9.64-1.87Z" fill="#2a2a2a"/>
  <path d="M62.71,372.36v-.77l9.64,1.87v.77l-9.64-1.87ZM59.37,371.76v-.84l1.29.24v.84l-1.29-.24Z" fill="#2a2a2a"/>
  <path d="M70.74,366.66c.97.53,1.76,1.32,1.76,2.2,0,1.14-1.08,1.89-3.07,1.89s-4.81-.66-6.15-2c-.5-.5-.72-.99-.72-1.51,0-1.03.95-1.6,2.13-1.74l-5.32-1.05v-.77l12.98,2.52v.77l-1.62-.31ZM71.25,367.56c-1.12-1.12-3.6-1.73-5.4-1.73-1.67,0-2.61.59-2.61,1.4,0,.35.16.68.5,1.01,1.12,1.12,3.86,1.74,5.71,1.74,1.52,0,2.37-.48,2.37-1.27,0-.39-.2-.79-.57-1.16Z" fill="#2a2a2a"/>
  <path d="M70.22,364.12c-1.19,0-2.37-.4-3.12-1.16-.48-.48-.79-1.12-.79-1.87,0-.66.18-1.25.48-1.74l-.4-.07c-.84-.16-1.18-.2-1.52-.2-.88,0-1.52.4-1.52,1.63,0,.51.11,1.08.37,1.67l-.75-.15c-.24-.53-.35-1.25-.35-1.67,0-1.43.81-2.26,2.17-2.26.4,0,.84.06,1.69.22l5.89,1.14v.77l-1.3-.26c.81.48,1.47,1.12,1.47,2.07,0,1.14-.81,1.87-2.3,1.87ZM69.16,359.8l-1.63-.31c-.33.42-.5,1.12-.5,1.65s.2.96.53,1.29c.62.62,1.69.92,2.66.92,1.1,0,1.62-.51,1.62-1.3,0-1.16-1.25-1.96-2.68-2.24Z" fill="#2a2a2a"/>
  <path d="M71.69,358.07l-.81-.2c.51-.59.84-1.3.84-1.96,0-.88-.55-1.56-1.62-1.56-.59,0-1.23.28-2.29,1.05-1.3.94-2.04,1.25-2.9,1.25-1.23,0-2.31-.77-2.31-2.31,0-.77.31-1.41.61-1.8l.81.18c-.4.48-.68,1.08-.68,1.65,0,.94.61,1.51,1.54,1.51.53,0,1.14-.2,2.28-1.01,1.25-.9,2.04-1.29,2.9-1.29,1.38,0,2.4.84,2.4,2.37,0,.75-.28,1.45-.77,2.13Z" fill="#2a2a2a"/>
  <path d="M70.85,351.92v-1.14l1.51.29v1.14l-1.51-.29Z" fill="#2a2a2a"/>
</svg>