<?xml version="1.0" encoding="UTF-8"?>
<svg id="a" data-name="Camada 1" xmlns="http://www.w3.org/2000/svg" viewBox="0 0 695.72 74.37">
  <path d="M.27,7.05v-.39C.27,2.12,1.98,0,3.97,0c.62,0,.94.12,1.39.33v1.31c-.5-.29-.87-.42-1.31-.42-1.39,0-2.51,1.73-2.51,5.45v.39c0,3.78,1.12,5.45,2.51,5.45.46,0,.87-.14,1.35-.44v1.25c-.42.27-.89.4-1.48.4C1.87,13.72.27,11.6.27,7.05Z" fill="#2a2a2a"/>
  <path d="M6.68,8.67v-.29c0-3.22,1.35-5.11,2.97-5.11s2.95,1.89,2.95,5.11v.29c0,3.22-1.35,5.11-2.97,5.11s-2.95-1.89-2.95-5.11ZM11.38,8.67v-.31c0-2.49-.77-3.99-1.75-3.99s-1.75,1.5-1.75,3.99v.31c0,2.49.77,4.01,1.75,4.01s1.75-1.52,1.75-4.01Z" fill="#2a2a2a"/>
  <path d="M14.4,3.43h1.19v1.41c.39-.85.96-1.58,1.97-1.58s1.6.71,1.93,1.58c.37-.75,1-1.58,2.14-1.58,1.29,0,2.25,1.06,2.25,3.06v7.28h-1.19v-7.11c0-1.43-.52-2.18-1.37-2.18s-1.58.91-1.58,2.29v7h-1.19v-7.11c0-1.43-.52-2.18-1.37-2.18s-1.58.91-1.58,2.29v7h-1.19V3.43Z" fill="#2a2a2a"/>
  <path d="M25.99,3.43h1.19v1.77c.39-1.02,1.02-1.95,2.04-1.95,1.35,0,2.52,1.62,2.52,5.01v.5c0,3.35-1.18,5.01-2.52,5.01-1.02,0-1.66-.93-2.04-1.93v4.26h-1.19V3.43ZM30.54,8.73v-.42c0-2.53-.71-3.93-1.64-3.93s-1.75,1.39-1.75,3.87v.54c0,2.49.85,3.87,1.75,3.87s1.64-1.41,1.64-3.93Z" fill="#2a2a2a"/>
  <path d="M33.28,8.67v-.29c0-3.22,1.35-5.11,2.97-5.11s2.95,1.89,2.95,5.11v.29c0,3.22-1.35,5.11-2.97,5.11s-2.95-1.89-2.95-5.11ZM37.99,8.67v-.31c0-2.49-.77-3.99-1.75-3.99s-1.75,1.5-1.75,3.99v.31c0,2.49.77,4.01,1.75,4.01s1.75-1.52,1.75-4.01Z" fill="#2a2a2a"/>
  <path d="M40.52,13.26v-1.21c.71.37,1.41.6,2.02.6.77,0,1.37-.5,1.37-1.33v-.02c0-.64-.35-1.25-1.48-2.33-1.39-1.31-1.93-2.14-1.93-3.24v-.04c0-1.5,1.12-2.39,2.47-2.39.66,0,1.14.1,1.68.33v1.21c-.56-.27-1.1-.42-1.68-.42-.75,0-1.29.46-1.29,1.23v.02c0,.64.33,1.12,1.5,2.27,1.39,1.37,1.91,2.2,1.91,3.3v.04c0,1.52-1.18,2.47-2.52,2.47-.75,0-1.39-.17-2.04-.48Z" fill="#2a2a2a"/>
  <path d="M46.66,0h1.27v1.58h-1.27V0ZM46.68,3.43h1.21v10.18h-1.21V3.43Z" fill="#2a2a2a"/>
  <path d="M50.93,15.34l1.04-1.73c-1.27-.44-2.25-2.04-2.25-4.91v-.31c0-3.45,1.48-5.09,3.12-5.09.54,0,.94.12,1.27.33v1.27c-.37-.27-.75-.44-1.21-.44-.94,0-1.97,1.18-1.97,3.89v.39c0,2.78.98,3.87,2.04,3.87.39,0,.79-.19,1.14-.46v1.21c-.37.25-.75.4-1.29.4l-.71,2.06-1.18-.48Z" fill="#2a2a2a"/>
  <path d="M55.39,10.68v-.19c0-2,.96-3.26,2.56-3.26.64,0,1.16.17,1.62.39v-1.1c0-1.31-.62-2.06-1.81-2.06-.67,0-1.25.15-1.83.46v-1.16c.6-.29,1.27-.44,1.97-.44.89,0,1.56.25,2.08.75.48.48.79,1.29.79,2.33v7.21h-1.21v-1.37c-.4.96-1.02,1.54-1.95,1.54-1.31,0-2.22-1.29-2.22-3.1ZM58.18,2c-.37-.31-.54-.4-.71-.4-.23,0-.39.27-.54.83l-.75-.19c.23-1.1.58-1.6,1.14-1.6.4,0,.67.17,1.02.46.37.29.54.4.71.4.23,0,.39-.27.54-.83l.75.19c-.23,1.1-.58,1.6-1.14,1.6-.4,0-.67-.17-1.02-.46ZM59.57,10.56v-1.95c-.44-.21-.93-.37-1.41-.37-1.04,0-1.6.87-1.6,2.16v.19c0,1.27.5,2.14,1.39,2.14.96,0,1.62-1.02,1.62-2.18Z" fill="#2a2a2a"/>
  <path d="M62.53,8.67v-.29c0-3.22,1.35-5.11,2.97-5.11s2.95,1.89,2.95,5.11v.29c0,3.22-1.35,5.11-2.97,5.11s-2.95-1.89-2.95-5.11ZM67.23,8.67v-.31c0-2.49-.77-3.99-1.75-3.99s-1.75,1.5-1.75,3.99v.31c0,2.49.77,4.01,1.75,4.01s1.75-1.52,1.75-4.01Z" fill="#2a2a2a"/>
  <path d="M73.56,7.05v-.39c0-4.55,1.72-6.67,3.7-6.67.62,0,.94.12,1.39.33v1.31c-.5-.29-.87-.42-1.31-.42-1.39,0-2.51,1.73-2.51,5.45v.39c0,3.78,1.12,5.45,2.51,5.45.46,0,.87-.14,1.35-.44v1.25c-.42.27-.89.4-1.48.4-2.04,0-3.64-2.12-3.64-6.67Z" fill="#2a2a2a"/>
  <path d="M80.39,3.43h1.19v1.43c.37-.91,1.08-1.62,2.18-1.54v1.37h-.04c-1.21,0-2.14.79-2.14,2.49v6.44h-1.19V3.43Z" fill="#2a2a2a"/>
  <path d="M85.29,0h1.27v1.58h-1.27V0ZM85.31,3.43h1.21v10.18h-1.21V3.43Z" fill="#2a2a2a"/>
  <path d="M88.19,10.68v-.19c0-2,.96-3.26,2.56-3.26.64,0,1.16.17,1.62.39v-1.1c0-1.31-.62-2.06-1.81-2.06-.67,0-1.25.15-1.83.46v-1.16c.6-.29,1.27-.44,1.97-.44.89,0,1.56.25,2.08.75.48.48.79,1.29.79,2.33v7.21h-1.21v-1.37c-.4.96-1.02,1.54-1.95,1.54-1.31,0-2.22-1.29-2.22-3.1ZM92.38,10.56v-1.95c-.44-.21-.93-.37-1.41-.37-1.04,0-1.6.87-1.6,2.16v.19c0,1.27.5,2.14,1.39,2.14.96,0,1.62-1.02,1.62-2.18Z" fill="#2a2a2a"/>
  <path d="M95.82,11.89v-7.42h-.87v-1.04h.87V.64h1.21v2.79h1.52v1.04h-1.52v7.13c0,.77.35.98.94.98.17,0,.42-.04.6-.1v1.04c-.23.1-.6.17-.87.17-1.1,0-1.89-.44-1.89-1.81Z" fill="#2a2a2a"/>
  <path d="M100.19,0h1.27v1.58h-1.27V0ZM100.21,3.43h1.21v10.18h-1.21V3.43Z" fill="#2a2a2a"/>
  <path d="M103.02,3.43h1.21l1.75,8.19,1.77-8.19h1.18l-2.37,10.23h-1.14l-2.41-10.23Z" fill="#2a2a2a"/>
  <path d="M110.01,10.68v-.19c0-2,.96-3.26,2.56-3.26.64,0,1.16.17,1.62.39v-1.1c0-1.31-.62-2.06-1.81-2.06-.67,0-1.25.15-1.83.46v-1.16c.6-.29,1.27-.44,1.97-.44.89,0,1.56.25,2.08.75.48.48.79,1.29.79,2.33v7.21h-1.21v-1.37c-.4.96-1.02,1.54-1.95,1.54-1.31,0-2.22-1.29-2.22-3.1ZM114.19,10.56v-1.95c-.44-.21-.93-.37-1.41-.37-1.04,0-1.6.87-1.6,2.16v.19c0,1.27.5,2.14,1.39,2.14.96,0,1.62-1.02,1.62-2.18Z" fill="#2a2a2a"/>
  <path d="M117.21,3.43h1.58v1.87h-1.58v-1.87ZM117.21,11.74h1.58v1.87h-1.58v-1.87Z" fill="#2a2a2a"/>
  <path d="M.79,22.78h.81v12.85h-.81v-12.85Z" fill="#2a2a2a"/>
  <path d="M3.6,30.99v-.35c0-3.07,1.19-4.79,2.52-4.79.97,0,1.63.9,2.02,2v-5.2h.77v12.98h-.77v-1.85c-.39,1.1-1.05,2-2.02,2-1.32,0-2.52-1.69-2.52-4.79ZM8.17,31.04v-.46c0-2.59-.99-4.06-1.96-4.06s-1.84,1.49-1.84,4.13v.31c0,2.64.84,4.13,1.84,4.13s1.96-1.47,1.96-4.06Z" fill="#2a2a2a"/>
  <path d="M10.76,30.99v-.17c0-3.34,1.23-4.98,2.64-4.98s2.52,1.71,2.52,4.72v.57h-4.39c.04,2.61,1.1,3.89,2.41,3.89.59,0,1.05-.15,1.67-.57l.09.79c-.68.39-1.12.51-1.87.51-1.62,0-3.07-1.58-3.07-4.77ZM15.17,30.46c0-2.22-.73-3.89-1.76-3.89s-1.8,1.34-1.87,3.89h3.64Z" fill="#2a2a2a"/>
  <path d="M17.71,22.65h.84v1.29h-.84v-1.29ZM17.74,26h.77v9.64h-.77v-9.64Z" fill="#2a2a2a"/>
  <path d="M20.2,32.83v-.15c0-1.78.92-3.08,2.53-3.08.66,0,1.18.16,1.62.37v-1.21c0-1.34-.61-2.13-1.84-2.13-.68,0-1.21.13-1.78.44v-.75c.53-.26,1.14-.42,1.82-.42.77,0,1.4.22,1.87.7.4.4.7,1.14.7,2.08v6.98h-.77v-1.4c-.39.96-1.01,1.56-1.95,1.56-1.3,0-2.2-1.27-2.2-2.98ZM24.35,32.62v-1.93c-.51-.24-1.01-.39-1.58-.39-1.19,0-1.8.99-1.8,2.33v.15c0,1.3.53,2.33,1.54,2.33,1.14,0,1.84-1.23,1.84-2.5Z" fill="#2a2a2a"/>
  <path d="M26.71,35.29v-.81c.66.35,1.34.55,1.96.55.81,0,1.47-.53,1.47-1.43v-.04c0-.68-.39-1.36-1.52-2.44-1.43-1.36-1.89-2.11-1.89-3.08v-.04c0-1.34,1.05-2.11,2.18-2.11.64,0,1.08.09,1.6.31v.81c-.55-.28-1.06-.4-1.63-.4-.79,0-1.38.51-1.38,1.36v.04c0,.7.37,1.23,1.52,2.37,1.36,1.34,1.89,2.13,1.89,3.16v.04c0,1.36-1.1,2.18-2.28,2.18-.75,0-1.3-.16-1.93-.46Z" fill="#2a2a2a"/>
  <path d="M35.65,22.65h.84v1.29h-.84v-1.29ZM35.69,26h.77v9.64h-.77v-9.64Z" fill="#2a2a2a"/>
  <path d="M38.68,26h.77v1.41c.33-.81.92-1.56,1.98-1.56,1.3,0,2.2,1.08,2.2,3.05v6.74h-.77v-6.67c0-1.6-.57-2.46-1.58-2.46s-1.84,1.05-1.84,2.61v6.52h-.77v-9.64Z" fill="#2a2a2a"/>
  <path d="M45.94,34.02v-7.31h-.92v-.72h.92v-2.72h.77v2.72h1.56v.72h-1.56v7.2c0,.84.39,1.06,1.01,1.06.18,0,.44-.04.59-.09v.72c-.18.07-.46.11-.66.11-1.05,0-1.71-.46-1.71-1.69Z" fill="#2a2a2a"/>
  <path d="M49.32,30.99v-.17c0-3.34,1.23-4.98,2.64-4.98s2.52,1.71,2.52,4.72v.57h-4.39c.04,2.61,1.1,3.89,2.41,3.89.59,0,1.05-.15,1.67-.57l.09.79c-.68.39-1.12.51-1.87.51-1.62,0-3.07-1.58-3.07-4.77ZM53.73,30.46c0-2.22-.73-3.89-1.76-3.89s-1.8,1.34-1.87,3.89h3.64Z" fill="#2a2a2a"/>
  <path d="M56.43,37.67v-.79c.7.28,1.52.46,2.15.46,1.3,0,1.98-.62,1.98-1.95v-2.28c-.39,1.1-1.05,2-2.02,2-1.29,0-2.52-1.6-2.52-4.55v-.17c0-2.92,1.23-4.55,2.52-4.55.97,0,1.63.9,2.02,2v-1.85h.77v9.36c0,.88-.24,1.54-.68,1.98-.48.48-1.19.72-2.11.72-.66,0-1.45-.15-2.11-.39ZM60.6,30.57v-.17c0-2.46-1.03-3.87-1.96-3.87s-1.84,1.38-1.84,3.89v.13c0,2.52.88,3.89,1.84,3.89s1.96-1.41,1.96-3.87Z" fill="#2a2a2a"/>
  <path d="M63.51,26h.77v1.41c.37-.88,1.12-1.6,2.26-1.52v.83h-.04c-1.21,0-2.22.77-2.22,2.46v6.46h-.77v-9.64Z" fill="#2a2a2a"/>
  <path d="M67.58,32.83v-.15c0-1.78.92-3.08,2.53-3.08.66,0,1.18.16,1.62.37v-1.21c0-1.34-.61-2.13-1.84-2.13-.68,0-1.21.13-1.78.44v-.75c.53-.26,1.14-.42,1.82-.42.77,0,1.4.22,1.87.7.4.4.7,1.14.7,2.08v6.98h-.77v-1.4c-.39.96-1.01,1.56-1.95,1.56-1.3,0-2.2-1.27-2.2-2.98ZM71.73,32.62v-1.93c-.51-.24-1.01-.39-1.58-.39-1.19,0-1.8.99-1.8,2.33v.15c0,1.3.53,2.33,1.54,2.33,1.14,0,1.84-1.23,1.84-2.5Z" fill="#2a2a2a"/>
  <path d="M74.65,22.65h.84v1.29h-.84v-1.29ZM74.69,26h.77v9.64h-.77v-9.64Z" fill="#2a2a2a"/>
  <path d="M77.12,35.29v-.81c.66.35,1.34.55,1.96.55.81,0,1.47-.53,1.47-1.43v-.04c0-.68-.39-1.36-1.52-2.44-1.43-1.36-1.89-2.11-1.89-3.08v-.04c0-1.34,1.05-2.11,2.18-2.11.64,0,1.08.09,1.6.31v.81c-.55-.28-1.06-.4-1.63-.4-.79,0-1.38.51-1.38,1.36v.04c0,.7.37,1.23,1.52,2.37,1.36,1.34,1.89,2.13,1.89,3.16v.04c0,1.36-1.1,2.18-2.28,2.18-.75,0-1.3-.16-1.93-.46Z" fill="#2a2a2a"/>
  <path d="M82.61,37.07c.72-.31.99-.73.94-1.43h-.5v-1.51h1.14v1.3c0,1.14-.35,1.62-1.36,2.09l-.22-.46Z" fill="#2a2a2a"/>
  <path d="M89.59,26.71h-.99v-.72h.99v-1.12c0-.81.2-1.41.57-1.78.31-.31.75-.48,1.3-.48.15,0,.42.04.57.07v.75c-.15-.04-.44-.07-.55-.07-.73,0-1.12.48-1.12,1.52v1.1h1.58v.72h-1.58v8.92h-.77v-8.92Z" fill="#2a2a2a"/>
  <path d="M92.94,32.83v-.15c0-1.78.92-3.08,2.53-3.08.66,0,1.18.16,1.62.37v-1.21c0-1.34-.61-2.13-1.84-2.13-.68,0-1.21.13-1.78.44v-.75c.53-.26,1.14-.42,1.82-.42.77,0,1.4.22,1.87.7.4.4.7,1.14.7,2.08v6.98h-.77v-1.4c-.39.96-1.01,1.56-1.95,1.56-1.3,0-2.2-1.27-2.2-2.98ZM97.09,32.62v-1.93c-.51-.24-1.01-.39-1.58-.39-1.19,0-1.8.99-1.8,2.33v.15c0,1.3.53,2.33,1.54,2.33,1.14,0,1.84-1.23,1.84-2.5Z" fill="#2a2a2a"/>
  <path d="M100,26h.77v1.41c.37-.88,1.12-1.6,2.26-1.52v.83h-.04c-1.21,0-2.22.77-2.22,2.46v6.46h-.77v-9.64Z" fill="#2a2a2a"/>
  <path d="M104.58,22.65h.84v1.29h-.84v-1.29ZM104.62,26h.77v9.64h-.77v-9.64Z" fill="#2a2a2a"/>
  <path d="M107.61,26h.77v1.41c.33-.81.92-1.56,1.98-1.56,1.3,0,2.2,1.08,2.2,3.05v6.74h-.77v-6.67c0-1.6-.57-2.46-1.58-2.46s-1.84,1.05-1.84,2.61v6.52h-.77v-9.64Z" fill="#2a2a2a"/>
  <path d="M114.7,22.65h.77v4.76c.33-.81.92-1.56,1.98-1.56,1.3,0,2.2,1.08,2.2,3.05v6.74h-.77v-6.67c0-1.6-.57-2.46-1.58-2.46s-1.84,1.05-1.84,2.61v6.52h-.77v-12.98Z" fill="#2a2a2a"/>
  <path d="M121.27,32.83v-.15c0-1.78.92-3.08,2.53-3.08.66,0,1.18.16,1.62.37v-1.21c0-1.34-.61-2.13-1.84-2.13-.68,0-1.21.13-1.78.44v-.75c.53-.26,1.14-.42,1.82-.42.77,0,1.4.22,1.87.7.4.4.7,1.14.7,2.08v6.98h-.77v-1.4c-.39.96-1.01,1.56-1.95,1.56-1.3,0-2.2-1.27-2.2-2.98ZM125.42,32.62v-1.93c-.51-.24-1.01-.39-1.58-.39-1.19,0-1.8.99-1.8,2.33v.15c0,1.3.53,2.33,1.54,2.33,1.14,0,1.84-1.23,1.84-2.5Z" fill="#2a2a2a"/>
  <path d="M127.78,35.29v-.81c.66.35,1.34.55,1.96.55.81,0,1.47-.53,1.47-1.43v-.04c0-.68-.39-1.36-1.52-2.44-1.43-1.36-1.89-2.11-1.89-3.08v-.04c0-1.34,1.05-2.11,2.18-2.11.64,0,1.08.09,1.6.31v.81c-.55-.28-1.06-.4-1.63-.4-.79,0-1.38.51-1.38,1.36v.04c0,.7.37,1.23,1.52,2.37,1.36,1.34,1.89,2.13,1.89,3.16v.04c0,1.36-1.1,2.18-2.28,2.18-.75,0-1.3-.16-1.93-.46Z" fill="#2a2a2a"/>
  <path d="M136.3,30.99v-.35c0-3.07,1.19-4.79,2.52-4.79.97,0,1.63.9,2.02,2v-5.2h.77v12.98h-.77v-1.85c-.39,1.1-1.05,2-2.02,2-1.32,0-2.52-1.69-2.52-4.79ZM140.87,31.04v-.46c0-2.59-.99-4.06-1.96-4.06s-1.84,1.49-1.84,4.13v.31c0,2.64.84,4.13,1.84,4.13s1.96-1.47,1.96-4.06Z" fill="#2a2a2a"/>
  <path d="M143.46,30.99v-.17c0-3.34,1.23-4.98,2.64-4.98s2.52,1.71,2.52,4.72v.57h-4.39c.04,2.61,1.1,3.89,2.41,3.89.59,0,1.05-.15,1.67-.57l.09.79c-.68.39-1.12.51-1.87.51-1.62,0-3.07-1.58-3.07-4.77ZM147.87,30.46c0-2.22-.73-3.89-1.76-3.89s-1.8,1.34-1.87,3.89h3.64Z" fill="#2a2a2a"/>
  <path d="M153.07,30.93v-.18c0-3.34,1.47-4.88,2.94-4.88.48,0,.88.15,1.16.33v.85c-.33-.26-.72-.44-1.18-.44-.99,0-2.15,1.27-2.15,4.11v.26c0,2.9,1.12,4.06,2.22,4.06.4,0,.77-.16,1.1-.44v.81c-.31.22-.68.37-1.16.37-1.51,0-2.94-1.47-2.94-4.83Z" fill="#2a2a2a"/>
  <path d="M158.22,30.9v-.16c0-3.03,1.3-4.88,2.75-4.88s2.72,1.85,2.72,4.88v.16c0,3.03-1.29,4.88-2.74,4.88s-2.74-1.85-2.74-4.88ZM162.92,30.9v-.16c0-2.53-.88-4.17-1.96-4.17s-1.96,1.63-1.96,4.17v.16c0,2.53.88,4.17,1.96,4.17s1.96-1.63,1.96-4.17Z" fill="#2a2a2a"/>
  <path d="M165.53,26h.77v1.41c.33-.81.92-1.56,1.98-1.56,1.3,0,2.2,1.08,2.2,3.05v6.74h-.77v-6.67c0-1.6-.57-2.46-1.58-2.46s-1.84,1.05-1.84,2.61v6.52h-.77v-9.64Z" fill="#2a2a2a"/>
  <path d="M172.25,30.93v-.18c0-3.34,1.47-4.88,2.94-4.88.48,0,.88.15,1.16.33v.85c-.33-.26-.72-.44-1.18-.44-.99,0-2.15,1.27-2.15,4.11v.26c0,2.9,1.12,4.06,2.22,4.06.4,0,.77-.16,1.1-.44v.81c-.31.22-.68.37-1.16.37-1.51,0-2.94-1.47-2.94-4.83Z" fill="#2a2a2a"/>
  <path d="M177.43,30.99v-.17c0-3.34,1.23-4.98,2.64-4.98s2.52,1.71,2.52,4.72v.57h-4.39c.04,2.61,1.1,3.89,2.41,3.89.59,0,1.05-.15,1.67-.57l.09.79c-.68.39-1.12.51-1.87.51-1.62,0-3.07-1.58-3.07-4.77ZM181.84,30.46c0-2.22-.73-3.89-1.76-3.89s-1.8,1.34-1.87,3.89h3.64Z" fill="#2a2a2a"/>
  <path d="M184.37,22.65h.84v1.29h-.84v-1.29ZM184.41,26h.77v9.64h-.77v-9.64Z" fill="#2a2a2a"/>
  <path d="M187.71,34.02v-7.31h-.92v-.72h.92v-2.72h.77v2.72h1.56v.72h-1.56v7.2c0,.84.39,1.06,1.01,1.06.18,0,.44-.04.59-.09v.72c-.18.07-.46.11-.66.11-1.05,0-1.71-.46-1.71-1.69Z" fill="#2a2a2a"/>
  <path d="M191.08,30.9v-.16c0-3.03,1.3-4.88,2.75-4.88s2.72,1.85,2.72,4.88v.16c0,3.03-1.29,4.88-2.74,4.88s-2.74-1.85-2.74-4.88ZM195.78,30.9v-.16c0-2.53-.88-4.17-1.96-4.17s-1.96,1.63-1.96,4.17v.16c0,2.53.88,4.17,1.96,4.17s1.96-1.63,1.96-4.17Z" fill="#2a2a2a"/>
  <path d="M197.87,35.29v-.81c.66.35,1.34.55,1.96.55.81,0,1.47-.53,1.47-1.43v-.04c0-.68-.39-1.36-1.52-2.44-1.43-1.36-1.89-2.11-1.89-3.08v-.04c0-1.34,1.05-2.11,2.18-2.11.64,0,1.08.09,1.6.31v.81c-.55-.28-1.06-.4-1.63-.4-.79,0-1.38.51-1.38,1.36v.04c0,.7.37,1.23,1.52,2.37,1.36,1.34,1.89,2.13,1.89,3.16v.04c0,1.36-1.1,2.18-2.28,2.18-.75,0-1.3-.16-1.93-.46Z" fill="#2a2a2a"/>
  <path d="M207.5,33.78v1.85h-.77v-12.98h.77v5.2c.39-1.1,1.05-2,2.02-2,1.32,0,2.52,1.69,2.52,4.79v.35c0,3.07-1.19,4.79-2.52,4.79-.97,0-1.63-.9-2.02-2ZM211.27,30.97v-.31c0-2.64-.84-4.13-1.84-4.13s-1.96,1.47-1.96,4.06v.46c0,2.59.99,4.06,1.96,4.06s1.84-1.49,1.84-4.13Z" fill="#2a2a2a"/>
  <path d="M213.55,30.99v-.17c0-3.34,1.23-4.98,2.64-4.98s2.52,1.71,2.52,4.72v.57h-4.39c.04,2.61,1.1,3.89,2.41,3.89.59,0,1.05-.15,1.67-.57l.09.79c-.68.39-1.12.51-1.87.51-1.62,0-3.07-1.58-3.07-4.77ZM217.96,30.46c0-2.22-.73-3.89-1.76-3.89s-1.8,1.34-1.87,3.89h3.64Z" fill="#2a2a2a"/>
  <path d="M220.52,26h.77v1.41c.33-.81.9-1.56,1.93-1.56s1.6.73,1.89,1.63c.35-.79.97-1.63,2.13-1.63,1.32,0,2.2,1.05,2.2,3.01v6.77h-.77v-6.7c0-1.6-.57-2.42-1.52-2.42s-1.78,1.01-1.78,2.57v6.56h-.77v-6.7c0-1.6-.57-2.42-1.52-2.42s-1.78,1.01-1.78,2.57v6.56h-.77v-9.64Z" fill="#2a2a2a"/>
  <path d="M234.54,26h.77v1.41c.37-.88,1.12-1.6,2.26-1.52v.83h-.04c-1.21,0-2.22.77-2.22,2.46v6.46h-.77v-9.64Z" fill="#2a2a2a"/>
  <path d="M238.51,30.99v-.17c0-3.34,1.23-4.98,2.64-4.98s2.52,1.71,2.52,4.72v.57h-4.39c.04,2.61,1.1,3.89,2.41,3.89.59,0,1.05-.15,1.67-.57l.09.79c-.68.39-1.12.51-1.87.51-1.62,0-3.07-1.58-3.07-4.77ZM242.91,30.46c0-2.22-.73-3.89-1.76-3.89s-1.8,1.34-1.87,3.89h3.64Z" fill="#2a2a2a"/>
  <path d="M245.75,26.71h-.99v-.72h.99v-1.12c0-.81.2-1.41.57-1.78.31-.31.75-.48,1.3-.48.15,0,.42.04.57.07v.75c-.15-.04-.44-.07-.55-.07-.73,0-1.12.48-1.12,1.52v1.1h1.58v.72h-1.58v8.92h-.77v-8.92ZM249.4,22.65h.84v1.29h-.84v-1.29ZM249.44,26h.77v9.64h-.77v-9.64Z" fill="#2a2a2a"/>
  <path d="M252.49,26h.77v1.41c.33-.81.92-1.56,1.98-1.56,1.3,0,2.2,1.08,2.2,3.05v6.74h-.77v-6.67c0-1.6-.57-2.46-1.58-2.46s-1.84,1.05-1.84,2.61v6.52h-.77v-9.64Z" fill="#2a2a2a"/>
  <path d="M259.06,32.83v-.15c0-1.78.92-3.08,2.53-3.08.66,0,1.18.16,1.62.37v-1.21c0-1.34-.61-2.13-1.84-2.13-.68,0-1.21.13-1.78.44v-.75c.53-.26,1.14-.42,1.82-.42.77,0,1.4.22,1.87.7.4.4.7,1.14.7,2.08v6.98h-.77v-1.4c-.39.96-1.01,1.56-1.95,1.56-1.3,0-2.2-1.27-2.2-2.98ZM263.21,32.62v-1.93c-.51-.24-1.01-.39-1.58-.39-1.19,0-1.8.99-1.8,2.33v.15c0,1.3.53,2.33,1.54,2.33,1.14,0,1.84-1.23,1.84-2.5Z" fill="#2a2a2a"/>
  <path d="M265.8,30.99v-.35c0-3.07,1.19-4.79,2.52-4.79.97,0,1.63.9,2.02,2v-5.2h.77v12.98h-.77v-1.85c-.39,1.1-1.05,2-2.02,2-1.32,0-2.52-1.69-2.52-4.79ZM270.37,31.04v-.46c0-2.59-.99-4.06-1.96-4.06s-1.84,1.49-1.84,4.13v.31c0,2.64.84,4.13,1.84,4.13s1.96-1.47,1.96-4.06Z" fill="#2a2a2a"/>
  <path d="M272.94,30.9v-.16c0-3.03,1.3-4.88,2.75-4.88s2.72,1.85,2.72,4.88v.16c0,3.03-1.29,4.88-2.74,4.88s-2.74-1.85-2.74-4.88ZM277.64,30.9v-.16c0-2.53-.88-4.17-1.96-4.17s-1.96,1.63-1.96,4.17v.16c0,2.53.88,4.17,1.96,4.17s1.96-1.63,1.96-4.17Z" fill="#2a2a2a"/>
  <path d="M279.72,35.29v-.81c.66.35,1.34.55,1.96.55.81,0,1.47-.53,1.47-1.43v-.04c0-.68-.39-1.36-1.52-2.44-1.43-1.36-1.89-2.11-1.89-3.08v-.04c0-1.34,1.05-2.11,2.18-2.11.64,0,1.08.09,1.6.31v.81c-.55-.28-1.06-.4-1.63-.4-.79,0-1.38.51-1.38,1.36v.04c0,.7.37,1.23,1.52,2.37,1.36,1.34,1.89,2.13,1.89,3.16v.04c0,1.36-1.1,2.18-2.28,2.18-.75,0-1.3-.16-1.93-.46Z" fill="#2a2a2a"/>
  <path d="M285.22,37.07c.72-.31.99-.73.94-1.43h-.5v-1.51h1.14v1.3c0,1.14-.35,1.62-1.36,2.09l-.22-.46Z" fill="#2a2a2a"/>
  <path d="M291.81,26h.77v1.41c.33-.81.9-1.56,1.93-1.56s1.6.73,1.89,1.63c.35-.79.97-1.63,2.13-1.63,1.32,0,2.2,1.05,2.2,3.01v6.77h-.77v-6.7c0-1.6-.57-2.42-1.52-2.42s-1.78,1.01-1.78,2.57v6.56h-.77v-6.7c0-1.6-.57-2.42-1.52-2.42s-1.78,1.01-1.78,2.57v6.56h-.77v-9.64Z" fill="#2a2a2a"/>
  <path d="M302.35,32.83v-.15c0-1.78.92-3.08,2.53-3.08.66,0,1.18.16,1.62.37v-1.21c0-1.34-.61-2.13-1.84-2.13-.68,0-1.21.13-1.78.44v-.75c.53-.26,1.14-.42,1.82-.42.77,0,1.4.22,1.87.7.4.4.7,1.14.7,2.08v6.98h-.77v-1.4c-.39.96-1.01,1.56-1.95,1.56-1.3,0-2.2-1.27-2.2-2.98ZM306.5,32.62v-1.93c-.51-.24-1.01-.39-1.58-.39-1.19,0-1.8.99-1.8,2.33v.15c0,1.3.53,2.33,1.54,2.33,1.14,0,1.84-1.23,1.84-2.5Z" fill="#2a2a2a"/>
  <path d="M309.41,26h.77v1.41c.33-.81.92-1.56,1.98-1.56,1.3,0,2.2,1.08,2.2,3.05v6.74h-.77v-6.67c0-1.6-.57-2.46-1.58-2.46s-1.84,1.05-1.84,2.61v6.52h-.77v-9.64Z" fill="#2a2a2a"/>
  <path d="M316.67,34.02v-7.31h-.92v-.72h.92v-2.72h.77v2.72h1.56v.72h-1.56v7.2c0,.84.39,1.06,1.01,1.06.18,0,.44-.04.59-.09v.72c-.18.07-.46.11-.66.11-1.05,0-1.71-.46-1.71-1.69Z" fill="#2a2a2a"/>
  <path d="M320.05,30.99v-.17c0-3.34,1.23-4.98,2.64-4.98s2.52,1.71,2.52,4.72v.57h-4.39c.04,2.61,1.1,3.89,2.41,3.89.59,0,1.05-.15,1.67-.57l.09.79c-.68.39-1.12.51-1.87.51-1.62,0-3.07-1.58-3.07-4.77ZM324.46,30.46c0-2.22-.73-3.89-1.76-3.89s-1.8,1.34-1.87,3.89h3.64Z" fill="#2a2a2a"/>
  <path d="M327,22.65h.84v1.29h-.84v-1.29ZM327.04,26h.77v9.64h-.77v-9.64Z" fill="#2a2a2a"/>
  <path d="M330.06,37.67v-.79c.7.28,1.52.46,2.15.46,1.3,0,1.98-.62,1.98-1.95v-2.28c-.39,1.1-1.05,2-2.02,2-1.29,0-2.52-1.6-2.52-4.55v-.17c0-2.92,1.23-4.55,2.52-4.55.97,0,1.63.9,2.02,2v-1.85h.77v9.36c0,.88-.24,1.54-.68,1.98-.48.48-1.19.72-2.11.72-.66,0-1.45-.15-2.11-.39ZM334.23,30.57v-.17c0-2.46-1.03-3.87-1.96-3.87s-1.84,1.38-1.84,3.89v.13c0,2.52.88,3.89,1.84,3.89s1.96-1.41,1.96-3.87Z" fill="#2a2a2a"/>
  <path d="M336.62,32.83v-.15c0-1.78.92-3.08,2.53-3.08.66,0,1.18.16,1.62.37v-1.21c0-1.34-.61-2.13-1.84-2.13-.68,0-1.21.13-1.78.44v-.75c.53-.26,1.14-.42,1.82-.42.77,0,1.4.22,1.87.7.4.4.7,1.14.7,2.08v6.98h-.77v-1.4c-.39.96-1.01,1.56-1.95,1.56-1.3,0-2.2-1.27-2.2-2.98ZM340.77,32.62v-1.93c-.51-.24-1.01-.39-1.58-.39-1.19,0-1.8.99-1.8,2.33v.15c0,1.3.53,2.33,1.54,2.33,1.14,0,1.84-1.23,1.84-2.5Z" fill="#2a2a2a"/>
  <path d="M346.29,30.99v-.35c0-3.07,1.19-4.79,2.52-4.79.97,0,1.63.9,2.02,2v-5.2h.77v12.98h-.77v-1.85c-.39,1.1-1.05,2-2.02,2-1.32,0-2.52-1.69-2.52-4.79ZM350.86,31.04v-.46c0-2.59-.99-4.06-1.96-4.06s-1.84,1.49-1.84,4.13v.31c0,2.64.84,4.13,1.84,4.13s1.96-1.47,1.96-4.06Z" fill="#2a2a2a"/>
  <path d="M353.45,30.99v-.17c0-3.34,1.23-4.98,2.64-4.98s2.52,1.71,2.52,4.72v.57h-4.39c.04,2.61,1.1,3.89,2.41,3.89.59,0,1.05-.15,1.67-.57l.09.79c-.68.39-1.12.51-1.87.51-1.62,0-3.07-1.58-3.07-4.77ZM357.86,30.46c0-2.22-.73-3.89-1.76-3.89s-1.8,1.34-1.87,3.89h3.64Z" fill="#2a2a2a"/>
  <path d="M363.45,26h.77v1.41c.37-.88,1.12-1.6,2.26-1.52v.83h-.04c-1.21,0-2.22.77-2.22,2.46v6.46h-.77v-9.64Z" fill="#2a2a2a"/>
  <path d="M367.42,30.99v-.17c0-3.34,1.23-4.98,2.64-4.98s2.52,1.71,2.52,4.72v.57h-4.39c.04,2.61,1.1,3.89,2.41,3.89.59,0,1.05-.15,1.67-.57l.09.79c-.68.39-1.12.51-1.87.51-1.62,0-3.07-1.58-3.07-4.77ZM371.82,30.46c0-2.22-.73-3.89-1.76-3.89s-1.8,1.34-1.87,3.89h3.64Z" fill="#2a2a2a"/>
  <path d="M374.61,26.71h-.99v-.72h.99v-1.12c0-.81.2-1.41.57-1.78.31-.31.75-.48,1.3-.48.15,0,.42.04.57.07v.75c-.15-.04-.44-.07-.55-.07-.73,0-1.12.48-1.12,1.52v1.1h1.58v.72h-1.58v8.92h-.77v-8.92Z" fill="#2a2a2a"/>
  <path d="M377.86,30.99v-.17c0-3.34,1.23-4.98,2.64-4.98s2.52,1.71,2.52,4.72v.57h-4.39c.04,2.61,1.1,3.89,2.41,3.89.59,0,1.05-.15,1.67-.57l.09.79c-.68.39-1.12.51-1.87.51-1.62,0-3.07-1.58-3.07-4.77ZM382.27,30.46c0-2.22-.73-3.89-1.76-3.89s-1.8,1.34-1.87,3.89h3.64Z" fill="#2a2a2a"/>
  <path d="M384.83,26h.77v1.41c.37-.88,1.12-1.6,2.26-1.52v.83h-.04c-1.21,0-2.22.77-2.22,2.46v6.46h-.77v-9.64Z" fill="#2a2a2a"/>
  <path d="M388.79,30.99v-.17c0-3.34,1.23-4.98,2.64-4.98s2.52,1.71,2.52,4.72v.57h-4.39c.04,2.61,1.1,3.89,2.41,3.89.59,0,1.05-.15,1.67-.57l.09.79c-.68.39-1.12.51-1.87.51-1.62,0-3.07-1.58-3.07-4.77ZM393.2,30.46c0-2.22-.73-3.89-1.76-3.89s-1.8,1.34-1.87,3.89h3.64ZM391.12,22.73h.62l1.23,2.24h-.68l-.88-1.38-.88,1.38h-.64l1.23-2.24Z" fill="#2a2a2a"/>
  <path d="M395.76,26h.77v1.41c.33-.81.92-1.56,1.98-1.56,1.3,0,2.2,1.08,2.2,3.05v6.74h-.77v-6.67c0-1.6-.57-2.46-1.58-2.46s-1.84,1.05-1.84,2.61v6.52h-.77v-9.64Z" fill="#2a2a2a"/>
  <path d="M402.49,30.93v-.18c0-3.34,1.47-4.88,2.94-4.88.48,0,.88.15,1.16.33v.85c-.33-.26-.72-.44-1.18-.44-.99,0-2.15,1.27-2.15,4.11v.26c0,2.9,1.12,4.06,2.22,4.06.4,0,.77-.16,1.1-.44v.81c-.31.22-.68.37-1.16.37-1.51,0-2.94-1.47-2.94-4.83Z" fill="#2a2a2a"/>
  <path d="M408.22,22.65h.84v1.29h-.84v-1.29ZM408.26,26h.77v9.64h-.77v-9.64Z" fill="#2a2a2a"/>
  <path d="M410.72,32.83v-.15c0-1.78.92-3.08,2.53-3.08.66,0,1.18.16,1.62.37v-1.21c0-1.34-.61-2.13-1.84-2.13-.68,0-1.21.13-1.78.44v-.75c.53-.26,1.14-.42,1.82-.42.77,0,1.4.22,1.87.7.4.4.7,1.14.7,2.08v6.98h-.77v-1.4c-.39.96-1.01,1.56-1.95,1.56-1.3,0-2.2-1.27-2.2-2.98ZM414.87,32.62v-1.93c-.51-.24-1.01-.39-1.58-.39-1.19,0-1.8.99-1.8,2.33v.15c0,1.3.53,2.33,1.54,2.33,1.14,0,1.84-1.23,1.84-2.5Z" fill="#2a2a2a"/>
  <path d="M417.23,35.29v-.81c.66.35,1.34.55,1.96.55.81,0,1.47-.53,1.47-1.43v-.04c0-.68-.39-1.36-1.52-2.44-1.43-1.36-1.89-2.11-1.89-3.08v-.04c0-1.34,1.05-2.11,2.18-2.11.64,0,1.08.09,1.6.31v.81c-.55-.28-1.06-.4-1.63-.4-.79,0-1.38.51-1.38,1.36v.04c0,.7.37,1.23,1.52,2.37,1.36,1.34,1.89,2.13,1.89,3.16v.04c0,1.36-1.1,2.18-2.28,2.18-.75,0-1.3-.16-1.93-.46Z" fill="#2a2a2a"/>
  <path d="M425.71,30.93v-.18c0-3.34,1.47-4.88,2.94-4.88.48,0,.88.15,1.16.33v.85c-.33-.26-.72-.44-1.18-.44-.99,0-2.15,1.27-2.15,4.11v.26c0,2.9,1.12,4.06,2.22,4.06.4,0,.77-.16,1.1-.44v.81c-.31.22-.68.37-1.16.37-1.51,0-2.94-1.47-2.94-4.83Z" fill="#2a2a2a"/>
  <path d="M431.39,32.73v-6.74h.77v6.67c0,1.6.57,2.46,1.58,2.46s1.84-1.05,1.84-2.61v-6.52h.77v9.64h-.77v-1.41c-.33.81-.92,1.56-1.98,1.56-1.3,0-2.2-1.08-2.2-3.05Z" fill="#2a2a2a"/>
  <path d="M438.58,22.65h.77v12.98h-.77v-12.98Z" fill="#2a2a2a"/>
  <path d="M441.88,34.02v-7.31h-.92v-.72h.92v-2.72h.77v2.72h1.56v.72h-1.56v7.2c0,.84.39,1.06,1.01,1.06.18,0,.44-.04.59-.09v.72c-.18.07-.46.11-.66.11-1.05,0-1.71-.46-1.71-1.69Z" fill="#2a2a2a"/>
  <path d="M445.83,32.73v-6.74h.77v6.67c0,1.6.57,2.46,1.58,2.46s1.84-1.05,1.84-2.61v-6.52h.77v9.64h-.77v-1.41c-.33.81-.92,1.56-1.98,1.56-1.3,0-2.2-1.08-2.2-3.05Z" fill="#2a2a2a"/>
  <path d="M452.96,26h.77v1.41c.37-.88,1.12-1.6,2.26-1.52v.83h-.04c-1.21,0-2.22.77-2.22,2.46v6.46h-.77v-9.64Z" fill="#2a2a2a"/>
  <path d="M457.04,32.83v-.15c0-1.78.92-3.08,2.53-3.08.66,0,1.18.16,1.62.37v-1.21c0-1.34-.61-2.13-1.84-2.13-.68,0-1.21.13-1.78.44v-.75c.53-.26,1.14-.42,1.82-.42.77,0,1.4.22,1.87.7.4.4.7,1.14.7,2.08v6.98h-.77v-1.4c-.39.96-1.01,1.56-1.95,1.56-1.3,0-2.2-1.27-2.2-2.98ZM461.19,32.62v-1.93c-.51-.24-1.01-.39-1.58-.39-1.19,0-1.8.99-1.8,2.33v.15c0,1.3.53,2.33,1.54,2.33,1.14,0,1.84-1.23,1.84-2.5Z" fill="#2a2a2a"/>
  <path d="M464.1,22.65h.84v1.29h-.84v-1.29ZM464.14,26h.77v9.64h-.77v-9.64Z" fill="#2a2a2a"/>
  <path d="M466.57,35.29v-.81c.66.35,1.34.55,1.96.55.81,0,1.47-.53,1.47-1.43v-.04c0-.68-.39-1.36-1.52-2.44-1.43-1.36-1.89-2.11-1.89-3.08v-.04c0-1.34,1.05-2.11,2.18-2.11.64,0,1.08.09,1.6.31v.81c-.55-.28-1.06-.4-1.63-.4-.79,0-1.38.51-1.38,1.36v.04c0,.7.37,1.23,1.52,2.37,1.36,1.34,1.89,2.13,1.89,3.16v.04c0,1.36-1.1,2.18-2.28,2.18-.75,0-1.3-.16-1.93-.46Z" fill="#2a2a2a"/>
  <path d="M472.07,37.07c.72-.31.99-.73.94-1.43h-.5v-1.51h1.14v1.3c0,1.14-.35,1.62-1.36,2.09l-.22-.46Z" fill="#2a2a2a"/>
  <path d="M478.2,32.83v-.15c0-1.78.92-3.08,2.53-3.08.66,0,1.18.16,1.62.37v-1.21c0-1.34-.61-2.13-1.84-2.13-.68,0-1.21.13-1.78.44v-.75c.53-.26,1.14-.42,1.82-.42.77,0,1.4.22,1.87.7.4.4.7,1.14.7,2.08v6.98h-.77v-1.4c-.39.96-1.01,1.56-1.95,1.56-1.3,0-2.2-1.27-2.2-2.98ZM482.35,32.62v-1.93c-.51-.24-1.01-.39-1.58-.39-1.19,0-1.8.99-1.8,2.33v.15c0,1.3.53,2.33,1.54,2.33,1.14,0,1.84-1.23,1.84-2.5Z" fill="#2a2a2a"/>
  <path d="M486.15,37.31l.95-1.65c-1.21-.4-2.22-1.89-2.22-4.72v-.18c0-3.34,1.47-4.88,2.94-4.88.48,0,.88.15,1.16.33v.85c-.33-.26-.72-.44-1.18-.44-.99,0-2.15,1.27-2.15,4.11v.26c0,2.9,1.12,4.06,2.22,4.06.4,0,.77-.16,1.1-.44v.81c-.31.22-.68.37-1.16.37h-.13l-.7,1.89-.84-.35Z" fill="#2a2a2a"/>
  <path d="M490.57,32.73v-6.74h.77v6.67c0,1.6.57,2.46,1.58,2.46s1.84-1.05,1.84-2.61v-6.52h.77v9.64h-.77v-1.41c-.33.81-.92,1.56-1.98,1.56-1.3,0-2.2-1.08-2.2-3.05ZM493.89,22.86l.86.46-1.51,1.84h-.53l1.18-2.3Z" fill="#2a2a2a"/>
  <path d="M497.36,30.93v-.18c0-3.34,1.47-4.88,2.94-4.88.48,0,.88.15,1.16.33v.85c-.33-.26-.72-.44-1.18-.44-.99,0-2.15,1.27-2.15,4.11v.26c0,2.9,1.12,4.06,2.22,4.06.4,0,.77-.16,1.1-.44v.81c-.31.22-.68.37-1.16.37-1.51,0-2.94-1.47-2.94-4.83Z" fill="#2a2a2a"/>
  <path d="M502.71,32.83v-.15c0-1.78.92-3.08,2.53-3.08.66,0,1.18.16,1.62.37v-1.21c0-1.34-.61-2.13-1.84-2.13-.68,0-1.21.13-1.78.44v-.75c.53-.26,1.14-.42,1.82-.42.77,0,1.4.22,1.87.7.4.4.7,1.14.7,2.08v6.98h-.77v-1.4c-.39.96-1.01,1.56-1.95,1.56-1.3,0-2.2-1.27-2.2-2.98ZM506.86,32.62v-1.93c-.51-.24-1.01-.39-1.58-.39-1.19,0-1.8.99-1.8,2.33v.15c0,1.3.53,2.33,1.54,2.33,1.14,0,1.84-1.23,1.84-2.5Z" fill="#2a2a2a"/>
  <path d="M509.77,26h.77v1.41c.37-.88,1.12-1.6,2.26-1.52v.83h-.04c-1.21,0-2.22.77-2.22,2.46v6.46h-.77v-9.64Z" fill="#2a2a2a"/>
  <path d="M517.3,26h.77v1.41c.33-.81.9-1.56,1.93-1.56s1.6.73,1.89,1.63c.35-.79.97-1.63,2.13-1.63,1.32,0,2.2,1.05,2.2,3.01v6.77h-.77v-6.7c0-1.6-.57-2.42-1.52-2.42s-1.78,1.01-1.78,2.57v6.56h-.77v-6.7c0-1.6-.57-2.42-1.52-2.42s-1.78,1.01-1.78,2.57v6.56h-.77v-9.64Z" fill="#2a2a2a"/>
  <path d="M527.84,32.83v-.15c0-1.78.92-3.08,2.53-3.08.66,0,1.18.16,1.62.37v-1.21c0-1.34-.61-2.13-1.84-2.13-.68,0-1.21.13-1.78.44v-.75c.53-.26,1.14-.42,1.82-.42.77,0,1.4.22,1.87.7.4.4.7,1.14.7,2.08v6.98h-.77v-1.4c-.39.96-1.01,1.56-1.95,1.56-1.3,0-2.2-1.27-2.2-2.98ZM531.99,32.62v-1.93c-.51-.24-1.01-.39-1.58-.39-1.19,0-1.8.99-1.8,2.33v.15c0,1.3.53,2.33,1.54,2.33,1.14,0,1.84-1.23,1.84-2.5Z" fill="#2a2a2a"/>
  <path d="M534.35,35.29v-.81c.66.35,1.34.55,1.96.55.81,0,1.47-.53,1.47-1.43v-.04c0-.68-.39-1.36-1.52-2.44-1.43-1.36-1.89-2.11-1.89-3.08v-.04c0-1.34,1.05-2.11,2.18-2.11.64,0,1.08.09,1.6.31v.81c-.55-.28-1.06-.4-1.63-.4-.79,0-1.38.51-1.38,1.36v.04c0,.7.37,1.23,1.52,2.37,1.36,1.34,1.89,2.13,1.89,3.16v.04c0,1.36-1.1,2.18-2.28,2.18-.75,0-1.3-.16-1.93-.46Z" fill="#2a2a2a"/>
  <path d="M539.89,30.93v-.18c0-3.34,1.47-4.88,2.94-4.88.48,0,.88.15,1.16.33v.85c-.33-.26-.72-.44-1.18-.44-.99,0-2.15,1.27-2.15,4.11v.26c0,2.9,1.12,4.06,2.22,4.06.4,0,.77-.16,1.1-.44v.81c-.31.22-.68.37-1.16.37-1.51,0-2.94-1.47-2.94-4.83Z" fill="#2a2a2a"/>
  <path d="M545.24,32.83v-.15c0-1.78.92-3.08,2.53-3.08.66,0,1.18.16,1.62.37v-1.21c0-1.34-.61-2.13-1.84-2.13-.68,0-1.21.13-1.78.44v-.75c.53-.26,1.14-.42,1.82-.42.77,0,1.4.22,1.87.7.4.4.7,1.14.7,2.08v6.98h-.77v-1.4c-.39.96-1.01,1.56-1.95,1.56-1.3,0-2.2-1.27-2.2-2.98ZM549.39,32.62v-1.93c-.51-.24-1.01-.39-1.58-.39-1.19,0-1.8.99-1.8,2.33v.15c0,1.3.53,2.33,1.54,2.33,1.14,0,1.84-1.23,1.84-2.5Z" fill="#2a2a2a"/>
  <path d="M551.55,26h.79l1.91,8.34,1.95-8.34h.75l-2.37,9.7h-.66l-2.37-9.7Z" fill="#2a2a2a"/>
  <path d="M558,30.9v-.16c0-3.03,1.3-4.88,2.75-4.88s2.72,1.85,2.72,4.88v.16c0,3.03-1.29,4.88-2.74,4.88s-2.74-1.85-2.74-4.88ZM562.7,30.9v-.16c0-2.53-.88-4.17-1.96-4.17s-1.96,1.63-1.96,4.17v.16c0,2.53.88,4.17,1.96,4.17s1.96-1.63,1.96-4.17Z" fill="#2a2a2a"/>
  <path d="M567.91,30.99v-.35c0-3.07,1.19-4.79,2.52-4.79.97,0,1.63.9,2.02,2v-5.2h.77v12.98h-.77v-1.85c-.39,1.1-1.05,2-2.02,2-1.32,0-2.52-1.69-2.52-4.79ZM572.48,31.04v-.46c0-2.59-.99-4.06-1.96-4.06s-1.84,1.49-1.84,4.13v.31c0,2.64.84,4.13,1.84,4.13s1.96-1.47,1.96-4.06Z" fill="#2a2a2a"/>
  <path d="M575.07,30.99v-.17c0-3.34,1.23-4.98,2.64-4.98s2.52,1.71,2.52,4.72v.57h-4.39c.04,2.61,1.1,3.89,2.41,3.89.59,0,1.05-.15,1.67-.57l.09.79c-.68.39-1.12.51-1.87.51-1.62,0-3.07-1.58-3.07-4.77ZM579.48,30.46c0-2.22-.73-3.89-1.76-3.89s-1.8,1.34-1.87,3.89h3.64Z" fill="#2a2a2a"/>
  <path d="M584.68,30.99v-.17c0-3.34,1.23-4.98,2.64-4.98s2.52,1.71,2.52,4.72v.57h-4.39c.04,2.61,1.1,3.89,2.41,3.89.59,0,1.05-.15,1.67-.57l.09.79c-.68.39-1.12.51-1.87.51-1.62,0-3.07-1.58-3.07-4.77ZM589.09,30.46c0-2.22-.73-3.89-1.76-3.89s-1.8,1.34-1.87,3.89h3.64Z" fill="#2a2a2a"/>
  <path d="M593.77,29.96l1.63-3.97h.81l-2,4.63,2.17,5.01h-.83l-1.8-4.32-1.78,4.32h-.81l2.15-4.98-2-4.66h.83l1.63,3.97Z" fill="#2a2a2a"/>
  <path d="M598,26h.77v1.85c.39-1.1,1.05-2,2.02-2,1.32,0,2.52,1.69,2.52,4.79v.35c0,3.07-1.19,4.79-2.52,4.79-.97,0-1.63-.9-2.02-2v4.24h-.77v-12.03ZM602.53,30.97v-.31c0-2.64-.84-4.13-1.84-4.13s-1.96,1.47-1.96,4.06v.46c0,2.59.99,4.06,1.96,4.06s1.84-1.49,1.84-4.13Z" fill="#2a2a2a"/>
  <path d="M604.82,30.99v-.17c0-3.34,1.23-4.98,2.64-4.98s2.52,1.71,2.52,4.72v.57h-4.39c.04,2.61,1.1,3.89,2.41,3.89.59,0,1.05-.15,1.67-.57l.09.79c-.68.39-1.12.51-1.87.51-1.62,0-3.07-1.58-3.07-4.77ZM609.23,30.46c0-2.22-.73-3.89-1.76-3.89s-1.8,1.34-1.87,3.89h3.64Z" fill="#2a2a2a"/>
  <path d="M611.79,26h.77v1.41c.37-.88,1.12-1.6,2.26-1.52v.83h-.04c-1.21,0-2.22.77-2.22,2.46v6.46h-.77v-9.64Z" fill="#2a2a2a"/>
  <path d="M616.37,22.65h.84v1.29h-.84v-1.29ZM616.4,26h.77v9.64h-.77v-9.64Z" fill="#2a2a2a"/>
  <path d="M619.04,30.99v-.17c0-3.34,1.23-4.98,2.64-4.98s2.52,1.71,2.52,4.72v.57h-4.39c.04,2.61,1.1,3.89,2.41,3.89.59,0,1.05-.15,1.67-.57l.09.79c-.68.39-1.12.51-1.87.51-1.62,0-3.07-1.58-3.07-4.77ZM623.44,30.46c0-2.22-.73-3.89-1.76-3.89s-1.8,1.34-1.87,3.89h3.64ZM621.37,22.73h.62l1.23,2.24h-.68l-.88-1.38-.88,1.38h-.64l1.23-2.24Z" fill="#2a2a2a"/>
  <path d="M626,26h.77v1.41c.33-.81.92-1.56,1.98-1.56,1.3,0,2.2,1.08,2.2,3.05v6.74h-.77v-6.67c0-1.6-.57-2.46-1.58-2.46s-1.84,1.05-1.84,2.61v6.52h-.77v-9.64Z" fill="#2a2a2a"/>
  <path d="M632.73,30.93v-.18c0-3.34,1.47-4.88,2.94-4.88.48,0,.88.15,1.16.33v.85c-.33-.26-.72-.44-1.18-.44-.99,0-2.15,1.27-2.15,4.11v.26c0,2.9,1.12,4.06,2.22,4.06.4,0,.77-.16,1.1-.44v.81c-.31.22-.68.37-1.16.37-1.51,0-2.94-1.47-2.94-4.83Z" fill="#2a2a2a"/>
  <path d="M638.47,22.65h.84v1.29h-.84v-1.29ZM638.51,26h.77v9.64h-.77v-9.64Z" fill="#2a2a2a"/>
  <path d="M640.97,32.83v-.15c0-1.78.92-3.08,2.53-3.08.66,0,1.18.16,1.62.37v-1.21c0-1.34-.61-2.13-1.84-2.13-.68,0-1.21.13-1.78.44v-.75c.53-.26,1.14-.42,1.82-.42.77,0,1.4.22,1.87.7.4.4.7,1.14.7,2.08v6.98h-.77v-1.4c-.39.96-1.01,1.56-1.95,1.56-1.3,0-2.2-1.27-2.2-2.98ZM645.12,32.62v-1.93c-.51-.24-1.01-.39-1.58-.39-1.19,0-1.8.99-1.8,2.33v.15c0,1.3.53,2.33,1.54,2.33,1.14,0,1.84-1.23,1.84-2.5Z" fill="#2a2a2a"/>
  <path d="M647.48,35.29v-.81c.66.35,1.34.55,1.96.55.81,0,1.47-.53,1.47-1.43v-.04c0-.68-.39-1.36-1.52-2.44-1.43-1.36-1.89-2.11-1.89-3.08v-.04c0-1.34,1.05-2.11,2.18-2.11.64,0,1.08.09,1.6.31v.81c-.55-.28-1.06-.4-1.63-.4-.79,0-1.38.51-1.38,1.36v.04c0,.7.37,1.23,1.52,2.37,1.36,1.34,1.89,2.13,1.89,3.16v.04c0,1.36-1.1,2.18-2.28,2.18-.75,0-1.3-.16-1.93-.46Z" fill="#2a2a2a"/>
  <path d="M655.86,26h.79l1.91,8.34,1.95-8.34h.75l-2.37,9.7h-.66l-2.37-9.7Z" fill="#2a2a2a"/>
  <path d="M662.92,22.65h.84v1.29h-.84v-1.29ZM662.96,26h.77v9.64h-.77v-9.64Z" fill="#2a2a2a"/>
  <path d="M665.41,26h.79l1.91,8.34,1.95-8.34h.75l-2.37,9.7h-.66l-2.37-9.7Z" fill="#2a2a2a"/>
  <path d="M672.46,22.65h.84v1.29h-.84v-1.29ZM672.5,26h.77v9.64h-.77v-9.64Z" fill="#2a2a2a"/>
  <path d="M675.18,30.99v-.35c0-3.07,1.19-4.79,2.52-4.79.97,0,1.63.9,2.02,2v-5.2h.77v12.98h-.77v-1.85c-.39,1.1-1.05,2-2.02,2-1.32,0-2.52-1.69-2.52-4.79ZM679.75,31.04v-.46c0-2.59-.99-4.06-1.96-4.06s-1.84,1.49-1.84,4.13v.31c0,2.64.84,4.13,1.84,4.13s1.96-1.47,1.96-4.06Z" fill="#2a2a2a"/>
  <path d="M682.14,32.83v-.15c0-1.78.92-3.08,2.53-3.08.66,0,1.18.16,1.62.37v-1.21c0-1.34-.61-2.13-1.84-2.13-.68,0-1.21.13-1.78.44v-.75c.53-.26,1.14-.42,1.82-.42.77,0,1.4.22,1.87.7.4.4.7,1.14.7,2.08v6.98h-.77v-1.4c-.39.96-1.01,1.56-1.95,1.56-1.3,0-2.2-1.27-2.2-2.98ZM686.29,32.62v-1.93c-.51-.24-1.01-.39-1.58-.39-1.19,0-1.8.99-1.8,2.33v.15c0,1.3.53,2.33,1.54,2.33,1.14,0,1.84-1.23,1.84-2.5Z" fill="#2a2a2a"/>
  <path d="M688.65,35.29v-.81c.66.35,1.34.55,1.96.55.81,0,1.47-.53,1.47-1.43v-.04c0-.68-.39-1.36-1.52-2.44-1.43-1.36-1.89-2.11-1.89-3.08v-.04c0-1.34,1.05-2.11,2.18-2.11.64,0,1.08.09,1.6.31v.81c-.55-.28-1.06-.4-1.63-.4-.79,0-1.38.51-1.38,1.36v.04c0,.7.37,1.23,1.52,2.37,1.36,1.34,1.89,2.13,1.89,3.16v.04c0,1.36-1.1,2.18-2.28,2.18-.75,0-1.3-.16-1.93-.46Z" fill="#2a2a2a"/>
  <path d="M694.14,37.07c.72-.31.99-.73.94-1.43h-.5v-1.51h1.14v1.3c0,1.14-.35,1.62-1.36,2.09l-.22-.46Z" fill="#2a2a2a"/>
  <path d="M.99,45.07h-.99v-.72h.99v-1.12c0-.81.2-1.41.57-1.78.31-.31.75-.48,1.3-.48.15,0,.42.04.57.07v.75c-.15-.04-.44-.07-.55-.07-.73,0-1.12.48-1.12,1.52v1.1h1.58v.72h-1.58v8.92h-.77v-8.92Z" fill="#2a2a2a"/>
  <path d="M4.24,49.35v-.17c0-3.34,1.23-4.98,2.64-4.98s2.52,1.71,2.52,4.72v.57h-4.39c.04,2.61,1.1,3.89,2.41,3.89.59,0,1.05-.15,1.67-.57l.09.79c-.68.39-1.12.51-1.87.51-1.62,0-3.07-1.58-3.07-4.77ZM8.65,48.82c0-2.22-.73-3.89-1.76-3.89s-1.8,1.34-1.87,3.89h3.64Z" fill="#2a2a2a"/>
  <path d="M11.21,44.35h.77v1.41c.37-.88,1.12-1.6,2.26-1.52v.83h-.04c-1.21,0-2.22.77-2.22,2.46v6.46h-.77v-9.64Z" fill="#2a2a2a"/>
  <path d="M15.77,44.35h.77v1.41c.33-.81.9-1.56,1.93-1.56s1.6.73,1.89,1.63c.35-.79.97-1.63,2.13-1.63,1.32,0,2.2,1.05,2.2,3.01v6.77h-.77v-6.7c0-1.6-.57-2.42-1.52-2.42s-1.78,1.01-1.78,2.57v6.56h-.77v-6.7c0-1.6-.57-2.42-1.52-2.42s-1.78,1.01-1.78,2.57v6.56h-.77v-9.64Z" fill="#2a2a2a"/>
  <path d="M26.5,49.35v-.17c0-3.34,1.23-4.98,2.64-4.98s2.52,1.71,2.52,4.72v.57h-4.39c.04,2.61,1.1,3.89,2.41,3.89.59,0,1.05-.15,1.67-.57l.09.79c-.68.39-1.12.51-1.87.51-1.62,0-3.07-1.58-3.07-4.77ZM30.91,48.82c0-2.22-.73-3.89-1.76-3.89s-1.8,1.34-1.87,3.89h3.64Z" fill="#2a2a2a"/>
  <path d="M33.47,44.35h.77v1.41c.33-.81.92-1.56,1.98-1.56,1.3,0,2.2,1.08,2.2,3.05v6.74h-.77v-6.67c0-1.6-.57-2.46-1.58-2.46s-1.84,1.05-1.84,2.61v6.52h-.77v-9.64Z" fill="#2a2a2a"/>
  <path d="M40.72,52.38v-7.31h-.92v-.72h.92v-2.72h.77v2.72h1.56v.72h-1.56v7.2c0,.84.39,1.06,1.01,1.06.18,0,.44-.04.59-.09v.72c-.18.07-.46.11-.66.11-1.05,0-1.71-.46-1.71-1.69Z" fill="#2a2a2a"/>
  <path d="M44.1,49.26v-.16c0-3.03,1.3-4.88,2.75-4.88s2.72,1.85,2.72,4.88v.16c0,3.03-1.29,4.88-2.74,4.88s-2.74-1.85-2.74-4.88ZM48.8,49.26v-.16c0-2.53-.88-4.17-1.96-4.17s-1.96,1.63-1.96,4.17v.16c0,2.53.88,4.17,1.96,4.17s1.96-1.63,1.96-4.17Z" fill="#2a2a2a"/>
  <path d="M54.55,49.35v-.35c0-3.07,1.19-4.79,2.52-4.79.97,0,1.63.9,2.02,2v-5.2h.77v12.98h-.77v-1.85c-.39,1.1-1.05,2-2.02,2-1.32,0-2.52-1.69-2.52-4.79ZM59.12,49.4v-.46c0-2.59-.99-4.06-1.96-4.06s-1.84,1.49-1.84,4.13v.31c0,2.64.84,4.13,1.84,4.13s1.96-1.47,1.96-4.06Z" fill="#2a2a2a"/>
  <path d="M61.71,49.35v-.17c0-3.34,1.23-4.98,2.64-4.98s2.52,1.71,2.52,4.72v.57h-4.39c.04,2.61,1.1,3.89,2.41,3.89.59,0,1.05-.15,1.67-.57l.09.79c-.68.39-1.12.51-1.87.51-1.62,0-3.07-1.58-3.07-4.77ZM66.11,48.82c0-2.22-.73-3.89-1.76-3.89s-1.8,1.34-1.87,3.89h3.64Z" fill="#2a2a2a"/>
  <path d="M73.02,52.14v1.85h-.77v-12.98h.77v5.2c.39-1.1,1.05-2,2.02-2,1.32,0,2.52,1.69,2.52,4.79v.35c0,3.07-1.19,4.79-2.52,4.79-.97,0-1.63-.9-2.02-2ZM76.78,49.33v-.31c0-2.64-.84-4.13-1.84-4.13s-1.96,1.47-1.96,4.06v.46c0,2.59.99,4.06,1.96,4.06s1.84-1.49,1.84-4.13Z" fill="#2a2a2a"/>
  <path d="M79.42,44.35h.77v1.41c.37-.88,1.12-1.6,2.26-1.52v.83h-.04c-1.21,0-2.22.77-2.22,2.46v6.46h-.77v-9.64Z" fill="#2a2a2a"/>
  <path d="M83.49,51.18v-.15c0-1.78.92-3.08,2.53-3.08.66,0,1.18.16,1.62.37v-1.21c0-1.34-.61-2.13-1.84-2.13-.68,0-1.21.13-1.78.44v-.75c.53-.26,1.14-.42,1.82-.42.77,0,1.4.22,1.87.7.4.4.7,1.14.7,2.08v6.98h-.77v-1.4c-.39.96-1.01,1.56-1.95,1.56-1.3,0-2.2-1.27-2.2-2.98ZM87.64,50.98v-1.93c-.51-.24-1.01-.39-1.58-.39-1.19,0-1.8.99-1.8,2.33v.15c0,1.3.53,2.33,1.54,2.33,1.14,0,1.84-1.23,1.84-2.5Z" fill="#2a2a2a"/>
  <path d="M90.56,41.01h.84v1.29h-.84v-1.29ZM90.6,44.35h.77v9.64h-.77v-9.64Z" fill="#2a2a2a"/>
  <path d="M93.59,44.35h.77v1.41c.33-.81.92-1.56,1.98-1.56,1.3,0,2.2,1.08,2.2,3.05v6.74h-.77v-6.67c0-1.6-.57-2.46-1.58-2.46s-1.84,1.05-1.84,2.61v6.52h-.77v-9.64Z" fill="#2a2a2a"/>
  <path d="M100.13,53.64v-.81c.66.35,1.34.55,1.96.55.81,0,1.47-.53,1.47-1.43v-.04c0-.68-.39-1.36-1.52-2.44-1.43-1.36-1.89-2.11-1.89-3.08v-.04c0-1.34,1.05-2.11,2.18-2.11.64,0,1.08.09,1.6.31v.81c-.55-.28-1.06-.4-1.63-.4-.79,0-1.38.51-1.38,1.36v.04c0,.7.37,1.23,1.52,2.37,1.36,1.34,1.89,2.13,1.89,3.16v.04c0,1.36-1.1,2.18-2.28,2.18-.75,0-1.3-.16-1.93-.46Z" fill="#2a2a2a"/>
  <path d="M106.36,52.38v-7.31h-.92v-.72h.92v-2.72h.77v2.72h1.56v.72h-1.56v7.2c0,.84.39,1.06,1.01,1.06.18,0,.44-.04.59-.09v.72c-.18.07-.46.11-.66.11-1.05,0-1.71-.46-1.71-1.69Z" fill="#2a2a2a"/>
  <path d="M109.74,49.26v-.16c0-3.03,1.3-4.88,2.75-4.88s2.72,1.85,2.72,4.88v.16c0,3.03-1.29,4.88-2.74,4.88s-2.74-1.85-2.74-4.88ZM114.44,49.26v-.16c0-2.53-.88-4.17-1.96-4.17s-1.96,1.63-1.96,4.17v.16c0,2.53.88,4.17,1.96,4.17s1.96-1.63,1.96-4.17Z" fill="#2a2a2a"/>
  <path d="M117.04,44.35h.77v1.41c.37-.88,1.12-1.6,2.26-1.52v.83h-.04c-1.21,0-2.22.77-2.22,2.46v6.46h-.77v-9.64Z" fill="#2a2a2a"/>
  <path d="M121.6,44.35h.77v1.41c.33-.81.9-1.56,1.93-1.56s1.6.73,1.89,1.63c.35-.79.97-1.63,2.13-1.63,1.32,0,2.2,1.05,2.2,3.01v6.77h-.77v-6.7c0-1.6-.57-2.42-1.52-2.42s-1.78,1.01-1.78,2.57v6.56h-.77v-6.7c0-1.6-.57-2.42-1.52-2.42s-1.78,1.01-1.78,2.57v6.56h-.77v-9.64Z" fill="#2a2a2a"/>
  <path d="M132.12,53.64v-.81c.66.35,1.34.55,1.96.55.81,0,1.47-.53,1.47-1.43v-.04c0-.68-.39-1.36-1.52-2.44-1.43-1.36-1.89-2.11-1.89-3.08v-.04c0-1.34,1.05-2.11,2.18-2.11.64,0,1.08.09,1.6.31v.81c-.55-.28-1.06-.4-1.63-.4-.79,0-1.38.51-1.38,1.36v.04c0,.7.37,1.23,1.52,2.37,1.36,1.34,1.89,2.13,1.89,3.16v.04c0,1.36-1.1,2.18-2.28,2.18-.75,0-1.3-.16-1.93-.46Z" fill="#2a2a2a"/>
  <path d="M137.62,55.43c.72-.31.99-.73.94-1.43h-.5v-1.51h1.14v1.3c0,1.14-.35,1.62-1.36,2.09l-.22-.46Z" fill="#2a2a2a"/>
  <path d="M144.36,49.35v-.17c0-3.34,1.23-4.98,2.64-4.98s2.52,1.71,2.52,4.72v.57h-4.39c.04,2.61,1.1,3.89,2.41,3.89.59,0,1.05-.15,1.67-.57l.09.79c-.68.39-1.12.51-1.87.51-1.62,0-3.07-1.58-3.07-4.77ZM148.76,48.82c0-2.22-.73-3.89-1.76-3.89s-1.8,1.34-1.87,3.89h3.64Z" fill="#2a2a2a"/>
  <path d="M150.88,53.64v-.81c.66.35,1.34.55,1.96.55.81,0,1.47-.53,1.47-1.43v-.04c0-.68-.39-1.36-1.52-2.44-1.43-1.36-1.89-2.11-1.89-3.08v-.04c0-1.34,1.05-2.11,2.18-2.11.64,0,1.08.09,1.6.31v.81c-.55-.28-1.06-.4-1.63-.4-.79,0-1.38.51-1.38,1.36v.04c0,.7.37,1.23,1.52,2.37,1.36,1.34,1.89,2.13,1.89,3.16v.04c0,1.36-1.1,2.18-2.28,2.18-.75,0-1.3-.16-1.93-.46Z" fill="#2a2a2a"/>
  <path d="M156.41,53.64v-.81c.66.35,1.34.55,1.96.55.81,0,1.47-.53,1.47-1.43v-.04c0-.68-.39-1.36-1.52-2.44-1.43-1.36-1.89-2.11-1.89-3.08v-.04c0-1.34,1.05-2.11,2.18-2.11.64,0,1.08.09,1.6.31v.81c-.55-.28-1.06-.4-1.63-.4-.79,0-1.38.51-1.38,1.36v.04c0,.7.37,1.23,1.52,2.37,1.36,1.34,1.89,2.13,1.89,3.16v.04c0,1.36-1.1,2.18-2.28,2.18-.75,0-1.3-.16-1.93-.46Z" fill="#2a2a2a"/>
  <path d="M161.94,49.35v-.17c0-3.34,1.23-4.98,2.64-4.98s2.52,1.71,2.52,4.72v.57h-4.39c.04,2.61,1.1,3.89,2.41,3.89.59,0,1.05-.15,1.67-.57l.09.79c-.68.39-1.12.51-1.87.51-1.62,0-3.07-1.58-3.07-4.77ZM166.35,48.82c0-2.22-.73-3.89-1.76-3.89s-1.8,1.34-1.87,3.89h3.64ZM164.27,41.09h.62l1.23,2.24h-.68l-.88-1.38-.88,1.38h-.64l1.23-2.24Z" fill="#2a2a2a"/>
  <path d="M168.91,44.35h.77v1.41c.33-.81.92-1.56,1.98-1.56,1.3,0,2.2,1.08,2.2,3.05v6.74h-.77v-6.67c0-1.6-.57-2.46-1.58-2.46s-1.84,1.05-1.84,2.61v6.52h-.77v-9.64Z" fill="#2a2a2a"/>
  <path d="M175.64,49.29v-.18c0-3.34,1.47-4.88,2.94-4.88.48,0,.88.15,1.16.33v.85c-.33-.26-.72-.44-1.18-.44-.99,0-2.15,1.27-2.15,4.11v.26c0,2.9,1.12,4.06,2.22,4.06.4,0,.77-.16,1.1-.44v.81c-.31.22-.68.37-1.16.37-1.51,0-2.94-1.47-2.94-4.83Z" fill="#2a2a2a"/>
  <path d="M181.37,41.01h.84v1.29h-.84v-1.29ZM181.41,44.35h.77v9.64h-.77v-9.64Z" fill="#2a2a2a"/>
  <path d="M183.87,51.18v-.15c0-1.78.92-3.08,2.53-3.08.66,0,1.18.16,1.62.37v-1.21c0-1.34-.61-2.13-1.84-2.13-.68,0-1.21.13-1.78.44v-.75c.53-.26,1.14-.42,1.82-.42.77,0,1.4.22,1.87.7.4.4.7,1.14.7,2.08v6.98h-.77v-1.4c-.39.96-1.01,1.56-1.95,1.56-1.3,0-2.2-1.27-2.2-2.98ZM188.02,50.98v-1.93c-.51-.24-1.01-.39-1.58-.39-1.19,0-1.8.99-1.8,2.33v.15c0,1.3.53,2.33,1.54,2.33,1.14,0,1.84-1.23,1.84-2.5Z" fill="#2a2a2a"/>
  <path d="M194.42,44.35h.77v1.41c.33-.81.92-1.56,1.98-1.56,1.3,0,2.2,1.08,2.2,3.05v6.74h-.77v-6.67c0-1.6-.57-2.46-1.58-2.46s-1.84,1.05-1.84,2.61v6.52h-.77v-9.64Z" fill="#2a2a2a"/>
  <path d="M201,51.18v-.15c0-1.78.92-3.08,2.53-3.08.66,0,1.18.16,1.62.37v-1.21c0-1.34-.61-2.13-1.84-2.13-.68,0-1.21.13-1.78.44v-.75c.53-.26,1.14-.42,1.82-.42.77,0,1.4.22,1.87.7.4.4.7,1.14.7,2.08v6.98h-.77v-1.4c-.39.96-1.01,1.56-1.95,1.56-1.3,0-2.2-1.27-2.2-2.98ZM205.15,50.98v-1.93c-.51-.24-1.01-.39-1.58-.39-1.19,0-1.8.99-1.8,2.33v.15c0,1.3.53,2.33,1.54,2.33,1.14,0,1.84-1.23,1.84-2.5Z" fill="#2a2a2a"/>
  <path d="M208.22,52.38v-7.31h-.92v-.72h.92v-2.72h.77v2.72h1.56v.72h-1.56v7.2c0,.84.39,1.06,1.01,1.06.18,0,.44-.04.59-.09v.72c-.18.07-.46.11-.66.11-1.05,0-1.71-.46-1.71-1.69Z" fill="#2a2a2a"/>
  <path d="M212.17,51.09v-6.74h.77v6.67c0,1.6.57,2.46,1.58,2.46s1.84-1.05,1.84-2.61v-6.52h.77v9.64h-.77v-1.41c-.33.81-.92,1.56-1.98,1.56-1.3,0-2.2-1.08-2.2-3.05Z" fill="#2a2a2a"/>
  <path d="M219.31,44.35h.77v1.41c.37-.88,1.12-1.6,2.26-1.52v.83h-.04c-1.21,0-2.22.77-2.22,2.46v6.46h-.77v-9.64Z" fill="#2a2a2a"/>
  <path d="M223.38,51.18v-.15c0-1.78.92-3.08,2.53-3.08.66,0,1.18.16,1.62.37v-1.21c0-1.34-.61-2.13-1.84-2.13-.68,0-1.21.13-1.78.44v-.75c.53-.26,1.14-.42,1.82-.42.77,0,1.4.22,1.87.7.4.4.7,1.14.7,2.08v6.98h-.77v-1.4c-.39.96-1.01,1.56-1.95,1.56-1.3,0-2.2-1.27-2.2-2.98ZM227.53,50.98v-1.93c-.51-.24-1.01-.39-1.58-.39-1.19,0-1.8.99-1.8,2.33v.15c0,1.3.53,2.33,1.54,2.33,1.14,0,1.84-1.23,1.84-2.5Z" fill="#2a2a2a"/>
  <path d="M230.49,41.01h.77v12.98h-.77v-12.98Z" fill="#2a2a2a"/>
  <path d="M236.73,49.35v-.35c0-3.07,1.19-4.79,2.52-4.79.97,0,1.63.9,2.02,2v-5.2h.77v12.98h-.77v-1.85c-.39,1.1-1.05,2-2.02,2-1.32,0-2.52-1.69-2.52-4.79ZM241.3,49.4v-.46c0-2.59-.99-4.06-1.96-4.06s-1.84,1.49-1.84,4.13v.31c0,2.64.84,4.13,1.84,4.13s1.96-1.47,1.96-4.06Z" fill="#2a2a2a"/>
  <path d="M243.89,49.35v-.17c0-3.34,1.23-4.98,2.64-4.98s2.52,1.71,2.52,4.72v.57h-4.39c.04,2.61,1.1,3.89,2.41,3.89.59,0,1.05-.15,1.67-.57l.09.79c-.68.39-1.12.51-1.87.51-1.62,0-3.07-1.58-3.07-4.77ZM248.3,48.82c0-2.22-.73-3.89-1.76-3.89s-1.8,1.34-1.87,3.89h3.64Z" fill="#2a2a2a"/>
  <path d="M254.04,49.26v-.16c0-3.03,1.3-4.88,2.75-4.88s2.72,1.85,2.72,4.88v.16c0,3.03-1.29,4.88-2.74,4.88s-2.74-1.85-2.74-4.88ZM258.74,49.26v-.16c0-2.53-.88-4.17-1.96-4.17s-1.96,1.63-1.96,4.17v.16c0,2.53.88,4.17,1.96,4.17s1.96-1.63,1.96-4.17Z" fill="#2a2a2a"/>
  <path d="M261.35,44.35h.77v1.41c.37-.88,1.12-1.6,2.26-1.52v.83h-.04c-1.21,0-2.22.77-2.22,2.46v6.46h-.77v-9.64Z" fill="#2a2a2a"/>
  <path d="M265.93,41.01h.84v1.29h-.84v-1.29ZM265.97,44.35h.77v9.64h-.77v-9.64Z" fill="#2a2a2a"/>
  <path d="M268.99,56.03v-.79c.7.28,1.52.46,2.15.46,1.3,0,1.98-.62,1.98-1.95v-2.28c-.39,1.1-1.05,2-2.02,2-1.29,0-2.52-1.6-2.52-4.55v-.17c0-2.92,1.23-4.55,2.52-4.55.97,0,1.63.9,2.02,2v-1.85h.77v9.36c0,.88-.24,1.54-.68,1.98-.48.48-1.19.72-2.11.72-.66,0-1.45-.15-2.11-.39ZM273.16,48.93v-.17c0-2.46-1.03-3.87-1.96-3.87s-1.84,1.38-1.84,3.89v.13c0,2.52.88,3.89,1.84,3.89s1.96-1.41,1.96-3.87Z" fill="#2a2a2a"/>
  <path d="M276.1,41.01h.84v1.29h-.84v-1.29ZM276.13,44.35h.77v9.64h-.77v-9.64Z" fill="#2a2a2a"/>
  <path d="M279.12,44.35h.77v1.41c.33-.81.92-1.56,1.98-1.56,1.3,0,2.2,1.08,2.2,3.05v6.74h-.77v-6.67c0-1.6-.57-2.46-1.58-2.46s-1.84,1.05-1.84,2.61v6.52h-.77v-9.64Z" fill="#2a2a2a"/>
  <path d="M285.7,51.18v-.15c0-1.78.92-3.08,2.53-3.08.66,0,1.18.16,1.62.37v-1.21c0-1.34-.61-2.13-1.84-2.13-.68,0-1.21.13-1.78.44v-.75c.53-.26,1.14-.42,1.82-.42.77,0,1.4.22,1.87.7.4.4.7,1.14.7,2.08v6.98h-.77v-1.4c-.39.96-1.01,1.56-1.95,1.56-1.3,0-2.2-1.27-2.2-2.98ZM289.85,50.98v-1.93c-.51-.24-1.01-.39-1.58-.39-1.19,0-1.8.99-1.8,2.33v.15c0,1.3.53,2.33,1.54,2.33,1.14,0,1.84-1.23,1.84-2.5Z" fill="#2a2a2a"/>
  <path d="M292.8,41.01h.77v12.98h-.77v-12.98Z" fill="#2a2a2a"/>
  <path d="M295.81,41.01h.84v1.29h-.84v-1.29ZM295.85,44.35h.77v9.64h-.77v-9.64Z" fill="#2a2a2a"/>
  <path d="M298.53,49.35v-.35c0-3.07,1.19-4.79,2.52-4.79.97,0,1.63.9,2.02,2v-5.2h.77v12.98h-.77v-1.85c-.39,1.1-1.05,2-2.02,2-1.32,0-2.52-1.69-2.52-4.79ZM303.1,49.4v-.46c0-2.59-.99-4.06-1.96-4.06s-1.84,1.49-1.84,4.13v.31c0,2.64.84,4.13,1.84,4.13s1.96-1.47,1.96-4.06Z" fill="#2a2a2a"/>
  <path d="M305.48,51.18v-.15c0-1.78.92-3.08,2.53-3.08.66,0,1.18.16,1.62.37v-1.21c0-1.34-.61-2.13-1.84-2.13-.68,0-1.21.13-1.78.44v-.75c.53-.26,1.14-.42,1.82-.42.77,0,1.4.22,1.87.7.4.4.7,1.14.7,2.08v6.98h-.77v-1.4c-.39.96-1.01,1.56-1.95,1.56-1.3,0-2.2-1.27-2.2-2.98ZM309.63,50.98v-1.93c-.51-.24-1.01-.39-1.58-.39-1.19,0-1.8.99-1.8,2.33v.15c0,1.3.53,2.33,1.54,2.33,1.14,0,1.84-1.23,1.84-2.5Z" fill="#2a2a2a"/>
  <path d="M312.22,49.35v-.35c0-3.07,1.19-4.79,2.52-4.79.97,0,1.63.9,2.02,2v-5.2h.77v12.98h-.77v-1.85c-.39,1.1-1.05,2-2.02,2-1.32,0-2.52-1.69-2.52-4.79ZM316.79,49.4v-.46c0-2.59-.99-4.06-1.96-4.06s-1.84,1.49-1.84,4.13v.31c0,2.64.84,4.13,1.84,4.13s1.96-1.47,1.96-4.06Z" fill="#2a2a2a"/>
  <path d="M319.38,49.35v-.17c0-3.34,1.23-4.98,2.64-4.98s2.52,1.71,2.52,4.72v.57h-4.39c.04,2.61,1.1,3.89,2.41,3.89.59,0,1.05-.15,1.67-.57l.09.79c-.68.39-1.12.51-1.87.51-1.62,0-3.07-1.58-3.07-4.77ZM323.78,48.82c0-2.22-.73-3.89-1.76-3.89s-1.8,1.34-1.87,3.89h3.64Z" fill="#2a2a2a"/>
  <path d="M325.66,55.43c.72-.31.99-.73.94-1.43h-.5v-1.51h1.14v1.3c0,1.14-.35,1.62-1.36,2.09l-.22-.46Z" fill="#2a2a2a"/>
  <path d="M332.79,44.35h.77v1.85c.39-1.1,1.05-2,2.02-2,1.32,0,2.52,1.69,2.52,4.79v.35c0,3.07-1.19,4.79-2.52,4.79-.97,0-1.63-.9-2.02-2v4.24h-.77v-12.03ZM337.32,49.33v-.31c0-2.64-.84-4.13-1.84-4.13s-1.96,1.47-1.96,4.06v.46c0,2.59.99,4.06,1.96,4.06s1.84-1.49,1.84-4.13Z" fill="#2a2a2a"/>
  <path d="M339.98,41.01h.84v1.29h-.84v-1.29ZM340.02,44.35h.77v9.64h-.77v-9.64Z" fill="#2a2a2a"/>
  <path d="M343.31,52.38v-7.31h-.92v-.72h.92v-2.72h.77v2.72h1.56v.72h-1.56v7.2c0,.84.39,1.06,1.01,1.06.18,0,.44-.04.59-.09v.72c-.18.07-.46.11-.66.11-1.05,0-1.71-.46-1.71-1.69Z" fill="#2a2a2a"/>
  <path d="M346.9,51.18v-.15c0-1.78.92-3.08,2.53-3.08.66,0,1.18.16,1.62.37v-1.21c0-1.34-.61-2.13-1.84-2.13-.68,0-1.21.13-1.78.44v-.75c.53-.26,1.14-.42,1.82-.42.77,0,1.4.22,1.87.7.4.4.7,1.14.7,2.08v6.98h-.77v-1.4c-.39.96-1.01,1.56-1.95,1.56-1.3,0-2.2-1.27-2.2-2.98ZM351.05,50.98v-1.93c-.51-.24-1.01-.39-1.58-.39-1.19,0-1.8.99-1.8,2.33v.15c0,1.3.53,2.33,1.54,2.33,1.14,0,1.84-1.23,1.84-2.5Z" fill="#2a2a2a"/>
  <path d="M353.64,49.35v-.35c0-3.07,1.19-4.79,2.52-4.79.97,0,1.63.9,2.02,2v-5.2h.77v12.98h-.77v-1.85c-.39,1.1-1.05,2-2.02,2-1.32,0-2.52-1.69-2.52-4.79ZM358.21,49.4v-.46c0-2.59-.99-4.06-1.96-4.06s-1.84,1.49-1.84,4.13v.31c0,2.64.84,4.13,1.84,4.13s1.96-1.47,1.96-4.06Z" fill="#2a2a2a"/>
  <path d="M360.6,51.18v-.15c0-1.78.92-3.08,2.53-3.08.66,0,1.18.16,1.62.37v-1.21c0-1.34-.61-2.13-1.84-2.13-.68,0-1.21.13-1.78.44v-.75c.53-.26,1.14-.42,1.82-.42.77,0,1.4.22,1.87.7.4.4.7,1.14.7,2.08v6.98h-.77v-1.4c-.39.96-1.01,1.56-1.95,1.56-1.3,0-2.2-1.27-2.2-2.98ZM364.75,50.98v-1.93c-.51-.24-1.01-.39-1.58-.39-1.19,0-1.8.99-1.8,2.33v.15c0,1.3.53,2.33,1.54,2.33,1.14,0,1.84-1.23,1.84-2.5Z" fill="#2a2a2a"/>
  <path d="M367.11,53.64v-.81c.66.35,1.34.55,1.96.55.81,0,1.47-.53,1.47-1.43v-.04c0-.68-.39-1.36-1.52-2.44-1.43-1.36-1.89-2.11-1.89-3.08v-.04c0-1.34,1.05-2.11,2.18-2.11.64,0,1.08.09,1.6.31v.81c-.55-.28-1.06-.4-1.63-.4-.79,0-1.38.51-1.38,1.36v.04c0,.7.37,1.23,1.52,2.37,1.36,1.34,1.89,2.13,1.89,3.16v.04c0,1.36-1.1,2.18-2.28,2.18-.75,0-1.3-.16-1.93-.46Z" fill="#2a2a2a"/>
  <path d="M376.16,49.35v-.35c0-3.07,1.19-4.79,2.52-4.79.97,0,1.63.9,2.02,2v-5.2h.77v12.98h-.77v-1.85c-.39,1.1-1.05,2-2.02,2-1.32,0-2.52-1.69-2.52-4.79ZM380.73,49.4v-.46c0-2.59-.99-4.06-1.96-4.06s-1.84,1.49-1.84,4.13v.31c0,2.64.84,4.13,1.84,4.13s1.96-1.47,1.96-4.06Z" fill="#2a2a2a"/>
  <path d="M383.32,49.35v-.17c0-3.34,1.23-4.98,2.64-4.98s2.52,1.71,2.52,4.72v.57h-4.39c.04,2.61,1.1,3.89,2.41,3.89.59,0,1.05-.15,1.67-.57l.09.79c-.68.39-1.12.51-1.87.51-1.62,0-3.07-1.58-3.07-4.77ZM387.73,48.82c0-2.22-.73-3.89-1.76-3.89s-1.8,1.34-1.87,3.89h3.64Z" fill="#2a2a2a"/>
  <path d="M393.47,49.29v-.18c0-3.34,1.47-4.88,2.94-4.88.48,0,.88.15,1.16.33v.85c-.33-.26-.72-.44-1.18-.44-.99,0-2.15,1.27-2.15,4.11v.26c0,2.9,1.12,4.06,2.22,4.06.4,0,.77-.16,1.1-.44v.81c-.31.22-.68.37-1.16.37-1.51,0-2.94-1.47-2.94-4.83Z" fill="#2a2a2a"/>
  <path d="M399.19,44.35h.77v1.41c.37-.88,1.12-1.6,2.26-1.52v.83h-.04c-1.21,0-2.22.77-2.22,2.46v6.46h-.77v-9.64Z" fill="#2a2a2a"/>
  <path d="M403.81,44.35h.77v9.64h-.77v-9.64ZM405.04,41.12l.86.46-1.51,1.84h-.53l1.18-2.29Z" fill="#2a2a2a"/>
  <path d="M407.31,52.38v-7.31h-.92v-.72h.92v-2.72h.77v2.72h1.56v.72h-1.56v7.2c0,.84.39,1.06,1.01,1.06.18,0,.44-.04.59-.09v.72c-.18.07-.46.11-.66.11-1.05,0-1.71-.46-1.71-1.69Z" fill="#2a2a2a"/>
  <path d="M411.33,41.01h.84v1.29h-.84v-1.29ZM411.36,44.35h.77v9.64h-.77v-9.64Z" fill="#2a2a2a"/>
  <path d="M414,49.29v-.18c0-3.34,1.47-4.88,2.94-4.88.48,0,.88.15,1.16.33v.85c-.33-.26-.72-.44-1.18-.44-.99,0-2.15,1.27-2.15,4.11v.26c0,2.9,1.12,4.06,2.22,4.06.4,0,.77-.16,1.1-.44v.81c-.31.22-.68.37-1.16.37-1.51,0-2.94-1.47-2.94-4.83Z" fill="#2a2a2a"/>
  <path d="M419.35,51.18v-.15c0-1.78.92-3.08,2.53-3.08.66,0,1.18.16,1.62.37v-1.21c0-1.34-.61-2.13-1.84-2.13-.68,0-1.21.13-1.78.44v-.75c.53-.26,1.14-.42,1.82-.42.77,0,1.4.22,1.87.7.4.4.7,1.14.7,2.08v6.98h-.77v-1.4c-.39.96-1.01,1.56-1.95,1.56-1.3,0-2.2-1.27-2.2-2.98ZM423.5,50.98v-1.93c-.51-.24-1.01-.39-1.58-.39-1.19,0-1.8.99-1.8,2.33v.15c0,1.3.53,2.33,1.54,2.33,1.14,0,1.84-1.23,1.84-2.5Z" fill="#2a2a2a"/>
  <path d="M429.52,49.29v-.18c0-3.34,1.47-4.88,2.94-4.88.48,0,.88.15,1.16.33v.85c-.33-.26-.72-.44-1.18-.44-.99,0-2.15,1.27-2.15,4.11v.26c0,2.9,1.12,4.06,2.22,4.06.4,0,.77-.16,1.1-.44v.81c-.31.22-.68.37-1.16.37-1.51,0-2.94-1.47-2.94-4.83Z" fill="#2a2a2a"/>
  <path d="M434.67,49.26v-.16c0-3.03,1.3-4.88,2.75-4.88s2.72,1.85,2.72,4.88v.16c0,3.03-1.29,4.88-2.74,4.88s-2.74-1.85-2.74-4.88ZM439.37,49.26v-.16c0-2.53-.88-4.17-1.96-4.17s-1.96,1.63-1.96,4.17v.16c0,2.53.88,4.17,1.96,4.17s1.96-1.63,1.96-4.17Z" fill="#2a2a2a"/>
  <path d="M441.97,44.35h.77v1.41c.33-.81.92-1.56,1.98-1.56,1.3,0,2.2,1.08,2.2,3.05v6.74h-.77v-6.67c0-1.6-.57-2.46-1.58-2.46s-1.84,1.05-1.84,2.61v6.52h-.77v-9.64Z" fill="#2a2a2a"/>
  <path d="M448.52,53.64v-.81c.66.35,1.34.55,1.96.55.81,0,1.47-.53,1.47-1.43v-.04c0-.68-.39-1.36-1.52-2.44-1.43-1.36-1.89-2.11-1.89-3.08v-.04c0-1.34,1.05-2.11,2.18-2.11.64,0,1.08.09,1.6.31v.81c-.55-.28-1.06-.4-1.63-.4-.79,0-1.38.51-1.38,1.36v.04c0,.7.37,1.23,1.52,2.37,1.36,1.34,1.89,2.13,1.89,3.16v.04c0,1.36-1.1,2.18-2.28,2.18-.75,0-1.3-.16-1.93-.46Z" fill="#2a2a2a"/>
  <path d="M454.75,52.38v-7.31h-.92v-.72h.92v-2.72h.77v2.72h1.56v.72h-1.56v7.2c0,.84.39,1.06,1.01,1.06.18,0,.44-.04.59-.09v.72c-.18.07-.46.11-.66.11-1.05,0-1.71-.46-1.71-1.69Z" fill="#2a2a2a"/>
  <path d="M458.75,44.35h.77v1.41c.37-.88,1.12-1.6,2.26-1.52v.83h-.04c-1.21,0-2.22.77-2.22,2.46v6.46h-.77v-9.64Z" fill="#2a2a2a"/>
  <path d="M463.27,51.09v-6.74h.77v6.67c0,1.6.57,2.46,1.58,2.46s1.84-1.05,1.84-2.61v-6.52h.77v9.64h-.77v-1.41c-.33.81-.92,1.56-1.98,1.56-1.3,0-2.2-1.08-2.2-3.05Z" fill="#2a2a2a"/>
  <path d="M470.72,52.38v-7.31h-.92v-.72h.92v-2.72h.77v2.72h1.56v.72h-1.56v7.2c0,.84.39,1.06,1.01,1.06.18,0,.44-.04.59-.09v.72c-.18.07-.46.11-.66.11-1.05,0-1.71-.46-1.71-1.69Z" fill="#2a2a2a"/>
  <path d="M474.74,41.01h.84v1.29h-.84v-1.29ZM474.78,44.35h.77v9.64h-.77v-9.64Z" fill="#2a2a2a"/>
  <path d="M477.23,44.35h.79l1.91,8.34,1.95-8.34h.75l-2.37,9.7h-.66l-2.37-9.7Z" fill="#2a2a2a"/>
  <path d="M483.77,51.18v-.15c0-1.78.92-3.08,2.53-3.08.66,0,1.18.16,1.62.37v-1.21c0-1.34-.61-2.13-1.84-2.13-.68,0-1.21.13-1.78.44v-.75c.53-.26,1.14-.42,1.82-.42.77,0,1.4.22,1.87.7.4.4.7,1.14.7,2.08v6.98h-.77v-1.4c-.39.96-1.01,1.56-1.95,1.56-1.3,0-2.2-1.27-2.2-2.98ZM487.92,50.98v-1.93c-.51-.24-1.01-.39-1.58-.39-1.19,0-1.8.99-1.8,2.33v.15c0,1.3.53,2.33,1.54,2.33,1.14,0,1.84-1.23,1.84-2.5Z" fill="#2a2a2a"/>
  <path d="M490.34,55.43c.72-.31.99-.73.94-1.43h-.5v-1.51h1.14v1.3c0,1.14-.35,1.62-1.36,2.09l-.22-.46Z" fill="#2a2a2a"/>
  <path d="M496.95,53.64v-.81c.66.35,1.34.55,1.96.55.81,0,1.47-.53,1.47-1.43v-.04c0-.68-.39-1.36-1.52-2.44-1.43-1.36-1.89-2.11-1.89-3.08v-.04c0-1.34,1.05-2.11,2.18-2.11.64,0,1.08.09,1.6.31v.81c-.55-.28-1.06-.4-1.63-.4-.79,0-1.38.51-1.38,1.36v.04c0,.7.37,1.23,1.52,2.37,1.36,1.34,1.89,2.13,1.89,3.16v.04c0,1.36-1.1,2.18-2.28,2.18-.75,0-1.3-.16-1.93-.46Z" fill="#2a2a2a"/>
  <path d="M502.55,51.18v-.15c0-1.78.92-3.08,2.53-3.08.66,0,1.18.16,1.62.37v-1.21c0-1.34-.61-2.13-1.84-2.13-.68,0-1.21.13-1.78.44v-.75c.53-.26,1.14-.42,1.82-.42.77,0,1.4.22,1.87.7.4.4.7,1.14.7,2.08v6.98h-.77v-1.4c-.39.96-1.01,1.56-1.95,1.56-1.3,0-2.2-1.27-2.2-2.98ZM506.7,50.98v-1.93c-.51-.24-1.01-.39-1.58-.39-1.19,0-1.8.99-1.8,2.33v.15c0,1.3.53,2.33,1.54,2.33,1.14,0,1.84-1.23,1.84-2.5Z" fill="#2a2a2a"/>
  <path d="M509.66,41.01h.77v12.98h-.77v-12.98Z" fill="#2a2a2a"/>
  <path d="M515.9,49.35v-.35c0-3.07,1.19-4.79,2.52-4.79.97,0,1.63.9,2.02,2v-5.2h.77v12.98h-.77v-1.85c-.39,1.1-1.05,2-2.02,2-1.32,0-2.52-1.69-2.52-4.79ZM520.47,49.4v-.46c0-2.59-.99-4.06-1.96-4.06s-1.84,1.49-1.84,4.13v.31c0,2.64.84,4.13,1.84,4.13s1.96-1.47,1.96-4.06Z" fill="#2a2a2a"/>
  <path d="M523.06,49.35v-.17c0-3.34,1.23-4.98,2.64-4.98s2.52,1.71,2.52,4.72v.57h-4.39c.04,2.61,1.1,3.89,2.41,3.89.59,0,1.05-.15,1.67-.57l.09.79c-.68.39-1.12.51-1.87.51-1.62,0-3.07-1.58-3.07-4.77ZM527.46,48.82c0-2.22-.73-3.89-1.76-3.89s-1.8,1.34-1.87,3.89h3.64Z" fill="#2a2a2a"/>
  <path d="M533.21,49.26v-.16c0-3.03,1.3-4.88,2.75-4.88s2.72,1.85,2.72,4.88v.16c0,3.03-1.29,4.88-2.74,4.88s-2.74-1.85-2.74-4.88ZM537.91,49.26v-.16c0-2.53-.88-4.17-1.96-4.17s-1.96,1.63-1.96,4.17v.16c0,2.53.88,4.17,1.96,4.17s1.96-1.63,1.96-4.17Z" fill="#2a2a2a"/>
  <path d="M540.45,51.09v-6.74h.77v6.67c0,1.6.57,2.46,1.58,2.46s1.84-1.05,1.84-2.61v-6.52h.77v9.64h-.77v-1.41c-.33.81-.92,1.56-1.98,1.56-1.3,0-2.2-1.08-2.2-3.05Z" fill="#2a2a2a"/>
  <path d="M547.03,53.64v-.81c.66.35,1.34.55,1.96.55.81,0,1.47-.53,1.47-1.43v-.04c0-.68-.39-1.36-1.52-2.44-1.43-1.36-1.89-2.11-1.89-3.08v-.04c0-1.34,1.05-2.11,2.18-2.11.64,0,1.08.09,1.6.31v.81c-.55-.28-1.06-.4-1.63-.4-.79,0-1.38.51-1.38,1.36v.04c0,.7.37,1.23,1.52,2.37,1.36,1.34,1.89,2.13,1.89,3.16v.04c0,1.36-1.1,2.18-2.28,2.18-.75,0-1.3-.16-1.93-.46Z" fill="#2a2a2a"/>
  <path d="M552.63,51.18v-.15c0-1.78.92-3.08,2.53-3.08.66,0,1.18.16,1.62.37v-1.21c0-1.34-.61-2.13-1.84-2.13-.68,0-1.21.13-1.78.44v-.75c.53-.26,1.14-.42,1.82-.42.77,0,1.4.22,1.87.7.4.4.7,1.14.7,2.08v6.98h-.77v-1.4c-.39.96-1.01,1.56-1.95,1.56-1.3,0-2.2-1.27-2.2-2.98ZM556.78,50.98v-1.93c-.51-.24-1.01-.39-1.58-.39-1.19,0-1.8.99-1.8,2.33v.15c0,1.3.53,2.33,1.54,2.33,1.14,0,1.84-1.23,1.84-2.5Z" fill="#2a2a2a"/>
  <path d="M559.36,49.35v-.35c0-3.07,1.19-4.79,2.52-4.79.97,0,1.63.9,2.02,2v-5.2h.77v12.98h-.77v-1.85c-.39,1.1-1.05,2-2.02,2-1.32,0-2.52-1.69-2.52-4.79ZM563.93,49.4v-.46c0-2.59-.99-4.06-1.96-4.06s-1.84,1.49-1.84,4.13v.31c0,2.64.84,4.13,1.84,4.13s1.96-1.47,1.96-4.06Z" fill="#2a2a2a"/>
  <path d="M566.87,41.01h.84v1.29h-.84v-1.29ZM566.91,44.35h.77v9.64h-.77v-9.64Z" fill="#2a2a2a"/>
  <path d="M569.37,51.18v-.15c0-1.78.92-3.08,2.53-3.08.66,0,1.18.16,1.62.37v-1.21c0-1.34-.61-2.13-1.84-2.13-.68,0-1.21.13-1.78.44v-.75c.53-.26,1.14-.42,1.82-.42.77,0,1.4.22,1.87.7.4.4.7,1.14.7,2.08v6.98h-.77v-1.4c-.39.96-1.01,1.56-1.95,1.56-1.3,0-2.2-1.27-2.2-2.98ZM573.52,50.98v-1.93c-.51-.24-1.01-.39-1.58-.39-1.19,0-1.8.99-1.8,2.33v.15c0,1.3.53,2.33,1.54,2.33,1.14,0,1.84-1.23,1.84-2.5Z" fill="#2a2a2a"/>
  <path d="M579.54,49.35v-.17c0-3.34,1.23-4.98,2.64-4.98s2.52,1.71,2.52,4.72v.57h-4.39c.04,2.61,1.1,3.89,2.41,3.89.59,0,1.05-.15,1.67-.57l.09.79c-.68.39-1.12.51-1.87.51-1.62,0-3.07-1.58-3.07-4.77ZM583.94,48.82c0-2.22-.73-3.89-1.76-3.89s-1.8,1.34-1.87,3.89h3.64Z" fill="#2a2a2a"/>
  <path d="M590.77,52.14c-.39,1.1-1.05,2-2.02,2-1.32,0-2.52-1.69-2.52-4.79v-.35c0-3.07,1.19-4.79,2.52-4.79.97,0,1.63.9,2.02,2v-1.85h.77v12.03h-.77v-4.24ZM590.81,49.4v-.46c0-2.59-.99-4.06-1.96-4.06s-1.84,1.49-1.84,4.13v.31c0,2.64.84,4.13,1.84,4.13s1.96-1.47,1.96-4.06Z" fill="#2a2a2a"/>
  <path d="M593.68,51.09v-6.74h.77v6.67c0,1.6.57,2.46,1.58,2.46s1.84-1.05,1.84-2.61v-6.52h.77v9.64h-.77v-1.41c-.33.81-.92,1.56-1.98,1.56-1.3,0-2.2-1.08-2.2-3.05Z" fill="#2a2a2a"/>
  <path d="M600.84,41.01h.84v1.29h-.84v-1.29ZM600.87,44.35h.77v9.64h-.77v-9.64Z" fill="#2a2a2a"/>
  <path d="M603.92,41.01h.77v12.98h-.77v-12.98Z" fill="#2a2a2a"/>
  <path d="M606.92,41.01h.84v1.29h-.84v-1.29ZM606.96,44.35h.77v9.64h-.77v-9.64Z" fill="#2a2a2a"/>
  <path d="M610.72,52.14v1.85h-.77v-12.98h.77v5.2c.39-1.1,1.05-2,2.02-2,1.32,0,2.52,1.69,2.52,4.79v.35c0,3.07-1.19,4.79-2.52,4.79-.97,0-1.63-.9-2.02-2ZM614.49,49.33v-.31c0-2.64-.84-4.13-1.84-4.13s-1.96,1.47-1.96,4.06v.46c0,2.59.99,4.06,1.96,4.06s1.84-1.49,1.84-4.13Z" fill="#2a2a2a"/>
  <path d="M617.13,44.35h.77v1.41c.37-.88,1.12-1.6,2.26-1.52v.83h-.04c-1.21,0-2.22.77-2.22,2.46v6.46h-.77v-9.64Z" fill="#2a2a2a"/>
  <path d="M621.2,51.18v-.15c0-1.78.92-3.08,2.53-3.08.66,0,1.18.16,1.62.37v-1.21c0-1.34-.61-2.13-1.84-2.13-.68,0-1.21.13-1.78.44v-.75c.53-.26,1.14-.42,1.82-.42.77,0,1.4.22,1.87.7.4.4.7,1.14.7,2.08v6.98h-.77v-1.4c-.39.96-1.01,1.56-1.95,1.56-1.3,0-2.2-1.27-2.2-2.98ZM625.35,50.98v-1.93c-.51-.24-1.01-.39-1.58-.39-1.19,0-1.8.99-1.8,2.33v.15c0,1.3.53,2.33,1.54,2.33,1.14,0,1.84-1.23,1.84-2.5Z" fill="#2a2a2a"/>
  <path d="M627.93,49.35v-.35c0-3.07,1.19-4.79,2.52-4.79.97,0,1.63.9,2.02,2v-5.2h.77v12.98h-.77v-1.85c-.39,1.1-1.05,2-2.02,2-1.32,0-2.52-1.69-2.52-4.79ZM632.51,49.4v-.46c0-2.59-.99-4.06-1.96-4.06s-1.84,1.49-1.84,4.13v.31c0,2.64.84,4.13,1.84,4.13s1.96-1.47,1.96-4.06Z" fill="#2a2a2a"/>
  <path d="M634.89,51.18v-.15c0-1.78.92-3.08,2.53-3.08.66,0,1.18.16,1.62.37v-1.21c0-1.34-.61-2.13-1.84-2.13-.68,0-1.21.13-1.78.44v-.75c.53-.26,1.14-.42,1.82-.42.77,0,1.4.22,1.87.7.4.4.7,1.14.7,2.08v6.98h-.77v-1.4c-.39.96-1.01,1.56-1.95,1.56-1.3,0-2.2-1.27-2.2-2.98ZM639.04,50.98v-1.93c-.51-.24-1.01-.39-1.58-.39-1.19,0-1.8.99-1.8,2.33v.15c0,1.3.53,2.33,1.54,2.33,1.14,0,1.84-1.23,1.84-2.5Z" fill="#2a2a2a"/>
  <path d="M641.91,52.49h1.14v1.51h-1.14v-1.51Z" fill="#2a2a2a"/>
  <path d="M.4,68.16c0-2.59.88-6.11,2.59-7.82.72-.72,1.41-.95,2.08-.95.55,0,1.05.17,1.41.4l-.16.88c-.35-.29-.81-.51-1.3-.51-.55,0-1.01.26-1.41.66-1.34,1.34-2.39,4.57-2.39,7.33,0,2.17.51,3.54,1.82,3.54.4,0,.79-.13,1.29-.42l-.17.84c-.28.18-.7.35-1.21.35-1.71,0-2.53-1.49-2.53-4.3Z" fill="#2a2a2a"/>
  <path d="M5.78,69.23c0-2.35.84-4.77,1.96-5.89.55-.55,1.16-.77,1.69-.77,1.27,0,2.11,1.19,2.11,3.27,0,2.35-.84,4.77-1.96,5.89-.55.55-1.16.77-1.69.77-1.27,0-2.11-1.19-2.11-3.27ZM9.05,71.25c.99-.99,1.73-3.43,1.73-5.45,0-1.6-.53-2.52-1.4-2.52-.4,0-.75.18-1.1.53-.99.99-1.73,3.43-1.73,5.45,0,1.6.53,2.52,1.4,2.52.4,0,.75-.18,1.1-.53Z" fill="#2a2a2a"/>
  <path d="M14.19,62.71h.77l-.28,1.41c.53-.92,1.27-1.56,2.22-1.56,1.05,0,1.74.75,1.74,2.04,0,.37-.04.83-.2,1.67l-1.18,6.08h-.77l1.19-6.15c.16-.84.18-1.25.18-1.58,0-.9-.42-1.39-1.19-1.39-1.14,0-2.06,1.25-2.33,2.63l-1.27,6.5h-.77l1.87-9.64Z" fill="#2a2a2a"/>
  <path d="M19.91,71.19c0-.29.09-.77.13-.95l1.32-6.81h-.92l.15-.72h.92l.51-2.72h.77l-.51,2.72h1.56l-.15.72h-1.56l-1.4,7.2c-.04.18-.06.33-.06.44,0,.4.22.62.73.62.26,0,.59-.09.73-.18l-.13.72c-.18.11-.5.2-.79.2-.79,0-1.32-.4-1.32-1.23Z" fill="#2a2a2a"/>
  <path d="M24.6,67.85c-.06.39-.07.75-.07,1.1,0,1.89.75,2.79,1.89,2.79.51,0,1.05-.18,1.6-.57l-.06.79c-.26.2-.9.51-1.6.51-1.47,0-2.59-1.08-2.59-3.53,0-2.11.79-4.43,1.96-5.6.5-.5,1.05-.79,1.65-.79,1.14,0,1.91.99,1.91,2.9,0,.53-.09,1.36-.31,2.39h-4.39ZM24.71,67.17h3.65c.13-.61.18-1.16.18-1.76,0-1.29-.39-2.13-1.23-2.13-.37,0-.72.18-1.05.51-.73.73-1.29,2.04-1.56,3.38ZM28.84,59.39l.81.48-1.85,1.82h-.59l1.63-2.3Z" fill="#2a2a2a"/>
  <path d="M31.9,62.71h.77l-.28,1.41c.53-.92,1.27-1.56,2.17-1.56s1.52.61,1.63,1.69c.7-1.14,1.52-1.69,2.44-1.69.99,0,1.69.75,1.69,2.04,0,.37-.04.83-.2,1.67l-1.18,6.08h-.77l1.19-6.15c.17-.84.18-1.25.18-1.58,0-.9-.42-1.39-1.14-1.39-.99,0-1.98,1.14-2.24,2.42l-1.3,6.7h-.77l1.19-6.15c.17-.84.18-1.25.18-1.58,0-.9-.42-1.39-1.14-1.39-1.08,0-2,1.25-2.28,2.63l-1.27,6.5h-.77l1.87-9.64Z" fill="#2a2a2a"/>
  <path d="M45.15,71.19c0-.29.09-.77.13-.95l1.32-6.81h-.92l.15-.72h.92l.51-2.72h.77l-.51,2.72h1.56l-.15.72h-1.56l-1.4,7.2c-.04.18-.06.33-.06.44,0,.4.22.62.73.62.26,0,.59-.09.73-.18l-.13.72c-.18.11-.5.2-.79.2-.79,0-1.32-.4-1.32-1.23Z" fill="#2a2a2a"/>
  <path d="M50.65,62.71h.77l-.28,1.41c.53-.88,1.3-1.6,2.55-1.52l-.17.83h-.07c-1.32,0-2.33.77-2.66,2.46l-1.25,6.46h-.77l1.87-9.64Z" fill="#2a2a2a"/>
  <path d="M53.19,70.22c0-1.19.4-2.37,1.16-3.12.48-.48,1.12-.79,1.87-.79.66,0,1.25.18,1.74.48l.07-.4c.16-.84.2-1.18.2-1.52,0-.88-.4-1.52-1.63-1.52-.51,0-1.08.11-1.67.37l.15-.75c.53-.24,1.25-.35,1.67-.35,1.43,0,2.26.81,2.26,2.17,0,.4-.06.84-.22,1.69l-1.14,5.89h-.77l.26-1.3c-.48.81-1.12,1.47-2.07,1.47-1.14,0-1.87-.81-1.87-2.3ZM57.51,69.16l.31-1.63c-.42-.33-1.12-.5-1.65-.5s-.96.2-1.29.53c-.62.62-.92,1.69-.92,2.66,0,1.1.51,1.62,1.3,1.62,1.16,0,1.96-1.25,2.24-2.68Z" fill="#2a2a2a"/>
  <path d="M60.4,74l1.29-1.65c-.86-.35-1.49-1.36-1.49-3.1,0-2.11.77-4.55,2.04-5.82.53-.53,1.16-.84,1.84-.84.5,0,1.01.18,1.3.46l-.16.83c-.28-.31-.66-.55-1.19-.55-.46,0-.88.22-1.25.59-1.12,1.12-1.8,3.53-1.8,5.16,0,2,.73,2.68,1.58,2.68.42,0,.83-.16,1.21-.44l-.15.83c-.37.22-.77.35-1.19.35-.05,0-.11-.02-.16-.02l-1.05,1.91-.81-.37Z" fill="#2a2a2a"/>
  <path d="M65.42,69.23c0-2.35.84-4.77,1.96-5.89.55-.55,1.16-.77,1.69-.77,1.27,0,2.11,1.19,2.11,3.27,0,2.35-.84,4.77-1.96,5.89-.55.55-1.16.77-1.69.77-1.27,0-2.11-1.19-2.11-3.27ZM68.69,71.25c.99-.99,1.73-3.43,1.73-5.45,0-1.6-.53-2.52-1.4-2.52-.4,0-.75.18-1.1.53-.99.99-1.73,3.43-1.73,5.45,0,1.6.53,2.52,1.4,2.52.4,0,.75-.18,1.1-.53Z" fill="#2a2a2a"/>
  <path d="M71.32,71.69l.2-.81c.59.51,1.3.84,1.96.84.88,0,1.56-.55,1.56-1.62,0-.59-.28-1.23-1.05-2.29-.94-1.3-1.25-2.04-1.25-2.9,0-1.23.77-2.31,2.31-2.31.77,0,1.41.31,1.8.61l-.18.81c-.48-.4-1.08-.68-1.65-.68-.94,0-1.51.61-1.51,1.54,0,.53.2,1.14,1.01,2.28.9,1.25,1.29,2.04,1.29,2.9,0,1.38-.84,2.4-2.37,2.4-.75,0-1.45-.28-2.13-.77Z" fill="#2a2a2a"/>
  <path d="M85.12,70.74c-.53.97-1.32,1.76-2.2,1.76-1.14,0-1.89-1.08-1.89-3.07s.66-4.81,2-6.15c.5-.5.99-.72,1.51-.72,1.03,0,1.6.95,1.74,2.13l1.05-5.32h.77l-2.52,12.98h-.77l.31-1.62ZM84.22,71.25c1.12-1.12,1.73-3.6,1.73-5.4,0-1.67-.59-2.61-1.4-2.61-.35,0-.68.16-1.01.5-1.12,1.12-1.74,3.86-1.74,5.71,0,1.52.48,2.37,1.27,2.37.39,0,.79-.2,1.16-.57Z" fill="#2a2a2a"/>
  <path d="M89.03,67.85c-.06.39-.07.75-.07,1.1,0,1.89.75,2.79,1.89,2.79.51,0,1.05-.18,1.6-.57l-.06.79c-.26.2-.9.51-1.6.51-1.47,0-2.59-1.08-2.59-3.53,0-2.11.79-4.43,1.96-5.6.5-.5,1.05-.79,1.65-.79,1.14,0,1.91.99,1.91,2.9,0,.53-.09,1.36-.31,2.39h-4.39ZM89.14,67.17h3.65c.13-.61.18-1.16.18-1.76,0-1.29-.39-2.13-1.23-2.13-.37,0-.72.18-1.05.51-.73.73-1.29,2.04-1.56,3.38Z" fill="#2a2a2a"/>
  <path d="M98.37,69.25c0-2.11.77-4.55,2.04-5.82.53-.53,1.16-.84,1.84-.84.5,0,1.01.18,1.3.46l-.16.83c-.28-.31-.66-.55-1.19-.55-.46,0-.88.22-1.25.59-1.12,1.12-1.8,3.53-1.8,5.16,0,2,.73,2.68,1.58,2.68.42,0,.83-.16,1.21-.44l-.15.83c-.37.22-.77.35-1.19.35-1.21,0-2.22-1.03-2.22-3.23Z" fill="#2a2a2a"/>
  <path d="M103.59,69.23c0-2.35.84-4.77,1.96-5.89.55-.55,1.16-.77,1.69-.77,1.27,0,2.11,1.19,2.11,3.27,0,2.35-.84,4.77-1.96,5.89-.55.55-1.16.77-1.69.77-1.27,0-2.11-1.19-2.11-3.27ZM106.86,71.25c.99-.99,1.73-3.43,1.73-5.45,0-1.6-.53-2.52-1.4-2.52-.4,0-.75.18-1.1.53-.99.99-1.73,3.43-1.73,5.45,0,1.6.53,2.52,1.4,2.52.4,0,.75-.18,1.1-.53Z" fill="#2a2a2a"/>
  <path d="M112.7,59.37h.77l-2.52,12.98h-.77l2.52-12.98Z" fill="#2a2a2a"/>
  <path d="M113.09,70.22c0-1.19.4-2.37,1.16-3.12.48-.48,1.12-.79,1.87-.79.66,0,1.25.18,1.74.48l.07-.4c.16-.84.2-1.18.2-1.52,0-.88-.4-1.52-1.63-1.52-.51,0-1.08.11-1.67.37l.15-.75c.53-.24,1.25-.35,1.67-.35,1.43,0,2.26.81,2.26,2.17,0,.4-.06.84-.22,1.69l-1.14,5.89h-.77l.26-1.3c-.48.81-1.12,1.47-2.07,1.47-1.14,0-1.87-.81-1.87-2.3ZM117.4,69.16l.31-1.63c-.42-.33-1.12-.5-1.65-.5s-.96.2-1.29.53c-.62.62-.92,1.69-.92,2.66,0,1.1.51,1.62,1.3,1.62,1.16,0,1.96-1.25,2.24-2.68Z" fill="#2a2a2a"/>
  <path d="M120.88,70.37l-.4,1.98h-.77l2.52-12.98h.77l-.95,4.96c.53-.97,1.32-1.76,2.2-1.76,1.14,0,1.89,1.08,1.89,3.07s-.66,4.81-2,6.15c-.5.5-.99.72-1.51.72-1.03,0-1.6-.95-1.74-2.13ZM123.62,71.32c1.12-1.12,1.74-3.86,1.74-5.71,0-1.52-.48-2.37-1.27-2.37-.39,0-.79.2-1.16.57-1.12,1.12-1.73,3.6-1.73,5.4,0,1.67.59,2.61,1.4,2.61.35,0,.68-.16,1.01-.5Z" fill="#2a2a2a"/>
  <path d="M127.36,69.23c0-2.35.84-4.77,1.96-5.89.55-.55,1.16-.77,1.69-.77,1.27,0,2.11,1.19,2.11,3.27,0,2.35-.84,4.77-1.96,5.89-.55.55-1.16.77-1.69.77-1.27,0-2.11-1.19-2.11-3.27ZM130.63,71.25c.99-.99,1.73-3.43,1.73-5.45,0-1.6-.53-2.52-1.4-2.52-.4,0-.75.18-1.1.53-.99.99-1.73,3.43-1.73,5.45,0,1.6.53,2.52,1.4,2.52.4,0,.75-.18,1.1-.53Z" fill="#2a2a2a"/>
  <path d="M135.77,62.71h.77l-.28,1.41c.53-.88,1.3-1.6,2.55-1.52l-.17.83h-.07c-1.32,0-2.33.77-2.66,2.46l-1.25,6.46h-.77l1.87-9.64Z" fill="#2a2a2a"/>
  <path d="M138.32,70.22c0-1.19.4-2.37,1.16-3.12.48-.48,1.12-.79,1.87-.79.66,0,1.25.18,1.74.48l.07-.4c.16-.84.2-1.18.2-1.52,0-.88-.4-1.52-1.63-1.52-.51,0-1.08.11-1.67.37l.15-.75c.53-.24,1.25-.35,1.67-.35,1.43,0,2.26.81,2.26,2.17,0,.4-.06.84-.22,1.69l-1.14,5.89h-.77l.26-1.3c-.48.81-1.12,1.47-2.07,1.47-1.14,0-1.87-.81-1.87-2.3ZM142.63,69.16l.31-1.63c-.42-.33-1.12-.5-1.65-.5s-.95.2-1.29.53c-.62.62-.92,1.69-.92,2.66,0,1.1.51,1.62,1.3,1.62,1.16,0,1.96-1.25,2.24-2.68Z" fill="#2a2a2a"/>
  <path d="M145.52,74l1.29-1.65c-.86-.35-1.49-1.36-1.49-3.1,0-2.11.77-4.55,2.04-5.82.53-.53,1.16-.84,1.84-.84.5,0,1.01.18,1.3.46l-.16.83c-.28-.31-.66-.55-1.19-.55-.46,0-.88.22-1.25.59-1.12,1.12-1.8,3.53-1.8,5.16,0,2,.73,2.68,1.58,2.68.42,0,.83-.16,1.21-.44l-.15.83c-.37.22-.77.35-1.19.35-.05,0-.11-.02-.16-.02l-1.05,1.91-.81-.37Z" fill="#2a2a2a"/>
  <path d="M150.54,69.23c0-2.35.84-4.77,1.96-5.89.55-.55,1.16-.77,1.69-.77,1.27,0,2.11,1.19,2.11,3.27,0,2.35-.84,4.77-1.96,5.89-.55.55-1.16.77-1.69.77-1.27,0-2.11-1.19-2.11-3.27ZM153.81,71.25c.99-.99,1.73-3.43,1.73-5.45,0-1.6-.53-2.52-1.4-2.52-.4,0-.75.18-1.1.53-.99.99-1.73,3.43-1.73,5.45,0,1.6.53,2.52,1.4,2.52.4,0,.75-.18,1.1-.53ZM156.49,60.27c-.33.92-.68,1.38-1.19,1.38-.33,0-.55-.16-.81-.46-.29-.33-.4-.44-.57-.44-.22,0-.44.31-.64.84l-.53-.16c.33-.92.68-1.38,1.19-1.38.33,0,.55.16.81.46.29.33.4.44.57.44.22,0,.44-.31.64-.84l.53.17Z" fill="#2a2a2a"/>
  <path d="M158.3,67.85c-.06.39-.07.75-.07,1.1,0,1.89.75,2.79,1.89,2.79.51,0,1.05-.18,1.6-.57l-.06.79c-.26.2-.9.51-1.6.51-1.47,0-2.59-1.08-2.59-3.53,0-2.11.79-4.43,1.96-5.6.5-.5,1.05-.79,1.65-.79,1.14,0,1.91.99,1.91,2.9,0,.53-.09,1.36-.31,2.39h-4.39ZM158.41,67.17h3.65c.13-.61.18-1.16.18-1.76,0-1.29-.39-2.13-1.23-2.13-.37,0-.72.18-1.05.51-.73.73-1.29,2.04-1.56,3.38Z" fill="#2a2a2a"/>
  <path d="M163.13,71.69l.2-.81c.59.51,1.3.84,1.96.84.88,0,1.56-.55,1.56-1.62,0-.59-.28-1.23-1.05-2.29-.94-1.3-1.25-2.04-1.25-2.9,0-1.23.77-2.31,2.31-2.31.77,0,1.41.31,1.8.61l-.18.81c-.48-.4-1.08-.68-1.65-.68-.94,0-1.51.61-1.51,1.54,0,.53.2,1.14,1.01,2.28.9,1.25,1.29,2.04,1.29,2.9,0,1.38-.84,2.4-2.37,2.4-.75,0-1.45-.28-2.13-.77Z" fill="#2a2a2a"/>
  <path d="M174.38,62.71h.77l-1.87,9.64h-.77l1.87-9.64ZM174.99,59.37h.84l-.24,1.29h-.84l.24-1.29Z" fill="#2a2a2a"/>
  <path d="M177.45,62.71h.77l-.28,1.41c.53-.92,1.27-1.56,2.22-1.56,1.05,0,1.74.75,1.74,2.04,0,.37-.04.83-.2,1.67l-1.18,6.08h-.77l1.19-6.15c.16-.84.18-1.25.18-1.58,0-.9-.42-1.39-1.19-1.39-1.14,0-2.06,1.25-2.33,2.63l-1.27,6.5h-.77l1.87-9.64Z" fill="#2a2a2a"/>
  <path d="M183.17,71.19c0-.29.09-.77.13-.95l1.32-6.81h-.92l.15-.72h.92l.51-2.72h.77l-.51,2.72h1.56l-.15.72h-1.56l-1.4,7.2c-.04.18-.06.33-.06.44,0,.4.22.62.73.62.26,0,.59-.09.73-.18l-.13.72c-.18.11-.5.2-.79.2-.79,0-1.32-.4-1.32-1.23Z" fill="#2a2a2a"/>
  <path d="M187.85,67.85c-.06.39-.07.75-.07,1.1,0,1.89.75,2.79,1.89,2.79.51,0,1.05-.18,1.6-.57l-.06.79c-.26.2-.9.51-1.6.51-1.47,0-2.59-1.08-2.59-3.53,0-2.11.79-4.43,1.96-5.6.5-.5,1.05-.79,1.65-.79,1.14,0,1.91.99,1.91,2.9,0,.53-.09,1.36-.31,2.39h-4.39ZM187.96,67.17h3.65c.13-.61.18-1.16.18-1.76,0-1.29-.39-2.13-1.23-2.13-.37,0-.72.18-1.05.51-.73.73-1.29,2.04-1.56,3.38Z" fill="#2a2a2a"/>
  <path d="M195.15,62.71h.77l-.28,1.41c.53-.92,1.27-1.56,2.22-1.56,1.05,0,1.74.75,1.74,2.04,0,.37-.04.83-.2,1.67l-1.18,6.08h-.77l1.19-6.15c.16-.84.18-1.25.18-1.58,0-.9-.42-1.39-1.19-1.39-1.14,0-2.06,1.25-2.33,2.63l-1.27,6.5h-.77l1.87-9.64Z" fill="#2a2a2a"/>
  <path d="M199.82,71.69l.2-.81c.59.51,1.3.84,1.96.84.88,0,1.56-.55,1.56-1.62,0-.59-.28-1.23-1.05-2.29-.94-1.3-1.25-2.04-1.25-2.9,0-1.23.77-2.31,2.31-2.31.77,0,1.41.31,1.8.61l-.18.81c-.48-.4-1.08-.68-1.65-.68-.94,0-1.51.61-1.51,1.54,0,.53.2,1.14,1.01,2.28.9,1.25,1.29,2.04,1.29,2.9,0,1.38-.84,2.4-2.37,2.4-.75,0-1.45-.28-2.13-.77Z" fill="#2a2a2a"/>
  <path d="M205.58,70.22c0-1.19.4-2.37,1.16-3.12.48-.48,1.12-.79,1.87-.79.66,0,1.25.18,1.74.48l.07-.4c.16-.84.2-1.18.2-1.52,0-.88-.4-1.52-1.63-1.52-.51,0-1.08.11-1.67.37l.15-.75c.53-.24,1.25-.35,1.67-.35,1.43,0,2.26.81,2.26,2.17,0,.4-.06.84-.22,1.69l-1.14,5.89h-.77l.26-1.3c-.48.81-1.12,1.47-2.07,1.47-1.14,0-1.87-.81-1.87-2.3ZM209.89,69.16l.31-1.63c-.42-.33-1.12-.5-1.65-.5s-.96.2-1.29.53c-.62.62-.92,1.69-.92,2.66,0,1.1.51,1.62,1.3,1.62,1.16,0,1.96-1.25,2.24-2.68Z" fill="#2a2a2a"/>
  <path d="M211.62,71.69l.2-.81c.59.51,1.3.84,1.96.84.88,0,1.56-.55,1.56-1.62,0-.59-.28-1.23-1.05-2.29-.94-1.3-1.25-2.04-1.25-2.9,0-1.23.77-2.31,2.31-2.31.77,0,1.41.31,1.8.61l-.18.81c-.48-.4-1.08-.68-1.65-.68-.94,0-1.51.61-1.51,1.54,0,.53.2,1.14,1.01,2.28.9,1.25,1.29,2.04,1.29,2.9,0,1.38-.84,2.4-2.37,2.4-.75,0-1.45-.28-2.13-.77Z" fill="#2a2a2a"/>
  <path d="M222.13,67.85c-.06.39-.07.75-.07,1.1,0,1.89.75,2.79,1.89,2.79.51,0,1.05-.18,1.6-.57l-.06.79c-.26.2-.9.51-1.6.51-1.47,0-2.59-1.08-2.59-3.53,0-2.11.79-4.43,1.96-5.6.5-.5,1.05-.79,1.65-.79,1.14,0,1.91.99,1.91,2.9,0,.53-.09,1.36-.31,2.39h-4.39ZM222.24,67.17h3.65c.13-.61.18-1.16.18-1.76,0-1.29-.39-2.13-1.23-2.13-.37,0-.72.18-1.05.51-.73.73-1.29,2.04-1.56,3.38Z" fill="#2a2a2a"/>
  <path d="M232.94,62.71h.77l-.28,1.41c.53-.92,1.27-1.56,2.22-1.56,1.05,0,1.74.75,1.74,2.04,0,.37-.04.83-.2,1.67l-1.18,6.08h-.77l1.19-6.15c.17-.84.18-1.25.18-1.58,0-.9-.42-1.39-1.19-1.39-1.14,0-2.06,1.25-2.33,2.63l-1.27,6.5h-.77l1.87-9.64Z" fill="#2a2a2a"/>
  <path d="M238.58,69.23c0-2.35.84-4.77,1.96-5.89.55-.55,1.16-.77,1.69-.77,1.27,0,2.11,1.19,2.11,3.27,0,2.35-.84,4.77-1.96,5.89-.55.55-1.16.77-1.69.77-1.27,0-2.11-1.19-2.11-3.27ZM241.84,71.25c.99-.99,1.73-3.43,1.73-5.45,0-1.6-.53-2.52-1.4-2.52-.4,0-.75.18-1.1.53-.99.99-1.73,3.43-1.73,5.45,0,1.6.53,2.52,1.4,2.52.4,0,.75-.18,1.1-.53Z" fill="#2a2a2a"/>
  <path d="M247.04,62.71h.77l-1.87,9.64h-.77l1.87-9.64ZM247.65,59.37h.84l-.24,1.29h-.84l.24-1.29Z" fill="#2a2a2a"/>
  <path d="M248.71,71.19c0-.29.09-.77.13-.95l1.32-6.81h-.92l.15-.72h.92l.51-2.72h.77l-.51,2.72h1.56l-.15.72h-1.56l-1.4,7.2c-.04.18-.06.33-.06.44,0,.4.22.62.73.62.26,0,.59-.09.73-.18l-.13.72c-.18.11-.5.2-.79.2-.79,0-1.32-.4-1.32-1.23Z" fill="#2a2a2a"/>
  <path d="M253.4,67.85c-.06.39-.07.75-.07,1.1,0,1.89.75,2.79,1.89,2.79.51,0,1.05-.18,1.6-.57l-.06.79c-.26.2-.9.51-1.6.51-1.47,0-2.59-1.08-2.59-3.53,0-2.11.79-4.43,1.96-5.6.5-.5,1.05-.79,1.65-.79,1.14,0,1.91.99,1.91,2.9,0,.53-.09,1.36-.31,2.39h-4.39ZM253.51,67.17h3.65c.13-.61.18-1.16.18-1.76,0-1.29-.39-2.13-1.23-2.13-.37,0-.72.18-1.05.51-.73.73-1.29,2.04-1.56,3.38Z" fill="#2a2a2a"/>
  <path d="M258.23,71.69l.2-.81c.59.51,1.3.84,1.96.84.88,0,1.56-.55,1.56-1.62,0-.59-.28-1.23-1.05-2.29-.94-1.3-1.25-2.04-1.25-2.9,0-1.23.77-2.31,2.31-2.31.77,0,1.41.31,1.8.61l-.18.81c-.48-.4-1.08-.68-1.65-.68-.94,0-1.51.61-1.51,1.54,0,.53.2,1.14,1.01,2.28.9,1.25,1.29,2.04,1.29,2.9,0,1.38-.84,2.4-2.37,2.4-.75,0-1.45-.28-2.13-.77Z" fill="#2a2a2a"/>
  <path d="M269.37,62.71h.77l-.28,1.41c.53-.92,1.27-1.56,2.17-1.56s1.52.61,1.63,1.69c.7-1.14,1.52-1.69,2.44-1.69.99,0,1.69.75,1.69,2.04,0,.37-.04.83-.2,1.67l-1.18,6.08h-.77l1.19-6.15c.17-.84.18-1.25.18-1.58,0-.9-.42-1.39-1.14-1.39-.99,0-1.98,1.14-2.24,2.42l-1.3,6.7h-.77l1.19-6.15c.17-.84.18-1.25.18-1.58,0-.9-.42-1.39-1.14-1.39-1.08,0-2,1.25-2.28,2.63l-1.27,6.5h-.77l1.87-9.64Z" fill="#2a2a2a"/>
  <path d="M278.48,70.22c0-1.19.4-2.37,1.16-3.12.48-.48,1.12-.79,1.87-.79.66,0,1.25.18,1.74.48l.07-.4c.16-.84.2-1.18.2-1.52,0-.88-.4-1.52-1.63-1.52-.51,0-1.08.11-1.67.37l.15-.75c.53-.24,1.25-.35,1.67-.35,1.43,0,2.26.81,2.26,2.17,0,.4-.06.84-.22,1.69l-1.14,5.89h-.77l.26-1.3c-.48.81-1.12,1.47-2.07,1.47-1.14,0-1.87-.81-1.87-2.3ZM282.8,69.16l.31-1.63c-.42-.33-1.12-.5-1.65-.5s-.95.2-1.29.53c-.62.62-.92,1.69-.92,2.66,0,1.1.51,1.62,1.3,1.62,1.16,0,1.96-1.25,2.24-2.68Z" fill="#2a2a2a"/>
  <path d="M287.66,59.37h.77l-2.52,12.98h-.77l2.52-12.98Z" fill="#2a2a2a"/>
  <path d="M296.27,70.74c-.53.97-1.32,1.76-2.2,1.76-1.14,0-1.89-1.08-1.89-3.07s.66-4.81,2-6.15c.5-.5.99-.72,1.51-.72,1.03,0,1.6.95,1.74,2.13l1.05-5.32h.77l-2.52,12.98h-.77l.31-1.62ZM295.38,71.25c1.12-1.12,1.73-3.6,1.73-5.4,0-1.67-.59-2.61-1.4-2.61-.35,0-.68.16-1.01.5-1.12,1.12-1.74,3.86-1.74,5.71,0,1.52.48,2.37,1.27,2.37.39,0,.79-.2,1.16-.57Z" fill="#2a2a2a"/>
  <path d="M299.36,69.23c0-2.35.84-4.77,1.96-5.89.55-.55,1.16-.77,1.69-.77,1.27,0,2.11,1.19,2.11,3.27,0,2.35-.84,4.77-1.96,5.89-.55.55-1.16.77-1.69.77-1.27,0-2.11-1.19-2.11-3.27ZM302.63,71.25c.99-.99,1.73-3.43,1.73-5.45,0-1.6-.53-2.52-1.4-2.52-.4,0-.75.18-1.1.53-.99.99-1.73,3.43-1.73,5.45,0,1.6.53,2.52,1.4,2.52.4,0,.75-.18,1.1-.53Z" fill="#2a2a2a"/>
  <path d="M307.77,62.71h.77l-.28,1.41c.53-.88,1.3-1.6,2.55-1.52l-.17.83h-.07c-1.32,0-2.33.77-2.66,2.46l-1.25,6.46h-.77l1.87-9.64Z" fill="#2a2a2a"/>
  <path d="M312.22,62.71h.77l-.28,1.41c.53-.92,1.27-1.56,2.17-1.56s1.52.61,1.63,1.69c.7-1.14,1.52-1.69,2.44-1.69.99,0,1.69.75,1.69,2.04,0,.37-.04.83-.2,1.67l-1.18,6.08h-.77l1.19-6.15c.17-.84.18-1.25.18-1.58,0-.9-.42-1.39-1.14-1.39-.99,0-1.98,1.14-2.24,2.42l-1.3,6.7h-.77l1.19-6.15c.17-.84.18-1.25.18-1.58,0-.9-.42-1.39-1.14-1.39-1.08,0-2,1.25-2.28,2.63l-1.27,6.5h-.77l1.87-9.64Z" fill="#2a2a2a"/>
  <path d="M323.36,62.71h.77l-1.87,9.64h-.77l1.87-9.64ZM323.97,59.37h.84l-.24,1.29h-.84l.24-1.29Z" fill="#2a2a2a"/>
  <path d="M329.06,70.74c-.53.97-1.32,1.76-2.2,1.76-1.14,0-1.89-1.08-1.89-3.07s.66-4.81,2-6.15c.5-.5.99-.72,1.51-.72,1.03,0,1.6.95,1.74,2.13l1.05-5.32h.77l-2.52,12.98h-.77l.31-1.62ZM328.16,71.25c1.12-1.12,1.73-3.6,1.73-5.4,0-1.67-.59-2.61-1.4-2.61-.35,0-.68.16-1.01.5-1.12,1.12-1.74,3.86-1.74,5.71,0,1.52.48,2.37,1.27,2.37.39,0,.79-.2,1.16-.57Z" fill="#2a2a2a"/>
  <path d="M331.61,70.22c0-1.19.4-2.37,1.16-3.12.48-.48,1.12-.79,1.87-.79.66,0,1.25.18,1.74.48l.07-.4c.16-.84.2-1.18.2-1.52,0-.88-.4-1.52-1.63-1.52-.51,0-1.08.11-1.67.37l.15-.75c.53-.24,1.25-.35,1.67-.35,1.43,0,2.26.81,2.26,2.17,0,.4-.06.84-.22,1.69l-1.14,5.89h-.77l.26-1.3c-.48.81-1.12,1.47-2.07,1.47-1.14,0-1.87-.81-1.87-2.3ZM335.92,69.16l.31-1.63c-.42-.33-1.12-.5-1.65-.5s-.96.2-1.29.53c-.62.62-.92,1.69-.92,2.66,0,1.1.51,1.62,1.3,1.62,1.16,0,1.96-1.25,2.24-2.68Z" fill="#2a2a2a"/>
  <path d="M337.65,71.69l.2-.81c.59.51,1.3.84,1.96.84.88,0,1.56-.55,1.56-1.62,0-.59-.28-1.23-1.05-2.29-.94-1.3-1.25-2.04-1.25-2.9,0-1.23.77-2.31,2.31-2.31.77,0,1.41.31,1.8.61l-.18.81c-.48-.4-1.08-.68-1.65-.68-.94,0-1.51.61-1.51,1.54,0,.53.2,1.14,1.01,2.28.9,1.25,1.29,2.04,1.29,2.9,0,1.38-.84,2.4-2.37,2.4-.75,0-1.45-.28-2.13-.77Z" fill="#2a2a2a"/>
  <path d="M343.8,70.85h1.14l-.29,1.51h-1.14l.29-1.51Z" fill="#2a2a2a"/>
</svg>