<?xml version="1.0" encoding="UTF-8"?>
<svg id="a" data-name="Camada 1" xmlns="http://www.w3.org/2000/svg" viewBox="0 0 1000 1000">
  <g>
    <path d="M361.34,408.09c3.1-1.04,6.27-1.89,9.47-2.62-1.06-3.28-1.72-6.7-2.4-9.87-1.12-5.26-1.86-10.59-2.35-15.94-1.79-19.41.09-39.04,5.26-57.82,2.57-9.36,5.98-18.47,10.23-27.2,2.15-4.41,4.5-8.75,7.07-12.94.59-.96,1.21-1.91,1.84-2.86-8.61,1.94-16.92,4.94-24.96,9.13-25.54,13.3-45.59,36.35-52.26,64.66-3.42,14.46-2.55,29.01-.45,43.53.94,6.54,2.64,12.83,4.7,19.11,1.27,3.91,2.38,7.85,3.73,11.71,4.1-2.78,8.34-5.34,12.73-7.62,4.28-2.24,8.48-4.48,13.12-6.47,4.63-1.99,9.51-3.25,14.28-4.83Z" fill="#e5e1c3"/>
    <path d="M462.18,669.41c15.69,4.51,31.34,9.14,47.04,13.51.37-7.31.74-14.63,1.08-21.93.37-7.95.35-15.99,1.17-23.89-17.75-5.32-34.7-13.16-49.98-23.57-.53,18.62-.93,37.33.69,55.87Z" fill="#e5e1c3"/>
    <path d="M596.07,653.66c.47,4.34.96,8.71,1.43,13.05.47,4.34.96,8.71,1.43,13.05.11,1.1.22,2.17.36,3.27.04.29.3,1.84.41,2.45.28-.07.55-.14.82-.21.92-.22,1.81-.47,2.73-.69,16.61-4.24,33.12-8.82,49.63-13.41,2.91-14.39,4.01-29.12,3.7-43.79-5.14,2.3-10.42,4.43-15.88,6.34-14.84,5.2-30.13,8.73-45.66,10.54.52,3.06.68,6.2,1.02,9.41Z" fill="#e5e1c3"/>
    <path d="M411.37,300.86c1.61,4.3,3.22,8.6,4.81,12.92,1.45,3.98,3.47,8.08,4.21,12.27.18.96-.94,1.81-1.54,2.28-9.45,7.23-18.63,14.78-27.89,22.24,5.58,2.79,11.33,5.19,17.08,7.62,3.31,1.39,6.71,2.69,9.83,4.45,2.28,1.29,5.37,2.62,6.62,5.04.39.36.59.81.5,1.36-.02.1-.04.21-.06.31-.01.1-.02.2-.05.29-1.2,7.27-3.24,14.45-6.35,21.16-1.61,3.47-3.45,6.78-5.53,10.03-.53.83-1.08,1.67-1.63,2.49,14.77,1.5,29.36,5.37,42.84,11.39,7.68,3.42,15,7.5,21.76,12.47.29-.38.59-.74.87-1.13,7.66-10.41,12.58-22.63,15.65-35.12,3.58-14.57,5.01-29.75,2.64-44.59-2.19-13.86-7.77-27.6-16.36-38.7-4.39-5.66-9.36-11.12-15.2-15.29-6.2-4.41-13.18-8.01-20.1-10.52-6.92-2.51-14.08-4.16-21.38-4.99-2.64-.29-5.75-.49-9.09-.49-3.11,0-7.3.16-9.49.38-.32.03-.65.08-.97.11,2.9,8.02,5.85,16.04,8.85,24.02Z" fill="#e5e1c3"/>
    <path d="M276.69,278c13.7-18.85,29.16-36.57,45.82-52.62,3.28-3.16,6.62-6.3,10.02-9.39-.01,0-.02.02-.03.02-15.48,10.85-30.15,22.83-43.87,35.85-26.03,24.69-48.73,52.87-67.01,83.8-18.29,30.93-32.19,64.48-40.49,99.45-8.09,33.82-10.54,68.74-7.41,103.45,3.13,34.72,11.72,69.08,24.84,101.06,13.12,31.99,31.45,62.5,52.92,88.57,15.63,18.99,33.54,36.03,53.34,50.58-31.83-31.53-56.06-70.49-73.21-111.75-17.35-41.72-27.75-86.64-30.73-131.54-2.98-44.9,1.75-90.14,14.46-133.34,13.09-44.54,34.09-86.6,61.37-124.14Z" fill="#e5e1c3"/>
    <path d="M354.49,815.88s0,0,0,0c-.16.23-.38.45-.69.64-5.13,3.13-10.88,4.92-16.88,5.35-12.78.94-25.4-3.92-36.6-9.6-12.24-6.22-23.95-13.81-35.45-21.26-23.01-14.93-43.76-33.35-60.3-55.26-4.12-5.44-7.97-10.95-11.77-16.74-3.81-5.8-7.34-11.91-11.68-17.32-8.24-10.25-15.42-21.67-21.62-33.28-6.16-11.55-10.88-23.59-13.72-36.53-2.84-12.94-3.96-25.9-4.79-39.37-.83-13.5-1.25-26.99-2.55-40.42-1.43-14.88-3.6-29.66-4.79-44.54-2.24-28.16-2.1-56.56,2.75-84.45,4.25-24.49,12.11-48.08,22.67-70.53,5.75-12.2,12.2-24.06,19.09-35.68,6.54-11.01,13.23-21.98,21.06-32.14,7.18-9.29,15.13-18.49,22.94-26.75,7.81-8.26,16.12-15.96,25.92-21.85,19.23-11.54,42.37-16.34,64.65-17.43,0,0,0,0,0,0,2.98-2.25,5.99-4.45,9.03-6.6,32.16-22.83,67.81-40.54,105.28-52.76,18.59-6.07,37.6-10.8,56.83-14.28-5.43-.18-10.86-.27-16.29-.27-62.84-.04-126.13,12.36-182.99,39.61-.01,0-.02.01-.04.02-3.95,2.87-7.92,5.71-11.89,8.59-38.19,27.78-71.96,61.78-99.9,99.83-28,38.14-50.18,81.07-62.9,126.75-11.97,43.06-14.53,87.29-9.22,132.06,5.3,44.77,18.2,88.73,37.78,129.31,9.8,20.32,21.33,39.86,34.67,58.06,9.02,12.3,18.88,23.87,29.35,34.88,17.31,13.97,35.98,26.14,55.97,36.57,35.52,18.53,74.74,30.8,114.38,37.54,36.6,6.24,73.48,7.5,110.54,6.73-23.46-3.41-46.68-8.34-69.4-15.24-20.45-6.2-40.39-14.07-59.47-23.6ZM347.87,176.61c0-.4.18-.74.47-1.03l.54-.43c.47-.29.98-.45,1.52-.54l.92-.07c.47,0,.92.04,1.34.18.4.07.76.22,1.12.43.31.13.54.36.72.65.2.2.29.47.29.78,0,.18,0,.34-.07.51v.25c0,.25-.04.54-.16.76-.13.29-.34.51-.6.67-.27.25-.58.4-.94.51l-.81.2-.9.07c-.45,0-.87-.04-1.3-.18-.27,0-.51-.11-.74-.25-.34-.11-.63-.31-.87-.56l-.34-.47c-.13-.22-.13-.51-.18-.76v-.25l-.04-.51.02.02ZM312.9,181.02c.25-.45.6-.78,1.05-1.01.51-.34,1.07-.54,1.66-.65.63-.2,1.3-.27,1.97-.27.9,0,1.77.13,2.6.43l1.03.49c.58.31,1.03.78,1.32,1.37.29.45.56.92.85,1.37.13.22.29.47.43.69.09.11.13.2.18.34.04.13.07.25.11.36.22.51.22,1.05,0,1.57-.29.56-.72.98-1.25,1.3-.29.2-.63.36-.98.47-.78.27-1.59.4-2.42.4-.43,0-.87-.04-1.32-.11-.76-.13-1.48-.38-2.15-.76-.4-.27-.74-.58-1.1-.9-.25-.22-.4-.51-.58-.76-.38-.54-.74-1.05-1.12-1.59h-.02v.02c-.43-.43-.67-.96-.69-1.57,0-.45.16-.85.45-1.19ZM112.98,463.16v.02c0-.4.18-.74.47-1.03l.54-.43c.47-.29.98-.45,1.52-.54l.92-.07c.47-.02.92.04,1.34.18.4.07.76.22,1.12.43.31.13.54.36.72.65.2.2.29.47.29.78,0,.18,0,.34-.07.51v.25c0,.25-.04.54-.16.76-.13.29-.34.51-.6.67-.27.25-.58.4-.94.51l-.81.2-.9.07c-.45,0-.87-.04-1.3-.18-.27,0-.51-.11-.74-.25-.34-.11-.63-.31-.87-.56l-.34-.47c-.13-.22-.13-.51-.18-.76v-.25l-.04-.51h.02ZM120.66,560.84c-.06,1.64-1.74,2.31-3.4,2.47-1.95.22-5.05-.24-5.13-2.47v-.63h-.04c-.09-3.51,8.68-3.49,8.57,0v.63ZM125.76,589.42c-1.07,0-3.25-.45-3.25-1.9s2.17-1.9,3.25-1.9,3.25.45,3.25,1.9-2.15,1.9-3.25,1.9ZM363.71,832.07c-.29.56-.72.98-1.25,1.3-.29.2-.63.36-.98.47-.78.27-1.59.4-2.42.4-.43,0-.87-.04-1.32-.11-.76-.13-1.48-.38-2.15-.76-.4-.27-.74-.58-1.1-.9-.25-.22-.4-.51-.58-.76-.38-.54-.74-1.05-1.12-1.59h-.02v.02c-.43-.43-.67-.96-.69-1.57,0-.45.16-.85.45-1.19.25-.45.6-.78,1.05-1.01.51-.34,1.07-.54,1.66-.65.63-.2,1.3-.27,1.97-.27.9,0,1.77.13,2.6.43l1.03.49c.58.31,1.03.78,1.32,1.37.29.45.56.92.85,1.37.13.22.29.47.43.69.09.11.13.2.18.34.04.13.07.25.11.36.22.51.22,1.05,0,1.57Z" fill="#e5e1c3"/>
    <path d="M124.55,667c-18.09-41.59-29.39-86.33-32.93-131.54-3.51-45.08,1.05-90.54,15.27-133.54,15.04-45.5,39.21-87.79,68.89-125.3,15-19,32.01-37.22,49.33-53.18,5.71-5.26,11.56-10.47,17.55-15.54,0,0,0,0-.01,0-32.47,20.98-61.84,46.9-86.68,76.46-17.23,20.52-32.32,42.82-44.86,66.52-6.24,11.82-11.89,24-16.81,36.41-2.47,6.21-4.81,12.54-6.87,18.83-2.06,6.29-3.4,12.9-5.13,19.29-8.24,30.69-12.13,62.2-10.07,93.92,1.63,25.29,6.16,49.69,13.01,73.71,7.95,27.79,19,54.72,33.01,80.04,13.05,23.56,28.55,45.4,46.65,65.32.03.04.07.07.1.11-16.09-22.24-29.56-46.43-40.46-71.52Z" fill="#e5e1c3"/>
    <polygon points="838.79 565.68 837.96 565.63 837.87 565.63 838.76 565.69 838.79 565.68" fill="#e5e1c3"/>
    <path d="M727.77,380.83c-1.14-2.42-2.22-4.86-3.22-7.32-2.1-5.17-3.94-10.45-5.86-15.69-6.67-18.09-11.73-36.89-13.61-56.09-1.76-18-.46-36.01,3.62-53.56-10.03,3.64-19.39,9.33-27.33,16.86-19.99,18.94-32.12,46.8-33.55,74.15-.76,14.88,1.32,29.86,6.2,43.92,2.42,6.92,5.48,13.54,9.11,19.9,1.84,3.25,3.81,6.42,6,9.45,1.07,1.48,2.26,2.98,3.31,4.34.08.11.15.22.22.33,1.08-1.01,2.17-2,3.28-2.97,13.56-11.84,29.41-21.38,46.53-26.97,2.4-.79,4.83-1.5,7.27-2.15-.71-1.37-1.31-2.8-1.97-4.19Z" fill="#e5e1c3"/>
    <path d="M905.65,385.2c-4.12-18.7-8.48-37.2-14.76-55.29-6.13-17.66-12.75-35.16-22.38-50.99-9.62-15.82-22.4-29.08-35.9-41.65-29.5-27.53-63.66-51.79-101.91-65.41-19.13-6.82-39.06-11.82-58.93-15.94-20.01-4.16-40.22-7.18-60.59-8.98-40.13-3.55-80.94-2.13-120.6,4.75-39.42,6.82-78.02,19.19-113.62,37.46-.01,0-.02.01-.03.02-2.74,1.98-5.48,3.96-8.21,5.97-36.84,27.11-68.56,60.75-94.08,99.02-25.52,38.25-44.59,80.89-55.76,125.52-10.79,43.22-13.88,87.32-9.18,131.95,4.7,44.63,16.63,88.59,35.54,129.31,9.45,20.32,20.86,40.18,33.71,58.06,12.07,16.81,25.8,32.24,40.59,46.65,14.59,10.09,29.94,19.06,45.88,26.83,33.95,16.5,70.55,27.17,107.7,33.53,39.8,6.83,80.33,8.8,120.66,8.06,38.12-.69,75.39-8.93,111.03-23.23,35.63-14.3,68.98-34.41,98.77-58.56,30.73-24.93,58.66-54.21,80.33-87.43,23.12-35.43,39.35-76.88,44.24-117.95,4.9-41.08-.89-82.21-9.37-122.41-4.19-19.83-8.82-39.53-13.16-59.29ZM614.63,510.67c.04-.31.18-.58.43-.78l.56-.43.72-.34c.43-.16.87-.25,1.32-.25.31-.04.63-.04.94,0,.45,0,.9.09,1.32.25l.72.34c.22.11.45.2.67.31.04.02.11.04.16.07.29.13.51.36.74.56l.25.22c.34.31.54.69.54,1.16l-.13.63c-.25.45-.56.78-1.01,1.03l-.78.36c-.47.16-.96.27-1.45.27-.51.07-1.03.04-1.54-.04-.47-.07-.92-.2-1.32-.43-.38-.13-.72-.36-1.01-.65l-.25-.22c-.25-.2-.4-.47-.54-.76-.07-.16-.16-.31-.22-.47h-.02c-.16-.27-.18-.56-.07-.83ZM611.94,247.03v.63c-.06,1.64-1.74,2.31-3.4,2.47-1.95.22-5.05-.24-5.13-2.47v-.63h-.04c-.09-3.51,8.68-3.49,8.57,0ZM517.15,260.79c1.07,0,3.25.45,3.25,1.9s-2.15,1.9-3.25,1.9-3.25-.45-3.25-1.9,2.17-1.9,3.25-1.9ZM488.32,211.55l.27-.38c.24-.27.58-.42.93-.54.62-.49,1.42-.74,2.2-.89.58-.11,1.14-.11,1.7-.04.56,0,1.07.11,1.59.29,1.12.43,2.04.96,2.93,1.75.22.2.43.43.6.65.31.4.63.83.85,1.3.2.45.2.9,0,1.34l-.43.6c-.43.43-.94.74-1.52.92l-1.01.25c-.58.11-1.14.11-1.7.04-.56,0-1.07-.11-1.59-.29-.74-.27-1.59-.76-1.95-1.52-.04-.08-.08-.15-.12-.22-.12-.14-.24-.27-.38-.4,0,0-.01,0-.01,0-.67-.26-1.57-.74-1.93-1.47-.24-.19-.42-.45-.49-.75-.09-.2-.07-.43.04-.63ZM303.46,553.96c0,.43-.11.76-.38,1.05-.13.27-.34.47-.58.6-.38.31-.81.56-1.28.69l-.16.07h.02c-.31.1-.62.2-.96.25l-1.01.09c-.37.01-.72-.03-1.05-.09-.49-.03-.96-.12-1.41-.29l-.92-.43-.72-.54s-.11-.11-.16-.16c0-.02-.07-.07-.09-.09-.16-.22-.31-.45-.49-.67v-.04c-.11-.18-.16-.6-.2-.9,0-.13-.04-.27-.09-.4v-.09c0-.18,0-.16.07-.45.11-.47.04-.31.34-.72.01-.03.04-.05.05-.07.04-.06.09-.13.17-.24.13-.2.13-.25.27-.34,0-.02.09-.07.09-.07h.02v-.02c.27-.29.6-.49.96-.63.27-.16.54-.25.83-.29.47-.16.94-.2,1.43-.2l.98.09c.31.07.65.16.94.25,0,.02.07.02.09.02.11.03.18.06.28.1.06.02.13.03.19.05.31.13.6.29.92.45h.04c.4.2.72.49.94.87.09.11.18.22.25.34,0,.04.07.07.07.11.09.13.16.25.25.38.04.07.13.2.13.2v.04l.16.74v.31ZM326.2,498.12l-.49.72c-.36.38-.78.65-1.28.83-.36.2-.72.31-1.1.38-.63.18-1.25.25-1.9.25l-1.32-.11c-.6-.07-1.16-.25-1.68-.54-.49-.18-.92-.45-1.28-.83-.29-.27-.51-.69-.74-1.05-.09-.13-.16-.25-.25-.38-.18-.25-.34-.47-.49-.74-.16-.27-.34-.51-.49-.78-.22-.34-.38-.65-.36-1.1,0-.13.07-.27.07-.4,0-.56.22-1.03.63-1.41.49-.47,1.05-.81,1.68-1.01.76-.25,1.54-.38,2.35-.38s1.59.11,2.35.38c.32.13.67.28.99.47v-.04c.15.07.3.16.46.25.67.38.98.81,1.37,1.43.04.07.07.11.11.18.13.27.29.49.45.76s.31.51.47.78c.09.13.16.25.22.36.07.13.18.27.22.4.22.54.22,1.05,0,1.59ZM295.69,463.34c-4.95,7.05-9.11,14.55-12.67,22.49-3.56,7.95-5.66,16.34-8.8,24.42l.02-.02c-.92,2.33-7.61,2.37-7.5-.6.38-10.12,4.59-20.35,8.89-29.52,4.3-9.18,9.87-17.82,16.16-25.74,6.53-8.22,14.07-15.71,22.36-22.2-1.46-2.04-2.88-4.11-4.23-6.23-7.59-11.95-11.57-26.9-12.87-40.92-1.48-16,.49-32.46,6.38-47.45,11.28-28.81,36.48-50.74,64.93-61.8,30.22-11.75,64.84-11.17,94.01,3.36,14.75,7.34,27.35,18.38,35.97,32.43,8.1,13.25,12.58,28.31,13.54,44.18.96,15.89-1.99,32.52-7.05,47.56-4.03,12.06-10.34,23.19-18.5,32.9,1.46,1.57,2.82,3.22,4.06,4.97,1.54,2.19,2.95,4.48,4.21,6.85.65,1.21,1.3,2.51,1.34,3.92.04,1.19-.51,2.57-.83,3.74-.63,2.44-4.48,3.34-6.51,3.54-2.73.27-5.82-.36-7.81-2.35-1.3-1.3-2.6-2.39-3.36-4.12-.47-1.01-.74-2.1-1.21-3.11-.94-2.04-2.06-4.01-3.38-5.82-2.69-3.65-5.86-7.01-9.36-9.87-7.66-6.29-17.06-10.83-26.28-14.3-17.08-6.45-35.54-8.71-53.72-7.1-8.75.78-18.24,2.08-26.84,4.9-4.3,1.41-8.71,2.66-12.8,4.63-3.87,1.88-7.66,3.96-11.3,6.24-14.48,9.02-27.06,21.06-36.86,35.01ZM352.07,751.92l-.51.74c-.36.4-.81.69-1.3.87-.34.2-.72.34-1.12.4-.63.2-1.28.27-1.95.27l-1.34-.11c-.6-.09-1.19-.27-1.72-.56-.49-.2-.92-.49-1.3-.87-.14-.18-.28-.34-.42-.51-.39-.2-.75-.45-1.08-.79l-.58-.83c-.22-.36-.43-.72-.63-1.07-.22-.45-.25-.92-.09-1.37.04-.39.18-.73.44-1.03.13-.21.28-.41.43-.6.36-.38.78-.65,1.25-.83.34-.2.69-.31,1.07-.38.6-.18,1.23-.25,1.88-.25l1.3.11c.32.06.65.13.98.22.54.1,1.06.29,1.53.55.56.27,1.07.47,1.48,1.01.09.09.16.2.25.31.18.22.34.43.49.65.4.36.63.78.67,1.3.09.2.1.42.06.64.09.17.17.33.25.51h-.04c.25.54.25,1.1,0,1.63ZM618.97,807.72v.25c-.02.25-.04.54-.16.76-.13.29-.34.51-.6.67-.27.25-.58.4-.94.51l-.81.2-.9.07c-.45,0-.87-.04-1.3-.18-.27,0-.51-.11-.74-.25-.34-.11-.63-.31-.87-.56l-.34-.47c-.13-.22-.13-.51-.18-.76v-.25l-.04-.51.02.02c0-.4.18-.74.47-1.03l.54-.43c.47-.29.98-.45,1.52-.54l.92-.07c.47-.02.92.04,1.34.18.4.07.76.22,1.12.43.31.13.54.36.72.65.2.2.29.47.29.78-.02.18-.02.34-.07.51ZM734.53,731.91c-.09.43-.16.9-.38,1.28-.18.27-.38.56-.58.81-.07.11-.18.2-.27.27-.38.36-.85.63-1.37.81-.45.18-.92.27-1.41.27-.51.07-1.01.04-1.52-.04-.47-.04-.9-.18-1.3-.4-.38-.13-.69-.34-.98-.63-.31-.31-.51-.69-.51-1.14l.13-.6c.13-.27.32-.47.52-.66.06-.05.11-.12.16-.17.03-.06.05-.12.07-.19,0-.09,0-.17,0-.26,0-.2.04-.4.04-.6,0-.07.02-.13.04-.19-.15-.21-.24-.44-.24-.71l.11-.47c.16-.45.69-.76,1.1-.94.58-.27,1.21-.38,1.86-.38.76,0,1.5.2,2.17.54.32.15.6.38.86.6.05.03.1.04.14.07l.56.43.36.49s.07.11.11.18c.13.2.2.38.25.63.07.36.13.67.07,1.03ZM807.12,509.82c-2.46,5.04-11.48,4.19-14.19,0-1.23-1.9-1.14-4.81-1.86-6.92-.72-2.1-1.68-4.16-2.89-6.02-2.6-3.96-6.36-7.03-10.43-9.36-4.27-2.43-8.79-4.09-13.35-5.07-.19,2.96-.45,5.91-.91,8.84-2.72,17.14-8.35,34.02-16.24,49.75.29.26.51.58.62.95,1.52,5.33,2.82,10.72,3.89,16.16,8.64,44-.18,91.99-22.72,130.6-21.17,36.26-54.55,64.69-93.22,80.8-40.87,17.03-87.02,18.82-129.44,6.49-21.69-6.31-42.33-16.47-60.64-29.7-9.6-6.94-18.42-14.5-25.29-24.11-6.87-9.6-11.91-20.19-15.74-31.34-7.14-20.88-11.55-43.4-10.77-65.51.38-10.77,1.1-21.96,4.14-32.63,3.04-10.68,7.7-20.59,13.88-29.81.37-.56.88-1.01,1.48-1.38-.78-1.41-1.55-2.83-2.29-4.26-6.43-12.55-8.6-26.54-8.76-40.51-7.43,1.8-14.28,5.54-19.91,10.76-6.74,6.24-11.84,14.12-14.91,22.79-1.54,4.36-2.57,8.95-3.27,13.52-.34,2.31-.45,4.66-.43,7.01s-.27,4.61-.13,6.96h0s0,0,0,0c.18,2.91-6.69,3.02-7.5.6-.98-2.95-1.95-5.6-2.24-8.73-.27-2.95-.38-5.98-.18-8.93.4-5.71,2.06-11.42,4.3-16.68,4.1-9.58,10.63-17.91,18.89-24.22,8.75-6.69,18.53-10.05,29.88-11.39s22.96-.13,33.53,4.36c5.08,2.17,9.96,4.86,14.3,8.26,2.26,1.77,4.45,3.63,6.45,5.69,2.19,2.26,4.52,4.36,3.07,7.7-1.16,2.66-5.48,3.36-7.97,2.8-2.35-.54-4.54-1.05-6.24-2.91-.87-.94-1.66-1.99-2.53-2.93-1.59-1.7-3.29-3.31-5.1-4.75-4.01-3.11-8.26-5.51-12.67-7.18-4.41-1.68-7.72-2.73-12.09-3.31-1.01-.13-2.08-.25-3.17-.33,0,2.16.05,4.3.17,6.44.38,7.25,1.3,14.53,3.38,21.49,2.26,7.57,6.18,14.64,10.32,21.33,8.33,13.45,19.11,25.36,31.27,35.43,26.23,21.73,59.52,33.64,93.2,36.89,32.19,3.11,65.16-2.33,94.81-15.11,14.91-6.42,29.55-14.93,41.65-24.67,12.11-9.74,22.7-21.06,32.12-33.4,18.62-24.36,29.49-52.82,34.69-82.86-.54-.02-1.07-.05-1.61-.05-7.83,0-15.96,2.46-22.85,6.09-4.21,2.22-8.3,4.77-11.91,7.9-3.31,2.87-6.42,6.6-10.52,8.3h.07v.02c-1.45.6-4.25.27-4.61-1.57-.74-3.74,4.1-8.28,6.51-10.56,3.11-2.95,6.58-5.71,10.27-7.9,14.17-8.44,31.81-11.62,48.06-9.18,9.74,1.45,18.94,5.06,26.48,11.46,3.49,2.98,6.38,6.6,8.53,10.65,1.81,3.45,4.43,9.47,2.6,13.23ZM842.46,567.35c-.43.4-.94.72-1.5.9-.78.36-1.79.43-2.64.47-.47.04-1.05-.04-1.45-.09h-.13l-1.07-.27c-.18-.07-.34-.13-.49-.22-.16-.07-.31-.16-.47-.22-.02-.02-.07-.02-.07-.02-.34-.18-.63-.45-.92-.69-.09-.04-.13-.13-.2-.2-.18-.25-.36-.49-.51-.74-.02-.04-.07-.09-.07-.13-.11-.31-.18-.67-.22-1.01,0-.4.11-.74.38-1.03,0-.01.02-.02.03-.03.02-.06.03-.13.06-.19.18-.36.43-.67.67-.96.07-.07.11-.13.18-.18.27-.22.54-.43.83-.63.07-.04.13-.09.2-.11.67-.34,1.1-.51,1.86-.65.6-.1,1.23-.11,1.85-.04.97.04,1.93.27,2.78.76h-.01c.32.16.56.39.73.67.2.22.31.49.31.83l-.13.58-.11.15.33.25.34.49.11.54c0,.19-.04.38-.09.56-.03.48-.2.9-.56,1.23ZM858.11,475.51c-.29.56-.72.98-1.25,1.3-.29.2-.63.36-.98.47-.78.27-1.59.4-2.42.4-.43,0-.87-.04-1.32-.11-.76-.13-1.48-.38-2.15-.76-.4-.27-.74-.58-1.1-.9-.25-.22-.4-.51-.58-.76-.38-.54-.74-1.05-1.12-1.59h-.02v.02c-.43-.43-.67-.96-.69-1.57,0-.45.16-.85.45-1.19.25-.45.6-.78,1.05-1.01.51-.34,1.07-.54,1.66-.65.63-.2,1.3-.27,1.97-.27.9,0,1.77.13,2.6.43l1.03.49c.58.31,1.03.78,1.32,1.37.29.45.56.92.85,1.37.13.22.29.47.43.69.09.11.13.2.18.34s.07.25.11.36c.22.51.22,1.05,0,1.57ZM862.87,436.43c-7.34-6.65-13.72-14.15-21.69-20.14-7.52-5.66-15.38-10.52-23.9-14.53-7.5-3.54-15.76-6.42-23.61-8.28-4.1-.98-8.26-1.81-12.44-2.44-4.43-.67-7.34-.96-11.48-1.12-16.43-.65-31.29,2.19-46.67,8.46-29.61,12.06-54.46,36.69-66.68,66.66-2.39,5.91-17.86,4.12-15.11-2.62,6.03-14.83,14.99-28.46,26.05-40.04-1.52-.73-3.04-1.48-4.16-2.71-1.32-1.45-2.53-3.07-3.72-4.63-18.89-24.96-26.7-57.97-21.71-88.82,4.59-28.2,19.9-56.11,43.18-73.08,24.22-17.64,58.29-22.38,86.64-13.36,14.57,4.63,27.98,12.83,39.46,22.83,10.7,9.31,18.24,21.31,23.39,34.49,6.09,15.62,8.26,32.68,6.63,49.31-1.57,16.07-5.26,33.53-13.79,47.43-.1.16-.21.31-.31.46,2.74,1.35,5.44,2.79,8.08,4.31,7.72,4.45,15.13,9.98,21.69,16,6.22,5.71,13.07,12.38,16.61,20.17v.04h.04,0c1.39,3.07-5.13,2.84-6.49,1.61ZM886.76,518.53c-.04.29-.09.58-.2.85,0,.11-.07.2-.11.31-.09.22-.18.47-.27.69-.2.4-.51.72-.92.94l-.72.34c-.87.34-1.86.36-2.78.22-.45-.04-.85-.18-1.23-.38-.34-.13-.65-.34-.92-.6-.25-.2-.4-.47-.43-.78-.11-.29-.09-.56.07-.85.07-.25.16-.51.22-.76.07-.25.16-.47.27-.72.11-.25.22-.47.34-.72.07-.13.11-.25.18-.38.12-.24.3-.46.49-.65.01-.03.03-.06.04-.09h-.02c.29-.58.9-.9,1.45-1.12.63-.22,1.37-.27,2.01-.22.65.04,1.25.2,1.81.51.27.13.49.34.65.6.18.2.27.43.27.72l-.05.25c.06.14.09.29.09.46l-.27,1.37Z" fill="#e5e1c3"/>
    <path d="M812.4,380.56c5.84-14.41,9.54-29.3,9.51-45.19-.02-15.89-3.76-31.45-11.1-45.57-2.87-5.51-6.09-10.83-10.3-15.42-3.72-4.07-7.77-7.63-11.84-10.68-11.01-8.28-23.99-15.44-37.38-18.42-9.11-2.04-18.44-2.3-27.52-.94,4.9,3.66,9.47,7.81,13.98,11.55,6.6,5.46,13.12,10.99,19.18,17.06,1.16,1.18.65,2.41-.33,3.27-.42,1.43-1.52,2.73-2.34,4.01-1.23,1.92-2.39,3.87-3.51,5.86-2.26,4.01-4.36,8.15-6.24,12.27-1.88,4.12-3.65,8.3-5.3,12.53-.76,1.92-1.57,3.74-2.39,5.71-.34.8-.64,1.64-.99,2.45,1.76.17,3.51.47,5.25.69,3.11.4,6.07,1.01,9.24,1.57,3.18.56,6.49,1.14,9.56,1.68,3.07.54,6.96.65,9.65,2.35.54.34,1.43,1.12,1.32,1.9,0,.03-.01.04-.02.07.17.26.3.54.33.87.96,10.18,1.19,20.48.2,30.66-.49,4.92-1.14,9.85-2.06,14.71-.43,2.28-.91,4.71-1.62,7.04,3.61.08,7.21.3,10.77.66,10.54,1.07,20.86,3.53,30.77,7.16,1.03-2.62,2.13-5.21,3.19-7.83Z" fill="#e5e1c3"/>
    <path d="M977.08,503c-3.3-36.33-11.3-71.29-19.04-105.1-1.76-7.71-3.59-15.68-5.3-23.45l-.32-1.46c-8.34-37.76-17.79-80.55-41.53-118.33-13.35-21.27-30.41-38.17-43.77-50.49-17.4-16.08-35.53-30.3-53.88-42.29-21.51-14.05-43.28-24.99-64.7-32.51-19.22-6.76-40.12-12.39-65.79-17.73-37.93-7.88-76.26-11.88-113.94-11.88-6.62,0-13.31.13-19.89.37-10.87.41-21.74,1.16-32.37,2.23-16.43-1.45-32.92-2.18-49.09-2.18-54.59,0-106.89,8.18-155.46,24.32-60.33,20.07-116.49,53.93-162.39,97.92-43.42,41.59-78.05,92.59-100.17,147.52-2.8,6.99-5.39,14-7.69,20.85-.59,1.74-1.29,3.71-2.05,5.78-1.74,4.8-3.7,10.24-5.32,16.21-3.96,14.5-7.07,29.17-9.26,43.62-2.49,16.48-3.65,31.68-3.56,46.5.17,25.51,3.49,52.66,9.88,80.7,6.93,30.42,17.28,60.09,30.74,88.22,15.39,32.12,34.62,61.72,57.15,87.97,25.28,29.47,54.89,54.82,88.01,75.34,36.25,22.47,77.4,39.46,122.32,50.47,39.65,9.71,81.8,14.64,125.27,14.64,10.4,0,21-.29,31.52-.85,11.82-.64,22.6-1.53,32.82-2.72,3.58.28,7.23.54,10.91.77,17.44,1.09,32.83,1.62,47.05,1.62,31.89,0,59.81-2.68,85.33-8.19,41.38-8.92,81.85-25.01,120.3-47.82,36.75-21.79,70.46-48.94,100.19-80.69,34.5-36.85,59.93-76.56,75.61-118.03,16.48-43.63,22.85-92.5,18.42-141.34ZM923.31,630.99c-14.91,39.45-39.1,74.86-67.84,105.56-26.94,28.78-57.95,53.9-91.88,74.01-33.78,20.04-70.55,35.1-108.99,43.38-40,8.64-81.94,8.3-122.05,5.79-4.68-.29-9.34-.63-14.01-1.03-11.35,1.43-22.69,2.34-34.12,2.96-48.77,2.62-98.25-1.11-145.78-12.75-39.17-9.61-77.06-24.6-111.4-45.89-29.68-18.39-56.5-41.31-79.24-67.82-20.68-24.1-38.03-51.05-51.75-79.7-12.26-25.61-21.66-52.6-27.97-80.29-5.42-23.8-8.78-48.13-8.94-72.55-.09-13.63,1.11-27.15,3.14-40.61,2.01-13.29,4.84-26.45,8.37-39.39,1.83-6.78,4.59-13.52,6.72-19.86,2.13-6.33,4.45-12.6,6.93-18.8,20.28-50.38,52.02-96.73,91.24-134.3,42.08-40.33,92.84-70.95,148.18-89.36,61.97-20.59,128.06-26.17,192.87-20.03,11.16-1.21,22.35-2.01,33.56-2.44,41.76-1.57,83.8,2.24,124.72,10.74,20.52,4.27,41.13,9.42,60.95,16.38,19.96,7.01,39.19,17.15,56.56,28.49,17.36,11.35,33.68,24.36,48.9,38.41,14.04,12.95,27.22,26.59,37.4,42.82,20.53,32.68,28.74,70.66,36.96,107.86,9.04,40.96,19.8,81.94,23.61,123.82,3.83,42.17-1.23,85.1-16.14,124.57Z" fill="#e5e1c3"/>
  </g>
  <g>
    <path d="M274.24,510.23h0c-.92,2.33-7.61,2.37-7.5-.6.38-10.12,4.59-20.35,8.89-29.52,4.3-9.18,9.87-17.82,16.16-25.74,11.42-14.37,25.87-26.5,42.15-34.96,4.28-2.24,8.48-4.48,13.12-6.47s9.51-3.25,14.28-4.83c10.16-3.4,21.02-5.04,31.38-5.42,20.95-.76,42.33,3.47,61.46,12.02,9.49,4.23,18.47,9.45,26.46,16.14,3.65,3.04,7.01,6.45,9.76,10.34,1.54,2.19,2.95,4.48,4.21,6.85.65,1.21,1.3,2.51,1.34,3.92.04,1.19-.51,2.57-.83,3.74-.63,2.44-4.48,3.34-6.51,3.54-2.73.27-5.82-.36-7.81-2.35-1.3-1.3-2.6-2.39-3.36-4.12-.47-1.01-.74-2.1-1.21-3.11-.94-2.04-2.06-4.01-3.38-5.82-2.69-3.65-5.86-7.01-9.36-9.87-7.65-6.29-17.06-10.83-26.28-14.3-17.08-6.45-35.54-8.71-53.72-7.1-8.75.78-18.24,2.08-26.84,4.9-4.3,1.41-8.71,2.66-12.8,4.63-3.87,1.88-7.65,3.96-11.3,6.24-14.48,9.02-27.06,21.06-36.86,35.01-4.95,7.05-9.11,14.55-12.67,22.49-3.56,7.95-5.66,16.34-8.8,24.42h0l.02-.02Z" fill="#f59835"/>
    <path d="M869.36,434.82h0c1.39,3.07-5.13,2.84-6.49,1.61-7.34-6.65-13.72-14.15-21.69-20.14-7.52-5.66-15.38-10.52-23.9-14.53-7.5-3.54-15.76-6.42-23.61-8.28-4.1-.98-8.26-1.81-12.44-2.44-4.43-.67-7.34-.96-11.48-1.12-16.43-.65-31.29,2.19-46.67,8.46-29.61,12.06-54.46,36.69-66.68,66.66-2.39,5.91-17.86,4.12-15.11-2.62,7.52-18.51,19.61-35.16,34.65-48.28,13.56-11.84,29.41-21.38,46.53-26.97,18.09-5.93,37.42-7.81,55.98-5.93,18.56,1.88,36.46,8.08,52.58,17.37,7.72,4.45,15.13,9.98,21.69,16,6.22,5.71,13.07,12.38,16.61,20.17v.04h.04,0Z" fill="#f59835"/>
    <path d="M363.75,577.82h0c.18,2.91-6.69,3.02-7.5.6-.98-2.95-1.95-5.6-2.24-8.73-.27-2.95-.38-5.98-.18-8.93.4-5.71,2.06-11.42,4.3-16.68,4.1-9.58,10.63-17.91,18.89-24.22,8.75-6.69,18.53-10.05,29.88-11.39,11.35-1.34,22.96-.13,33.53,4.36,5.08,2.17,9.96,4.86,14.3,8.26,2.26,1.77,4.45,3.63,6.45,5.69,2.19,2.26,4.52,4.36,3.07,7.7-1.16,2.66-5.48,3.36-7.97,2.8-2.35-.54-4.54-1.05-6.24-2.91-.87-.94-1.66-1.99-2.53-2.93-1.59-1.7-3.29-3.31-5.1-4.75-4.01-3.11-8.26-5.51-12.67-7.18-4.41-1.68-7.72-2.73-12.09-3.31-3.69-.49-8.08-.72-12.18-.04-8.62,1.43-16.59,5.46-22.99,11.39-6.74,6.24-11.84,14.12-14.91,22.79-1.54,4.36-2.57,8.95-3.27,13.52-.34,2.31-.45,4.66-.43,7.01.02,2.35-.27,4.61-.13,6.96h0Z" fill="#f59835"/>
    <path d="M709.28,503.69h0c-1.45.6-4.25.27-4.61-1.57-.74-3.74,4.1-8.28,6.51-10.56,3.11-2.95,6.58-5.71,10.27-7.9,14.17-8.44,31.81-11.62,48.06-9.18,9.74,1.45,18.94,5.06,26.48,11.46,3.49,2.98,6.38,6.6,8.53,10.65,1.81,3.45,4.43,9.47,2.6,13.23-2.46,5.04-11.48,4.19-14.19,0-1.23-1.9-1.14-4.81-1.86-6.92-.72-2.1-1.68-4.16-2.89-6.02-2.6-3.96-6.36-7.03-10.43-9.36-7.36-4.19-15.42-6.16-23.26-6.16s-15.96,2.46-22.85,6.09c-4.21,2.22-8.3,4.77-11.91,7.9-3.31,2.87-6.42,6.6-10.52,8.3h.07v.02Z" fill="#f59835"/>
    <path d="M323.13,431.91h0c1.45,3.42-6.22,4.05-7.77,1.95-1.9-2.57-3.72-5.22-5.44-7.92-7.59-11.95-11.57-26.9-12.87-40.92-1.48-16,.49-32.46,6.38-47.45,11.28-28.81,36.48-50.74,64.93-61.8,30.22-11.75,64.84-11.17,94.01,3.36,14.75,7.34,27.35,18.38,35.97,32.43,8.1,13.25,12.58,28.31,13.54,44.18.96,15.89-1.99,32.52-7.05,47.56-4.32,12.91-11.24,24.76-20.26,34.94-2.48,2.8-7.57,3-10.79,1.79-2.82-1.07-5.26-4.05-2.82-6.8,2.06-2.31,4.01-4.7,5.84-7.18,7.65-10.41,12.58-22.63,15.65-35.12,3.58-14.57,5.01-29.75,2.64-44.59-2.19-13.86-7.77-27.6-16.36-38.7-4.39-5.66-9.36-11.12-15.2-15.29-6.2-4.41-13.18-8.01-20.1-10.52-6.92-2.51-14.08-4.16-21.38-4.99-2.64-.29-5.75-.49-9.09-.49-3.11,0-7.3.16-9.49.38-13.34,1.39-25.96,4.99-37.98,11.26-25.54,13.3-45.59,36.35-52.26,64.66-3.42,14.46-2.55,29.01-.45,43.53.94,6.54,2.64,12.83,4.7,19.12,1.81,5.57,3.29,11.21,5.6,16.61h.04Z" fill="#f59835"/>
    <path d="M756.44,479.16h0c.54-3.25,8.3-3.34,8.15,0-.2,4.05-.47,8.13-1.1,12.13-4.99,31.47-19.79,62.07-40.4,86.29-21.8,25.56-49.06,44.45-82.39,56.14-33.33,11.68-68.94,14.97-104.39,9.13-35.45-5.84-69.48-21.11-95.55-46.06-11.93-11.42-22.07-24.8-29.59-39.48-6.69-13.05-8.77-27.67-8.77-42.19,0-5.06,12.09-5.04,12.09,0,0,2.42.04,4.81.18,7.21.38,7.25,1.3,14.53,3.38,21.49,2.26,7.57,6.18,14.64,10.32,21.33,8.33,13.45,19.12,25.36,31.27,35.43,26.23,21.73,59.52,33.64,93.2,36.89,32.19,3.11,65.16-2.33,94.81-15.11,14.91-6.42,29.55-14.93,41.65-24.67,12.11-9.74,22.7-21.06,32.12-33.4,19.07-24.96,30.04-54.21,35.07-85.06h-.02v-.07h-.02Z" fill="#f59835"/>
    <path d="M739.76,543.33h0c-.96-3.74,7.23-4.39,8.1-1.34,1.52,5.33,2.82,10.72,3.89,16.16,8.64,44-.18,91.99-22.72,130.6-21.17,36.26-54.55,64.69-93.22,80.8-40.87,17.03-87.02,18.82-129.44,6.49-21.69-6.31-42.33-16.47-60.64-29.7-9.6-6.94-18.42-14.5-25.29-24.11-6.87-9.6-11.91-20.19-15.74-31.34-7.14-20.88-11.55-43.4-10.77-65.51.38-10.77,1.1-21.96,4.14-32.63,3.04-10.68,7.7-20.59,13.88-29.81,3.42-5.13,18.17-1.97,13.52,4.99-2.71,4.05-5.1,8.42-7.21,12.83-4.5,9.49-7.95,19.94-9.98,30.28-2.04,10.34-2.08,21.17-1.41,31.65,1.39,21.6,6.16,42.8,15.53,62.4,18.94,39.53,63.12,62,104.53,70.08,40.67,7.95,83.85,1.48,119.68-17.59,35.86-19.07,65.25-49.47,82.17-86.44,18.22-39.75,21.91-85.5,10.99-127.81h-.02Z" fill="#f59835"/>
    <path d="M656.41,621.67h0c-.11-2.48,5.98-2.51,6.22,0,1.72,17.08.49,34.11-3.04,50.88-.2.9-.81,1.52-1.72,1.77-9.8,2.71-19.63,5.37-29.39,8.21-4.77,1.39-9.76,2.84-14.33,4.14-4.57,1.3-9.22,3.2-13.9,3.98-4.05.67-8.06-.78-9.02-5.01-1.07-4.75-1.32-9.89-1.92-14.59-.6-4.7-1.19-9.18-1.79-14.12-.6-4.95-1.88-10.23-1.63-15.22.16-3.22,7.61-3.58,8.44-.69,1.16,4.07,1.28,8.3,1.75,12.65.47,4.34.96,8.71,1.43,13.05.47,4.34.96,8.71,1.43,13.05.11,1.1.22,2.17.36,3.27.04.36.45,2.69.45,2.69l-1.25.07c.67-.18,1.37-.34,2.04-.51.92-.22,1.81-.47,2.73-.69,17.1-4.36,34.09-9.09,51.08-13.81l-1.72,1.77c3.51-16.7,4.57-33.87,3.78-50.88h0l.02.02Z" fill="#f59835"/>
    <path d="M511.68,635.01h0c.38-3.13,7.63-3.22,7.79,0,.43,8.62-.31,17.3-.63,25.96-.31,8.66-.69,17.32-1.1,25.96-.13,2.93-4.7,2.75-6.58,2.26-18.62-4.97-37.36-9.42-56.05-14.17-1.86-.47-3.87-1.19-4.19-3.36-3.09-22.11-2.95-44.21-2.26-66.45.18-5.53,13.21-5.44,13.05,0-.63,22.11-1.48,44.41.65,66.45l-2.82-3.02c18.69,5.35,37.31,10.95,56.05,16.05l-6.58,2.26c.45-8.66.87-17.32,1.28-25.96.4-8.64.34-17.39,1.39-25.96h0v-.02Z" fill="#f59835"/>
    <path d="M939.44,506.42c-3.81-41.88-14.57-82.86-23.61-123.82-8.22-37.2-16.43-75.18-36.96-107.86-10.18-16.23-23.36-29.86-37.4-42.82-15.22-14.06-31.54-27.07-48.9-38.41-17.37-11.35-36.6-21.48-56.56-28.49-19.81-6.96-40.43-12.11-60.95-16.38-40.92-8.5-82.96-12.31-124.72-10.74-11.2.43-22.4,1.23-33.56,2.44-11.03,1.17-22,2.75-32.91,4.72-19.23,3.48-38.23,8.21-56.83,14.28-37.47,12.23-73.12,29.93-105.28,52.76-3.04,2.15-6.06,4.36-9.03,6.6-1.58,1.18-3.15,2.38-4.7,3.58-1.55,1.21-3.1,2.43-4.63,3.66-22.68,18.13-43.38,38.73-61.59,61.36-22.99,28.61-42.03,60.32-55.96,94.26-13.78,33.63-22.58,69.52-25.09,105.82-2.5,36.31,1.19,70.64,9.67,104.87,8.52,34.42,22.2,67.62,40.58,97.94,18.38,30.33,41.31,57.15,68.74,79.42,12.71,10.33,26.31,19.3,40.79,26.94,9.34,6.03,18.96,11.61,28.82,16.73h0c.5.26,1,.53,1.51.78,1.19.61,2.39,1.22,3.6,1.82,19.08,9.53,39.02,17.4,59.47,23.6,22.72,6.9,45.94,11.83,69.4,15.24,11.68,1.69,23.41,3,35.17,3.99,4.67.4,9.33.74,14.01,1.03,40.11,2.51,82.05,2.84,122.05-5.79,38.43-8.29,75.21-23.34,108.99-43.38,33.93-20.11,64.93-45.24,91.88-74.01,28.74-30.7,52.93-66.1,67.84-105.56,14.91-39.46,19.96-82.39,16.14-124.57ZM928.18,566.9c-4.89,41.07-21.12,82.52-44.24,117.95-21.67,33.22-49.6,62.5-80.33,87.43-29.8,24.15-63.15,44.25-98.77,58.56-35.64,14.3-72.91,22.54-111.03,23.23-40.33.74-80.86-1.23-120.66-8.06-37.16-6.36-73.75-17.03-107.7-33.53-15.98-7.78-31.37-16.78-45.98-26.9-.27-.19-.55-.38-.82-.57-1.62-1.12-4.09-1.33-6.14-.78-2.6-1.79-5.16-3.6-7.69-5.46-19.8-14.55-37.71-31.59-53.34-50.58-21.46-26.08-39.79-56.58-52.92-88.57-13.11-31.98-21.71-66.34-24.84-101.06-3.14-34.71-.68-69.63,7.41-103.45,8.3-34.97,22.2-68.51,40.49-99.45,18.28-30.93,40.98-59.11,67.01-83.8,13.73-13.02,28.4-25.01,43.87-35.85,13.98-9.8,28.62-18.66,43.8-26.51.23-.11.44-.23.67-.34,35.6-18.27,74.2-30.64,113.62-37.46,39.66-6.88,80.47-8.3,120.6-4.75,20.37,1.8,40.58,4.82,60.59,8.98,19.88,4.12,39.8,9.12,58.93,15.94,38.25,13.61,72.42,37.88,101.91,65.41,13.5,12.57,26.28,25.83,35.9,41.65,9.63,15.82,16.25,33.33,22.38,50.99,6.27,18.08,10.64,36.59,14.76,55.29,4.34,19.76,8.98,39.46,13.16,59.29,8.48,40.2,14.28,81.33,9.37,122.41Z" fill="#f59835"/>
    <path d="M322.37,788.43h0c1.03.98-.11,2.04-1.07,2.39-1.32.49-3,.29-4.07-.63-4.23-3.58-8.3-7.34-12.24-11.24-31.92-31.56-56.2-70.6-73.39-111.94-17.35-41.72-27.75-86.64-30.73-131.54-2.98-44.9,1.75-90.14,14.46-133.34,13.09-44.54,34.09-86.6,61.37-124.14,13.7-18.85,29.16-36.57,45.82-52.62,16.68-16.07,34.83-31.52,54.61-43.56,2.42-1.45,9.22.49,5.46,3.25-4.61,3.38-9.24,6.69-13.86,10.07-36.84,27.11-68.56,60.75-94.08,99.02-25.52,38.25-44.59,80.89-55.76,125.52-10.79,43.22-13.88,87.32-9.18,131.95,4.7,44.63,16.63,88.59,35.54,129.31,9.45,20.32,20.86,40.18,33.71,58.06,12.85,17.88,27.55,34.22,43.42,49.42h-.04.02Z" fill="#f59835"/>
    <path d="M525.2,857.81c-2.22.32-4.45.61-6.67.89-11.35,1.43-22.69,2.34-34.12,2.96-48.77,2.62-98.25-1.11-145.78-12.75-39.17-9.61-77.06-24.6-111.4-45.89-29.68-18.39-56.5-41.31-79.24-67.82-20.68-24.1-38.03-51.05-51.75-79.7-12.26-25.61-21.66-52.6-27.97-80.29-5.42-23.8-8.78-48.13-8.94-72.55-.09-13.63,1.11-27.15,3.14-40.61,2.01-13.29,4.84-26.45,8.37-39.39,1.83-6.78,4.59-13.52,6.72-19.86,2.13-6.33,4.45-12.6,6.93-18.8,20.28-50.38,52.02-96.73,91.24-134.3,42.08-40.33,92.84-70.95,148.18-89.36,61.97-20.59,128.06-26.17,192.87-20.03.08,0,.16,0,.25.02,1.93.18,4.9,1.88,3.94,4.23-1.03,2.51-4.72,2.62-6.93,2.42-10.03-.95-20.09-1.61-30.16-1.95-5.43-.18-10.86-.27-16.29-.27-62.84-.04-126.13,12.36-182.99,39.61-.26.12-.52.25-.77.37-14.17,6.84-27.94,14.58-41.17,23.15-32.47,20.98-61.84,46.9-86.68,76.46-17.23,20.52-32.32,42.82-44.86,66.52-6.24,11.82-11.89,24-16.81,36.41-2.47,6.21-4.81,12.54-6.87,18.83-2.06,6.29-3.4,12.9-5.13,19.29-8.24,30.69-12.13,62.2-10.07,93.92,1.63,25.29,6.16,49.69,13.01,73.71,7.95,27.79,19,54.72,33.01,80.04,13.05,23.56,28.55,45.4,46.65,65.32,3.16,3.5,6.41,6.93,9.73,10.31,8.81,8.93,18.04,17.29,27.72,25.08h0c17.34,14.01,36.04,26.21,56.07,36.66,35.52,18.53,74.74,30.8,114.38,37.54,36.6,6.24,73.48,7.5,110.54,6.73,13.59-.27,27.2-.83,40.83-1.51,1.24-.06,3.58.51,3.83,2.03.26,1.55-1.52,2.4-2.82,2.58Z" fill="#f59835"/>
    <path d="M216.99,788.4h0c1.03.98-.11,2.04-1.07,2.39-1.32.49-3,.29-4.07-.63-4.23-3.6-8.3-7.34-12.27-11.24-32.19-31.67-57.08-70.62-75.03-111.94-18.09-41.59-29.39-86.33-32.93-131.54-3.51-45.08,1.05-90.54,15.27-133.54,15.04-45.5,39.21-87.79,68.89-125.3,15-19,32.01-37.22,49.33-53.18,17.35-15.98,35.92-31.52,56.07-43.78,2.42-1.45,9.22.49,5.46,3.25-4.63,3.4-9.31,6.71-13.97,10.09-38.19,27.78-71.96,61.78-99.9,99.83-28,38.14-50.18,81.07-62.9,126.75-11.97,43.06-14.53,87.29-9.22,132.06,5.3,44.77,18.2,88.73,37.78,129.31,9.8,20.32,21.33,39.86,34.67,58.06,13.07,17.84,27.89,34.16,43.83,49.42h.04v-.02Z" fill="#f59835"/>
    <path d="M348.78,813.54h0c1.39-.78,3.65-.92,5.01,0,1.23.83,1.32,2.17,0,2.98-5.13,3.13-10.88,4.92-16.88,5.35-12.78.94-25.4-3.92-36.6-9.6-12.24-6.22-23.95-13.81-35.45-21.26-23.01-14.93-43.76-33.35-60.3-55.26-4.12-5.44-7.97-10.95-11.77-16.74-3.81-5.8-7.34-11.91-11.68-17.32-8.24-10.25-15.42-21.67-21.62-33.28-6.16-11.55-10.88-23.59-13.72-36.53-2.84-12.94-3.96-25.9-4.79-39.37-.83-13.5-1.25-26.99-2.55-40.42-1.43-14.88-3.6-29.66-4.79-44.54-2.24-28.16-2.1-56.56,2.75-84.45,4.25-24.49,12.11-48.08,22.67-70.53,5.75-12.2,12.2-24.06,19.09-35.68,6.54-11.01,13.23-21.98,21.06-32.14,7.18-9.29,15.13-18.49,22.94-26.75,7.81-8.26,16.12-15.96,25.92-21.85,20.44-12.27,45.28-16.92,68.83-17.59,1.5-.04,4.14.58,4.48,2.37.34,1.79-1.81,2.78-3.27,3-5.84.87-11.66,1.59-17.5,2.42-22.05,3.09-42.93,10.01-59.63,25.25-8.01,7.32-15.27,15.51-22.34,23.82-7.07,8.3-13.81,16.85-19.67,26.05-14.1,22.16-27.13,45.12-36.93,69.54-8.89,22.16-14.77,45.28-17.37,69.01-3.16,28.69-1.68,57.59,1.45,86.22,1.45,13.32,3.31,26.9,4.12,39.91.81,13,1.25,26.08,2.42,39.06,1.16,12.89,3.11,26.14,7.05,38.05,3.94,11.91,9.69,23.17,16.09,33.95,3.2,5.39,6.56,10.65,9.96,15.91,1.77,2.73,2.95,5.75,4.61,8.55,1.54,2.62,3.25,5.17,4.83,7.77,7.01,11.42,13.92,22.74,22.29,33.22,8.37,10.48,17.62,19.83,28.2,28.36,10.59,8.53,22.36,15.67,33.91,22.81,10.99,6.8,22.02,14.06,34.04,18.94,11.26,4.59,24.02,7.21,35.14.87v-.07h-.02Z" fill="#f59835"/>
    <path d="M352.07,750.28h0c.25.54.25,1.1,0,1.63l-.51.74c-.36.4-.81.69-1.3.87-.34.2-.72.34-1.12.4-.63.2-1.28.27-1.95.27l-1.34-.11c-.6-.09-1.19-.27-1.72-.56-.49-.2-.92-.49-1.3-.87-.31-.4-.65-.78-.96-1.16,1.52.54,3.02,1.05,4.54,1.59h-.18c-.76.02-1.48-.07-2.19-.29-.45-.07-.87-.22-1.25-.45-.56-.22-1.03-.54-1.45-.98l-.58-.83c-.22-.36-.43-.72-.63-1.07-.22-.45-.25-.92-.09-1.37.04-.49.27-.92.67-1.28l.16-.13-.72,1.59c-.11-.72.34-1.28.76-1.81.36-.38.78-.65,1.25-.83.34-.2.69-.31,1.07-.38.6-.18,1.23-.25,1.88-.25l1.3.11c.9.16,1.86.38,2.6.94l-3.67-.92c.56.02,1.12.07,1.68.13.67.07,1.32.29,1.9.6.56.27,1.07.47,1.48,1.01.09.09.16.2.25.31.18.22.34.43.49.65.4.36.63.78.67,1.3.13.29.13.6,0,.92-.04.51-.27.94-.67,1.3l-.9.69-.11.09,1.37-3.11c.2.43.43.83.63,1.25h-.04Z" fill="#f59835"/>
    <path d="M294.99,551.12h0c.27-.29.6-.49.96-.63.27-.16.54-.25.83-.29.47-.16.94-.2,1.43-.2l.98.09c.31.07.65.16.94.25,0,.02.07.02.09.02.18.04.25.09.49.2.49.22.36.13.76.45.16.13.31.25.47.38l-3.58-1.23c.22,0,.45,0,.67.04.56,0,1.12.11,1.66.31.31.13.6.29.92.45h.04c.4.2.72.49.94.87.09.11.18.22.25.34,0,.04.07.07.07.11.09.13.16.25.25.38.04.07.13.2.13.2v.04l.16.74v.31c0,.43-.11.76-.38,1.05-.13.27-.34.47-.58.6-.38.31-.81.56-1.28.69l-.16.07,1.41-.83c-.22.16-.43.36-.67.49-.54.29-1.07.49-1.68.58l-1.01.09c-.76.02-1.39-.16-2.1-.36l2.04.34c-.25.02-.47,0-.72-.04-.58,0-1.14-.11-1.68-.31l-.92-.43-.72-.54s-.11-.11-.16-.16c0-.02-.07-.07-.09-.09-.16-.22-.31-.45-.49-.67v-.04c-.11-.18-.16-.6-.2-.9,0-.13-.04-.27-.09-.4v-.09c0-.18,0-.16.07-.45.11-.47.04-.31.34-.72.2-.38.51-.67.92-.87l.16-.09-1.21,1.75v-.13c.13-.69.04-.51.36-.96.13-.2.13-.25.27-.34,0-.02.09-.07.09-.07h.02v-.02Z" fill="#f59835"/>
    <path d="M322.84,498.01h0c-.47.27-.96.43-1.48.51l-.9.07c-.43,0-.85-.04-1.28-.18-.27,0-.51-.11-.74-.25-.31-.13-.6-.31-.85-.56l-.34-.47c-.16-.27-.16-.51-.07-.78.04-.29.18-.54.4-.74,0-.02.07-.09.07-.09l-.34.47.13-.29-.13.54v-.09l1.72,1.77-.16-.04c-.54-.18-1.01-.45-1.41-.83-.34-.31-.54-.69-.54-1.16v-.16l.13.63c-.07-.22-.16-.4-.27-.58l.4.58c-.11-.16-.22-.27-.36-.38l.65.49-.25-.16,1.86.65h-.07l1.12.09h-.16l1.16-.09h-.11l1.07-.27h-.07l.92-.4s-.07.04-.09.04c.22-.2.47-.38.72-.56h0l-.74-3.4c.16.07.31.16.47.25.67.38.98.81,1.37,1.43.04.07.07.11.11.18.13.27.29.49.45.76s.31.51.47.78c.09.13.16.25.22.36.07.13.18.27.22.4.22.54.22,1.05,0,1.59l-.49.72c-.36.38-.78.65-1.28.83-.36.2-.72.31-1.1.38-.63.18-1.25.25-1.9.25l-1.32-.11c-.6-.07-1.16-.25-1.68-.54-.49-.18-.92-.45-1.28-.83-.29-.27-.51-.69-.74-1.05-.09-.13-.16-.25-.25-.38-.18-.25-.34-.47-.49-.74s-.34-.51-.49-.78c-.22-.34-.38-.65-.36-1.1,0-.13.07-.27.07-.4,0-.56.22-1.03.63-1.41.49-.47,1.05-.81,1.68-1.01.76-.25,1.54-.38,2.35-.38s1.59.11,2.35.38c.63.25,1.34.58,1.81,1.1.2.2.45.49.54.81l-.43-.6c.25.27.45.56.63.87.11.2.16.43.2.65s.11.45.11.69v.18c-.04.27-.11.54-.18.81-.25.45-.56.78-1.01,1.03-.54.31-1.12.51-1.72.63h-.18l2.42-1.43c-.36.54-.72.98-1.32,1.28l.09.07h-.02Z" fill="#f59835"/>
    <path d="M614.69,511.5h0c-.16-.27-.18-.56-.07-.83.04-.31.18-.58.43-.78l.56-.43.72-.34c.43-.16.87-.25,1.32-.25.31-.04.63-.04.94,0,.45,0,.9.09,1.32.25l.72.34c.22.11.45.2.67.31.04.02.11.04.16.07.29.13.51.36.74.56l.25.22c.34.31.54.69.54,1.16l-.13.63c-.25.45-.56.78-1.01,1.03l-.78.36c-.47.16-.96.27-1.45.27-.51.07-1.03.04-1.54-.04-.47-.07-.92-.2-1.32-.43-.38-.13-.72-.36-1.01-.65l-.25-.22c-.25-.2-.4-.47-.54-.76-.07-.16-.16-.31-.22-.47h-.02Z" fill="#f59835"/>
    <path d="M847.16,473.59h0c-.43-.43-.67-.96-.69-1.57,0-.45.16-.85.45-1.19.25-.45.6-.78,1.05-1.01.51-.34,1.07-.54,1.66-.65.63-.2,1.3-.27,1.97-.27.9,0,1.77.13,2.6.43l1.03.49c.58.31,1.03.78,1.32,1.37.29.45.56.92.85,1.37.13.22.29.47.43.69.09.11.13.2.18.34s.07.25.11.36c.22.51.22,1.05,0,1.57-.29.56-.72.98-1.25,1.3-.29.2-.63.36-.98.47-.78.27-1.59.4-2.42.4-.43,0-.87-.04-1.32-.11-.76-.13-1.48-.38-2.15-.76-.4-.27-.74-.58-1.1-.9-.25-.22-.4-.51-.58-.76-.38-.54-.74-1.05-1.12-1.59h-.02v.02Z" fill="#f59835"/>
    <path d="M313.14,183.77h0c-.43-.43-.67-.96-.69-1.57,0-.45.16-.85.45-1.19.25-.45.6-.78,1.05-1.01.51-.34,1.07-.54,1.66-.65.63-.2,1.3-.27,1.97-.27.9,0,1.77.13,2.6.43l1.03.49c.58.31,1.03.78,1.32,1.37.29.45.56.92.85,1.37.13.22.29.47.43.69.09.11.13.2.18.34s.07.25.11.36c.22.51.22,1.05,0,1.57-.29.56-.72.98-1.25,1.3-.29.2-.63.36-.98.47-.78.27-1.59.4-2.42.4-.43,0-.87-.04-1.32-.11-.76-.13-1.48-.38-2.15-.76-.4-.27-.74-.58-1.1-.9-.25-.22-.4-.51-.58-.76-.38-.54-.74-1.05-1.12-1.59h-.02v.02Z" fill="#f59835"/>
    <path d="M352.76,830.15h0c-.43-.43-.67-.96-.69-1.57,0-.45.16-.85.45-1.19.25-.45.6-.78,1.05-1.01.51-.34,1.07-.54,1.66-.65.63-.2,1.3-.27,1.97-.27.9,0,1.77.13,2.6.43l1.03.49c.58.31,1.03.78,1.32,1.37.29.45.56.92.85,1.37.13.22.29.47.43.69.09.11.13.2.18.34s.07.25.11.36c.22.51.22,1.05,0,1.57-.29.56-.72.98-1.25,1.3-.29.2-.63.36-.98.47-.78.27-1.59.4-2.42.4-.43,0-.87-.04-1.32-.11-.76-.13-1.48-.38-2.15-.76-.4-.27-.74-.58-1.1-.9-.25-.22-.4-.51-.58-.76-.38-.54-.74-1.05-1.12-1.59h-.02v.02Z" fill="#f59835"/>
    <path d="M880.77,515.96h0c.29-.58.9-.9,1.45-1.12.63-.22,1.37-.27,2.01-.22s1.25.2,1.81.51c.27.13.49.34.65.6.18.2.27.43.27.72l-.11.58-.94-1.34.09.04c.31.16.56.36.72.65.2.22.29.47.29.78l-.27,1.37c-.04.29-.09.58-.2.85,0,.11-.07.2-.11.31-.09.22-.18.47-.27.69-.2.4-.51.72-.92.94l-.72.34c-.87.34-1.86.36-2.78.22-.45-.04-.85-.18-1.23-.38-.34-.13-.65-.34-.92-.6-.25-.2-.4-.47-.43-.78-.11-.29-.09-.56.07-.85.07-.25.16-.51.22-.76s.16-.47.27-.72c.11-.25.22-.47.34-.72.07-.13.11-.25.18-.38.2-.4.54-.76.92-.96.51-.27,1.05-.45,1.61-.54l-2.26,1.32c.09-.18.18-.38.27-.56h-.02Z" fill="#f59835"/>
    <path d="M841.49,562.02h0c.34.16.58.4.76.69.2.22.31.49.31.83l-.13.58-.36.51c-.27.27-.58.47-.94.6-.25.13-.51.22-.81.27-.47.13-.94.18-1.41.18l-.96-.07h-.09l.98.07h-.18l.98-.09h-.18l.9-.2-.18.07.78-.36s-.07.04-.09.04c.34-.76.67-1.5,1.01-2.24v.04c.2.45.2.87,0,1.3-.25.47-.6.83-1.05,1.07-.02.02-.09.07-.09.07l.65-.49c-.13.11-.25.22-.34.36l.43-.58c-.11.16-.18.34-.22.51l.16-.67v.38l-4.25-2.53c.2,0,.4,0,.6.04.58,0,1.12.11,1.66.31.29.13.6.27.9.43h.02c.4.2.69.49.92.87.2.18.31.4.31.67.02.16.07.29.09.43l-.16-.72c.04.13.09.27.18.38l-.45-.65.25.27-.69-.54.27.16-.92-.43c.31.13.65.27.96.45.27.16.49.38.74.58l-.69-.54.22.13-.9-.4.22.07-1.03-.27.25.04-1.12-.09c.2,0,.38.04.58.04.36,0,.72.07,1.05.18.49.13.98.27,1.41.58-.9-.22-1.79-.45-2.69-.67h.02l-1.01.09.25-.04-.87.22.25-.09-.72.34s.11-.07.18-.11c.34-.22.72-.36,1.1-.43.29-.09.58-.13.87-.13.31-.04.6-.04.92,0,.31,0,.58.04.87.13.38.09.76.22,1.1.43l.54.4.34.49.11.54c0,.27-.09.56-.16.81-.02.09-.04.16-.09.22.04-.2.09-.4.16-.6v.11c-.02.49-.2.92-.56,1.25-.43.4-.94.72-1.5.9-.78.36-1.79.43-2.64.47-.47.04-1.05-.04-1.45-.09h-.13l-1.07-.27c-.18-.07-.34-.13-.49-.22-.16-.07-.31-.16-.47-.22-.02-.02-.07-.02-.07-.02-.34-.18-.63-.45-.92-.69-.09-.04-.13-.13-.2-.2-.18-.25-.36-.49-.51-.74-.02-.04-.07-.09-.07-.13-.11-.31-.18-.67-.22-1.01,0-.4.11-.74.38-1.03.2-.38.51-.67.92-.87.47-.34,1.45-.63,2.01-.69l-3.11,2.44c.04-.36.09-.74.27-1.1s.43-.67.67-.96c.07-.07.11-.13.18-.18.27-.22.54-.43.83-.63.07-.04.13-.09.2-.11.67-.34,1.1-.51,1.86-.65,1.05-.18,2.22-.11,3.22.27l-2.98-.22c1.48-.22,3.07-.09,4.39.67h-.04v-.02Z" fill="#f59835"/>
    <path d="M727.36,730.65h0c-.27-.25-.43-.56-.43-.92l.11-.47c.16-.45.69-.76,1.1-.94.58-.27,1.21-.38,1.86-.38.76,0,1.5.2,2.17.54.34.16.63.4.9.63.11.11.22.25.34.38l-1.95-.87c.2,0,.4.04.58.11.4.07.78.2,1.14.43l.56.43.36.49s.07.11.11.18c.13.2.2.38.25.63.07.36.13.67.07,1.03-.09.43-.16.9-.38,1.28-.18.27-.38.56-.58.81-.07.11-.18.2-.27.27-.38.36-.85.63-1.37.81-.45.18-.92.27-1.41.27-.51.07-1.01.04-1.52-.04-.47-.04-.9-.18-1.3-.4-.38-.13-.69-.34-.98-.63-.31-.31-.51-.69-.51-1.14l.13-.6c.22-.45.56-.76.98-1.01.04-.02.11-.07.11-.07l-.6.45c.13-.11.27-.25.38-.4l-.38.54c.16-.22.27-.47.34-.74l-.13.58c.07-.2.07-.43.07-.63s.04-.4.04-.6c0-.31.11-.58.31-.81.18-.29.43-.51.74-.67l.13-.07-.83,1.88c-.07-.22-.13-.4-.27-.58l.31.45-.13-.18h-.04,0Z" fill="#f59835"/>
    <path d="M612.11,807.23h0c0-.4.18-.74.47-1.03l.54-.43c.47-.29.98-.45,1.52-.54l.92-.07c.47-.02.92.04,1.34.18.4.07.76.22,1.12.43.31.13.54.36.72.65.2.2.29.47.29.78-.02.18-.02.34-.07.51v.25c-.02.25-.04.54-.16.76-.13.29-.34.51-.6.67-.27.25-.58.4-.94.51l-.81.2-.9.07c-.45,0-.87-.04-1.3-.18-.27,0-.51-.11-.74-.25-.34-.11-.63-.31-.87-.56l-.34-.47c-.13-.22-.13-.51-.18-.76v-.25l-.04-.51h0l.02.02Z" fill="#f59835"/>
    <path d="M112.97,463.18h0c0-.4.18-.74.47-1.03l.54-.43c.47-.29.98-.45,1.52-.54l.92-.07c.47-.02.92.04,1.34.18.4.07.76.22,1.12.43.31.13.54.36.72.65.2.2.29.47.29.78,0,.18,0,.34-.07.51v.25c0,.25-.04.54-.16.76-.13.29-.34.51-.6.67-.27.25-.58.4-.94.51l-.81.2-.9.07c-.45,0-.87-.04-1.3-.18-.27,0-.51-.11-.74-.25-.34-.11-.63-.31-.87-.56l-.34-.47c-.13-.22-.13-.51-.18-.76v-.25l-.04-.51h.02v.02Z" fill="#f59835"/>
    <path d="M347.86,176.61h0c0-.4.18-.74.47-1.03l.54-.43c.47-.29.98-.45,1.52-.54l.92-.07c.47,0,.92.04,1.34.18.4.07.76.22,1.12.43.31.13.54.36.72.65.2.2.29.47.29.78,0,.18,0,.34-.07.51v.25c0,.25-.04.54-.16.76-.13.29-.34.51-.6.67-.27.25-.58.4-.94.51l-.81.2-.9.07c-.45,0-.87-.04-1.3-.18-.27,0-.51-.11-.74-.25-.34-.11-.63-.31-.87-.56l-.34-.47c-.13-.22-.13-.51-.18-.76v-.25l-.04-.51h0l.02.02Z" fill="#f59835"/>
    <path d="M490.93,213.56h0c-.67,0-1.34-.16-1.92-.47-.36-.2-.65-.51-.74-.92-.09-.2-.07-.43.04-.63l.27-.38c.4-.45,1.1-.6,1.63-.74.16-.04.31-.09.47-.09l-1.68.76.18-.2c.65-.69,1.61-.98,2.53-1.16.58-.11,1.14-.11,1.7-.04.56,0,1.07.11,1.59.29,1.12.43,2.04.96,2.93,1.75.22.2.43.43.6.65.31.4.63.83.85,1.3.2.45.2.9,0,1.34l-.43.6c-.43.43-.94.74-1.52.92l-1.01.25c-.58.11-1.14.11-1.7.04-.56,0-1.07-.11-1.59-.29-.74-.27-1.59-.76-1.95-1.52-.11-.22-.22-.4-.36-.6l.43.6c-.25-.34-.54-.63-.87-.9l.67.51c-.27-.2-.56-.38-.87-.51l.85.4s-.25-.09-.36-.13c-.87-.34-2.15-1.05-2.08-2.19v-.27l2.06,1.59h-.18l.74.07h-.31.02v-.02Z" fill="#f59835"/>
    <path d="M603.36,247.03h0c-.09-3.51,8.68-3.49,8.57,0v.63c-.09,2.57-4.19,2.78-5.93,2.33-2.13-.56-3.74-2.6-1.37-4.14l.49-.31c1.34-.87,3.74-.87,5.08,0l.49.31c2.37,1.54.76,3.58-1.37,4.14-1.72.47-5.84.25-5.93-2.33v-.63h-.04Z" fill="#f59835"/>
    <path d="M112.08,560.21h0c-.09-3.51,8.68-3.49,8.57,0v.63c-.09,2.57-4.19,2.78-5.93,2.33-2.13-.56-3.74-2.6-1.37-4.14l.49-.31c1.34-.87,3.74-.87,5.08,0l.49.31c2.37,1.54.76,3.58-1.37,4.14-1.72.47-5.84.25-5.93-2.33v-.63h-.04Z" fill="#f59835"/>
    <path d="M517.14,264.6c-1.07,0-3.25-.45-3.25-1.9s2.17-1.9,3.25-1.9,3.25.45,3.25,1.9-2.15,1.9-3.25,1.9h0Z" fill="#f59835"/>
    <path d="M125.75,589.42c-1.07,0-3.25-.45-3.25-1.9s2.17-1.9,3.25-1.9,3.25.45,3.25,1.9-2.15,1.9-3.25,1.9h0Z" fill="#f59835"/>
    <path d="M673.87,421.43h0c.58,2.53-3.58,2.42-4.99,1.7-1.97-1.03-4.21-1.81-5.71-3.47-1.32-1.45-2.53-3.07-3.72-4.63-18.89-24.96-26.7-57.97-21.71-88.82,4.59-28.2,19.9-56.11,43.18-73.08,24.22-17.64,58.29-22.38,86.64-13.36,14.57,4.63,27.98,12.83,39.46,22.83,10.7,9.31,18.24,21.31,23.39,34.49,6.09,15.62,8.26,32.68,6.63,49.31-1.57,16.07-5.26,33.53-13.79,47.43-1.97,3.2-6.11,4.07-9.65,3.45-2.84-.49-6.76-2.46-5.46-6.07s2.82-7.1,4.25-10.65c5.84-14.41,9.54-29.3,9.51-45.19-.02-15.89-3.76-31.45-11.1-45.57-2.87-5.51-6.09-10.83-10.3-15.42-3.72-4.07-7.77-7.63-11.84-10.68-11.01-8.28-23.99-15.44-37.38-18.42-24.82-5.55-51.26,2.06-69.92,19.74-19.99,18.94-32.12,46.8-33.55,74.15-.76,14.88,1.32,29.86,6.2,43.92,2.42,6.92,5.48,13.54,9.11,19.9,1.84,3.25,3.81,6.42,6,9.45,1.07,1.48,2.26,2.98,3.31,4.34,1.05,1.37,1.03,2.98,1.41,4.63h.02v.02Z" fill="#f59835"/>
    <path d="M424.91,369.35c.02-.1.04-.21.06-.31.09-.55-.11-1-.5-1.36-1.24-2.42-4.34-3.75-6.62-5.04-3.11-1.77-6.51-3.07-9.83-4.45-5.75-2.43-11.5-4.83-17.08-7.62,9.26-7.46,18.45-15,27.89-22.24.6-.47,1.72-1.32,1.54-2.28-.74-4.19-2.75-8.28-4.21-12.27-1.59-4.32-3.2-8.62-4.81-12.91-3.18-8.44-6.29-16.92-9.36-25.4-.05-.14-.13-.27-.2-.4.79-1.04,1.42-2.14,1.56-3.47.29-2.8-4.95-2.35-6.29-1.54-1.48.91-2.29,1.99-3.06,3.23-1,.31-1.87.77-2.42,1.36-.78.85-1.41,1.54-1.21,2.75.06.38.21.7.39.99-.74,1.11-1.47,2.22-2.16,3.35-2.57,4.19-4.92,8.53-7.07,12.94-4.25,8.73-7.65,17.84-10.23,27.2-5.17,18.78-7.05,38.41-5.26,57.82.49,5.35,1.23,10.68,2.35,15.94,1.12,5.26,2.19,11.24,5.13,16.05.85,1.39,5.51,1.88,5.42-.43l-.02-.02c-.03-.96-.12-1.9-.25-2.84,5.91-1,16.73-.18,21.81.3-.34.97.95,1.63,1.7,1.83,1.21.31,2.6.13,3.56-.69,2.98-2.48,5.15-5.73,7.23-8.98,2.08-3.25,3.92-6.56,5.53-10.03,3.11-6.71,5.15-13.89,6.35-21.16.04-.09.04-.19.05-.29Z" fill="#f59835"/>
    <path d="M771.14,328.16c-.03-.33-.16-.61-.33-.87,0-.02.01-.04.02-.07.11-.78-.78-1.57-1.32-1.9-2.69-1.7-6.58-1.81-9.65-2.35-3.07-.54-6.38-1.12-9.56-1.68-3.18-.56-6.13-1.16-9.24-1.57-1.74-.22-3.49-.51-5.25-.69.35-.81.66-1.65.99-2.45.83-1.97,1.63-3.78,2.39-5.71,1.66-4.23,3.42-8.42,5.3-12.53,1.88-4.12,3.98-8.26,6.24-12.27,1.12-1.99,2.28-3.94,3.51-5.86.82-1.28,1.92-2.58,2.34-4.01.98-.85,1.49-2.09.33-3.27-6.07-6.07-12.58-11.59-19.18-17.06-6.6-5.46-13.3-11.84-21.02-16.23-.89-.49-4.56-.59-4.4,1.03-1.08.27-1.96.83-2.2,1.72-5.22,19.36-7.01,39.35-5.06,59.31,1.88,19.2,6.94,38.01,13.61,56.09,1.92,5.24,3.76,10.52,5.86,15.69,1.01,2.46,2.08,4.9,3.22,7.32,1.28,2.69,2.33,5.57,4.41,7.77,1.14,1.19,5.17,1.7,6.81.36,0,0,0,.02.01.02l21.07-4.36c.01.4.02.81.06,1.21.2,2.13,4.21,1.79,5.08.4,2.33-3.69,3.27-8.44,4.07-12.69.92-4.86,1.57-9.78,2.06-14.71.98-10.18.76-20.48-.2-30.66Z" fill="#f59835"/>
    <path d="M421.12,566.18c8.6,16.61,35.41,36.91,35.41,36.91l.16,68.6,56.74,15.29,2.19-51.91c23.28,9.29,74.65,6.69,74.65,6.69l6.87,46.58,59-15.8c4.1-4.45,3.4-50.88,3.4-50.88,52.4-22.23,81.34-78.97,81.34-78.97,25.4,57.64-1.01,112.32-1.01,112.32-41.14,116.97-160.26,125.88-160.26,125.88-39.64,2.15-127.61-4.68-164.54-78.7-39.71-79.66,6.04-136.02,6.04-136.02h0Z" fill="#f59835"/>
    <path d="M308.11,222.23l-2.19,7.83c-17.88,13.7-44.03,41.79-44.03,41.79-57.35,61.06-82.28,145.4-82.28,145.4-44.18,169.42,44.25,282.7,44.25,282.7,39.15,60.68,90.79,87.49,90.79,87.49l38.77,24.35c-26.05,26.97-93.16-27.17-121.07-49.04-27.93-21.89-28.18-42.68-52.56-70.3-24.4-27.6-33.93-59.05-32.72-90.49,1.23-31.45-11.21-74.4-9.47-112.72,1.75-38.32,2.44-83.33,25.02-132.22,22.58-48.88,33.04-59.09,63.48-96.58,30.44-37.49,82.03-38.16,82.03-38.16h0v-.04h-.02Z" fill="#f59835"/>
  </g>
</svg>