<?xml version="1.0" encoding="UTF-8"?>
<svg id="a" data-name="Camada 2" xmlns="http://www.w3.org/2000/svg" viewBox="0 0 956.9 803.6">
  <g>
    <path d="M563.3,558.28c.31,4.52.64,9.07.95,13.6s.64,9.07.95,13.6c.07,1.14.14,2.26.24,3.4.03.3.24,1.93.32,2.56.29-.06.58-.12.87-.18.97-.19,1.92-.41,2.89-.6,17.57-3.69,35.04-7.74,52.5-11.79,3.46-14.03,5.24-28.44,5.66-42.87-4.37,1.67-8.83,3.22-13.41,4.62-16.79,5.13-34.06,8.16-51.51,9.02.29,2.83.34,5.72.54,8.66Z" fill="#e5e1c3"/>
    <polygon points="814.96 480.69 814.14 480.6 814.05 480.6 814.93 480.69 814.96 480.69" fill="#e5e1c3"/>
    <polygon points="481.74 114.72 481.74 114.72 481.72 114.72 481.74 114.72" fill="#e5e1c3"/>
    <path d="M422.52,568.9c16.22,5.35,32.41,10.82,48.66,16.02.7-7.57,1.39-15.14,2.05-22.7.79-8.94,1.09-18.02,2.55-26.87v-.02s.01-.03.02-.05c-18.68-7.53-36.11-18-51.15-31.41-1.51,21.61-3.16,43.37-2.13,65.03Z" fill="#e5e1c3"/>
    <path d="M320.88,710.95s0,0,0,0c-.17.23-.4.44-.71.61-5.25,2.92-11.07,4.48-17.08,4.66-12.81.42-25.22-4.95-36.17-11.08-11.98-6.72-23.37-14.77-34.56-22.69-22.38-15.85-42.36-35.1-58-57.67-3.89-5.6-7.52-11.26-11.08-17.21-3.57-5.95-6.85-12.2-10.97-17.79-7.81-10.58-14.53-22.28-20.25-34.14-5.68-11.79-9.91-24.02-12.22-37.06-2.31-13.04-2.9-26.04-3.18-39.53-.28-13.52-.15-27.02-.9-40.49-.83-14.93-2.39-29.78-2.97-44.7-1.09-28.23.2-56.6,6.19-84.27,5.25-24.29,14.06-47.55,25.53-69.55,6.24-11.95,13.17-23.54,20.53-34.87,6.98-10.74,14.11-21.42,22.35-31.26,7.56-8.99,15.87-17.86,24.01-25.79,8.14-7.93,16.75-15.29,26.79-20.77,19.68-10.75,42.99-14.6,65.3-14.78,0,0,0,0,0,0,3.06-2.13,6.16-4.19,9.29-6.23,33.07-21.5,69.42-37.74,107.35-48.43,18.82-5.3,37.99-9.25,57.34-11.95-5.41-.41-10.83-.72-16.24-.94-62.81-2.61-126.57,7.21-184.49,32.14-4.07,2.71-8.15,5.38-12.23,8.1-39.28,26.2-74.42,58.8-103.88,95.68-29.53,36.97-53.44,78.96-68.01,124.09-13.72,42.54-18.07,86.63-14.59,131.57,3.48,44.94,14.57,89.39,32.49,130.74,8.97,20.71,19.69,40.7,32.28,59.43,8.51,12.66,17.89,24.62,27.9,36.05,16.73,14.67,34.89,27.58,54.44,38.82,34.74,19.96,73.43,33.81,112.76,42.16,36.34,7.72,73.14,10.5,110.23,11.23-23.32-4.36-46.34-10.24-68.78-18.05-20.18-7.04-39.77-15.71-58.46-26.01ZM340.29,71.95c.02-.4.21-.73.51-1.01l.55-.4c.48-.27,1-.41,1.54-.47l.92-.03c.47.02.92.08,1.33.23.4.08.75.25,1.1.47.31.15.52.38.69.68.19.21.27.48.26.79,0,.18-.01.34-.09.51v.25c-.02.25-.08.53-.2.75-.15.29-.36.5-.63.65-.28.24-.6.38-.96.48l-.81.17-.9.03c-.45-.02-.87-.08-1.29-.23-.27-.01-.51-.13-.73-.28-.33-.13-.61-.34-.85-.59l-.32-.48c-.13-.23-.11-.52-.15-.77v-.25s-.01-.52-.01-.52l.02.02ZM305.18,74.93c.26-.44.64-.76,1.09-.96.53-.31,1.1-.49,1.68-.58.63-.18,1.31-.22,1.98-.19.89.04,1.76.21,2.58.53l1.01.53c.57.34,1,.82,1.26,1.42.27.46.52.94.79,1.4.13.23.27.48.4.71.08.12.13.21.17.34.04.14.06.25.1.36.2.52.18,1.06-.06,1.57-.31.55-.76.95-1.31,1.25-.3.19-.64.33-1,.43-.79.24-1.6.34-2.43.3-.42-.02-.87-.08-1.31-.17-.75-.17-1.46-.44-2.12-.85-.39-.28-.71-.61-1.06-.94-.24-.23-.38-.53-.55-.78-.36-.55-.7-1.08-1.05-1.63h-.02s0,.02,0,.02c-.41-.44-.63-.99-.63-1.59.02-.45.19-.84.5-1.17ZM97.63,446.6c-.12,1.63-1.83,2.24-3.5,2.33-1.96.14-5.04-.45-5.02-2.68l.03-.63h-.04c.05-3.52,8.82-3.14,8.57.35l-.03.63ZM97.26,351.81c-.45-.02-.87-.08-1.29-.23-.27-.01-.51-.13-.73-.28-.33-.13-.61-.34-.85-.59l-.32-.48c-.13-.23-.11-.52-.15-.77v-.25s-.01-.52-.01-.52h.02s0,.02,0,.02c.02-.4.21-.73.51-1.01l.55-.4c.48-.27,1-.41,1.54-.47l.92-.03c.47,0,.92.08,1.33.23.4.08.75.25,1.1.47.31.15.52.38.69.68.19.21.27.48.26.79,0,.18-.01.34-.09.51v.25c-.02.25-.08.53-.2.75-.15.29-.36.5-.63.65-.28.24-.6.38-.96.48l-.81.17-.9.03ZM101.56,475.37c-1.07-.04-3.22-.58-3.17-2.03.06-1.45,2.25-1.81,3.32-1.77,1.07.04,3.22.58,3.17,2.03-.06,1.45-2.22,1.81-3.32,1.77ZM329.43,727.51c-.31.55-.76.95-1.31,1.25-.3.19-.64.33-1,.43-.79.24-1.6.34-2.43.3-.42-.02-.87-.08-1.31-.17-.75-.17-1.46-.44-2.12-.85-.39-.28-.71-.61-1.06-.94-.24-.23-.38-.53-.55-.78-.36-.55-.7-1.08-1.05-1.63h-.02s0,.02,0,.02c-.41-.44-.63-.99-.63-1.59.02-.45.19-.84.5-1.17.26-.44.64-.76,1.09-.96.53-.31,1.1-.49,1.68-.58.63-.18,1.31-.22,1.98-.19.89.04,1.76.21,2.58.53l1.01.53c.57.34,1,.82,1.26,1.42.27.46.52.94.79,1.4.13.23.27.48.4.71.08.12.13.21.17.34.04.14.06.25.1.36.2.52.18,1.06-.06,1.57Z" fill="#e5e1c3"/>
    <path d="M265.05,170.36c14.45-18.27,30.63-35.36,47.92-50.71,3.41-3.03,6.88-6.03,10.41-8.99,0,0,0,0,0,0-15.91,10.21-31.07,21.6-45.34,34.06-27.01,23.61-50.84,50.84-70.38,81-19.53,30.17-34.79,63.12-44.51,97.72-9.45,33.46-13.33,68.25-11.61,103.06,1.72,34.81,8.91,69.5,20.71,101.99,11.8,32.5,28.87,63.72,49.26,90.65,14.83,19.59,32.02,37.34,51.19,52.67,0,0,.02.01.03.02-30.51-32.79-53.12-72.7-68.58-114.62-15.63-42.39-24.2-87.7-25.35-132.69-1.15-44.98,5.42-89.99,19.88-132.64,14.9-43.97,37.59-85.14,66.38-121.53Z" fill="#e5e1c3"/>
    <path d="M97.19,552.83c-16.38-42.29-25.85-87.46-27.54-132.78-1.68-45.19,4.74-90.42,20.69-132.8,16.88-44.85,42.76-86.12,73.94-122.39,15.76-18.38,33.5-35.89,51.46-51.13,5.91-5.01,11.95-9.97,18.12-14.77-33.29,19.64-63.68,44.33-89.69,72.84-18.05,19.8-34.04,41.47-47.53,64.64-6.72,11.55-12.85,23.49-18.27,35.7-2.72,6.09-5.32,12.32-7.63,18.53-2.31,6.2-3.93,12.74-5.91,19.07-9.48,30.33-14.65,61.65-13.89,93.44.6,25.34,4.13,49.89,10,74.17,6.8,28.1,16.76,55.46,29.73,81.32,12.09,24.12,26.74,46.61,44.04,67.3.02.03.05.06.07.09-15.2-22.9-27.7-47.66-37.58-73.21Z" fill="#e5e1c3"/>
    <path d="M955.7,423.7c-1.82-36.42-8.39-71.67-14.74-105.75-1.45-7.79-2.95-15.84-4.35-23.68l-.25-1.4c-6.79-38.09-14.49-81.27-36.68-120.01-12.45-21.75-28.81-39.34-41.68-52.24-16.73-16.76-34.26-31.71-52.11-44.44-20.91-14.91-42.22-26.73-63.32-35.11-18.88-7.51-39.53-13.99-65.01-20.4-44.27-11.1-89.1-16.8-133.24-16.94h-1.77c-10.21,0-20.51.3-30.67.9-23.75-3.07-47.56-4.62-70.84-4.62-46.74,0-91.97,6.2-134.45,18.42-61.1,17.59-118.59,49.14-166.25,91.22-45.08,39.78-81.75,89.33-106.08,143.31-3.11,6.92-5.98,13.83-8.54,20.54-.66,1.73-1.45,3.66-2.28,5.71-1.92,4.71-4.1,10.06-5.94,15.87-4.56,14.34-8.28,28.91-11.06,43.3-3.16,16.37-4.94,31.52-5.44,46.3-.88,25.47,1.33,52.73,6.58,81.05,5.7,30.68,14.82,60.75,27.12,89.39,14.07,32.73,32.08,63.09,53.53,90.24,24.06,30.46,52.6,56.99,84.86,78.86,35.31,23.93,75.74,42.57,120.17,55.41,46.49,13.41,96.42,20.2,148.39,20.2,2.57,0,5.14-.02,7.73-.05,11.83-.16,22.61-.61,32.82-1.38,3.75.45,7.42.86,10.95,1.22,26.23,2.72,47.88,3.98,68.16,3.98,23.33,0,44.39-1.69,64.36-5.15,41.67-7.21,82.76-21.64,122.15-42.88,37.63-20.29,72.41-46.05,103.39-76.54,35.99-35.42,63.02-74.06,80.35-114.85,18.25-42.92,26.61-91.5,24.17-140.47ZM896.75,549.38c-16.5,38.82-42.12,73.21-72.09,102.7-28.1,27.66-60.1,51.49-94.82,70.21-34.57,18.64-71.92,32.2-110.66,38.91-40.32,7-82.21,4.96-122.19.82-4.69-.48-9.36-1.02-14.04-1.61-11.37.96-22.72,1.42-34.12,1.57-48.84.63-98.13-5.12-145.14-18.68-38.74-11.2-76-27.72-109.44-50.38-28.9-19.59-54.76-43.59-76.4-71-19.69-24.92-35.92-52.56-48.47-81.74-11.2-26.08-19.5-53.45-24.69-81.36-4.44-24-6.8-48.44-5.96-72.85.46-13.62,2.2-27.08,4.78-40.44,2.55-13.21,5.9-26.24,9.97-39.02,2.12-6.71,5.14-13.32,7.52-19.57,2.38-6.24,4.96-12.41,7.7-18.51,22.32-49.51,55.91-94.54,96.62-130.47,43.7-38.58,95.66-67.11,151.7-83.24,62.75-18.05,129.02-20.94,193.52-12.17,11.2-.75,22.42-1.1,33.62-1.06,41.8.13,83.64,5.64,124.18,15.81,20.33,5.11,40.72,11.09,60.23,18.86,19.66,7.81,38.46,18.73,55.35,30.77s32.67,25.71,47.3,40.37c13.49,13.52,26.11,27.68,35.63,44.31,19.18,33.48,25.84,71.77,32.53,109.28,7.37,41.3,16.46,82.68,18.56,124.68,2.11,42.29-4.7,84.98-21.2,123.8Z" fill="#e5e1c3"/>
    <path d="M791.82,304.94c7.34-13.71,12.59-28.12,14.26-43.93,1.67-15.8-.4-31.67-6.2-46.49-2.26-5.78-4.9-11.42-8.6-16.43-3.26-4.45-6.91-8.41-10.64-11.87-10.07-9.4-22.22-17.91-35.21-22.29-8.84-2.99-18.09-4.24-27.27-3.86,4.48,4.16,8.58,8.77,12.67,12.97,5.99,6.13,11.87,12.32,17.26,19,1.03,1.3.39,2.47-.67,3.21-.56,1.38-1.8,2.56-2.75,3.74-1.43,1.78-2.79,3.6-4.12,5.46-2.67,3.74-5.21,7.64-7.51,11.53-2.31,3.9-4.51,7.87-6.61,11.9-.96,1.83-1.95,3.55-2.99,5.42-.42.76-.81,1.56-1.25,2.33,1.73.36,3.44.84,5.14,1.24,3.05.73,5.92,1.65,9.03,2.54,3.1.89,6.33,1.82,9.33,2.68,2.99.86,6.85,1.38,9.34,3.36.5.39,1.31,1.26,1.11,2.03,0,.02-.02.04-.03.07.15.27.24.57.24.9-.12,10.23-1,20.49-3.06,30.51-1.01,4.84-2.18,9.67-3.61,14.4-.67,2.23-1.41,4.58-2.36,6.83,3.58.46,7.13,1.06,10.64,1.8,10.36,2.18,20.37,5.73,29.83,10.39,1.3-2.5,2.67-4.95,4-7.45Z" fill="#e5e1c3"/>
    <path d="M889.12,303.07c-3.35-18.84-6.96-37.52-12.49-55.84-5.4-17.89-11.31-35.66-20.28-51.86-8.98-16.2-21.2-29.97-34.18-43.08-28.35-28.71-61.49-54.34-99.16-69.51-18.84-7.6-38.54-13.4-58.23-18.32-19.82-4.98-39.9-8.81-60.17-11.44-39.95-5.19-80.79-5.41-120.69-.17-39.67,5.22-78.75,15.99-115.07,32.82,0,0,0,0,0,0-2.82,1.87-5.64,3.74-8.45,5.63-37.92,25.58-70.98,57.9-98.03,95.11-27.05,37.18-47.84,79.01-60.82,123.15-12.54,42.75-17.42,86.68-14.54,131.46s13.01,89.2,30.25,130.65c8.61,20.69,19.21,40.99,31.32,59.39,11.38,17.29,24.47,33.26,38.65,48.27,14.16,10.67,29.14,20.28,44.75,28.68,33.26,17.87,69.38,30.02,106.25,37.88,39.49,8.45,79.91,12.06,120.24,12.96,38.11.86,75.68-5.85,111.87-18.69,36.19-12.84,70.33-31.56,101.08-54.48,31.72-23.67,60.82-51.78,83.83-84.08,24.54-34.46,42.45-75.22,49.02-116.06,6.57-40.83,2.45-82.18-4.39-122.69-3.37-19.99-7.2-39.86-10.73-59.78ZM601.28,153.06l-.03.63c-.12,1.63-1.83,2.24-3.5,2.33-1.96.14-5.04-.45-5.02-2.68l.03-.63h-.04s0,0,0,0c.05-3.51,8.82-3.14,8.57.35ZM601.52,418.06l-.16.62c-.26.44-.59.76-1.05.99l-.8.33c-.48.14-.97.23-1.46.21-.52.05-1.03,0-1.54-.11-.47-.09-.91-.24-1.3-.48-.37-.15-.7-.39-.98-.69l-.24-.23c-.24-.21-.38-.49-.51-.78-.06-.16-.14-.32-.2-.48h-.02c-.15-.28-.16-.57-.03-.83.06-.31.2-.57.46-.77l.58-.4.73-.31c.43-.14.88-.21,1.33-.19.31-.03.63-.02.94.04.45.02.89.13,1.31.3l.7.36c.22.12.44.22.66.34.04.02.11.05.15.07.29.15.5.38.72.59l.24.23c.32.33.51.72.49,1.18ZM506.01,162.95c1.07.04,3.22.58,3.17,2.03-.06,1.45-2.22,1.81-3.32,1.77-1.07-.04-3.22-.58-3.17-2.03.06-1.45,2.25-1.81,3.32-1.77ZM479.21,112.58l.28-.37c.25-.26.6-.4.95-.5.64-.47,1.45-.68,2.24-.8.59-.09,1.15-.07,1.7.02.56.02,1.07.16,1.58.36,1.1.47,2,1.04,2.86,1.86.22.21.41.44.58.67.3.42.59.85.8,1.33.18.46.16.9-.05,1.34l-.45.59c-.44.41-.97.7-1.56.85l-1.02.2c-.59.09-1.15.07-1.7-.02-.56-.02-1.07-.16-1.58-.36-.73-.3-1.56-.83-1.88-1.6-.04-.08-.07-.15-.11-.23-.11-.14-.23-.28-.36-.41,0,0-.01,0-.01,0-.66-.28-1.54-.8-1.86-1.54-.23-.2-.4-.46-.46-.77-.08-.2-.05-.43.07-.62ZM265.97,340.98c-.14-2.91-.47-5.84-.84-8.76.42-.47.76-1.02.96-1.63.02-.07.04-.14.06-.21,1.48-1.12,2.97-2.23,4.49-3.31-.07-.21-.13-.43-.18-.66-6.98-35.65,3.67-73.06,28.16-99.84,4.11-4.49,10.48,2.49,6.4,6.95-21.45,23.45-31.05,56.5-25.89,87.77.89-.58,1.77-1.18,2.67-1.75,61.55-38.85,138.17-46.23,205.98-21.98,4.12-22.24-.49-45.77-12.9-64.74-11.87-18.15-30.56-31.16-51.39-36.83-5.87-1.6-2.98-10.59,2.88-9,23.29,6.33,43.66,21.2,56.86,41.4,13.92,21.31,18.3,47.75,13.46,72.56,4.35,1.76,8.66,3.64,12.92,5.66,5.48,2.6.33,10.54-5.1,7.96-3.56-1.69-7.17-3.28-10.82-4.78-9.51,17.24-25.15,30.09-43.7,36.66-5.74,2.03-7.8-7.2-2.14-9.2,15.66-5.55,28.6-16.69,36.95-30.9-14.64-5.32-29.85-9.13-45.24-11.31-61.67-8.75-124.08,8.67-172.39,46.53-.39-.23-.79-.44-1.2-.59ZM280.56,447.18c-.02.42-.14.76-.42,1.04-.15.26-.35.46-.61.58-.39.3-.83.53-1.3.64l-.16.06h.02c-.31.09-.63.17-.97.21l-1.01.05c-.37,0-.71-.06-1.05-.14-.48-.05-.95-.16-1.4-.35l-.9-.46-.69-.57s-.11-.12-.15-.16c0-.02-.06-.07-.09-.09-.15-.23-.29-.46-.46-.69v-.04c-.1-.18-.13-.61-.16-.9,0-.13-.03-.27-.07-.41v-.09c.01-.18.01-.16.09-.44.13-.47.06-.31.36-.7.02-.03.04-.04.06-.07.04-.06.1-.13.18-.23.14-.2.14-.24.28-.32,0-.02.09-.06.09-.06h.02s0-.02,0-.02c.28-.28.62-.47.99-.59.27-.15.55-.22.84-.26.48-.14.95-.16,1.44-.14l.98.13c.31.08.64.18.93.28,0,.02.07.03.09.03.11.03.18.07.28.11.06.02.13.04.19.06.31.15.59.32.9.48h.04c.39.22.7.52.9.91.08.12.17.23.23.35,0,.04.06.07.06.11.08.14.15.25.23.39l.13.21v.04s.12.74.12.74v.31ZM305.55,392.31l-.52.7c-.37.37-.81.62-1.31.78-.37.19-.73.28-1.11.34-.63.15-1.26.19-1.91.17l-1.31-.17c-.6-.09-1.15-.29-1.66-.61-.48-.2-.9-.48-1.24-.88-.28-.28-.49-.71-.7-1.08-.08-.14-.15-.25-.23-.39-.17-.25-.32-.48-.46-.76-.15-.27-.31-.53-.46-.8-.21-.34-.35-.66-.31-1.11,0-.13.08-.27.08-.4.02-.56.27-1.02.68-1.38.51-.45,1.08-.76,1.72-.94.77-.21,1.56-.32,2.36-.28.81.03,1.58.18,2.33.48.32.14.66.31.97.51v-.04c.15.07.3.17.45.27.66.41.95.85,1.31,1.49.04.07.06.11.1.18.12.27.27.5.42.78.15.27.29.53.44.8.08.14.15.25.21.37.06.14.17.28.21.41.2.55.18,1.06-.06,1.59ZM321.07,646.95l-.54.72c-.37.39-.83.66-1.33.82-.34.19-.73.31-1.13.36-.63.18-1.29.22-1.96.19l-1.34-.17c-.6-.11-1.17-.32-1.7-.63-.48-.22-.9-.53-1.26-.93-.13-.18-.27-.35-.4-.53-.38-.22-.74-.48-1.04-.83l-.55-.85c-.21-.37-.4-.73-.58-1.1-.21-.46-.21-.93-.03-1.37.05-.38.21-.72.48-1.01.14-.2.3-.4.46-.58.37-.37.81-.62,1.29-.78.34-.19.71-.28,1.09-.34.61-.15,1.24-.2,1.89-.17l1.29.16c.32.07.65.16.97.26.53.12,1.04.33,1.51.61.55.29,1.05.51,1.44,1.07.09.09.15.21.23.32.17.23.32.44.47.67.39.37.59.81.62,1.32.09.21.08.42.03.64.08.17.16.34.23.52h-.04s0,0,0,0c.22.55.2,1.11-.07,1.63ZM327.81,331.32c25.59-17.12,56.94-24.72,87.54-21.3,6.02.67,5.66,10.12-.38,9.44-29.15-3.26-58.34,3.9-82.72,20.21-5.06,3.39-9.44-5-4.43-8.35ZM585.47,713.57v.25c-.04.25-.08.53-.2.75-.15.29-.36.5-.63.65-.28.24-.6.38-.96.48l-.81.17-.9.03c-.45-.02-.87-.08-1.29-.23-.27-.01-.51-.13-.73-.28-.33-.13-.61-.34-.85-.59l-.32-.48c-.13-.23-.11-.52-.15-.77v-.25s-.01-.52-.01-.52l.02.02c.02-.4.21-.73.51-1.01l.55-.4c.48-.27,1-.41,1.54-.47l.92-.03c.47,0,.92.08,1.33.23.4.08.75.25,1.1.47.31.15.52.38.69.68.19.21.27.48.26.79-.03.18-.04.33-.09.51ZM704.02,642.53c-.11.42-.19.89-.43,1.26-.19.26-.4.54-.61.78-.07.11-.19.19-.28.26-.39.34-.88.59-1.4.75-.45.16-.93.23-1.42.21-.52.05-1.01,0-1.52-.11-.47-.06-.89-.22-1.28-.46-.37-.15-.68-.36-.96-.67-.3-.33-.49-.71-.47-1.16l.16-.6c.14-.26.34-.46.55-.64.06-.05.11-.11.17-.17.03-.06.05-.12.07-.18,0-.09.01-.17.02-.26,0-.2.06-.4.07-.6,0-.07.03-.12.04-.19-.14-.21-.22-.45-.21-.72l.13-.47c.17-.44.72-.73,1.13-.89.59-.24,1.22-.33,1.87-.3.76.03,1.49.26,2.15.63.32.16.59.41.84.64.05.03.1.05.14.08l.54.45.34.51s.06.11.1.18c.13.21.19.39.22.64.05.36.11.68.03,1.03ZM784.86,441.57c-2.67,4.93-11.64,3.71-14.18-.58-1.15-1.95-.94-4.85-1.57-6.99s-1.51-4.23-2.64-6.13c-2.43-4.06-6.07-7.28-10.04-9.77-4.95-3.09-10.28-5.12-15.68-6.2-3.26,12.56-8.06,24.82-14.12,36.44.12.18.2.38.26.59,1.37,5.59,2.5,11.24,3.39,16.93,7.18,46.01-4.08,95.41-29.3,134.49-23.69,36.71-59.82,64.77-100.98,79.83-43.49,15.92-91.87,15.81-135.74,1.21-22.43-7.47-43.6-18.89-62.2-33.39-9.76-7.61-18.66-15.83-25.45-26.08-6.79-10.25-11.61-21.45-15.14-33.17-6.59-21.96-10.25-45.51-8.5-68.41.85-11.15,2.08-22.73,5.71-33.67,3.26-9.81,16.7-30.21,26.44-40.51-3.52-14.52-4-35.35-3.51-47.18-8.67,1.08-16.79,4.78-23.43,10.45-6.99,5.97-12.41,13.63-15.82,22.16-1.72,4.3-2.94,8.84-3.82,13.38-.43,2.29-.64,4.63-.71,6.98-.07,2.35-.46,4.6-.42,6.95h0c.06,2.91-6.81,2.75-7.52.3-.86-2.99-1.72-5.67-1.88-8.81-.15-2.96-.14-5.99.18-8.93.63-5.69,2.52-11.32,4.97-16.49,4.48-9.41,11.35-17.46,19.86-23.43,9.02-6.33,18.93-9.29,30.32-10.17,11.39-.88,22.95.8,33.32,5.73,4.99,2.38,9.75,5.26,13.95,8.83,2.19,1.86,4.3,3.8,6.21,5.94,2.1,2.35,4.34,4.55,2.75,7.82-1.27,2.61-5.62,3.13-8.08,2.47-2.33-.63-4.5-1.24-6.12-3.16-.83-.97-1.57-2.06-2.41-3.03-1.52-1.76-3.15-3.44-4.91-4.95-3.88-3.27-8.03-5.84-12.37-7.69-4.34-1.86-7.6-3.04-11.94-3.8-.1,2.42-4.44,14.81,1.67,42.18,1.95,7.65,5.58,14.88,9.44,21.73,7.77,13.78,18.07,26.12,29.8,36.68,25.33,22.78,58.1,36.04,91.62,40.65,32.03,4.42,65.2.33,95.35-11.23,2.12-.81,4.24-1.67,6.35-2.57.42-.69,1.42-1.05,2.52-1.09,12.06-5.31,23.7-11.87,33.75-19.29,12.5-9.24,23.54-20.12,33.45-32.06,15.63-18.81,26.42-40.43,33.41-63.53-7.12.13-14.44,2.15-20.8,5.17-4.29,2.04-8.49,4.43-12.22,7.41-3.43,2.73-6.69,6.34-10.85,7.87h.07s0,.03,0,.03c-1.48.54-4.26.1-4.54-1.75-.59-3.76,4.43-8.11,6.94-10.29,3.23-2.83,6.81-5.43,10.59-7.48,14.5-7.85,32.25-10.31,48.39-7.21,9.67,1.85,18.71,5.83,25.99,12.53,3.37,3.12,6.1,6.86,8.09,10.99,1.67,3.52,4.04,9.64,2.06,13.32ZM818.57,482.51c-.44.39-.97.68-1.53.83-.8.33-1.81.35-2.66.36-.47.03-1.05-.09-1.45-.15h-.13s-1.06-.32-1.06-.32c-.18-.07-.33-.15-.48-.24-.15-.07-.31-.17-.46-.24-.02-.02-.07-.03-.07-.03-.33-.19-.61-.47-.89-.73-.09-.05-.13-.14-.19-.21-.17-.25-.34-.51-.48-.76-.02-.05-.06-.09-.06-.14-.1-.32-.15-.68-.18-1.02.02-.4.14-.73.42-1.01,0-.01.02-.02.03-.03.03-.06.04-.13.07-.19.19-.35.45-.65.71-.93.07-.06.12-.13.19-.17.28-.21.55-.4.85-.59.07-.04.14-.08.21-.1.68-.31,1.12-.47,1.88-.57.6-.08,1.24-.06,1.85.03.97.08,1.92.35,2.75.87h-.01c.31.17.54.41.7.7.19.23.29.5.28.84l-.16.58-.11.15.32.26.32.51.09.54c0,.19-.06.38-.12.56-.05.48-.24.89-.61,1.2ZM837.94,391.38c-.31.55-.76.95-1.31,1.25-.3.19-.64.33-1,.43-.79.24-1.6.34-2.43.3-.42-.02-.87-.08-1.31-.17-.75-.17-1.46-.44-2.12-.85-.39-.28-.71-.61-1.06-.94-.24-.23-.38-.53-.55-.78-.36-.55-.7-1.08-1.05-1.63h-.02s0,.02,0,.02c-.41-.44-.63-.99-.63-1.59.02-.45.19-.84.5-1.17.26-.44.64-.76,1.09-.96.53-.31,1.1-.49,1.68-.58.63-.18,1.31-.22,1.98-.19.89.04,1.76.21,2.58.53l1.01.53c.57.34,1,.82,1.26,1.42.27.46.52.94.79,1.4.13.23.27.48.4.71.08.12.13.21.17.34.04.14.06.25.1.36.2.52.18,1.06-.06,1.57ZM836.07,365.86c-6.59-7.39-12.14-15.52-19.43-22.33-6.88-6.43-14.17-12.09-22.23-16.98-7.08-4.31-14.99-8.06-22.6-10.74-3.97-1.41-8.02-2.68-12.12-3.75-4.34-1.14-7.2-1.74-11.3-2.33-16.27-2.39-31.35-1.14-47.3,3.46-30.73,8.85-58.05,30.69-73.38,59.2-3.01,5.62-18.2,2.2-14.74-4.21,7.57-14.11,17.93-26.71,30.15-37.05-1.43-.88-2.87-1.79-3.84-3.13-1.16-1.59-2.19-3.32-3.2-5-16.13-26.82-20.39-60.48-12.16-90.62,7.56-27.56,25.75-53.68,50.69-68.08,25.95-14.97,60.33-16.07,87.57-4.08,14,6.15,26.46,15.72,36.81,26.89,9.65,10.4,15.88,23.13,19.59,36.78,4.39,16.18,4.74,33.37,1.35,49.73-3.26,15.81-8.79,32.78-18.75,45.7-.11.15-.24.29-.36.42,2.58,1.64,5.11,3.35,7.58,5.14,7.21,5.25,13.99,11.53,19.87,18.22,5.58,6.34,11.68,13.7,14.37,21.82v.04s.04,0,.04,0h0c1.05,3.2-5.4,2.28-6.63.91ZM864.81,435.53c-.06.29-.11.58-.24.84,0,.11-.08.2-.12.31-.1.22-.2.46-.3.68-.22.39-.54.69-.96.9l-.73.31c-.89.3-1.87.28-2.78.11-.45-.06-.84-.21-1.21-.43-.33-.15-.63-.36-.89-.64-.24-.21-.38-.49-.39-.8-.1-.3-.07-.56.1-.85.08-.24.18-.51.25-.75.08-.24.18-.46.3-.7.12-.24.24-.46.36-.7.07-.13.12-.24.19-.37.13-.24.31-.45.52-.63.02-.03.03-.06.05-.09h-.02c.31-.57.93-.86,1.5-1.06.64-.2,1.38-.21,2.02-.14s1.24.25,1.79.59c.26.15.48.36.62.63.17.21.25.44.24.73l-.06.25c.05.14.08.29.07.47l-.32,1.35Z" fill="#e5e1c3"/>
    <path d="M707.64,296.22c-.88-2.52-1.69-5.06-2.43-7.62-1.54-5.36-2.81-10.81-4.16-16.22-4.71-18.69-7.74-37.92-7.57-57.22.17-18.08,3.36-35.85,9.29-52.88-10.36,2.55-20.27,7.22-28.96,13.86-21.89,16.71-36.91,43.13-41.24,70.17-2.34,14.72-1.86,29.83,1.5,44.33,1.67,7.13,4.01,14.05,6.94,20.75,1.48,3.42,3.1,6.79,4.96,10.03.91,1.58,1.93,3.2,2.83,4.67.07.11.12.23.18.35,1.18-.89,2.37-1.76,3.57-2.6,14.74-10.33,31.52-18.13,49.14-21.88,2.47-.53,4.96-.98,7.46-1.36-.56-1.44-1.01-2.93-1.51-4.37Z" fill="#e5e1c3"/>
  </g>
  <g>
    <path d="M842.7,364.94h0c1.05,3.2-5.4,2.28-6.63.91-6.59-7.39-12.14-15.52-19.43-22.33-6.88-6.43-14.17-12.09-22.23-16.98-7.08-4.31-14.99-8.06-22.6-10.74-3.97-1.41-8.02-2.68-12.12-3.75-4.34-1.14-7.2-1.74-11.3-2.33-16.27-2.39-31.35-1.14-47.3,3.46-30.73,8.85-58.05,30.69-73.38,59.2-3.01,5.62-18.2,2.2-14.74-4.21,9.44-17.61,23.23-32.88,39.58-44.33,14.74-10.33,31.52-18.13,49.14-21.88,18.61-3.98,38.04-3.79,56.29.05,18.25,3.84,35.4,11.91,50.44,22.86,7.21,5.25,13.98,11.53,19.87,18.22,5.58,6.34,11.68,13.7,14.37,21.82v.04s.04,0,.04,0h0Z" fill="#f59835"/>
    <path d="M337.42,458.89h0c.06,2.91-6.81,2.75-7.52.3-.86-2.99-1.72-5.67-1.88-8.81-.15-2.96-.14-5.99.18-8.93.63-5.69,2.52-11.32,4.97-16.49,4.48-9.41,11.35-17.46,19.86-23.43,9.02-6.33,18.93-9.29,30.32-10.17,11.39-.88,22.95.8,33.32,5.73,4.99,2.38,9.75,5.26,13.95,8.83,2.19,1.86,4.3,3.8,6.21,5.94,2.1,2.35,4.34,4.55,2.75,7.82-1.27,2.61-5.62,3.13-8.08,2.47-2.33-.63-4.5-1.24-6.12-3.16-.83-.97-1.57-2.06-2.41-3.03-1.52-1.76-3.15-3.44-4.91-4.95-3.88-3.27-8.03-5.84-12.37-7.69-4.34-1.86-7.6-3.04-11.94-3.8-3.67-.64-8.04-1.04-12.16-.54-8.67,1.08-16.79,4.78-23.43,10.45-6.99,5.97-12.41,13.63-15.82,22.16-1.72,4.3-2.94,8.84-3.82,13.38-.43,2.29-.64,4.63-.71,6.98-.07,2.35-.46,4.6-.42,6.95h0Z" fill="#f59835"/>
    <path d="M687.36,431.46h0c-1.48.54-4.26.1-4.54-1.75-.59-3.76,4.43-8.11,6.94-10.29,3.23-2.83,6.81-5.43,10.59-7.48,14.5-7.85,32.25-10.31,48.39-7.21,9.67,1.85,18.71,5.83,25.99,12.53,3.37,3.12,6.1,6.86,8.09,10.99,1.67,3.52,4.04,9.64,2.06,13.32-2.67,4.93-11.64,3.71-14.18-.58-1.15-1.95-.94-4.85-1.57-6.99-.63-2.13-1.51-4.23-2.64-6.13-2.43-4.06-6.07-7.28-10.04-9.77-7.19-4.48-15.16-6.78-22.99-7.1-7.83-.32-16.05,1.81-23.08,5.15-4.29,2.04-8.49,4.43-12.22,7.41-3.43,2.73-6.69,6.34-10.85,7.87h.07s0,.03,0,.03Z" fill="#f59835"/>
    <path d="M732.62,405.95c-6.91,24.99-18.12,48.39-34.87,68.56-9.92,11.94-20.96,22.82-33.45,32.06-12.5,9.24-27.47,17.14-42.62,22.95-30.15,11.56-63.32,15.65-95.35,11.23-33.53-4.61-66.3-17.87-91.62-40.65-11.73-10.56-22.03-22.9-29.8-36.68-3.86-6.86-7.49-14.08-9.44-21.73-6.1-27.36-1.76-39.76-1.67-42.18.21-5.03-11.96-5.59-12.16-.54-.59,14.51.26,42.61,6.42,55.92,6.92,14.98,16.5,28.76,27.96,40.66,25.04,26,58.41,42.64,93.6,49.92,35.19,7.28,70.9,5.44,104.68-4.87,33.78-10.32,61.79-28.08,84.61-52.73,20.73-22.43,36.31-50.96,43.07-80.86-3.1-.35-6.21-.76-9.33-1.05Z" fill="#f59835"/>
    <path d="M718.35,449.97h0c-.85-3.92,7.75-4.24,8.54-1.05,1.37,5.59,2.5,11.24,3.39,16.93,7.18,46.01-4.08,95.41-29.3,134.49-23.69,36.71-59.82,64.77-100.98,79.83-43.49,15.92-91.87,15.81-135.74,1.21-22.43-7.47-43.6-18.89-62.2-33.39-9.76-7.61-18.66-15.83-25.45-26.08-6.79-10.25-11.61-21.45-15.14-33.17-6.59-21.96-10.25-45.51-8.5-68.41.85-11.15,2.08-22.73,5.71-33.67,3.64-10.94,19.96-35.09,29.66-43.66,3.8-5.17,5.22,12.06.06,19.08-3.01,4.09-5.7,8.51-8.08,13-5.11,9.65-9.16,20.35-11.73,30.98-2.57,10.64-3.07,21.87-2.81,32.77.54,22.46,4.63,44.65,13.62,65.39,18.15,41.81,63.43,67,106.43,77.15,42.23,9.98,87.68,5.11,125.99-13.14,38.33-18.25,70.37-48.52,89.64-86.15,20.75-40.45,26.55-87.75,16.9-132.09h-.02Z" fill="#f59835"/>
    <path d="M627.81,527.67h0c-.01-2.58,6.36-2.35,6.51.27,1.08,17.79-.93,35.4-5.34,52.64-.25.92-.91,1.54-1.88,1.76-10.37,2.39-20.77,4.73-31.1,7.27-5.05,1.24-10.33,2.53-15.17,3.68-4.83,1.15-9.79,2.93-14.71,3.54-4.27.52-8.4-1.16-9.23-5.59-.92-4.97-.96-10.32-1.4-15.22-.43-4.9-.85-9.57-1.28-14.73-.42-5.16-1.54-10.69-1.07-15.86.3-3.34,8.12-3.39,8.86-.36,1.05,4.27.98,8.67,1.29,13.19.31,4.52.64,9.07.95,13.6.31,4.52.64,9.07.95,13.6.07,1.14.14,2.26.24,3.4.03.37.35,2.81.35,2.81l-1.31.02c.71-.16,1.44-.29,2.15-.45.97-.19,1.92-.41,2.89-.6,18.08-3.8,36.06-7.97,54.04-12.15l-1.88,1.76c4.38-17.17,6.21-34.93,6.11-52.61h0l.02.02Z" fill="#f59835"/>
    <path d="M475.78,535.34h0c.53-3.23,8.12-3.02,8.15.33.08,8.96-1.06,17.93-1.75,26.9-.69,8.97-1.46,17.94-2.25,26.88-.26,3.04-5.04,2.66-6.98,2.06-19.28-5.95-38.7-11.37-58.05-17.09-1.92-.57-4-1.4-4.24-3.66-2.3-23.07-1.22-45.98.44-69.02.42-5.73,14.05-5.08,13.66.56-1.59,22.91-3.42,46-2.13,68.95l-2.82-3.25c19.33,6.35,38.59,12.94,57.98,19.04l-6.98,2.06c.83-8.97,1.65-17.93,2.43-26.88.79-8.94,1.09-18.02,2.55-26.87h0v-.02Z" fill="#f59835"/>
    <path d="M917.95,425.58c-2.1-42-11.19-83.38-18.56-124.68-6.69-37.51-13.35-75.8-32.53-109.28-9.51-16.63-22.14-30.79-35.63-44.31-14.63-14.66-30.41-28.32-47.3-40.37-16.89-12.05-35.69-22.96-55.35-30.77-19.51-7.77-39.9-13.75-60.23-18.86-40.54-10.17-82.38-15.67-124.18-15.81-11.2-.04-22.43.31-33.62,1.06-11.06.74-22.11,1.86-33.09,3.39-19.35,2.7-38.52,6.65-57.34,11.95-37.93,10.69-74.29,26.93-107.35,48.43-3.13,2.03-6.23,4.1-9.29,6.23-1.63,1.11-3.24,2.25-4.85,3.39-1.61,1.14-3.2,2.3-4.79,3.47-23.4,17.19-44.91,36.93-64.03,58.8-24.13,27.64-44.45,58.56-59.75,91.9-15.14,33.05-25.4,68.54-29.38,104.72-3.98,36.17-1.69,70.63,5.39,105.17,7.11,34.74,19.43,68.47,36.56,99.52,17.12,31.04,38.95,58.77,65.44,82.15,12.27,10.83,25.49,20.35,39.64,28.56,9.09,6.41,18.48,12.38,28.13,17.89.49.29.98.58,1.48.85,1.17.66,2.34,1.32,3.52,1.97,18.69,10.3,38.28,18.97,58.46,26.01,22.44,7.81,45.46,13.7,68.78,18.05,11.55,2.15,23.18,3.94,34.85,5.4,4.68.59,9.35,1.12,14.04,1.61,39.97,4.14,81.86,6.18,122.19-.82,38.74-6.71,76.09-20.27,110.66-38.91,34.72-18.73,66.72-42.55,94.82-70.21,29.97-29.5,55.59-63.88,72.09-102.7,16.5-38.82,23.31-81.51,21.2-123.8ZM904.24,485.54c-6.58,40.84-24.48,81.6-49.02,116.06-23,32.3-52.1,60.42-83.83,84.08-30.75,22.92-64.89,41.64-101.08,54.48-36.18,12.84-73.76,19.55-111.87,18.69-40.33-.9-80.75-4.52-120.24-12.96-36.86-7.86-72.99-20.02-106.25-37.88-15.64-8.42-30.64-18.04-44.82-28.73-.27-.21-.56-.42-.83-.62-1.57-1.19-4.02-1.49-6.08-1.03-2.54-1.89-5.05-3.84-7.53-5.82-19.17-15.33-36.35-33.08-51.19-52.67-20.39-26.93-37.46-58.15-49.26-90.65-11.8-32.49-18.99-67.17-20.71-101.99-1.72-34.81,2.16-69.6,11.61-103.06,9.72-34.6,24.98-67.55,44.51-97.72,19.54-30.17,43.36-57.39,70.38-81,14.27-12.46,29.43-23.85,45.34-34.06,14.36-9.21,29.33-17.46,44.8-24.68.22-.1.44-.21.66-.3,36.33-16.83,75.4-27.6,115.07-32.82,39.91-5.24,80.74-5.02,120.69.17,20.27,2.63,40.35,6.46,60.17,11.44,19.7,4.92,39.4,10.72,58.23,18.32,37.67,15.16,70.81,40.79,99.16,69.51,12.98,13.11,25.21,26.88,34.18,43.08,8.98,16.2,14.88,33.96,20.28,51.86,5.53,18.32,9.14,37,12.49,55.84,3.53,19.92,7.36,39.79,10.73,59.78,6.84,40.51,10.96,81.85,4.39,122.69Z" fill="#f59835"/>
    <path d="M289.9,682.22h0c.99,1.03-.19,2.03-1.17,2.35-1.34.44-3.01.17-4.04-.79-4.08-3.75-8-7.67-11.78-11.73-30.61-32.83-53.28-72.83-68.77-114.83-15.63-42.39-24.2-87.7-25.35-132.69-1.15-44.98,5.42-89.99,19.88-132.64,14.9-43.97,37.59-85.14,66.38-121.53,14.45-18.27,30.63-35.36,47.92-50.71,17.32-15.38,36.08-30.07,56.34-41.3,2.47-1.36,9.19.87,5.32,3.47-4.74,3.19-9.51,6.31-14.25,9.5-37.92,25.58-70.98,57.9-98.03,95.11-27.05,37.18-47.84,79.01-60.82,123.15-12.54,42.75-17.42,86.68-14.54,131.46,2.88,44.79,13.01,89.2,30.25,130.65,8.61,20.69,19.21,40.99,31.32,59.39,12.11,18.39,26.14,35.32,41.37,51.15h-.04s.02,0,.02,0h0Z" fill="#f59835"/>
    <path d="M514.56,47c-1.12,2.46-4.82,2.42-7.03,2.14-10-1.37-20.02-2.43-30.07-3.17-5.41-.41-10.83-.72-16.24-.94-62.81-2.61-126.57,7.21-184.49,32.14-.26.1-.5.22-.75.32-14.44,6.25-28.5,13.43-42.08,21.46-33.3,19.64-63.71,44.34-89.72,72.86-18.05,19.8-34.04,41.47-47.53,64.64-6.72,11.55-12.85,23.49-18.27,35.7-2.72,6.09-5.32,12.32-7.63,18.53-2.31,6.2-3.93,12.74-5.91,19.07-9.48,30.33-14.65,61.65-13.89,93.44.6,25.34,4.13,49.89,10,74.17,6.8,28.1,16.76,55.46,29.73,81.32,12.09,24.12,26.74,46.61,44.04,67.3,2.99,3.58,6.07,7.1,9.22,10.57,8.44,9.28,17.32,18.01,26.66,26.18,0,0,0,.02.02.02,16.75,14.7,34.95,27.64,54.53,38.9,34.74,19.96,73.43,33.81,112.76,42.16,36.34,7.72,73.14,10.5,110.23,11.23,13.58.27,27.18.27,40.81.14,1.24,0,3.55.65,3.74,2.19.18,1.55-1.63,2.33-2.93,2.46-2.26.23-4.52.43-6.77.61-11.37.96-22.72,1.42-34.12,1.57-48.84.63-98.13-5.12-145.14-18.68-38.74-11.2-76-27.72-109.44-50.38-28.9-19.59-54.76-43.59-76.4-71-19.69-24.92-35.92-52.56-48.47-81.74-11.2-26.08-19.5-53.45-24.69-81.36-4.44-24-6.8-48.44-5.96-72.85.46-13.62,2.2-27.08,4.78-40.44,2.55-13.21,5.9-26.24,9.97-39.02,2.12-6.71,5.14-13.32,7.52-19.57,2.38-6.24,4.96-12.41,7.7-18.51,22.32-49.51,55.91-94.54,96.62-130.47,43.7-38.58,95.66-67.11,151.7-83.24,62.75-18.05,129.02-20.94,193.52-12.17.09.02.16.03.25.04,1.92.26,4.82,2.08,3.76,4.39Z" fill="#f59835"/>
    <path d="M184.61,677.9h0c.99,1.03-.19,2.03-1.17,2.35-1.34.44-3.01.17-4.04-.79-4.08-3.77-8-7.67-11.8-11.73-30.87-32.96-54.15-72.88-70.41-114.9-16.38-42.29-25.85-87.46-27.54-132.78-1.68-45.18,4.74-90.42,20.69-132.8,16.88-44.85,42.76-86.12,73.94-122.39,15.76-18.38,33.5-35.89,51.46-51.13,17.98-15.26,37.18-30.03,57.81-41.46,2.47-1.36,9.19.87,5.32,3.47-4.77,3.21-9.58,6.33-14.37,9.52-39.28,26.2-74.42,58.8-103.88,95.68-29.53,36.97-53.44,78.96-68.01,124.09-13.72,42.54-18.07,86.63-14.59,131.57,3.48,44.94,14.57,89.39,32.49,130.74,8.97,20.71,19.69,40.7,32.28,59.43,12.33,18.36,26.48,35.26,41.78,51.17h.04s0-.02,0-.02Z" fill="#f59835"/>
    <path d="M315.27,708.39h0c1.42-.73,3.68-.77,5.01.2,1.2.88,1.23,2.22-.12,2.97-5.25,2.92-11.07,4.48-17.08,4.66-12.81.42-25.22-4.95-36.17-11.08-11.98-6.72-23.37-14.77-34.56-22.69-22.38-15.85-42.36-35.1-58-57.67-3.89-5.6-7.52-11.26-11.08-17.21-3.57-5.95-6.85-12.2-10.97-17.79-7.81-10.58-14.53-22.28-20.25-34.14-5.68-11.79-9.91-24.02-12.22-37.06-2.31-13.04-2.9-26.04-3.18-39.53-.28-13.52-.15-27.02-.9-40.49-.83-14.93-2.39-29.78-2.97-44.7-1.09-28.23.2-56.6,6.19-84.27,5.25-24.29,14.06-47.55,25.53-69.55,6.24-11.95,13.17-23.54,20.53-34.87,6.98-10.74,14.11-21.42,22.35-31.26,7.56-8.99,15.87-17.86,24.01-25.79,8.14-7.93,16.75-15.29,26.79-20.77,20.92-11.42,45.93-15.06,69.49-14.78,1.5.02,4.11.75,4.38,2.55.26,1.8-1.92,2.7-3.39,2.86-5.87.63-11.72,1.11-17.59,1.7-22.15,2.19-43.3,8.25-60.61,22.8-8.3,6.99-15.88,14.88-23.29,22.89-7.41,8.01-14.49,16.28-20.72,25.23-14.99,21.57-28.94,43.98-39.73,67.98-9.78,21.78-16.6,44.64-20.16,68.24-4.32,28.54-4.02,57.48-2.06,86.21.91,13.37,2.21,27.02,2.49,40.04s.19,26.11.82,39.12c.64,12.93,2.04,26.25,5.5,38.31,3.45,12.06,8.74,23.54,14.7,34.58,2.98,5.52,6.12,10.91,9.3,16.31,1.66,2.8,2.72,5.87,4.26,8.73,1.44,2.68,3.03,5.3,4.51,7.96,6.54,11.69,12.98,23.29,20.92,34.1,7.94,10.81,16.79,20.53,27.02,29.48,10.23,8.95,21.7,16.57,32.95,24.17,10.7,7.25,21.43,14.94,33.25,20.31,11.06,5.04,23.7,8.18,35.08,2.3v-.07s-.02,0-.02,0h0Z" fill="#f59835"/>
    <path d="M321.14,645.32h0c.22.55.2,1.11-.07,1.63l-.54.72c-.37.39-.83.66-1.33.82-.34.19-.73.31-1.13.36-.63.18-1.29.22-1.96.19l-1.34-.17c-.6-.11-1.17-.32-1.7-.63-.48-.22-.9-.53-1.26-.93-.3-.42-.62-.81-.91-1.2,1.5.6,2.98,1.17,4.48,1.77h-.18c-.76-.02-1.47-.13-2.18-.39-.44-.09-.86-.26-1.23-.5-.55-.25-1.01-.58-1.41-1.04l-.55-.85c-.21-.37-.4-.73-.58-1.1-.21-.46-.21-.93-.03-1.37.06-.49.31-.91.72-1.25l.16-.13-.78,1.56c-.08-.72.39-1.26.83-1.78.37-.37.81-.62,1.29-.78.34-.19.71-.28,1.09-.34.61-.15,1.24-.2,1.89-.17l1.29.16c.89.19,1.84.46,2.56,1.05l-3.63-1.07c.56.05,1.12.11,1.67.2.67.09,1.31.34,1.88.68.55.29,1.05.51,1.44,1.07.09.09.15.21.23.32.17.23.32.44.47.67.39.37.59.81.62,1.32.12.3.11.61-.04.92-.07.51-.31.93-.72,1.27l-.92.66-.12.08,1.49-3.05c.18.43.39.84.58,1.28h-.04s0,0,0,0Z" fill="#f59835"/>
    <path d="M272.22,444h0c.28-.28.62-.47.99-.59.27-.15.55-.22.84-.26.48-.14.95-.16,1.44-.14l.98.13c.31.08.64.18.93.28,0,.02.07.03.09.03.18.05.24.1.48.22.48.24.35.15.74.48.15.14.3.26.45.4l-3.53-1.38c.22,0,.45.02.67.07.56.02,1.11.16,1.64.38.31.15.59.32.9.48h.04c.39.22.7.52.9.91.08.12.17.23.23.35,0,.04.06.07.06.11.08.14.15.25.23.39.04.07.13.21.13.21v.04s.12.74.12.74v.31c-.03.42-.16.76-.44,1.04-.15.26-.35.46-.61.58-.39.3-.83.53-1.3.64l-.16.06,1.44-.77c-.23.15-.44.34-.69.46-.55.27-1.09.45-1.7.51l-1.01.05c-.76,0-1.38-.21-2.09-.44l2.02.42c-.25.01-.47-.02-.71-.07-.58-.02-1.14-.16-1.66-.38l-.9-.46-.69-.57s-.11-.12-.15-.16c0-.02-.06-.07-.09-.09-.15-.23-.29-.46-.46-.69v-.04c-.1-.18-.13-.61-.16-.9,0-.13-.03-.27-.07-.41v-.09c.01-.18.01-.16.09-.44.13-.47.06-.31.36-.7.22-.37.54-.65.95-.83l.16-.08-1.28,1.7v-.13c.17-.69.07-.51.4-.95.14-.2.14-.24.28-.32,0-.02.09-.06.09-.06h.02s0-.02,0-.02Z" fill="#f59835"/>
    <path d="M302.2,392.06h0c-.48.25-.98.39-1.5.45l-.9.03c-.42-.02-.85-.08-1.27-.23-.27-.01-.51-.13-.73-.28-.31-.15-.59-.34-.83-.59l-.32-.48c-.15-.27-.14-.52-.04-.79.06-.29.2-.53.43-.72,0-.02.07-.09.07-.09l-.35.46.15-.29-.16.53v-.09s1.65,1.84,1.65,1.84l-.15-.05c-.53-.2-.99-.49-1.38-.88-.32-.33-.51-.72-.49-1.18v-.16s.12.63.12.63c-.06-.23-.14-.41-.24-.59l.38.6c-.11-.16-.21-.28-.34-.39l.63.52-.24-.17,1.83.72h-.07s1.11.13,1.11.13h-.16s1.17-.05,1.17-.05h-.11s1.08-.23,1.08-.23h-.07s.93-.37.93-.37c0,0-.07.04-.09.04.23-.19.49-.36.74-.53h0l-.6-3.43c.15.07.31.17.46.27.66.41.95.85,1.31,1.49.04.07.06.11.1.18.12.27.27.5.42.78s.29.53.44.8c.08.14.15.25.21.37.06.14.17.28.21.41.2.55.18,1.06-.06,1.59l-.52.7c-.37.37-.81.62-1.31.78-.37.19-.73.28-1.11.34-.63.15-1.26.19-1.91.17l-1.31-.17c-.6-.09-1.15-.29-1.66-.61-.48-.2-.9-.48-1.24-.88-.28-.28-.49-.71-.7-1.08-.08-.14-.15-.25-.23-.39-.17-.25-.32-.48-.46-.76s-.31-.53-.46-.8c-.21-.34-.35-.66-.31-1.11,0-.13.08-.27.08-.4.02-.56.27-1.02.68-1.38.51-.45,1.08-.76,1.72-.94.77-.21,1.56-.32,2.36-.28s1.58.18,2.33.48c.62.27,1.32.64,1.77,1.17.19.21.43.51.5.83l-.4-.62c.24.28.42.58.59.9.1.21.14.43.17.66s.09.45.08.7v.18c-.06.27-.14.53-.22.8-.26.44-.59.76-1.05.99-.55.29-1.14.47-1.75.56h-.18s2.47-1.34,2.47-1.34c-.38.52-.76.95-1.37,1.22l.09.07h-.02Z" fill="#f59835"/>
    <path d="M593.26,417.43h0c-.15-.27-.16-.57-.03-.83.06-.31.2-.57.46-.77l.58-.4.73-.31c.43-.14.88-.21,1.33-.19.31-.03.63-.02.94.04.45.02.89.13,1.31.3l.7.36c.22.12.44.22.66.34.04.02.11.05.15.07.29.15.5.38.72.59l.24.23c.32.33.51.72.49,1.18l-.16.62c-.26.44-.59.76-1.05.99l-.8.33c-.48.14-.97.23-1.46.21-.52.05-1.03,0-1.54-.11-.47-.09-.91-.24-1.3-.48-.37-.15-.7-.39-.98-.69l-.24-.23c-.24-.21-.38-.49-.51-.78-.06-.16-.14-.32-.2-.48h-.02Z" fill="#f59835"/>
    <path d="M827.08,389.01h0c-.41-.44-.63-.99-.63-1.59.02-.45.19-.84.5-1.17.26-.44.64-.76,1.09-.96.53-.31,1.1-.49,1.68-.58.63-.18,1.31-.22,1.98-.19.89.04,1.76.21,2.58.53l1.01.53c.57.34,1,.82,1.26,1.42.27.46.52.94.79,1.4.13.23.27.48.4.71.08.12.13.21.17.34s.06.25.1.36c.2.52.18,1.06-.06,1.57-.31.55-.76.95-1.31,1.25-.3.19-.64.33-1,.43-.79.24-1.6.34-2.43.3-.42-.02-.87-.08-1.31-.17-.75-.17-1.46-.44-2.12-.85-.39-.28-.71-.61-1.06-.94-.24-.23-.38-.53-.55-.78-.36-.55-.7-1.08-1.05-1.63h-.02s0,.02,0,.02Z" fill="#f59835"/>
    <path d="M305.31,77.69h0c-.41-.44-.63-.99-.63-1.59.02-.45.19-.84.5-1.17.26-.44.64-.76,1.09-.96.53-.31,1.1-.49,1.68-.58.63-.18,1.31-.22,1.98-.19.89.04,1.76.21,2.58.53l1.01.53c.57.34,1,.82,1.26,1.42.27.46.52.94.79,1.4.13.23.27.48.4.71.08.12.13.21.17.34s.06.25.1.36c.2.52.18,1.06-.06,1.57-.31.55-.76.95-1.31,1.25-.3.19-.64.33-1,.43-.79.24-1.6.34-2.43.3-.42-.02-.87-.08-1.31-.17-.75-.17-1.46-.44-2.12-.85-.39-.28-.71-.61-1.06-.94-.24-.23-.38-.53-.55-.78-.36-.55-.7-1.08-1.05-1.63h-.02s0,.02,0,.02Z" fill="#f59835"/>
    <path d="M318.58,725.14h0c-.41-.44-.63-.99-.63-1.59.02-.45.19-.84.5-1.17.26-.44.64-.76,1.09-.96.53-.31,1.1-.49,1.68-.58.63-.18,1.31-.22,1.98-.19.89.04,1.76.21,2.58.53l1.01.53c.57.34,1,.82,1.26,1.42.27.46.52.94.79,1.4.13.23.27.48.4.71.08.12.13.21.17.34s.06.25.1.36c.2.52.18,1.06-.06,1.57-.31.55-.76.95-1.31,1.25-.3.19-.64.33-1,.43-.79.24-1.6.34-2.43.3-.42-.02-.87-.08-1.31-.17-.75-.17-1.46-.44-2.12-.85-.39-.28-.71-.61-1.06-.94-.24-.23-.38-.53-.55-.78-.36-.55-.7-1.08-1.05-1.63h-.02s0,.02,0,.02Z" fill="#f59835"/>
    <path d="M858.95,432.72h0c.31-.57.93-.86,1.5-1.06.64-.2,1.38-.21,2.02-.14s1.24.25,1.79.59c.26.15.48.36.62.63.17.21.25.44.24.73l-.14.58-.88-1.38.09.05c.31.17.54.38.69.68.19.23.27.48.26.79l-.32,1.35c-.06.29-.11.58-.24.84,0,.11-.08.2-.12.31-.1.22-.2.46-.3.68-.22.39-.54.69-.96.9l-.73.31c-.89.3-1.87.28-2.78.11-.45-.06-.84-.21-1.21-.43-.33-.15-.63-.36-.89-.64-.24-.21-.38-.49-.39-.8-.1-.3-.07-.56.1-.85.08-.24.18-.51.25-.75s.18-.46.3-.7c.12-.24.24-.46.36-.7.07-.13.12-.24.19-.37.22-.39.57-.74.96-.92.53-.25,1.07-.4,1.63-.47l-2.31,1.23c.1-.18.19-.37.29-.55h-.02Z" fill="#f59835"/>
    <path d="M817.82,477.14h0c.33.17.57.43.73.72.19.23.29.5.28.84l-.16.58-.38.5c-.28.26-.6.45-.96.57-.25.12-.52.2-.82.24-.48.12-.95.14-1.42.12l-.96-.11h-.09s.98.1.98.1h-.18s.99-.06.99-.06h-.18s.9-.17.9-.17l-.18.06.8-.33s-.07.04-.09.04c.37-.75.73-1.47,1.1-2.2v.04c.18.46.16.88-.05,1.3-.27.46-.64.8-1.09,1.03-.02.02-.09.06-.09.06l.67-.47c-.14.11-.26.21-.35.34l.45-.56c-.12.15-.19.33-.24.51l.18-.66-.02.38-4.15-2.7c.2,0,.4.02.6.07.58.02,1.11.16,1.64.38.29.15.59.29.88.46h.02c.39.22.67.52.88.91.19.19.3.42.29.68.02.16.06.29.07.43l-.13-.72c.04.14.08.27.16.39l-.42-.67.24.28-.67-.56.26.17-.9-.46c.31.15.64.29.94.49.26.17.48.4.71.61l-.67-.56.22.14-.88-.44.22.08-1.02-.31.24.05-1.11-.14c.2,0,.38.06.58.07.36.01.71.1,1.04.22.49.15.97.31,1.39.64-.89-.26-1.77-.52-2.66-.78h.02s-1.01.05-1.01.05l.25-.03-.88.19.25-.08-.73.31s.11-.06.18-.1c.34-.21.73-.33,1.11-.38.29-.08.59-.11.88-.1.31-.03.61-.02.92.04.31.01.58.07.87.17.38.1.75.25,1.08.47l.52.42.32.51.09.54c-.01.27-.11.56-.19.8-.03.09-.05.15-.1.22.05-.2.11-.4.18-.6v.11c-.05.49-.24.91-.61,1.23-.44.39-.97.68-1.53.83-.8.33-1.81.35-2.66.36-.47.03-1.05-.09-1.45-.15h-.13s-1.06-.32-1.06-.32c-.18-.07-.33-.15-.48-.24-.15-.07-.31-.17-.46-.24-.02-.02-.07-.03-.07-.03-.33-.19-.61-.47-.89-.73-.09-.05-.13-.14-.19-.21-.17-.25-.34-.51-.48-.76-.02-.05-.06-.09-.06-.14-.1-.32-.15-.68-.18-1.02.02-.4.14-.73.42-1.01.22-.37.54-.65.95-.83.48-.32,1.48-.57,2.04-.61l-3.21,2.31c.06-.36.12-.73.31-1.08s.45-.65.71-.93c.07-.06.12-.13.19-.17.28-.21.55-.4.85-.59.07-.04.14-.08.21-.1.68-.31,1.12-.47,1.88-.57,1.06-.14,2.22-.02,3.21.4l-2.97-.34c1.49-.16,3.07.04,4.36.85h-.04s0-.02,0-.02Z" fill="#f59835"/>
    <path d="M696.92,640.99h0c-.26-.26-.4-.58-.39-.93l.13-.47c.17-.44.72-.73,1.13-.89.59-.24,1.22-.33,1.87-.3.76.03,1.49.26,2.15.63.33.17.61.43.87.66.11.12.21.26.32.39l-1.91-.95c.2,0,.4.06.58.14.4.08.77.23,1.12.47l.54.45.34.51s.06.11.1.18c.13.21.19.39.22.64.05.36.11.68.03,1.03-.11.42-.19.89-.43,1.26-.19.26-.4.54-.61.78-.07.11-.19.19-.28.26-.39.34-.88.59-1.4.75-.45.16-.93.23-1.42.21-.52.05-1.01,0-1.52-.11-.47-.06-.89-.22-1.28-.46-.37-.15-.68-.36-.96-.67-.3-.33-.49-.71-.47-1.16l.16-.6c.24-.44.59-.74,1.03-.97.05-.02.11-.06.11-.06l-.62.42c.14-.11.28-.24.4-.39l-.4.52c.17-.22.29-.46.37-.72l-.16.58c.08-.2.08-.42.09-.62s.06-.4.07-.6c.01-.31.14-.58.35-.79.19-.28.45-.5.77-.64l.14-.06-.9,1.84c-.06-.23-.12-.41-.24-.59l.29.46-.13-.18h-.04s0,0,0,0Z" fill="#f59835"/>
    <path d="M578.65,712.8h0c.02-.4.21-.73.51-1.01l.55-.4c.48-.27,1-.41,1.54-.47l.92-.03c.47,0,.92.08,1.33.23.4.08.75.25,1.1.47.31.15.52.38.69.68.19.21.27.48.26.79-.03.18-.04.33-.09.51v.25c-.04.25-.08.53-.2.75-.15.29-.36.5-.63.65-.28.24-.6.38-.96.48l-.81.17-.9.03c-.45-.02-.87-.08-1.29-.23-.27-.01-.51-.13-.73-.28-.33-.13-.61-.34-.85-.59l-.32-.48c-.13-.23-.11-.52-.15-.77v-.25s-.01-.52-.01-.52h0l.02.02Z" fill="#f59835"/>
    <path d="M93.93,348.71h0c.02-.4.21-.73.51-1.01l.55-.4c.48-.27,1-.41,1.54-.47l.92-.03c.47,0,.92.08,1.33.23.4.08.75.25,1.1.47.31.15.52.38.69.68.19.21.27.48.26.79,0,.18-.01.34-.09.51v.25c-.02.25-.08.53-.2.75-.15.29-.36.5-.63.65-.28.24-.6.38-.96.48l-.81.17-.9.03c-.45-.02-.87-.08-1.29-.23-.27-.01-.51-.13-.73-.28-.33-.13-.61-.34-.85-.59l-.32-.48c-.13-.23-.11-.52-.15-.77v-.25s-.01-.52-.01-.52h.02s0,.02,0,.02Z" fill="#f59835"/>
    <path d="M340.29,71.95h0c.02-.4.21-.73.51-1.01l.55-.4c.48-.27,1-.41,1.54-.47l.92-.03c.47.02.92.08,1.33.23.4.08.75.25,1.1.47.31.15.52.38.69.68.19.21.27.48.26.79,0,.18-.01.34-.09.51v.25c-.02.25-.08.53-.2.75-.15.29-.36.5-.63.65-.28.24-.6.38-.96.48l-.81.17-.9.03c-.45-.02-.87-.08-1.29-.23-.27-.01-.51-.13-.73-.28-.33-.13-.61-.34-.85-.59l-.32-.48c-.13-.23-.11-.52-.15-.77v-.25s-.01-.52-.01-.52h0l.02.02Z" fill="#f59835"/>
    <path d="M481.74,114.7h0c-.67-.03-1.34-.21-1.9-.55-.35-.22-.63-.54-.7-.95-.08-.2-.05-.43.07-.62l.28-.37c.42-.43,1.12-.56,1.66-.67.16-.04.32-.08.47-.07l-1.71.69.19-.19c.68-.67,1.65-.92,2.57-1.06.59-.09,1.15-.07,1.7.02.56.02,1.07.16,1.58.36,1.1.47,2,1.04,2.86,1.86.22.21.41.44.58.67.3.42.59.85.8,1.33.18.46.16.9-.05,1.34l-.45.59c-.44.41-.97.7-1.56.85l-1.02.2c-.59.09-1.15.07-1.7-.02-.56-.02-1.07-.16-1.58-.36-.73-.3-1.56-.83-1.88-1.6-.1-.23-.21-.41-.33-.62l.4.62c-.23-.35-.51-.65-.84-.93l.65.54c-.26-.21-.54-.4-.85-.55l.83.44s-.24-.1-.35-.15c-.86-.37-2.1-1.14-1.99-2.28v-.27s2,1.67,2,1.67h-.18s.74.09.74.09h-.31s.02-.01.02-.01v-.02Z" fill="#f59835"/>
    <path d="M592.72,152.71h0c.05-3.51,8.82-3.14,8.57.35l-.03.63c-.19,2.57-4.3,2.6-6.02,2.08-2.1-.65-3.63-2.75-1.2-4.19l.5-.29c1.38-.82,3.77-.72,5.08.21l.48.33c2.31,1.64.61,3.61-1.53,4.08-1.74.4-5.85,0-5.83-2.57l.03-.63h-.04s0,0,0,0Z" fill="#f59835"/>
    <path d="M89.09,445.63h0c.05-3.51,8.82-3.14,8.57.35l-.03.63c-.19,2.57-4.3,2.6-6.02,2.08-2.1-.65-3.63-2.75-1.2-4.19l.5-.29c1.38-.82,3.77-.72,5.08.21l.48.33c2.31,1.64.61,3.61-1.53,4.08-1.74.4-5.85,0-5.83-2.57l.03-.63h-.04Z" fill="#f59835"/>
    <path d="M505.85,166.76c-1.07-.04-3.22-.58-3.17-2.03s2.25-1.81,3.32-1.77,3.22.58,3.17,2.03-2.22,1.81-3.32,1.77h0Z" fill="#f59835"/>
    <path d="M101.56,475.37c-1.07-.04-3.22-.58-3.17-2.03s2.25-1.81,3.32-1.77,3.22.58,3.17,2.03-2.22,1.81-3.32,1.77h0Z" fill="#f59835"/>
    <path d="M649.73,330.87h0c.31,2.58-3.82,2.02-5.14,1.16-1.85-1.23-3.99-2.25-5.31-4.06-1.16-1.59-2.19-3.32-3.2-5-16.13-26.82-20.39-60.48-12.16-90.62,7.56-27.56,25.75-53.68,50.69-68.08,25.95-14.97,60.33-16.07,87.57-4.08,14,6.15,26.46,15.72,36.81,26.89,9.65,10.4,15.88,23.13,19.59,36.78,4.39,16.18,4.74,33.37,1.35,49.73-3.26,15.81-8.79,32.78-18.75,45.7-2.3,2.97-6.51,3.4-9.96,2.4-2.77-.79-6.46-3.17-4.79-6.61,1.67-3.45,3.56-6.76,5.36-10.14,7.34-13.71,12.59-28.12,14.26-43.93,1.67-15.8-.4-31.67-6.2-46.49-2.26-5.78-4.9-11.42-8.6-16.43-3.26-4.45-6.91-8.41-10.64-11.87-10.07-9.4-22.22-17.91-35.21-22.29-24.09-8.16-51.19-3.4-71.63,12.2-21.89,16.71-36.91,43.13-41.24,70.17-2.34,14.72-1.86,29.83,1.5,44.33,1.67,7.13,4.01,14.05,6.94,20.75,1.48,3.42,3.1,6.79,4.96,10.03.91,1.58,1.93,3.2,2.83,4.67.9,1.47.71,3.07.91,4.76h.02s0,.02,0,.02Z" fill="#f59835"/>
    <path d="M756.37,248.46c0-.33-.09-.63-.24-.9,0-.02.02-.04.03-.07.19-.77-.61-1.64-1.11-2.03-2.49-1.98-6.35-2.5-9.34-3.36-2.99-.86-6.22-1.79-9.33-2.68-3.1-.89-5.97-1.81-9.03-2.54-1.7-.4-3.42-.88-5.14-1.24.43-.77.83-1.57,1.25-2.33,1.03-1.87,2.03-3.59,2.99-5.42,2.1-4.03,4.3-8,6.61-11.9,2.31-3.9,4.84-7.79,7.51-11.53,1.32-1.86,2.69-3.67,4.12-5.46.95-1.18,2.18-2.36,2.75-3.74,1.06-.74,1.7-1.92.67-3.21-5.39-6.68-11.28-12.86-17.26-19-5.99-6.13-11.96-13.19-19.18-18.37-.83-.59-4.47-1.07-4.49.56-1.11.15-2.04.62-2.37,1.48-7.24,18.7-11.15,38.38-11.33,58.44-.17,19.3,2.86,38.53,7.57,57.22,1.36,5.41,2.62,10.86,4.16,16.22.74,2.56,1.55,5.1,2.43,7.62.98,2.81,1.72,5.79,3.56,8.19,1.01,1.31,4.96,2.24,6.74,1.08,0,0,0,.02.01.02l21.42-2.1c-.03.4-.06.81-.07,1.21-.03,2.14,3.99,2.23,5.01.94,2.71-3.43,4.15-8.04,5.4-12.19,1.43-4.73,2.6-9.56,3.61-14.4,2.06-10.02,2.93-20.28,3.06-30.51Z" fill="#f59835"/>
    <path d="M392.28,454.63c8.29,17.59,27.6,43.42,27.6,43.42l-3.21,72.99,58.73,18.28,4.49-53.74c23.97,10.63,77.84,10.13,77.84,10.13l5.22,48.6,62.41-13.87c4.47-4.45,5.71-52.62,5.71-52.62,55.78-20.82,88.46-78.44,88.46-78.44,24.15,60.86-5.8,116.45-5.8,116.45-48,119.57-173.04,123.73-173.04,123.73-41.57.54-133.34-10.29-168.86-88.64-38.19-84.32,12.07-140.82,12.07-140.82h0l8.36-5.46Z" fill="#f59835"/>
    <path d="M298.72,115.91l-2.51,7.74c-18.43,12.96-45.69,39.96-45.69,39.96-59.78,58.67-88.13,141.93-88.13,141.93-51.05,167.48,32.7,284.26,32.7,284.26,36.64,62.22,87.15,91.12,87.15,91.12l37.74,25.91c-27.13,25.89-91.97-30.94-118.97-53.93-27.02-23.01-26.42-43.8-49.65-72.39-23.25-28.57-31.5-60.38-29.01-91.75,2.51-31.37-8.17-74.8-4.87-113.01,3.3-38.22,5.83-83.16,30.39-131.09,24.56-47.92,35.42-57.7,67.36-93.92,31.94-36.22,83.52-34.79,83.52-34.79h0v-.04s-.02,0-.02,0Z" fill="#f59835"/>
    <path d="M509.61,306.62c-4.26-2.02-8.57-3.91-12.92-5.66,4.84-24.81.46-51.25-13.46-72.56-13.2-20.2-33.57-35.06-56.86-41.4-5.86-1.59-8.75,7.4-2.88,9,20.83,5.66,39.52,18.68,51.39,36.83,12.4,18.96,17.01,42.5,12.9,64.74-67.81-24.25-144.43-16.86-205.98,21.98-.9.57-1.78,1.17-2.67,1.75-5.16-31.27,4.45-64.32,25.89-87.77,4.08-4.46-2.29-11.44-6.4-6.95-24.49,26.78-35.14,64.18-28.16,99.84.05.23.11.45.18.66-1.51,1.08-3,2.19-4.49,3.31-.02.07-.03.14-.06.21-.2.62-.54,1.16-.96,1.63.36,2.91.7,5.84.84,8.76.41.15.81.36,1.2.59,48.32-37.86,110.73-55.28,172.39-46.53,15.39,2.18,30.6,5.99,45.24,11.31-8.35,14.21-21.29,25.35-36.95,30.9-5.66,2-3.6,11.24,2.14,9.2,18.55-6.57,34.19-19.42,43.7-36.66,3.65,1.5,7.26,3.09,10.82,4.78,5.43,2.58,10.58-5.35,5.1-7.96Z" fill="#f59835"/>
    <path d="M415.35,310.02c-30.6-3.42-61.94,4.18-87.54,21.3-5,3.35-.63,11.73,4.43,8.35,24.38-16.31,53.56-23.47,82.72-20.21,6.04.68,6.4-8.77.38-9.44Z" fill="#f59835"/>
  </g>
</svg>